M48
; DRILL file KiCad 10.0.1 date 2026-06-24T16:28:39
; FORMAT={-:-/ absolute / metric / decimal}
; #@! TF.CreationDate,2026-06-24T16:28:39+01:00
; #@! TF.GenerationSoftware,Kicad,Pcbnew,10.0.1
; #@! TF.FileFunction,Plated,1,4,PTH
FMAT,2
METRIC
; #@! TA.AperFunction,Plated,PTH,ComponentDrill
T1C0.200
; #@! TA.AperFunction,Plated,PTH,ViaDrill
T2C0.300
; #@! TA.AperFunction,Plated,PTH,ComponentDrill
T3C0.300
; #@! TA.AperFunction,Plated,PTH,ComponentDrill
T4C0.600
; #@! TA.AperFunction,Plated,PTH,ComponentDrill
T5C1.000
; #@! TA.AperFunction,Plated,PTH,ComponentDrill
T6C3.200
%
G90
G05
T1
X186.737Y-75.457
X186.737Y-76.983
X187.5Y-74.695
X187.5Y-76.22
X187.5Y-77.745
X188.262Y-75.457
X188.262Y-76.983
X189.025Y-74.695
X189.025Y-76.22
X189.025Y-77.745
X189.787Y-75.457
X189.787Y-76.983
T2
X159.25Y-61.75
X161.0Y-63.25
X163.0Y-59.0
X164.45Y-49.15
X164.7Y-65.55
X165.65Y-59.05
X165.75Y-51.5
X166.5Y-53.5
X167.5Y-59.5
X168.1Y-96.6
X168.9Y-79.25
X169.0Y-76.0
X169.25Y-85.5
X170.25Y-64.3
X170.25Y-71.8
X170.3Y-44.1
X171.05Y-65.45
X171.2Y-67.2
X172.15Y-51.6
X172.25Y-76.0
X173.0Y-63.5
X173.45Y-67.25
X173.6Y-96.9
X174.366Y-63.266
X174.85Y-51.5
X175.25Y-57.75
X175.75Y-70.95
X176.25Y-51.25
X176.25Y-76.3
X176.25Y-77.95
X176.25Y-86.25
X176.251Y-77.101
X176.4Y-84.35
X177.05Y-56.5
X178.247Y-86.99
X178.496Y-87.75
X178.531Y-88.649
X178.6Y-95.4
X180.0Y-91.25
X180.75Y-55.5
X181.25Y-51.5
X181.5Y-87.25
X182.401Y-90.401
X182.45Y-82.9
X183.25Y-83.65
X183.25Y-91.25
X183.858Y-52.216
X184.25Y-84.25
X184.25Y-87.25
X184.4Y-90.45
X185.0Y-96.75
X186.15Y-92.1
X186.684Y-47.184
X186.75Y-48.25
X188.75Y-46.25
X188.75Y-48.0
X188.959Y-83.608
X190.4Y-84.2
X190.75Y-69.4
X190.95Y-101.05
X192.25Y-91.25
X192.7Y-55.75
X192.75Y-46.25
X193.45Y-66.65
X194.0Y-87.0
X196.15Y-45.65
X203.55Y-45.45
X203.95Y-48.15
X210.65Y-44.4
T3
X167.2Y-66.3
X167.65Y-65.85
X167.65Y-66.3
X167.65Y-66.75
X168.1Y-66.3
T5
X165.4Y-86.84
X165.4Y-89.38
X165.4Y-91.92
X165.4Y-94.46
X165.4Y-97.0
X165.4Y-99.54
X171.0Y-91.62
X171.0Y-94.16
X171.0Y-96.7
X171.0Y-99.24
X176.18Y-91.7
X176.18Y-94.24
X176.18Y-96.78
X176.18Y-99.32
T6
X155.4Y-97.8
X156.7Y-47.9
X214.7Y-48.0
T4
G00X174.28Y-45.535
M15
G01X174.28Y-44.735
M16
G05
G00X174.28Y-49.865
M15
G01X174.28Y-48.765
M16
G05
G00X182.92Y-45.535
M15
G01X182.92Y-44.735
M16
G05
G00X182.92Y-49.865
M15
G01X182.92Y-48.765
M16
G05
M30
