M48
; DRILL file KiCad 10.0.1 date 2026-06-30T15:13:46
; FORMAT={-:-/ absolute / metric / decimal}
; #@! TF.CreationDate,2026-06-30T15:13:46+01:00
; #@! TF.GenerationSoftware,Kicad,Pcbnew,10.0.1
; #@! TF.FileFunction,Plated,1,4,PTH
FMAT,2
METRIC
; #@! TA.AperFunction,Plated,PTH,ComponentDrill
T1C0.200
; #@! TA.AperFunction,Plated,PTH,ViaDrill
T2C0.300
; #@! TA.AperFunction,Plated,PTH,ComponentDrill
T3C0.300
; #@! TA.AperFunction,Plated,PTH,ComponentDrill
T4C0.600
; #@! TA.AperFunction,Plated,PTH,ComponentDrill
T5C1.000
; #@! TA.AperFunction,Plated,PTH,ComponentDrill
T6C3.200
%
G90
G05
T1
X202.212Y-75.112
X202.212Y-76.638
X202.975Y-74.35
X202.975Y-75.875
X202.975Y-77.4
X203.737Y-75.112
X203.737Y-76.638
X204.5Y-74.35
X204.5Y-75.875
X204.5Y-77.4
X205.262Y-75.112
X205.262Y-76.638
T2
X178.15Y-84.55
X178.35Y-77.7
X179.85Y-71.45
X183.25Y-53.95
X183.6Y-43.75
X184.05Y-60.1
X184.05Y-63.55
X185.15Y-72.95
X185.2Y-56.75
X185.5Y-50.1
X185.55Y-66.75
X186.184Y-58.866
X186.4Y-82.5
X187.45Y-61.85
X187.95Y-70.25
X190.6Y-55.15
X190.7Y-53.75
X191.3Y-61.05
X191.321Y-52.052
X191.45Y-70.75
X191.5Y-68.2
X191.7Y-91.5
X191.75Y-89.15
X191.9Y-94.25
X192.626Y-52.052
X193.0Y-57.95
X193.3Y-59.75
X193.35Y-64.7
X193.6Y-63.45
X193.85Y-51.45
X194.75Y-88.85
X195.25Y-54.0
X195.4Y-51.7
X195.85Y-83.85
X196.1Y-65.65
X196.2Y-55.95
X197.9Y-43.9
X198.45Y-58.45
X199.4Y-63.9
X200.0Y-52.7
X200.05Y-58.5
X200.65Y-87.05
X201.95Y-88.05
X202.25Y-89.3
X202.5Y-48.7
X202.55Y-62.35
X202.7Y-54.8
X204.05Y-100.75
X204.35Y-88.95
X204.45Y-43.75
X204.5Y-48.55
X204.5Y-93.65
X204.8Y-53.05
X204.9Y-50.85
X205.4Y-83.4
X207.05Y-62.85
X207.45Y-96.55
X208.0Y-87.35
X208.6Y-69.5
X209.2Y-60.95
X209.75Y-87.25
X209.8Y-63.9
X210.05Y-51.2
X210.85Y-43.75
X211.4Y-87.45
T3
X189.95Y-64.15
X190.4Y-63.7
X190.4Y-64.15
X190.4Y-64.6
X190.85Y-64.15
T5
X189.25Y-86.73
X189.25Y-89.27
X189.25Y-91.81
X189.25Y-94.35
X189.25Y-96.89
X189.25Y-99.43
X194.85Y-91.51
X194.85Y-94.05
X194.85Y-96.59
X194.85Y-99.13
X200.03Y-91.59
X200.03Y-94.13
X200.03Y-96.67
X200.03Y-99.21
T6
X179.95Y-46.45
X181.2Y-98.5
X214.8Y-47.0
T4
G00X187.08Y-45.575
M15
G01X187.08Y-44.775
M16
G05
G00X187.08Y-49.905
M15
G01X187.08Y-48.805
M16
G05
G00X195.72Y-45.575
M15
G01X195.72Y-44.775
M16
G05
G00X195.72Y-49.905
M15
G01X195.72Y-48.805
M16
G05
M30
