%TF.GenerationSoftware,KiCad,Pcbnew,10.0.1*%
%TF.CreationDate,2026-06-30T15:13:06+01:00*%
%TF.ProjectId,ESP32_IoT_Board_Design,45535033-325f-4496-9f54-5f426f617264,rev?*%
%TF.SameCoordinates,Original*%
%TF.FileFunction,Copper,L2,Inr*%
%TF.FilePolarity,Positive*%
%FSLAX46Y46*%
G04 Gerber Fmt 4.6, Leading zero omitted, Abs format (unit mm)*
G04 Created by KiCad (PCBNEW 10.0.1) date 2026-06-30 15:13:06*
%MOMM*%
%LPD*%
G01*
G04 APERTURE LIST*
%TA.AperFunction,ComponentPad*%
%ADD10C,6.400000*%
%TD*%
%TA.AperFunction,ComponentPad*%
%ADD11C,0.600000*%
%TD*%
%TA.AperFunction,HeatsinkPad*%
%ADD12C,0.600000*%
%TD*%
%TA.AperFunction,ComponentPad*%
%ADD13R,1.700000X1.700000*%
%TD*%
%TA.AperFunction,ComponentPad*%
%ADD14C,1.700000*%
%TD*%
%TA.AperFunction,ComponentPad*%
%ADD15O,1.000000X2.100000*%
%TD*%
%TA.AperFunction,ComponentPad*%
%ADD16O,1.000000X1.800000*%
%TD*%
%TA.AperFunction,ViaPad*%
%ADD17C,0.700000*%
%TD*%
%TA.AperFunction,Conductor*%
%ADD18C,0.250000*%
%TD*%
G04 APERTURE END LIST*
D10*
%TO.N,N/C*%
%TO.C,REF\u002A\u002A*%
X214800000Y-47000000D03*
%TD*%
D11*
%TO.N,GND*%
%TO.C,U4*%
X190400000Y-63700000D03*
X190850000Y-64150000D03*
X190400000Y-64150000D03*
X189950000Y-64150000D03*
X190400000Y-64600000D03*
%TD*%
D12*
%TO.N,GND*%
%TO.C,U1*%
X204500000Y-74350000D03*
X202975000Y-74350000D03*
X205262500Y-75112500D03*
X203737500Y-75112500D03*
X202212500Y-75112500D03*
X204500000Y-75875000D03*
X202975000Y-75875000D03*
X205262500Y-76637500D03*
X203737500Y-76637500D03*
X202212500Y-76637500D03*
X204500000Y-77400000D03*
X202975000Y-77400000D03*
%TD*%
D13*
%TO.N,3V3*%
%TO.C,J3*%
X189250000Y-99430000D03*
D14*
%TO.N,GND*%
X189250000Y-96890000D03*
%TO.N,MOSI*%
X189250000Y-94350000D03*
%TO.N,MISO*%
X189250000Y-91810000D03*
%TO.N,SCLK*%
X189250000Y-89270000D03*
%TO.N,CS*%
X189250000Y-86730000D03*
%TD*%
D13*
%TO.N,3V3*%
%TO.C,J2*%
X200030000Y-99210000D03*
D14*
%TO.N,GND*%
X200030000Y-96670000D03*
%TO.N,SDA*%
X200030000Y-94130000D03*
%TO.N,SCL*%
X200030000Y-91590000D03*
%TD*%
D10*
%TO.N,N/C*%
%TO.C,REF\u002A\u002A*%
X181200000Y-98500000D03*
%TD*%
D13*
%TO.N,3V3*%
%TO.C,J4*%
X194850000Y-99130000D03*
D14*
%TO.N,GND*%
X194850000Y-96590000D03*
%TO.N,TXD2*%
X194850000Y-94050000D03*
%TO.N,RXD2*%
X194850000Y-91510000D03*
%TD*%
D10*
%TO.N,N/C*%
%TO.C,REF\u002A\u002A*%
X179950000Y-46450000D03*
%TD*%
D15*
%TO.N,Net-(J1-SHIELD)*%
%TO.C,J1*%
X195720000Y-49355000D03*
D16*
X195720000Y-45175000D03*
D15*
X187080000Y-49355000D03*
D16*
X187080000Y-45175000D03*
%TD*%
D17*
%TO.N,GND*%
X178350000Y-77700000D03*
X195400000Y-51700000D03*
X190600000Y-55150000D03*
X211400000Y-87450000D03*
X184050000Y-63550000D03*
X178150000Y-84550000D03*
X193300000Y-59750000D03*
X191450000Y-70750000D03*
X184050000Y-60100000D03*
X185500000Y-50100000D03*
X202550000Y-62350000D03*
X186184314Y-58865686D03*
X183600000Y-43750000D03*
X191300000Y-61050000D03*
X193600000Y-63450000D03*
X197900000Y-43900000D03*
X196200000Y-55950000D03*
X200050000Y-58500000D03*
X209200000Y-60950000D03*
X204450000Y-43750000D03*
X191500000Y-68200000D03*
X210850000Y-43750000D03*
%TO.N,EN*%
X207050000Y-62850000D03*
X202500000Y-48700000D03*
X208600000Y-69500000D03*
X207450000Y-96550000D03*
%TO.N,3V3*%
X187950000Y-70250000D03*
X209800000Y-63900000D03*
X199400000Y-63900000D03*
X194750000Y-88850000D03*
X204500000Y-93650000D03*
X196100000Y-65650000D03*
X185150000Y-72950000D03*
X186400000Y-82500000D03*
%TO.N,5V_USB*%
X185200000Y-56750000D03*
X198450000Y-58450000D03*
X204350000Y-88950000D03*
X193000000Y-57950000D03*
X187450000Y-61850000D03*
%TO.N,USB_N*%
X192626200Y-52052415D03*
X191321385Y-52052415D03*
%TO.N,TX0*%
X205400000Y-83400000D03*
X193350000Y-64700000D03*
%TO.N,IO0*%
X204500000Y-48550000D03*
X195850000Y-83850000D03*
X204050000Y-100750000D03*
%TO.N,SCLK*%
X200650000Y-87050000D03*
X191750000Y-89150000D03*
%TO.N,MISO*%
X191700000Y-91500000D03*
X201950000Y-88050000D03*
%TO.N,SCL*%
X202250000Y-89300000D03*
X208000000Y-87350000D03*
%TO.N,MOSI*%
X191900000Y-94250000D03*
X209750000Y-87250000D03*
%TO.N,VBUS*%
X183250000Y-53950000D03*
X195250000Y-54000000D03*
X202700000Y-54800000D03*
X204900000Y-50850000D03*
X185550000Y-66750000D03*
X193850000Y-51450000D03*
%TO.N,/CC2*%
X200000000Y-52700000D03*
X210050000Y-51200000D03*
X190700000Y-53750000D03*
%TO.N,PG*%
X204800000Y-53050000D03*
X179850000Y-71450000D03*
%TD*%
%TO.N,IO0*%
D18*
X195850000Y-83850000D02*
X201350000Y-78350000D01*
X196345000Y-83850000D02*
X201525000Y-89030000D01*
X201525000Y-98225000D02*
X204050000Y-100750000D01*
X201525000Y-89030000D02*
X201525000Y-98225000D01*
X201350000Y-51700000D02*
X204500000Y-48550000D01*
X195850000Y-83850000D02*
X196345000Y-83850000D01*
X201350000Y-78350000D02*
X201350000Y-51700000D01*
%TD*%
%TA.AperFunction,Conductor*%
%TO.N,GND*%
G36*
X218842937Y-43049274D02*
G01*
X218888692Y-43102078D01*
X218899898Y-43153589D01*
X218899898Y-52431000D01*
X218880213Y-52498039D01*
X218827409Y-52543794D01*
X218775898Y-52555000D01*
X212627500Y-52555000D01*
X212627500Y-100555000D01*
X218775898Y-100555000D01*
X218842937Y-100574685D01*
X218888692Y-100627489D01*
X218899898Y-100679000D01*
X218899898Y-102275499D01*
X218880213Y-102342538D01*
X218827409Y-102388293D01*
X218775898Y-102399499D01*
X181823024Y-102399499D01*
X181755985Y-102379814D01*
X181710230Y-102327010D01*
X181700286Y-102257852D01*
X181729311Y-102194296D01*
X181788089Y-102156522D01*
X181798833Y-102153882D01*
X182100212Y-102093935D01*
X182100223Y-102093932D01*
X182100223Y-102093931D01*
X182100233Y-102093930D01*
X182448164Y-101988386D01*
X182784076Y-101849247D01*
X183104732Y-101677853D01*
X183407044Y-101475854D01*
X183688101Y-101245197D01*
X183945197Y-100988101D01*
X184175854Y-100707044D01*
X184377853Y-100404732D01*
X184549247Y-100084076D01*
X184688386Y-99748164D01*
X184793930Y-99400233D01*
X184793932Y-99400223D01*
X184793935Y-99400212D01*
X184864862Y-99043630D01*
X184900500Y-98681790D01*
X184900500Y-98318209D01*
X184899013Y-98303116D01*
X184864862Y-97956369D01*
X184846869Y-97865909D01*
X184793935Y-97599787D01*
X184793932Y-97599776D01*
X184793931Y-97599773D01*
X184793930Y-97599767D01*
X184688386Y-97251836D01*
X184549247Y-96915924D01*
X184544010Y-96906127D01*
X184507240Y-96837334D01*
X184377859Y-96595279D01*
X184377858Y-96595277D01*
X184377853Y-96595268D01*
X184175854Y-96292956D01*
X183945197Y-96011899D01*
X183945196Y-96011898D01*
X183945192Y-96011893D01*
X183688106Y-95754807D01*
X183407049Y-95524150D01*
X183407048Y-95524149D01*
X183407044Y-95524146D01*
X183104732Y-95322147D01*
X183104727Y-95322144D01*
X183104720Y-95322140D01*
X182784083Y-95150756D01*
X182784078Y-95150754D01*
X182448165Y-95011614D01*
X182100223Y-94906067D01*
X182100212Y-94906064D01*
X181743630Y-94835137D01*
X181471111Y-94808296D01*
X181381794Y-94799500D01*
X181018206Y-94799500D01*
X180935679Y-94807628D01*
X180656369Y-94835137D01*
X180299787Y-94906064D01*
X180299776Y-94906067D01*
X179951834Y-95011614D01*
X179615921Y-95150754D01*
X179615916Y-95150756D01*
X179295279Y-95322140D01*
X179295261Y-95322151D01*
X178992964Y-95524140D01*
X178992950Y-95524150D01*
X178711893Y-95754807D01*
X178454807Y-96011893D01*
X178224150Y-96292950D01*
X178224140Y-96292964D01*
X178022151Y-96595261D01*
X178022140Y-96595279D01*
X177850756Y-96915916D01*
X177850754Y-96915921D01*
X177711614Y-97251834D01*
X177606067Y-97599776D01*
X177606064Y-97599787D01*
X177535137Y-97956369D01*
X177499500Y-98318209D01*
X177499500Y-98681790D01*
X177535137Y-99043630D01*
X177606064Y-99400212D01*
X177606067Y-99400223D01*
X177711614Y-99748165D01*
X177850754Y-100084078D01*
X177850756Y-100084083D01*
X178022140Y-100404720D01*
X178022151Y-100404738D01*
X178224140Y-100707035D01*
X178224150Y-100707049D01*
X178454807Y-100988106D01*
X178711893Y-101245192D01*
X178711898Y-101245196D01*
X178711899Y-101245197D01*
X178992956Y-101475854D01*
X179295268Y-101677853D01*
X179295277Y-101677858D01*
X179295279Y-101677859D01*
X179615916Y-101849243D01*
X179615918Y-101849243D01*
X179615924Y-101849247D01*
X179951836Y-101988386D01*
X180299767Y-102093930D01*
X180299773Y-102093931D01*
X180299776Y-102093932D01*
X180299787Y-102093935D01*
X180601167Y-102153882D01*
X180663078Y-102186266D01*
X180697652Y-102246982D01*
X180693913Y-102316752D01*
X180653047Y-102373424D01*
X180588029Y-102399005D01*
X180576976Y-102399499D01*
X176524500Y-102399499D01*
X176457461Y-102379814D01*
X176411706Y-102327010D01*
X176400500Y-102275499D01*
X176400500Y-86623713D01*
X187899500Y-86623713D01*
X187899500Y-86836287D01*
X187909534Y-86899644D01*
X187925734Y-87001925D01*
X187932754Y-87046243D01*
X187993170Y-87232184D01*
X187998444Y-87248414D01*
X188094951Y-87437820D01*
X188219890Y-87609786D01*
X188370213Y-87760109D01*
X188542182Y-87885050D01*
X188550946Y-87889516D01*
X188601742Y-87937491D01*
X188618536Y-88005312D01*
X188595998Y-88071447D01*
X188550946Y-88110484D01*
X188542182Y-88114949D01*
X188370213Y-88239890D01*
X188219890Y-88390213D01*
X188094951Y-88562179D01*
X187998444Y-88751585D01*
X187932753Y-88953760D01*
X187899500Y-89163713D01*
X187899500Y-89376286D01*
X187927466Y-89552860D01*
X187932754Y-89586243D01*
X187991751Y-89767817D01*
X187998444Y-89788414D01*
X188094951Y-89977820D01*
X188219890Y-90149786D01*
X188370213Y-90300109D01*
X188542182Y-90425050D01*
X188550946Y-90429516D01*
X188601742Y-90477491D01*
X188618536Y-90545312D01*
X188595998Y-90611447D01*
X188550946Y-90650484D01*
X188542182Y-90654949D01*
X188370213Y-90779890D01*
X188219890Y-90930213D01*
X188094951Y-91102179D01*
X187998444Y-91291585D01*
X187932753Y-91493760D01*
X187918497Y-91583771D01*
X187899500Y-91703713D01*
X187899500Y-91916287D01*
X187932754Y-92126243D01*
X187995000Y-92317817D01*
X187998444Y-92328414D01*
X188094951Y-92517820D01*
X188219890Y-92689786D01*
X188370213Y-92840109D01*
X188542182Y-92965050D01*
X188550946Y-92969516D01*
X188601742Y-93017491D01*
X188618536Y-93085312D01*
X188595998Y-93151447D01*
X188550946Y-93190484D01*
X188542182Y-93194949D01*
X188370213Y-93319890D01*
X188219890Y-93470213D01*
X188094951Y-93642179D01*
X187998444Y-93831585D01*
X187932753Y-94033760D01*
X187911772Y-94166232D01*
X187899500Y-94243713D01*
X187899500Y-94456287D01*
X187906120Y-94498082D01*
X187930634Y-94652863D01*
X187932754Y-94666243D01*
X187987631Y-94835137D01*
X187998444Y-94868414D01*
X188094951Y-95057820D01*
X188219890Y-95229786D01*
X188370213Y-95380109D01*
X188542179Y-95505048D01*
X188542181Y-95505049D01*
X188542184Y-95505051D01*
X188551493Y-95509794D01*
X188602290Y-95557766D01*
X188619087Y-95625587D01*
X188596552Y-95691722D01*
X188551505Y-95730760D01*
X188542446Y-95735376D01*
X188542440Y-95735380D01*
X188488282Y-95774727D01*
X188488282Y-95774728D01*
X189120591Y-96407037D01*
X189057007Y-96424075D01*
X188942993Y-96489901D01*
X188849901Y-96582993D01*
X188784075Y-96697007D01*
X188767037Y-96760591D01*
X188134728Y-96128282D01*
X188134727Y-96128282D01*
X188095380Y-96182439D01*
X187998904Y-96371782D01*
X187933242Y-96573869D01*
X187933242Y-96573872D01*
X187900000Y-96783753D01*
X187900000Y-96996246D01*
X187933242Y-97206127D01*
X187933242Y-97206130D01*
X187998904Y-97408217D01*
X188095375Y-97597550D01*
X188134728Y-97651716D01*
X188767037Y-97019408D01*
X188784075Y-97082993D01*
X188849901Y-97197007D01*
X188942993Y-97290099D01*
X189057007Y-97355925D01*
X189120590Y-97372962D01*
X188450370Y-98043181D01*
X188389047Y-98076666D01*
X188362698Y-98079500D01*
X188352134Y-98079500D01*
X188352123Y-98079501D01*
X188292516Y-98085908D01*
X188157671Y-98136202D01*
X188157664Y-98136206D01*
X188042455Y-98222452D01*
X188042452Y-98222455D01*
X187956206Y-98337664D01*
X187956202Y-98337671D01*
X187905908Y-98472517D01*
X187899501Y-98532116D01*
X187899501Y-98532123D01*
X187899500Y-98532135D01*
X187899500Y-100327870D01*
X187899501Y-100327876D01*
X187905908Y-100387483D01*
X187956202Y-100522328D01*
X187956206Y-100522335D01*
X188042452Y-100637544D01*
X188042455Y-100637547D01*
X188157664Y-100723793D01*
X188157671Y-100723797D01*
X188292517Y-100774091D01*
X188292516Y-100774091D01*
X188299444Y-100774835D01*
X188352127Y-100780500D01*
X190147872Y-100780499D01*
X190207483Y-100774091D01*
X190342331Y-100723796D01*
X190457546Y-100637546D01*
X190543796Y-100522331D01*
X190594091Y-100387483D01*
X190600500Y-100327873D01*
X190600499Y-98532128D01*
X190594091Y-98472517D01*
X190543796Y-98337669D01*
X190457546Y-98222454D01*
X190457544Y-98222452D01*
X190342335Y-98136206D01*
X190342328Y-98136202D01*
X190207482Y-98085908D01*
X190207483Y-98085908D01*
X190147883Y-98079501D01*
X190147881Y-98079500D01*
X190147873Y-98079500D01*
X190147865Y-98079500D01*
X190137309Y-98079500D01*
X190070270Y-98059815D01*
X190049628Y-98043181D01*
X189379408Y-97372962D01*
X189442993Y-97355925D01*
X189557007Y-97290099D01*
X189650099Y-97197007D01*
X189715925Y-97082993D01*
X189732962Y-97019408D01*
X190365270Y-97651717D01*
X190365270Y-97651716D01*
X190404622Y-97597554D01*
X190501095Y-97408217D01*
X190566757Y-97206130D01*
X190566757Y-97206127D01*
X190600000Y-96996246D01*
X190600000Y-96783753D01*
X190566757Y-96573872D01*
X190566757Y-96573869D01*
X190548344Y-96517199D01*
X190501095Y-96371782D01*
X190404624Y-96182449D01*
X190365270Y-96128282D01*
X190365269Y-96128282D01*
X189732962Y-96760590D01*
X189715925Y-96697007D01*
X189650099Y-96582993D01*
X189557007Y-96489901D01*
X189442993Y-96424075D01*
X189379409Y-96407037D01*
X190011716Y-95774728D01*
X189957547Y-95735373D01*
X189957547Y-95735372D01*
X189948500Y-95730763D01*
X189897706Y-95682788D01*
X189880912Y-95614966D01*
X189903451Y-95548832D01*
X189948508Y-95509793D01*
X189957816Y-95505051D01*
X190053722Y-95435372D01*
X190129786Y-95380109D01*
X190129788Y-95380106D01*
X190129792Y-95380104D01*
X190280104Y-95229792D01*
X190280106Y-95229788D01*
X190280109Y-95229786D01*
X190405048Y-95057820D01*
X190405047Y-95057820D01*
X190405051Y-95057816D01*
X190501557Y-94868412D01*
X190567246Y-94666243D01*
X190600500Y-94456287D01*
X190600500Y-94243713D01*
X190588228Y-94166233D01*
X190588227Y-94166228D01*
X191049500Y-94166228D01*
X191049500Y-94333771D01*
X191082182Y-94498074D01*
X191082184Y-94498082D01*
X191146295Y-94652860D01*
X191239373Y-94792162D01*
X191357837Y-94910626D01*
X191450494Y-94972537D01*
X191497137Y-95003703D01*
X191497138Y-95003703D01*
X191497139Y-95003704D01*
X191532201Y-95018227D01*
X191651918Y-95067816D01*
X191816228Y-95100499D01*
X191816232Y-95100500D01*
X191816233Y-95100500D01*
X191983768Y-95100500D01*
X191983769Y-95100499D01*
X192148082Y-95067816D01*
X192302863Y-95003703D01*
X192442162Y-94910626D01*
X192560626Y-94792162D01*
X192653703Y-94652863D01*
X192717816Y-94498082D01*
X192750500Y-94333767D01*
X192750500Y-94166233D01*
X192717816Y-94001918D01*
X192653703Y-93847137D01*
X192577952Y-93733768D01*
X192560626Y-93707837D01*
X192442162Y-93589373D01*
X192302860Y-93496295D01*
X192148082Y-93432184D01*
X192148074Y-93432182D01*
X191983771Y-93399500D01*
X191983767Y-93399500D01*
X191816233Y-93399500D01*
X191816228Y-93399500D01*
X191651925Y-93432182D01*
X191651917Y-93432184D01*
X191497139Y-93496295D01*
X191357837Y-93589373D01*
X191239373Y-93707837D01*
X191146295Y-93847139D01*
X191082184Y-94001917D01*
X191082182Y-94001925D01*
X191049500Y-94166228D01*
X190588227Y-94166228D01*
X190570272Y-94052863D01*
X190567246Y-94033757D01*
X190501557Y-93831588D01*
X190405051Y-93642184D01*
X190405049Y-93642181D01*
X190405048Y-93642179D01*
X190280109Y-93470213D01*
X190129786Y-93319890D01*
X189957820Y-93194951D01*
X189957115Y-93194591D01*
X189949054Y-93190485D01*
X189898259Y-93142512D01*
X189881463Y-93074692D01*
X189903999Y-93008556D01*
X189949054Y-92969515D01*
X189957816Y-92965051D01*
X190004068Y-92931447D01*
X190129786Y-92840109D01*
X190129788Y-92840106D01*
X190129792Y-92840104D01*
X190280104Y-92689792D01*
X190280106Y-92689788D01*
X190280109Y-92689786D01*
X190405048Y-92517820D01*
X190405047Y-92517820D01*
X190405051Y-92517816D01*
X190501557Y-92328412D01*
X190567246Y-92126243D01*
X190600500Y-91916287D01*
X190600500Y-91703713D01*
X190567246Y-91493757D01*
X190542055Y-91416228D01*
X190849500Y-91416228D01*
X190849500Y-91583771D01*
X190882182Y-91748074D01*
X190882184Y-91748082D01*
X190946295Y-91902860D01*
X191039373Y-92042162D01*
X191157837Y-92160626D01*
X191250494Y-92222537D01*
X191297137Y-92253703D01*
X191451918Y-92317816D01*
X191616228Y-92350499D01*
X191616232Y-92350500D01*
X191616233Y-92350500D01*
X191783768Y-92350500D01*
X191783769Y-92350499D01*
X191948082Y-92317816D01*
X192102863Y-92253703D01*
X192242162Y-92160626D01*
X192360626Y-92042162D01*
X192453703Y-91902863D01*
X192517816Y-91748082D01*
X192550500Y-91583767D01*
X192550500Y-91416233D01*
X192548010Y-91403713D01*
X193499500Y-91403713D01*
X193499500Y-91616287D01*
X193532754Y-91826243D01*
X193562011Y-91916287D01*
X193598444Y-92028414D01*
X193694951Y-92217820D01*
X193819890Y-92389786D01*
X193970213Y-92540109D01*
X194142182Y-92665050D01*
X194150946Y-92669516D01*
X194201742Y-92717491D01*
X194218536Y-92785312D01*
X194195998Y-92851447D01*
X194150946Y-92890484D01*
X194142182Y-92894949D01*
X193970213Y-93019890D01*
X193819890Y-93170213D01*
X193694951Y-93342179D01*
X193598444Y-93531585D01*
X193532753Y-93733760D01*
X193506727Y-93898082D01*
X193499500Y-93943713D01*
X193499500Y-94156287D01*
X193532754Y-94366243D01*
X193575591Y-94498082D01*
X193598444Y-94568414D01*
X193694951Y-94757820D01*
X193819890Y-94929786D01*
X193970213Y-95080109D01*
X194142179Y-95205048D01*
X194142181Y-95205049D01*
X194142184Y-95205051D01*
X194151493Y-95209794D01*
X194202290Y-95257766D01*
X194219087Y-95325587D01*
X194196552Y-95391722D01*
X194151505Y-95430760D01*
X194142446Y-95435376D01*
X194142440Y-95435380D01*
X194088282Y-95474727D01*
X194088282Y-95474728D01*
X194720591Y-96107037D01*
X194657007Y-96124075D01*
X194542993Y-96189901D01*
X194449901Y-96282993D01*
X194384075Y-96397007D01*
X194367037Y-96460591D01*
X193734728Y-95828282D01*
X193734727Y-95828282D01*
X193695380Y-95882439D01*
X193598904Y-96071782D01*
X193533242Y-96273869D01*
X193533242Y-96273872D01*
X193500000Y-96483753D01*
X193500000Y-96696246D01*
X193533242Y-96906127D01*
X193533242Y-96906130D01*
X193598904Y-97108217D01*
X193695375Y-97297550D01*
X193734728Y-97351716D01*
X194367037Y-96719408D01*
X194384075Y-96782993D01*
X194449901Y-96897007D01*
X194542993Y-96990099D01*
X194657007Y-97055925D01*
X194720590Y-97072962D01*
X194050370Y-97743181D01*
X193989047Y-97776666D01*
X193962698Y-97779500D01*
X193952134Y-97779500D01*
X193952123Y-97779501D01*
X193892516Y-97785908D01*
X193757671Y-97836202D01*
X193757664Y-97836206D01*
X193642455Y-97922452D01*
X193642452Y-97922455D01*
X193556206Y-98037664D01*
X193556202Y-98037671D01*
X193505908Y-98172517D01*
X193500540Y-98222452D01*
X193499501Y-98232123D01*
X193499500Y-98232135D01*
X193499500Y-100027870D01*
X193499501Y-100027876D01*
X193505908Y-100087483D01*
X193556202Y-100222328D01*
X193556206Y-100222335D01*
X193642452Y-100337544D01*
X193642455Y-100337547D01*
X193757664Y-100423793D01*
X193757671Y-100423797D01*
X193892517Y-100474091D01*
X193892516Y-100474091D01*
X193899444Y-100474835D01*
X193952127Y-100480500D01*
X195747872Y-100480499D01*
X195807483Y-100474091D01*
X195942331Y-100423796D01*
X196057546Y-100337546D01*
X196143796Y-100222331D01*
X196194091Y-100087483D01*
X196200500Y-100027873D01*
X196200499Y-98232128D01*
X196194091Y-98172517D01*
X196180546Y-98136202D01*
X196143797Y-98037671D01*
X196143793Y-98037664D01*
X196057547Y-97922455D01*
X196057544Y-97922452D01*
X195942335Y-97836206D01*
X195942328Y-97836202D01*
X195807482Y-97785908D01*
X195807483Y-97785908D01*
X195747883Y-97779501D01*
X195747881Y-97779500D01*
X195747873Y-97779500D01*
X195747865Y-97779500D01*
X195737309Y-97779500D01*
X195670270Y-97759815D01*
X195649628Y-97743181D01*
X194979408Y-97072962D01*
X195042993Y-97055925D01*
X195157007Y-96990099D01*
X195250099Y-96897007D01*
X195315925Y-96782993D01*
X195332962Y-96719408D01*
X195965270Y-97351717D01*
X195965270Y-97351716D01*
X196004622Y-97297554D01*
X196101095Y-97108217D01*
X196166757Y-96906130D01*
X196166757Y-96906127D01*
X196200000Y-96696246D01*
X196200000Y-96483753D01*
X196166757Y-96273872D01*
X196166757Y-96273869D01*
X196101095Y-96071782D01*
X196004624Y-95882449D01*
X195965270Y-95828282D01*
X195965269Y-95828282D01*
X195332962Y-96460590D01*
X195315925Y-96397007D01*
X195250099Y-96282993D01*
X195157007Y-96189901D01*
X195042993Y-96124075D01*
X194979409Y-96107037D01*
X195611716Y-95474728D01*
X195557547Y-95435373D01*
X195557547Y-95435372D01*
X195548500Y-95430763D01*
X195497706Y-95382788D01*
X195480912Y-95314966D01*
X195503451Y-95248832D01*
X195548508Y-95209793D01*
X195557816Y-95205051D01*
X195637007Y-95147515D01*
X195729786Y-95080109D01*
X195729788Y-95080106D01*
X195729792Y-95080104D01*
X195880104Y-94929792D01*
X195880106Y-94929788D01*
X195880109Y-94929786D01*
X196005048Y-94757820D01*
X196005047Y-94757820D01*
X196005051Y-94757816D01*
X196101557Y-94568412D01*
X196167246Y-94366243D01*
X196200500Y-94156287D01*
X196200500Y-93943713D01*
X196167246Y-93733757D01*
X196101557Y-93531588D01*
X196005051Y-93342184D01*
X196005049Y-93342181D01*
X196005048Y-93342179D01*
X195880109Y-93170213D01*
X195729786Y-93019890D01*
X195557820Y-92894951D01*
X195557115Y-92894591D01*
X195549054Y-92890485D01*
X195498259Y-92842512D01*
X195481463Y-92774692D01*
X195503999Y-92708556D01*
X195549054Y-92669515D01*
X195557816Y-92665051D01*
X195579789Y-92649086D01*
X195729786Y-92540109D01*
X195729788Y-92540106D01*
X195729792Y-92540104D01*
X195880104Y-92389792D01*
X195880106Y-92389788D01*
X195880109Y-92389786D01*
X196005048Y-92217820D01*
X196005047Y-92217820D01*
X196005051Y-92217816D01*
X196101557Y-92028412D01*
X196167246Y-91826243D01*
X196200500Y-91616287D01*
X196200500Y-91403713D01*
X196167246Y-91193757D01*
X196101557Y-90991588D01*
X196005051Y-90802184D01*
X196005049Y-90802181D01*
X196005048Y-90802179D01*
X195880109Y-90630213D01*
X195729786Y-90479890D01*
X195557820Y-90354951D01*
X195368414Y-90258444D01*
X195368413Y-90258443D01*
X195368412Y-90258443D01*
X195166243Y-90192754D01*
X195166241Y-90192753D01*
X195166240Y-90192753D01*
X195004957Y-90167208D01*
X194956287Y-90159500D01*
X194743713Y-90159500D01*
X194695042Y-90167208D01*
X194533760Y-90192753D01*
X194331585Y-90258444D01*
X194142179Y-90354951D01*
X193970213Y-90479890D01*
X193819890Y-90630213D01*
X193694951Y-90802179D01*
X193598444Y-90991585D01*
X193532753Y-91193760D01*
X193517259Y-91291585D01*
X193499500Y-91403713D01*
X192548010Y-91403713D01*
X192517816Y-91251918D01*
X192455794Y-91102184D01*
X192453704Y-91097139D01*
X192436631Y-91071588D01*
X192422537Y-91050494D01*
X192360626Y-90957837D01*
X192242162Y-90839373D01*
X192102860Y-90746295D01*
X191948082Y-90682184D01*
X191948074Y-90682182D01*
X191783771Y-90649500D01*
X191783767Y-90649500D01*
X191616233Y-90649500D01*
X191616228Y-90649500D01*
X191451925Y-90682182D01*
X191451917Y-90682184D01*
X191297139Y-90746295D01*
X191157837Y-90839373D01*
X191039373Y-90957837D01*
X190946295Y-91097139D01*
X190882184Y-91251917D01*
X190882182Y-91251925D01*
X190849500Y-91416228D01*
X190542055Y-91416228D01*
X190501557Y-91291588D01*
X190405051Y-91102184D01*
X190405049Y-91102181D01*
X190405048Y-91102179D01*
X190280109Y-90930213D01*
X190129786Y-90779890D01*
X189957820Y-90654951D01*
X189957115Y-90654591D01*
X189949054Y-90650485D01*
X189898259Y-90602512D01*
X189881463Y-90534692D01*
X189903999Y-90468556D01*
X189949054Y-90429515D01*
X189957816Y-90425051D01*
X190054304Y-90354949D01*
X190129786Y-90300109D01*
X190129788Y-90300106D01*
X190129792Y-90300104D01*
X190280104Y-90149792D01*
X190280106Y-90149788D01*
X190280109Y-90149786D01*
X190405048Y-89977820D01*
X190405047Y-89977820D01*
X190405051Y-89977816D01*
X190501557Y-89788412D01*
X190567246Y-89586243D01*
X190600500Y-89376287D01*
X190600500Y-89163713D01*
X190585060Y-89066228D01*
X190899500Y-89066228D01*
X190899500Y-89233771D01*
X190932182Y-89398074D01*
X190932184Y-89398082D01*
X190996295Y-89552860D01*
X191089373Y-89692162D01*
X191207837Y-89810626D01*
X191300494Y-89872537D01*
X191347137Y-89903703D01*
X191501918Y-89967816D01*
X191666228Y-90000499D01*
X191666232Y-90000500D01*
X191666233Y-90000500D01*
X191833768Y-90000500D01*
X191833769Y-90000499D01*
X191998082Y-89967816D01*
X192152863Y-89903703D01*
X192292162Y-89810626D01*
X192410626Y-89692162D01*
X192503703Y-89552863D01*
X192567816Y-89398082D01*
X192600500Y-89233767D01*
X192600500Y-89066233D01*
X192567816Y-88901918D01*
X192511613Y-88766233D01*
X192511611Y-88766228D01*
X193899500Y-88766228D01*
X193899500Y-88933771D01*
X193932182Y-89098074D01*
X193932184Y-89098082D01*
X193996295Y-89252860D01*
X194089373Y-89392162D01*
X194207837Y-89510626D01*
X194271045Y-89552860D01*
X194347137Y-89603703D01*
X194501918Y-89667816D01*
X194624315Y-89692162D01*
X194666228Y-89700499D01*
X194666232Y-89700500D01*
X194666233Y-89700500D01*
X194833768Y-89700500D01*
X194833769Y-89700499D01*
X194998082Y-89667816D01*
X195152863Y-89603703D01*
X195292162Y-89510626D01*
X195410626Y-89392162D01*
X195503703Y-89252863D01*
X195567816Y-89098082D01*
X195600500Y-88933767D01*
X195600500Y-88766233D01*
X195567816Y-88601918D01*
X195503703Y-88447137D01*
X195469731Y-88396295D01*
X195410626Y-88307837D01*
X195292162Y-88189373D01*
X195152860Y-88096295D01*
X194998082Y-88032184D01*
X194998074Y-88032182D01*
X194833771Y-87999500D01*
X194833767Y-87999500D01*
X194666233Y-87999500D01*
X194666228Y-87999500D01*
X194501925Y-88032182D01*
X194501917Y-88032184D01*
X194347139Y-88096295D01*
X194207837Y-88189373D01*
X194089373Y-88307837D01*
X193996295Y-88447139D01*
X193932184Y-88601917D01*
X193932182Y-88601925D01*
X193899500Y-88766228D01*
X192511611Y-88766228D01*
X192503705Y-88747141D01*
X192503704Y-88747139D01*
X192473488Y-88701918D01*
X192472537Y-88700494D01*
X192410626Y-88607837D01*
X192292162Y-88489373D01*
X192152860Y-88396295D01*
X191998082Y-88332184D01*
X191998074Y-88332182D01*
X191833771Y-88299500D01*
X191833767Y-88299500D01*
X191666233Y-88299500D01*
X191666228Y-88299500D01*
X191501925Y-88332182D01*
X191501917Y-88332184D01*
X191347139Y-88396295D01*
X191207837Y-88489373D01*
X191089373Y-88607837D01*
X190996295Y-88747139D01*
X190932184Y-88901917D01*
X190932182Y-88901925D01*
X190899500Y-89066228D01*
X190585060Y-89066228D01*
X190567246Y-88953757D01*
X190501557Y-88751588D01*
X190405051Y-88562184D01*
X190405049Y-88562181D01*
X190405048Y-88562179D01*
X190280109Y-88390213D01*
X190129786Y-88239890D01*
X189957820Y-88114951D01*
X189957115Y-88114591D01*
X189949054Y-88110485D01*
X189898259Y-88062512D01*
X189881463Y-87994692D01*
X189903999Y-87928556D01*
X189949054Y-87889515D01*
X189957816Y-87885051D01*
X190085668Y-87792162D01*
X190129786Y-87760109D01*
X190129788Y-87760106D01*
X190129792Y-87760104D01*
X190280104Y-87609792D01*
X190280106Y-87609788D01*
X190280109Y-87609786D01*
X190405048Y-87437820D01*
X190405047Y-87437820D01*
X190405051Y-87437816D01*
X190501557Y-87248412D01*
X190567246Y-87046243D01*
X190600500Y-86836287D01*
X190600500Y-86623713D01*
X190567246Y-86413757D01*
X190501557Y-86211588D01*
X190405051Y-86022184D01*
X190405049Y-86022181D01*
X190405048Y-86022179D01*
X190280109Y-85850213D01*
X190129786Y-85699890D01*
X189957820Y-85574951D01*
X189768414Y-85478444D01*
X189768413Y-85478443D01*
X189768412Y-85478443D01*
X189566243Y-85412754D01*
X189566241Y-85412753D01*
X189566240Y-85412753D01*
X189404957Y-85387208D01*
X189356287Y-85379500D01*
X189143713Y-85379500D01*
X189095042Y-85387208D01*
X188933760Y-85412753D01*
X188731585Y-85478444D01*
X188542179Y-85574951D01*
X188370213Y-85699890D01*
X188219890Y-85850213D01*
X188094951Y-86022179D01*
X187998444Y-86211585D01*
X187932753Y-86413760D01*
X187917853Y-86507837D01*
X187899500Y-86623713D01*
X176400500Y-86623713D01*
X176400500Y-83766228D01*
X194999500Y-83766228D01*
X194999500Y-83933771D01*
X195032182Y-84098074D01*
X195032184Y-84098082D01*
X195096295Y-84252860D01*
X195189373Y-84392162D01*
X195307837Y-84510626D01*
X195400494Y-84572537D01*
X195447137Y-84603703D01*
X195601918Y-84667816D01*
X195766228Y-84700499D01*
X195766232Y-84700500D01*
X195766233Y-84700500D01*
X195933768Y-84700500D01*
X195933769Y-84700499D01*
X196098082Y-84667816D01*
X196148914Y-84646759D01*
X196218382Y-84639290D01*
X196280862Y-84670563D01*
X196284049Y-84673639D01*
X200863181Y-89252771D01*
X200896666Y-89314094D01*
X200899500Y-89340452D01*
X200899500Y-90314981D01*
X200879815Y-90382020D01*
X200827011Y-90427775D01*
X200757853Y-90437719D01*
X200719205Y-90425466D01*
X200548414Y-90338444D01*
X200548413Y-90338443D01*
X200548412Y-90338443D01*
X200346243Y-90272754D01*
X200346241Y-90272753D01*
X200346240Y-90272753D01*
X200184957Y-90247208D01*
X200136287Y-90239500D01*
X199923713Y-90239500D01*
X199875042Y-90247208D01*
X199713760Y-90272753D01*
X199511585Y-90338444D01*
X199322179Y-90434951D01*
X199150213Y-90559890D01*
X198999890Y-90710213D01*
X198874951Y-90882179D01*
X198778444Y-91071585D01*
X198712753Y-91273760D01*
X198679500Y-91483713D01*
X198679500Y-91696286D01*
X198712218Y-91902863D01*
X198712754Y-91906243D01*
X198752449Y-92028412D01*
X198778444Y-92108414D01*
X198874951Y-92297820D01*
X198999890Y-92469786D01*
X199150213Y-92620109D01*
X199322182Y-92745050D01*
X199330946Y-92749516D01*
X199381742Y-92797491D01*
X199398536Y-92865312D01*
X199375998Y-92931447D01*
X199330946Y-92970484D01*
X199322182Y-92974949D01*
X199150213Y-93099890D01*
X198999890Y-93250213D01*
X198874951Y-93422179D01*
X198778444Y-93611585D01*
X198712753Y-93813760D01*
X198679500Y-94023713D01*
X198679500Y-94236286D01*
X198700082Y-94366239D01*
X198712754Y-94446243D01*
X198752449Y-94568412D01*
X198778444Y-94648414D01*
X198874951Y-94837820D01*
X198999890Y-95009786D01*
X199150213Y-95160109D01*
X199322179Y-95285048D01*
X199322181Y-95285049D01*
X199322184Y-95285051D01*
X199331493Y-95289794D01*
X199382290Y-95337766D01*
X199399087Y-95405587D01*
X199376552Y-95471722D01*
X199331505Y-95510760D01*
X199322446Y-95515376D01*
X199322440Y-95515380D01*
X199268282Y-95554727D01*
X199268282Y-95554728D01*
X199900591Y-96187037D01*
X199837007Y-96204075D01*
X199722993Y-96269901D01*
X199629901Y-96362993D01*
X199564075Y-96477007D01*
X199547037Y-96540591D01*
X198914728Y-95908282D01*
X198914727Y-95908282D01*
X198875380Y-95962439D01*
X198778904Y-96151782D01*
X198713242Y-96353869D01*
X198713242Y-96353872D01*
X198680000Y-96563753D01*
X198680000Y-96776246D01*
X198713242Y-96986127D01*
X198713242Y-96986130D01*
X198778904Y-97188217D01*
X198875375Y-97377550D01*
X198914728Y-97431716D01*
X199547037Y-96799408D01*
X199564075Y-96862993D01*
X199629901Y-96977007D01*
X199722993Y-97070099D01*
X199837007Y-97135925D01*
X199900589Y-97152962D01*
X199230370Y-97823181D01*
X199169047Y-97856666D01*
X199142698Y-97859500D01*
X199132134Y-97859500D01*
X199132123Y-97859501D01*
X199072516Y-97865908D01*
X198937671Y-97916202D01*
X198937664Y-97916206D01*
X198822455Y-98002452D01*
X198822452Y-98002455D01*
X198736206Y-98117664D01*
X198736202Y-98117671D01*
X198685908Y-98252517D01*
X198679501Y-98312116D01*
X198679500Y-98312135D01*
X198679500Y-100107870D01*
X198679501Y-100107876D01*
X198685908Y-100167483D01*
X198736202Y-100302328D01*
X198736206Y-100302335D01*
X198822452Y-100417544D01*
X198822455Y-100417547D01*
X198937664Y-100503793D01*
X198937671Y-100503797D01*
X199072517Y-100554091D01*
X199072516Y-100554091D01*
X199079444Y-100554835D01*
X199132127Y-100560500D01*
X200927872Y-100560499D01*
X200987483Y-100554091D01*
X201122331Y-100503796D01*
X201237546Y-100417546D01*
X201323796Y-100302331D01*
X201374091Y-100167483D01*
X201380500Y-100107873D01*
X201380499Y-99264450D01*
X201400183Y-99197412D01*
X201452987Y-99151657D01*
X201522146Y-99141713D01*
X201585702Y-99170738D01*
X201592180Y-99176770D01*
X203163181Y-100747771D01*
X203196666Y-100809094D01*
X203198669Y-100827728D01*
X203198903Y-100827706D01*
X203199500Y-100833771D01*
X203232182Y-100998074D01*
X203232184Y-100998082D01*
X203296295Y-101152860D01*
X203389373Y-101292162D01*
X203507837Y-101410626D01*
X203600494Y-101472537D01*
X203647137Y-101503703D01*
X203801918Y-101567816D01*
X203966228Y-101600499D01*
X203966232Y-101600500D01*
X203966233Y-101600500D01*
X204133768Y-101600500D01*
X204133769Y-101600499D01*
X204298082Y-101567816D01*
X204452863Y-101503703D01*
X204592162Y-101410626D01*
X204710626Y-101292162D01*
X204803703Y-101152863D01*
X204867816Y-100998082D01*
X204900500Y-100833767D01*
X204900500Y-100666233D01*
X204867816Y-100501918D01*
X204803703Y-100347137D01*
X204720313Y-100222335D01*
X204710626Y-100207837D01*
X204592162Y-100089373D01*
X204452860Y-99996295D01*
X204298082Y-99932184D01*
X204298074Y-99932182D01*
X204133771Y-99899500D01*
X204127706Y-99898903D01*
X204127866Y-99897272D01*
X204068413Y-99879815D01*
X204047771Y-99863181D01*
X202186819Y-98002229D01*
X202153334Y-97940906D01*
X202150500Y-97914548D01*
X202150500Y-96466228D01*
X206599500Y-96466228D01*
X206599500Y-96633771D01*
X206632182Y-96798074D01*
X206632184Y-96798082D01*
X206696295Y-96952860D01*
X206789373Y-97092162D01*
X206907837Y-97210626D01*
X206957118Y-97243554D01*
X207047137Y-97303703D01*
X207201918Y-97367816D01*
X207366228Y-97400499D01*
X207366232Y-97400500D01*
X207366233Y-97400500D01*
X207533768Y-97400500D01*
X207533769Y-97400499D01*
X207698082Y-97367816D01*
X207852863Y-97303703D01*
X207992162Y-97210626D01*
X208110626Y-97092162D01*
X208203703Y-96952863D01*
X208267816Y-96798082D01*
X208300500Y-96633767D01*
X208300500Y-96466233D01*
X208267816Y-96301918D01*
X208203703Y-96147137D01*
X208153352Y-96071782D01*
X208110626Y-96007837D01*
X207992162Y-95889373D01*
X207852860Y-95796295D01*
X207698082Y-95732184D01*
X207698074Y-95732182D01*
X207533771Y-95699500D01*
X207533767Y-95699500D01*
X207366233Y-95699500D01*
X207366228Y-95699500D01*
X207201925Y-95732182D01*
X207201917Y-95732184D01*
X207047139Y-95796295D01*
X206907837Y-95889373D01*
X206789373Y-96007837D01*
X206696295Y-96147139D01*
X206632184Y-96301917D01*
X206632182Y-96301925D01*
X206599500Y-96466228D01*
X202150500Y-96466228D01*
X202150500Y-93566228D01*
X203649500Y-93566228D01*
X203649500Y-93733771D01*
X203682182Y-93898074D01*
X203682184Y-93898082D01*
X203746295Y-94052860D01*
X203839373Y-94192162D01*
X203957837Y-94310626D01*
X204041068Y-94366239D01*
X204097137Y-94403703D01*
X204251918Y-94467816D01*
X204404037Y-94498074D01*
X204416228Y-94500499D01*
X204416232Y-94500500D01*
X204416233Y-94500500D01*
X204583768Y-94500500D01*
X204583769Y-94500499D01*
X204748082Y-94467816D01*
X204902863Y-94403703D01*
X205042162Y-94310626D01*
X205160626Y-94192162D01*
X205253703Y-94052863D01*
X205317816Y-93898082D01*
X205350500Y-93733767D01*
X205350500Y-93566233D01*
X205317816Y-93401918D01*
X205253703Y-93247137D01*
X205202304Y-93170213D01*
X205160626Y-93107837D01*
X205042162Y-92989373D01*
X204902860Y-92896295D01*
X204748082Y-92832184D01*
X204748074Y-92832182D01*
X204583771Y-92799500D01*
X204583767Y-92799500D01*
X204416233Y-92799500D01*
X204416228Y-92799500D01*
X204251925Y-92832182D01*
X204251917Y-92832184D01*
X204097139Y-92896295D01*
X203957837Y-92989373D01*
X203839373Y-93107837D01*
X203746295Y-93247139D01*
X203682184Y-93401917D01*
X203682182Y-93401925D01*
X203649500Y-93566228D01*
X202150500Y-93566228D01*
X202150500Y-90274500D01*
X202170185Y-90207461D01*
X202222989Y-90161706D01*
X202274500Y-90150500D01*
X202333768Y-90150500D01*
X202333769Y-90150499D01*
X202498082Y-90117816D01*
X202652863Y-90053703D01*
X202792162Y-89960626D01*
X202910626Y-89842162D01*
X203003703Y-89702863D01*
X203067816Y-89548082D01*
X203100500Y-89383767D01*
X203100500Y-89216233D01*
X203067816Y-89051918D01*
X203027156Y-88953757D01*
X203008035Y-88907594D01*
X203008034Y-88907593D01*
X203003705Y-88897140D01*
X203003704Y-88897139D01*
X202983053Y-88866233D01*
X202983050Y-88866228D01*
X203499500Y-88866228D01*
X203499500Y-89033771D01*
X203532182Y-89198074D01*
X203532184Y-89198082D01*
X203596295Y-89352860D01*
X203689373Y-89492162D01*
X203807837Y-89610626D01*
X203893430Y-89667817D01*
X203947137Y-89703703D01*
X204101918Y-89767816D01*
X204266228Y-89800499D01*
X204266232Y-89800500D01*
X204266233Y-89800500D01*
X204433768Y-89800500D01*
X204433769Y-89800499D01*
X204598082Y-89767816D01*
X204752863Y-89703703D01*
X204892162Y-89610626D01*
X205010626Y-89492162D01*
X205103703Y-89352863D01*
X205167816Y-89198082D01*
X205200500Y-89033767D01*
X205200500Y-88866233D01*
X205167816Y-88701918D01*
X205109934Y-88562179D01*
X205103704Y-88547139D01*
X205103141Y-88546297D01*
X205065106Y-88489373D01*
X205010626Y-88407837D01*
X204892162Y-88289373D01*
X204752860Y-88196295D01*
X204598082Y-88132184D01*
X204598074Y-88132182D01*
X204433771Y-88099500D01*
X204433767Y-88099500D01*
X204266233Y-88099500D01*
X204266228Y-88099500D01*
X204101925Y-88132182D01*
X204101917Y-88132184D01*
X203947139Y-88196295D01*
X203807837Y-88289373D01*
X203689373Y-88407837D01*
X203596295Y-88547139D01*
X203532184Y-88701917D01*
X203532182Y-88701925D01*
X203499500Y-88866228D01*
X202983050Y-88866228D01*
X202943871Y-88807592D01*
X202910626Y-88757837D01*
X202792165Y-88639376D01*
X202792161Y-88639373D01*
X202746971Y-88609178D01*
X202702166Y-88555566D01*
X202693459Y-88486241D01*
X202702688Y-88459036D01*
X202701372Y-88458491D01*
X202722353Y-88407838D01*
X202767816Y-88298082D01*
X202800500Y-88133767D01*
X202800500Y-87966233D01*
X202767816Y-87801918D01*
X202703703Y-87647137D01*
X202670920Y-87598074D01*
X202610626Y-87507837D01*
X202492165Y-87389376D01*
X202492161Y-87389373D01*
X202453055Y-87363243D01*
X202453053Y-87363241D01*
X202352865Y-87296298D01*
X202352861Y-87296296D01*
X202280271Y-87266228D01*
X207149500Y-87266228D01*
X207149500Y-87433771D01*
X207182182Y-87598074D01*
X207182184Y-87598082D01*
X207246295Y-87752860D01*
X207339373Y-87892162D01*
X207457837Y-88010626D01*
X207543430Y-88067817D01*
X207597137Y-88103703D01*
X207597138Y-88103703D01*
X207597139Y-88103704D01*
X207613512Y-88110486D01*
X207751918Y-88167816D01*
X207895093Y-88196295D01*
X207916228Y-88200499D01*
X207916232Y-88200500D01*
X207916233Y-88200500D01*
X208083768Y-88200500D01*
X208083769Y-88200499D01*
X208248082Y-88167816D01*
X208402863Y-88103703D01*
X208542162Y-88010626D01*
X208660626Y-87892162D01*
X208753703Y-87752863D01*
X208783332Y-87681333D01*
X208827173Y-87626929D01*
X208893467Y-87604864D01*
X208961166Y-87622143D01*
X209000995Y-87659894D01*
X209089373Y-87792161D01*
X209089376Y-87792165D01*
X209207837Y-87910626D01*
X209248044Y-87937491D01*
X209347137Y-88003703D01*
X209501918Y-88067816D01*
X209645093Y-88096295D01*
X209666228Y-88100499D01*
X209666232Y-88100500D01*
X209666233Y-88100500D01*
X209833768Y-88100500D01*
X209833769Y-88100499D01*
X209998082Y-88067816D01*
X210152863Y-88003703D01*
X210292162Y-87910626D01*
X210410626Y-87792162D01*
X210503703Y-87652863D01*
X210567816Y-87498082D01*
X210600500Y-87333767D01*
X210600500Y-87166233D01*
X210567816Y-87001918D01*
X210518227Y-86882201D01*
X210503704Y-86847139D01*
X210496452Y-86836286D01*
X210472537Y-86800494D01*
X210410626Y-86707837D01*
X210292162Y-86589373D01*
X210152860Y-86496295D01*
X209998082Y-86432184D01*
X209998074Y-86432182D01*
X209833771Y-86399500D01*
X209833767Y-86399500D01*
X209666233Y-86399500D01*
X209666228Y-86399500D01*
X209501925Y-86432182D01*
X209501917Y-86432184D01*
X209347139Y-86496295D01*
X209207837Y-86589373D01*
X209089373Y-86707837D01*
X208996295Y-86847139D01*
X208996293Y-86847143D01*
X208966666Y-86918668D01*
X208922825Y-86973071D01*
X208856530Y-86995135D01*
X208788831Y-86977855D01*
X208749004Y-86940105D01*
X208734680Y-86918668D01*
X208686889Y-86847143D01*
X208660626Y-86807837D01*
X208542162Y-86689373D01*
X208402860Y-86596295D01*
X208248082Y-86532184D01*
X208248074Y-86532182D01*
X208083771Y-86499500D01*
X208083767Y-86499500D01*
X207916233Y-86499500D01*
X207916228Y-86499500D01*
X207751925Y-86532182D01*
X207751917Y-86532184D01*
X207597139Y-86596295D01*
X207457837Y-86689373D01*
X207339373Y-86807837D01*
X207246295Y-86947139D01*
X207182184Y-87101917D01*
X207182182Y-87101925D01*
X207149500Y-87266228D01*
X202280271Y-87266228D01*
X202198082Y-87232184D01*
X202198074Y-87232182D01*
X202033771Y-87199500D01*
X202033767Y-87199500D01*
X201866233Y-87199500D01*
X201866228Y-87199500D01*
X201701925Y-87232182D01*
X201701913Y-87232185D01*
X201671952Y-87244596D01*
X201602483Y-87252065D01*
X201540004Y-87220790D01*
X201504352Y-87160701D01*
X201500500Y-87130035D01*
X201500500Y-86966232D01*
X201500499Y-86966228D01*
X201491039Y-86918668D01*
X201467816Y-86801918D01*
X201403703Y-86647137D01*
X201326894Y-86532184D01*
X201310626Y-86507837D01*
X201192162Y-86389373D01*
X201052860Y-86296295D01*
X200898082Y-86232184D01*
X200898074Y-86232182D01*
X200733771Y-86199500D01*
X200733767Y-86199500D01*
X200566233Y-86199500D01*
X200566228Y-86199500D01*
X200401925Y-86232182D01*
X200401917Y-86232184D01*
X200247139Y-86296295D01*
X200107838Y-86389373D01*
X200026081Y-86471130D01*
X199964757Y-86504614D01*
X199895066Y-86499630D01*
X199850719Y-86471129D01*
X197069771Y-83690181D01*
X197036286Y-83628858D01*
X197041270Y-83559166D01*
X197069771Y-83514819D01*
X197268362Y-83316228D01*
X204549500Y-83316228D01*
X204549500Y-83483771D01*
X204582182Y-83648074D01*
X204582184Y-83648082D01*
X204646295Y-83802860D01*
X204739373Y-83942162D01*
X204857837Y-84060626D01*
X204950494Y-84122537D01*
X204997137Y-84153703D01*
X205151918Y-84217816D01*
X205316228Y-84250499D01*
X205316232Y-84250500D01*
X205316233Y-84250500D01*
X205483768Y-84250500D01*
X205483769Y-84250499D01*
X205648082Y-84217816D01*
X205802863Y-84153703D01*
X205942162Y-84060626D01*
X206060626Y-83942162D01*
X206153703Y-83802863D01*
X206217816Y-83648082D01*
X206250500Y-83483767D01*
X206250500Y-83316233D01*
X206217816Y-83151918D01*
X206153703Y-82997137D01*
X206090709Y-82902860D01*
X206060626Y-82857837D01*
X205942162Y-82739373D01*
X205802860Y-82646295D01*
X205648082Y-82582184D01*
X205648074Y-82582182D01*
X205483771Y-82549500D01*
X205483767Y-82549500D01*
X205316233Y-82549500D01*
X205316228Y-82549500D01*
X205151925Y-82582182D01*
X205151917Y-82582184D01*
X204997139Y-82646295D01*
X204857837Y-82739373D01*
X204739373Y-82857837D01*
X204646295Y-82997139D01*
X204582184Y-83151917D01*
X204582182Y-83151925D01*
X204549500Y-83316228D01*
X197268362Y-83316228D01*
X197362130Y-83222460D01*
X201835855Y-78748736D01*
X201835855Y-78748735D01*
X201835858Y-78748733D01*
X201904312Y-78646285D01*
X201951463Y-78532451D01*
X201975501Y-78411606D01*
X201975501Y-78288393D01*
X201975501Y-78283283D01*
X201975500Y-78283257D01*
X201975500Y-69416228D01*
X207749500Y-69416228D01*
X207749500Y-69583771D01*
X207782182Y-69748074D01*
X207782184Y-69748082D01*
X207846295Y-69902860D01*
X207939373Y-70042162D01*
X208057837Y-70160626D01*
X208066229Y-70166233D01*
X208197137Y-70253703D01*
X208351918Y-70317816D01*
X208516228Y-70350499D01*
X208516232Y-70350500D01*
X208516233Y-70350500D01*
X208683768Y-70350500D01*
X208683769Y-70350499D01*
X208848082Y-70317816D01*
X209002863Y-70253703D01*
X209142162Y-70160626D01*
X209260626Y-70042162D01*
X209353703Y-69902863D01*
X209417816Y-69748082D01*
X209450500Y-69583767D01*
X209450500Y-69416233D01*
X209417816Y-69251918D01*
X209353703Y-69097137D01*
X209322537Y-69050494D01*
X209260626Y-68957837D01*
X209142162Y-68839373D01*
X209002860Y-68746295D01*
X208848082Y-68682184D01*
X208848074Y-68682182D01*
X208683771Y-68649500D01*
X208683767Y-68649500D01*
X208516233Y-68649500D01*
X208516228Y-68649500D01*
X208351925Y-68682182D01*
X208351917Y-68682184D01*
X208197139Y-68746295D01*
X208057837Y-68839373D01*
X207939373Y-68957837D01*
X207846295Y-69097139D01*
X207782184Y-69251917D01*
X207782182Y-69251925D01*
X207749500Y-69416228D01*
X201975500Y-69416228D01*
X201975500Y-63816228D01*
X208949500Y-63816228D01*
X208949500Y-63983771D01*
X208982182Y-64148074D01*
X208982184Y-64148082D01*
X209046295Y-64302860D01*
X209139373Y-64442162D01*
X209257837Y-64560626D01*
X209341052Y-64616228D01*
X209397137Y-64653703D01*
X209551918Y-64717816D01*
X209713719Y-64750000D01*
X209716228Y-64750499D01*
X209716232Y-64750500D01*
X209716233Y-64750500D01*
X209883768Y-64750500D01*
X209883769Y-64750499D01*
X210048082Y-64717816D01*
X210202863Y-64653703D01*
X210342162Y-64560626D01*
X210460626Y-64442162D01*
X210553703Y-64302863D01*
X210617816Y-64148082D01*
X210650500Y-63983767D01*
X210650500Y-63816233D01*
X210617816Y-63651918D01*
X210553703Y-63497137D01*
X210474857Y-63379136D01*
X210460626Y-63357837D01*
X210342162Y-63239373D01*
X210202860Y-63146295D01*
X210048082Y-63082184D01*
X210048074Y-63082182D01*
X209883771Y-63049500D01*
X209883767Y-63049500D01*
X209716233Y-63049500D01*
X209716228Y-63049500D01*
X209551925Y-63082182D01*
X209551917Y-63082184D01*
X209397139Y-63146295D01*
X209257837Y-63239373D01*
X209139373Y-63357837D01*
X209046295Y-63497139D01*
X208982184Y-63651917D01*
X208982182Y-63651925D01*
X208949500Y-63816228D01*
X201975500Y-63816228D01*
X201975500Y-62766228D01*
X206199500Y-62766228D01*
X206199500Y-62933771D01*
X206232182Y-63098074D01*
X206232184Y-63098082D01*
X206296295Y-63252860D01*
X206389373Y-63392162D01*
X206507837Y-63510626D01*
X206566765Y-63550000D01*
X206647137Y-63603703D01*
X206801918Y-63667816D01*
X206963719Y-63700000D01*
X206966228Y-63700499D01*
X206966232Y-63700500D01*
X206966233Y-63700500D01*
X207133768Y-63700500D01*
X207133768Y-63700499D01*
X207163662Y-63694553D01*
X207193977Y-63688524D01*
X207236538Y-63680057D01*
X207298082Y-63667816D01*
X207452863Y-63603703D01*
X207592162Y-63510626D01*
X207710626Y-63392162D01*
X207803703Y-63252863D01*
X207867816Y-63098082D01*
X207900500Y-62933767D01*
X207900500Y-62766233D01*
X207867816Y-62601918D01*
X207803703Y-62447137D01*
X207766970Y-62392162D01*
X207710626Y-62307837D01*
X207592162Y-62189373D01*
X207452860Y-62096295D01*
X207298082Y-62032184D01*
X207298074Y-62032182D01*
X207133771Y-61999500D01*
X207133767Y-61999500D01*
X206966233Y-61999500D01*
X206966228Y-61999500D01*
X206801925Y-62032182D01*
X206801917Y-62032184D01*
X206647139Y-62096295D01*
X206507837Y-62189373D01*
X206389373Y-62307837D01*
X206296295Y-62447139D01*
X206232184Y-62601917D01*
X206232182Y-62601925D01*
X206199500Y-62766228D01*
X201975500Y-62766228D01*
X201975500Y-55570779D01*
X201995185Y-55503740D01*
X202047989Y-55457985D01*
X202117147Y-55448041D01*
X202168389Y-55467676D01*
X202297137Y-55553703D01*
X202451918Y-55617816D01*
X202616228Y-55650499D01*
X202616232Y-55650500D01*
X202616233Y-55650500D01*
X202783768Y-55650500D01*
X202783769Y-55650499D01*
X202948082Y-55617816D01*
X203102863Y-55553703D01*
X203242162Y-55460626D01*
X203360626Y-55342162D01*
X203453703Y-55202863D01*
X203517816Y-55048082D01*
X203550500Y-54883767D01*
X203550500Y-54716233D01*
X203517816Y-54551918D01*
X203453703Y-54397137D01*
X203383561Y-54292162D01*
X203360626Y-54257837D01*
X203242162Y-54139373D01*
X203102860Y-54046295D01*
X202948082Y-53982184D01*
X202948074Y-53982182D01*
X202783771Y-53949500D01*
X202783767Y-53949500D01*
X202616233Y-53949500D01*
X202616228Y-53949500D01*
X202451925Y-53982182D01*
X202451917Y-53982184D01*
X202297138Y-54046296D01*
X202297134Y-54046298D01*
X202168390Y-54132322D01*
X202101713Y-54153200D01*
X202034333Y-54134715D01*
X201987643Y-54082736D01*
X201975500Y-54029220D01*
X201975500Y-52966228D01*
X203949500Y-52966228D01*
X203949500Y-53133771D01*
X203982182Y-53298074D01*
X203982184Y-53298082D01*
X204046295Y-53452860D01*
X204139373Y-53592162D01*
X204257837Y-53710626D01*
X204319646Y-53751925D01*
X204397137Y-53803703D01*
X204551918Y-53867816D01*
X204643085Y-53885950D01*
X204716228Y-53900499D01*
X204716232Y-53900500D01*
X204716233Y-53900500D01*
X204883768Y-53900500D01*
X204883769Y-53900499D01*
X205048082Y-53867816D01*
X205202863Y-53803703D01*
X205342162Y-53710626D01*
X205460626Y-53592162D01*
X205553703Y-53452863D01*
X205617816Y-53298082D01*
X205650500Y-53133767D01*
X205650500Y-52966233D01*
X205617816Y-52801918D01*
X205553703Y-52647137D01*
X205492139Y-52555000D01*
X205460626Y-52507837D01*
X205342162Y-52389373D01*
X205202860Y-52296295D01*
X205048082Y-52232184D01*
X205048074Y-52232182D01*
X204883771Y-52199500D01*
X204883767Y-52199500D01*
X204716233Y-52199500D01*
X204716228Y-52199500D01*
X204551925Y-52232182D01*
X204551917Y-52232184D01*
X204397139Y-52296295D01*
X204257837Y-52389373D01*
X204139373Y-52507837D01*
X204046295Y-52647139D01*
X203982184Y-52801917D01*
X203982182Y-52801925D01*
X203949500Y-52966228D01*
X201975500Y-52966228D01*
X201975500Y-52010452D01*
X201995185Y-51943413D01*
X202011819Y-51922771D01*
X203168363Y-50766228D01*
X204049500Y-50766228D01*
X204049500Y-50933771D01*
X204082182Y-51098074D01*
X204082184Y-51098082D01*
X204146295Y-51252860D01*
X204239373Y-51392162D01*
X204357837Y-51510626D01*
X204450494Y-51572537D01*
X204497137Y-51603703D01*
X204651918Y-51667816D01*
X204804037Y-51698074D01*
X204816228Y-51700499D01*
X204816232Y-51700500D01*
X204816233Y-51700500D01*
X204983768Y-51700500D01*
X204983769Y-51700499D01*
X205148082Y-51667816D01*
X205302863Y-51603703D01*
X205442162Y-51510626D01*
X205560626Y-51392162D01*
X205653703Y-51252863D01*
X205710300Y-51116228D01*
X209199500Y-51116228D01*
X209199500Y-51283771D01*
X209232182Y-51448074D01*
X209232184Y-51448082D01*
X209296295Y-51602860D01*
X209389373Y-51742162D01*
X209507837Y-51860626D01*
X209600494Y-51922537D01*
X209647137Y-51953703D01*
X209801918Y-52017816D01*
X209923571Y-52042014D01*
X209966228Y-52050499D01*
X209966232Y-52050500D01*
X209966233Y-52050500D01*
X210133768Y-52050500D01*
X210133769Y-52050499D01*
X210298082Y-52017816D01*
X210452863Y-51953703D01*
X210592162Y-51860626D01*
X210710626Y-51742162D01*
X210803703Y-51602863D01*
X210867816Y-51448082D01*
X210900500Y-51283767D01*
X210900500Y-51116233D01*
X210867816Y-50951918D01*
X210803703Y-50797137D01*
X210736324Y-50696297D01*
X210710626Y-50657837D01*
X210592162Y-50539373D01*
X210452860Y-50446295D01*
X210298082Y-50382184D01*
X210298074Y-50382182D01*
X210133771Y-50349500D01*
X210133767Y-50349500D01*
X209966233Y-50349500D01*
X209966228Y-50349500D01*
X209801925Y-50382182D01*
X209801917Y-50382184D01*
X209647139Y-50446295D01*
X209507837Y-50539373D01*
X209389373Y-50657837D01*
X209296295Y-50797139D01*
X209232184Y-50951917D01*
X209232182Y-50951925D01*
X209199500Y-51116228D01*
X205710300Y-51116228D01*
X205717816Y-51098082D01*
X205750500Y-50933767D01*
X205750500Y-50766233D01*
X205717816Y-50601918D01*
X205653703Y-50447137D01*
X205588295Y-50349247D01*
X205560626Y-50307837D01*
X205442162Y-50189373D01*
X205302860Y-50096295D01*
X205148082Y-50032184D01*
X205148074Y-50032182D01*
X204983771Y-49999500D01*
X204983767Y-49999500D01*
X204816233Y-49999500D01*
X204816228Y-49999500D01*
X204651925Y-50032182D01*
X204651917Y-50032184D01*
X204497139Y-50096295D01*
X204357837Y-50189373D01*
X204239373Y-50307837D01*
X204146295Y-50447139D01*
X204082184Y-50601917D01*
X204082182Y-50601925D01*
X204049500Y-50766228D01*
X203168363Y-50766228D01*
X203262131Y-50672460D01*
X204497772Y-49436819D01*
X204559095Y-49403334D01*
X204577728Y-49401330D01*
X204577706Y-49401097D01*
X204583761Y-49400500D01*
X204583767Y-49400500D01*
X204748082Y-49367816D01*
X204902863Y-49303703D01*
X205042162Y-49210626D01*
X205160626Y-49092162D01*
X205253703Y-48952863D01*
X205317816Y-48798082D01*
X205350500Y-48633767D01*
X205350500Y-48466233D01*
X205317816Y-48301918D01*
X205253703Y-48147137D01*
X205213805Y-48087425D01*
X205160626Y-48007837D01*
X205042162Y-47889373D01*
X204902860Y-47796295D01*
X204748082Y-47732184D01*
X204748074Y-47732182D01*
X204583771Y-47699500D01*
X204583767Y-47699500D01*
X204416233Y-47699500D01*
X204416228Y-47699500D01*
X204251925Y-47732182D01*
X204251917Y-47732184D01*
X204097139Y-47796295D01*
X203957837Y-47889373D01*
X203839373Y-48007837D01*
X203746295Y-48147139D01*
X203682184Y-48301917D01*
X203682182Y-48301925D01*
X203649500Y-48466228D01*
X203648903Y-48472294D01*
X203647272Y-48472133D01*
X203640855Y-48493986D01*
X203634332Y-48523973D01*
X203630577Y-48528988D01*
X203629815Y-48531585D01*
X203613181Y-48552227D01*
X203547502Y-48617906D01*
X203486179Y-48651391D01*
X203416487Y-48646407D01*
X203360554Y-48604535D01*
X203338204Y-48554419D01*
X203317816Y-48451918D01*
X203255686Y-48301925D01*
X203253704Y-48297139D01*
X203160626Y-48157837D01*
X203042162Y-48039373D01*
X202902860Y-47946295D01*
X202748082Y-47882184D01*
X202748074Y-47882182D01*
X202583771Y-47849500D01*
X202583767Y-47849500D01*
X202416233Y-47849500D01*
X202416228Y-47849500D01*
X202251925Y-47882182D01*
X202251917Y-47882184D01*
X202097139Y-47946295D01*
X201957837Y-48039373D01*
X201839373Y-48157837D01*
X201746295Y-48297139D01*
X201682184Y-48451917D01*
X201682182Y-48451925D01*
X201649500Y-48616228D01*
X201649500Y-48783771D01*
X201682182Y-48948074D01*
X201682184Y-48948082D01*
X201746295Y-49102860D01*
X201839373Y-49242162D01*
X201957837Y-49360626D01*
X202050494Y-49422537D01*
X202097137Y-49453703D01*
X202251918Y-49517816D01*
X202354418Y-49538204D01*
X202416327Y-49570588D01*
X202450901Y-49631304D01*
X202447162Y-49701073D01*
X202417906Y-49747502D01*
X200951269Y-51214140D01*
X200864144Y-51301264D01*
X200864138Y-51301272D01*
X200795690Y-51403708D01*
X200795688Y-51403713D01*
X200765768Y-51475948D01*
X200765768Y-51475949D01*
X200748538Y-51517544D01*
X200748537Y-51517547D01*
X200748537Y-51517548D01*
X200731401Y-51603703D01*
X200724500Y-51638396D01*
X200724500Y-51929220D01*
X200704815Y-51996259D01*
X200652011Y-52042014D01*
X200582853Y-52051958D01*
X200531610Y-52032322D01*
X200402865Y-51946298D01*
X200402861Y-51946296D01*
X200248082Y-51882184D01*
X200248074Y-51882182D01*
X200083771Y-51849500D01*
X200083767Y-51849500D01*
X199916233Y-51849500D01*
X199916228Y-51849500D01*
X199751925Y-51882182D01*
X199751917Y-51882184D01*
X199597139Y-51946295D01*
X199457837Y-52039373D01*
X199339373Y-52157837D01*
X199246295Y-52297139D01*
X199182184Y-52451917D01*
X199182182Y-52451925D01*
X199149500Y-52616228D01*
X199149500Y-52783771D01*
X199182182Y-52948074D01*
X199182184Y-52948082D01*
X199246295Y-53102860D01*
X199339373Y-53242162D01*
X199457837Y-53360626D01*
X199528494Y-53407837D01*
X199597137Y-53453703D01*
X199597138Y-53453703D01*
X199597139Y-53453704D01*
X199632201Y-53468227D01*
X199751918Y-53517816D01*
X199899326Y-53547137D01*
X199916228Y-53550499D01*
X199916232Y-53550500D01*
X199916233Y-53550500D01*
X200083768Y-53550500D01*
X200083769Y-53550499D01*
X200248082Y-53517816D01*
X200402863Y-53453703D01*
X200531609Y-53367676D01*
X200598286Y-53346799D01*
X200665667Y-53365283D01*
X200712357Y-53417262D01*
X200724500Y-53470779D01*
X200724500Y-78039547D01*
X200704815Y-78106586D01*
X200688181Y-78127228D01*
X195852229Y-82963181D01*
X195790906Y-82996666D01*
X195772271Y-82998669D01*
X195772294Y-82998903D01*
X195766228Y-82999500D01*
X195601925Y-83032182D01*
X195601917Y-83032184D01*
X195447139Y-83096295D01*
X195307837Y-83189373D01*
X195189373Y-83307837D01*
X195096295Y-83447139D01*
X195032184Y-83601917D01*
X195032182Y-83601925D01*
X194999500Y-83766228D01*
X176400500Y-83766228D01*
X176400500Y-82416228D01*
X185549500Y-82416228D01*
X185549500Y-82583771D01*
X185582182Y-82748074D01*
X185582184Y-82748082D01*
X185646295Y-82902860D01*
X185739373Y-83042162D01*
X185857837Y-83160626D01*
X185900862Y-83189374D01*
X185997137Y-83253703D01*
X186151918Y-83317816D01*
X186316228Y-83350499D01*
X186316232Y-83350500D01*
X186316233Y-83350500D01*
X186483768Y-83350500D01*
X186483769Y-83350499D01*
X186648082Y-83317816D01*
X186802863Y-83253703D01*
X186942162Y-83160626D01*
X187060626Y-83042162D01*
X187153703Y-82902863D01*
X187217816Y-82748082D01*
X187250500Y-82583767D01*
X187250500Y-82416233D01*
X187217816Y-82251918D01*
X187153703Y-82097137D01*
X187122537Y-82050494D01*
X187060626Y-81957837D01*
X186942162Y-81839373D01*
X186802860Y-81746295D01*
X186648082Y-81682184D01*
X186648074Y-81682182D01*
X186483771Y-81649500D01*
X186483767Y-81649500D01*
X186316233Y-81649500D01*
X186316228Y-81649500D01*
X186151925Y-81682182D01*
X186151917Y-81682184D01*
X185997139Y-81746295D01*
X185857837Y-81839373D01*
X185739373Y-81957837D01*
X185646295Y-82097139D01*
X185582184Y-82251917D01*
X185582182Y-82251925D01*
X185549500Y-82416228D01*
X176400500Y-82416228D01*
X176400500Y-72866228D01*
X184299500Y-72866228D01*
X184299500Y-73033771D01*
X184332182Y-73198074D01*
X184332184Y-73198082D01*
X184396295Y-73352860D01*
X184489373Y-73492162D01*
X184607837Y-73610626D01*
X184700494Y-73672537D01*
X184747137Y-73703703D01*
X184901918Y-73767816D01*
X185066228Y-73800499D01*
X185066232Y-73800500D01*
X185066233Y-73800500D01*
X185233768Y-73800500D01*
X185233769Y-73800499D01*
X185398082Y-73767816D01*
X185552863Y-73703703D01*
X185692162Y-73610626D01*
X185810626Y-73492162D01*
X185903703Y-73352863D01*
X185967816Y-73198082D01*
X186000500Y-73033767D01*
X186000500Y-72866233D01*
X185967816Y-72701918D01*
X185903703Y-72547137D01*
X185872537Y-72500494D01*
X185810626Y-72407837D01*
X185692162Y-72289373D01*
X185552860Y-72196295D01*
X185398082Y-72132184D01*
X185398074Y-72132182D01*
X185233771Y-72099500D01*
X185233767Y-72099500D01*
X185066233Y-72099500D01*
X185066228Y-72099500D01*
X184901925Y-72132182D01*
X184901917Y-72132184D01*
X184747139Y-72196295D01*
X184607837Y-72289373D01*
X184489373Y-72407837D01*
X184396295Y-72547139D01*
X184332184Y-72701917D01*
X184332182Y-72701925D01*
X184299500Y-72866228D01*
X176400500Y-72866228D01*
X176400500Y-71366228D01*
X178999500Y-71366228D01*
X178999500Y-71533771D01*
X179032182Y-71698074D01*
X179032184Y-71698082D01*
X179096295Y-71852860D01*
X179189373Y-71992162D01*
X179307837Y-72110626D01*
X179400494Y-72172537D01*
X179447137Y-72203703D01*
X179601918Y-72267816D01*
X179766228Y-72300499D01*
X179766232Y-72300500D01*
X179766233Y-72300500D01*
X179933768Y-72300500D01*
X179933769Y-72300499D01*
X180098082Y-72267816D01*
X180252863Y-72203703D01*
X180392162Y-72110626D01*
X180510626Y-71992162D01*
X180603703Y-71852863D01*
X180667816Y-71698082D01*
X180700500Y-71533767D01*
X180700500Y-71366233D01*
X180667816Y-71201918D01*
X180603703Y-71047137D01*
X180572537Y-71000494D01*
X180510626Y-70907837D01*
X180392162Y-70789373D01*
X180252860Y-70696295D01*
X180098082Y-70632184D01*
X180098074Y-70632182D01*
X179933771Y-70599500D01*
X179933767Y-70599500D01*
X179766233Y-70599500D01*
X179766228Y-70599500D01*
X179601925Y-70632182D01*
X179601917Y-70632184D01*
X179447139Y-70696295D01*
X179307837Y-70789373D01*
X179189373Y-70907837D01*
X179096295Y-71047139D01*
X179032184Y-71201917D01*
X179032182Y-71201925D01*
X178999500Y-71366228D01*
X176400500Y-71366228D01*
X176400500Y-70166228D01*
X187099500Y-70166228D01*
X187099500Y-70333771D01*
X187132182Y-70498074D01*
X187132184Y-70498082D01*
X187196295Y-70652860D01*
X187289373Y-70792162D01*
X187407837Y-70910626D01*
X187500494Y-70972537D01*
X187547137Y-71003703D01*
X187701918Y-71067816D01*
X187866228Y-71100499D01*
X187866232Y-71100500D01*
X187866233Y-71100500D01*
X188033768Y-71100500D01*
X188033769Y-71100499D01*
X188198082Y-71067816D01*
X188352863Y-71003703D01*
X188492162Y-70910626D01*
X188610626Y-70792162D01*
X188703703Y-70652863D01*
X188767816Y-70498082D01*
X188800500Y-70333767D01*
X188800500Y-70166233D01*
X188767816Y-70001918D01*
X188703703Y-69847137D01*
X188672537Y-69800494D01*
X188610626Y-69707837D01*
X188492162Y-69589373D01*
X188352860Y-69496295D01*
X188198082Y-69432184D01*
X188198074Y-69432182D01*
X188033771Y-69399500D01*
X188033767Y-69399500D01*
X187866233Y-69399500D01*
X187866228Y-69399500D01*
X187701925Y-69432182D01*
X187701917Y-69432184D01*
X187547139Y-69496295D01*
X187407837Y-69589373D01*
X187289373Y-69707837D01*
X187196295Y-69847139D01*
X187132184Y-70001917D01*
X187132182Y-70001925D01*
X187099500Y-70166228D01*
X176400500Y-70166228D01*
X176400500Y-66666228D01*
X184699500Y-66666228D01*
X184699500Y-66833771D01*
X184732182Y-66998074D01*
X184732184Y-66998082D01*
X184796295Y-67152860D01*
X184889373Y-67292162D01*
X185007837Y-67410626D01*
X185100494Y-67472537D01*
X185147137Y-67503703D01*
X185301918Y-67567816D01*
X185466228Y-67600499D01*
X185466232Y-67600500D01*
X185466233Y-67600500D01*
X185633768Y-67600500D01*
X185633769Y-67600499D01*
X185798082Y-67567816D01*
X185952863Y-67503703D01*
X186092162Y-67410626D01*
X186210626Y-67292162D01*
X186303703Y-67152863D01*
X186367816Y-66998082D01*
X186400500Y-66833767D01*
X186400500Y-66666233D01*
X186367816Y-66501918D01*
X186303703Y-66347137D01*
X186272537Y-66300494D01*
X186210626Y-66207837D01*
X186092162Y-66089373D01*
X185952860Y-65996295D01*
X185798082Y-65932184D01*
X185798074Y-65932182D01*
X185633771Y-65899500D01*
X185633767Y-65899500D01*
X185466233Y-65899500D01*
X185466228Y-65899500D01*
X185301925Y-65932182D01*
X185301917Y-65932184D01*
X185147139Y-65996295D01*
X185007837Y-66089373D01*
X184889373Y-66207837D01*
X184796295Y-66347139D01*
X184732184Y-66501917D01*
X184732182Y-66501925D01*
X184699500Y-66666228D01*
X176400500Y-66666228D01*
X176400500Y-65566228D01*
X195249500Y-65566228D01*
X195249500Y-65733771D01*
X195282182Y-65898074D01*
X195282184Y-65898082D01*
X195346295Y-66052860D01*
X195439373Y-66192162D01*
X195557837Y-66310626D01*
X195612480Y-66347137D01*
X195697137Y-66403703D01*
X195851918Y-66467816D01*
X196016228Y-66500499D01*
X196016232Y-66500500D01*
X196016233Y-66500500D01*
X196183768Y-66500500D01*
X196183769Y-66500499D01*
X196348082Y-66467816D01*
X196502863Y-66403703D01*
X196642162Y-66310626D01*
X196760626Y-66192162D01*
X196853703Y-66052863D01*
X196917816Y-65898082D01*
X196950500Y-65733767D01*
X196950500Y-65566233D01*
X196917816Y-65401918D01*
X196853703Y-65247137D01*
X196822537Y-65200494D01*
X196760626Y-65107837D01*
X196642162Y-64989373D01*
X196502860Y-64896295D01*
X196348082Y-64832184D01*
X196348074Y-64832182D01*
X196183771Y-64799500D01*
X196183767Y-64799500D01*
X196016233Y-64799500D01*
X196016228Y-64799500D01*
X195851925Y-64832182D01*
X195851917Y-64832184D01*
X195697139Y-64896295D01*
X195557837Y-64989373D01*
X195439373Y-65107837D01*
X195346295Y-65247139D01*
X195282184Y-65401917D01*
X195282182Y-65401925D01*
X195249500Y-65566228D01*
X176400500Y-65566228D01*
X176400500Y-65315845D01*
X190037706Y-65315845D01*
X190166652Y-65369257D01*
X190166656Y-65369258D01*
X190321202Y-65399999D01*
X190321206Y-65400000D01*
X190478794Y-65400000D01*
X190478797Y-65399999D01*
X190633343Y-65369258D01*
X190633347Y-65369257D01*
X190762293Y-65315845D01*
X190400001Y-64953553D01*
X190400000Y-64953553D01*
X190037706Y-65315845D01*
X176400500Y-65315845D01*
X176400500Y-64865845D01*
X189587705Y-64865845D01*
X189587705Y-64865846D01*
X189608452Y-64874440D01*
X189662855Y-64918281D01*
X189675558Y-64941545D01*
X189684152Y-64962293D01*
X189684153Y-64962293D01*
X190135542Y-64510904D01*
X190196865Y-64477419D01*
X190266556Y-64482403D01*
X190290242Y-64497625D01*
X190272836Y-64515032D01*
X190250000Y-64570163D01*
X190250000Y-64629837D01*
X190272836Y-64684968D01*
X190315032Y-64727164D01*
X190370163Y-64750000D01*
X190429837Y-64750000D01*
X190484968Y-64727164D01*
X190527164Y-64684968D01*
X190550000Y-64629837D01*
X190550000Y-64570163D01*
X190527164Y-64515032D01*
X190511048Y-64498916D01*
X190550417Y-64477419D01*
X190620109Y-64482403D01*
X190664457Y-64510904D01*
X191115845Y-64962293D01*
X191124439Y-64941546D01*
X191168281Y-64887143D01*
X191191546Y-64874439D01*
X191212293Y-64865845D01*
X190962675Y-64616228D01*
X192499500Y-64616228D01*
X192499500Y-64783771D01*
X192532182Y-64948074D01*
X192532184Y-64948082D01*
X192596295Y-65102860D01*
X192689373Y-65242162D01*
X192807837Y-65360626D01*
X192869646Y-65401925D01*
X192947137Y-65453703D01*
X193101918Y-65517816D01*
X193266228Y-65550499D01*
X193266232Y-65550500D01*
X193266233Y-65550500D01*
X193433768Y-65550500D01*
X193433769Y-65550499D01*
X193598082Y-65517816D01*
X193752863Y-65453703D01*
X193892162Y-65360626D01*
X194010626Y-65242162D01*
X194103703Y-65102863D01*
X194167816Y-64948082D01*
X194200500Y-64783767D01*
X194200500Y-64616233D01*
X194167816Y-64451918D01*
X194103703Y-64297137D01*
X194062163Y-64234968D01*
X194010626Y-64157837D01*
X193892162Y-64039373D01*
X193752860Y-63946295D01*
X193700729Y-63924702D01*
X193598082Y-63882184D01*
X193598074Y-63882182D01*
X193433771Y-63849500D01*
X193433767Y-63849500D01*
X193266233Y-63849500D01*
X193266228Y-63849500D01*
X193101925Y-63882182D01*
X193101917Y-63882184D01*
X192947139Y-63946295D01*
X192807837Y-64039373D01*
X192689373Y-64157837D01*
X192596295Y-64297139D01*
X192532184Y-64451917D01*
X192532182Y-64451925D01*
X192499500Y-64616228D01*
X190962675Y-64616228D01*
X190760904Y-64414457D01*
X190727419Y-64353134D01*
X190732403Y-64283443D01*
X190747624Y-64259756D01*
X190765032Y-64277164D01*
X190820163Y-64300000D01*
X190879837Y-64300000D01*
X190934968Y-64277164D01*
X190977164Y-64234968D01*
X191000000Y-64179837D01*
X191000000Y-64149999D01*
X191203553Y-64149999D01*
X191203553Y-64150001D01*
X191565845Y-64512293D01*
X191619257Y-64383347D01*
X191619258Y-64383343D01*
X191649999Y-64228797D01*
X191650000Y-64228794D01*
X191650000Y-64071206D01*
X191649999Y-64071202D01*
X191619258Y-63916656D01*
X191619257Y-63916652D01*
X191577659Y-63816228D01*
X198549500Y-63816228D01*
X198549500Y-63983771D01*
X198582182Y-64148074D01*
X198582184Y-64148082D01*
X198646295Y-64302860D01*
X198739373Y-64442162D01*
X198857837Y-64560626D01*
X198941052Y-64616228D01*
X198997137Y-64653703D01*
X199151918Y-64717816D01*
X199313719Y-64750000D01*
X199316228Y-64750499D01*
X199316232Y-64750500D01*
X199316233Y-64750500D01*
X199483768Y-64750500D01*
X199483769Y-64750499D01*
X199648082Y-64717816D01*
X199802863Y-64653703D01*
X199942162Y-64560626D01*
X200060626Y-64442162D01*
X200153703Y-64302863D01*
X200217816Y-64148082D01*
X200250500Y-63983767D01*
X200250500Y-63816233D01*
X200217816Y-63651918D01*
X200153703Y-63497137D01*
X200074857Y-63379136D01*
X200060626Y-63357837D01*
X199942162Y-63239373D01*
X199802860Y-63146295D01*
X199648082Y-63082184D01*
X199648074Y-63082182D01*
X199483771Y-63049500D01*
X199483767Y-63049500D01*
X199316233Y-63049500D01*
X199316228Y-63049500D01*
X199151925Y-63082182D01*
X199151917Y-63082184D01*
X198997139Y-63146295D01*
X198857837Y-63239373D01*
X198739373Y-63357837D01*
X198646295Y-63497139D01*
X198582184Y-63651917D01*
X198582182Y-63651925D01*
X198549500Y-63816228D01*
X191577659Y-63816228D01*
X191565845Y-63787706D01*
X191203553Y-64149999D01*
X191000000Y-64149999D01*
X191000000Y-64120163D01*
X190977164Y-64065032D01*
X190934968Y-64022836D01*
X190879837Y-64000000D01*
X190820163Y-64000000D01*
X190765032Y-64022836D01*
X190748916Y-64038951D01*
X190727419Y-63999581D01*
X190732403Y-63929889D01*
X190760904Y-63885542D01*
X191212293Y-63434153D01*
X191212293Y-63434152D01*
X191191545Y-63425558D01*
X191137143Y-63381716D01*
X191124440Y-63358452D01*
X191115846Y-63337705D01*
X191115845Y-63337705D01*
X190664457Y-63789095D01*
X190603134Y-63822580D01*
X190533443Y-63817596D01*
X190509757Y-63802374D01*
X190527164Y-63784968D01*
X190550000Y-63729837D01*
X190550000Y-63670163D01*
X190527164Y-63615032D01*
X190484968Y-63572836D01*
X190429837Y-63550000D01*
X190370163Y-63550000D01*
X190315032Y-63572836D01*
X190272836Y-63615032D01*
X190250000Y-63670163D01*
X190250000Y-63729837D01*
X190272836Y-63784968D01*
X190288951Y-63801083D01*
X190249581Y-63822581D01*
X190179889Y-63817597D01*
X190135542Y-63789096D01*
X189684151Y-63337705D01*
X189675559Y-63358450D01*
X189664599Y-63379136D01*
X189612264Y-63458710D01*
X190039096Y-63885542D01*
X190072581Y-63946865D01*
X190067597Y-64016557D01*
X190052374Y-64040242D01*
X190034968Y-64022836D01*
X189979837Y-64000000D01*
X189920163Y-64000000D01*
X189865032Y-64022836D01*
X189822836Y-64065032D01*
X189800000Y-64120163D01*
X189800000Y-64179837D01*
X189822836Y-64234968D01*
X189865032Y-64277164D01*
X189920163Y-64300000D01*
X189979837Y-64300000D01*
X190034968Y-64277164D01*
X190051082Y-64261049D01*
X190072580Y-64300418D01*
X190067596Y-64370110D01*
X190039095Y-64414457D01*
X189587705Y-64865845D01*
X176400500Y-64865845D01*
X176400500Y-64071202D01*
X189150000Y-64071202D01*
X189150000Y-64228797D01*
X189180741Y-64383343D01*
X189180743Y-64383351D01*
X189234153Y-64512293D01*
X189596446Y-64150001D01*
X189596446Y-64149999D01*
X189234153Y-63787705D01*
X189180743Y-63916648D01*
X189180741Y-63916656D01*
X189150000Y-64071202D01*
X176400500Y-64071202D01*
X176400500Y-62984153D01*
X190037705Y-62984153D01*
X190400000Y-63346446D01*
X190400001Y-63346446D01*
X190762293Y-62984153D01*
X190633351Y-62930743D01*
X190633343Y-62930741D01*
X190478797Y-62900000D01*
X190321202Y-62900000D01*
X190166656Y-62930741D01*
X190166648Y-62930743D01*
X190037705Y-62984153D01*
X176400500Y-62984153D01*
X176400500Y-61766228D01*
X186599500Y-61766228D01*
X186599500Y-61933771D01*
X186632182Y-62098074D01*
X186632184Y-62098082D01*
X186696295Y-62252860D01*
X186789373Y-62392162D01*
X186907837Y-62510626D01*
X187000494Y-62572537D01*
X187047137Y-62603703D01*
X187201918Y-62667816D01*
X187366228Y-62700499D01*
X187366232Y-62700500D01*
X187366233Y-62700500D01*
X187533768Y-62700500D01*
X187533769Y-62700499D01*
X187698082Y-62667816D01*
X187852863Y-62603703D01*
X187992162Y-62510626D01*
X188110626Y-62392162D01*
X188203703Y-62252863D01*
X188267816Y-62098082D01*
X188300500Y-61933767D01*
X188300500Y-61766233D01*
X188267816Y-61601918D01*
X188203703Y-61447137D01*
X188172537Y-61400494D01*
X188110626Y-61307837D01*
X187992162Y-61189373D01*
X187852860Y-61096295D01*
X187698082Y-61032184D01*
X187698074Y-61032182D01*
X187533771Y-60999500D01*
X187533767Y-60999500D01*
X187366233Y-60999500D01*
X187366228Y-60999500D01*
X187201925Y-61032182D01*
X187201917Y-61032184D01*
X187047139Y-61096295D01*
X186907837Y-61189373D01*
X186789373Y-61307837D01*
X186696295Y-61447139D01*
X186632184Y-61601917D01*
X186632182Y-61601925D01*
X186599500Y-61766228D01*
X176400500Y-61766228D01*
X176400500Y-57866228D01*
X192149500Y-57866228D01*
X192149500Y-58033771D01*
X192182182Y-58198074D01*
X192182184Y-58198082D01*
X192246295Y-58352860D01*
X192339373Y-58492162D01*
X192457837Y-58610626D01*
X192550494Y-58672537D01*
X192597137Y-58703703D01*
X192751918Y-58767816D01*
X192916228Y-58800499D01*
X192916232Y-58800500D01*
X192916233Y-58800500D01*
X193083768Y-58800500D01*
X193083769Y-58800499D01*
X193248082Y-58767816D01*
X193402863Y-58703703D01*
X193542162Y-58610626D01*
X193660626Y-58492162D01*
X193744773Y-58366228D01*
X197599500Y-58366228D01*
X197599500Y-58533771D01*
X197632182Y-58698074D01*
X197632184Y-58698082D01*
X197696295Y-58852860D01*
X197789373Y-58992162D01*
X197907837Y-59110626D01*
X198000494Y-59172537D01*
X198047137Y-59203703D01*
X198201918Y-59267816D01*
X198366228Y-59300499D01*
X198366232Y-59300500D01*
X198366233Y-59300500D01*
X198533768Y-59300500D01*
X198533769Y-59300499D01*
X198698082Y-59267816D01*
X198852863Y-59203703D01*
X198992162Y-59110626D01*
X199110626Y-58992162D01*
X199203703Y-58852863D01*
X199267816Y-58698082D01*
X199300500Y-58533767D01*
X199300500Y-58366233D01*
X199267816Y-58201918D01*
X199203703Y-58047137D01*
X199172537Y-58000494D01*
X199110626Y-57907837D01*
X198992162Y-57789373D01*
X198852860Y-57696295D01*
X198698082Y-57632184D01*
X198698074Y-57632182D01*
X198533771Y-57599500D01*
X198533767Y-57599500D01*
X198366233Y-57599500D01*
X198366228Y-57599500D01*
X198201925Y-57632182D01*
X198201917Y-57632184D01*
X198047139Y-57696295D01*
X197907837Y-57789373D01*
X197789373Y-57907837D01*
X197696295Y-58047139D01*
X197632184Y-58201917D01*
X197632182Y-58201925D01*
X197599500Y-58366228D01*
X193744773Y-58366228D01*
X193753703Y-58352863D01*
X193817816Y-58198082D01*
X193850500Y-58033767D01*
X193850500Y-57866233D01*
X193817816Y-57701918D01*
X193753703Y-57547137D01*
X193722537Y-57500494D01*
X193660626Y-57407837D01*
X193542162Y-57289373D01*
X193402860Y-57196295D01*
X193248082Y-57132184D01*
X193248074Y-57132182D01*
X193083771Y-57099500D01*
X193083767Y-57099500D01*
X192916233Y-57099500D01*
X192916228Y-57099500D01*
X192751925Y-57132182D01*
X192751917Y-57132184D01*
X192597139Y-57196295D01*
X192457837Y-57289373D01*
X192339373Y-57407837D01*
X192246295Y-57547139D01*
X192182184Y-57701917D01*
X192182182Y-57701925D01*
X192149500Y-57866228D01*
X176400500Y-57866228D01*
X176400500Y-56666228D01*
X184349500Y-56666228D01*
X184349500Y-56833771D01*
X184382182Y-56998074D01*
X184382184Y-56998082D01*
X184446295Y-57152860D01*
X184539373Y-57292162D01*
X184657837Y-57410626D01*
X184750494Y-57472537D01*
X184797137Y-57503703D01*
X184951918Y-57567816D01*
X185111206Y-57599500D01*
X185116228Y-57600499D01*
X185116232Y-57600500D01*
X185116233Y-57600500D01*
X185283768Y-57600500D01*
X185283769Y-57600499D01*
X185448082Y-57567816D01*
X185602863Y-57503703D01*
X185742162Y-57410626D01*
X185860626Y-57292162D01*
X185953703Y-57152863D01*
X186017816Y-56998082D01*
X186050500Y-56833767D01*
X186050500Y-56666233D01*
X186017816Y-56501918D01*
X185953703Y-56347137D01*
X185922537Y-56300494D01*
X185860626Y-56207837D01*
X185742162Y-56089373D01*
X185602860Y-55996295D01*
X185448082Y-55932184D01*
X185448074Y-55932182D01*
X185283771Y-55899500D01*
X185283767Y-55899500D01*
X185116233Y-55899500D01*
X185116228Y-55899500D01*
X184951925Y-55932182D01*
X184951917Y-55932184D01*
X184797139Y-55996295D01*
X184657837Y-56089373D01*
X184539373Y-56207837D01*
X184446295Y-56347139D01*
X184382184Y-56501917D01*
X184382182Y-56501925D01*
X184349500Y-56666228D01*
X176400500Y-56666228D01*
X176400500Y-53866228D01*
X182399500Y-53866228D01*
X182399500Y-54033771D01*
X182432182Y-54198074D01*
X182432184Y-54198082D01*
X182496295Y-54352860D01*
X182589373Y-54492162D01*
X182707837Y-54610626D01*
X182782668Y-54660626D01*
X182847137Y-54703703D01*
X183001918Y-54767816D01*
X183166228Y-54800499D01*
X183166232Y-54800500D01*
X183166233Y-54800500D01*
X183333768Y-54800500D01*
X183333769Y-54800499D01*
X183498082Y-54767816D01*
X183652863Y-54703703D01*
X183792162Y-54610626D01*
X183910626Y-54492162D01*
X184003703Y-54352863D01*
X184067816Y-54198082D01*
X184100500Y-54033767D01*
X184100500Y-53866233D01*
X184077762Y-53751918D01*
X184067817Y-53701921D01*
X184067815Y-53701917D01*
X184053032Y-53666228D01*
X189849500Y-53666228D01*
X189849500Y-53833771D01*
X189882182Y-53998074D01*
X189882184Y-53998082D01*
X189946295Y-54152860D01*
X190039373Y-54292162D01*
X190157837Y-54410626D01*
X190250494Y-54472537D01*
X190297137Y-54503703D01*
X190451918Y-54567816D01*
X190616228Y-54600499D01*
X190616232Y-54600500D01*
X190616233Y-54600500D01*
X190783768Y-54600500D01*
X190783769Y-54600499D01*
X190948082Y-54567816D01*
X191102863Y-54503703D01*
X191242162Y-54410626D01*
X191360626Y-54292162D01*
X191453703Y-54152863D01*
X191517816Y-53998082D01*
X191534098Y-53916228D01*
X194399500Y-53916228D01*
X194399500Y-54083771D01*
X194432182Y-54248074D01*
X194432184Y-54248082D01*
X194496295Y-54402860D01*
X194589373Y-54542162D01*
X194707837Y-54660626D01*
X194791052Y-54716228D01*
X194847137Y-54753703D01*
X195001918Y-54817816D01*
X195166228Y-54850499D01*
X195166232Y-54850500D01*
X195166233Y-54850500D01*
X195333768Y-54850500D01*
X195333769Y-54850499D01*
X195498082Y-54817816D01*
X195652863Y-54753703D01*
X195792162Y-54660626D01*
X195910626Y-54542162D01*
X196003703Y-54402863D01*
X196067816Y-54248082D01*
X196100500Y-54083767D01*
X196100500Y-53916233D01*
X196067816Y-53751918D01*
X196003703Y-53597137D01*
X195940084Y-53501925D01*
X195910626Y-53457837D01*
X195792162Y-53339373D01*
X195652860Y-53246295D01*
X195498082Y-53182184D01*
X195498074Y-53182182D01*
X195333771Y-53149500D01*
X195333767Y-53149500D01*
X195166233Y-53149500D01*
X195166228Y-53149500D01*
X195001925Y-53182182D01*
X195001917Y-53182184D01*
X194847139Y-53246295D01*
X194707837Y-53339373D01*
X194589373Y-53457837D01*
X194496295Y-53597139D01*
X194432184Y-53751917D01*
X194432182Y-53751925D01*
X194399500Y-53916228D01*
X191534098Y-53916228D01*
X191550500Y-53833767D01*
X191550500Y-53666233D01*
X191517816Y-53501918D01*
X191453703Y-53347137D01*
X191386324Y-53246297D01*
X191360626Y-53207837D01*
X191267385Y-53114596D01*
X191233900Y-53053273D01*
X191238884Y-52983581D01*
X191280756Y-52927648D01*
X191346220Y-52903231D01*
X191355066Y-52902915D01*
X191405153Y-52902915D01*
X191405154Y-52902914D01*
X191569467Y-52870231D01*
X191724248Y-52806118D01*
X191863547Y-52713041D01*
X191886112Y-52690474D01*
X191947432Y-52656991D01*
X192017123Y-52661974D01*
X192061472Y-52690475D01*
X192084038Y-52713041D01*
X192223337Y-52806118D01*
X192378118Y-52870231D01*
X192542428Y-52902914D01*
X192542432Y-52902915D01*
X192542433Y-52902915D01*
X192709968Y-52902915D01*
X192709969Y-52902914D01*
X192874282Y-52870231D01*
X193029063Y-52806118D01*
X193168362Y-52713041D01*
X193286826Y-52594577D01*
X193379903Y-52455278D01*
X193431242Y-52331333D01*
X193475081Y-52276932D01*
X193541375Y-52254867D01*
X193593254Y-52264227D01*
X193601918Y-52267816D01*
X193745093Y-52296295D01*
X193766228Y-52300499D01*
X193766232Y-52300500D01*
X193766233Y-52300500D01*
X193933768Y-52300500D01*
X193933769Y-52300499D01*
X194098082Y-52267816D01*
X194252863Y-52203703D01*
X194392162Y-52110626D01*
X194510626Y-51992162D01*
X194603703Y-51852863D01*
X194667816Y-51698082D01*
X194700500Y-51533767D01*
X194700500Y-51366233D01*
X194667816Y-51201918D01*
X194632323Y-51116232D01*
X194603704Y-51047139D01*
X194510626Y-50907837D01*
X194392162Y-50789373D01*
X194252860Y-50696295D01*
X194098082Y-50632184D01*
X194098074Y-50632182D01*
X193933771Y-50599500D01*
X193933767Y-50599500D01*
X193766233Y-50599500D01*
X193766228Y-50599500D01*
X193601925Y-50632182D01*
X193601917Y-50632184D01*
X193447139Y-50696295D01*
X193307837Y-50789373D01*
X193189373Y-50907837D01*
X193096295Y-51047139D01*
X193044958Y-51171079D01*
X193001117Y-51225482D01*
X192934823Y-51247547D01*
X192882945Y-51238187D01*
X192874286Y-51234600D01*
X192874274Y-51234597D01*
X192709971Y-51201915D01*
X192709967Y-51201915D01*
X192542433Y-51201915D01*
X192542428Y-51201915D01*
X192378125Y-51234597D01*
X192378117Y-51234599D01*
X192223339Y-51298710D01*
X192084041Y-51391786D01*
X192084040Y-51391786D01*
X192061470Y-51414356D01*
X192000146Y-51447838D01*
X191930454Y-51442851D01*
X191886111Y-51414352D01*
X191863547Y-51391788D01*
X191724245Y-51298710D01*
X191569467Y-51234599D01*
X191569459Y-51234597D01*
X191405156Y-51201915D01*
X191405152Y-51201915D01*
X191237618Y-51201915D01*
X191237613Y-51201915D01*
X191073310Y-51234597D01*
X191073302Y-51234599D01*
X190918524Y-51298710D01*
X190779222Y-51391788D01*
X190660758Y-51510252D01*
X190567680Y-51649554D01*
X190503569Y-51804332D01*
X190503567Y-51804340D01*
X190470885Y-51968643D01*
X190470885Y-52136186D01*
X190503567Y-52300489D01*
X190503569Y-52300497D01*
X190567680Y-52455275D01*
X190660758Y-52594577D01*
X190754000Y-52687819D01*
X190787485Y-52749142D01*
X190782501Y-52818834D01*
X190740629Y-52874767D01*
X190675165Y-52899184D01*
X190666319Y-52899500D01*
X190616228Y-52899500D01*
X190451925Y-52932182D01*
X190451917Y-52932184D01*
X190297139Y-52996295D01*
X190157837Y-53089373D01*
X190039373Y-53207837D01*
X189946295Y-53347139D01*
X189882184Y-53501917D01*
X189882182Y-53501925D01*
X189849500Y-53666228D01*
X184053032Y-53666228D01*
X184003703Y-53547137D01*
X183944035Y-53457838D01*
X183910626Y-53407837D01*
X183792162Y-53289373D01*
X183652860Y-53196295D01*
X183498082Y-53132184D01*
X183498074Y-53132182D01*
X183333771Y-53099500D01*
X183333767Y-53099500D01*
X183166233Y-53099500D01*
X183166228Y-53099500D01*
X183001925Y-53132182D01*
X183001917Y-53132184D01*
X182847139Y-53196295D01*
X182707837Y-53289373D01*
X182589373Y-53407837D01*
X182496295Y-53547139D01*
X182432184Y-53701917D01*
X182432182Y-53701925D01*
X182399500Y-53866228D01*
X176400500Y-53866228D01*
X176400500Y-48154464D01*
X176420185Y-48087425D01*
X176472989Y-48041670D01*
X176542147Y-48031726D01*
X176605703Y-48060751D01*
X176633858Y-48096011D01*
X176772140Y-48354720D01*
X176772151Y-48354738D01*
X176974140Y-48657035D01*
X176974150Y-48657049D01*
X177204807Y-48938106D01*
X177461893Y-49195192D01*
X177461898Y-49195196D01*
X177461899Y-49195197D01*
X177742956Y-49425854D01*
X178045268Y-49627853D01*
X178045277Y-49627858D01*
X178045279Y-49627859D01*
X178365916Y-49799243D01*
X178365918Y-49799243D01*
X178365924Y-49799247D01*
X178701836Y-49938386D01*
X179049767Y-50043930D01*
X179049773Y-50043931D01*
X179049776Y-50043932D01*
X179049787Y-50043935D01*
X179406369Y-50114862D01*
X179768206Y-50150500D01*
X179768209Y-50150500D01*
X180131791Y-50150500D01*
X180131794Y-50150500D01*
X180493631Y-50114862D01*
X180563045Y-50101054D01*
X180850212Y-50043935D01*
X180850223Y-50043932D01*
X180850223Y-50043931D01*
X180850233Y-50043930D01*
X180983371Y-50003543D01*
X186079499Y-50003543D01*
X186117947Y-50196829D01*
X186117950Y-50196839D01*
X186193364Y-50378907D01*
X186193371Y-50378920D01*
X186302860Y-50542781D01*
X186302863Y-50542785D01*
X186442214Y-50682136D01*
X186442218Y-50682139D01*
X186606079Y-50791628D01*
X186606092Y-50791635D01*
X186788160Y-50867049D01*
X186788165Y-50867051D01*
X186788169Y-50867051D01*
X186788170Y-50867052D01*
X186981456Y-50905500D01*
X186981459Y-50905500D01*
X187178543Y-50905500D01*
X187308582Y-50879632D01*
X187371835Y-50867051D01*
X187553914Y-50791632D01*
X187717782Y-50682139D01*
X187857139Y-50542782D01*
X187966632Y-50378914D01*
X188042051Y-50196835D01*
X188058357Y-50114862D01*
X188080500Y-50003543D01*
X188080500Y-49428597D01*
X188100185Y-49361558D01*
X188152989Y-49315803D01*
X188222147Y-49305859D01*
X188266495Y-49321208D01*
X188307164Y-49344688D01*
X188440817Y-49380500D01*
X188440819Y-49380500D01*
X188579181Y-49380500D01*
X188579183Y-49380500D01*
X188712836Y-49344688D01*
X188832665Y-49275505D01*
X188930505Y-49177665D01*
X188999688Y-49057836D01*
X189035500Y-48924183D01*
X189035500Y-48785817D01*
X193764500Y-48785817D01*
X193764500Y-48924183D01*
X193768230Y-48938101D01*
X193800312Y-49057835D01*
X193800313Y-49057838D01*
X193869492Y-49177661D01*
X193869494Y-49177664D01*
X193869495Y-49177665D01*
X193967335Y-49275505D01*
X193967336Y-49275506D01*
X193967338Y-49275507D01*
X194019910Y-49305859D01*
X194087164Y-49344688D01*
X194220817Y-49380500D01*
X194220819Y-49380500D01*
X194359181Y-49380500D01*
X194359183Y-49380500D01*
X194492836Y-49344688D01*
X194533502Y-49321209D01*
X194601399Y-49304737D01*
X194667426Y-49327589D01*
X194710617Y-49382510D01*
X194719500Y-49428597D01*
X194719500Y-50003541D01*
X194719500Y-50003543D01*
X194719499Y-50003543D01*
X194757947Y-50196829D01*
X194757950Y-50196839D01*
X194833364Y-50378907D01*
X194833371Y-50378920D01*
X194942860Y-50542781D01*
X194942863Y-50542785D01*
X195082214Y-50682136D01*
X195082218Y-50682139D01*
X195246079Y-50791628D01*
X195246092Y-50791635D01*
X195428160Y-50867049D01*
X195428165Y-50867051D01*
X195428169Y-50867051D01*
X195428170Y-50867052D01*
X195621456Y-50905500D01*
X195621459Y-50905500D01*
X195818543Y-50905500D01*
X195948582Y-50879632D01*
X196011835Y-50867051D01*
X196193914Y-50791632D01*
X196357782Y-50682139D01*
X196497139Y-50542782D01*
X196606632Y-50378914D01*
X196682051Y-50196835D01*
X196698357Y-50114862D01*
X196720500Y-50003543D01*
X196720500Y-48706456D01*
X196682052Y-48513170D01*
X196682051Y-48513169D01*
X196682051Y-48513165D01*
X196656682Y-48451918D01*
X196606635Y-48331092D01*
X196606628Y-48331079D01*
X196497139Y-48167218D01*
X196497136Y-48167214D01*
X196357785Y-48027863D01*
X196357781Y-48027860D01*
X196193920Y-47918371D01*
X196193907Y-47918364D01*
X196011839Y-47842950D01*
X196011829Y-47842947D01*
X195818543Y-47804500D01*
X195818541Y-47804500D01*
X195621459Y-47804500D01*
X195621457Y-47804500D01*
X195428170Y-47842947D01*
X195428160Y-47842950D01*
X195246092Y-47918364D01*
X195246079Y-47918371D01*
X195082218Y-48027860D01*
X195082214Y-48027863D01*
X194942863Y-48167214D01*
X194942860Y-48167218D01*
X194833371Y-48331079D01*
X194833368Y-48331086D01*
X194809455Y-48388816D01*
X194765613Y-48443219D01*
X194699319Y-48465283D01*
X194631620Y-48448003D01*
X194619665Y-48438716D01*
X194619110Y-48439441D01*
X194612661Y-48434492D01*
X194492838Y-48365313D01*
X194492837Y-48365312D01*
X194492836Y-48365312D01*
X194359183Y-48329500D01*
X194220817Y-48329500D01*
X194087164Y-48365312D01*
X194087161Y-48365313D01*
X193967338Y-48434492D01*
X193967333Y-48434496D01*
X193869496Y-48532333D01*
X193869492Y-48532338D01*
X193800313Y-48652161D01*
X193800312Y-48652164D01*
X193764500Y-48785817D01*
X189035500Y-48785817D01*
X188999688Y-48652164D01*
X188960378Y-48584076D01*
X188930507Y-48532338D01*
X188930503Y-48532333D01*
X188832666Y-48434496D01*
X188832661Y-48434492D01*
X188712838Y-48365313D01*
X188712837Y-48365312D01*
X188712836Y-48365312D01*
X188579183Y-48329500D01*
X188440817Y-48329500D01*
X188307164Y-48365312D01*
X188307161Y-48365313D01*
X188187338Y-48434492D01*
X188180890Y-48439441D01*
X188178799Y-48436717D01*
X188131258Y-48462573D01*
X188061575Y-48457470D01*
X188005712Y-48415504D01*
X187990544Y-48388814D01*
X187966635Y-48331092D01*
X187966628Y-48331079D01*
X187857139Y-48167218D01*
X187857136Y-48167214D01*
X187717785Y-48027863D01*
X187717781Y-48027860D01*
X187553920Y-47918371D01*
X187553907Y-47918364D01*
X187371839Y-47842950D01*
X187371829Y-47842947D01*
X187178543Y-47804500D01*
X187178541Y-47804500D01*
X186981459Y-47804500D01*
X186981457Y-47804500D01*
X186788170Y-47842947D01*
X186788160Y-47842950D01*
X186606092Y-47918364D01*
X186606079Y-47918371D01*
X186442218Y-48027860D01*
X186442214Y-48027863D01*
X186302863Y-48167214D01*
X186302860Y-48167218D01*
X186193371Y-48331079D01*
X186193364Y-48331092D01*
X186117950Y-48513160D01*
X186117947Y-48513170D01*
X186079500Y-48706456D01*
X186079500Y-48706459D01*
X186079500Y-50003541D01*
X186079500Y-50003543D01*
X186079499Y-50003543D01*
X180983371Y-50003543D01*
X181198164Y-49938386D01*
X181534076Y-49799247D01*
X181854732Y-49627853D01*
X182157044Y-49425854D01*
X182438101Y-49195197D01*
X182695197Y-48938101D01*
X182925854Y-48657044D01*
X182929631Y-48651391D01*
X182942938Y-48631477D01*
X182942938Y-48631476D01*
X182994428Y-48554416D01*
X183127853Y-48354732D01*
X183299247Y-48034076D01*
X183438386Y-47698164D01*
X183543930Y-47350233D01*
X183543932Y-47350223D01*
X183543935Y-47350212D01*
X183614862Y-46993630D01*
X183632140Y-46818209D01*
X211099500Y-46818209D01*
X211099500Y-47181790D01*
X211135137Y-47543630D01*
X211206064Y-47900212D01*
X211206067Y-47900223D01*
X211311614Y-48248165D01*
X211401941Y-48466233D01*
X211438467Y-48554416D01*
X211450754Y-48584078D01*
X211450756Y-48584083D01*
X211622140Y-48904720D01*
X211622151Y-48904738D01*
X211824140Y-49207035D01*
X211824150Y-49207049D01*
X212054807Y-49488106D01*
X212311893Y-49745192D01*
X212311898Y-49745196D01*
X212311899Y-49745197D01*
X212592956Y-49975854D01*
X212895268Y-50177853D01*
X212895277Y-50177858D01*
X212895279Y-50177859D01*
X213215916Y-50349243D01*
X213215918Y-50349243D01*
X213215924Y-50349247D01*
X213551836Y-50488386D01*
X213899767Y-50593930D01*
X213899773Y-50593931D01*
X213899776Y-50593932D01*
X213899787Y-50593935D01*
X214256369Y-50664862D01*
X214618206Y-50700500D01*
X214618209Y-50700500D01*
X214981791Y-50700500D01*
X214981794Y-50700500D01*
X215343631Y-50664862D01*
X215413045Y-50651054D01*
X215700212Y-50593935D01*
X215700223Y-50593932D01*
X215700223Y-50593931D01*
X215700233Y-50593930D01*
X216048164Y-50488386D01*
X216384076Y-50349247D01*
X216704732Y-50177853D01*
X217007044Y-49975854D01*
X217288101Y-49745197D01*
X217545197Y-49488101D01*
X217775854Y-49207044D01*
X217977853Y-48904732D01*
X218149247Y-48584076D01*
X218288386Y-48248164D01*
X218393930Y-47900233D01*
X218393932Y-47900223D01*
X218393935Y-47900212D01*
X218464862Y-47543630D01*
X218500500Y-47181794D01*
X218500500Y-46818206D01*
X218464862Y-46456369D01*
X218427435Y-46268209D01*
X218393935Y-46099787D01*
X218393932Y-46099776D01*
X218393931Y-46099773D01*
X218393930Y-46099767D01*
X218288386Y-45751836D01*
X218149247Y-45415924D01*
X217977853Y-45095268D01*
X217775854Y-44792956D01*
X217545197Y-44511899D01*
X217545196Y-44511898D01*
X217545192Y-44511893D01*
X217288106Y-44254807D01*
X217007049Y-44024150D01*
X217007048Y-44024149D01*
X217007044Y-44024146D01*
X216704732Y-43822147D01*
X216704727Y-43822144D01*
X216704720Y-43822140D01*
X216384083Y-43650756D01*
X216384078Y-43650754D01*
X216048165Y-43511614D01*
X215700223Y-43406067D01*
X215700212Y-43406064D01*
X215343630Y-43335137D01*
X215071111Y-43308296D01*
X214981794Y-43299500D01*
X214618206Y-43299500D01*
X214535679Y-43307628D01*
X214256369Y-43335137D01*
X213899787Y-43406064D01*
X213899776Y-43406067D01*
X213551834Y-43511614D01*
X213215921Y-43650754D01*
X213215916Y-43650756D01*
X212895279Y-43822140D01*
X212895261Y-43822151D01*
X212592964Y-44024140D01*
X212592950Y-44024150D01*
X212311893Y-44254807D01*
X212054807Y-44511893D01*
X211824150Y-44792950D01*
X211824140Y-44792964D01*
X211622151Y-45095261D01*
X211622140Y-45095279D01*
X211450756Y-45415916D01*
X211450754Y-45415921D01*
X211311614Y-45751834D01*
X211206067Y-46099776D01*
X211206064Y-46099787D01*
X211135137Y-46456369D01*
X211099500Y-46818209D01*
X183632140Y-46818209D01*
X183633637Y-46803008D01*
X183650500Y-46631790D01*
X183650500Y-46268209D01*
X183628901Y-46048914D01*
X183614862Y-45906369D01*
X183584124Y-45751836D01*
X183568551Y-45673543D01*
X186079499Y-45673543D01*
X186117947Y-45866829D01*
X186117950Y-45866839D01*
X186193364Y-46048907D01*
X186193371Y-46048920D01*
X186302860Y-46212781D01*
X186302863Y-46212785D01*
X186442214Y-46352136D01*
X186442218Y-46352139D01*
X186606079Y-46461628D01*
X186606092Y-46461635D01*
X186788160Y-46537049D01*
X186788165Y-46537051D01*
X186788169Y-46537051D01*
X186788170Y-46537052D01*
X186981456Y-46575500D01*
X186981459Y-46575500D01*
X187178543Y-46575500D01*
X187308582Y-46549632D01*
X187371835Y-46537051D01*
X187553914Y-46461632D01*
X187717782Y-46352139D01*
X187857139Y-46212782D01*
X187966632Y-46048914D01*
X188042051Y-45866835D01*
X188064926Y-45751836D01*
X188080500Y-45673543D01*
X194719499Y-45673543D01*
X194757947Y-45866829D01*
X194757950Y-45866839D01*
X194833364Y-46048907D01*
X194833371Y-46048920D01*
X194942860Y-46212781D01*
X194942863Y-46212785D01*
X195082214Y-46352136D01*
X195082218Y-46352139D01*
X195246079Y-46461628D01*
X195246092Y-46461635D01*
X195428160Y-46537049D01*
X195428165Y-46537051D01*
X195428169Y-46537051D01*
X195428170Y-46537052D01*
X195621456Y-46575500D01*
X195621459Y-46575500D01*
X195818543Y-46575500D01*
X195948582Y-46549632D01*
X196011835Y-46537051D01*
X196193914Y-46461632D01*
X196357782Y-46352139D01*
X196497139Y-46212782D01*
X196606632Y-46048914D01*
X196682051Y-45866835D01*
X196704926Y-45751836D01*
X196720500Y-45673543D01*
X196720500Y-44676456D01*
X196682052Y-44483170D01*
X196682051Y-44483169D01*
X196682051Y-44483165D01*
X196682049Y-44483160D01*
X196606635Y-44301092D01*
X196606628Y-44301079D01*
X196497139Y-44137218D01*
X196497136Y-44137214D01*
X196357785Y-43997863D01*
X196357781Y-43997860D01*
X196193920Y-43888371D01*
X196193907Y-43888364D01*
X196011839Y-43812950D01*
X196011829Y-43812947D01*
X195818543Y-43774500D01*
X195818541Y-43774500D01*
X195621459Y-43774500D01*
X195621457Y-43774500D01*
X195428170Y-43812947D01*
X195428160Y-43812950D01*
X195246092Y-43888364D01*
X195246079Y-43888371D01*
X195082218Y-43997860D01*
X195082214Y-43997863D01*
X194942863Y-44137214D01*
X194942860Y-44137218D01*
X194833371Y-44301079D01*
X194833364Y-44301092D01*
X194757950Y-44483160D01*
X194757947Y-44483170D01*
X194719500Y-44676456D01*
X194719500Y-44676459D01*
X194719500Y-45673541D01*
X194719500Y-45673543D01*
X194719499Y-45673543D01*
X188080500Y-45673543D01*
X188080500Y-44676456D01*
X188042052Y-44483170D01*
X188042051Y-44483169D01*
X188042051Y-44483165D01*
X188042049Y-44483160D01*
X187966635Y-44301092D01*
X187966628Y-44301079D01*
X187857139Y-44137218D01*
X187857136Y-44137214D01*
X187717785Y-43997863D01*
X187717781Y-43997860D01*
X187553920Y-43888371D01*
X187553907Y-43888364D01*
X187371839Y-43812950D01*
X187371829Y-43812947D01*
X187178543Y-43774500D01*
X187178541Y-43774500D01*
X186981459Y-43774500D01*
X186981457Y-43774500D01*
X186788170Y-43812947D01*
X186788160Y-43812950D01*
X186606092Y-43888364D01*
X186606079Y-43888371D01*
X186442218Y-43997860D01*
X186442214Y-43997863D01*
X186302863Y-44137214D01*
X186302860Y-44137218D01*
X186193371Y-44301079D01*
X186193364Y-44301092D01*
X186117950Y-44483160D01*
X186117947Y-44483170D01*
X186079500Y-44676456D01*
X186079500Y-44676459D01*
X186079500Y-45673541D01*
X186079500Y-45673543D01*
X186079499Y-45673543D01*
X183568551Y-45673543D01*
X183543935Y-45549787D01*
X183543932Y-45549776D01*
X183543931Y-45549773D01*
X183543930Y-45549767D01*
X183438386Y-45201836D01*
X183299247Y-44865924D01*
X183299243Y-44865916D01*
X183225964Y-44728820D01*
X183127859Y-44545279D01*
X183127858Y-44545277D01*
X183127853Y-44545268D01*
X182925854Y-44242956D01*
X182695197Y-43961899D01*
X182695196Y-43961898D01*
X182695192Y-43961893D01*
X182438106Y-43704807D01*
X182157049Y-43474150D01*
X182157048Y-43474149D01*
X182157044Y-43474146D01*
X181854732Y-43272147D01*
X181837519Y-43262946D01*
X181787676Y-43213986D01*
X181772215Y-43145848D01*
X181796046Y-43080168D01*
X181851604Y-43037799D01*
X181895973Y-43029589D01*
X218775898Y-43029589D01*
X218842937Y-43049274D01*
G37*
%TD.AperFunction*%
%TD*%
M02*
