%TF.GenerationSoftware,KiCad,Pcbnew,10.0.1*%
%TF.CreationDate,2026-06-24T16:32:23+01:00*%
%TF.ProjectId,ESP32_IoT_Board_Design,45535033-325f-4496-9f54-5f426f617264,rev?*%
%TF.SameCoordinates,Original*%
%TF.FileFunction,Copper,L2,Inr*%
%TF.FilePolarity,Positive*%
%FSLAX46Y46*%
G04 Gerber Fmt 4.6, Leading zero omitted, Abs format (unit mm)*
G04 Created by KiCad (PCBNEW 10.0.1) date 2026-06-24 16:32:23*
%MOMM*%
%LPD*%
G01*
G04 APERTURE LIST*
%TA.AperFunction,HeatsinkPad*%
%ADD10C,0.600000*%
%TD*%
%TA.AperFunction,ComponentPad*%
%ADD11C,6.400000*%
%TD*%
%TA.AperFunction,ComponentPad*%
%ADD12C,0.600000*%
%TD*%
%TA.AperFunction,ComponentPad*%
%ADD13R,1.700000X1.700000*%
%TD*%
%TA.AperFunction,ComponentPad*%
%ADD14C,1.700000*%
%TD*%
%TA.AperFunction,ComponentPad*%
%ADD15O,1.000000X2.100000*%
%TD*%
%TA.AperFunction,ComponentPad*%
%ADD16O,1.000000X1.800000*%
%TD*%
%TA.AperFunction,ViaPad*%
%ADD17C,0.700000*%
%TD*%
%TA.AperFunction,ViaPad*%
%ADD18C,0.600000*%
%TD*%
%TA.AperFunction,Conductor*%
%ADD19C,0.200000*%
%TD*%
G04 APERTURE END LIST*
D10*
%TO.N,GND*%
%TO.C,U1*%
X189025000Y-74695000D03*
X187500000Y-74695000D03*
X189787500Y-75457500D03*
X188262500Y-75457500D03*
X186737500Y-75457500D03*
X189025000Y-76220000D03*
X187500000Y-76220000D03*
X189787500Y-76982500D03*
X188262500Y-76982500D03*
X186737500Y-76982500D03*
X189025000Y-77745000D03*
X187500000Y-77745000D03*
%TD*%
D11*
%TO.N,N/C*%
%TO.C,REF\u002A\u002A*%
X214700000Y-48000000D03*
%TD*%
D12*
%TO.N,GND*%
%TO.C,U4*%
X168100000Y-66300000D03*
X167650000Y-66750000D03*
X167650000Y-66300000D03*
X167650000Y-65850000D03*
X167200000Y-66300000D03*
%TD*%
D13*
%TO.N,3V3*%
%TO.C,J3*%
X165400000Y-99540000D03*
D14*
%TO.N,GND*%
X165400000Y-97000000D03*
%TO.N,MOSI*%
X165400000Y-94460000D03*
%TO.N,MISO*%
X165400000Y-91920000D03*
%TO.N,SCLK*%
X165400000Y-89380000D03*
%TO.N,CS*%
X165400000Y-86840000D03*
%TD*%
D13*
%TO.N,3V3*%
%TO.C,J2*%
X176180000Y-99320000D03*
D14*
%TO.N,GND*%
X176180000Y-96780000D03*
%TO.N,SDA*%
X176180000Y-94240000D03*
%TO.N,SCL*%
X176180000Y-91700000D03*
%TD*%
D11*
%TO.N,N/C*%
%TO.C,REF\u002A\u002A*%
X155400000Y-97800000D03*
%TD*%
D13*
%TO.N,3V3*%
%TO.C,J4*%
X171000000Y-99240000D03*
D14*
%TO.N,GND*%
X171000000Y-96700000D03*
%TO.N,TXD2*%
X171000000Y-94160000D03*
%TO.N,RXD2*%
X171000000Y-91620000D03*
%TD*%
D11*
%TO.N,N/C*%
%TO.C,REF\u002A\u002A*%
X156700000Y-47900000D03*
%TD*%
D15*
%TO.N,Net-(J1-SHIELD)*%
%TO.C,J1*%
X182920000Y-49315000D03*
D16*
X182920000Y-45135000D03*
D15*
X174280000Y-49315000D03*
D16*
X174280000Y-45135000D03*
%TD*%
D17*
%TO.N,GND*%
X183857771Y-52215542D03*
X174850000Y-51500000D03*
X171200000Y-67200000D03*
X164700000Y-65550000D03*
X165650000Y-59050000D03*
X174365686Y-63265686D03*
X175750000Y-70950000D03*
X168900000Y-79250000D03*
X168100000Y-96600000D03*
X173600000Y-96900000D03*
X178600000Y-95400000D03*
X190950000Y-101050000D03*
X210650000Y-44400000D03*
X203550000Y-45450000D03*
X196150000Y-45650000D03*
X192700000Y-55750000D03*
X172150000Y-51600000D03*
X170300000Y-44100000D03*
X164450000Y-49150000D03*
D18*
%TO.N,IO0*%
X182450000Y-82900000D03*
X203950000Y-48150000D03*
%TO.N,EN*%
X190750000Y-69400002D03*
X176250000Y-77950000D03*
%TO.N,GPIO.02*%
X176400000Y-84350000D03*
X186150000Y-92100000D03*
%TO.N,RX0*%
X188959313Y-83607843D03*
X176250735Y-77100735D03*
%TO.N,TX0*%
X190400000Y-84200000D03*
X176250000Y-76300000D03*
%TO.N,USB_N*%
X171050000Y-65450000D03*
X173450000Y-67250000D03*
%TO.N,5V_USB*%
X170250000Y-71800000D03*
X170250000Y-64300000D03*
%TO.N,CS*%
X183250000Y-83650000D03*
X169250000Y-85500000D03*
%TO.N,SCLK*%
X184250000Y-87250000D03*
X176250000Y-86250000D03*
%TO.N,MISO*%
X184250000Y-84250000D03*
X178246804Y-86990255D03*
%TO.N,MOSI*%
X194000000Y-87000000D03*
X178496078Y-87750430D03*
%TO.N,RXD2*%
X181500000Y-87250000D03*
X178530686Y-88649314D03*
%TO.N,SCL*%
X184400000Y-90450000D03*
X182401471Y-90401471D03*
%TO.N,3V3*%
X192250000Y-91250000D03*
%TO.N,PG*%
X185000000Y-96750000D03*
X188750000Y-48000000D03*
%TO.N,/CC1*%
X192750000Y-46250000D03*
X186684314Y-47184314D03*
%TO.N,3V3*%
X161000000Y-63250000D03*
X166500000Y-53500000D03*
X172250000Y-76000000D03*
X180000000Y-91250000D03*
X159250000Y-61750000D03*
X169000000Y-76000000D03*
X183250000Y-91250000D03*
X193450000Y-66650000D03*
%TO.N,5V_USB*%
X165750000Y-51500000D03*
X177050000Y-56500000D03*
X175250000Y-57750000D03*
X167500000Y-59500000D03*
X180750000Y-55500000D03*
%TO.N,VBUS*%
X181250000Y-51500000D03*
X176250000Y-51250000D03*
X173000000Y-63500000D03*
X163000000Y-59000000D03*
X188750000Y-46250000D03*
X186750000Y-48250000D03*
%TD*%
%TO.N,IO0*%
D19*
X196550000Y-73100000D02*
X186750000Y-82900000D01*
X186750000Y-82900000D02*
X182450000Y-82900000D01*
X196550000Y-52450000D02*
X196550000Y-73100000D01*
X200850000Y-48150000D02*
X196550000Y-52450000D01*
X203950000Y-48150000D02*
X200850000Y-48150000D01*
%TO.N,EN*%
X184799998Y-69400002D02*
X176250000Y-77950000D01*
X190750000Y-69400002D02*
X184799998Y-69400002D01*
%TO.N,GPIO.02*%
X184948529Y-92100000D02*
X186150000Y-92100000D01*
X176600000Y-84550000D02*
X177398529Y-84550000D01*
X177398529Y-84550000D02*
X184948529Y-92100000D01*
X176400000Y-84350000D02*
X176600000Y-84550000D01*
%TO.N,CS*%
X183150000Y-83750000D02*
X183250000Y-83650000D01*
X171000000Y-83750000D02*
X183150000Y-83750000D01*
X169250000Y-85500000D02*
X171000000Y-83750000D01*
%TD*%
%TA.AperFunction,Conductor*%
%TO.N,GND*%
G36*
X218842937Y-43049274D02*
G01*
X218888692Y-43102078D01*
X218899898Y-43153589D01*
X218899898Y-102275499D01*
X218880213Y-102342538D01*
X218827409Y-102388293D01*
X218775898Y-102399499D01*
X149924500Y-102399499D01*
X149857461Y-102379814D01*
X149811706Y-102327010D01*
X149800500Y-102275499D01*
X149800500Y-97618206D01*
X151699500Y-97618206D01*
X151699500Y-97981794D01*
X151704490Y-98032454D01*
X151735137Y-98343630D01*
X151806064Y-98700212D01*
X151806067Y-98700223D01*
X151911614Y-99048165D01*
X152050754Y-99384078D01*
X152050756Y-99384083D01*
X152222140Y-99704720D01*
X152222151Y-99704738D01*
X152424140Y-100007035D01*
X152424150Y-100007049D01*
X152654807Y-100288106D01*
X152911893Y-100545192D01*
X152911898Y-100545196D01*
X152911899Y-100545197D01*
X153192956Y-100775854D01*
X153495268Y-100977853D01*
X153495277Y-100977858D01*
X153495279Y-100977859D01*
X153815916Y-101149243D01*
X153815918Y-101149243D01*
X153815924Y-101149247D01*
X154151836Y-101288386D01*
X154499767Y-101393930D01*
X154499773Y-101393931D01*
X154499776Y-101393932D01*
X154499787Y-101393935D01*
X154856369Y-101464862D01*
X155218206Y-101500500D01*
X155218209Y-101500500D01*
X155581791Y-101500500D01*
X155581794Y-101500500D01*
X155943631Y-101464862D01*
X156013045Y-101451054D01*
X156300212Y-101393935D01*
X156300223Y-101393932D01*
X156300223Y-101393931D01*
X156300233Y-101393930D01*
X156648164Y-101288386D01*
X156984076Y-101149247D01*
X157304732Y-100977853D01*
X157607044Y-100775854D01*
X157888101Y-100545197D01*
X158145197Y-100288101D01*
X158375854Y-100007044D01*
X158577853Y-99704732D01*
X158749247Y-99384076D01*
X158888386Y-99048164D01*
X158993930Y-98700233D01*
X158993932Y-98700223D01*
X158993935Y-98700212D01*
X159010961Y-98614615D01*
X159061105Y-98362517D01*
X159064862Y-98343631D01*
X159100500Y-97981794D01*
X159100500Y-97618206D01*
X159064862Y-97256369D01*
X159017076Y-97016130D01*
X158996577Y-96913072D01*
X158996576Y-96913069D01*
X158993932Y-96899778D01*
X158993932Y-96899776D01*
X158993931Y-96899773D01*
X158993930Y-96899767D01*
X158888386Y-96551836D01*
X158749247Y-96215924D01*
X158740735Y-96200000D01*
X158577859Y-95895279D01*
X158577858Y-95895277D01*
X158577853Y-95895268D01*
X158375854Y-95592956D01*
X158145197Y-95311899D01*
X158145196Y-95311898D01*
X158145192Y-95311893D01*
X157888106Y-95054807D01*
X157607049Y-94824150D01*
X157607048Y-94824149D01*
X157607044Y-94824146D01*
X157304732Y-94622147D01*
X157304727Y-94622144D01*
X157304720Y-94622140D01*
X156984083Y-94450756D01*
X156984078Y-94450754D01*
X156648165Y-94311614D01*
X156300223Y-94206067D01*
X156300212Y-94206064D01*
X155943630Y-94135137D01*
X155671111Y-94108296D01*
X155581794Y-94099500D01*
X155218206Y-94099500D01*
X155135679Y-94107628D01*
X154856369Y-94135137D01*
X154499787Y-94206064D01*
X154499776Y-94206067D01*
X154151834Y-94311614D01*
X153815921Y-94450754D01*
X153815916Y-94450756D01*
X153495279Y-94622140D01*
X153495261Y-94622151D01*
X153192964Y-94824140D01*
X153192950Y-94824150D01*
X152911893Y-95054807D01*
X152654807Y-95311893D01*
X152424150Y-95592950D01*
X152424140Y-95592964D01*
X152222151Y-95895261D01*
X152222140Y-95895279D01*
X152050756Y-96215916D01*
X152050754Y-96215921D01*
X151911614Y-96551834D01*
X151806067Y-96899776D01*
X151806064Y-96899787D01*
X151735137Y-97256369D01*
X151712368Y-97487554D01*
X151699500Y-97618206D01*
X149800500Y-97618206D01*
X149800500Y-86733713D01*
X164049500Y-86733713D01*
X164049500Y-86946287D01*
X164052071Y-86962517D01*
X164082225Y-87152907D01*
X164082754Y-87156243D01*
X164138836Y-87328846D01*
X164148444Y-87358414D01*
X164244951Y-87547820D01*
X164369890Y-87719786D01*
X164520213Y-87870109D01*
X164692182Y-87995050D01*
X164700946Y-87999516D01*
X164751742Y-88047491D01*
X164768536Y-88115312D01*
X164745998Y-88181447D01*
X164700946Y-88220484D01*
X164692182Y-88224949D01*
X164520213Y-88349890D01*
X164369890Y-88500213D01*
X164244951Y-88672179D01*
X164148444Y-88861585D01*
X164082753Y-89063760D01*
X164049500Y-89273713D01*
X164049500Y-89486286D01*
X164080222Y-89680261D01*
X164082754Y-89696243D01*
X164143702Y-89883822D01*
X164148444Y-89898414D01*
X164244951Y-90087820D01*
X164369890Y-90259786D01*
X164520213Y-90410109D01*
X164692182Y-90535050D01*
X164700946Y-90539516D01*
X164751742Y-90587491D01*
X164768536Y-90655312D01*
X164745998Y-90721447D01*
X164700946Y-90760484D01*
X164692182Y-90764949D01*
X164520213Y-90889890D01*
X164369890Y-91040213D01*
X164244951Y-91212179D01*
X164148444Y-91401585D01*
X164082753Y-91603760D01*
X164049500Y-91813713D01*
X164049500Y-92026286D01*
X164073662Y-92178842D01*
X164082754Y-92236243D01*
X164114355Y-92333501D01*
X164148444Y-92438414D01*
X164244951Y-92627820D01*
X164369890Y-92799786D01*
X164520213Y-92950109D01*
X164692182Y-93075050D01*
X164700946Y-93079516D01*
X164751742Y-93127491D01*
X164768536Y-93195312D01*
X164745998Y-93261447D01*
X164700946Y-93300484D01*
X164692182Y-93304949D01*
X164520213Y-93429890D01*
X164369890Y-93580213D01*
X164244951Y-93752179D01*
X164148444Y-93941585D01*
X164082753Y-94143760D01*
X164063347Y-94266286D01*
X164049500Y-94353713D01*
X164049500Y-94566287D01*
X164082754Y-94776243D01*
X164112509Y-94867820D01*
X164148444Y-94978414D01*
X164244951Y-95167820D01*
X164369890Y-95339786D01*
X164520213Y-95490109D01*
X164692179Y-95615048D01*
X164692181Y-95615049D01*
X164692184Y-95615051D01*
X164701493Y-95619794D01*
X164752290Y-95667766D01*
X164769087Y-95735587D01*
X164746552Y-95801722D01*
X164701505Y-95840760D01*
X164692446Y-95845376D01*
X164692440Y-95845380D01*
X164638282Y-95884727D01*
X164638282Y-95884728D01*
X165270591Y-96517037D01*
X165207007Y-96534075D01*
X165092993Y-96599901D01*
X164999901Y-96692993D01*
X164934075Y-96807007D01*
X164917037Y-96870591D01*
X164284728Y-96238282D01*
X164284727Y-96238282D01*
X164245380Y-96292439D01*
X164148904Y-96481782D01*
X164083242Y-96683869D01*
X164083242Y-96683872D01*
X164050000Y-96893753D01*
X164050000Y-97106246D01*
X164083242Y-97316127D01*
X164083242Y-97316130D01*
X164148904Y-97518217D01*
X164245375Y-97707550D01*
X164284728Y-97761716D01*
X164917037Y-97129408D01*
X164934075Y-97192993D01*
X164999901Y-97307007D01*
X165092993Y-97400099D01*
X165207007Y-97465925D01*
X165270590Y-97482962D01*
X164600370Y-98153181D01*
X164539047Y-98186666D01*
X164512698Y-98189500D01*
X164502134Y-98189500D01*
X164502123Y-98189501D01*
X164442516Y-98195908D01*
X164307671Y-98246202D01*
X164307664Y-98246206D01*
X164192455Y-98332452D01*
X164192452Y-98332455D01*
X164106206Y-98447664D01*
X164106202Y-98447671D01*
X164055908Y-98582517D01*
X164049501Y-98642116D01*
X164049501Y-98642123D01*
X164049500Y-98642135D01*
X164049500Y-100437870D01*
X164049501Y-100437876D01*
X164055908Y-100497483D01*
X164106202Y-100632328D01*
X164106206Y-100632335D01*
X164192452Y-100747544D01*
X164192455Y-100747547D01*
X164307664Y-100833793D01*
X164307671Y-100833797D01*
X164442517Y-100884091D01*
X164442516Y-100884091D01*
X164449444Y-100884835D01*
X164502127Y-100890500D01*
X166297872Y-100890499D01*
X166357483Y-100884091D01*
X166492331Y-100833796D01*
X166607546Y-100747546D01*
X166693796Y-100632331D01*
X166744091Y-100497483D01*
X166750500Y-100437873D01*
X166750499Y-98642128D01*
X166744091Y-98582517D01*
X166693796Y-98447669D01*
X166630050Y-98362516D01*
X166607547Y-98332455D01*
X166607544Y-98332452D01*
X166492335Y-98246206D01*
X166492328Y-98246202D01*
X166357482Y-98195908D01*
X166357483Y-98195908D01*
X166297883Y-98189501D01*
X166297881Y-98189500D01*
X166297873Y-98189500D01*
X166297865Y-98189500D01*
X166287309Y-98189500D01*
X166220270Y-98169815D01*
X166199628Y-98153181D01*
X165529408Y-97482962D01*
X165592993Y-97465925D01*
X165707007Y-97400099D01*
X165800099Y-97307007D01*
X165865925Y-97192993D01*
X165882962Y-97129408D01*
X166515270Y-97761717D01*
X166515270Y-97761716D01*
X166554622Y-97707554D01*
X166651095Y-97518217D01*
X166716757Y-97316130D01*
X166716757Y-97316127D01*
X166750000Y-97106246D01*
X166750000Y-96893753D01*
X166716757Y-96683872D01*
X166716757Y-96683869D01*
X166698344Y-96627199D01*
X166651095Y-96481782D01*
X166554624Y-96292449D01*
X166515270Y-96238282D01*
X166515269Y-96238282D01*
X165882962Y-96870590D01*
X165865925Y-96807007D01*
X165800099Y-96692993D01*
X165707007Y-96599901D01*
X165592993Y-96534075D01*
X165529409Y-96517037D01*
X166161716Y-95884728D01*
X166107547Y-95845373D01*
X166107547Y-95845372D01*
X166098500Y-95840763D01*
X166047706Y-95792788D01*
X166030912Y-95724966D01*
X166053451Y-95658832D01*
X166098508Y-95619793D01*
X166107816Y-95615051D01*
X166203722Y-95545372D01*
X166279786Y-95490109D01*
X166279788Y-95490106D01*
X166279792Y-95490104D01*
X166430104Y-95339792D01*
X166430106Y-95339788D01*
X166430109Y-95339786D01*
X166555048Y-95167820D01*
X166555047Y-95167820D01*
X166555051Y-95167816D01*
X166651557Y-94978412D01*
X166717246Y-94776243D01*
X166750500Y-94566287D01*
X166750500Y-94353713D01*
X166717246Y-94143757D01*
X166651557Y-93941588D01*
X166555051Y-93752184D01*
X166555049Y-93752181D01*
X166555048Y-93752179D01*
X166430109Y-93580213D01*
X166279786Y-93429890D01*
X166107820Y-93304951D01*
X166107115Y-93304591D01*
X166099054Y-93300485D01*
X166048259Y-93252512D01*
X166031463Y-93184692D01*
X166053999Y-93118556D01*
X166099054Y-93079515D01*
X166107816Y-93075051D01*
X166154068Y-93041447D01*
X166279786Y-92950109D01*
X166279788Y-92950106D01*
X166279792Y-92950104D01*
X166430104Y-92799792D01*
X166430106Y-92799788D01*
X166430109Y-92799786D01*
X166555048Y-92627820D01*
X166555047Y-92627820D01*
X166555051Y-92627816D01*
X166651557Y-92438412D01*
X166717246Y-92236243D01*
X166750500Y-92026287D01*
X166750500Y-91813713D01*
X166717246Y-91603757D01*
X166687989Y-91513713D01*
X169649500Y-91513713D01*
X169649500Y-91726286D01*
X169676913Y-91899369D01*
X169682754Y-91936243D01*
X169719878Y-92050499D01*
X169748444Y-92138414D01*
X169844951Y-92327820D01*
X169969890Y-92499786D01*
X170120213Y-92650109D01*
X170292182Y-92775050D01*
X170300946Y-92779516D01*
X170351742Y-92827491D01*
X170368536Y-92895312D01*
X170345998Y-92961447D01*
X170300946Y-93000484D01*
X170292182Y-93004949D01*
X170120213Y-93129890D01*
X169969890Y-93280213D01*
X169844951Y-93452179D01*
X169748444Y-93641585D01*
X169682753Y-93843760D01*
X169649500Y-94053713D01*
X169649500Y-94266286D01*
X169678716Y-94450753D01*
X169682754Y-94476243D01*
X169730161Y-94622147D01*
X169748444Y-94678414D01*
X169844951Y-94867820D01*
X169969890Y-95039786D01*
X170120213Y-95190109D01*
X170292179Y-95315048D01*
X170292181Y-95315049D01*
X170292184Y-95315051D01*
X170301493Y-95319794D01*
X170352290Y-95367766D01*
X170369087Y-95435587D01*
X170346552Y-95501722D01*
X170301505Y-95540760D01*
X170292446Y-95545376D01*
X170292440Y-95545380D01*
X170238282Y-95584727D01*
X170238282Y-95584728D01*
X170870591Y-96217037D01*
X170807007Y-96234075D01*
X170692993Y-96299901D01*
X170599901Y-96392993D01*
X170534075Y-96507007D01*
X170517037Y-96570591D01*
X169884728Y-95938282D01*
X169884727Y-95938282D01*
X169845380Y-95992439D01*
X169748904Y-96181782D01*
X169683242Y-96383869D01*
X169683242Y-96383872D01*
X169650000Y-96593753D01*
X169650000Y-96806246D01*
X169683242Y-97016127D01*
X169683242Y-97016130D01*
X169748904Y-97218217D01*
X169845375Y-97407550D01*
X169884728Y-97461716D01*
X170517037Y-96829408D01*
X170534075Y-96892993D01*
X170599901Y-97007007D01*
X170692993Y-97100099D01*
X170807007Y-97165925D01*
X170870590Y-97182962D01*
X170200370Y-97853181D01*
X170139047Y-97886666D01*
X170112698Y-97889500D01*
X170102134Y-97889500D01*
X170102123Y-97889501D01*
X170042516Y-97895908D01*
X169907671Y-97946202D01*
X169907664Y-97946206D01*
X169792455Y-98032452D01*
X169792452Y-98032455D01*
X169706206Y-98147664D01*
X169706202Y-98147671D01*
X169655908Y-98282517D01*
X169650540Y-98332452D01*
X169649501Y-98342123D01*
X169649500Y-98342135D01*
X169649500Y-100137870D01*
X169649501Y-100137876D01*
X169655908Y-100197483D01*
X169706202Y-100332328D01*
X169706206Y-100332335D01*
X169792452Y-100447544D01*
X169792455Y-100447547D01*
X169907664Y-100533793D01*
X169907671Y-100533797D01*
X170042517Y-100584091D01*
X170042516Y-100584091D01*
X170049444Y-100584835D01*
X170102127Y-100590500D01*
X171897872Y-100590499D01*
X171957483Y-100584091D01*
X172092331Y-100533796D01*
X172207546Y-100447546D01*
X172293796Y-100332331D01*
X172344091Y-100197483D01*
X172350500Y-100137873D01*
X172350499Y-98342128D01*
X172344091Y-98282517D01*
X172330546Y-98246202D01*
X172293797Y-98147671D01*
X172293793Y-98147664D01*
X172207547Y-98032455D01*
X172207544Y-98032452D01*
X172092335Y-97946206D01*
X172092328Y-97946202D01*
X171957482Y-97895908D01*
X171957483Y-97895908D01*
X171897883Y-97889501D01*
X171897881Y-97889500D01*
X171897873Y-97889500D01*
X171897865Y-97889500D01*
X171887309Y-97889500D01*
X171820270Y-97869815D01*
X171799628Y-97853181D01*
X171129408Y-97182962D01*
X171192993Y-97165925D01*
X171307007Y-97100099D01*
X171400099Y-97007007D01*
X171465925Y-96892993D01*
X171482962Y-96829408D01*
X172115270Y-97461717D01*
X172115270Y-97461716D01*
X172154622Y-97407554D01*
X172251095Y-97218217D01*
X172316757Y-97016130D01*
X172316757Y-97016127D01*
X172350000Y-96806246D01*
X172350000Y-96593753D01*
X172316757Y-96383872D01*
X172316757Y-96383869D01*
X172251095Y-96181782D01*
X172154624Y-95992449D01*
X172115270Y-95938282D01*
X172115269Y-95938282D01*
X171482962Y-96570590D01*
X171465925Y-96507007D01*
X171400099Y-96392993D01*
X171307007Y-96299901D01*
X171192993Y-96234075D01*
X171129409Y-96217037D01*
X171761716Y-95584728D01*
X171707547Y-95545373D01*
X171707547Y-95545372D01*
X171698500Y-95540763D01*
X171647706Y-95492788D01*
X171630912Y-95424966D01*
X171653451Y-95358832D01*
X171698508Y-95319793D01*
X171707816Y-95315051D01*
X171787007Y-95257515D01*
X171879786Y-95190109D01*
X171879788Y-95190106D01*
X171879792Y-95190104D01*
X172030104Y-95039792D01*
X172030106Y-95039788D01*
X172030109Y-95039786D01*
X172155048Y-94867820D01*
X172155047Y-94867820D01*
X172155051Y-94867816D01*
X172251557Y-94678412D01*
X172317246Y-94476243D01*
X172350500Y-94266287D01*
X172350500Y-94053713D01*
X172317246Y-93843757D01*
X172251557Y-93641588D01*
X172155051Y-93452184D01*
X172155049Y-93452181D01*
X172155048Y-93452179D01*
X172030109Y-93280213D01*
X171879786Y-93129890D01*
X171707820Y-93004951D01*
X171707115Y-93004591D01*
X171699054Y-93000485D01*
X171648259Y-92952512D01*
X171631463Y-92884692D01*
X171653999Y-92818556D01*
X171699054Y-92779515D01*
X171707816Y-92775051D01*
X171769681Y-92730104D01*
X171879786Y-92650109D01*
X171879788Y-92650106D01*
X171879792Y-92650104D01*
X172030104Y-92499792D01*
X172030106Y-92499788D01*
X172030109Y-92499786D01*
X172150921Y-92333501D01*
X172155051Y-92327816D01*
X172251557Y-92138412D01*
X172317246Y-91936243D01*
X172350500Y-91726287D01*
X172350500Y-91593713D01*
X174829500Y-91593713D01*
X174829500Y-91806287D01*
X174838494Y-91863070D01*
X174850082Y-91936239D01*
X174862754Y-92016243D01*
X174915587Y-92178846D01*
X174928444Y-92218414D01*
X175024951Y-92407820D01*
X175149890Y-92579786D01*
X175300213Y-92730109D01*
X175472182Y-92855050D01*
X175480946Y-92859516D01*
X175531742Y-92907491D01*
X175548536Y-92975312D01*
X175525998Y-93041447D01*
X175480946Y-93080484D01*
X175472182Y-93084949D01*
X175300213Y-93209890D01*
X175149890Y-93360213D01*
X175024951Y-93532179D01*
X174928444Y-93721585D01*
X174862753Y-93923760D01*
X174829500Y-94133713D01*
X174829500Y-94346286D01*
X174850082Y-94476239D01*
X174862754Y-94556243D01*
X174902449Y-94678412D01*
X174928444Y-94758414D01*
X175024951Y-94947820D01*
X175149890Y-95119786D01*
X175300213Y-95270109D01*
X175472179Y-95395048D01*
X175472181Y-95395049D01*
X175472184Y-95395051D01*
X175481493Y-95399794D01*
X175532290Y-95447766D01*
X175549087Y-95515587D01*
X175526552Y-95581722D01*
X175481505Y-95620760D01*
X175472446Y-95625376D01*
X175472440Y-95625380D01*
X175418282Y-95664727D01*
X175418282Y-95664728D01*
X176050591Y-96297037D01*
X175987007Y-96314075D01*
X175872993Y-96379901D01*
X175779901Y-96472993D01*
X175714075Y-96587007D01*
X175697037Y-96650591D01*
X175064728Y-96018282D01*
X175064727Y-96018282D01*
X175025380Y-96072439D01*
X174928904Y-96261782D01*
X174863242Y-96463869D01*
X174863242Y-96463872D01*
X174830000Y-96673753D01*
X174830000Y-96886246D01*
X174863242Y-97096127D01*
X174863242Y-97096130D01*
X174928904Y-97298217D01*
X175025375Y-97487550D01*
X175064728Y-97541716D01*
X175697037Y-96909408D01*
X175714075Y-96972993D01*
X175779901Y-97087007D01*
X175872993Y-97180099D01*
X175987007Y-97245925D01*
X176050590Y-97262962D01*
X175380370Y-97933181D01*
X175319047Y-97966666D01*
X175292698Y-97969500D01*
X175282134Y-97969500D01*
X175282123Y-97969501D01*
X175222516Y-97975908D01*
X175087671Y-98026202D01*
X175087664Y-98026206D01*
X174972455Y-98112452D01*
X174972452Y-98112455D01*
X174886206Y-98227664D01*
X174886202Y-98227671D01*
X174835908Y-98362517D01*
X174829501Y-98422116D01*
X174829501Y-98422123D01*
X174829500Y-98422135D01*
X174829500Y-100217870D01*
X174829501Y-100217876D01*
X174835908Y-100277483D01*
X174886202Y-100412328D01*
X174886206Y-100412335D01*
X174972452Y-100527544D01*
X174972455Y-100527547D01*
X175087664Y-100613793D01*
X175087671Y-100613797D01*
X175222517Y-100664091D01*
X175222516Y-100664091D01*
X175229444Y-100664835D01*
X175282127Y-100670500D01*
X177077872Y-100670499D01*
X177137483Y-100664091D01*
X177272331Y-100613796D01*
X177387546Y-100527546D01*
X177473796Y-100412331D01*
X177524091Y-100277483D01*
X177530500Y-100217873D01*
X177530499Y-98422128D01*
X177524091Y-98362517D01*
X177516486Y-98342128D01*
X177473797Y-98227671D01*
X177473793Y-98227664D01*
X177387547Y-98112455D01*
X177387544Y-98112452D01*
X177272335Y-98026206D01*
X177272328Y-98026202D01*
X177137482Y-97975908D01*
X177137483Y-97975908D01*
X177077883Y-97969501D01*
X177077881Y-97969500D01*
X177077873Y-97969500D01*
X177077865Y-97969500D01*
X177067309Y-97969500D01*
X177000270Y-97949815D01*
X176979628Y-97933181D01*
X176309408Y-97262962D01*
X176372993Y-97245925D01*
X176487007Y-97180099D01*
X176580099Y-97087007D01*
X176645925Y-96972993D01*
X176662962Y-96909408D01*
X177295270Y-97541717D01*
X177295270Y-97541716D01*
X177334622Y-97487554D01*
X177431095Y-97298217D01*
X177496757Y-97096130D01*
X177496757Y-97096127D01*
X177530000Y-96886246D01*
X177530000Y-96673757D01*
X177529999Y-96673750D01*
X177529588Y-96671153D01*
X184199500Y-96671153D01*
X184199500Y-96828846D01*
X184230261Y-96983489D01*
X184230264Y-96983501D01*
X184290602Y-97129172D01*
X184290609Y-97129185D01*
X184378210Y-97260288D01*
X184378213Y-97260292D01*
X184489707Y-97371786D01*
X184489711Y-97371789D01*
X184620814Y-97459390D01*
X184620827Y-97459397D01*
X184718853Y-97500000D01*
X184766503Y-97519737D01*
X184921153Y-97550499D01*
X184921156Y-97550500D01*
X184921158Y-97550500D01*
X185078844Y-97550500D01*
X185078845Y-97550499D01*
X185233497Y-97519737D01*
X185379179Y-97459394D01*
X185510289Y-97371789D01*
X185621789Y-97260289D01*
X185709394Y-97129179D01*
X185769737Y-96983497D01*
X185800500Y-96828842D01*
X185800500Y-96671158D01*
X185800500Y-96671155D01*
X185800499Y-96671153D01*
X185769738Y-96516510D01*
X185769737Y-96516503D01*
X185747937Y-96463872D01*
X185709397Y-96370827D01*
X185709390Y-96370814D01*
X185621789Y-96239711D01*
X185621786Y-96239707D01*
X185510292Y-96128213D01*
X185510288Y-96128210D01*
X185379185Y-96040609D01*
X185379172Y-96040602D01*
X185233501Y-95980264D01*
X185233489Y-95980261D01*
X185078845Y-95949500D01*
X185078842Y-95949500D01*
X184921158Y-95949500D01*
X184921155Y-95949500D01*
X184766510Y-95980261D01*
X184766498Y-95980264D01*
X184620827Y-96040602D01*
X184620814Y-96040609D01*
X184489711Y-96128210D01*
X184489707Y-96128213D01*
X184378213Y-96239707D01*
X184378210Y-96239711D01*
X184290609Y-96370814D01*
X184290602Y-96370827D01*
X184230264Y-96516498D01*
X184230261Y-96516510D01*
X184199500Y-96671153D01*
X177529588Y-96671153D01*
X177496757Y-96463872D01*
X177496757Y-96463869D01*
X177431095Y-96261782D01*
X177334624Y-96072449D01*
X177295270Y-96018282D01*
X177295269Y-96018282D01*
X176662962Y-96650590D01*
X176645925Y-96587007D01*
X176580099Y-96472993D01*
X176487007Y-96379901D01*
X176372993Y-96314075D01*
X176309409Y-96297037D01*
X176941716Y-95664728D01*
X176887547Y-95625373D01*
X176887547Y-95625372D01*
X176878500Y-95620763D01*
X176827706Y-95572788D01*
X176810912Y-95504966D01*
X176833451Y-95438832D01*
X176878508Y-95399793D01*
X176887816Y-95395051D01*
X176967007Y-95337515D01*
X177059786Y-95270109D01*
X177059788Y-95270106D01*
X177059792Y-95270104D01*
X177210104Y-95119792D01*
X177210106Y-95119788D01*
X177210109Y-95119786D01*
X177335048Y-94947820D01*
X177335047Y-94947820D01*
X177335051Y-94947816D01*
X177431557Y-94758412D01*
X177497246Y-94556243D01*
X177530500Y-94346287D01*
X177530500Y-94133713D01*
X177497246Y-93923757D01*
X177431557Y-93721588D01*
X177335051Y-93532184D01*
X177335049Y-93532181D01*
X177335048Y-93532179D01*
X177210109Y-93360213D01*
X177059786Y-93209890D01*
X176887820Y-93084951D01*
X176887115Y-93084591D01*
X176879054Y-93080485D01*
X176828259Y-93032512D01*
X176811463Y-92964692D01*
X176833999Y-92898556D01*
X176879054Y-92859515D01*
X176887816Y-92855051D01*
X176925749Y-92827491D01*
X177059786Y-92730109D01*
X177059788Y-92730106D01*
X177059792Y-92730104D01*
X177210104Y-92579792D01*
X177210106Y-92579788D01*
X177210109Y-92579786D01*
X177335048Y-92407820D01*
X177335047Y-92407820D01*
X177335051Y-92407816D01*
X177431557Y-92218412D01*
X177497246Y-92016243D01*
X177530500Y-91806287D01*
X177530500Y-91593713D01*
X177497246Y-91383757D01*
X177431557Y-91181588D01*
X177426240Y-91171153D01*
X179199500Y-91171153D01*
X179199500Y-91328846D01*
X179230261Y-91483489D01*
X179230264Y-91483501D01*
X179290602Y-91629172D01*
X179290609Y-91629185D01*
X179378210Y-91760288D01*
X179378213Y-91760292D01*
X179489707Y-91871786D01*
X179489711Y-91871789D01*
X179620814Y-91959390D01*
X179620827Y-91959397D01*
X179766498Y-92019735D01*
X179766503Y-92019737D01*
X179921153Y-92050499D01*
X179921156Y-92050500D01*
X179921158Y-92050500D01*
X180078844Y-92050500D01*
X180078845Y-92050499D01*
X180233497Y-92019737D01*
X180379179Y-91959394D01*
X180510289Y-91871789D01*
X180621789Y-91760289D01*
X180709394Y-91629179D01*
X180769737Y-91483497D01*
X180800500Y-91328842D01*
X180800500Y-91171158D01*
X180800500Y-91171155D01*
X180800499Y-91171153D01*
X180788506Y-91110861D01*
X180769737Y-91016503D01*
X180726353Y-90911763D01*
X180709397Y-90870827D01*
X180709390Y-90870814D01*
X180621789Y-90739711D01*
X180621786Y-90739707D01*
X180510292Y-90628213D01*
X180510288Y-90628210D01*
X180379185Y-90540609D01*
X180379172Y-90540602D01*
X180233501Y-90480264D01*
X180233489Y-90480261D01*
X180078845Y-90449500D01*
X180078842Y-90449500D01*
X179921158Y-90449500D01*
X179921155Y-90449500D01*
X179766510Y-90480261D01*
X179766498Y-90480264D01*
X179620827Y-90540602D01*
X179620814Y-90540609D01*
X179489711Y-90628210D01*
X179489707Y-90628213D01*
X179378213Y-90739707D01*
X179378210Y-90739711D01*
X179290609Y-90870814D01*
X179290602Y-90870827D01*
X179230264Y-91016498D01*
X179230261Y-91016510D01*
X179199500Y-91171153D01*
X177426240Y-91171153D01*
X177335051Y-90992184D01*
X177335049Y-90992181D01*
X177335048Y-90992179D01*
X177210109Y-90820213D01*
X177059786Y-90669890D01*
X176887820Y-90544951D01*
X176698414Y-90448444D01*
X176698413Y-90448443D01*
X176698412Y-90448443D01*
X176496243Y-90382754D01*
X176496241Y-90382753D01*
X176496240Y-90382753D01*
X176334957Y-90357208D01*
X176286287Y-90349500D01*
X176073713Y-90349500D01*
X176025042Y-90357208D01*
X175863760Y-90382753D01*
X175661585Y-90448444D01*
X175472179Y-90544951D01*
X175300213Y-90669890D01*
X175149890Y-90820213D01*
X175024951Y-90992179D01*
X174928444Y-91181585D01*
X174862753Y-91383760D01*
X174846956Y-91483501D01*
X174829500Y-91593713D01*
X172350500Y-91593713D01*
X172350500Y-91513713D01*
X172317246Y-91303757D01*
X172251557Y-91101588D01*
X172155051Y-90912184D01*
X172155049Y-90912181D01*
X172155048Y-90912179D01*
X172030109Y-90740213D01*
X171879786Y-90589890D01*
X171707820Y-90464951D01*
X171518414Y-90368444D01*
X171518413Y-90368443D01*
X171518412Y-90368443D01*
X171316243Y-90302754D01*
X171316241Y-90302753D01*
X171316240Y-90302753D01*
X171154957Y-90277208D01*
X171106287Y-90269500D01*
X170893713Y-90269500D01*
X170845042Y-90277208D01*
X170683760Y-90302753D01*
X170481585Y-90368444D01*
X170292179Y-90464951D01*
X170120213Y-90589890D01*
X169969890Y-90740213D01*
X169844951Y-90912179D01*
X169748444Y-91101585D01*
X169682753Y-91303760D01*
X169649500Y-91513713D01*
X166687989Y-91513713D01*
X166651557Y-91401588D01*
X166555051Y-91212184D01*
X166555049Y-91212181D01*
X166555048Y-91212179D01*
X166430109Y-91040213D01*
X166279786Y-90889890D01*
X166107820Y-90764951D01*
X166107115Y-90764591D01*
X166099054Y-90760485D01*
X166048259Y-90712512D01*
X166031463Y-90644692D01*
X166053999Y-90578556D01*
X166099054Y-90539515D01*
X166107816Y-90535051D01*
X166129789Y-90519086D01*
X166279786Y-90410109D01*
X166279788Y-90410106D01*
X166279792Y-90410104D01*
X166430104Y-90259792D01*
X166430106Y-90259788D01*
X166430109Y-90259786D01*
X166555048Y-90087820D01*
X166555047Y-90087820D01*
X166555051Y-90087816D01*
X166651557Y-89898412D01*
X166717246Y-89696243D01*
X166750500Y-89486287D01*
X166750500Y-89273713D01*
X166717246Y-89063757D01*
X166651557Y-88861588D01*
X166555051Y-88672184D01*
X166555049Y-88672181D01*
X166555048Y-88672179D01*
X166430109Y-88500213D01*
X166279786Y-88349890D01*
X166107820Y-88224951D01*
X166107115Y-88224591D01*
X166099054Y-88220485D01*
X166048259Y-88172512D01*
X166031463Y-88104692D01*
X166053999Y-88038556D01*
X166099054Y-87999515D01*
X166107816Y-87995051D01*
X166156900Y-87959390D01*
X166279786Y-87870109D01*
X166279788Y-87870106D01*
X166279792Y-87870104D01*
X166430104Y-87719792D01*
X166430106Y-87719788D01*
X166430109Y-87719786D01*
X166555048Y-87547820D01*
X166555047Y-87547820D01*
X166555051Y-87547816D01*
X166651557Y-87358412D01*
X166717246Y-87156243D01*
X166750500Y-86946287D01*
X166750500Y-86733713D01*
X166717246Y-86523757D01*
X166651557Y-86321588D01*
X166555051Y-86132184D01*
X166555049Y-86132181D01*
X166555048Y-86132179D01*
X166430109Y-85960213D01*
X166279786Y-85809890D01*
X166107820Y-85684951D01*
X165918414Y-85588444D01*
X165918413Y-85588443D01*
X165918412Y-85588443D01*
X165716243Y-85522754D01*
X165506287Y-85489500D01*
X165293713Y-85489500D01*
X165245042Y-85497208D01*
X165083760Y-85522753D01*
X165083757Y-85522754D01*
X164913267Y-85578150D01*
X164881585Y-85588444D01*
X164692179Y-85684951D01*
X164520213Y-85809890D01*
X164369890Y-85960213D01*
X164244951Y-86132179D01*
X164148444Y-86321585D01*
X164082753Y-86523760D01*
X164049500Y-86733713D01*
X149800500Y-86733713D01*
X149800500Y-85421153D01*
X168449500Y-85421153D01*
X168449500Y-85578846D01*
X168480261Y-85733489D01*
X168480264Y-85733501D01*
X168540602Y-85879172D01*
X168540609Y-85879185D01*
X168628210Y-86010288D01*
X168628213Y-86010292D01*
X168739707Y-86121786D01*
X168739711Y-86121789D01*
X168870814Y-86209390D01*
X168870827Y-86209397D01*
X169016498Y-86269735D01*
X169016503Y-86269737D01*
X169171153Y-86300499D01*
X169171156Y-86300500D01*
X169171158Y-86300500D01*
X169328844Y-86300500D01*
X169328845Y-86300499D01*
X169483497Y-86269737D01*
X169629179Y-86209394D01*
X169686411Y-86171153D01*
X175449500Y-86171153D01*
X175449500Y-86328846D01*
X175480261Y-86483489D01*
X175480264Y-86483501D01*
X175540602Y-86629172D01*
X175540609Y-86629185D01*
X175628210Y-86760288D01*
X175628213Y-86760292D01*
X175739707Y-86871786D01*
X175739711Y-86871789D01*
X175870814Y-86959390D01*
X175870827Y-86959397D01*
X176008683Y-87016498D01*
X176016503Y-87019737D01*
X176158640Y-87048010D01*
X176171153Y-87050499D01*
X176171156Y-87050500D01*
X176171158Y-87050500D01*
X176328844Y-87050500D01*
X176328845Y-87050499D01*
X176483497Y-87019737D01*
X176621635Y-86962519D01*
X176629172Y-86959397D01*
X176629172Y-86959396D01*
X176629179Y-86959394D01*
X176760289Y-86871789D01*
X176871789Y-86760289D01*
X176959394Y-86629179D01*
X176962854Y-86620827D01*
X176973067Y-86596166D01*
X177019737Y-86483497D01*
X177050500Y-86328842D01*
X177050500Y-86171158D01*
X177050500Y-86171155D01*
X177050499Y-86171153D01*
X177019737Y-86016503D01*
X176996419Y-85960208D01*
X176959397Y-85870827D01*
X176959390Y-85870814D01*
X176871789Y-85739711D01*
X176871786Y-85739707D01*
X176760292Y-85628213D01*
X176760288Y-85628210D01*
X176629185Y-85540609D01*
X176629172Y-85540602D01*
X176483501Y-85480264D01*
X176483489Y-85480261D01*
X176328845Y-85449500D01*
X176328842Y-85449500D01*
X176171158Y-85449500D01*
X176171155Y-85449500D01*
X176016510Y-85480261D01*
X176016498Y-85480264D01*
X175870827Y-85540602D01*
X175870814Y-85540609D01*
X175739711Y-85628210D01*
X175739707Y-85628213D01*
X175628213Y-85739707D01*
X175628210Y-85739711D01*
X175540609Y-85870814D01*
X175540602Y-85870827D01*
X175480264Y-86016498D01*
X175480261Y-86016510D01*
X175449500Y-86171153D01*
X169686411Y-86171153D01*
X169760289Y-86121789D01*
X169760292Y-86121786D01*
X169804694Y-86077385D01*
X169871786Y-86010292D01*
X169871789Y-86010289D01*
X169959394Y-85879179D01*
X169962854Y-85870827D01*
X170017163Y-85739711D01*
X170019737Y-85733497D01*
X170048590Y-85588444D01*
X170050638Y-85578150D01*
X170083023Y-85516239D01*
X170084517Y-85514717D01*
X171212417Y-84386819D01*
X171273740Y-84353334D01*
X171300098Y-84350500D01*
X175482152Y-84350500D01*
X175549191Y-84370185D01*
X175594946Y-84422989D01*
X175603769Y-84450308D01*
X175630261Y-84583491D01*
X175630264Y-84583501D01*
X175690602Y-84729172D01*
X175690609Y-84729185D01*
X175778210Y-84860288D01*
X175778213Y-84860292D01*
X175889707Y-84971786D01*
X175889711Y-84971789D01*
X176020814Y-85059390D01*
X176020827Y-85059397D01*
X176166498Y-85119735D01*
X176166503Y-85119737D01*
X176296992Y-85145693D01*
X176321153Y-85150499D01*
X176321156Y-85150500D01*
X176321158Y-85150500D01*
X176478844Y-85150500D01*
X176484902Y-85149903D01*
X176484938Y-85150276D01*
X176500862Y-85148781D01*
X176515012Y-85148911D01*
X176520943Y-85150501D01*
X176679058Y-85150501D01*
X176679062Y-85150500D01*
X177098432Y-85150500D01*
X177165471Y-85170185D01*
X177186113Y-85186819D01*
X178028103Y-86028809D01*
X178061588Y-86090132D01*
X178056604Y-86159824D01*
X178014732Y-86215757D01*
X177987875Y-86231051D01*
X177867628Y-86280859D01*
X177867618Y-86280864D01*
X177736515Y-86368465D01*
X177736511Y-86368468D01*
X177625017Y-86479962D01*
X177625014Y-86479966D01*
X177537413Y-86611069D01*
X177537406Y-86611082D01*
X177477068Y-86756753D01*
X177477065Y-86756765D01*
X177446304Y-86911408D01*
X177446304Y-87069101D01*
X177477065Y-87223744D01*
X177477068Y-87223756D01*
X177537406Y-87369427D01*
X177537413Y-87369440D01*
X177625014Y-87500543D01*
X177625017Y-87500547D01*
X177665381Y-87540911D01*
X177698866Y-87602234D01*
X177699319Y-87652777D01*
X177695578Y-87671589D01*
X177695578Y-87829276D01*
X177726339Y-87983919D01*
X177726342Y-87983931D01*
X177786680Y-88129602D01*
X177786687Y-88129615D01*
X177807157Y-88160250D01*
X177828035Y-88226928D01*
X177818616Y-88276593D01*
X177760950Y-88415812D01*
X177760947Y-88415824D01*
X177730186Y-88570467D01*
X177730186Y-88728160D01*
X177760947Y-88882803D01*
X177760950Y-88882815D01*
X177821288Y-89028486D01*
X177821295Y-89028499D01*
X177908896Y-89159602D01*
X177908899Y-89159606D01*
X178020393Y-89271100D01*
X178020397Y-89271103D01*
X178151500Y-89358704D01*
X178151513Y-89358711D01*
X178297184Y-89419049D01*
X178297189Y-89419051D01*
X178451839Y-89449813D01*
X178451842Y-89449814D01*
X178451844Y-89449814D01*
X178609530Y-89449814D01*
X178609531Y-89449813D01*
X178764183Y-89419051D01*
X178909865Y-89358708D01*
X179040975Y-89271103D01*
X179152475Y-89159603D01*
X179240080Y-89028493D01*
X179300423Y-88882811D01*
X179331186Y-88728156D01*
X179331186Y-88570472D01*
X179331186Y-88570469D01*
X179331185Y-88570467D01*
X179300423Y-88415817D01*
X179273118Y-88349896D01*
X179240083Y-88270141D01*
X179240081Y-88270137D01*
X179240080Y-88270135D01*
X179219606Y-88239493D01*
X179198728Y-88172816D01*
X179208146Y-88123152D01*
X179265815Y-87983927D01*
X179296578Y-87829272D01*
X179296578Y-87671588D01*
X179296578Y-87671585D01*
X179283385Y-87605262D01*
X179289612Y-87535670D01*
X179332475Y-87480493D01*
X179398364Y-87457248D01*
X179466361Y-87473315D01*
X179492683Y-87493389D01*
X181752101Y-89752807D01*
X181785586Y-89814130D01*
X181780602Y-89883822D01*
X181767522Y-89909378D01*
X181692083Y-90022280D01*
X181692073Y-90022298D01*
X181631735Y-90167969D01*
X181631732Y-90167981D01*
X181600971Y-90322624D01*
X181600971Y-90480317D01*
X181631732Y-90634960D01*
X181631735Y-90634972D01*
X181692073Y-90780643D01*
X181692080Y-90780656D01*
X181779681Y-90911759D01*
X181779684Y-90911763D01*
X181891178Y-91023257D01*
X181891182Y-91023260D01*
X182022285Y-91110861D01*
X182022298Y-91110868D01*
X182161472Y-91168515D01*
X182167974Y-91171208D01*
X182322624Y-91201970D01*
X182322627Y-91201971D01*
X182322629Y-91201971D01*
X182325500Y-91201971D01*
X182326949Y-91202396D01*
X182328689Y-91202568D01*
X182328656Y-91202897D01*
X182392539Y-91221656D01*
X182438294Y-91274460D01*
X182448808Y-91322791D01*
X182448903Y-91322782D01*
X182448983Y-91323594D01*
X182449500Y-91325971D01*
X182449500Y-91328846D01*
X182480261Y-91483489D01*
X182480264Y-91483501D01*
X182540602Y-91629172D01*
X182540609Y-91629185D01*
X182628210Y-91760288D01*
X182628213Y-91760292D01*
X182739707Y-91871786D01*
X182739711Y-91871789D01*
X182870814Y-91959390D01*
X182870827Y-91959397D01*
X183016498Y-92019735D01*
X183016503Y-92019737D01*
X183171153Y-92050499D01*
X183171156Y-92050500D01*
X183171158Y-92050500D01*
X183328844Y-92050500D01*
X183328845Y-92050499D01*
X183483497Y-92019737D01*
X183629179Y-91959394D01*
X183742092Y-91883947D01*
X183808768Y-91863070D01*
X183876148Y-91881554D01*
X183898663Y-91899369D01*
X184463668Y-92464374D01*
X184463678Y-92464385D01*
X184468008Y-92468715D01*
X184468009Y-92468716D01*
X184579813Y-92580520D01*
X184579815Y-92580521D01*
X184579819Y-92580524D01*
X184700337Y-92650104D01*
X184716745Y-92659577D01*
X184828548Y-92689534D01*
X184869471Y-92700500D01*
X184869472Y-92700500D01*
X185570234Y-92700500D01*
X185637273Y-92720185D01*
X185639125Y-92721398D01*
X185770814Y-92809390D01*
X185770827Y-92809397D01*
X185891822Y-92859514D01*
X185916503Y-92869737D01*
X186061385Y-92898556D01*
X186071153Y-92900499D01*
X186071156Y-92900500D01*
X186071158Y-92900500D01*
X186228844Y-92900500D01*
X186228845Y-92900499D01*
X186383497Y-92869737D01*
X186529179Y-92809394D01*
X186660289Y-92721789D01*
X186771789Y-92610289D01*
X186859394Y-92479179D01*
X186919737Y-92333497D01*
X186950500Y-92178842D01*
X186950500Y-92021158D01*
X186950500Y-92021155D01*
X186950499Y-92021153D01*
X186923207Y-91883948D01*
X186919737Y-91866503D01*
X186894795Y-91806287D01*
X186859397Y-91720827D01*
X186859390Y-91720814D01*
X186771789Y-91589711D01*
X186771786Y-91589707D01*
X186660292Y-91478213D01*
X186660288Y-91478210D01*
X186529185Y-91390609D01*
X186529172Y-91390602D01*
X186383501Y-91330264D01*
X186383489Y-91330261D01*
X186228845Y-91299500D01*
X186228842Y-91299500D01*
X186071158Y-91299500D01*
X186071155Y-91299500D01*
X185916510Y-91330261D01*
X185916498Y-91330264D01*
X185770827Y-91390602D01*
X185770814Y-91390609D01*
X185639125Y-91478602D01*
X185572447Y-91499480D01*
X185570234Y-91499500D01*
X185248626Y-91499500D01*
X185181587Y-91479815D01*
X185160945Y-91463181D01*
X184927602Y-91229838D01*
X184895557Y-91171153D01*
X191449500Y-91171153D01*
X191449500Y-91328846D01*
X191480261Y-91483489D01*
X191480264Y-91483501D01*
X191540602Y-91629172D01*
X191540609Y-91629185D01*
X191628210Y-91760288D01*
X191628213Y-91760292D01*
X191739707Y-91871786D01*
X191739711Y-91871789D01*
X191870814Y-91959390D01*
X191870827Y-91959397D01*
X192016498Y-92019735D01*
X192016503Y-92019737D01*
X192171153Y-92050499D01*
X192171156Y-92050500D01*
X192171158Y-92050500D01*
X192328844Y-92050500D01*
X192328845Y-92050499D01*
X192483497Y-92019737D01*
X192629179Y-91959394D01*
X192760289Y-91871789D01*
X192871789Y-91760289D01*
X192959394Y-91629179D01*
X193019737Y-91483497D01*
X193050500Y-91328842D01*
X193050500Y-91171158D01*
X193050500Y-91171155D01*
X193050499Y-91171153D01*
X193038506Y-91110861D01*
X193019737Y-91016503D01*
X192976353Y-90911763D01*
X192959397Y-90870827D01*
X192959390Y-90870814D01*
X192871789Y-90739711D01*
X192871786Y-90739707D01*
X192760292Y-90628213D01*
X192760288Y-90628210D01*
X192629185Y-90540609D01*
X192629172Y-90540602D01*
X192483501Y-90480264D01*
X192483489Y-90480261D01*
X192328845Y-90449500D01*
X192328842Y-90449500D01*
X192171158Y-90449500D01*
X192171155Y-90449500D01*
X192016510Y-90480261D01*
X192016498Y-90480264D01*
X191870827Y-90540602D01*
X191870814Y-90540609D01*
X191739711Y-90628210D01*
X191739707Y-90628213D01*
X191628213Y-90739707D01*
X191628210Y-90739711D01*
X191540609Y-90870814D01*
X191540602Y-90870827D01*
X191480264Y-91016498D01*
X191480261Y-91016510D01*
X191449500Y-91171153D01*
X184895557Y-91171153D01*
X184894117Y-91168515D01*
X184899101Y-91098823D01*
X184927600Y-91054477D01*
X185021789Y-90960289D01*
X185109394Y-90829179D01*
X185169737Y-90683497D01*
X185200500Y-90528842D01*
X185200500Y-90371158D01*
X185200500Y-90371155D01*
X185200499Y-90371153D01*
X185190846Y-90322624D01*
X185169737Y-90216503D01*
X185149634Y-90167969D01*
X185109397Y-90070827D01*
X185109390Y-90070814D01*
X185021789Y-89939711D01*
X185021786Y-89939707D01*
X184910292Y-89828213D01*
X184910288Y-89828210D01*
X184779185Y-89740609D01*
X184779172Y-89740602D01*
X184633501Y-89680264D01*
X184633489Y-89680261D01*
X184478845Y-89649500D01*
X184478842Y-89649500D01*
X184321158Y-89649500D01*
X184321155Y-89649500D01*
X184166510Y-89680261D01*
X184166498Y-89680264D01*
X184020827Y-89740602D01*
X184020814Y-89740609D01*
X183889711Y-89828210D01*
X183795523Y-89922398D01*
X183734199Y-89955882D01*
X183664508Y-89950898D01*
X183620161Y-89922397D01*
X181852718Y-88154954D01*
X181819233Y-88093631D01*
X181824217Y-88023939D01*
X181866089Y-87968006D01*
X181874170Y-87962864D01*
X181874114Y-87962779D01*
X181942363Y-87917175D01*
X182010289Y-87871789D01*
X182121789Y-87760289D01*
X182209394Y-87629179D01*
X182269737Y-87483497D01*
X182300500Y-87328842D01*
X182300500Y-87171158D01*
X182300500Y-87171155D01*
X182300499Y-87171153D01*
X183449500Y-87171153D01*
X183449500Y-87328846D01*
X183480261Y-87483489D01*
X183480264Y-87483501D01*
X183540602Y-87629172D01*
X183540609Y-87629185D01*
X183628210Y-87760288D01*
X183628213Y-87760292D01*
X183739707Y-87871786D01*
X183739711Y-87871789D01*
X183870814Y-87959390D01*
X183870827Y-87959397D01*
X184016498Y-88019735D01*
X184016503Y-88019737D01*
X184156031Y-88047491D01*
X184171153Y-88050499D01*
X184171156Y-88050500D01*
X184171158Y-88050500D01*
X184328844Y-88050500D01*
X184328845Y-88050499D01*
X184483497Y-88019737D01*
X184629179Y-87959394D01*
X184760289Y-87871789D01*
X184871789Y-87760289D01*
X184959394Y-87629179D01*
X185019737Y-87483497D01*
X185050500Y-87328842D01*
X185050500Y-87171158D01*
X185050500Y-87171155D01*
X185050499Y-87171153D01*
X185030199Y-87069101D01*
X185019737Y-87016503D01*
X184980242Y-86921153D01*
X193199500Y-86921153D01*
X193199500Y-87078846D01*
X193230261Y-87233489D01*
X193230264Y-87233501D01*
X193290602Y-87379172D01*
X193290609Y-87379185D01*
X193378210Y-87510288D01*
X193378213Y-87510292D01*
X193489707Y-87621786D01*
X193489711Y-87621789D01*
X193620814Y-87709390D01*
X193620827Y-87709397D01*
X193766498Y-87769735D01*
X193766503Y-87769737D01*
X193921153Y-87800499D01*
X193921156Y-87800500D01*
X193921158Y-87800500D01*
X194078844Y-87800500D01*
X194078845Y-87800499D01*
X194233497Y-87769737D01*
X194379179Y-87709394D01*
X194510289Y-87621789D01*
X194621789Y-87510289D01*
X194709394Y-87379179D01*
X194713431Y-87369434D01*
X194769735Y-87233501D01*
X194769737Y-87233497D01*
X194800500Y-87078842D01*
X194800500Y-86921158D01*
X194800500Y-86921155D01*
X194800499Y-86921153D01*
X194798184Y-86909513D01*
X194769737Y-86766503D01*
X194767163Y-86760288D01*
X194709397Y-86620827D01*
X194709390Y-86620814D01*
X194621789Y-86489711D01*
X194621786Y-86489707D01*
X194510292Y-86378213D01*
X194510288Y-86378210D01*
X194379185Y-86290609D01*
X194379172Y-86290602D01*
X194233501Y-86230264D01*
X194233489Y-86230261D01*
X194078845Y-86199500D01*
X194078842Y-86199500D01*
X193921158Y-86199500D01*
X193921155Y-86199500D01*
X193766510Y-86230261D01*
X193766498Y-86230264D01*
X193620827Y-86290602D01*
X193620814Y-86290609D01*
X193489711Y-86378210D01*
X193489707Y-86378213D01*
X193378213Y-86489707D01*
X193378210Y-86489711D01*
X193290609Y-86620814D01*
X193290602Y-86620827D01*
X193230264Y-86766498D01*
X193230261Y-86766510D01*
X193199500Y-86921153D01*
X184980242Y-86921153D01*
X184959794Y-86871786D01*
X184959397Y-86870827D01*
X184959390Y-86870814D01*
X184871789Y-86739711D01*
X184871786Y-86739707D01*
X184760292Y-86628213D01*
X184760288Y-86628210D01*
X184629185Y-86540609D01*
X184629172Y-86540602D01*
X184483501Y-86480264D01*
X184483489Y-86480261D01*
X184328845Y-86449500D01*
X184328842Y-86449500D01*
X184171158Y-86449500D01*
X184171155Y-86449500D01*
X184016510Y-86480261D01*
X184016498Y-86480264D01*
X183870827Y-86540602D01*
X183870814Y-86540609D01*
X183739711Y-86628210D01*
X183739707Y-86628213D01*
X183628213Y-86739707D01*
X183628210Y-86739711D01*
X183540609Y-86870814D01*
X183540602Y-86870827D01*
X183480264Y-87016498D01*
X183480261Y-87016510D01*
X183449500Y-87171153D01*
X182300499Y-87171153D01*
X182280199Y-87069101D01*
X182269737Y-87016503D01*
X182269735Y-87016498D01*
X182209397Y-86870827D01*
X182209390Y-86870814D01*
X182121789Y-86739711D01*
X182121786Y-86739707D01*
X182010292Y-86628213D01*
X182010288Y-86628210D01*
X181879185Y-86540609D01*
X181879172Y-86540602D01*
X181733501Y-86480264D01*
X181733489Y-86480261D01*
X181578845Y-86449500D01*
X181578842Y-86449500D01*
X181421158Y-86449500D01*
X181421155Y-86449500D01*
X181266510Y-86480261D01*
X181266498Y-86480264D01*
X181120827Y-86540602D01*
X181120814Y-86540609D01*
X180989711Y-86628210D01*
X180989707Y-86628213D01*
X180878213Y-86739707D01*
X180878210Y-86739711D01*
X180787221Y-86875886D01*
X180785515Y-86874746D01*
X180743102Y-86917908D01*
X180674962Y-86933357D01*
X180609287Y-86909513D01*
X180595045Y-86897281D01*
X178259945Y-84562181D01*
X178226460Y-84500858D01*
X178231444Y-84431166D01*
X178273316Y-84375233D01*
X178338780Y-84350816D01*
X178347626Y-84350500D01*
X182824684Y-84350500D01*
X182872136Y-84359939D01*
X182937031Y-84386819D01*
X183016503Y-84419737D01*
X183143699Y-84445038D01*
X183171153Y-84450499D01*
X183171156Y-84450500D01*
X183171158Y-84450500D01*
X183328841Y-84450500D01*
X183328842Y-84450500D01*
X183356299Y-84445038D01*
X183425888Y-84451264D01*
X183481067Y-84494125D01*
X183495052Y-84519202D01*
X183540604Y-84629176D01*
X183540609Y-84629185D01*
X183628210Y-84760288D01*
X183628213Y-84760292D01*
X183739707Y-84871786D01*
X183739711Y-84871789D01*
X183870814Y-84959390D01*
X183870827Y-84959397D01*
X183970060Y-85000500D01*
X184016503Y-85019737D01*
X184171153Y-85050499D01*
X184171156Y-85050500D01*
X184171158Y-85050500D01*
X184328844Y-85050500D01*
X184328845Y-85050499D01*
X184483497Y-85019737D01*
X184629179Y-84959394D01*
X184760289Y-84871789D01*
X184871789Y-84760289D01*
X184959394Y-84629179D01*
X185019737Y-84483497D01*
X185050500Y-84328842D01*
X185050500Y-84171158D01*
X185050500Y-84171155D01*
X185050499Y-84171153D01*
X185039952Y-84118131D01*
X185019737Y-84016503D01*
X185007523Y-83987015D01*
X184959397Y-83870827D01*
X184959390Y-83870814D01*
X184871789Y-83739711D01*
X184871786Y-83739707D01*
X184844260Y-83712181D01*
X184810775Y-83650858D01*
X184815759Y-83581166D01*
X184854814Y-83528996D01*
X188158813Y-83528996D01*
X188158813Y-83686689D01*
X188189574Y-83841332D01*
X188189577Y-83841344D01*
X188249915Y-83987015D01*
X188249922Y-83987028D01*
X188337523Y-84118131D01*
X188337526Y-84118135D01*
X188449020Y-84229629D01*
X188449024Y-84229632D01*
X188580127Y-84317233D01*
X188580140Y-84317240D01*
X188720150Y-84375233D01*
X188725816Y-84377580D01*
X188880466Y-84408342D01*
X188880469Y-84408343D01*
X188880471Y-84408343D01*
X189038157Y-84408343D01*
X189038158Y-84408342D01*
X189192810Y-84377580D01*
X189338492Y-84317237D01*
X189338497Y-84317233D01*
X189338500Y-84317232D01*
X189395954Y-84278842D01*
X189421316Y-84261895D01*
X189487992Y-84241017D01*
X189555373Y-84259501D01*
X189602063Y-84311479D01*
X189611824Y-84340804D01*
X189630262Y-84433492D01*
X189630264Y-84433501D01*
X189690602Y-84579172D01*
X189690609Y-84579185D01*
X189778210Y-84710288D01*
X189778213Y-84710292D01*
X189889707Y-84821786D01*
X189889711Y-84821789D01*
X190020814Y-84909390D01*
X190020827Y-84909397D01*
X190166498Y-84969735D01*
X190166503Y-84969737D01*
X190321153Y-85000499D01*
X190321156Y-85000500D01*
X190321158Y-85000500D01*
X190478844Y-85000500D01*
X190478845Y-85000499D01*
X190633497Y-84969737D01*
X190779179Y-84909394D01*
X190910289Y-84821789D01*
X191021789Y-84710289D01*
X191109394Y-84579179D01*
X191169737Y-84433497D01*
X191200500Y-84278842D01*
X191200500Y-84121158D01*
X191200500Y-84121155D01*
X191200499Y-84121153D01*
X191179684Y-84016510D01*
X191169737Y-83966503D01*
X191117895Y-83841344D01*
X191109397Y-83820827D01*
X191109390Y-83820814D01*
X191021789Y-83689711D01*
X191021786Y-83689707D01*
X190910292Y-83578213D01*
X190910288Y-83578210D01*
X190779185Y-83490609D01*
X190779172Y-83490602D01*
X190633501Y-83430264D01*
X190633489Y-83430261D01*
X190478845Y-83399500D01*
X190478842Y-83399500D01*
X190321158Y-83399500D01*
X190321155Y-83399500D01*
X190166510Y-83430261D01*
X190166498Y-83430264D01*
X190020827Y-83490602D01*
X190020814Y-83490609D01*
X189937996Y-83545947D01*
X189871318Y-83566825D01*
X189803938Y-83548340D01*
X189757248Y-83496361D01*
X189747488Y-83467037D01*
X189729051Y-83374351D01*
X189729050Y-83374350D01*
X189729050Y-83374346D01*
X189685614Y-83269481D01*
X189668710Y-83228670D01*
X189668703Y-83228657D01*
X189581102Y-83097554D01*
X189581099Y-83097550D01*
X189469605Y-82986056D01*
X189469601Y-82986053D01*
X189338498Y-82898452D01*
X189338485Y-82898445D01*
X189192814Y-82838107D01*
X189192802Y-82838104D01*
X189038158Y-82807343D01*
X189038155Y-82807343D01*
X188880471Y-82807343D01*
X188880468Y-82807343D01*
X188725823Y-82838104D01*
X188725811Y-82838107D01*
X188580140Y-82898445D01*
X188580127Y-82898452D01*
X188449024Y-82986053D01*
X188449020Y-82986056D01*
X188337526Y-83097550D01*
X188337523Y-83097554D01*
X188249922Y-83228657D01*
X188249915Y-83228670D01*
X188189577Y-83374341D01*
X188189574Y-83374353D01*
X188158813Y-83528996D01*
X184854814Y-83528996D01*
X184857631Y-83525233D01*
X184923095Y-83500816D01*
X184931941Y-83500500D01*
X186663331Y-83500500D01*
X186663347Y-83500501D01*
X186670943Y-83500501D01*
X186829054Y-83500501D01*
X186829057Y-83500501D01*
X186981785Y-83459577D01*
X187053424Y-83418216D01*
X187056446Y-83416471D01*
X187058089Y-83415523D01*
X187058089Y-83415522D01*
X187118716Y-83380520D01*
X187230520Y-83268716D01*
X187230520Y-83268714D01*
X187240724Y-83258511D01*
X187240728Y-83258506D01*
X196918713Y-73580521D01*
X196918716Y-73580520D01*
X196940823Y-73558413D01*
X196968035Y-73543555D01*
X197002142Y-73524932D01*
X197002145Y-73524932D01*
X197002148Y-73524931D01*
X197034573Y-73527251D01*
X197071834Y-73529916D01*
X197071836Y-73529917D01*
X197071839Y-73529918D01*
X197107308Y-73556472D01*
X197127767Y-73571788D01*
X197127767Y-73571789D01*
X197127771Y-73571792D01*
X197140672Y-73606388D01*
X197152184Y-73637252D01*
X197152500Y-73646098D01*
X197152500Y-100900000D01*
X218092500Y-100900000D01*
X218092500Y-52900000D01*
X197274500Y-52900000D01*
X197265814Y-52897449D01*
X197256853Y-52898738D01*
X197232812Y-52887759D01*
X197207461Y-52880315D01*
X197201533Y-52873474D01*
X197193297Y-52869713D01*
X197179007Y-52847478D01*
X197161706Y-52827511D01*
X197159418Y-52816996D01*
X197155523Y-52810935D01*
X197150500Y-52776000D01*
X197150500Y-52750097D01*
X197170185Y-52683058D01*
X197186819Y-52662416D01*
X201062416Y-48786819D01*
X201123739Y-48753334D01*
X201150097Y-48750500D01*
X203370234Y-48750500D01*
X203437273Y-48770185D01*
X203439125Y-48771398D01*
X203570814Y-48859390D01*
X203570827Y-48859397D01*
X203716498Y-48919735D01*
X203716503Y-48919737D01*
X203871153Y-48950499D01*
X203871156Y-48950500D01*
X203871158Y-48950500D01*
X204028844Y-48950500D01*
X204028845Y-48950499D01*
X204183497Y-48919737D01*
X204329179Y-48859394D01*
X204460289Y-48771789D01*
X204571789Y-48660289D01*
X204659394Y-48529179D01*
X204719737Y-48383497D01*
X204750500Y-48228842D01*
X204750500Y-48071158D01*
X204750500Y-48071155D01*
X204750499Y-48071153D01*
X204719738Y-47916510D01*
X204719737Y-47916503D01*
X204719735Y-47916498D01*
X204697416Y-47862614D01*
X204679022Y-47818206D01*
X210999500Y-47818206D01*
X210999500Y-48181794D01*
X211004593Y-48233501D01*
X211035137Y-48543630D01*
X211106064Y-48900212D01*
X211106067Y-48900223D01*
X211106069Y-48900232D01*
X211106070Y-48900233D01*
X211111987Y-48919738D01*
X211211614Y-49248165D01*
X211350754Y-49584078D01*
X211350756Y-49584083D01*
X211522140Y-49904720D01*
X211522151Y-49904738D01*
X211724140Y-50207035D01*
X211724150Y-50207049D01*
X211954807Y-50488106D01*
X212211893Y-50745192D01*
X212211898Y-50745196D01*
X212211899Y-50745197D01*
X212492956Y-50975854D01*
X212795268Y-51177853D01*
X212795277Y-51177858D01*
X212795279Y-51177859D01*
X213115916Y-51349243D01*
X213115918Y-51349243D01*
X213115924Y-51349247D01*
X213451836Y-51488386D01*
X213799767Y-51593930D01*
X213799773Y-51593931D01*
X213799776Y-51593932D01*
X213799787Y-51593935D01*
X214156369Y-51664862D01*
X214518206Y-51700500D01*
X214518209Y-51700500D01*
X214881791Y-51700500D01*
X214881794Y-51700500D01*
X215243631Y-51664862D01*
X215313045Y-51651054D01*
X215600212Y-51593935D01*
X215600223Y-51593932D01*
X215600223Y-51593931D01*
X215600233Y-51593930D01*
X215948164Y-51488386D01*
X216284076Y-51349247D01*
X216604732Y-51177853D01*
X216907044Y-50975854D01*
X217188101Y-50745197D01*
X217445197Y-50488101D01*
X217675854Y-50207044D01*
X217877853Y-49904732D01*
X218049247Y-49584076D01*
X218188386Y-49248164D01*
X218293930Y-48900233D01*
X218293932Y-48900223D01*
X218293935Y-48900212D01*
X218364862Y-48543630D01*
X218366286Y-48529172D01*
X218400500Y-48181794D01*
X218400500Y-47818206D01*
X218364862Y-47456369D01*
X218357193Y-47417815D01*
X218293935Y-47099787D01*
X218293932Y-47099776D01*
X218293931Y-47099773D01*
X218293930Y-47099767D01*
X218188386Y-46751836D01*
X218049247Y-46415924D01*
X217995794Y-46315921D01*
X217877859Y-46095279D01*
X217877858Y-46095277D01*
X217877853Y-46095268D01*
X217675854Y-45792956D01*
X217445197Y-45511899D01*
X217445196Y-45511898D01*
X217445192Y-45511893D01*
X217188106Y-45254807D01*
X216907049Y-45024150D01*
X216907048Y-45024149D01*
X216907044Y-45024146D01*
X216604732Y-44822147D01*
X216604727Y-44822144D01*
X216604720Y-44822140D01*
X216284083Y-44650756D01*
X216284078Y-44650754D01*
X215948165Y-44511614D01*
X215600223Y-44406067D01*
X215600212Y-44406064D01*
X215243630Y-44335137D01*
X214971111Y-44308296D01*
X214881794Y-44299500D01*
X214518206Y-44299500D01*
X214435679Y-44307628D01*
X214156369Y-44335137D01*
X213799787Y-44406064D01*
X213799776Y-44406067D01*
X213451834Y-44511614D01*
X213115921Y-44650754D01*
X213115916Y-44650756D01*
X212795279Y-44822140D01*
X212795261Y-44822151D01*
X212492964Y-45024140D01*
X212492950Y-45024150D01*
X212211893Y-45254807D01*
X211954807Y-45511893D01*
X211724150Y-45792950D01*
X211724140Y-45792964D01*
X211522151Y-46095261D01*
X211522140Y-46095279D01*
X211350756Y-46415916D01*
X211350754Y-46415921D01*
X211211614Y-46751834D01*
X211106067Y-47099776D01*
X211106064Y-47099787D01*
X211035137Y-47456369D01*
X211009349Y-47718206D01*
X210999500Y-47818206D01*
X204679022Y-47818206D01*
X204659397Y-47770827D01*
X204659390Y-47770814D01*
X204571789Y-47639711D01*
X204571786Y-47639707D01*
X204460292Y-47528213D01*
X204460288Y-47528210D01*
X204329185Y-47440609D01*
X204329172Y-47440602D01*
X204183501Y-47380264D01*
X204183489Y-47380261D01*
X204028845Y-47349500D01*
X204028842Y-47349500D01*
X203871158Y-47349500D01*
X203871155Y-47349500D01*
X203716510Y-47380261D01*
X203716498Y-47380264D01*
X203570827Y-47440602D01*
X203570814Y-47440609D01*
X203439125Y-47528602D01*
X203372447Y-47549480D01*
X203370234Y-47549500D01*
X200929057Y-47549500D01*
X200770942Y-47549500D01*
X200618215Y-47590423D01*
X200618214Y-47590423D01*
X200618212Y-47590424D01*
X200618209Y-47590425D01*
X200568096Y-47619359D01*
X200568095Y-47619360D01*
X200532853Y-47639707D01*
X200481285Y-47669479D01*
X200481282Y-47669481D01*
X196069481Y-52081282D01*
X196069479Y-52081285D01*
X196019361Y-52168094D01*
X196019359Y-52168096D01*
X195990425Y-52218209D01*
X195990424Y-52218210D01*
X195976617Y-52269738D01*
X195949499Y-52370943D01*
X195949499Y-52370945D01*
X195949499Y-52539046D01*
X195949500Y-52539059D01*
X195949500Y-72799903D01*
X195929815Y-72866942D01*
X195913181Y-72887584D01*
X186537584Y-82263181D01*
X186476261Y-82296666D01*
X186449903Y-82299500D01*
X183029766Y-82299500D01*
X182962727Y-82279815D01*
X182960875Y-82278602D01*
X182829185Y-82190609D01*
X182829172Y-82190602D01*
X182683501Y-82130264D01*
X182683489Y-82130261D01*
X182528845Y-82099500D01*
X182528842Y-82099500D01*
X182371158Y-82099500D01*
X182371155Y-82099500D01*
X182216510Y-82130261D01*
X182216498Y-82130264D01*
X182070827Y-82190602D01*
X182070814Y-82190609D01*
X181939711Y-82278210D01*
X181939707Y-82278213D01*
X181828213Y-82389707D01*
X181828210Y-82389711D01*
X181740609Y-82520814D01*
X181740602Y-82520827D01*
X181680264Y-82666498D01*
X181680261Y-82666510D01*
X181649500Y-82821153D01*
X181649500Y-82978841D01*
X181653969Y-83001310D01*
X181647740Y-83070901D01*
X181604877Y-83126078D01*
X181538987Y-83149322D01*
X181532351Y-83149500D01*
X171086670Y-83149500D01*
X171086654Y-83149499D01*
X171079058Y-83149499D01*
X170920943Y-83149499D01*
X170844579Y-83169961D01*
X170768214Y-83190423D01*
X170768209Y-83190426D01*
X170631290Y-83269475D01*
X170631282Y-83269481D01*
X169235339Y-84665425D01*
X169174016Y-84698910D01*
X169171850Y-84699361D01*
X169016508Y-84730261D01*
X169016498Y-84730264D01*
X168870827Y-84790602D01*
X168870814Y-84790609D01*
X168739711Y-84878210D01*
X168739707Y-84878213D01*
X168628213Y-84989707D01*
X168628210Y-84989711D01*
X168540609Y-85120814D01*
X168540602Y-85120827D01*
X168480264Y-85266498D01*
X168480261Y-85266510D01*
X168449500Y-85421153D01*
X149800500Y-85421153D01*
X149800500Y-75921153D01*
X168199500Y-75921153D01*
X168199500Y-76078846D01*
X168230261Y-76233489D01*
X168230264Y-76233501D01*
X168290602Y-76379172D01*
X168290609Y-76379185D01*
X168378210Y-76510288D01*
X168378213Y-76510292D01*
X168489707Y-76621786D01*
X168489711Y-76621789D01*
X168620814Y-76709390D01*
X168620827Y-76709397D01*
X168766498Y-76769735D01*
X168766503Y-76769737D01*
X168921153Y-76800499D01*
X168921156Y-76800500D01*
X168921158Y-76800500D01*
X169078844Y-76800500D01*
X169078845Y-76800499D01*
X169233497Y-76769737D01*
X169379179Y-76709394D01*
X169510289Y-76621789D01*
X169621789Y-76510289D01*
X169709394Y-76379179D01*
X169769737Y-76233497D01*
X169800500Y-76078842D01*
X169800500Y-75921158D01*
X169800500Y-75921155D01*
X169800499Y-75921153D01*
X171449500Y-75921153D01*
X171449500Y-76078846D01*
X171480261Y-76233489D01*
X171480264Y-76233501D01*
X171540602Y-76379172D01*
X171540609Y-76379185D01*
X171628210Y-76510288D01*
X171628213Y-76510292D01*
X171739707Y-76621786D01*
X171739711Y-76621789D01*
X171870814Y-76709390D01*
X171870827Y-76709397D01*
X172016498Y-76769735D01*
X172016503Y-76769737D01*
X172171153Y-76800499D01*
X172171156Y-76800500D01*
X172171158Y-76800500D01*
X172328844Y-76800500D01*
X172328845Y-76800499D01*
X172483497Y-76769737D01*
X172629179Y-76709394D01*
X172760289Y-76621789D01*
X172871789Y-76510289D01*
X172959394Y-76379179D01*
X173019737Y-76233497D01*
X173022192Y-76221153D01*
X175449500Y-76221153D01*
X175449500Y-76378846D01*
X175480261Y-76533489D01*
X175480264Y-76533501D01*
X175530094Y-76653803D01*
X175537563Y-76723273D01*
X175530094Y-76748707D01*
X175480999Y-76867233D01*
X175480996Y-76867245D01*
X175450235Y-77021888D01*
X175450235Y-77179581D01*
X175480996Y-77334224D01*
X175480999Y-77334236D01*
X175540145Y-77477028D01*
X175547614Y-77546497D01*
X175540145Y-77571932D01*
X175480264Y-77716498D01*
X175480261Y-77716510D01*
X175449500Y-77871153D01*
X175449500Y-78028846D01*
X175480261Y-78183489D01*
X175480264Y-78183501D01*
X175540602Y-78329172D01*
X175540609Y-78329185D01*
X175628210Y-78460288D01*
X175628213Y-78460292D01*
X175739707Y-78571786D01*
X175739711Y-78571789D01*
X175870814Y-78659390D01*
X175870827Y-78659397D01*
X176016498Y-78719735D01*
X176016503Y-78719737D01*
X176171153Y-78750499D01*
X176171156Y-78750500D01*
X176171158Y-78750500D01*
X176328844Y-78750500D01*
X176328845Y-78750499D01*
X176483497Y-78719737D01*
X176629179Y-78659394D01*
X176760289Y-78571789D01*
X176871789Y-78460289D01*
X176959394Y-78329179D01*
X177019737Y-78183497D01*
X177039113Y-78086085D01*
X177050638Y-78028150D01*
X177083023Y-77966239D01*
X177084518Y-77964716D01*
X185012414Y-70036821D01*
X185073737Y-70003336D01*
X185100095Y-70000502D01*
X190170234Y-70000502D01*
X190237273Y-70020187D01*
X190239125Y-70021400D01*
X190370814Y-70109392D01*
X190370827Y-70109399D01*
X190516498Y-70169737D01*
X190516503Y-70169739D01*
X190671153Y-70200501D01*
X190671156Y-70200502D01*
X190671158Y-70200502D01*
X190828844Y-70200502D01*
X190828845Y-70200501D01*
X190983497Y-70169739D01*
X191129179Y-70109396D01*
X191260289Y-70021791D01*
X191371789Y-69910291D01*
X191459394Y-69779181D01*
X191519737Y-69633499D01*
X191550500Y-69478844D01*
X191550500Y-69321160D01*
X191550500Y-69321157D01*
X191550499Y-69321155D01*
X191519738Y-69166512D01*
X191519737Y-69166505D01*
X191463728Y-69031286D01*
X191459397Y-69020829D01*
X191459390Y-69020816D01*
X191371789Y-68889713D01*
X191371786Y-68889709D01*
X191260292Y-68778215D01*
X191260288Y-68778212D01*
X191129185Y-68690611D01*
X191129172Y-68690604D01*
X190983501Y-68630266D01*
X190983489Y-68630263D01*
X190828845Y-68599502D01*
X190828842Y-68599502D01*
X190671158Y-68599502D01*
X190671155Y-68599502D01*
X190516510Y-68630263D01*
X190516498Y-68630266D01*
X190370827Y-68690604D01*
X190370814Y-68690611D01*
X190239125Y-68778604D01*
X190172447Y-68799482D01*
X190170234Y-68799502D01*
X184879055Y-68799502D01*
X184720941Y-68799502D01*
X184568213Y-68840425D01*
X184568212Y-68840425D01*
X184568210Y-68840426D01*
X184568207Y-68840427D01*
X184518094Y-68869361D01*
X184518093Y-68869362D01*
X184482851Y-68889709D01*
X184431283Y-68919481D01*
X184431280Y-68919483D01*
X177227590Y-76123174D01*
X177166267Y-76156659D01*
X177096575Y-76151675D01*
X177040642Y-76109803D01*
X177021246Y-76071481D01*
X177019738Y-76066510D01*
X177019737Y-76066503D01*
X176959534Y-75921158D01*
X176959397Y-75920827D01*
X176959390Y-75920814D01*
X176871789Y-75789711D01*
X176871786Y-75789707D01*
X176760292Y-75678213D01*
X176760288Y-75678210D01*
X176629185Y-75590609D01*
X176629172Y-75590602D01*
X176483501Y-75530264D01*
X176483489Y-75530261D01*
X176328845Y-75499500D01*
X176328842Y-75499500D01*
X176171158Y-75499500D01*
X176171155Y-75499500D01*
X176016510Y-75530261D01*
X176016498Y-75530264D01*
X175870827Y-75590602D01*
X175870814Y-75590609D01*
X175739711Y-75678210D01*
X175739707Y-75678213D01*
X175628213Y-75789707D01*
X175628210Y-75789711D01*
X175540609Y-75920814D01*
X175540602Y-75920827D01*
X175480264Y-76066498D01*
X175480261Y-76066510D01*
X175449500Y-76221153D01*
X173022192Y-76221153D01*
X173028216Y-76190874D01*
X173028216Y-76190873D01*
X173050499Y-76078846D01*
X173050500Y-76078844D01*
X173050500Y-75921155D01*
X173050499Y-75921153D01*
X173024353Y-75789711D01*
X173019737Y-75766503D01*
X173019735Y-75766498D01*
X172959397Y-75620827D01*
X172959390Y-75620814D01*
X172871789Y-75489711D01*
X172871786Y-75489707D01*
X172760292Y-75378213D01*
X172760288Y-75378210D01*
X172629185Y-75290609D01*
X172629172Y-75290602D01*
X172483501Y-75230264D01*
X172483489Y-75230261D01*
X172328845Y-75199500D01*
X172328842Y-75199500D01*
X172171158Y-75199500D01*
X172171155Y-75199500D01*
X172016510Y-75230261D01*
X172016498Y-75230264D01*
X171870827Y-75290602D01*
X171870814Y-75290609D01*
X171739711Y-75378210D01*
X171739707Y-75378213D01*
X171628213Y-75489707D01*
X171628210Y-75489711D01*
X171540609Y-75620814D01*
X171540602Y-75620827D01*
X171480264Y-75766498D01*
X171480261Y-75766510D01*
X171449500Y-75921153D01*
X169800499Y-75921153D01*
X169774353Y-75789711D01*
X169769737Y-75766503D01*
X169769735Y-75766498D01*
X169709397Y-75620827D01*
X169709390Y-75620814D01*
X169621789Y-75489711D01*
X169621786Y-75489707D01*
X169510292Y-75378213D01*
X169510288Y-75378210D01*
X169379185Y-75290609D01*
X169379172Y-75290602D01*
X169233501Y-75230264D01*
X169233489Y-75230261D01*
X169078845Y-75199500D01*
X169078842Y-75199500D01*
X168921158Y-75199500D01*
X168921155Y-75199500D01*
X168766510Y-75230261D01*
X168766498Y-75230264D01*
X168620827Y-75290602D01*
X168620814Y-75290609D01*
X168489711Y-75378210D01*
X168489707Y-75378213D01*
X168378213Y-75489707D01*
X168378210Y-75489711D01*
X168290609Y-75620814D01*
X168290602Y-75620827D01*
X168230264Y-75766498D01*
X168230261Y-75766510D01*
X168199500Y-75921153D01*
X149800500Y-75921153D01*
X149800500Y-71721153D01*
X169449500Y-71721153D01*
X169449500Y-71878846D01*
X169480261Y-72033489D01*
X169480264Y-72033501D01*
X169540602Y-72179172D01*
X169540609Y-72179185D01*
X169628210Y-72310288D01*
X169628213Y-72310292D01*
X169739707Y-72421786D01*
X169739711Y-72421789D01*
X169870814Y-72509390D01*
X169870827Y-72509397D01*
X170016498Y-72569735D01*
X170016503Y-72569737D01*
X170171153Y-72600499D01*
X170171156Y-72600500D01*
X170171158Y-72600500D01*
X170328844Y-72600500D01*
X170328845Y-72600499D01*
X170483497Y-72569737D01*
X170629179Y-72509394D01*
X170760289Y-72421789D01*
X170871789Y-72310289D01*
X170959394Y-72179179D01*
X171019737Y-72033497D01*
X171050500Y-71878842D01*
X171050500Y-71721158D01*
X171050500Y-71721155D01*
X171050499Y-71721153D01*
X171019738Y-71566510D01*
X171019737Y-71566503D01*
X171019735Y-71566498D01*
X170959397Y-71420827D01*
X170959390Y-71420814D01*
X170871789Y-71289711D01*
X170871786Y-71289707D01*
X170760292Y-71178213D01*
X170760288Y-71178210D01*
X170629185Y-71090609D01*
X170629172Y-71090602D01*
X170483501Y-71030264D01*
X170483489Y-71030261D01*
X170328845Y-70999500D01*
X170328842Y-70999500D01*
X170171158Y-70999500D01*
X170171155Y-70999500D01*
X170016510Y-71030261D01*
X170016498Y-71030264D01*
X169870827Y-71090602D01*
X169870814Y-71090609D01*
X169739711Y-71178210D01*
X169739707Y-71178213D01*
X169628213Y-71289707D01*
X169628210Y-71289711D01*
X169540609Y-71420814D01*
X169540602Y-71420827D01*
X169480264Y-71566498D01*
X169480261Y-71566510D01*
X169449500Y-71721153D01*
X149800500Y-71721153D01*
X149800500Y-67465845D01*
X167287706Y-67465845D01*
X167416652Y-67519257D01*
X167416656Y-67519258D01*
X167571202Y-67549999D01*
X167571206Y-67550000D01*
X167728794Y-67550000D01*
X167728797Y-67549999D01*
X167883343Y-67519258D01*
X167883347Y-67519257D01*
X168012293Y-67465845D01*
X167717601Y-67171153D01*
X172649500Y-67171153D01*
X172649500Y-67328846D01*
X172680261Y-67483489D01*
X172680264Y-67483501D01*
X172740602Y-67629172D01*
X172740609Y-67629185D01*
X172828210Y-67760288D01*
X172828213Y-67760292D01*
X172939707Y-67871786D01*
X172939711Y-67871789D01*
X173070814Y-67959390D01*
X173070827Y-67959397D01*
X173216498Y-68019735D01*
X173216503Y-68019737D01*
X173371153Y-68050499D01*
X173371156Y-68050500D01*
X173371158Y-68050500D01*
X173528844Y-68050500D01*
X173528845Y-68050499D01*
X173683497Y-68019737D01*
X173829179Y-67959394D01*
X173960289Y-67871789D01*
X174071789Y-67760289D01*
X174159394Y-67629179D01*
X174219737Y-67483497D01*
X174250500Y-67328842D01*
X174250500Y-67171158D01*
X174250500Y-67171155D01*
X174250499Y-67171153D01*
X174230036Y-67068281D01*
X174219737Y-67016503D01*
X174219465Y-67015846D01*
X174159397Y-66870827D01*
X174159390Y-66870814D01*
X174071789Y-66739711D01*
X174071786Y-66739707D01*
X173960292Y-66628213D01*
X173960288Y-66628210D01*
X173874897Y-66571153D01*
X192649500Y-66571153D01*
X192649500Y-66728846D01*
X192680261Y-66883489D01*
X192680264Y-66883501D01*
X192740602Y-67029172D01*
X192740609Y-67029185D01*
X192828210Y-67160288D01*
X192828213Y-67160292D01*
X192939707Y-67271786D01*
X192939711Y-67271789D01*
X193070814Y-67359390D01*
X193070827Y-67359397D01*
X193216498Y-67419735D01*
X193216503Y-67419737D01*
X193371153Y-67450499D01*
X193371156Y-67450500D01*
X193371158Y-67450500D01*
X193528844Y-67450500D01*
X193528845Y-67450499D01*
X193683497Y-67419737D01*
X193829179Y-67359394D01*
X193960289Y-67271789D01*
X194071789Y-67160289D01*
X194159394Y-67029179D01*
X194219737Y-66883497D01*
X194250500Y-66728842D01*
X194250500Y-66571158D01*
X194250500Y-66571155D01*
X194250499Y-66571153D01*
X194226400Y-66450000D01*
X194219737Y-66416503D01*
X194171481Y-66300001D01*
X194159397Y-66270827D01*
X194159390Y-66270814D01*
X194071789Y-66139711D01*
X194071786Y-66139707D01*
X193960292Y-66028213D01*
X193960288Y-66028210D01*
X193829185Y-65940609D01*
X193829172Y-65940602D01*
X193683501Y-65880264D01*
X193683489Y-65880261D01*
X193528845Y-65849500D01*
X193528842Y-65849500D01*
X193371158Y-65849500D01*
X193371155Y-65849500D01*
X193216510Y-65880261D01*
X193216498Y-65880264D01*
X193070827Y-65940602D01*
X193070814Y-65940609D01*
X192939711Y-66028210D01*
X192939707Y-66028213D01*
X192828213Y-66139707D01*
X192828210Y-66139711D01*
X192740609Y-66270814D01*
X192740602Y-66270827D01*
X192680264Y-66416498D01*
X192680261Y-66416510D01*
X192649500Y-66571153D01*
X173874897Y-66571153D01*
X173829185Y-66540609D01*
X173829172Y-66540602D01*
X173683501Y-66480264D01*
X173683489Y-66480261D01*
X173528845Y-66449500D01*
X173528842Y-66449500D01*
X173371158Y-66449500D01*
X173371155Y-66449500D01*
X173216510Y-66480261D01*
X173216498Y-66480264D01*
X173070827Y-66540602D01*
X173070814Y-66540609D01*
X172939711Y-66628210D01*
X172939707Y-66628213D01*
X172828213Y-66739707D01*
X172828210Y-66739711D01*
X172740609Y-66870814D01*
X172740602Y-66870827D01*
X172680264Y-67016498D01*
X172680261Y-67016510D01*
X172649500Y-67171153D01*
X167717601Y-67171153D01*
X167650001Y-67103553D01*
X167650000Y-67103553D01*
X167287706Y-67465845D01*
X149800500Y-67465845D01*
X149800500Y-67015845D01*
X166837705Y-67015845D01*
X166837705Y-67015846D01*
X166858452Y-67024440D01*
X166912855Y-67068281D01*
X166925558Y-67091545D01*
X166934152Y-67112293D01*
X166934153Y-67112293D01*
X167385542Y-66660904D01*
X167446865Y-66627419D01*
X167516556Y-66632403D01*
X167540242Y-66647625D01*
X167522836Y-66665032D01*
X167500000Y-66720163D01*
X167500000Y-66779837D01*
X167522836Y-66834968D01*
X167565032Y-66877164D01*
X167620163Y-66900000D01*
X167679837Y-66900000D01*
X167734968Y-66877164D01*
X167777164Y-66834968D01*
X167800000Y-66779837D01*
X167800000Y-66720163D01*
X167777164Y-66665032D01*
X167761048Y-66648916D01*
X167800417Y-66627419D01*
X167870109Y-66632403D01*
X167914457Y-66660904D01*
X168365845Y-67112293D01*
X168374439Y-67091547D01*
X168418280Y-67037144D01*
X168441546Y-67024439D01*
X168462293Y-67015845D01*
X168010904Y-66564457D01*
X167977419Y-66503134D01*
X167982403Y-66433443D01*
X167997624Y-66409756D01*
X168015032Y-66427164D01*
X168070163Y-66450000D01*
X168129837Y-66450000D01*
X168184968Y-66427164D01*
X168227164Y-66384968D01*
X168250000Y-66329837D01*
X168250000Y-66299999D01*
X168453553Y-66299999D01*
X168453553Y-66300001D01*
X168815845Y-66662293D01*
X168869257Y-66533347D01*
X168869258Y-66533343D01*
X168899999Y-66378797D01*
X168900000Y-66378794D01*
X168900000Y-66221206D01*
X168899999Y-66221202D01*
X168869258Y-66066656D01*
X168869257Y-66066652D01*
X168815845Y-65937706D01*
X168453553Y-66299999D01*
X168250000Y-66299999D01*
X168250000Y-66270163D01*
X168227164Y-66215032D01*
X168184968Y-66172836D01*
X168129837Y-66150000D01*
X168070163Y-66150000D01*
X168015032Y-66172836D01*
X167998916Y-66188951D01*
X167977419Y-66149581D01*
X167982403Y-66079889D01*
X168010904Y-66035542D01*
X168462293Y-65584153D01*
X168462293Y-65584152D01*
X168441545Y-65575558D01*
X168387143Y-65531716D01*
X168374440Y-65508452D01*
X168365846Y-65487705D01*
X168365845Y-65487705D01*
X167914457Y-65939095D01*
X167853134Y-65972580D01*
X167783443Y-65967596D01*
X167759757Y-65952374D01*
X167777164Y-65934968D01*
X167800000Y-65879837D01*
X167800000Y-65820163D01*
X167777164Y-65765032D01*
X167734968Y-65722836D01*
X167679837Y-65700000D01*
X167620163Y-65700000D01*
X167565032Y-65722836D01*
X167522836Y-65765032D01*
X167500000Y-65820163D01*
X167500000Y-65879837D01*
X167522836Y-65934968D01*
X167538951Y-65951083D01*
X167499581Y-65972581D01*
X167429889Y-65967597D01*
X167385542Y-65939096D01*
X166934151Y-65487705D01*
X166925559Y-65508450D01*
X166914599Y-65529136D01*
X166862264Y-65608710D01*
X167289096Y-66035542D01*
X167322581Y-66096865D01*
X167317597Y-66166557D01*
X167302374Y-66190242D01*
X167284968Y-66172836D01*
X167229837Y-66150000D01*
X167170163Y-66150000D01*
X167115032Y-66172836D01*
X167072836Y-66215032D01*
X167050000Y-66270163D01*
X167050000Y-66329837D01*
X167072836Y-66384968D01*
X167115032Y-66427164D01*
X167170163Y-66450000D01*
X167229837Y-66450000D01*
X167284968Y-66427164D01*
X167301082Y-66411049D01*
X167322580Y-66450418D01*
X167317596Y-66520110D01*
X167289095Y-66564457D01*
X166837705Y-67015845D01*
X149800500Y-67015845D01*
X149800500Y-66221202D01*
X166400000Y-66221202D01*
X166400000Y-66378797D01*
X166430741Y-66533343D01*
X166430743Y-66533351D01*
X166484153Y-66662293D01*
X166846446Y-66300001D01*
X166846446Y-66299999D01*
X166484153Y-65937705D01*
X166430743Y-66066648D01*
X166430741Y-66066656D01*
X166400000Y-66221202D01*
X149800500Y-66221202D01*
X149800500Y-65134153D01*
X167287705Y-65134153D01*
X167650000Y-65496446D01*
X167650001Y-65496446D01*
X168012293Y-65134153D01*
X167883351Y-65080743D01*
X167883343Y-65080741D01*
X167728797Y-65050000D01*
X167571202Y-65050000D01*
X167416656Y-65080741D01*
X167416648Y-65080743D01*
X167287705Y-65134153D01*
X149800500Y-65134153D01*
X149800500Y-64221153D01*
X169449500Y-64221153D01*
X169449500Y-64378846D01*
X169480261Y-64533489D01*
X169480264Y-64533501D01*
X169540602Y-64679172D01*
X169540609Y-64679185D01*
X169628210Y-64810288D01*
X169628213Y-64810292D01*
X169739707Y-64921786D01*
X169739711Y-64921789D01*
X169870814Y-65009390D01*
X169870827Y-65009397D01*
X169968853Y-65050000D01*
X170016503Y-65069737D01*
X170171158Y-65100500D01*
X170176688Y-65101600D01*
X170238599Y-65133985D01*
X170273173Y-65194700D01*
X170274115Y-65247408D01*
X170249500Y-65371159D01*
X170249500Y-65528846D01*
X170280261Y-65683489D01*
X170280264Y-65683501D01*
X170340602Y-65829172D01*
X170340609Y-65829185D01*
X170428210Y-65960288D01*
X170428213Y-65960292D01*
X170539707Y-66071786D01*
X170539711Y-66071789D01*
X170670814Y-66159390D01*
X170670827Y-66159397D01*
X170795178Y-66210904D01*
X170816503Y-66219737D01*
X170971153Y-66250499D01*
X170971156Y-66250500D01*
X170971158Y-66250500D01*
X171128844Y-66250500D01*
X171128845Y-66250499D01*
X171283497Y-66219737D01*
X171429179Y-66159394D01*
X171560289Y-66071789D01*
X171671789Y-65960289D01*
X171759394Y-65829179D01*
X171819737Y-65683497D01*
X171850500Y-65528842D01*
X171850500Y-65371158D01*
X171850500Y-65371155D01*
X171850499Y-65371153D01*
X171819738Y-65216510D01*
X171819737Y-65216503D01*
X171785627Y-65134153D01*
X171759397Y-65070827D01*
X171759390Y-65070814D01*
X171671789Y-64939711D01*
X171671786Y-64939707D01*
X171560292Y-64828213D01*
X171560288Y-64828210D01*
X171429185Y-64740609D01*
X171429172Y-64740602D01*
X171283501Y-64680264D01*
X171283491Y-64680261D01*
X171123310Y-64648399D01*
X171061399Y-64616014D01*
X171026825Y-64555298D01*
X171025885Y-64502590D01*
X171050500Y-64378844D01*
X171050500Y-64221155D01*
X171050499Y-64221153D01*
X171030734Y-64121789D01*
X171019737Y-64066503D01*
X171019735Y-64066498D01*
X170959397Y-63920827D01*
X170959390Y-63920814D01*
X170871789Y-63789711D01*
X170871786Y-63789707D01*
X170760292Y-63678213D01*
X170760288Y-63678210D01*
X170629185Y-63590609D01*
X170629172Y-63590602D01*
X170483501Y-63530264D01*
X170483489Y-63530261D01*
X170328845Y-63499500D01*
X170328842Y-63499500D01*
X170171158Y-63499500D01*
X170171155Y-63499500D01*
X170016510Y-63530261D01*
X170016498Y-63530264D01*
X169870827Y-63590602D01*
X169870814Y-63590609D01*
X169739711Y-63678210D01*
X169739707Y-63678213D01*
X169628213Y-63789707D01*
X169628210Y-63789711D01*
X169540609Y-63920814D01*
X169540602Y-63920827D01*
X169480264Y-64066498D01*
X169480261Y-64066510D01*
X169449500Y-64221153D01*
X149800500Y-64221153D01*
X149800500Y-63171153D01*
X160199500Y-63171153D01*
X160199500Y-63328846D01*
X160230261Y-63483489D01*
X160230264Y-63483501D01*
X160290602Y-63629172D01*
X160290609Y-63629185D01*
X160378210Y-63760288D01*
X160378213Y-63760292D01*
X160489707Y-63871786D01*
X160489711Y-63871789D01*
X160620814Y-63959390D01*
X160620827Y-63959397D01*
X160766498Y-64019735D01*
X160766503Y-64019737D01*
X160921153Y-64050499D01*
X160921156Y-64050500D01*
X160921158Y-64050500D01*
X161078844Y-64050500D01*
X161078845Y-64050499D01*
X161233497Y-64019737D01*
X161379179Y-63959394D01*
X161510289Y-63871789D01*
X161621789Y-63760289D01*
X161709394Y-63629179D01*
X161769737Y-63483497D01*
X161782138Y-63421153D01*
X172199500Y-63421153D01*
X172199500Y-63578846D01*
X172230261Y-63733489D01*
X172230264Y-63733501D01*
X172290602Y-63879172D01*
X172290609Y-63879185D01*
X172378210Y-64010288D01*
X172378213Y-64010292D01*
X172489707Y-64121786D01*
X172489711Y-64121789D01*
X172620814Y-64209390D01*
X172620827Y-64209397D01*
X172766498Y-64269735D01*
X172766503Y-64269737D01*
X172921153Y-64300499D01*
X172921156Y-64300500D01*
X172921158Y-64300500D01*
X173078844Y-64300500D01*
X173078845Y-64300499D01*
X173233497Y-64269737D01*
X173379179Y-64209394D01*
X173510289Y-64121789D01*
X173621789Y-64010289D01*
X173709394Y-63879179D01*
X173769737Y-63733497D01*
X173800500Y-63578842D01*
X173800500Y-63421158D01*
X173800500Y-63421155D01*
X173800499Y-63421153D01*
X173769738Y-63266510D01*
X173769737Y-63266503D01*
X173730242Y-63171153D01*
X173709397Y-63120827D01*
X173709390Y-63120814D01*
X173621789Y-62989711D01*
X173621786Y-62989707D01*
X173510292Y-62878213D01*
X173510288Y-62878210D01*
X173379185Y-62790609D01*
X173379172Y-62790602D01*
X173233501Y-62730264D01*
X173233489Y-62730261D01*
X173078845Y-62699500D01*
X173078842Y-62699500D01*
X172921158Y-62699500D01*
X172921155Y-62699500D01*
X172766510Y-62730261D01*
X172766498Y-62730264D01*
X172620827Y-62790602D01*
X172620814Y-62790609D01*
X172489711Y-62878210D01*
X172489707Y-62878213D01*
X172378213Y-62989707D01*
X172378210Y-62989711D01*
X172290609Y-63120814D01*
X172290602Y-63120827D01*
X172230264Y-63266498D01*
X172230261Y-63266510D01*
X172199500Y-63421153D01*
X161782138Y-63421153D01*
X161800500Y-63328842D01*
X161800500Y-63171158D01*
X161800500Y-63171155D01*
X161800499Y-63171153D01*
X161769738Y-63016510D01*
X161769737Y-63016503D01*
X161769735Y-63016498D01*
X161709397Y-62870827D01*
X161709390Y-62870814D01*
X161621789Y-62739711D01*
X161621786Y-62739707D01*
X161510292Y-62628213D01*
X161510288Y-62628210D01*
X161379185Y-62540609D01*
X161379172Y-62540602D01*
X161233501Y-62480264D01*
X161233489Y-62480261D01*
X161078845Y-62449500D01*
X161078842Y-62449500D01*
X160921158Y-62449500D01*
X160921155Y-62449500D01*
X160766510Y-62480261D01*
X160766498Y-62480264D01*
X160620827Y-62540602D01*
X160620814Y-62540609D01*
X160489711Y-62628210D01*
X160489707Y-62628213D01*
X160378213Y-62739707D01*
X160378210Y-62739711D01*
X160290609Y-62870814D01*
X160290602Y-62870827D01*
X160230264Y-63016498D01*
X160230261Y-63016510D01*
X160199500Y-63171153D01*
X149800500Y-63171153D01*
X149800500Y-61671153D01*
X158449500Y-61671153D01*
X158449500Y-61828846D01*
X158480261Y-61983489D01*
X158480264Y-61983501D01*
X158540602Y-62129172D01*
X158540609Y-62129185D01*
X158628210Y-62260288D01*
X158628213Y-62260292D01*
X158739707Y-62371786D01*
X158739711Y-62371789D01*
X158870814Y-62459390D01*
X158870827Y-62459397D01*
X159016498Y-62519735D01*
X159016503Y-62519737D01*
X159171153Y-62550499D01*
X159171156Y-62550500D01*
X159171158Y-62550500D01*
X159328844Y-62550500D01*
X159328845Y-62550499D01*
X159483497Y-62519737D01*
X159629179Y-62459394D01*
X159760289Y-62371789D01*
X159871789Y-62260289D01*
X159959394Y-62129179D01*
X160019737Y-61983497D01*
X160050500Y-61828842D01*
X160050500Y-61671158D01*
X160050500Y-61671155D01*
X160050499Y-61671153D01*
X160019738Y-61516510D01*
X160019737Y-61516503D01*
X160019735Y-61516498D01*
X159959397Y-61370827D01*
X159959390Y-61370814D01*
X159871789Y-61239711D01*
X159871786Y-61239707D01*
X159760292Y-61128213D01*
X159760288Y-61128210D01*
X159629185Y-61040609D01*
X159629172Y-61040602D01*
X159483501Y-60980264D01*
X159483489Y-60980261D01*
X159328845Y-60949500D01*
X159328842Y-60949500D01*
X159171158Y-60949500D01*
X159171155Y-60949500D01*
X159016510Y-60980261D01*
X159016498Y-60980264D01*
X158870827Y-61040602D01*
X158870814Y-61040609D01*
X158739711Y-61128210D01*
X158739707Y-61128213D01*
X158628213Y-61239707D01*
X158628210Y-61239711D01*
X158540609Y-61370814D01*
X158540602Y-61370827D01*
X158480264Y-61516498D01*
X158480261Y-61516510D01*
X158449500Y-61671153D01*
X149800500Y-61671153D01*
X149800500Y-58921153D01*
X162199500Y-58921153D01*
X162199500Y-59078846D01*
X162230261Y-59233489D01*
X162230264Y-59233501D01*
X162290602Y-59379172D01*
X162290609Y-59379185D01*
X162378210Y-59510288D01*
X162378213Y-59510292D01*
X162489707Y-59621786D01*
X162489711Y-59621789D01*
X162620814Y-59709390D01*
X162620827Y-59709397D01*
X162766498Y-59769735D01*
X162766503Y-59769737D01*
X162921153Y-59800499D01*
X162921156Y-59800500D01*
X162921158Y-59800500D01*
X163078844Y-59800500D01*
X163078845Y-59800499D01*
X163233497Y-59769737D01*
X163379179Y-59709394D01*
X163510289Y-59621789D01*
X163621789Y-59510289D01*
X163681348Y-59421153D01*
X166699500Y-59421153D01*
X166699500Y-59578846D01*
X166730261Y-59733489D01*
X166730264Y-59733501D01*
X166790602Y-59879172D01*
X166790609Y-59879185D01*
X166878210Y-60010288D01*
X166878213Y-60010292D01*
X166989707Y-60121786D01*
X166989711Y-60121789D01*
X167120814Y-60209390D01*
X167120827Y-60209397D01*
X167266498Y-60269735D01*
X167266503Y-60269737D01*
X167421153Y-60300499D01*
X167421156Y-60300500D01*
X167421158Y-60300500D01*
X167578844Y-60300500D01*
X167578845Y-60300499D01*
X167733497Y-60269737D01*
X167879179Y-60209394D01*
X168010289Y-60121789D01*
X168121789Y-60010289D01*
X168209394Y-59879179D01*
X168269737Y-59733497D01*
X168300500Y-59578842D01*
X168300500Y-59421158D01*
X168300500Y-59421155D01*
X168300499Y-59421153D01*
X168269738Y-59266510D01*
X168269737Y-59266503D01*
X168256062Y-59233489D01*
X168209397Y-59120827D01*
X168209390Y-59120814D01*
X168121789Y-58989711D01*
X168121786Y-58989707D01*
X168010292Y-58878213D01*
X168010288Y-58878210D01*
X167879185Y-58790609D01*
X167879172Y-58790602D01*
X167733501Y-58730264D01*
X167733489Y-58730261D01*
X167578845Y-58699500D01*
X167578842Y-58699500D01*
X167421158Y-58699500D01*
X167421155Y-58699500D01*
X167266510Y-58730261D01*
X167266498Y-58730264D01*
X167120827Y-58790602D01*
X167120814Y-58790609D01*
X166989711Y-58878210D01*
X166989707Y-58878213D01*
X166878213Y-58989707D01*
X166878210Y-58989711D01*
X166790609Y-59120814D01*
X166790602Y-59120827D01*
X166730264Y-59266498D01*
X166730261Y-59266510D01*
X166699500Y-59421153D01*
X163681348Y-59421153D01*
X163709394Y-59379179D01*
X163769737Y-59233497D01*
X163800500Y-59078842D01*
X163800500Y-58921158D01*
X163800500Y-58921155D01*
X163800499Y-58921153D01*
X163774531Y-58790606D01*
X163769737Y-58766503D01*
X163769735Y-58766498D01*
X163709397Y-58620827D01*
X163709390Y-58620814D01*
X163621789Y-58489711D01*
X163621786Y-58489707D01*
X163510292Y-58378213D01*
X163510288Y-58378210D01*
X163379185Y-58290609D01*
X163379172Y-58290602D01*
X163233501Y-58230264D01*
X163233489Y-58230261D01*
X163078845Y-58199500D01*
X163078842Y-58199500D01*
X162921158Y-58199500D01*
X162921155Y-58199500D01*
X162766510Y-58230261D01*
X162766498Y-58230264D01*
X162620827Y-58290602D01*
X162620814Y-58290609D01*
X162489711Y-58378210D01*
X162489707Y-58378213D01*
X162378213Y-58489707D01*
X162378210Y-58489711D01*
X162290609Y-58620814D01*
X162290602Y-58620827D01*
X162230264Y-58766498D01*
X162230261Y-58766510D01*
X162199500Y-58921153D01*
X149800500Y-58921153D01*
X149800500Y-57671153D01*
X174449500Y-57671153D01*
X174449500Y-57828846D01*
X174480261Y-57983489D01*
X174480264Y-57983501D01*
X174540602Y-58129172D01*
X174540609Y-58129185D01*
X174628210Y-58260288D01*
X174628213Y-58260292D01*
X174739707Y-58371786D01*
X174739711Y-58371789D01*
X174870814Y-58459390D01*
X174870827Y-58459397D01*
X174944013Y-58489711D01*
X175016503Y-58519737D01*
X175171153Y-58550499D01*
X175171156Y-58550500D01*
X175171158Y-58550500D01*
X175328844Y-58550500D01*
X175328845Y-58550499D01*
X175483497Y-58519737D01*
X175629179Y-58459394D01*
X175760289Y-58371789D01*
X175871789Y-58260289D01*
X175959394Y-58129179D01*
X176019737Y-57983497D01*
X176050500Y-57828842D01*
X176050500Y-57671158D01*
X176050500Y-57671155D01*
X176050499Y-57671153D01*
X176019738Y-57516510D01*
X176019737Y-57516503D01*
X176019735Y-57516498D01*
X175959397Y-57370827D01*
X175959390Y-57370814D01*
X175871789Y-57239711D01*
X175871786Y-57239707D01*
X175760292Y-57128213D01*
X175760288Y-57128210D01*
X175629185Y-57040609D01*
X175629172Y-57040602D01*
X175483501Y-56980264D01*
X175483489Y-56980261D01*
X175328845Y-56949500D01*
X175328842Y-56949500D01*
X175171158Y-56949500D01*
X175171155Y-56949500D01*
X175016510Y-56980261D01*
X175016498Y-56980264D01*
X174870827Y-57040602D01*
X174870814Y-57040609D01*
X174739711Y-57128210D01*
X174739707Y-57128213D01*
X174628213Y-57239707D01*
X174628210Y-57239711D01*
X174540609Y-57370814D01*
X174540602Y-57370827D01*
X174480264Y-57516498D01*
X174480261Y-57516510D01*
X174449500Y-57671153D01*
X149800500Y-57671153D01*
X149800500Y-56421153D01*
X176249500Y-56421153D01*
X176249500Y-56578846D01*
X176280261Y-56733489D01*
X176280264Y-56733501D01*
X176340602Y-56879172D01*
X176340609Y-56879185D01*
X176428210Y-57010288D01*
X176428213Y-57010292D01*
X176539707Y-57121786D01*
X176539711Y-57121789D01*
X176670814Y-57209390D01*
X176670827Y-57209397D01*
X176744013Y-57239711D01*
X176816503Y-57269737D01*
X176971153Y-57300499D01*
X176971156Y-57300500D01*
X176971158Y-57300500D01*
X177128844Y-57300500D01*
X177128845Y-57300499D01*
X177283497Y-57269737D01*
X177429179Y-57209394D01*
X177560289Y-57121789D01*
X177671789Y-57010289D01*
X177759394Y-56879179D01*
X177819737Y-56733497D01*
X177850500Y-56578842D01*
X177850500Y-56421158D01*
X177850500Y-56421155D01*
X177850499Y-56421153D01*
X177819738Y-56266510D01*
X177819737Y-56266503D01*
X177759794Y-56121786D01*
X177759397Y-56120827D01*
X177759390Y-56120814D01*
X177671789Y-55989711D01*
X177671786Y-55989707D01*
X177560292Y-55878213D01*
X177560288Y-55878210D01*
X177429185Y-55790609D01*
X177429172Y-55790602D01*
X177283501Y-55730264D01*
X177283489Y-55730261D01*
X177128845Y-55699500D01*
X177128842Y-55699500D01*
X176971158Y-55699500D01*
X176971155Y-55699500D01*
X176816510Y-55730261D01*
X176816498Y-55730264D01*
X176670827Y-55790602D01*
X176670814Y-55790609D01*
X176539711Y-55878210D01*
X176539707Y-55878213D01*
X176428213Y-55989707D01*
X176428210Y-55989711D01*
X176340609Y-56120814D01*
X176340602Y-56120827D01*
X176280264Y-56266498D01*
X176280261Y-56266510D01*
X176249500Y-56421153D01*
X149800500Y-56421153D01*
X149800500Y-55421153D01*
X179949500Y-55421153D01*
X179949500Y-55578846D01*
X179980261Y-55733489D01*
X179980264Y-55733501D01*
X180040602Y-55879172D01*
X180040609Y-55879185D01*
X180128210Y-56010288D01*
X180128213Y-56010292D01*
X180239707Y-56121786D01*
X180239711Y-56121789D01*
X180370814Y-56209390D01*
X180370827Y-56209397D01*
X180508683Y-56266498D01*
X180516503Y-56269737D01*
X180671153Y-56300499D01*
X180671156Y-56300500D01*
X180671158Y-56300500D01*
X180828844Y-56300500D01*
X180828845Y-56300499D01*
X180983497Y-56269737D01*
X181129179Y-56209394D01*
X181260289Y-56121789D01*
X181371789Y-56010289D01*
X181459394Y-55879179D01*
X181519737Y-55733497D01*
X181550500Y-55578842D01*
X181550500Y-55421158D01*
X181550500Y-55421155D01*
X181550499Y-55421153D01*
X181519738Y-55266510D01*
X181519737Y-55266503D01*
X181519735Y-55266498D01*
X181459397Y-55120827D01*
X181459390Y-55120814D01*
X181371789Y-54989711D01*
X181371786Y-54989707D01*
X181260292Y-54878213D01*
X181260288Y-54878210D01*
X181129185Y-54790609D01*
X181129172Y-54790602D01*
X180983501Y-54730264D01*
X180983489Y-54730261D01*
X180828845Y-54699500D01*
X180828842Y-54699500D01*
X180671158Y-54699500D01*
X180671155Y-54699500D01*
X180516510Y-54730261D01*
X180516498Y-54730264D01*
X180370827Y-54790602D01*
X180370814Y-54790609D01*
X180239711Y-54878210D01*
X180239707Y-54878213D01*
X180128213Y-54989707D01*
X180128210Y-54989711D01*
X180040609Y-55120814D01*
X180040602Y-55120827D01*
X179980264Y-55266498D01*
X179980261Y-55266510D01*
X179949500Y-55421153D01*
X149800500Y-55421153D01*
X149800500Y-53421153D01*
X165699500Y-53421153D01*
X165699500Y-53578846D01*
X165730261Y-53733489D01*
X165730264Y-53733501D01*
X165790602Y-53879172D01*
X165790609Y-53879185D01*
X165878210Y-54010288D01*
X165878213Y-54010292D01*
X165989707Y-54121786D01*
X165989711Y-54121789D01*
X166120814Y-54209390D01*
X166120827Y-54209397D01*
X166266498Y-54269735D01*
X166266503Y-54269737D01*
X166421153Y-54300499D01*
X166421156Y-54300500D01*
X166421158Y-54300500D01*
X166578844Y-54300500D01*
X166578845Y-54300499D01*
X166733497Y-54269737D01*
X166879179Y-54209394D01*
X167010289Y-54121789D01*
X167121789Y-54010289D01*
X167209394Y-53879179D01*
X167269737Y-53733497D01*
X167300500Y-53578842D01*
X167300500Y-53421158D01*
X167300500Y-53421155D01*
X167300499Y-53421153D01*
X167269738Y-53266510D01*
X167269737Y-53266503D01*
X167269735Y-53266498D01*
X167209397Y-53120827D01*
X167209390Y-53120814D01*
X167121789Y-52989711D01*
X167121786Y-52989707D01*
X167010292Y-52878213D01*
X167010288Y-52878210D01*
X166879185Y-52790609D01*
X166879172Y-52790602D01*
X166733501Y-52730264D01*
X166733489Y-52730261D01*
X166578845Y-52699500D01*
X166578842Y-52699500D01*
X166421158Y-52699500D01*
X166421155Y-52699500D01*
X166266510Y-52730261D01*
X166266498Y-52730264D01*
X166120827Y-52790602D01*
X166120814Y-52790609D01*
X165989711Y-52878210D01*
X165989707Y-52878213D01*
X165878213Y-52989707D01*
X165878210Y-52989711D01*
X165790609Y-53120814D01*
X165790602Y-53120827D01*
X165730264Y-53266498D01*
X165730261Y-53266510D01*
X165699500Y-53421153D01*
X149800500Y-53421153D01*
X149800500Y-47718209D01*
X152999500Y-47718209D01*
X152999500Y-48081790D01*
X153035137Y-48443630D01*
X153106064Y-48800212D01*
X153106067Y-48800223D01*
X153211614Y-49148165D01*
X153350754Y-49484078D01*
X153350756Y-49484083D01*
X153522140Y-49804720D01*
X153522151Y-49804738D01*
X153724140Y-50107035D01*
X153724150Y-50107049D01*
X153954807Y-50388106D01*
X154211893Y-50645192D01*
X154211898Y-50645196D01*
X154211899Y-50645197D01*
X154492956Y-50875854D01*
X154795268Y-51077853D01*
X154795277Y-51077858D01*
X154795279Y-51077859D01*
X155115916Y-51249243D01*
X155115918Y-51249243D01*
X155115924Y-51249247D01*
X155451836Y-51388386D01*
X155799767Y-51493930D01*
X155799773Y-51493931D01*
X155799776Y-51493932D01*
X155799787Y-51493935D01*
X156156369Y-51564862D01*
X156518206Y-51600500D01*
X156518209Y-51600500D01*
X156881791Y-51600500D01*
X156881794Y-51600500D01*
X157243631Y-51564862D01*
X157313045Y-51551054D01*
X157600212Y-51493935D01*
X157600223Y-51493932D01*
X157600223Y-51493931D01*
X157600233Y-51493930D01*
X157840146Y-51421153D01*
X164949500Y-51421153D01*
X164949500Y-51578846D01*
X164980261Y-51733489D01*
X164980264Y-51733501D01*
X165040602Y-51879172D01*
X165040609Y-51879185D01*
X165128210Y-52010288D01*
X165128213Y-52010292D01*
X165239707Y-52121786D01*
X165239711Y-52121789D01*
X165370814Y-52209390D01*
X165370827Y-52209397D01*
X165516498Y-52269735D01*
X165516503Y-52269737D01*
X165671153Y-52300499D01*
X165671156Y-52300500D01*
X165671158Y-52300500D01*
X165828844Y-52300500D01*
X165828845Y-52300499D01*
X165983497Y-52269737D01*
X166129179Y-52209394D01*
X166260289Y-52121789D01*
X166371789Y-52010289D01*
X166459394Y-51879179D01*
X166519737Y-51733497D01*
X166550500Y-51578842D01*
X166550500Y-51421158D01*
X166550500Y-51421155D01*
X166550499Y-51421153D01*
X166536196Y-51349247D01*
X166519737Y-51266503D01*
X166480242Y-51171153D01*
X175449500Y-51171153D01*
X175449500Y-51328846D01*
X175480261Y-51483489D01*
X175480264Y-51483501D01*
X175540602Y-51629172D01*
X175540609Y-51629185D01*
X175628210Y-51760288D01*
X175628213Y-51760292D01*
X175739707Y-51871786D01*
X175739711Y-51871789D01*
X175870814Y-51959390D01*
X175870827Y-51959397D01*
X176016498Y-52019735D01*
X176016503Y-52019737D01*
X176171153Y-52050499D01*
X176171156Y-52050500D01*
X176171158Y-52050500D01*
X176328844Y-52050500D01*
X176328845Y-52050499D01*
X176483497Y-52019737D01*
X176629179Y-51959394D01*
X176760289Y-51871789D01*
X176871789Y-51760289D01*
X176959394Y-51629179D01*
X177019737Y-51483497D01*
X177032138Y-51421153D01*
X180449500Y-51421153D01*
X180449500Y-51578846D01*
X180480261Y-51733489D01*
X180480264Y-51733501D01*
X180540602Y-51879172D01*
X180540609Y-51879185D01*
X180628210Y-52010288D01*
X180628213Y-52010292D01*
X180739707Y-52121786D01*
X180739711Y-52121789D01*
X180870814Y-52209390D01*
X180870827Y-52209397D01*
X181016498Y-52269735D01*
X181016503Y-52269737D01*
X181171153Y-52300499D01*
X181171156Y-52300500D01*
X181171158Y-52300500D01*
X181328844Y-52300500D01*
X181328845Y-52300499D01*
X181483497Y-52269737D01*
X181629179Y-52209394D01*
X181760289Y-52121789D01*
X181871789Y-52010289D01*
X181959394Y-51879179D01*
X182019737Y-51733497D01*
X182050500Y-51578842D01*
X182050500Y-51421158D01*
X182050500Y-51421155D01*
X182050499Y-51421153D01*
X182036196Y-51349247D01*
X182019737Y-51266503D01*
X182019735Y-51266498D01*
X181959397Y-51120827D01*
X181959390Y-51120814D01*
X181871789Y-50989711D01*
X181871786Y-50989707D01*
X181760292Y-50878213D01*
X181760288Y-50878210D01*
X181629185Y-50790609D01*
X181629172Y-50790602D01*
X181483501Y-50730264D01*
X181483489Y-50730261D01*
X181328845Y-50699500D01*
X181328842Y-50699500D01*
X181171158Y-50699500D01*
X181171155Y-50699500D01*
X181016510Y-50730261D01*
X181016498Y-50730264D01*
X180870827Y-50790602D01*
X180870814Y-50790609D01*
X180739711Y-50878210D01*
X180739707Y-50878213D01*
X180628213Y-50989707D01*
X180628210Y-50989711D01*
X180540609Y-51120814D01*
X180540602Y-51120827D01*
X180480264Y-51266498D01*
X180480261Y-51266510D01*
X180449500Y-51421153D01*
X177032138Y-51421153D01*
X177046442Y-51349243D01*
X177050500Y-51328844D01*
X177050500Y-51171155D01*
X177050499Y-51171153D01*
X177040486Y-51120814D01*
X177019737Y-51016503D01*
X177019735Y-51016498D01*
X176959397Y-50870827D01*
X176959390Y-50870814D01*
X176871789Y-50739711D01*
X176871786Y-50739707D01*
X176760292Y-50628213D01*
X176760288Y-50628210D01*
X176629185Y-50540609D01*
X176629172Y-50540602D01*
X176483501Y-50480264D01*
X176483489Y-50480261D01*
X176328845Y-50449500D01*
X176328842Y-50449500D01*
X176171158Y-50449500D01*
X176171155Y-50449500D01*
X176016510Y-50480261D01*
X176016498Y-50480264D01*
X175870827Y-50540602D01*
X175870814Y-50540609D01*
X175739711Y-50628210D01*
X175739707Y-50628213D01*
X175628213Y-50739707D01*
X175628210Y-50739711D01*
X175540609Y-50870814D01*
X175540602Y-50870827D01*
X175480264Y-51016498D01*
X175480261Y-51016510D01*
X175449500Y-51171153D01*
X166480242Y-51171153D01*
X166479933Y-51170408D01*
X166459397Y-51120827D01*
X166459390Y-51120814D01*
X166371789Y-50989711D01*
X166371786Y-50989707D01*
X166260292Y-50878213D01*
X166260288Y-50878210D01*
X166129185Y-50790609D01*
X166129172Y-50790602D01*
X165983501Y-50730264D01*
X165983489Y-50730261D01*
X165828845Y-50699500D01*
X165828842Y-50699500D01*
X165671158Y-50699500D01*
X165671155Y-50699500D01*
X165516510Y-50730261D01*
X165516498Y-50730264D01*
X165370827Y-50790602D01*
X165370814Y-50790609D01*
X165239711Y-50878210D01*
X165239707Y-50878213D01*
X165128213Y-50989707D01*
X165128210Y-50989711D01*
X165040609Y-51120814D01*
X165040602Y-51120827D01*
X164980264Y-51266498D01*
X164980261Y-51266510D01*
X164949500Y-51421153D01*
X157840146Y-51421153D01*
X157948164Y-51388386D01*
X158284076Y-51249247D01*
X158604732Y-51077853D01*
X158907044Y-50875854D01*
X159188101Y-50645197D01*
X159445197Y-50388101D01*
X159675854Y-50107044D01*
X159771739Y-49963543D01*
X173279499Y-49963543D01*
X173317947Y-50156829D01*
X173317950Y-50156839D01*
X173393364Y-50338907D01*
X173393371Y-50338920D01*
X173502860Y-50502781D01*
X173502863Y-50502785D01*
X173642214Y-50642136D01*
X173642218Y-50642139D01*
X173806079Y-50751628D01*
X173806092Y-50751635D01*
X173988160Y-50827049D01*
X173988165Y-50827051D01*
X173988169Y-50827051D01*
X173988170Y-50827052D01*
X174181456Y-50865500D01*
X174181459Y-50865500D01*
X174378543Y-50865500D01*
X174508582Y-50839632D01*
X174571835Y-50827051D01*
X174753914Y-50751632D01*
X174917782Y-50642139D01*
X175057139Y-50502782D01*
X175166632Y-50338914D01*
X175242051Y-50156835D01*
X175280500Y-49963541D01*
X175280500Y-49446333D01*
X175300185Y-49379294D01*
X175352989Y-49333539D01*
X175422147Y-49323595D01*
X175466501Y-49338947D01*
X175487859Y-49351278D01*
X175487860Y-49351278D01*
X175487865Y-49351281D01*
X175634234Y-49390500D01*
X175634236Y-49390500D01*
X175785764Y-49390500D01*
X175785766Y-49390500D01*
X175932135Y-49351281D01*
X176063365Y-49275515D01*
X176170515Y-49168365D01*
X176246281Y-49037135D01*
X176285500Y-48890766D01*
X176285500Y-48739234D01*
X180914500Y-48739234D01*
X180914500Y-48890766D01*
X180932888Y-48959390D01*
X180953719Y-49037136D01*
X180961435Y-49050500D01*
X181029485Y-49168365D01*
X181136635Y-49275515D01*
X181219912Y-49323595D01*
X181267861Y-49351279D01*
X181267865Y-49351281D01*
X181414234Y-49390500D01*
X181414236Y-49390500D01*
X181565764Y-49390500D01*
X181565766Y-49390500D01*
X181712135Y-49351281D01*
X181722451Y-49345325D01*
X181733499Y-49338947D01*
X181801398Y-49322473D01*
X181867426Y-49345325D01*
X181910617Y-49400245D01*
X181919500Y-49446333D01*
X181919500Y-49963541D01*
X181919500Y-49963543D01*
X181919499Y-49963543D01*
X181957947Y-50156829D01*
X181957950Y-50156839D01*
X182033364Y-50338907D01*
X182033371Y-50338920D01*
X182142860Y-50502781D01*
X182142863Y-50502785D01*
X182282214Y-50642136D01*
X182282218Y-50642139D01*
X182446079Y-50751628D01*
X182446092Y-50751635D01*
X182628160Y-50827049D01*
X182628165Y-50827051D01*
X182628169Y-50827051D01*
X182628170Y-50827052D01*
X182821456Y-50865500D01*
X182821459Y-50865500D01*
X183018543Y-50865500D01*
X183148582Y-50839632D01*
X183211835Y-50827051D01*
X183393914Y-50751632D01*
X183557782Y-50642139D01*
X183697139Y-50502782D01*
X183806632Y-50338914D01*
X183882051Y-50156835D01*
X183920500Y-49963541D01*
X183920500Y-48666459D01*
X183920500Y-48666456D01*
X183882052Y-48473170D01*
X183882051Y-48473169D01*
X183882051Y-48473165D01*
X183869817Y-48443630D01*
X183806635Y-48291092D01*
X183806628Y-48291079D01*
X183697139Y-48127218D01*
X183697136Y-48127214D01*
X183557785Y-47987863D01*
X183557781Y-47987860D01*
X183393920Y-47878371D01*
X183393907Y-47878364D01*
X183211839Y-47802950D01*
X183211829Y-47802947D01*
X183018543Y-47764500D01*
X183018541Y-47764500D01*
X182821459Y-47764500D01*
X182821457Y-47764500D01*
X182628170Y-47802947D01*
X182628160Y-47802950D01*
X182446092Y-47878364D01*
X182446079Y-47878371D01*
X182282218Y-47987860D01*
X182282214Y-47987863D01*
X182142863Y-48127214D01*
X182142860Y-48127218D01*
X182033371Y-48291079D01*
X182033363Y-48291094D01*
X182029456Y-48300528D01*
X181985615Y-48354931D01*
X181919320Y-48376995D01*
X181851621Y-48359715D01*
X181846968Y-48356566D01*
X181843366Y-48354486D01*
X181843365Y-48354485D01*
X181749899Y-48300522D01*
X181712136Y-48278719D01*
X181638950Y-48259109D01*
X181565766Y-48239500D01*
X181414234Y-48239500D01*
X181267863Y-48278719D01*
X181136635Y-48354485D01*
X181136632Y-48354487D01*
X181029487Y-48461632D01*
X181029485Y-48461635D01*
X180953719Y-48592863D01*
X180922495Y-48709397D01*
X180914500Y-48739234D01*
X176285500Y-48739234D01*
X176246281Y-48592865D01*
X176170515Y-48461635D01*
X176063365Y-48354485D01*
X175992838Y-48313766D01*
X175932136Y-48278719D01*
X175858950Y-48259109D01*
X175785766Y-48239500D01*
X175634234Y-48239500D01*
X175487863Y-48278719D01*
X175401050Y-48328842D01*
X175356635Y-48354485D01*
X175356633Y-48354486D01*
X175349597Y-48358549D01*
X175348254Y-48356224D01*
X175295391Y-48376647D01*
X175226949Y-48362592D01*
X175176971Y-48313766D01*
X175170540Y-48300522D01*
X175166632Y-48291087D01*
X175166628Y-48291079D01*
X175057139Y-48127218D01*
X175057136Y-48127214D01*
X174917785Y-47987863D01*
X174917781Y-47987860D01*
X174753920Y-47878371D01*
X174753907Y-47878364D01*
X174571839Y-47802950D01*
X174571829Y-47802947D01*
X174378543Y-47764500D01*
X174378541Y-47764500D01*
X174181459Y-47764500D01*
X174181457Y-47764500D01*
X173988170Y-47802947D01*
X173988160Y-47802950D01*
X173806092Y-47878364D01*
X173806079Y-47878371D01*
X173642218Y-47987860D01*
X173642214Y-47987863D01*
X173502863Y-48127214D01*
X173502860Y-48127218D01*
X173393371Y-48291079D01*
X173393364Y-48291092D01*
X173317950Y-48473160D01*
X173317947Y-48473170D01*
X173279500Y-48666456D01*
X173279500Y-48666459D01*
X173279500Y-49963541D01*
X173279500Y-49963543D01*
X173279499Y-49963543D01*
X159771739Y-49963543D01*
X159877853Y-49804732D01*
X160049247Y-49484076D01*
X160188386Y-49148164D01*
X160293930Y-48800233D01*
X160364862Y-48443631D01*
X160400500Y-48081794D01*
X160400500Y-47718206D01*
X160364862Y-47356369D01*
X160351781Y-47290606D01*
X160318557Y-47123571D01*
X160314956Y-47105467D01*
X185883814Y-47105467D01*
X185883814Y-47263160D01*
X185914575Y-47417803D01*
X185914578Y-47417815D01*
X185974916Y-47563486D01*
X185974923Y-47563499D01*
X186064406Y-47697418D01*
X186085284Y-47764095D01*
X186066800Y-47831475D01*
X186064408Y-47835198D01*
X186040607Y-47870819D01*
X186040602Y-47870828D01*
X185980264Y-48016498D01*
X185980261Y-48016510D01*
X185949500Y-48171153D01*
X185949500Y-48328846D01*
X185980261Y-48483489D01*
X185980264Y-48483501D01*
X186040602Y-48629172D01*
X186040609Y-48629185D01*
X186128210Y-48760288D01*
X186128213Y-48760292D01*
X186239707Y-48871786D01*
X186239711Y-48871789D01*
X186370814Y-48959390D01*
X186370827Y-48959397D01*
X186516498Y-49019735D01*
X186516503Y-49019737D01*
X186671153Y-49050499D01*
X186671156Y-49050500D01*
X186671158Y-49050500D01*
X186828844Y-49050500D01*
X186828845Y-49050499D01*
X186983497Y-49019737D01*
X187129179Y-48959394D01*
X187260289Y-48871789D01*
X187371789Y-48760289D01*
X187459394Y-48629179D01*
X187519737Y-48483497D01*
X187550500Y-48328842D01*
X187550500Y-48171158D01*
X187550500Y-48171155D01*
X187550499Y-48171153D01*
X187532137Y-48078842D01*
X187519737Y-48016503D01*
X187478314Y-47916498D01*
X187459397Y-47870827D01*
X187459390Y-47870814D01*
X187369907Y-47736894D01*
X187349029Y-47670217D01*
X187367513Y-47602836D01*
X187369893Y-47599134D01*
X187393708Y-47563493D01*
X187454051Y-47417811D01*
X187484814Y-47263156D01*
X187484814Y-47105472D01*
X187484814Y-47105469D01*
X187484813Y-47105467D01*
X187483679Y-47099767D01*
X187454051Y-46950817D01*
X187421316Y-46871786D01*
X187393711Y-46805141D01*
X187393704Y-46805128D01*
X187306103Y-46674025D01*
X187306100Y-46674021D01*
X187194606Y-46562527D01*
X187194602Y-46562524D01*
X187063499Y-46474923D01*
X187063486Y-46474916D01*
X186917815Y-46414578D01*
X186917803Y-46414575D01*
X186763159Y-46383814D01*
X186763156Y-46383814D01*
X186605472Y-46383814D01*
X186605469Y-46383814D01*
X186450824Y-46414575D01*
X186450812Y-46414578D01*
X186305141Y-46474916D01*
X186305128Y-46474923D01*
X186174025Y-46562524D01*
X186174021Y-46562527D01*
X186062527Y-46674021D01*
X186062524Y-46674025D01*
X185974923Y-46805128D01*
X185974916Y-46805141D01*
X185914578Y-46950812D01*
X185914575Y-46950824D01*
X185883814Y-47105467D01*
X160314956Y-47105467D01*
X160293935Y-46999787D01*
X160293932Y-46999776D01*
X160293931Y-46999773D01*
X160293930Y-46999767D01*
X160188386Y-46651836D01*
X160049247Y-46315924D01*
X160047222Y-46312136D01*
X159877859Y-45995279D01*
X159877858Y-45995277D01*
X159877853Y-45995268D01*
X159675854Y-45692956D01*
X159627095Y-45633543D01*
X173279499Y-45633543D01*
X173317947Y-45826829D01*
X173317950Y-45826839D01*
X173393364Y-46008907D01*
X173393371Y-46008920D01*
X173502860Y-46172781D01*
X173502863Y-46172785D01*
X173642214Y-46312136D01*
X173642218Y-46312139D01*
X173806079Y-46421628D01*
X173806092Y-46421635D01*
X173955423Y-46483489D01*
X173988165Y-46497051D01*
X173988169Y-46497051D01*
X173988170Y-46497052D01*
X174181456Y-46535500D01*
X174181459Y-46535500D01*
X174378543Y-46535500D01*
X174508582Y-46509632D01*
X174571835Y-46497051D01*
X174753914Y-46421632D01*
X174917782Y-46312139D01*
X175057139Y-46172782D01*
X175166632Y-46008914D01*
X175242051Y-45826835D01*
X175268680Y-45692964D01*
X175280500Y-45633543D01*
X181919499Y-45633543D01*
X181957947Y-45826829D01*
X181957950Y-45826839D01*
X182033364Y-46008907D01*
X182033371Y-46008920D01*
X182142860Y-46172781D01*
X182142863Y-46172785D01*
X182282214Y-46312136D01*
X182282218Y-46312139D01*
X182446079Y-46421628D01*
X182446092Y-46421635D01*
X182595423Y-46483489D01*
X182628165Y-46497051D01*
X182628169Y-46497051D01*
X182628170Y-46497052D01*
X182821456Y-46535500D01*
X182821459Y-46535500D01*
X183018543Y-46535500D01*
X183148582Y-46509632D01*
X183211835Y-46497051D01*
X183393914Y-46421632D01*
X183557782Y-46312139D01*
X183697139Y-46172782D01*
X183698227Y-46171153D01*
X187949500Y-46171153D01*
X187949500Y-46328846D01*
X187980261Y-46483489D01*
X187980264Y-46483501D01*
X188040602Y-46629172D01*
X188040609Y-46629185D01*
X188128210Y-46760288D01*
X188128213Y-46760292D01*
X188239707Y-46871786D01*
X188239711Y-46871789D01*
X188370814Y-46959390D01*
X188370827Y-46959397D01*
X188494054Y-47010439D01*
X188548458Y-47054280D01*
X188570523Y-47120574D01*
X188553244Y-47188273D01*
X188502107Y-47235884D01*
X188494054Y-47239561D01*
X188370827Y-47290602D01*
X188370814Y-47290609D01*
X188239711Y-47378210D01*
X188239707Y-47378213D01*
X188128213Y-47489707D01*
X188128210Y-47489711D01*
X188040609Y-47620814D01*
X188040602Y-47620827D01*
X187980264Y-47766498D01*
X187980261Y-47766510D01*
X187949500Y-47921153D01*
X187949500Y-48078846D01*
X187980261Y-48233489D01*
X187980264Y-48233501D01*
X188040602Y-48379172D01*
X188040609Y-48379185D01*
X188128210Y-48510288D01*
X188128213Y-48510292D01*
X188239707Y-48621786D01*
X188239711Y-48621789D01*
X188370814Y-48709390D01*
X188370827Y-48709397D01*
X188516498Y-48769735D01*
X188516503Y-48769737D01*
X188669710Y-48800212D01*
X188671153Y-48800499D01*
X188671156Y-48800500D01*
X188671158Y-48800500D01*
X188828844Y-48800500D01*
X188828845Y-48800499D01*
X188983497Y-48769737D01*
X189129179Y-48709394D01*
X189260289Y-48621789D01*
X189371789Y-48510289D01*
X189459394Y-48379179D01*
X189519737Y-48233497D01*
X189550500Y-48078842D01*
X189550500Y-47921158D01*
X189550500Y-47921155D01*
X189550499Y-47921153D01*
X189526987Y-47802950D01*
X189519737Y-47766503D01*
X189513749Y-47752046D01*
X189459397Y-47620827D01*
X189459390Y-47620814D01*
X189371789Y-47489711D01*
X189371786Y-47489707D01*
X189260292Y-47378213D01*
X189260288Y-47378210D01*
X189129185Y-47290609D01*
X189129172Y-47290602D01*
X189005945Y-47239561D01*
X188951541Y-47195721D01*
X188929476Y-47129427D01*
X188946755Y-47061727D01*
X188997892Y-47014116D01*
X189005945Y-47010439D01*
X189129172Y-46959397D01*
X189129172Y-46959396D01*
X189129179Y-46959394D01*
X189260289Y-46871789D01*
X189371789Y-46760289D01*
X189459394Y-46629179D01*
X189519737Y-46483497D01*
X189550500Y-46328842D01*
X189550500Y-46171158D01*
X189550500Y-46171155D01*
X189550499Y-46171153D01*
X191949500Y-46171153D01*
X191949500Y-46328846D01*
X191980261Y-46483489D01*
X191980264Y-46483501D01*
X192040602Y-46629172D01*
X192040609Y-46629185D01*
X192128210Y-46760288D01*
X192128213Y-46760292D01*
X192239707Y-46871786D01*
X192239711Y-46871789D01*
X192370814Y-46959390D01*
X192370827Y-46959397D01*
X192516498Y-47019735D01*
X192516503Y-47019737D01*
X192671153Y-47050499D01*
X192671156Y-47050500D01*
X192671158Y-47050500D01*
X192828844Y-47050500D01*
X192828845Y-47050499D01*
X192983497Y-47019737D01*
X193129179Y-46959394D01*
X193260289Y-46871789D01*
X193371789Y-46760289D01*
X193459394Y-46629179D01*
X193519737Y-46483497D01*
X193550500Y-46328842D01*
X193550500Y-46171158D01*
X193550500Y-46171155D01*
X193550499Y-46171153D01*
X193535585Y-46096175D01*
X193519737Y-46016503D01*
X193510938Y-45995261D01*
X193459397Y-45870827D01*
X193459390Y-45870814D01*
X193371789Y-45739711D01*
X193371786Y-45739707D01*
X193260292Y-45628213D01*
X193260288Y-45628210D01*
X193129185Y-45540609D01*
X193129172Y-45540602D01*
X192983501Y-45480264D01*
X192983489Y-45480261D01*
X192828845Y-45449500D01*
X192828842Y-45449500D01*
X192671158Y-45449500D01*
X192671155Y-45449500D01*
X192516510Y-45480261D01*
X192516498Y-45480264D01*
X192370827Y-45540602D01*
X192370814Y-45540609D01*
X192239711Y-45628210D01*
X192239707Y-45628213D01*
X192128213Y-45739707D01*
X192128210Y-45739711D01*
X192040609Y-45870814D01*
X192040602Y-45870827D01*
X191980264Y-46016498D01*
X191980261Y-46016510D01*
X191949500Y-46171153D01*
X189550499Y-46171153D01*
X189535585Y-46096175D01*
X189519737Y-46016503D01*
X189510938Y-45995261D01*
X189459397Y-45870827D01*
X189459390Y-45870814D01*
X189371789Y-45739711D01*
X189371786Y-45739707D01*
X189260292Y-45628213D01*
X189260288Y-45628210D01*
X189129185Y-45540609D01*
X189129172Y-45540602D01*
X188983501Y-45480264D01*
X188983489Y-45480261D01*
X188828845Y-45449500D01*
X188828842Y-45449500D01*
X188671158Y-45449500D01*
X188671155Y-45449500D01*
X188516510Y-45480261D01*
X188516498Y-45480264D01*
X188370827Y-45540602D01*
X188370814Y-45540609D01*
X188239711Y-45628210D01*
X188239707Y-45628213D01*
X188128213Y-45739707D01*
X188128210Y-45739711D01*
X188040609Y-45870814D01*
X188040602Y-45870827D01*
X187980264Y-46016498D01*
X187980261Y-46016510D01*
X187949500Y-46171153D01*
X183698227Y-46171153D01*
X183719167Y-46139813D01*
X183748327Y-46096175D01*
X183806628Y-46008920D01*
X183806628Y-46008919D01*
X183806632Y-46008914D01*
X183882051Y-45826835D01*
X183908680Y-45692964D01*
X183920500Y-45633543D01*
X183920500Y-44636456D01*
X183882052Y-44443170D01*
X183882051Y-44443169D01*
X183882051Y-44443165D01*
X183866685Y-44406067D01*
X183806635Y-44261092D01*
X183806628Y-44261079D01*
X183697139Y-44097218D01*
X183697136Y-44097214D01*
X183557785Y-43957863D01*
X183557781Y-43957860D01*
X183393920Y-43848371D01*
X183393907Y-43848364D01*
X183211839Y-43772950D01*
X183211829Y-43772947D01*
X183018543Y-43734500D01*
X183018541Y-43734500D01*
X182821459Y-43734500D01*
X182821457Y-43734500D01*
X182628170Y-43772947D01*
X182628160Y-43772950D01*
X182446092Y-43848364D01*
X182446079Y-43848371D01*
X182282218Y-43957860D01*
X182282214Y-43957863D01*
X182142863Y-44097214D01*
X182142860Y-44097218D01*
X182033371Y-44261079D01*
X182033364Y-44261092D01*
X181957950Y-44443160D01*
X181957947Y-44443170D01*
X181919500Y-44636456D01*
X181919500Y-44636459D01*
X181919500Y-45633541D01*
X181919500Y-45633543D01*
X181919499Y-45633543D01*
X175280500Y-45633543D01*
X175280500Y-44636456D01*
X175242052Y-44443170D01*
X175242051Y-44443169D01*
X175242051Y-44443165D01*
X175226685Y-44406067D01*
X175166635Y-44261092D01*
X175166628Y-44261079D01*
X175057139Y-44097218D01*
X175057136Y-44097214D01*
X174917785Y-43957863D01*
X174917781Y-43957860D01*
X174753920Y-43848371D01*
X174753907Y-43848364D01*
X174571839Y-43772950D01*
X174571829Y-43772947D01*
X174378543Y-43734500D01*
X174378541Y-43734500D01*
X174181459Y-43734500D01*
X174181457Y-43734500D01*
X173988170Y-43772947D01*
X173988160Y-43772950D01*
X173806092Y-43848364D01*
X173806079Y-43848371D01*
X173642218Y-43957860D01*
X173642214Y-43957863D01*
X173502863Y-44097214D01*
X173502860Y-44097218D01*
X173393371Y-44261079D01*
X173393364Y-44261092D01*
X173317950Y-44443160D01*
X173317947Y-44443170D01*
X173279500Y-44636456D01*
X173279500Y-44636459D01*
X173279500Y-45633541D01*
X173279500Y-45633543D01*
X173279499Y-45633543D01*
X159627095Y-45633543D01*
X159445197Y-45411899D01*
X159445196Y-45411898D01*
X159445192Y-45411893D01*
X159188106Y-45154807D01*
X158907049Y-44924150D01*
X158907048Y-44924149D01*
X158907044Y-44924146D01*
X158604732Y-44722147D01*
X158604726Y-44722144D01*
X158604720Y-44722140D01*
X158284083Y-44550756D01*
X158284078Y-44550754D01*
X157948165Y-44411614D01*
X157600223Y-44306067D01*
X157600212Y-44306064D01*
X157243630Y-44235137D01*
X156971111Y-44208296D01*
X156881794Y-44199500D01*
X156518206Y-44199500D01*
X156435679Y-44207628D01*
X156156369Y-44235137D01*
X155799787Y-44306064D01*
X155799776Y-44306067D01*
X155451834Y-44411614D01*
X155115921Y-44550754D01*
X155115916Y-44550756D01*
X154795279Y-44722140D01*
X154795261Y-44722151D01*
X154492964Y-44924140D01*
X154492950Y-44924150D01*
X154211893Y-45154807D01*
X153954807Y-45411893D01*
X153724150Y-45692950D01*
X153724140Y-45692964D01*
X153522151Y-45995261D01*
X153522140Y-45995279D01*
X153350756Y-46315916D01*
X153350754Y-46315921D01*
X153211614Y-46651834D01*
X153106067Y-46999776D01*
X153106064Y-46999787D01*
X153035137Y-47356369D01*
X153009235Y-47619361D01*
X153001548Y-47697418D01*
X152999500Y-47718209D01*
X149800500Y-47718209D01*
X149800500Y-43153589D01*
X149820185Y-43086550D01*
X149872989Y-43040795D01*
X149924500Y-43029589D01*
X218775898Y-43029589D01*
X218842937Y-43049274D01*
G37*
%TD.AperFunction*%
%TD*%
M02*
