%TF.GenerationSoftware,KiCad,Pcbnew,10.0.1*%
%TF.CreationDate,2026-06-24T16:32:23+01:00*%
%TF.ProjectId,ESP32_IoT_Board_Design,45535033-325f-4496-9f54-5f426f617264,rev?*%
%TF.SameCoordinates,Original*%
%TF.FileFunction,Legend,Bot*%
%TF.FilePolarity,Positive*%
%FSLAX46Y46*%
G04 Gerber Fmt 4.6, Leading zero omitted, Abs format (unit mm)*
G04 Created by KiCad (PCBNEW 10.0.1) date 2026-06-24 16:32:23*
%MOMM*%
%LPD*%
G01*
G04 APERTURE LIST*
%ADD10C,0.200000*%
%ADD11C,0.400000*%
%ADD12C,0.600000*%
G04 APERTURE END LIST*
D10*
X191554136Y-62751028D02*
X190554136Y-62751028D01*
X190125564Y-64322457D02*
X191554136Y-64322457D01*
X191554136Y-64322457D02*
X191554136Y-61322457D01*
X191554136Y-61322457D02*
X190125564Y-61322457D01*
X188982707Y-64179600D02*
X188554136Y-64322457D01*
X188554136Y-64322457D02*
X187839850Y-64322457D01*
X187839850Y-64322457D02*
X187554136Y-64179600D01*
X187554136Y-64179600D02*
X187411278Y-64036742D01*
X187411278Y-64036742D02*
X187268421Y-63751028D01*
X187268421Y-63751028D02*
X187268421Y-63465314D01*
X187268421Y-63465314D02*
X187411278Y-63179600D01*
X187411278Y-63179600D02*
X187554136Y-63036742D01*
X187554136Y-63036742D02*
X187839850Y-62893885D01*
X187839850Y-62893885D02*
X188411278Y-62751028D01*
X188411278Y-62751028D02*
X188696993Y-62608171D01*
X188696993Y-62608171D02*
X188839850Y-62465314D01*
X188839850Y-62465314D02*
X188982707Y-62179600D01*
X188982707Y-62179600D02*
X188982707Y-61893885D01*
X188982707Y-61893885D02*
X188839850Y-61608171D01*
X188839850Y-61608171D02*
X188696993Y-61465314D01*
X188696993Y-61465314D02*
X188411278Y-61322457D01*
X188411278Y-61322457D02*
X187696993Y-61322457D01*
X187696993Y-61322457D02*
X187268421Y-61465314D01*
X185982707Y-64322457D02*
X185982707Y-61322457D01*
X185982707Y-61322457D02*
X184839850Y-61322457D01*
X184839850Y-61322457D02*
X184554135Y-61465314D01*
X184554135Y-61465314D02*
X184411278Y-61608171D01*
X184411278Y-61608171D02*
X184268421Y-61893885D01*
X184268421Y-61893885D02*
X184268421Y-62322457D01*
X184268421Y-62322457D02*
X184411278Y-62608171D01*
X184411278Y-62608171D02*
X184554135Y-62751028D01*
X184554135Y-62751028D02*
X184839850Y-62893885D01*
X184839850Y-62893885D02*
X185982707Y-62893885D01*
X183268421Y-61322457D02*
X181411278Y-61322457D01*
X181411278Y-61322457D02*
X182411278Y-62465314D01*
X182411278Y-62465314D02*
X181982707Y-62465314D01*
X181982707Y-62465314D02*
X181696993Y-62608171D01*
X181696993Y-62608171D02*
X181554135Y-62751028D01*
X181554135Y-62751028D02*
X181411278Y-63036742D01*
X181411278Y-63036742D02*
X181411278Y-63751028D01*
X181411278Y-63751028D02*
X181554135Y-64036742D01*
X181554135Y-64036742D02*
X181696993Y-64179600D01*
X181696993Y-64179600D02*
X181982707Y-64322457D01*
X181982707Y-64322457D02*
X182839850Y-64322457D01*
X182839850Y-64322457D02*
X183125564Y-64179600D01*
X183125564Y-64179600D02*
X183268421Y-64036742D01*
X180268421Y-61608171D02*
X180125564Y-61465314D01*
X180125564Y-61465314D02*
X179839850Y-61322457D01*
X179839850Y-61322457D02*
X179125564Y-61322457D01*
X179125564Y-61322457D02*
X178839850Y-61465314D01*
X178839850Y-61465314D02*
X178696992Y-61608171D01*
X178696992Y-61608171D02*
X178554135Y-61893885D01*
X178554135Y-61893885D02*
X178554135Y-62179600D01*
X178554135Y-62179600D02*
X178696992Y-62608171D01*
X178696992Y-62608171D02*
X180411278Y-64322457D01*
X180411278Y-64322457D02*
X178554135Y-64322457D01*
X174982707Y-64322457D02*
X174982707Y-61322457D01*
X172982707Y-61322457D02*
X172411279Y-61322457D01*
X172411279Y-61322457D02*
X172125564Y-61465314D01*
X172125564Y-61465314D02*
X171839850Y-61751028D01*
X171839850Y-61751028D02*
X171696993Y-62322457D01*
X171696993Y-62322457D02*
X171696993Y-63322457D01*
X171696993Y-63322457D02*
X171839850Y-63893885D01*
X171839850Y-63893885D02*
X172125564Y-64179600D01*
X172125564Y-64179600D02*
X172411279Y-64322457D01*
X172411279Y-64322457D02*
X172982707Y-64322457D01*
X172982707Y-64322457D02*
X173268422Y-64179600D01*
X173268422Y-64179600D02*
X173554136Y-63893885D01*
X173554136Y-63893885D02*
X173696993Y-63322457D01*
X173696993Y-63322457D02*
X173696993Y-62322457D01*
X173696993Y-62322457D02*
X173554136Y-61751028D01*
X173554136Y-61751028D02*
X173268422Y-61465314D01*
X173268422Y-61465314D02*
X172982707Y-61322457D01*
X170839850Y-61322457D02*
X169125565Y-61322457D01*
X169982707Y-64322457D02*
X169982707Y-61322457D01*
X164839851Y-62751028D02*
X164411279Y-62893885D01*
X164411279Y-62893885D02*
X164268422Y-63036742D01*
X164268422Y-63036742D02*
X164125565Y-63322457D01*
X164125565Y-63322457D02*
X164125565Y-63751028D01*
X164125565Y-63751028D02*
X164268422Y-64036742D01*
X164268422Y-64036742D02*
X164411279Y-64179600D01*
X164411279Y-64179600D02*
X164696994Y-64322457D01*
X164696994Y-64322457D02*
X165839851Y-64322457D01*
X165839851Y-64322457D02*
X165839851Y-61322457D01*
X165839851Y-61322457D02*
X164839851Y-61322457D01*
X164839851Y-61322457D02*
X164554137Y-61465314D01*
X164554137Y-61465314D02*
X164411279Y-61608171D01*
X164411279Y-61608171D02*
X164268422Y-61893885D01*
X164268422Y-61893885D02*
X164268422Y-62179600D01*
X164268422Y-62179600D02*
X164411279Y-62465314D01*
X164411279Y-62465314D02*
X164554137Y-62608171D01*
X164554137Y-62608171D02*
X164839851Y-62751028D01*
X164839851Y-62751028D02*
X165839851Y-62751028D01*
X162268422Y-61322457D02*
X161696994Y-61322457D01*
X161696994Y-61322457D02*
X161411279Y-61465314D01*
X161411279Y-61465314D02*
X161125565Y-61751028D01*
X161125565Y-61751028D02*
X160982708Y-62322457D01*
X160982708Y-62322457D02*
X160982708Y-63322457D01*
X160982708Y-63322457D02*
X161125565Y-63893885D01*
X161125565Y-63893885D02*
X161411279Y-64179600D01*
X161411279Y-64179600D02*
X161696994Y-64322457D01*
X161696994Y-64322457D02*
X162268422Y-64322457D01*
X162268422Y-64322457D02*
X162554137Y-64179600D01*
X162554137Y-64179600D02*
X162839851Y-63893885D01*
X162839851Y-63893885D02*
X162982708Y-63322457D01*
X162982708Y-63322457D02*
X162982708Y-62322457D01*
X162982708Y-62322457D02*
X162839851Y-61751028D01*
X162839851Y-61751028D02*
X162554137Y-61465314D01*
X162554137Y-61465314D02*
X162268422Y-61322457D01*
X159839851Y-63465314D02*
X158411280Y-63465314D01*
X160125565Y-64322457D02*
X159125565Y-61322457D01*
X159125565Y-61322457D02*
X158125565Y-64322457D01*
X155411279Y-64322457D02*
X156411279Y-62893885D01*
X157125565Y-64322457D02*
X157125565Y-61322457D01*
X157125565Y-61322457D02*
X155982708Y-61322457D01*
X155982708Y-61322457D02*
X155696993Y-61465314D01*
X155696993Y-61465314D02*
X155554136Y-61608171D01*
X155554136Y-61608171D02*
X155411279Y-61893885D01*
X155411279Y-61893885D02*
X155411279Y-62322457D01*
X155411279Y-62322457D02*
X155554136Y-62608171D01*
X155554136Y-62608171D02*
X155696993Y-62751028D01*
X155696993Y-62751028D02*
X155982708Y-62893885D01*
X155982708Y-62893885D02*
X157125565Y-62893885D01*
X154125565Y-64322457D02*
X154125565Y-61322457D01*
X154125565Y-61322457D02*
X153411279Y-61322457D01*
X153411279Y-61322457D02*
X152982708Y-61465314D01*
X152982708Y-61465314D02*
X152696993Y-61751028D01*
X152696993Y-61751028D02*
X152554136Y-62036742D01*
X152554136Y-62036742D02*
X152411279Y-62608171D01*
X152411279Y-62608171D02*
X152411279Y-63036742D01*
X152411279Y-63036742D02*
X152554136Y-63608171D01*
X152554136Y-63608171D02*
X152696993Y-63893885D01*
X152696993Y-63893885D02*
X152982708Y-64179600D01*
X152982708Y-64179600D02*
X153411279Y-64322457D01*
X153411279Y-64322457D02*
X154125565Y-64322457D01*
D11*
X188358271Y-81034438D02*
X189310652Y-81034438D01*
X189310652Y-81034438D02*
X189310652Y-79034438D01*
X187786842Y-80463009D02*
X186834461Y-80463009D01*
X187977318Y-81034438D02*
X187310652Y-79034438D01*
X187310652Y-79034438D02*
X186643985Y-81034438D01*
X184834461Y-81034438D02*
X185501128Y-80082057D01*
X185977318Y-81034438D02*
X185977318Y-79034438D01*
X185977318Y-79034438D02*
X185215413Y-79034438D01*
X185215413Y-79034438D02*
X185024937Y-79129676D01*
X185024937Y-79129676D02*
X184929699Y-79224914D01*
X184929699Y-79224914D02*
X184834461Y-79415390D01*
X184834461Y-79415390D02*
X184834461Y-79701104D01*
X184834461Y-79701104D02*
X184929699Y-79891580D01*
X184929699Y-79891580D02*
X185024937Y-79986819D01*
X185024937Y-79986819D02*
X185215413Y-80082057D01*
X185215413Y-80082057D02*
X185977318Y-80082057D01*
X183310651Y-79986819D02*
X183024937Y-80082057D01*
X183024937Y-80082057D02*
X182929699Y-80177295D01*
X182929699Y-80177295D02*
X182834461Y-80367771D01*
X182834461Y-80367771D02*
X182834461Y-80653485D01*
X182834461Y-80653485D02*
X182929699Y-80843961D01*
X182929699Y-80843961D02*
X183024937Y-80939200D01*
X183024937Y-80939200D02*
X183215413Y-81034438D01*
X183215413Y-81034438D02*
X183977318Y-81034438D01*
X183977318Y-81034438D02*
X183977318Y-79034438D01*
X183977318Y-79034438D02*
X183310651Y-79034438D01*
X183310651Y-79034438D02*
X183120175Y-79129676D01*
X183120175Y-79129676D02*
X183024937Y-79224914D01*
X183024937Y-79224914D02*
X182929699Y-79415390D01*
X182929699Y-79415390D02*
X182929699Y-79605866D01*
X182929699Y-79605866D02*
X183024937Y-79796342D01*
X183024937Y-79796342D02*
X183120175Y-79891580D01*
X183120175Y-79891580D02*
X183310651Y-79986819D01*
X183310651Y-79986819D02*
X183977318Y-79986819D01*
X181977318Y-81034438D02*
X181977318Y-79034438D01*
X179501127Y-81034438D02*
X179501127Y-79034438D01*
X179501127Y-79034438D02*
X178834460Y-80463009D01*
X178834460Y-80463009D02*
X178167794Y-79034438D01*
X178167794Y-79034438D02*
X178167794Y-81034438D01*
X176834461Y-79034438D02*
X176453508Y-79034438D01*
X176453508Y-79034438D02*
X176263032Y-79129676D01*
X176263032Y-79129676D02*
X176072556Y-79320152D01*
X176072556Y-79320152D02*
X175977318Y-79701104D01*
X175977318Y-79701104D02*
X175977318Y-80367771D01*
X175977318Y-80367771D02*
X176072556Y-80748723D01*
X176072556Y-80748723D02*
X176263032Y-80939200D01*
X176263032Y-80939200D02*
X176453508Y-81034438D01*
X176453508Y-81034438D02*
X176834461Y-81034438D01*
X176834461Y-81034438D02*
X177024937Y-80939200D01*
X177024937Y-80939200D02*
X177215413Y-80748723D01*
X177215413Y-80748723D02*
X177310651Y-80367771D01*
X177310651Y-80367771D02*
X177310651Y-79701104D01*
X177310651Y-79701104D02*
X177215413Y-79320152D01*
X177215413Y-79320152D02*
X177024937Y-79129676D01*
X177024937Y-79129676D02*
X176834461Y-79034438D01*
X175120175Y-81034438D02*
X175120175Y-79034438D01*
X175120175Y-79986819D02*
X173977318Y-79986819D01*
X173977318Y-81034438D02*
X173977318Y-79034438D01*
X173120175Y-80463009D02*
X172167794Y-80463009D01*
X173310651Y-81034438D02*
X172643985Y-79034438D01*
X172643985Y-79034438D02*
X171977318Y-81034438D01*
X171310651Y-81034438D02*
X171310651Y-79034438D01*
X171310651Y-79034438D02*
X170643984Y-80463009D01*
X170643984Y-80463009D02*
X169977318Y-79034438D01*
X169977318Y-79034438D02*
X169977318Y-81034438D01*
X169024937Y-79986819D02*
X168358270Y-79986819D01*
X168072556Y-81034438D02*
X169024937Y-81034438D01*
X169024937Y-81034438D02*
X169024937Y-79034438D01*
X169024937Y-79034438D02*
X168072556Y-79034438D01*
X167215413Y-81034438D02*
X167215413Y-79034438D01*
X167215413Y-79034438D02*
X166739223Y-79034438D01*
X166739223Y-79034438D02*
X166453508Y-79129676D01*
X166453508Y-79129676D02*
X166263032Y-79320152D01*
X166263032Y-79320152D02*
X166167794Y-79510628D01*
X166167794Y-79510628D02*
X166072556Y-79891580D01*
X166072556Y-79891580D02*
X166072556Y-80177295D01*
X166072556Y-80177295D02*
X166167794Y-80558247D01*
X166167794Y-80558247D02*
X166263032Y-80748723D01*
X166263032Y-80748723D02*
X166453508Y-80939200D01*
X166453508Y-80939200D02*
X166739223Y-81034438D01*
X166739223Y-81034438D02*
X167215413Y-81034438D01*
X162548746Y-81034438D02*
X163215413Y-80082057D01*
X163691603Y-81034438D02*
X163691603Y-79034438D01*
X163691603Y-79034438D02*
X162929698Y-79034438D01*
X162929698Y-79034438D02*
X162739222Y-79129676D01*
X162739222Y-79129676D02*
X162643984Y-79224914D01*
X162643984Y-79224914D02*
X162548746Y-79415390D01*
X162548746Y-79415390D02*
X162548746Y-79701104D01*
X162548746Y-79701104D02*
X162643984Y-79891580D01*
X162643984Y-79891580D02*
X162739222Y-79986819D01*
X162739222Y-79986819D02*
X162929698Y-80082057D01*
X162929698Y-80082057D02*
X163691603Y-80082057D01*
X161691603Y-79986819D02*
X161024936Y-79986819D01*
X160739222Y-81034438D02*
X161691603Y-81034438D01*
X161691603Y-81034438D02*
X161691603Y-79034438D01*
X161691603Y-79034438D02*
X160739222Y-79034438D01*
X159882079Y-81034438D02*
X159882079Y-79034438D01*
X159882079Y-79034438D02*
X159405889Y-79034438D01*
X159405889Y-79034438D02*
X159120174Y-79129676D01*
X159120174Y-79129676D02*
X158929698Y-79320152D01*
X158929698Y-79320152D02*
X158834460Y-79510628D01*
X158834460Y-79510628D02*
X158739222Y-79891580D01*
X158739222Y-79891580D02*
X158739222Y-80177295D01*
X158739222Y-80177295D02*
X158834460Y-80558247D01*
X158834460Y-80558247D02*
X158929698Y-80748723D01*
X158929698Y-80748723D02*
X159120174Y-80939200D01*
X159120174Y-80939200D02*
X159405889Y-81034438D01*
X159405889Y-81034438D02*
X159882079Y-81034438D01*
X157882079Y-81034438D02*
X157882079Y-79034438D01*
X157882079Y-79986819D02*
X156739222Y-79986819D01*
X156739222Y-81034438D02*
X156739222Y-79034438D01*
X155882079Y-80463009D02*
X154929698Y-80463009D01*
X156072555Y-81034438D02*
X155405889Y-79034438D01*
X155405889Y-79034438D02*
X154739222Y-81034438D01*
D12*
X189290978Y-76951657D02*
X189290978Y-73951657D01*
X189290978Y-73951657D02*
X188290978Y-76094514D01*
X188290978Y-76094514D02*
X187290978Y-73951657D01*
X187290978Y-73951657D02*
X187290978Y-76951657D01*
X184576693Y-76951657D02*
X184576693Y-75380228D01*
X184576693Y-75380228D02*
X184719550Y-75094514D01*
X184719550Y-75094514D02*
X185005264Y-74951657D01*
X185005264Y-74951657D02*
X185576693Y-74951657D01*
X185576693Y-74951657D02*
X185862407Y-75094514D01*
X184576693Y-76808800D02*
X184862407Y-76951657D01*
X184862407Y-76951657D02*
X185576693Y-76951657D01*
X185576693Y-76951657D02*
X185862407Y-76808800D01*
X185862407Y-76808800D02*
X186005264Y-76523085D01*
X186005264Y-76523085D02*
X186005264Y-76237371D01*
X186005264Y-76237371D02*
X185862407Y-75951657D01*
X185862407Y-75951657D02*
X185576693Y-75808800D01*
X185576693Y-75808800D02*
X184862407Y-75808800D01*
X184862407Y-75808800D02*
X184576693Y-75665942D01*
X181862407Y-76951657D02*
X181862407Y-73951657D01*
X181862407Y-76808800D02*
X182148121Y-76951657D01*
X182148121Y-76951657D02*
X182719549Y-76951657D01*
X182719549Y-76951657D02*
X183005264Y-76808800D01*
X183005264Y-76808800D02*
X183148121Y-76665942D01*
X183148121Y-76665942D02*
X183290978Y-76380228D01*
X183290978Y-76380228D02*
X183290978Y-75523085D01*
X183290978Y-75523085D02*
X183148121Y-75237371D01*
X183148121Y-75237371D02*
X183005264Y-75094514D01*
X183005264Y-75094514D02*
X182719549Y-74951657D01*
X182719549Y-74951657D02*
X182148121Y-74951657D01*
X182148121Y-74951657D02*
X181862407Y-75094514D01*
X179290978Y-76808800D02*
X179576692Y-76951657D01*
X179576692Y-76951657D02*
X180148121Y-76951657D01*
X180148121Y-76951657D02*
X180433835Y-76808800D01*
X180433835Y-76808800D02*
X180576692Y-76523085D01*
X180576692Y-76523085D02*
X180576692Y-75380228D01*
X180576692Y-75380228D02*
X180433835Y-75094514D01*
X180433835Y-75094514D02*
X180148121Y-74951657D01*
X180148121Y-74951657D02*
X179576692Y-74951657D01*
X179576692Y-74951657D02*
X179290978Y-75094514D01*
X179290978Y-75094514D02*
X179148121Y-75380228D01*
X179148121Y-75380228D02*
X179148121Y-75665942D01*
X179148121Y-75665942D02*
X180576692Y-75951657D01*
X175576692Y-76951657D02*
X175576692Y-73951657D01*
X175576692Y-75094514D02*
X175290978Y-74951657D01*
X175290978Y-74951657D02*
X174719549Y-74951657D01*
X174719549Y-74951657D02*
X174433835Y-75094514D01*
X174433835Y-75094514D02*
X174290978Y-75237371D01*
X174290978Y-75237371D02*
X174148120Y-75523085D01*
X174148120Y-75523085D02*
X174148120Y-76380228D01*
X174148120Y-76380228D02*
X174290978Y-76665942D01*
X174290978Y-76665942D02*
X174433835Y-76808800D01*
X174433835Y-76808800D02*
X174719549Y-76951657D01*
X174719549Y-76951657D02*
X175290978Y-76951657D01*
X175290978Y-76951657D02*
X175576692Y-76808800D01*
X173148120Y-74951657D02*
X172433834Y-76951657D01*
X171719549Y-74951657D02*
X172433834Y-76951657D01*
X172433834Y-76951657D02*
X172719549Y-77665942D01*
X172719549Y-77665942D02*
X172862406Y-77808800D01*
X172862406Y-77808800D02*
X173148120Y-77951657D01*
X170576692Y-76665942D02*
X170433835Y-76808800D01*
X170433835Y-76808800D02*
X170576692Y-76951657D01*
X170576692Y-76951657D02*
X170719549Y-76808800D01*
X170719549Y-76808800D02*
X170576692Y-76665942D01*
X170576692Y-76665942D02*
X170576692Y-76951657D01*
X170576692Y-75094514D02*
X170433835Y-75237371D01*
X170433835Y-75237371D02*
X170576692Y-75380228D01*
X170576692Y-75380228D02*
X170719549Y-75237371D01*
X170719549Y-75237371D02*
X170576692Y-75094514D01*
X170576692Y-75094514D02*
X170576692Y-75380228D01*
M02*
