%TF.GenerationSoftware,KiCad,Pcbnew,10.0.1*%
%TF.CreationDate,2026-06-30T15:13:06+01:00*%
%TF.ProjectId,ESP32_IoT_Board_Design,45535033-325f-4496-9f54-5f426f617264,rev?*%
%TF.SameCoordinates,Original*%
%TF.FileFunction,Copper,L4,Bot*%
%TF.FilePolarity,Positive*%
%FSLAX46Y46*%
G04 Gerber Fmt 4.6, Leading zero omitted, Abs format (unit mm)*
G04 Created by KiCad (PCBNEW 10.0.1) date 2026-06-30 15:13:06*
%MOMM*%
%LPD*%
G01*
G04 APERTURE LIST*
%TA.AperFunction,ComponentPad*%
%ADD10C,6.400000*%
%TD*%
%TA.AperFunction,ComponentPad*%
%ADD11C,0.600000*%
%TD*%
%TA.AperFunction,SMDPad,CuDef*%
%ADD12R,2.800000X2.800000*%
%TD*%
%TA.AperFunction,HeatsinkPad*%
%ADD13C,0.600000*%
%TD*%
%TA.AperFunction,ComponentPad*%
%ADD14R,1.700000X1.700000*%
%TD*%
%TA.AperFunction,ComponentPad*%
%ADD15C,1.700000*%
%TD*%
%TA.AperFunction,ComponentPad*%
%ADD16O,1.000000X2.100000*%
%TD*%
%TA.AperFunction,ComponentPad*%
%ADD17O,1.000000X1.800000*%
%TD*%
%TA.AperFunction,ViaPad*%
%ADD18C,0.700000*%
%TD*%
%TA.AperFunction,Conductor*%
%ADD19C,0.250000*%
%TD*%
%TA.AperFunction,Conductor*%
%ADD20C,0.152400*%
%TD*%
%TA.AperFunction,Conductor*%
%ADD21C,0.200000*%
%TD*%
G04 APERTURE END LIST*
D10*
%TO.P,REF\u002A\u002A,1*%
%TO.N,N/C*%
X214800000Y-47000000D03*
%TD*%
D11*
%TO.P,U4,21,GND_21*%
%TO.N,GND*%
X190400000Y-63700000D03*
X190850000Y-64150000D03*
X190400000Y-64150000D03*
D12*
X190400000Y-64150000D03*
D11*
X189950000Y-64150000D03*
X190400000Y-64600000D03*
%TD*%
D13*
%TO.P,U1,39,GND_39*%
%TO.N,GND*%
X204500000Y-74350000D03*
X202975000Y-74350000D03*
X205262500Y-75112500D03*
X203737500Y-75112500D03*
X202212500Y-75112500D03*
X204500000Y-75875000D03*
X202975000Y-75875000D03*
X205262500Y-76637500D03*
X203737500Y-76637500D03*
X202212500Y-76637500D03*
X204500000Y-77400000D03*
X202975000Y-77400000D03*
%TD*%
D14*
%TO.P,J3,1,Pin_1_1*%
%TO.N,3V3*%
X189250000Y-99430000D03*
D15*
%TO.P,J3,2,Pin_2_2*%
%TO.N,GND*%
X189250000Y-96890000D03*
%TO.P,J3,3,Pin_3_3*%
%TO.N,MOSI*%
X189250000Y-94350000D03*
%TO.P,J3,4,Pin_4_4*%
%TO.N,MISO*%
X189250000Y-91810000D03*
%TO.P,J3,5,Pin_5_5*%
%TO.N,SCLK*%
X189250000Y-89270000D03*
%TO.P,J3,6,Pin_6_6*%
%TO.N,CS*%
X189250000Y-86730000D03*
%TD*%
D14*
%TO.P,J2,1,Pin_1_1*%
%TO.N,3V3*%
X200030000Y-99210000D03*
D15*
%TO.P,J2,2,Pin_2_2*%
%TO.N,GND*%
X200030000Y-96670000D03*
%TO.P,J2,3,Pin_3_3*%
%TO.N,SDA*%
X200030000Y-94130000D03*
%TO.P,J2,4,Pin_4_4*%
%TO.N,SCL*%
X200030000Y-91590000D03*
%TD*%
D10*
%TO.P,REF\u002A\u002A,1*%
%TO.N,N/C*%
X181200000Y-98500000D03*
%TD*%
D14*
%TO.P,J4,1,Pin_1_1*%
%TO.N,3V3*%
X194850000Y-99130000D03*
D15*
%TO.P,J4,2,Pin_2_2*%
%TO.N,GND*%
X194850000Y-96590000D03*
%TO.P,J4,3,Pin_3_3*%
%TO.N,TXD2*%
X194850000Y-94050000D03*
%TO.P,J4,4,Pin_4_4*%
%TO.N,RXD2*%
X194850000Y-91510000D03*
%TD*%
D10*
%TO.P,REF\u002A\u002A,1*%
%TO.N,N/C*%
X179950000Y-46450000D03*
%TD*%
D16*
%TO.P,J1,SH,SHIELD_SH*%
%TO.N,Net-(J1-SHIELD)*%
X195720000Y-49355000D03*
D17*
X195720000Y-45175000D03*
D16*
X187080000Y-49355000D03*
D17*
X187080000Y-45175000D03*
%TD*%
D18*
%TO.N,GND*%
X178350000Y-77700000D03*
X195400000Y-51700000D03*
X190600000Y-55150000D03*
X211400000Y-87450000D03*
X184050000Y-63550000D03*
X178150000Y-84550000D03*
X193300000Y-59750000D03*
X191450000Y-70750000D03*
X184050000Y-60100000D03*
X185500000Y-50100000D03*
X202550000Y-62350000D03*
X186184314Y-58865686D03*
X183600000Y-43750000D03*
X191300000Y-61050000D03*
X193600000Y-63450000D03*
X197900000Y-43900000D03*
X196200000Y-55950000D03*
X200050000Y-58500000D03*
X209200000Y-60950000D03*
X204450000Y-43750000D03*
X191500000Y-68200000D03*
X210850000Y-43750000D03*
%TO.N,EN*%
X207050000Y-62850000D03*
X202500000Y-48700000D03*
X208600000Y-69500000D03*
X207450000Y-96550000D03*
%TO.N,3V3*%
X187950000Y-70250000D03*
X209800000Y-63900000D03*
X199400000Y-63900000D03*
X194750000Y-88850000D03*
X204500000Y-93650000D03*
X196100000Y-65650000D03*
X185150000Y-72950000D03*
X186400000Y-82500000D03*
%TO.N,5V_USB*%
X185200000Y-56750000D03*
X198450000Y-58450000D03*
X204350000Y-88950000D03*
X193000000Y-57950000D03*
X187450000Y-61850000D03*
%TO.N,USB_N*%
X192626200Y-52052415D03*
X191321385Y-52052415D03*
%TO.N,TX0*%
X205400000Y-83400000D03*
X193350000Y-64700000D03*
%TO.N,IO0*%
X204500000Y-48550000D03*
X195850000Y-83850000D03*
X204050000Y-100750000D03*
%TO.N,SCLK*%
X200650000Y-87050000D03*
X191750000Y-89150000D03*
%TO.N,MISO*%
X191700000Y-91500000D03*
X201950000Y-88050000D03*
%TO.N,SCL*%
X202250000Y-89300000D03*
X208000000Y-87350000D03*
%TO.N,MOSI*%
X191900000Y-94250000D03*
X209750000Y-87250000D03*
%TO.N,VBUS*%
X183250000Y-53950000D03*
X195250000Y-54000000D03*
X202700000Y-54800000D03*
X204900000Y-50850000D03*
X185550000Y-66750000D03*
X193850000Y-51450000D03*
%TO.N,/CC2*%
X200000000Y-52700000D03*
X210050000Y-51200000D03*
X190700000Y-53750000D03*
%TO.N,PG*%
X204800000Y-53050000D03*
X179850000Y-71450000D03*
%TD*%
%TO.N,EN*%
D19*
X210475000Y-71375000D02*
X208600000Y-69500000D01*
X207050000Y-53900000D02*
X207050000Y-62850000D01*
X202500000Y-49350000D02*
X207050000Y-53900000D01*
X207450000Y-96550000D02*
X210475000Y-93525000D01*
X202500000Y-48700000D02*
X202500000Y-49350000D01*
X210475000Y-93525000D02*
X210475000Y-71375000D01*
%TO.N,USB_N*%
D20*
X191321385Y-52052415D02*
X192852415Y-52052415D01*
%TO.N,TX0*%
D19*
X193350000Y-71350000D02*
X193350000Y-64700000D01*
X205400000Y-83400000D02*
X193350000Y-71350000D01*
%TO.N,SCLK*%
X192175000Y-89575000D02*
X198125000Y-89575000D01*
X191750000Y-89150000D02*
X192175000Y-89575000D01*
X198125000Y-89575000D02*
X200650000Y-87050000D01*
%TO.N,MISO*%
X192915000Y-90285000D02*
X199715000Y-90285000D01*
X191700000Y-91500000D02*
X192915000Y-90285000D01*
X199715000Y-90285000D02*
X201950000Y-88050000D01*
%TO.N,SCL*%
X202250000Y-89300000D02*
X204200000Y-87350000D01*
X204200000Y-87350000D02*
X208000000Y-87350000D01*
%TO.N,MOSI*%
X204175000Y-92825000D02*
X209750000Y-87250000D01*
X193325000Y-92825000D02*
X204175000Y-92825000D01*
X191900000Y-94250000D02*
X193325000Y-92825000D01*
%TO.N,/CC2*%
D21*
X191750000Y-52700000D02*
X200000000Y-52700000D01*
X190700000Y-53750000D02*
X191750000Y-52700000D01*
%TO.N,PG*%
X202860050Y-53050000D02*
X204800000Y-53050000D01*
X197260050Y-58650000D02*
X202860050Y-53050000D01*
X179850000Y-71450000D02*
X179850000Y-71200000D01*
X192400000Y-58650000D02*
X197260050Y-58650000D01*
X179850000Y-71200000D02*
X192400000Y-58650000D01*
%TD*%
M02*
