%TF.GenerationSoftware,KiCad,Pcbnew,10.0.1*%
%TF.CreationDate,2026-06-30T15:13:06+01:00*%
%TF.ProjectId,ESP32_IoT_Board_Design,45535033-325f-4496-9f54-5f426f617264,rev?*%
%TF.SameCoordinates,Original*%
%TF.FileFunction,Soldermask,Top*%
%TF.FilePolarity,Negative*%
%FSLAX46Y46*%
G04 Gerber Fmt 4.6, Leading zero omitted, Abs format (unit mm)*
G04 Created by KiCad (PCBNEW 10.0.1) date 2026-06-30 15:13:06*
%MOMM*%
%LPD*%
G01*
G04 APERTURE LIST*
G04 APERTURE END LIST*
G36*
X206091342Y-100938060D02*
G01*
X206204381Y-101003323D01*
X206296677Y-101095619D01*
X206361940Y-101208658D01*
X206395722Y-101334737D01*
X206395722Y-101465263D01*
X206361940Y-101591342D01*
X206296677Y-101704381D01*
X206204381Y-101796677D01*
X206091342Y-101861940D01*
X205965263Y-101895722D01*
X205834737Y-101895722D01*
X205708658Y-101861940D01*
X205595619Y-101796677D01*
X205503323Y-101704381D01*
X205438060Y-101591342D01*
X205404278Y-101465263D01*
X205404278Y-101334737D01*
X205438060Y-101208658D01*
X205503323Y-101095619D01*
X205595619Y-101003323D01*
X205708658Y-100938060D01*
X205834737Y-100904278D01*
X205965263Y-100904278D01*
X206091342Y-100938060D01*
G37*
G36*
X181368370Y-95305034D02*
G01*
X181379425Y-95305034D01*
X181456175Y-95313681D01*
X181669524Y-95334694D01*
X181704619Y-95341675D01*
X181736020Y-95345213D01*
X181828343Y-95366285D01*
X181977518Y-95395958D01*
X182035777Y-95413630D01*
X182085874Y-95425065D01*
X182166667Y-95453335D01*
X182278030Y-95487117D01*
X182358676Y-95520521D01*
X182424587Y-95543585D01*
X182487506Y-95573885D01*
X182568149Y-95607289D01*
X182670770Y-95662141D01*
X182747900Y-95699285D01*
X182791411Y-95726624D01*
X182845098Y-95755321D01*
X182971546Y-95839811D01*
X183051748Y-95890205D01*
X183076459Y-95909911D01*
X183106199Y-95929783D01*
X183271882Y-96065756D01*
X183332309Y-96113945D01*
X183340129Y-96121765D01*
X183348952Y-96129006D01*
X183570993Y-96351047D01*
X183578233Y-96359869D01*
X183586055Y-96367691D01*
X183634249Y-96428124D01*
X183770216Y-96593800D01*
X183790086Y-96623538D01*
X183809795Y-96648252D01*
X183860193Y-96728461D01*
X183944678Y-96854901D01*
X183973371Y-96908583D01*
X184000715Y-96952100D01*
X184037862Y-97029237D01*
X184092710Y-97131850D01*
X184126110Y-97212484D01*
X184156415Y-97275413D01*
X184179481Y-97341332D01*
X184212882Y-97421969D01*
X184246659Y-97533317D01*
X184274935Y-97614126D01*
X184286371Y-97664231D01*
X184304041Y-97722481D01*
X184333708Y-97871629D01*
X184354787Y-97963980D01*
X184358326Y-97995389D01*
X184365305Y-98030475D01*
X184386315Y-98243803D01*
X184394966Y-98320575D01*
X184394966Y-98331630D01*
X184396084Y-98342982D01*
X184396084Y-98657017D01*
X184394966Y-98668368D01*
X184394966Y-98679425D01*
X184386315Y-98756203D01*
X184365305Y-98969524D01*
X184358326Y-99004608D01*
X184354787Y-99036020D01*
X184333707Y-99128377D01*
X184304041Y-99277518D01*
X184286372Y-99335764D01*
X184274935Y-99385874D01*
X184246656Y-99466688D01*
X184212882Y-99578030D01*
X184179483Y-99658660D01*
X184156415Y-99724587D01*
X184126107Y-99787521D01*
X184092710Y-99868149D01*
X184037867Y-99970751D01*
X184000715Y-100047900D01*
X183973368Y-100091422D01*
X183944678Y-100145098D01*
X183860204Y-100271521D01*
X183809795Y-100351748D01*
X183790082Y-100376466D01*
X183770216Y-100406199D01*
X183634277Y-100571839D01*
X183586055Y-100632309D01*
X183578228Y-100640135D01*
X183570993Y-100648952D01*
X183348952Y-100870993D01*
X183340135Y-100878228D01*
X183332309Y-100886055D01*
X183271839Y-100934277D01*
X183106199Y-101070216D01*
X183076466Y-101090082D01*
X183051748Y-101109795D01*
X182971521Y-101160204D01*
X182845098Y-101244678D01*
X182791422Y-101273368D01*
X182747900Y-101300715D01*
X182670751Y-101337867D01*
X182568149Y-101392710D01*
X182487521Y-101426107D01*
X182424587Y-101456415D01*
X182358660Y-101479483D01*
X182278030Y-101512882D01*
X182166688Y-101546656D01*
X182085874Y-101574935D01*
X182035764Y-101586372D01*
X181977518Y-101604041D01*
X181828377Y-101633707D01*
X181736020Y-101654787D01*
X181704608Y-101658326D01*
X181669524Y-101665305D01*
X181456198Y-101686315D01*
X181379425Y-101694966D01*
X181368369Y-101694966D01*
X181357018Y-101696084D01*
X181042982Y-101696084D01*
X181031631Y-101694966D01*
X181020575Y-101694966D01*
X180943803Y-101686315D01*
X180730475Y-101665305D01*
X180695389Y-101658326D01*
X180663980Y-101654787D01*
X180571629Y-101633708D01*
X180422481Y-101604041D01*
X180364231Y-101586371D01*
X180314126Y-101574935D01*
X180233317Y-101546659D01*
X180121969Y-101512882D01*
X180041332Y-101479481D01*
X179975413Y-101456415D01*
X179912484Y-101426110D01*
X179831850Y-101392710D01*
X179729237Y-101337862D01*
X179652100Y-101300715D01*
X179608583Y-101273371D01*
X179554901Y-101244678D01*
X179428461Y-101160193D01*
X179348252Y-101109795D01*
X179323538Y-101090086D01*
X179293800Y-101070216D01*
X179128124Y-100934249D01*
X179067691Y-100886055D01*
X179059869Y-100878233D01*
X179051047Y-100870993D01*
X178829006Y-100648952D01*
X178821765Y-100640129D01*
X178813945Y-100632309D01*
X178765756Y-100571882D01*
X178629783Y-100406199D01*
X178609911Y-100376459D01*
X178590205Y-100351748D01*
X178539811Y-100271546D01*
X178455321Y-100145098D01*
X178426624Y-100091411D01*
X178399285Y-100047900D01*
X178362141Y-99970770D01*
X178307289Y-99868149D01*
X178273885Y-99787506D01*
X178243585Y-99724587D01*
X178220521Y-99658676D01*
X178187117Y-99578030D01*
X178153335Y-99466667D01*
X178125065Y-99385874D01*
X178113630Y-99335777D01*
X178095958Y-99277518D01*
X178066285Y-99128343D01*
X178045213Y-99036020D01*
X178041675Y-99004619D01*
X178034694Y-98969524D01*
X178013682Y-98756180D01*
X178005034Y-98679425D01*
X178005034Y-98668368D01*
X178003916Y-98657017D01*
X178003916Y-98342982D01*
X178005034Y-98331630D01*
X178005034Y-98320575D01*
X178013681Y-98243826D01*
X178034694Y-98030475D01*
X178041675Y-97995377D01*
X178045213Y-97963980D01*
X178066283Y-97871663D01*
X178095958Y-97722481D01*
X178113631Y-97664218D01*
X178125065Y-97614126D01*
X178153333Y-97533339D01*
X178187117Y-97421969D01*
X178220524Y-97341317D01*
X178243585Y-97275413D01*
X178273882Y-97212499D01*
X178307289Y-97131850D01*
X178362146Y-97029219D01*
X178399285Y-96952100D01*
X178426621Y-96908594D01*
X178455321Y-96854901D01*
X178539821Y-96728436D01*
X178590205Y-96648252D01*
X178609907Y-96623546D01*
X178629783Y-96593800D01*
X178765784Y-96428081D01*
X178813945Y-96367691D01*
X178821761Y-96359874D01*
X178829006Y-96351047D01*
X179051047Y-96129006D01*
X179059874Y-96121761D01*
X179067691Y-96113945D01*
X179128081Y-96065784D01*
X179293800Y-95929783D01*
X179323546Y-95909907D01*
X179348252Y-95890205D01*
X179428436Y-95839821D01*
X179554901Y-95755321D01*
X179608594Y-95726621D01*
X179652100Y-95699285D01*
X179729219Y-95662146D01*
X179831850Y-95607289D01*
X179912499Y-95573882D01*
X179975413Y-95543585D01*
X180041317Y-95520524D01*
X180121969Y-95487117D01*
X180233339Y-95453333D01*
X180314126Y-95425065D01*
X180364218Y-95413631D01*
X180422481Y-95395958D01*
X180571663Y-95366283D01*
X180663980Y-95345213D01*
X180695377Y-95341675D01*
X180730475Y-95334694D01*
X180943826Y-95313681D01*
X181020575Y-95305034D01*
X181031630Y-95305034D01*
X181042982Y-95303916D01*
X181357018Y-95303916D01*
X181368370Y-95305034D01*
G37*
G36*
X190100000Y-100280000D02*
G01*
X188400000Y-100280000D01*
X188400000Y-98580000D01*
X190100000Y-98580000D01*
X190100000Y-100280000D01*
G37*
G36*
X200880000Y-100060000D02*
G01*
X199180000Y-100060000D01*
X199180000Y-98360000D01*
X200880000Y-98360000D01*
X200880000Y-100060000D01*
G37*
G36*
X195700000Y-99980000D02*
G01*
X194000000Y-99980000D01*
X194000000Y-98280000D01*
X195700000Y-98280000D01*
X195700000Y-99980000D01*
G37*
G36*
X206091342Y-97888060D02*
G01*
X206204381Y-97953323D01*
X206296677Y-98045619D01*
X206361940Y-98158658D01*
X206395722Y-98284737D01*
X206395722Y-98415263D01*
X206361940Y-98541342D01*
X206296677Y-98654381D01*
X206204381Y-98746677D01*
X206091342Y-98811940D01*
X205965263Y-98845722D01*
X205834737Y-98845722D01*
X205708658Y-98811940D01*
X205595619Y-98746677D01*
X205503323Y-98654381D01*
X205438060Y-98541342D01*
X205404278Y-98415263D01*
X205404278Y-98284737D01*
X205438060Y-98158658D01*
X205503323Y-98045619D01*
X205595619Y-97953323D01*
X205708658Y-97888060D01*
X205834737Y-97854278D01*
X205965263Y-97854278D01*
X206091342Y-97888060D01*
G37*
G36*
X189496742Y-96076601D02*
G01*
X189650687Y-96140367D01*
X189789234Y-96232941D01*
X189907059Y-96350766D01*
X189999633Y-96489313D01*
X190063399Y-96643258D01*
X190095907Y-96806685D01*
X190095907Y-96973315D01*
X190063399Y-97136742D01*
X189999633Y-97290687D01*
X189907059Y-97429234D01*
X189789234Y-97547059D01*
X189650687Y-97639633D01*
X189496742Y-97703399D01*
X189333315Y-97735907D01*
X189166685Y-97735907D01*
X189003258Y-97703399D01*
X188849313Y-97639633D01*
X188710766Y-97547059D01*
X188592941Y-97429234D01*
X188500367Y-97290687D01*
X188436601Y-97136742D01*
X188404093Y-96973315D01*
X188404093Y-96806685D01*
X188436601Y-96643258D01*
X188500367Y-96489313D01*
X188592941Y-96350766D01*
X188710766Y-96232941D01*
X188849313Y-96140367D01*
X189003258Y-96076601D01*
X189166685Y-96044093D01*
X189333315Y-96044093D01*
X189496742Y-96076601D01*
G37*
G36*
X200276742Y-95856601D02*
G01*
X200430687Y-95920367D01*
X200569234Y-96012941D01*
X200687059Y-96130766D01*
X200779633Y-96269313D01*
X200843399Y-96423258D01*
X200875907Y-96586685D01*
X200875907Y-96753315D01*
X200843399Y-96916742D01*
X200779633Y-97070687D01*
X200687059Y-97209234D01*
X200569234Y-97327059D01*
X200430687Y-97419633D01*
X200276742Y-97483399D01*
X200113315Y-97515907D01*
X199946685Y-97515907D01*
X199783258Y-97483399D01*
X199629313Y-97419633D01*
X199490766Y-97327059D01*
X199372941Y-97209234D01*
X199280367Y-97070687D01*
X199216601Y-96916742D01*
X199184093Y-96753315D01*
X199184093Y-96586685D01*
X199216601Y-96423258D01*
X199280367Y-96269313D01*
X199372941Y-96130766D01*
X199490766Y-96012941D01*
X199629313Y-95920367D01*
X199783258Y-95856601D01*
X199946685Y-95824093D01*
X200113315Y-95824093D01*
X200276742Y-95856601D01*
G37*
G36*
X195096742Y-95776601D02*
G01*
X195250687Y-95840367D01*
X195389234Y-95932941D01*
X195507059Y-96050766D01*
X195599633Y-96189313D01*
X195663399Y-96343258D01*
X195695907Y-96506685D01*
X195695907Y-96673315D01*
X195663399Y-96836742D01*
X195599633Y-96990687D01*
X195507059Y-97129234D01*
X195389234Y-97247059D01*
X195250687Y-97339633D01*
X195096742Y-97403399D01*
X194933315Y-97435907D01*
X194766685Y-97435907D01*
X194603258Y-97403399D01*
X194449313Y-97339633D01*
X194310766Y-97247059D01*
X194192941Y-97129234D01*
X194100367Y-96990687D01*
X194036601Y-96836742D01*
X194004093Y-96673315D01*
X194004093Y-96506685D01*
X194036601Y-96343258D01*
X194100367Y-96189313D01*
X194192941Y-96050766D01*
X194310766Y-95932941D01*
X194449313Y-95840367D01*
X194603258Y-95776601D01*
X194766685Y-95744093D01*
X194933315Y-95744093D01*
X195096742Y-95776601D01*
G37*
G36*
X206091342Y-94838060D02*
G01*
X206204381Y-94903323D01*
X206296677Y-94995619D01*
X206361940Y-95108658D01*
X206395722Y-95234737D01*
X206395722Y-95365263D01*
X206361940Y-95491342D01*
X206296677Y-95604381D01*
X206204381Y-95696677D01*
X206091342Y-95761940D01*
X205965263Y-95795722D01*
X205834737Y-95795722D01*
X205708658Y-95761940D01*
X205595619Y-95696677D01*
X205503323Y-95604381D01*
X205438060Y-95491342D01*
X205404278Y-95365263D01*
X205404278Y-95234737D01*
X205438060Y-95108658D01*
X205503323Y-94995619D01*
X205595619Y-94903323D01*
X205708658Y-94838060D01*
X205834737Y-94804278D01*
X205965263Y-94804278D01*
X206091342Y-94838060D01*
G37*
G36*
X189496742Y-93536601D02*
G01*
X189650687Y-93600367D01*
X189789234Y-93692941D01*
X189907059Y-93810766D01*
X189999633Y-93949313D01*
X190063399Y-94103258D01*
X190095907Y-94266685D01*
X190095907Y-94433315D01*
X190063399Y-94596742D01*
X189999633Y-94750687D01*
X189907059Y-94889234D01*
X189789234Y-95007059D01*
X189650687Y-95099633D01*
X189496742Y-95163399D01*
X189333315Y-95195907D01*
X189166685Y-95195907D01*
X189003258Y-95163399D01*
X188849313Y-95099633D01*
X188710766Y-95007059D01*
X188592941Y-94889234D01*
X188500367Y-94750687D01*
X188436601Y-94596742D01*
X188404093Y-94433315D01*
X188404093Y-94266685D01*
X188436601Y-94103258D01*
X188500367Y-93949313D01*
X188592941Y-93810766D01*
X188710766Y-93692941D01*
X188849313Y-93600367D01*
X189003258Y-93536601D01*
X189166685Y-93504093D01*
X189333315Y-93504093D01*
X189496742Y-93536601D01*
G37*
G36*
X200276742Y-93316601D02*
G01*
X200430687Y-93380367D01*
X200569234Y-93472941D01*
X200687059Y-93590766D01*
X200779633Y-93729313D01*
X200843399Y-93883258D01*
X200875907Y-94046685D01*
X200875907Y-94213315D01*
X200843399Y-94376742D01*
X200779633Y-94530687D01*
X200687059Y-94669234D01*
X200569234Y-94787059D01*
X200430687Y-94879633D01*
X200276742Y-94943399D01*
X200113315Y-94975907D01*
X199946685Y-94975907D01*
X199783258Y-94943399D01*
X199629313Y-94879633D01*
X199490766Y-94787059D01*
X199372941Y-94669234D01*
X199280367Y-94530687D01*
X199216601Y-94376742D01*
X199184093Y-94213315D01*
X199184093Y-94046685D01*
X199216601Y-93883258D01*
X199280367Y-93729313D01*
X199372941Y-93590766D01*
X199490766Y-93472941D01*
X199629313Y-93380367D01*
X199783258Y-93316601D01*
X199946685Y-93284093D01*
X200113315Y-93284093D01*
X200276742Y-93316601D01*
G37*
G36*
X195096742Y-93236601D02*
G01*
X195250687Y-93300367D01*
X195389234Y-93392941D01*
X195507059Y-93510766D01*
X195599633Y-93649313D01*
X195663399Y-93803258D01*
X195695907Y-93966685D01*
X195695907Y-94133315D01*
X195663399Y-94296742D01*
X195599633Y-94450687D01*
X195507059Y-94589234D01*
X195389234Y-94707059D01*
X195250687Y-94799633D01*
X195096742Y-94863399D01*
X194933315Y-94895907D01*
X194766685Y-94895907D01*
X194603258Y-94863399D01*
X194449313Y-94799633D01*
X194310766Y-94707059D01*
X194192941Y-94589234D01*
X194100367Y-94450687D01*
X194036601Y-94296742D01*
X194004093Y-94133315D01*
X194004093Y-93966685D01*
X194036601Y-93803258D01*
X194100367Y-93649313D01*
X194192941Y-93510766D01*
X194310766Y-93392941D01*
X194449313Y-93300367D01*
X194603258Y-93236601D01*
X194766685Y-93204093D01*
X194933315Y-93204093D01*
X195096742Y-93236601D01*
G37*
G36*
X206091342Y-91788060D02*
G01*
X206204381Y-91853323D01*
X206296677Y-91945619D01*
X206361940Y-92058658D01*
X206395722Y-92184737D01*
X206395722Y-92315263D01*
X206361940Y-92441342D01*
X206296677Y-92554381D01*
X206204381Y-92646677D01*
X206091342Y-92711940D01*
X205965263Y-92745722D01*
X205834737Y-92745722D01*
X205708658Y-92711940D01*
X205595619Y-92646677D01*
X205503323Y-92554381D01*
X205438060Y-92441342D01*
X205404278Y-92315263D01*
X205404278Y-92184737D01*
X205438060Y-92058658D01*
X205503323Y-91945619D01*
X205595619Y-91853323D01*
X205708658Y-91788060D01*
X205834737Y-91754278D01*
X205965263Y-91754278D01*
X206091342Y-91788060D01*
G37*
G36*
X189496742Y-90996601D02*
G01*
X189650687Y-91060367D01*
X189789234Y-91152941D01*
X189907059Y-91270766D01*
X189999633Y-91409313D01*
X190063399Y-91563258D01*
X190095907Y-91726685D01*
X190095907Y-91893315D01*
X190063399Y-92056742D01*
X189999633Y-92210687D01*
X189907059Y-92349234D01*
X189789234Y-92467059D01*
X189650687Y-92559633D01*
X189496742Y-92623399D01*
X189333315Y-92655907D01*
X189166685Y-92655907D01*
X189003258Y-92623399D01*
X188849313Y-92559633D01*
X188710766Y-92467059D01*
X188592941Y-92349234D01*
X188500367Y-92210687D01*
X188436601Y-92056742D01*
X188404093Y-91893315D01*
X188404093Y-91726685D01*
X188436601Y-91563258D01*
X188500367Y-91409313D01*
X188592941Y-91270766D01*
X188710766Y-91152941D01*
X188849313Y-91060367D01*
X189003258Y-90996601D01*
X189166685Y-90964093D01*
X189333315Y-90964093D01*
X189496742Y-90996601D01*
G37*
G36*
X200276742Y-90776601D02*
G01*
X200430687Y-90840367D01*
X200569234Y-90932941D01*
X200687059Y-91050766D01*
X200779633Y-91189313D01*
X200843399Y-91343258D01*
X200875907Y-91506685D01*
X200875907Y-91673315D01*
X200843399Y-91836742D01*
X200779633Y-91990687D01*
X200687059Y-92129234D01*
X200569234Y-92247059D01*
X200430687Y-92339633D01*
X200276742Y-92403399D01*
X200113315Y-92435907D01*
X199946685Y-92435907D01*
X199783258Y-92403399D01*
X199629313Y-92339633D01*
X199490766Y-92247059D01*
X199372941Y-92129234D01*
X199280367Y-91990687D01*
X199216601Y-91836742D01*
X199184093Y-91673315D01*
X199184093Y-91506685D01*
X199216601Y-91343258D01*
X199280367Y-91189313D01*
X199372941Y-91050766D01*
X199490766Y-90932941D01*
X199629313Y-90840367D01*
X199783258Y-90776601D01*
X199946685Y-90744093D01*
X200113315Y-90744093D01*
X200276742Y-90776601D01*
G37*
G36*
X195096742Y-90696601D02*
G01*
X195250687Y-90760367D01*
X195389234Y-90852941D01*
X195507059Y-90970766D01*
X195599633Y-91109313D01*
X195663399Y-91263258D01*
X195695907Y-91426685D01*
X195695907Y-91593315D01*
X195663399Y-91756742D01*
X195599633Y-91910687D01*
X195507059Y-92049234D01*
X195389234Y-92167059D01*
X195250687Y-92259633D01*
X195096742Y-92323399D01*
X194933315Y-92355907D01*
X194766685Y-92355907D01*
X194603258Y-92323399D01*
X194449313Y-92259633D01*
X194310766Y-92167059D01*
X194192941Y-92049234D01*
X194100367Y-91910687D01*
X194036601Y-91756742D01*
X194004093Y-91593315D01*
X194004093Y-91426685D01*
X194036601Y-91263258D01*
X194100367Y-91109313D01*
X194192941Y-90970766D01*
X194310766Y-90852941D01*
X194449313Y-90760367D01*
X194603258Y-90696601D01*
X194766685Y-90664093D01*
X194933315Y-90664093D01*
X195096742Y-90696601D01*
G37*
G36*
X189496742Y-88456601D02*
G01*
X189650687Y-88520367D01*
X189789234Y-88612941D01*
X189907059Y-88730766D01*
X189999633Y-88869313D01*
X190063399Y-89023258D01*
X190095907Y-89186685D01*
X190095907Y-89353315D01*
X190063399Y-89516742D01*
X189999633Y-89670687D01*
X189907059Y-89809234D01*
X189789234Y-89927059D01*
X189650687Y-90019633D01*
X189496742Y-90083399D01*
X189333315Y-90115907D01*
X189166685Y-90115907D01*
X189003258Y-90083399D01*
X188849313Y-90019633D01*
X188710766Y-89927059D01*
X188592941Y-89809234D01*
X188500367Y-89670687D01*
X188436601Y-89516742D01*
X188404093Y-89353315D01*
X188404093Y-89186685D01*
X188436601Y-89023258D01*
X188500367Y-88869313D01*
X188592941Y-88730766D01*
X188710766Y-88612941D01*
X188849313Y-88520367D01*
X189003258Y-88456601D01*
X189166685Y-88424093D01*
X189333315Y-88424093D01*
X189496742Y-88456601D01*
G37*
G36*
X206091342Y-88738060D02*
G01*
X206204381Y-88803323D01*
X206296677Y-88895619D01*
X206361940Y-89008658D01*
X206395722Y-89134737D01*
X206395722Y-89265263D01*
X206361940Y-89391342D01*
X206296677Y-89504381D01*
X206204381Y-89596677D01*
X206091342Y-89661940D01*
X205965263Y-89695722D01*
X205834737Y-89695722D01*
X205708658Y-89661940D01*
X205595619Y-89596677D01*
X205503323Y-89504381D01*
X205438060Y-89391342D01*
X205404278Y-89265263D01*
X205404278Y-89134737D01*
X205438060Y-89008658D01*
X205503323Y-88895619D01*
X205595619Y-88803323D01*
X205708658Y-88738060D01*
X205834737Y-88704278D01*
X205965263Y-88704278D01*
X206091342Y-88738060D01*
G37*
G36*
X195001537Y-87240224D02*
G01*
X195066421Y-87283579D01*
X195109776Y-87348463D01*
X195125000Y-87425000D01*
X195125000Y-87975000D01*
X195109776Y-88051537D01*
X195066421Y-88116421D01*
X195001537Y-88159776D01*
X194925000Y-88175000D01*
X194525000Y-88175000D01*
X194448463Y-88159776D01*
X194383579Y-88116421D01*
X194340224Y-88051537D01*
X194325000Y-87975000D01*
X194325000Y-87425000D01*
X194340224Y-87348463D01*
X194383579Y-87283579D01*
X194448463Y-87240224D01*
X194525000Y-87225000D01*
X194925000Y-87225000D01*
X195001537Y-87240224D01*
G37*
G36*
X196651537Y-87240224D02*
G01*
X196716421Y-87283579D01*
X196759776Y-87348463D01*
X196775000Y-87425000D01*
X196775000Y-87975000D01*
X196759776Y-88051537D01*
X196716421Y-88116421D01*
X196651537Y-88159776D01*
X196575000Y-88175000D01*
X196175000Y-88175000D01*
X196098463Y-88159776D01*
X196033579Y-88116421D01*
X195990224Y-88051537D01*
X195975000Y-87975000D01*
X195975000Y-87425000D01*
X195990224Y-87348463D01*
X196033579Y-87283579D01*
X196098463Y-87240224D01*
X196175000Y-87225000D01*
X196575000Y-87225000D01*
X196651537Y-87240224D01*
G37*
G36*
X189496742Y-85916601D02*
G01*
X189650687Y-85980367D01*
X189789234Y-86072941D01*
X189907059Y-86190766D01*
X189999633Y-86329313D01*
X190063399Y-86483258D01*
X190095907Y-86646685D01*
X190095907Y-86813315D01*
X190063399Y-86976742D01*
X189999633Y-87130687D01*
X189907059Y-87269234D01*
X189789234Y-87387059D01*
X189650687Y-87479633D01*
X189496742Y-87543399D01*
X189333315Y-87575907D01*
X189166685Y-87575907D01*
X189003258Y-87543399D01*
X188849313Y-87479633D01*
X188710766Y-87387059D01*
X188592941Y-87269234D01*
X188500367Y-87130687D01*
X188436601Y-86976742D01*
X188404093Y-86813315D01*
X188404093Y-86646685D01*
X188436601Y-86483258D01*
X188500367Y-86329313D01*
X188592941Y-86190766D01*
X188710766Y-86072941D01*
X188849313Y-85980367D01*
X189003258Y-85916601D01*
X189166685Y-85884093D01*
X189333315Y-85884093D01*
X189496742Y-85916601D01*
G37*
G36*
X195017500Y-86055000D02*
G01*
X194117500Y-86055000D01*
X194117500Y-84555000D01*
X195017500Y-84555000D01*
X195017500Y-86055000D01*
G37*
G36*
X196287500Y-86055000D02*
G01*
X195387500Y-86055000D01*
X195387500Y-84555000D01*
X196287500Y-84555000D01*
X196287500Y-86055000D01*
G37*
G36*
X197557500Y-86055000D02*
G01*
X196657500Y-86055000D01*
X196657500Y-84555000D01*
X197557500Y-84555000D01*
X197557500Y-86055000D01*
G37*
G36*
X198827500Y-86055000D02*
G01*
X197927500Y-86055000D01*
X197927500Y-84555000D01*
X198827500Y-84555000D01*
X198827500Y-86055000D01*
G37*
G36*
X200097500Y-86055000D02*
G01*
X199197500Y-86055000D01*
X199197500Y-84555000D01*
X200097500Y-84555000D01*
X200097500Y-86055000D01*
G37*
G36*
X201367500Y-86055000D02*
G01*
X200467500Y-86055000D01*
X200467500Y-84555000D01*
X201367500Y-84555000D01*
X201367500Y-86055000D01*
G37*
G36*
X202637500Y-86055000D02*
G01*
X201737500Y-86055000D01*
X201737500Y-84555000D01*
X202637500Y-84555000D01*
X202637500Y-86055000D01*
G37*
G36*
X203907500Y-86055000D02*
G01*
X203007500Y-86055000D01*
X203007500Y-84555000D01*
X203907500Y-84555000D01*
X203907500Y-86055000D01*
G37*
G36*
X205177500Y-86055000D02*
G01*
X204277500Y-86055000D01*
X204277500Y-84555000D01*
X205177500Y-84555000D01*
X205177500Y-86055000D01*
G37*
G36*
X206447500Y-86055000D02*
G01*
X205547500Y-86055000D01*
X205547500Y-84555000D01*
X206447500Y-84555000D01*
X206447500Y-86055000D01*
G37*
G36*
X207717500Y-86055000D02*
G01*
X206817500Y-86055000D01*
X206817500Y-84555000D01*
X207717500Y-84555000D01*
X207717500Y-86055000D01*
G37*
G36*
X208987500Y-86055000D02*
G01*
X208087500Y-86055000D01*
X208087500Y-84555000D01*
X208987500Y-84555000D01*
X208987500Y-86055000D01*
G37*
G36*
X210257500Y-86055000D02*
G01*
X209357500Y-86055000D01*
X209357500Y-84555000D01*
X210257500Y-84555000D01*
X210257500Y-86055000D01*
G37*
G36*
X211527500Y-86055000D02*
G01*
X210627500Y-86055000D01*
X210627500Y-84555000D01*
X211527500Y-84555000D01*
X211527500Y-86055000D01*
G37*
G36*
X183864037Y-82640224D02*
G01*
X183928921Y-82683579D01*
X183972276Y-82748463D01*
X183987500Y-82825000D01*
X183987500Y-83375000D01*
X183972276Y-83451537D01*
X183928921Y-83516421D01*
X183864037Y-83559776D01*
X183787500Y-83575000D01*
X183387500Y-83575000D01*
X183310963Y-83559776D01*
X183246079Y-83516421D01*
X183202724Y-83451537D01*
X183187500Y-83375000D01*
X183187500Y-82825000D01*
X183202724Y-82748463D01*
X183246079Y-82683579D01*
X183310963Y-82640224D01*
X183387500Y-82625000D01*
X183787500Y-82625000D01*
X183864037Y-82640224D01*
G37*
G36*
X185514037Y-82640224D02*
G01*
X185578921Y-82683579D01*
X185622276Y-82748463D01*
X185637500Y-82825000D01*
X185637500Y-83375000D01*
X185622276Y-83451537D01*
X185578921Y-83516421D01*
X185514037Y-83559776D01*
X185437500Y-83575000D01*
X185037500Y-83575000D01*
X184960963Y-83559776D01*
X184896079Y-83516421D01*
X184852724Y-83451537D01*
X184837500Y-83375000D01*
X184837500Y-82825000D01*
X184852724Y-82748463D01*
X184896079Y-82683579D01*
X184960963Y-82640224D01*
X185037500Y-82625000D01*
X185437500Y-82625000D01*
X185514037Y-82640224D01*
G37*
G36*
X179264962Y-82591651D02*
G01*
X179335930Y-82639070D01*
X179383349Y-82710038D01*
X179400000Y-82793750D01*
X179400000Y-83306250D01*
X179383349Y-83389962D01*
X179335930Y-83460930D01*
X179264962Y-83508349D01*
X179181250Y-83525000D01*
X178743750Y-83525000D01*
X178660038Y-83508349D01*
X178589070Y-83460930D01*
X178541651Y-83389962D01*
X178525000Y-83306250D01*
X178525000Y-82793750D01*
X178541651Y-82710038D01*
X178589070Y-82639070D01*
X178660038Y-82591651D01*
X178743750Y-82575000D01*
X179181250Y-82575000D01*
X179264962Y-82591651D01*
G37*
G36*
X180839962Y-82591651D02*
G01*
X180910930Y-82639070D01*
X180958349Y-82710038D01*
X180975000Y-82793750D01*
X180975000Y-83306250D01*
X180958349Y-83389962D01*
X180910930Y-83460930D01*
X180839962Y-83508349D01*
X180756250Y-83525000D01*
X180318750Y-83525000D01*
X180235038Y-83508349D01*
X180164070Y-83460930D01*
X180116651Y-83389962D01*
X180100000Y-83306250D01*
X180100000Y-82793750D01*
X180116651Y-82710038D01*
X180164070Y-82639070D01*
X180235038Y-82591651D01*
X180318750Y-82575000D01*
X180756250Y-82575000D01*
X180839962Y-82591651D01*
G37*
G36*
X194067500Y-82725000D02*
G01*
X192567500Y-82725000D01*
X192567500Y-81825000D01*
X194067500Y-81825000D01*
X194067500Y-82725000D01*
G37*
G36*
X194067500Y-81455000D02*
G01*
X192567500Y-81455000D01*
X192567500Y-80555000D01*
X194067500Y-80555000D01*
X194067500Y-81455000D01*
G37*
G36*
X194067500Y-80185000D02*
G01*
X192567500Y-80185000D01*
X192567500Y-79285000D01*
X194067500Y-79285000D01*
X194067500Y-80185000D01*
G37*
G36*
X183826537Y-78740224D02*
G01*
X183891421Y-78783579D01*
X183934776Y-78848463D01*
X183950000Y-78925000D01*
X183950000Y-79475000D01*
X183934776Y-79551537D01*
X183891421Y-79616421D01*
X183826537Y-79659776D01*
X183750000Y-79675000D01*
X183350000Y-79675000D01*
X183273463Y-79659776D01*
X183208579Y-79616421D01*
X183165224Y-79551537D01*
X183150000Y-79475000D01*
X183150000Y-78925000D01*
X183165224Y-78848463D01*
X183208579Y-78783579D01*
X183273463Y-78740224D01*
X183350000Y-78725000D01*
X183750000Y-78725000D01*
X183826537Y-78740224D01*
G37*
G36*
X185476537Y-78740224D02*
G01*
X185541421Y-78783579D01*
X185584776Y-78848463D01*
X185600000Y-78925000D01*
X185600000Y-79475000D01*
X185584776Y-79551537D01*
X185541421Y-79616421D01*
X185476537Y-79659776D01*
X185400000Y-79675000D01*
X185000000Y-79675000D01*
X184923463Y-79659776D01*
X184858579Y-79616421D01*
X184815224Y-79551537D01*
X184800000Y-79475000D01*
X184800000Y-78925000D01*
X184815224Y-78848463D01*
X184858579Y-78783579D01*
X184923463Y-78740224D01*
X185000000Y-78725000D01*
X185400000Y-78725000D01*
X185476537Y-78740224D01*
G37*
G36*
X179264962Y-78691651D02*
G01*
X179335930Y-78739070D01*
X179383349Y-78810038D01*
X179400000Y-78893750D01*
X179400000Y-79406250D01*
X179383349Y-79489962D01*
X179335930Y-79560930D01*
X179264962Y-79608349D01*
X179181250Y-79625000D01*
X178743750Y-79625000D01*
X178660038Y-79608349D01*
X178589070Y-79560930D01*
X178541651Y-79489962D01*
X178525000Y-79406250D01*
X178525000Y-78893750D01*
X178541651Y-78810038D01*
X178589070Y-78739070D01*
X178660038Y-78691651D01*
X178743750Y-78675000D01*
X179181250Y-78675000D01*
X179264962Y-78691651D01*
G37*
G36*
X180839962Y-78691651D02*
G01*
X180910930Y-78739070D01*
X180958349Y-78810038D01*
X180975000Y-78893750D01*
X180975000Y-79406250D01*
X180958349Y-79489962D01*
X180910930Y-79560930D01*
X180839962Y-79608349D01*
X180756250Y-79625000D01*
X180318750Y-79625000D01*
X180235038Y-79608349D01*
X180164070Y-79560930D01*
X180116651Y-79489962D01*
X180100000Y-79406250D01*
X180100000Y-78893750D01*
X180116651Y-78810038D01*
X180164070Y-78739070D01*
X180235038Y-78691651D01*
X180318750Y-78675000D01*
X180756250Y-78675000D01*
X180839962Y-78691651D01*
G37*
G36*
X194067500Y-78915000D02*
G01*
X192567500Y-78915000D01*
X192567500Y-78015000D01*
X194067500Y-78015000D01*
X194067500Y-78915000D01*
G37*
G36*
X205837500Y-77975000D02*
G01*
X201637500Y-77975000D01*
X201637500Y-73775000D01*
X205837500Y-73775000D01*
X205837500Y-77975000D01*
G37*
G36*
X194067500Y-77645000D02*
G01*
X192567500Y-77645000D01*
X192567500Y-76745000D01*
X194067500Y-76745000D01*
X194067500Y-77645000D01*
G37*
G36*
X194067500Y-76375000D02*
G01*
X192567500Y-76375000D01*
X192567500Y-75475000D01*
X194067500Y-75475000D01*
X194067500Y-76375000D01*
G37*
G36*
X194067500Y-75105000D02*
G01*
X192567500Y-75105000D01*
X192567500Y-74205000D01*
X194067500Y-74205000D01*
X194067500Y-75105000D01*
G37*
G36*
X183651537Y-73740224D02*
G01*
X183716421Y-73783579D01*
X183759776Y-73848463D01*
X183775000Y-73925000D01*
X183775000Y-74475000D01*
X183759776Y-74551537D01*
X183716421Y-74616421D01*
X183651537Y-74659776D01*
X183575000Y-74675000D01*
X183175000Y-74675000D01*
X183098463Y-74659776D01*
X183033579Y-74616421D01*
X182990224Y-74551537D01*
X182975000Y-74475000D01*
X182975000Y-73925000D01*
X182990224Y-73848463D01*
X183033579Y-73783579D01*
X183098463Y-73740224D01*
X183175000Y-73725000D01*
X183575000Y-73725000D01*
X183651537Y-73740224D01*
G37*
G36*
X185301537Y-73740224D02*
G01*
X185366421Y-73783579D01*
X185409776Y-73848463D01*
X185425000Y-73925000D01*
X185425000Y-74475000D01*
X185409776Y-74551537D01*
X185366421Y-74616421D01*
X185301537Y-74659776D01*
X185225000Y-74675000D01*
X184825000Y-74675000D01*
X184748463Y-74659776D01*
X184683579Y-74616421D01*
X184640224Y-74551537D01*
X184625000Y-74475000D01*
X184625000Y-73925000D01*
X184640224Y-73848463D01*
X184683579Y-73783579D01*
X184748463Y-73740224D01*
X184825000Y-73725000D01*
X185225000Y-73725000D01*
X185301537Y-73740224D01*
G37*
G36*
X179264962Y-73691651D02*
G01*
X179335930Y-73739070D01*
X179383349Y-73810038D01*
X179400000Y-73893750D01*
X179400000Y-74406250D01*
X179383349Y-74489962D01*
X179335930Y-74560930D01*
X179264962Y-74608349D01*
X179181250Y-74625000D01*
X178743750Y-74625000D01*
X178660038Y-74608349D01*
X178589070Y-74560930D01*
X178541651Y-74489962D01*
X178525000Y-74406250D01*
X178525000Y-73893750D01*
X178541651Y-73810038D01*
X178589070Y-73739070D01*
X178660038Y-73691651D01*
X178743750Y-73675000D01*
X179181250Y-73675000D01*
X179264962Y-73691651D01*
G37*
G36*
X180839962Y-73691651D02*
G01*
X180910930Y-73739070D01*
X180958349Y-73810038D01*
X180975000Y-73893750D01*
X180975000Y-74406250D01*
X180958349Y-74489962D01*
X180910930Y-74560930D01*
X180839962Y-74608349D01*
X180756250Y-74625000D01*
X180318750Y-74625000D01*
X180235038Y-74608349D01*
X180164070Y-74560930D01*
X180116651Y-74489962D01*
X180100000Y-74406250D01*
X180100000Y-73893750D01*
X180116651Y-73810038D01*
X180164070Y-73739070D01*
X180235038Y-73691651D01*
X180318750Y-73675000D01*
X180756250Y-73675000D01*
X180839962Y-73691651D01*
G37*
G36*
X194067500Y-73835000D02*
G01*
X192567500Y-73835000D01*
X192567500Y-72935000D01*
X194067500Y-72935000D01*
X194067500Y-73835000D01*
G37*
G36*
X194067500Y-72565000D02*
G01*
X192567500Y-72565000D01*
X192567500Y-71665000D01*
X194067500Y-71665000D01*
X194067500Y-72565000D01*
G37*
G36*
X194067500Y-71295000D02*
G01*
X192567500Y-71295000D01*
X192567500Y-70395000D01*
X194067500Y-70395000D01*
X194067500Y-71295000D01*
G37*
G36*
X189301537Y-68590224D02*
G01*
X189366421Y-68633579D01*
X189409776Y-68698463D01*
X189425000Y-68775000D01*
X189425000Y-69175000D01*
X189409776Y-69251537D01*
X189366421Y-69316421D01*
X189301537Y-69359776D01*
X189225000Y-69375000D01*
X188675000Y-69375000D01*
X188598463Y-69359776D01*
X188533579Y-69316421D01*
X188490224Y-69251537D01*
X188475000Y-69175000D01*
X188475000Y-68775000D01*
X188490224Y-68698463D01*
X188533579Y-68633579D01*
X188598463Y-68590224D01*
X188675000Y-68575000D01*
X189225000Y-68575000D01*
X189301537Y-68590224D01*
G37*
G36*
X187401537Y-68515224D02*
G01*
X187466421Y-68558579D01*
X187509776Y-68623463D01*
X187525000Y-68700000D01*
X187525000Y-69100000D01*
X187509776Y-69176537D01*
X187466421Y-69241421D01*
X187401537Y-69284776D01*
X187325000Y-69300000D01*
X186775000Y-69300000D01*
X186698463Y-69284776D01*
X186633579Y-69241421D01*
X186590224Y-69176537D01*
X186575000Y-69100000D01*
X186575000Y-68700000D01*
X186590224Y-68623463D01*
X186633579Y-68558579D01*
X186698463Y-68515224D01*
X186775000Y-68500000D01*
X187325000Y-68500000D01*
X187401537Y-68515224D01*
G37*
G36*
X195017500Y-68555000D02*
G01*
X194117500Y-68555000D01*
X194117500Y-67055000D01*
X195017500Y-67055000D01*
X195017500Y-68555000D01*
G37*
G36*
X196287500Y-68555000D02*
G01*
X195387500Y-68555000D01*
X195387500Y-67055000D01*
X196287500Y-67055000D01*
X196287500Y-68555000D01*
G37*
G36*
X197557500Y-68555000D02*
G01*
X196657500Y-68555000D01*
X196657500Y-67055000D01*
X197557500Y-67055000D01*
X197557500Y-68555000D01*
G37*
G36*
X198827500Y-68555000D02*
G01*
X197927500Y-68555000D01*
X197927500Y-67055000D01*
X198827500Y-67055000D01*
X198827500Y-68555000D01*
G37*
G36*
X200097500Y-68555000D02*
G01*
X199197500Y-68555000D01*
X199197500Y-67055000D01*
X200097500Y-67055000D01*
X200097500Y-68555000D01*
G37*
G36*
X201367500Y-68555000D02*
G01*
X200467500Y-68555000D01*
X200467500Y-67055000D01*
X201367500Y-67055000D01*
X201367500Y-68555000D01*
G37*
G36*
X202637500Y-68555000D02*
G01*
X201737500Y-68555000D01*
X201737500Y-67055000D01*
X202637500Y-67055000D01*
X202637500Y-68555000D01*
G37*
G36*
X203907500Y-68555000D02*
G01*
X203007500Y-68555000D01*
X203007500Y-67055000D01*
X203907500Y-67055000D01*
X203907500Y-68555000D01*
G37*
G36*
X205177500Y-68555000D02*
G01*
X204277500Y-68555000D01*
X204277500Y-67055000D01*
X205177500Y-67055000D01*
X205177500Y-68555000D01*
G37*
G36*
X206447500Y-68555000D02*
G01*
X205547500Y-68555000D01*
X205547500Y-67055000D01*
X206447500Y-67055000D01*
X206447500Y-68555000D01*
G37*
G36*
X207717500Y-68555000D02*
G01*
X206817500Y-68555000D01*
X206817500Y-67055000D01*
X207717500Y-67055000D01*
X207717500Y-68555000D01*
G37*
G36*
X208987500Y-68555000D02*
G01*
X208087500Y-68555000D01*
X208087500Y-67055000D01*
X208987500Y-67055000D01*
X208987500Y-68555000D01*
G37*
G36*
X210257500Y-68555000D02*
G01*
X209357500Y-68555000D01*
X209357500Y-67055000D01*
X210257500Y-67055000D01*
X210257500Y-68555000D01*
G37*
G36*
X211527500Y-68555000D02*
G01*
X210627500Y-68555000D01*
X210627500Y-67055000D01*
X211527500Y-67055000D01*
X211527500Y-68555000D01*
G37*
G36*
X189301537Y-66940224D02*
G01*
X189366421Y-66983579D01*
X189409776Y-67048463D01*
X189425000Y-67125000D01*
X189425000Y-67525000D01*
X189409776Y-67601537D01*
X189366421Y-67666421D01*
X189301537Y-67709776D01*
X189225000Y-67725000D01*
X188675000Y-67725000D01*
X188598463Y-67709776D01*
X188533579Y-67666421D01*
X188490224Y-67601537D01*
X188475000Y-67525000D01*
X188475000Y-67125000D01*
X188490224Y-67048463D01*
X188533579Y-66983579D01*
X188598463Y-66940224D01*
X188675000Y-66925000D01*
X189225000Y-66925000D01*
X189301537Y-66940224D01*
G37*
G36*
X187401537Y-66865224D02*
G01*
X187466421Y-66908579D01*
X187509776Y-66973463D01*
X187525000Y-67050000D01*
X187525000Y-67450000D01*
X187509776Y-67526537D01*
X187466421Y-67591421D01*
X187401537Y-67634776D01*
X187325000Y-67650000D01*
X186775000Y-67650000D01*
X186698463Y-67634776D01*
X186633579Y-67591421D01*
X186590224Y-67526537D01*
X186575000Y-67450000D01*
X186575000Y-67050000D01*
X186590224Y-66973463D01*
X186633579Y-66908579D01*
X186698463Y-66865224D01*
X186775000Y-66850000D01*
X187325000Y-66850000D01*
X187401537Y-66865224D01*
G37*
G36*
X189800000Y-66150000D02*
G01*
X189500000Y-66150000D01*
X189500000Y-65250000D01*
X189800000Y-65250000D01*
X189800000Y-66150000D01*
G37*
G36*
X190300000Y-66150000D02*
G01*
X190000000Y-66150000D01*
X190000000Y-65250000D01*
X190300000Y-65250000D01*
X190300000Y-66150000D01*
G37*
G36*
X190800000Y-66150000D02*
G01*
X190500000Y-66150000D01*
X190500000Y-65250000D01*
X190800000Y-65250000D01*
X190800000Y-66150000D01*
G37*
G36*
X191300000Y-66150000D02*
G01*
X191000000Y-66150000D01*
X191000000Y-65250000D01*
X191300000Y-65250000D01*
X191300000Y-66150000D01*
G37*
G36*
X185776034Y-64688459D02*
G01*
X185840918Y-64731814D01*
X185884273Y-64796698D01*
X185899497Y-64873235D01*
X185899497Y-65423235D01*
X185884273Y-65499772D01*
X185840918Y-65564656D01*
X185776034Y-65608011D01*
X185699497Y-65623235D01*
X185299497Y-65623235D01*
X185222960Y-65608011D01*
X185158076Y-65564656D01*
X185114721Y-65499772D01*
X185099497Y-65423235D01*
X185099497Y-64873235D01*
X185114721Y-64796698D01*
X185158076Y-64731814D01*
X185222960Y-64688459D01*
X185299497Y-64673235D01*
X185699497Y-64673235D01*
X185776034Y-64688459D01*
G37*
G36*
X187426034Y-64688459D02*
G01*
X187490918Y-64731814D01*
X187534273Y-64796698D01*
X187549497Y-64873235D01*
X187549497Y-65423235D01*
X187534273Y-65499772D01*
X187490918Y-65564656D01*
X187426034Y-65608011D01*
X187349497Y-65623235D01*
X186949497Y-65623235D01*
X186872960Y-65608011D01*
X186808076Y-65564656D01*
X186764721Y-65499772D01*
X186749497Y-65423235D01*
X186749497Y-64873235D01*
X186764721Y-64796698D01*
X186808076Y-64731814D01*
X186872960Y-64688459D01*
X186949497Y-64673235D01*
X187349497Y-64673235D01*
X187426034Y-64688459D01*
G37*
G36*
X209026537Y-64640224D02*
G01*
X209091421Y-64683579D01*
X209134776Y-64748463D01*
X209150000Y-64825000D01*
X209150000Y-65375000D01*
X209134776Y-65451537D01*
X209091421Y-65516421D01*
X209026537Y-65559776D01*
X208950000Y-65575000D01*
X208550000Y-65575000D01*
X208473463Y-65559776D01*
X208408579Y-65516421D01*
X208365224Y-65451537D01*
X208350000Y-65375000D01*
X208350000Y-64825000D01*
X208365224Y-64748463D01*
X208408579Y-64683579D01*
X208473463Y-64640224D01*
X208550000Y-64625000D01*
X208950000Y-64625000D01*
X209026537Y-64640224D01*
G37*
G36*
X210676537Y-64640224D02*
G01*
X210741421Y-64683579D01*
X210784776Y-64748463D01*
X210800000Y-64825000D01*
X210800000Y-65375000D01*
X210784776Y-65451537D01*
X210741421Y-65516421D01*
X210676537Y-65559776D01*
X210600000Y-65575000D01*
X210200000Y-65575000D01*
X210123463Y-65559776D01*
X210058579Y-65516421D01*
X210015224Y-65451537D01*
X210000000Y-65375000D01*
X210000000Y-64825000D01*
X210015224Y-64748463D01*
X210058579Y-64683579D01*
X210123463Y-64640224D01*
X210200000Y-64625000D01*
X210600000Y-64625000D01*
X210676537Y-64640224D01*
G37*
G36*
X189300000Y-65550000D02*
G01*
X189000000Y-65550000D01*
X189000000Y-65250000D01*
X189300000Y-65250000D01*
X189300000Y-65550000D01*
G37*
G36*
X191800000Y-65550000D02*
G01*
X191500000Y-65550000D01*
X191500000Y-65250000D01*
X191800000Y-65250000D01*
X191800000Y-65550000D01*
G37*
G36*
X205811104Y-64542127D02*
G01*
X205884099Y-64590901D01*
X205932873Y-64663896D01*
X205950000Y-64750000D01*
X205950000Y-65250000D01*
X205932873Y-65336104D01*
X205884099Y-65409099D01*
X205811104Y-65457873D01*
X205725000Y-65475000D01*
X205275000Y-65475000D01*
X205188896Y-65457873D01*
X205115901Y-65409099D01*
X205067127Y-65336104D01*
X205050000Y-65250000D01*
X205050000Y-64750000D01*
X205067127Y-64663896D01*
X205115901Y-64590901D01*
X205188896Y-64542127D01*
X205275000Y-64525000D01*
X205725000Y-64525000D01*
X205811104Y-64542127D01*
G37*
G36*
X207361104Y-64542127D02*
G01*
X207434099Y-64590901D01*
X207482873Y-64663896D01*
X207500000Y-64750000D01*
X207500000Y-65250000D01*
X207482873Y-65336104D01*
X207434099Y-65409099D01*
X207361104Y-65457873D01*
X207275000Y-65475000D01*
X206825000Y-65475000D01*
X206738896Y-65457873D01*
X206665901Y-65409099D01*
X206617127Y-65336104D01*
X206600000Y-65250000D01*
X206600000Y-64750000D01*
X206617127Y-64663896D01*
X206665901Y-64590901D01*
X206738896Y-64542127D01*
X206825000Y-64525000D01*
X207275000Y-64525000D01*
X207361104Y-64542127D01*
G37*
G36*
X189300000Y-65050000D02*
G01*
X188400000Y-65050000D01*
X188400000Y-64750000D01*
X189300000Y-64750000D01*
X189300000Y-65050000D01*
G37*
G36*
X191300000Y-65050000D02*
G01*
X189500000Y-65050000D01*
X189500000Y-63250000D01*
X191300000Y-63250000D01*
X191300000Y-65050000D01*
G37*
G36*
X192400000Y-65050000D02*
G01*
X191500000Y-65050000D01*
X191500000Y-64750000D01*
X192400000Y-64750000D01*
X192400000Y-65050000D01*
G37*
G36*
X195261104Y-64032127D02*
G01*
X195334099Y-64080901D01*
X195382873Y-64153896D01*
X195400000Y-64240000D01*
X195400000Y-64740000D01*
X195382873Y-64826104D01*
X195334099Y-64899099D01*
X195261104Y-64947873D01*
X195175000Y-64965000D01*
X194725000Y-64965000D01*
X194638896Y-64947873D01*
X194565901Y-64899099D01*
X194517127Y-64826104D01*
X194500000Y-64740000D01*
X194500000Y-64240000D01*
X194517127Y-64153896D01*
X194565901Y-64080901D01*
X194638896Y-64032127D01*
X194725000Y-64015000D01*
X195175000Y-64015000D01*
X195261104Y-64032127D01*
G37*
G36*
X196811104Y-64032127D02*
G01*
X196884099Y-64080901D01*
X196932873Y-64153896D01*
X196950000Y-64240000D01*
X196950000Y-64740000D01*
X196932873Y-64826104D01*
X196884099Y-64899099D01*
X196811104Y-64947873D01*
X196725000Y-64965000D01*
X196275000Y-64965000D01*
X196188896Y-64947873D01*
X196115901Y-64899099D01*
X196067127Y-64826104D01*
X196050000Y-64740000D01*
X196050000Y-64240000D01*
X196067127Y-64153896D01*
X196115901Y-64080901D01*
X196188896Y-64032127D01*
X196275000Y-64015000D01*
X196725000Y-64015000D01*
X196811104Y-64032127D01*
G37*
G36*
X189300000Y-64550000D02*
G01*
X188400000Y-64550000D01*
X188400000Y-64250000D01*
X189300000Y-64250000D01*
X189300000Y-64550000D01*
G37*
G36*
X192400000Y-64550000D02*
G01*
X191500000Y-64550000D01*
X191500000Y-64250000D01*
X192400000Y-64250000D01*
X192400000Y-64550000D01*
G37*
G36*
X189300000Y-64050000D02*
G01*
X188400000Y-64050000D01*
X188400000Y-63750000D01*
X189300000Y-63750000D01*
X189300000Y-64050000D01*
G37*
G36*
X192400000Y-64050000D02*
G01*
X191500000Y-64050000D01*
X191500000Y-63750000D01*
X192400000Y-63750000D01*
X192400000Y-64050000D01*
G37*
G36*
X185586104Y-63042127D02*
G01*
X185659099Y-63090901D01*
X185707873Y-63163896D01*
X185725000Y-63250000D01*
X185725000Y-63750000D01*
X185707873Y-63836104D01*
X185659099Y-63909099D01*
X185586104Y-63957873D01*
X185500000Y-63975000D01*
X185050000Y-63975000D01*
X184963896Y-63957873D01*
X184890901Y-63909099D01*
X184842127Y-63836104D01*
X184825000Y-63750000D01*
X184825000Y-63250000D01*
X184842127Y-63163896D01*
X184890901Y-63090901D01*
X184963896Y-63042127D01*
X185050000Y-63025000D01*
X185500000Y-63025000D01*
X185586104Y-63042127D01*
G37*
G36*
X187136104Y-63042127D02*
G01*
X187209099Y-63090901D01*
X187257873Y-63163896D01*
X187275000Y-63250000D01*
X187275000Y-63750000D01*
X187257873Y-63836104D01*
X187209099Y-63909099D01*
X187136104Y-63957873D01*
X187050000Y-63975000D01*
X186600000Y-63975000D01*
X186513896Y-63957873D01*
X186440901Y-63909099D01*
X186392127Y-63836104D01*
X186375000Y-63750000D01*
X186375000Y-63250000D01*
X186392127Y-63163896D01*
X186440901Y-63090901D01*
X186513896Y-63042127D01*
X186600000Y-63025000D01*
X187050000Y-63025000D01*
X187136104Y-63042127D01*
G37*
G36*
X189300000Y-63550000D02*
G01*
X188400000Y-63550000D01*
X188400000Y-63250000D01*
X189300000Y-63250000D01*
X189300000Y-63550000D01*
G37*
G36*
X192400000Y-63550000D02*
G01*
X191500000Y-63550000D01*
X191500000Y-63250000D01*
X192400000Y-63250000D01*
X192400000Y-63550000D01*
G37*
G36*
X189788000Y-63076000D02*
G01*
X189488000Y-63076000D01*
X189488000Y-62176000D01*
X189788000Y-62176000D01*
X189788000Y-63076000D01*
G37*
G36*
X190296000Y-63076000D02*
G01*
X189996000Y-63076000D01*
X189996000Y-62176000D01*
X190296000Y-62176000D01*
X190296000Y-63076000D01*
G37*
G36*
X198654116Y-61625818D02*
G01*
X198705379Y-61631766D01*
X198722892Y-61639499D01*
X198745671Y-61644030D01*
X198770057Y-61660324D01*
X198790788Y-61669478D01*
X198804946Y-61683636D01*
X198826777Y-61698223D01*
X198841363Y-61720053D01*
X198855521Y-61734211D01*
X198864673Y-61754939D01*
X198880970Y-61779329D01*
X198885501Y-61802109D01*
X198893233Y-61819620D01*
X198899178Y-61870872D01*
X198900000Y-61875000D01*
X198900000Y-62825000D01*
X198899178Y-62829128D01*
X198893233Y-62880379D01*
X198885501Y-62897888D01*
X198880970Y-62920671D01*
X198864672Y-62945062D01*
X198855521Y-62965788D01*
X198841365Y-62979943D01*
X198826777Y-63001777D01*
X198804943Y-63016365D01*
X198790788Y-63030521D01*
X198770062Y-63039672D01*
X198745671Y-63055970D01*
X198722888Y-63060501D01*
X198705379Y-63068233D01*
X198654129Y-63074178D01*
X198650000Y-63075000D01*
X198150000Y-63075000D01*
X198145873Y-63074179D01*
X198094620Y-63068233D01*
X198077109Y-63060501D01*
X198054329Y-63055970D01*
X198029939Y-63039673D01*
X198009211Y-63030521D01*
X197995053Y-63016363D01*
X197973223Y-63001777D01*
X197958636Y-62979946D01*
X197944478Y-62965788D01*
X197935324Y-62945057D01*
X197919030Y-62920671D01*
X197914499Y-62897892D01*
X197906766Y-62880379D01*
X197900818Y-62829117D01*
X197900000Y-62825000D01*
X197900000Y-61875000D01*
X197900818Y-61870885D01*
X197906766Y-61819620D01*
X197914499Y-61802105D01*
X197919030Y-61779329D01*
X197935323Y-61754944D01*
X197944478Y-61734211D01*
X197958638Y-61720050D01*
X197973223Y-61698223D01*
X197995050Y-61683638D01*
X198009211Y-61669478D01*
X198029944Y-61660323D01*
X198054329Y-61644030D01*
X198077105Y-61639499D01*
X198094620Y-61631766D01*
X198145884Y-61625818D01*
X198150000Y-61625000D01*
X198650000Y-61625000D01*
X198654116Y-61625818D01*
G37*
G36*
X200554116Y-61625818D02*
G01*
X200605379Y-61631766D01*
X200622892Y-61639499D01*
X200645671Y-61644030D01*
X200670057Y-61660324D01*
X200690788Y-61669478D01*
X200704946Y-61683636D01*
X200726777Y-61698223D01*
X200741363Y-61720053D01*
X200755521Y-61734211D01*
X200764673Y-61754939D01*
X200780970Y-61779329D01*
X200785501Y-61802109D01*
X200793233Y-61819620D01*
X200799178Y-61870872D01*
X200800000Y-61875000D01*
X200800000Y-62825000D01*
X200799178Y-62829128D01*
X200793233Y-62880379D01*
X200785501Y-62897888D01*
X200780970Y-62920671D01*
X200764672Y-62945062D01*
X200755521Y-62965788D01*
X200741365Y-62979943D01*
X200726777Y-63001777D01*
X200704943Y-63016365D01*
X200690788Y-63030521D01*
X200670062Y-63039672D01*
X200645671Y-63055970D01*
X200622888Y-63060501D01*
X200605379Y-63068233D01*
X200554129Y-63074178D01*
X200550000Y-63075000D01*
X200050000Y-63075000D01*
X200045873Y-63074179D01*
X199994620Y-63068233D01*
X199977109Y-63060501D01*
X199954329Y-63055970D01*
X199929939Y-63039673D01*
X199909211Y-63030521D01*
X199895053Y-63016363D01*
X199873223Y-63001777D01*
X199858636Y-62979946D01*
X199844478Y-62965788D01*
X199835324Y-62945057D01*
X199819030Y-62920671D01*
X199814499Y-62897892D01*
X199806766Y-62880379D01*
X199800818Y-62829117D01*
X199800000Y-62825000D01*
X199800000Y-61875000D01*
X199800818Y-61870885D01*
X199806766Y-61819620D01*
X199814499Y-61802105D01*
X199819030Y-61779329D01*
X199835323Y-61754944D01*
X199844478Y-61734211D01*
X199858638Y-61720050D01*
X199873223Y-61698223D01*
X199895050Y-61683638D01*
X199909211Y-61669478D01*
X199929944Y-61660323D01*
X199954329Y-61644030D01*
X199977105Y-61639499D01*
X199994620Y-61631766D01*
X200045884Y-61625818D01*
X200050000Y-61625000D01*
X200550000Y-61625000D01*
X200554116Y-61625818D01*
G37*
G36*
X189300000Y-63050000D02*
G01*
X189000000Y-63050000D01*
X189000000Y-62750000D01*
X189300000Y-62750000D01*
X189300000Y-63050000D01*
G37*
G36*
X190800000Y-63050000D02*
G01*
X190500000Y-63050000D01*
X190500000Y-62150000D01*
X190800000Y-62150000D01*
X190800000Y-63050000D01*
G37*
G36*
X191300000Y-63050000D02*
G01*
X191000000Y-63050000D01*
X191000000Y-62150000D01*
X191300000Y-62150000D01*
X191300000Y-63050000D01*
G37*
G36*
X191800000Y-63050000D02*
G01*
X191500000Y-63050000D01*
X191500000Y-62750000D01*
X191800000Y-62750000D01*
X191800000Y-63050000D01*
G37*
G36*
X194882403Y-61676418D02*
G01*
X194931066Y-61708934D01*
X194963582Y-61757597D01*
X194975000Y-61815000D01*
X194975000Y-62840000D01*
X194963582Y-62897403D01*
X194931066Y-62946066D01*
X194882403Y-62978582D01*
X194825000Y-62990000D01*
X194525000Y-62990000D01*
X194467597Y-62978582D01*
X194418934Y-62946066D01*
X194386418Y-62897403D01*
X194375000Y-62840000D01*
X194375000Y-61815000D01*
X194386418Y-61757597D01*
X194418934Y-61708934D01*
X194467597Y-61676418D01*
X194525000Y-61665000D01*
X194825000Y-61665000D01*
X194882403Y-61676418D01*
G37*
G36*
X196782403Y-61676418D02*
G01*
X196831066Y-61708934D01*
X196863582Y-61757597D01*
X196875000Y-61815000D01*
X196875000Y-62840000D01*
X196863582Y-62897403D01*
X196831066Y-62946066D01*
X196782403Y-62978582D01*
X196725000Y-62990000D01*
X196425000Y-62990000D01*
X196367597Y-62978582D01*
X196318934Y-62946066D01*
X196286418Y-62897403D01*
X196275000Y-62840000D01*
X196275000Y-61815000D01*
X196286418Y-61757597D01*
X196318934Y-61708934D01*
X196367597Y-61676418D01*
X196425000Y-61665000D01*
X196725000Y-61665000D01*
X196782403Y-61676418D01*
G37*
G36*
X184936104Y-61442127D02*
G01*
X185009099Y-61490901D01*
X185057873Y-61563896D01*
X185075000Y-61650000D01*
X185075000Y-62150000D01*
X185057873Y-62236104D01*
X185009099Y-62309099D01*
X184936104Y-62357873D01*
X184850000Y-62375000D01*
X184400000Y-62375000D01*
X184313896Y-62357873D01*
X184240901Y-62309099D01*
X184192127Y-62236104D01*
X184175000Y-62150000D01*
X184175000Y-61650000D01*
X184192127Y-61563896D01*
X184240901Y-61490901D01*
X184313896Y-61442127D01*
X184400000Y-61425000D01*
X184850000Y-61425000D01*
X184936104Y-61442127D01*
G37*
G36*
X186486104Y-61442127D02*
G01*
X186559099Y-61490901D01*
X186607873Y-61563896D01*
X186625000Y-61650000D01*
X186625000Y-62150000D01*
X186607873Y-62236104D01*
X186559099Y-62309099D01*
X186486104Y-62357873D01*
X186400000Y-62375000D01*
X185950000Y-62375000D01*
X185863896Y-62357873D01*
X185790901Y-62309099D01*
X185742127Y-62236104D01*
X185725000Y-62150000D01*
X185725000Y-61650000D01*
X185742127Y-61563896D01*
X185790901Y-61490901D01*
X185863896Y-61442127D01*
X185950000Y-61425000D01*
X186400000Y-61425000D01*
X186486104Y-61442127D01*
G37*
G36*
X206436104Y-60542127D02*
G01*
X206509099Y-60590901D01*
X206557873Y-60663896D01*
X206575000Y-60750000D01*
X206575000Y-61250000D01*
X206557873Y-61336104D01*
X206509099Y-61409099D01*
X206436104Y-61457873D01*
X206350000Y-61475000D01*
X205900000Y-61475000D01*
X205813896Y-61457873D01*
X205740901Y-61409099D01*
X205692127Y-61336104D01*
X205675000Y-61250000D01*
X205675000Y-60750000D01*
X205692127Y-60663896D01*
X205740901Y-60590901D01*
X205813896Y-60542127D01*
X205900000Y-60525000D01*
X206350000Y-60525000D01*
X206436104Y-60542127D01*
G37*
G36*
X207986104Y-60542127D02*
G01*
X208059099Y-60590901D01*
X208107873Y-60663896D01*
X208125000Y-60750000D01*
X208125000Y-61250000D01*
X208107873Y-61336104D01*
X208059099Y-61409099D01*
X207986104Y-61457873D01*
X207900000Y-61475000D01*
X207450000Y-61475000D01*
X207363896Y-61457873D01*
X207290901Y-61409099D01*
X207242127Y-61336104D01*
X207225000Y-61250000D01*
X207225000Y-60750000D01*
X207242127Y-60663896D01*
X207290901Y-60590901D01*
X207363896Y-60542127D01*
X207450000Y-60525000D01*
X207900000Y-60525000D01*
X207986104Y-60542127D01*
G37*
G36*
X189086104Y-60442127D02*
G01*
X189159099Y-60490901D01*
X189207873Y-60563896D01*
X189225000Y-60650000D01*
X189225000Y-61100000D01*
X189207873Y-61186104D01*
X189159099Y-61259099D01*
X189086104Y-61307873D01*
X189000000Y-61325000D01*
X188500000Y-61325000D01*
X188413896Y-61307873D01*
X188340901Y-61259099D01*
X188292127Y-61186104D01*
X188275000Y-61100000D01*
X188275000Y-60650000D01*
X188292127Y-60563896D01*
X188340901Y-60490901D01*
X188413896Y-60442127D01*
X188500000Y-60425000D01*
X189000000Y-60425000D01*
X189086104Y-60442127D01*
G37*
G36*
X194882403Y-59401418D02*
G01*
X194931066Y-59433934D01*
X194963582Y-59482597D01*
X194975000Y-59540000D01*
X194975000Y-60565000D01*
X194963582Y-60622403D01*
X194931066Y-60671066D01*
X194882403Y-60703582D01*
X194825000Y-60715000D01*
X194525000Y-60715000D01*
X194467597Y-60703582D01*
X194418934Y-60671066D01*
X194386418Y-60622403D01*
X194375000Y-60565000D01*
X194375000Y-59540000D01*
X194386418Y-59482597D01*
X194418934Y-59433934D01*
X194467597Y-59401418D01*
X194525000Y-59390000D01*
X194825000Y-59390000D01*
X194882403Y-59401418D01*
G37*
G36*
X195832403Y-59401418D02*
G01*
X195881066Y-59433934D01*
X195913582Y-59482597D01*
X195925000Y-59540000D01*
X195925000Y-60565000D01*
X195913582Y-60622403D01*
X195881066Y-60671066D01*
X195832403Y-60703582D01*
X195775000Y-60715000D01*
X195475000Y-60715000D01*
X195417597Y-60703582D01*
X195368934Y-60671066D01*
X195336418Y-60622403D01*
X195325000Y-60565000D01*
X195325000Y-59540000D01*
X195336418Y-59482597D01*
X195368934Y-59433934D01*
X195417597Y-59401418D01*
X195475000Y-59390000D01*
X195775000Y-59390000D01*
X195832403Y-59401418D01*
G37*
G36*
X196782403Y-59401418D02*
G01*
X196831066Y-59433934D01*
X196863582Y-59482597D01*
X196875000Y-59540000D01*
X196875000Y-60565000D01*
X196863582Y-60622403D01*
X196831066Y-60671066D01*
X196782403Y-60703582D01*
X196725000Y-60715000D01*
X196425000Y-60715000D01*
X196367597Y-60703582D01*
X196318934Y-60671066D01*
X196286418Y-60622403D01*
X196275000Y-60565000D01*
X196275000Y-59540000D01*
X196286418Y-59482597D01*
X196318934Y-59433934D01*
X196367597Y-59401418D01*
X196425000Y-59390000D01*
X196725000Y-59390000D01*
X196782403Y-59401418D01*
G37*
G36*
X185786104Y-59742127D02*
G01*
X185859099Y-59790901D01*
X185907873Y-59863896D01*
X185925000Y-59950000D01*
X185925000Y-60450000D01*
X185907873Y-60536104D01*
X185859099Y-60609099D01*
X185786104Y-60657873D01*
X185700000Y-60675000D01*
X185250000Y-60675000D01*
X185163896Y-60657873D01*
X185090901Y-60609099D01*
X185042127Y-60536104D01*
X185025000Y-60450000D01*
X185025000Y-59950000D01*
X185042127Y-59863896D01*
X185090901Y-59790901D01*
X185163896Y-59742127D01*
X185250000Y-59725000D01*
X185700000Y-59725000D01*
X185786104Y-59742127D01*
G37*
G36*
X187336104Y-59742127D02*
G01*
X187409099Y-59790901D01*
X187457873Y-59863896D01*
X187475000Y-59950000D01*
X187475000Y-60450000D01*
X187457873Y-60536104D01*
X187409099Y-60609099D01*
X187336104Y-60657873D01*
X187250000Y-60675000D01*
X186800000Y-60675000D01*
X186713896Y-60657873D01*
X186640901Y-60609099D01*
X186592127Y-60536104D01*
X186575000Y-60450000D01*
X186575000Y-59950000D01*
X186592127Y-59863896D01*
X186640901Y-59790901D01*
X186713896Y-59742127D01*
X186800000Y-59725000D01*
X187250000Y-59725000D01*
X187336104Y-59742127D01*
G37*
G36*
X198811104Y-59392127D02*
G01*
X198884099Y-59440901D01*
X198932873Y-59513896D01*
X198950000Y-59600000D01*
X198950000Y-60100000D01*
X198932873Y-60186104D01*
X198884099Y-60259099D01*
X198811104Y-60307873D01*
X198725000Y-60325000D01*
X198275000Y-60325000D01*
X198188896Y-60307873D01*
X198115901Y-60259099D01*
X198067127Y-60186104D01*
X198050000Y-60100000D01*
X198050000Y-59600000D01*
X198067127Y-59513896D01*
X198115901Y-59440901D01*
X198188896Y-59392127D01*
X198275000Y-59375000D01*
X198725000Y-59375000D01*
X198811104Y-59392127D01*
G37*
G36*
X200361104Y-59392127D02*
G01*
X200434099Y-59440901D01*
X200482873Y-59513896D01*
X200500000Y-59600000D01*
X200500000Y-60100000D01*
X200482873Y-60186104D01*
X200434099Y-60259099D01*
X200361104Y-60307873D01*
X200275000Y-60325000D01*
X199825000Y-60325000D01*
X199738896Y-60307873D01*
X199665901Y-60259099D01*
X199617127Y-60186104D01*
X199600000Y-60100000D01*
X199600000Y-59600000D01*
X199617127Y-59513896D01*
X199665901Y-59440901D01*
X199738896Y-59392127D01*
X199825000Y-59375000D01*
X200275000Y-59375000D01*
X200361104Y-59392127D01*
G37*
G36*
X189086104Y-58892127D02*
G01*
X189159099Y-58940901D01*
X189207873Y-59013896D01*
X189225000Y-59100000D01*
X189225000Y-59550000D01*
X189207873Y-59636104D01*
X189159099Y-59709099D01*
X189086104Y-59757873D01*
X189000000Y-59775000D01*
X188500000Y-59775000D01*
X188413896Y-59757873D01*
X188340901Y-59709099D01*
X188292127Y-59636104D01*
X188275000Y-59550000D01*
X188275000Y-59100000D01*
X188292127Y-59013896D01*
X188340901Y-58940901D01*
X188413896Y-58892127D01*
X188500000Y-58875000D01*
X189000000Y-58875000D01*
X189086104Y-58892127D01*
G37*
G36*
X206307403Y-57511418D02*
G01*
X206356066Y-57543934D01*
X206388582Y-57592597D01*
X206400000Y-57650000D01*
X206400000Y-59025000D01*
X206388582Y-59082403D01*
X206356066Y-59131066D01*
X206307403Y-59163582D01*
X206250000Y-59175000D01*
X205950000Y-59175000D01*
X205892597Y-59163582D01*
X205843934Y-59131066D01*
X205811418Y-59082403D01*
X205800000Y-59025000D01*
X205800000Y-57650000D01*
X205811418Y-57592597D01*
X205843934Y-57543934D01*
X205892597Y-57511418D01*
X205950000Y-57500000D01*
X206250000Y-57500000D01*
X206307403Y-57511418D01*
G37*
G36*
X207307403Y-57511418D02*
G01*
X207356066Y-57543934D01*
X207388582Y-57592597D01*
X207400000Y-57650000D01*
X207400000Y-59025000D01*
X207388582Y-59082403D01*
X207356066Y-59131066D01*
X207307403Y-59163582D01*
X207250000Y-59175000D01*
X206950000Y-59175000D01*
X206892597Y-59163582D01*
X206843934Y-59131066D01*
X206811418Y-59082403D01*
X206800000Y-59025000D01*
X206800000Y-57650000D01*
X206811418Y-57592597D01*
X206843934Y-57543934D01*
X206892597Y-57511418D01*
X206950000Y-57500000D01*
X207250000Y-57500000D01*
X207307403Y-57511418D01*
G37*
G36*
X208307403Y-57511418D02*
G01*
X208356066Y-57543934D01*
X208388582Y-57592597D01*
X208400000Y-57650000D01*
X208400000Y-59025000D01*
X208388582Y-59082403D01*
X208356066Y-59131066D01*
X208307403Y-59163582D01*
X208250000Y-59175000D01*
X207950000Y-59175000D01*
X207892597Y-59163582D01*
X207843934Y-59131066D01*
X207811418Y-59082403D01*
X207800000Y-59025000D01*
X207800000Y-57650000D01*
X207811418Y-57592597D01*
X207843934Y-57543934D01*
X207892597Y-57511418D01*
X207950000Y-57500000D01*
X208250000Y-57500000D01*
X208307403Y-57511418D01*
G37*
G36*
X209307403Y-57511418D02*
G01*
X209356066Y-57543934D01*
X209388582Y-57592597D01*
X209400000Y-57650000D01*
X209400000Y-59025000D01*
X209388582Y-59082403D01*
X209356066Y-59131066D01*
X209307403Y-59163582D01*
X209250000Y-59175000D01*
X208950000Y-59175000D01*
X208892597Y-59163582D01*
X208843934Y-59131066D01*
X208811418Y-59082403D01*
X208800000Y-59025000D01*
X208800000Y-57650000D01*
X208811418Y-57592597D01*
X208843934Y-57543934D01*
X208892597Y-57511418D01*
X208950000Y-57500000D01*
X209250000Y-57500000D01*
X209307403Y-57511418D01*
G37*
G36*
X210307403Y-57511418D02*
G01*
X210356066Y-57543934D01*
X210388582Y-57592597D01*
X210400000Y-57650000D01*
X210400000Y-59025000D01*
X210388582Y-59082403D01*
X210356066Y-59131066D01*
X210307403Y-59163582D01*
X210250000Y-59175000D01*
X209950000Y-59175000D01*
X209892597Y-59163582D01*
X209843934Y-59131066D01*
X209811418Y-59082403D01*
X209800000Y-59025000D01*
X209800000Y-57650000D01*
X209811418Y-57592597D01*
X209843934Y-57543934D01*
X209892597Y-57511418D01*
X209950000Y-57500000D01*
X210250000Y-57500000D01*
X210307403Y-57511418D01*
G37*
G36*
X194579116Y-56903318D02*
G01*
X194630379Y-56909266D01*
X194647892Y-56916999D01*
X194670671Y-56921530D01*
X194695057Y-56937824D01*
X194715788Y-56946978D01*
X194729946Y-56961136D01*
X194751777Y-56975723D01*
X194766363Y-56997553D01*
X194780521Y-57011711D01*
X194789673Y-57032439D01*
X194805970Y-57056829D01*
X194810501Y-57079609D01*
X194818233Y-57097120D01*
X194824178Y-57148372D01*
X194825000Y-57152500D01*
X194825000Y-58102500D01*
X194824178Y-58106628D01*
X194818233Y-58157879D01*
X194810501Y-58175388D01*
X194805970Y-58198171D01*
X194789672Y-58222562D01*
X194780521Y-58243288D01*
X194766365Y-58257443D01*
X194751777Y-58279277D01*
X194729943Y-58293865D01*
X194715788Y-58308021D01*
X194695062Y-58317172D01*
X194670671Y-58333470D01*
X194647888Y-58338001D01*
X194630379Y-58345733D01*
X194579129Y-58351678D01*
X194575000Y-58352500D01*
X194075000Y-58352500D01*
X194070873Y-58351679D01*
X194019620Y-58345733D01*
X194002109Y-58338001D01*
X193979329Y-58333470D01*
X193954939Y-58317173D01*
X193934211Y-58308021D01*
X193920053Y-58293863D01*
X193898223Y-58279277D01*
X193883636Y-58257446D01*
X193869478Y-58243288D01*
X193860324Y-58222557D01*
X193844030Y-58198171D01*
X193839499Y-58175392D01*
X193831766Y-58157879D01*
X193825818Y-58106617D01*
X193825000Y-58102500D01*
X193825000Y-57152500D01*
X193825818Y-57148385D01*
X193831766Y-57097120D01*
X193839499Y-57079605D01*
X193844030Y-57056829D01*
X193860323Y-57032444D01*
X193869478Y-57011711D01*
X193883638Y-56997550D01*
X193898223Y-56975723D01*
X193920050Y-56961138D01*
X193934211Y-56946978D01*
X193954944Y-56937823D01*
X193979329Y-56921530D01*
X194002105Y-56916999D01*
X194019620Y-56909266D01*
X194070884Y-56903318D01*
X194075000Y-56902500D01*
X194575000Y-56902500D01*
X194579116Y-56903318D01*
G37*
G36*
X196479116Y-56903318D02*
G01*
X196530379Y-56909266D01*
X196547892Y-56916999D01*
X196570671Y-56921530D01*
X196595057Y-56937824D01*
X196615788Y-56946978D01*
X196629946Y-56961136D01*
X196651777Y-56975723D01*
X196666363Y-56997553D01*
X196680521Y-57011711D01*
X196689673Y-57032439D01*
X196705970Y-57056829D01*
X196710501Y-57079609D01*
X196718233Y-57097120D01*
X196724178Y-57148372D01*
X196725000Y-57152500D01*
X196725000Y-58102500D01*
X196724178Y-58106628D01*
X196718233Y-58157879D01*
X196710501Y-58175388D01*
X196705970Y-58198171D01*
X196689672Y-58222562D01*
X196680521Y-58243288D01*
X196666365Y-58257443D01*
X196651777Y-58279277D01*
X196629943Y-58293865D01*
X196615788Y-58308021D01*
X196595062Y-58317172D01*
X196570671Y-58333470D01*
X196547888Y-58338001D01*
X196530379Y-58345733D01*
X196479129Y-58351678D01*
X196475000Y-58352500D01*
X195975000Y-58352500D01*
X195970873Y-58351679D01*
X195919620Y-58345733D01*
X195902109Y-58338001D01*
X195879329Y-58333470D01*
X195854939Y-58317173D01*
X195834211Y-58308021D01*
X195820053Y-58293863D01*
X195798223Y-58279277D01*
X195783636Y-58257446D01*
X195769478Y-58243288D01*
X195760324Y-58222557D01*
X195744030Y-58198171D01*
X195739499Y-58175392D01*
X195731766Y-58157879D01*
X195725818Y-58106617D01*
X195725000Y-58102500D01*
X195725000Y-57152500D01*
X195725818Y-57148385D01*
X195731766Y-57097120D01*
X195739499Y-57079605D01*
X195744030Y-57056829D01*
X195760323Y-57032444D01*
X195769478Y-57011711D01*
X195783638Y-56997550D01*
X195798223Y-56975723D01*
X195820050Y-56961138D01*
X195834211Y-56946978D01*
X195854944Y-56937823D01*
X195879329Y-56921530D01*
X195902105Y-56916999D01*
X195919620Y-56909266D01*
X195970884Y-56903318D01*
X195975000Y-56902500D01*
X196475000Y-56902500D01*
X196479116Y-56903318D01*
G37*
G36*
X189054116Y-55850818D02*
G01*
X189105379Y-55856766D01*
X189122892Y-55864499D01*
X189145671Y-55869030D01*
X189170057Y-55885324D01*
X189190788Y-55894478D01*
X189204946Y-55908636D01*
X189226777Y-55923223D01*
X189241363Y-55945053D01*
X189255521Y-55959211D01*
X189264673Y-55979939D01*
X189280970Y-56004329D01*
X189285501Y-56027109D01*
X189293233Y-56044620D01*
X189299178Y-56095872D01*
X189300000Y-56100000D01*
X189300000Y-58100000D01*
X189299178Y-58104128D01*
X189293233Y-58155379D01*
X189285501Y-58172888D01*
X189280970Y-58195671D01*
X189264672Y-58220062D01*
X189255521Y-58240788D01*
X189241365Y-58254943D01*
X189226777Y-58276777D01*
X189204943Y-58291365D01*
X189190788Y-58305521D01*
X189170062Y-58314672D01*
X189145671Y-58330970D01*
X189122888Y-58335501D01*
X189105379Y-58343233D01*
X189054129Y-58349178D01*
X189050000Y-58350000D01*
X187750000Y-58350000D01*
X187745873Y-58349179D01*
X187694620Y-58343233D01*
X187677109Y-58335501D01*
X187654329Y-58330970D01*
X187629939Y-58314673D01*
X187609211Y-58305521D01*
X187595053Y-58291363D01*
X187573223Y-58276777D01*
X187558636Y-58254946D01*
X187544478Y-58240788D01*
X187535324Y-58220057D01*
X187519030Y-58195671D01*
X187514499Y-58172892D01*
X187506766Y-58155379D01*
X187500818Y-58104117D01*
X187500000Y-58100000D01*
X187500000Y-56100000D01*
X187500818Y-56095885D01*
X187506766Y-56044620D01*
X187514499Y-56027105D01*
X187519030Y-56004329D01*
X187535323Y-55979944D01*
X187544478Y-55959211D01*
X187558638Y-55945050D01*
X187573223Y-55923223D01*
X187595050Y-55908638D01*
X187609211Y-55894478D01*
X187629944Y-55885323D01*
X187654329Y-55869030D01*
X187677105Y-55864499D01*
X187694620Y-55856766D01*
X187745884Y-55850818D01*
X187750000Y-55850000D01*
X189050000Y-55850000D01*
X189054116Y-55850818D01*
G37*
G36*
X204451537Y-56065224D02*
G01*
X204516421Y-56108579D01*
X204559776Y-56173463D01*
X204575000Y-56250000D01*
X204575000Y-56650000D01*
X204559776Y-56726537D01*
X204516421Y-56791421D01*
X204451537Y-56834776D01*
X204375000Y-56850000D01*
X203825000Y-56850000D01*
X203748463Y-56834776D01*
X203683579Y-56791421D01*
X203640224Y-56726537D01*
X203625000Y-56650000D01*
X203625000Y-56250000D01*
X203640224Y-56173463D01*
X203683579Y-56108579D01*
X203748463Y-56065224D01*
X203825000Y-56050000D01*
X204375000Y-56050000D01*
X204451537Y-56065224D01*
G37*
G36*
X209750000Y-56750000D02*
G01*
X206450000Y-56750000D01*
X206450000Y-54650000D01*
X209750000Y-54650000D01*
X209750000Y-56750000D01*
G37*
G36*
X185779116Y-54625818D02*
G01*
X185830379Y-54631766D01*
X185847892Y-54639499D01*
X185870671Y-54644030D01*
X185895057Y-54660324D01*
X185915788Y-54669478D01*
X185929946Y-54683636D01*
X185951777Y-54698223D01*
X185966363Y-54720053D01*
X185980521Y-54734211D01*
X185989673Y-54754939D01*
X186005970Y-54779329D01*
X186010501Y-54802109D01*
X186018233Y-54819620D01*
X186024178Y-54870872D01*
X186025000Y-54875000D01*
X186025000Y-55625000D01*
X186024178Y-55629128D01*
X186018233Y-55680379D01*
X186010501Y-55697888D01*
X186005970Y-55720671D01*
X185989672Y-55745062D01*
X185980521Y-55765788D01*
X185966365Y-55779943D01*
X185951777Y-55801777D01*
X185929943Y-55816365D01*
X185915788Y-55830521D01*
X185895062Y-55839672D01*
X185870671Y-55855970D01*
X185847888Y-55860501D01*
X185830379Y-55868233D01*
X185779129Y-55874178D01*
X185775000Y-55875000D01*
X184525000Y-55875000D01*
X184520873Y-55874179D01*
X184469620Y-55868233D01*
X184452109Y-55860501D01*
X184429329Y-55855970D01*
X184404939Y-55839673D01*
X184384211Y-55830521D01*
X184370053Y-55816363D01*
X184348223Y-55801777D01*
X184333636Y-55779946D01*
X184319478Y-55765788D01*
X184310324Y-55745057D01*
X184294030Y-55720671D01*
X184289499Y-55697892D01*
X184281766Y-55680379D01*
X184275818Y-55629117D01*
X184275000Y-55625000D01*
X184275000Y-54875000D01*
X184275818Y-54870885D01*
X184281766Y-54819620D01*
X184289499Y-54802105D01*
X184294030Y-54779329D01*
X184310323Y-54754944D01*
X184319478Y-54734211D01*
X184333638Y-54720050D01*
X184348223Y-54698223D01*
X184370050Y-54683638D01*
X184384211Y-54669478D01*
X184404944Y-54660323D01*
X184429329Y-54644030D01*
X184452105Y-54639499D01*
X184469620Y-54631766D01*
X184520884Y-54625818D01*
X184525000Y-54625000D01*
X185775000Y-54625000D01*
X185779116Y-54625818D01*
G37*
G36*
X192641970Y-54813321D02*
G01*
X192698744Y-54851256D01*
X192736679Y-54908030D01*
X192750000Y-54975000D01*
X192750000Y-55325000D01*
X192736679Y-55391970D01*
X192698744Y-55448744D01*
X192641970Y-55486679D01*
X192575000Y-55500000D01*
X191925000Y-55500000D01*
X191858030Y-55486679D01*
X191801256Y-55448744D01*
X191763321Y-55391970D01*
X191750000Y-55325000D01*
X191750000Y-54975000D01*
X191763321Y-54908030D01*
X191801256Y-54851256D01*
X191858030Y-54813321D01*
X191925000Y-54800000D01*
X192575000Y-54800000D01*
X192641970Y-54813321D01*
G37*
G36*
X194157403Y-54811418D02*
G01*
X194206066Y-54843934D01*
X194238582Y-54892597D01*
X194250000Y-54950000D01*
X194250000Y-55350000D01*
X194238582Y-55407403D01*
X194206066Y-55456066D01*
X194157403Y-55488582D01*
X194100000Y-55500000D01*
X193800000Y-55500000D01*
X193742597Y-55488582D01*
X193693934Y-55456066D01*
X193661418Y-55407403D01*
X193650000Y-55350000D01*
X193650000Y-54950000D01*
X193661418Y-54892597D01*
X193693934Y-54843934D01*
X193742597Y-54811418D01*
X193800000Y-54800000D01*
X194100000Y-54800000D01*
X194157403Y-54811418D01*
G37*
G36*
X204451537Y-54415224D02*
G01*
X204516421Y-54458579D01*
X204559776Y-54523463D01*
X204575000Y-54600000D01*
X204575000Y-55000000D01*
X204559776Y-55076537D01*
X204516421Y-55141421D01*
X204451537Y-55184776D01*
X204375000Y-55200000D01*
X203825000Y-55200000D01*
X203748463Y-55184776D01*
X203683579Y-55141421D01*
X203640224Y-55076537D01*
X203625000Y-55000000D01*
X203625000Y-54600000D01*
X203640224Y-54523463D01*
X203683579Y-54458579D01*
X203748463Y-54415224D01*
X203825000Y-54400000D01*
X204375000Y-54400000D01*
X204451537Y-54415224D01*
G37*
G36*
X189054116Y-51850818D02*
G01*
X189105379Y-51856766D01*
X189122892Y-51864499D01*
X189145671Y-51869030D01*
X189170057Y-51885324D01*
X189190788Y-51894478D01*
X189204946Y-51908636D01*
X189226777Y-51923223D01*
X189241363Y-51945053D01*
X189255521Y-51959211D01*
X189264673Y-51979939D01*
X189280970Y-52004329D01*
X189285501Y-52027109D01*
X189293233Y-52044620D01*
X189299178Y-52095872D01*
X189300000Y-52100000D01*
X189300000Y-54100000D01*
X189299178Y-54104128D01*
X189293233Y-54155379D01*
X189285501Y-54172888D01*
X189280970Y-54195671D01*
X189264672Y-54220062D01*
X189255521Y-54240788D01*
X189241365Y-54254943D01*
X189226777Y-54276777D01*
X189204943Y-54291365D01*
X189190788Y-54305521D01*
X189170062Y-54314672D01*
X189145671Y-54330970D01*
X189122888Y-54335501D01*
X189105379Y-54343233D01*
X189054129Y-54349178D01*
X189050000Y-54350000D01*
X187750000Y-54350000D01*
X187745873Y-54349179D01*
X187694620Y-54343233D01*
X187677109Y-54335501D01*
X187654329Y-54330970D01*
X187629939Y-54314673D01*
X187609211Y-54305521D01*
X187595053Y-54291363D01*
X187573223Y-54276777D01*
X187558636Y-54254946D01*
X187544478Y-54240788D01*
X187535324Y-54220057D01*
X187519030Y-54195671D01*
X187514499Y-54172892D01*
X187506766Y-54155379D01*
X187500818Y-54104117D01*
X187500000Y-54100000D01*
X187500000Y-52100000D01*
X187500818Y-52095885D01*
X187506766Y-52044620D01*
X187514499Y-52027105D01*
X187519030Y-52004329D01*
X187535323Y-51979944D01*
X187544478Y-51959211D01*
X187558638Y-51945050D01*
X187573223Y-51923223D01*
X187595050Y-51908638D01*
X187609211Y-51894478D01*
X187629944Y-51885323D01*
X187654329Y-51869030D01*
X187677105Y-51864499D01*
X187694620Y-51856766D01*
X187745884Y-51850818D01*
X187750000Y-51850000D01*
X189050000Y-51850000D01*
X189054116Y-51850818D01*
G37*
G36*
X206307403Y-52236418D02*
G01*
X206356066Y-52268934D01*
X206388582Y-52317597D01*
X206400000Y-52375000D01*
X206400000Y-53750000D01*
X206388582Y-53807403D01*
X206356066Y-53856066D01*
X206307403Y-53888582D01*
X206250000Y-53900000D01*
X205950000Y-53900000D01*
X205892597Y-53888582D01*
X205843934Y-53856066D01*
X205811418Y-53807403D01*
X205800000Y-53750000D01*
X205800000Y-52375000D01*
X205811418Y-52317597D01*
X205843934Y-52268934D01*
X205892597Y-52236418D01*
X205950000Y-52225000D01*
X206250000Y-52225000D01*
X206307403Y-52236418D01*
G37*
G36*
X207307403Y-52236418D02*
G01*
X207356066Y-52268934D01*
X207388582Y-52317597D01*
X207400000Y-52375000D01*
X207400000Y-53750000D01*
X207388582Y-53807403D01*
X207356066Y-53856066D01*
X207307403Y-53888582D01*
X207250000Y-53900000D01*
X206950000Y-53900000D01*
X206892597Y-53888582D01*
X206843934Y-53856066D01*
X206811418Y-53807403D01*
X206800000Y-53750000D01*
X206800000Y-52375000D01*
X206811418Y-52317597D01*
X206843934Y-52268934D01*
X206892597Y-52236418D01*
X206950000Y-52225000D01*
X207250000Y-52225000D01*
X207307403Y-52236418D01*
G37*
G36*
X208307403Y-52236418D02*
G01*
X208356066Y-52268934D01*
X208388582Y-52317597D01*
X208400000Y-52375000D01*
X208400000Y-53750000D01*
X208388582Y-53807403D01*
X208356066Y-53856066D01*
X208307403Y-53888582D01*
X208250000Y-53900000D01*
X207950000Y-53900000D01*
X207892597Y-53888582D01*
X207843934Y-53856066D01*
X207811418Y-53807403D01*
X207800000Y-53750000D01*
X207800000Y-52375000D01*
X207811418Y-52317597D01*
X207843934Y-52268934D01*
X207892597Y-52236418D01*
X207950000Y-52225000D01*
X208250000Y-52225000D01*
X208307403Y-52236418D01*
G37*
G36*
X209307403Y-52236418D02*
G01*
X209356066Y-52268934D01*
X209388582Y-52317597D01*
X209400000Y-52375000D01*
X209400000Y-53750000D01*
X209388582Y-53807403D01*
X209356066Y-53856066D01*
X209307403Y-53888582D01*
X209250000Y-53900000D01*
X208950000Y-53900000D01*
X208892597Y-53888582D01*
X208843934Y-53856066D01*
X208811418Y-53807403D01*
X208800000Y-53750000D01*
X208800000Y-52375000D01*
X208811418Y-52317597D01*
X208843934Y-52268934D01*
X208892597Y-52236418D01*
X208950000Y-52225000D01*
X209250000Y-52225000D01*
X209307403Y-52236418D01*
G37*
G36*
X210307403Y-52236418D02*
G01*
X210356066Y-52268934D01*
X210388582Y-52317597D01*
X210400000Y-52375000D01*
X210400000Y-53750000D01*
X210388582Y-53807403D01*
X210356066Y-53856066D01*
X210307403Y-53888582D01*
X210250000Y-53900000D01*
X209950000Y-53900000D01*
X209892597Y-53888582D01*
X209843934Y-53856066D01*
X209811418Y-53807403D01*
X209800000Y-53750000D01*
X209800000Y-52375000D01*
X209811418Y-52317597D01*
X209843934Y-52268934D01*
X209892597Y-52236418D01*
X209950000Y-52225000D01*
X210250000Y-52225000D01*
X210307403Y-52236418D01*
G37*
G36*
X192257403Y-52811418D02*
G01*
X192306066Y-52843934D01*
X192338582Y-52892597D01*
X192350000Y-52950000D01*
X192350000Y-53350000D01*
X192338582Y-53407403D01*
X192306066Y-53456066D01*
X192257403Y-53488582D01*
X192200000Y-53500000D01*
X191900000Y-53500000D01*
X191842597Y-53488582D01*
X191793934Y-53456066D01*
X191761418Y-53407403D01*
X191750000Y-53350000D01*
X191750000Y-52950000D01*
X191761418Y-52892597D01*
X191793934Y-52843934D01*
X191842597Y-52811418D01*
X191900000Y-52800000D01*
X192200000Y-52800000D01*
X192257403Y-52811418D01*
G37*
G36*
X194157403Y-52811418D02*
G01*
X194206066Y-52843934D01*
X194238582Y-52892597D01*
X194250000Y-52950000D01*
X194250000Y-53350000D01*
X194238582Y-53407403D01*
X194206066Y-53456066D01*
X194157403Y-53488582D01*
X194100000Y-53500000D01*
X193800000Y-53500000D01*
X193742597Y-53488582D01*
X193693934Y-53456066D01*
X193661418Y-53407403D01*
X193650000Y-53350000D01*
X193650000Y-52950000D01*
X193661418Y-52892597D01*
X193693934Y-52843934D01*
X193742597Y-52811418D01*
X193800000Y-52800000D01*
X194100000Y-52800000D01*
X194157403Y-52811418D01*
G37*
G36*
X185779116Y-51825818D02*
G01*
X185830379Y-51831766D01*
X185847892Y-51839499D01*
X185870671Y-51844030D01*
X185895057Y-51860324D01*
X185915788Y-51869478D01*
X185929946Y-51883636D01*
X185951777Y-51898223D01*
X185966363Y-51920053D01*
X185980521Y-51934211D01*
X185989673Y-51954939D01*
X186005970Y-51979329D01*
X186010501Y-52002109D01*
X186018233Y-52019620D01*
X186024178Y-52070872D01*
X186025000Y-52075000D01*
X186025000Y-52825000D01*
X186024178Y-52829128D01*
X186018233Y-52880379D01*
X186010501Y-52897888D01*
X186005970Y-52920671D01*
X185989672Y-52945062D01*
X185980521Y-52965788D01*
X185966365Y-52979943D01*
X185951777Y-53001777D01*
X185929943Y-53016365D01*
X185915788Y-53030521D01*
X185895062Y-53039672D01*
X185870671Y-53055970D01*
X185847888Y-53060501D01*
X185830379Y-53068233D01*
X185779129Y-53074178D01*
X185775000Y-53075000D01*
X184525000Y-53075000D01*
X184520873Y-53074179D01*
X184469620Y-53068233D01*
X184452109Y-53060501D01*
X184429329Y-53055970D01*
X184404939Y-53039673D01*
X184384211Y-53030521D01*
X184370053Y-53016363D01*
X184348223Y-53001777D01*
X184333636Y-52979946D01*
X184319478Y-52965788D01*
X184310324Y-52945057D01*
X184294030Y-52920671D01*
X184289499Y-52897892D01*
X184281766Y-52880379D01*
X184275818Y-52829117D01*
X184275000Y-52825000D01*
X184275000Y-52075000D01*
X184275818Y-52070885D01*
X184281766Y-52019620D01*
X184289499Y-52002105D01*
X184294030Y-51979329D01*
X184310323Y-51954944D01*
X184319478Y-51934211D01*
X184333638Y-51920050D01*
X184348223Y-51898223D01*
X184370050Y-51883638D01*
X184384211Y-51869478D01*
X184404944Y-51860323D01*
X184429329Y-51844030D01*
X184452105Y-51839499D01*
X184469620Y-51831766D01*
X184520884Y-51825818D01*
X184525000Y-51825000D01*
X185775000Y-51825000D01*
X185779116Y-51825818D01*
G37*
G36*
X206451537Y-50340224D02*
G01*
X206516421Y-50383579D01*
X206559776Y-50448463D01*
X206575000Y-50525000D01*
X206575000Y-51075000D01*
X206559776Y-51151537D01*
X206516421Y-51216421D01*
X206451537Y-51259776D01*
X206375000Y-51275000D01*
X205975000Y-51275000D01*
X205898463Y-51259776D01*
X205833579Y-51216421D01*
X205790224Y-51151537D01*
X205775000Y-51075000D01*
X205775000Y-50525000D01*
X205790224Y-50448463D01*
X205833579Y-50383579D01*
X205898463Y-50340224D01*
X205975000Y-50325000D01*
X206375000Y-50325000D01*
X206451537Y-50340224D01*
G37*
G36*
X208101537Y-50340224D02*
G01*
X208166421Y-50383579D01*
X208209776Y-50448463D01*
X208225000Y-50525000D01*
X208225000Y-51075000D01*
X208209776Y-51151537D01*
X208166421Y-51216421D01*
X208101537Y-51259776D01*
X208025000Y-51275000D01*
X207625000Y-51275000D01*
X207548463Y-51259776D01*
X207483579Y-51216421D01*
X207440224Y-51151537D01*
X207425000Y-51075000D01*
X207425000Y-50525000D01*
X207440224Y-50448463D01*
X207483579Y-50383579D01*
X207548463Y-50340224D01*
X207625000Y-50325000D01*
X208025000Y-50325000D01*
X208101537Y-50340224D01*
G37*
G36*
X188407403Y-49366418D02*
G01*
X188456066Y-49398934D01*
X188488582Y-49447597D01*
X188500000Y-49505000D01*
X188500000Y-50355000D01*
X188488582Y-50412403D01*
X188456066Y-50461066D01*
X188407403Y-50493582D01*
X188350000Y-50505000D01*
X188050000Y-50505000D01*
X187992597Y-50493582D01*
X187943934Y-50461066D01*
X187911418Y-50412403D01*
X187900000Y-50355000D01*
X187900000Y-49505000D01*
X187911418Y-49447597D01*
X187943934Y-49398934D01*
X187992597Y-49366418D01*
X188050000Y-49355000D01*
X188350000Y-49355000D01*
X188407403Y-49366418D01*
G37*
G36*
X189207403Y-49366418D02*
G01*
X189256066Y-49398934D01*
X189288582Y-49447597D01*
X189300000Y-49505000D01*
X189300000Y-50355000D01*
X189288582Y-50412403D01*
X189256066Y-50461066D01*
X189207403Y-50493582D01*
X189150000Y-50505000D01*
X188850000Y-50505000D01*
X188792597Y-50493582D01*
X188743934Y-50461066D01*
X188711418Y-50412403D01*
X188700000Y-50355000D01*
X188700000Y-49505000D01*
X188711418Y-49447597D01*
X188743934Y-49398934D01*
X188792597Y-49366418D01*
X188850000Y-49355000D01*
X189150000Y-49355000D01*
X189207403Y-49366418D01*
G37*
G36*
X189753701Y-49360709D02*
G01*
X189778033Y-49376967D01*
X189794291Y-49401299D01*
X189800000Y-49430000D01*
X189800000Y-50430000D01*
X189794291Y-50458701D01*
X189778033Y-50483033D01*
X189753701Y-50499291D01*
X189725000Y-50505000D01*
X189575000Y-50505000D01*
X189546299Y-50499291D01*
X189521967Y-50483033D01*
X189505709Y-50458701D01*
X189500000Y-50430000D01*
X189500000Y-49430000D01*
X189505709Y-49401299D01*
X189521967Y-49376967D01*
X189546299Y-49360709D01*
X189575000Y-49355000D01*
X189725000Y-49355000D01*
X189753701Y-49360709D01*
G37*
G36*
X190253701Y-49360709D02*
G01*
X190278033Y-49376967D01*
X190294291Y-49401299D01*
X190300000Y-49430000D01*
X190300000Y-50430000D01*
X190294291Y-50458701D01*
X190278033Y-50483033D01*
X190253701Y-50499291D01*
X190225000Y-50505000D01*
X190075000Y-50505000D01*
X190046299Y-50499291D01*
X190021967Y-50483033D01*
X190005709Y-50458701D01*
X190000000Y-50430000D01*
X190000000Y-49430000D01*
X190005709Y-49401299D01*
X190021967Y-49376967D01*
X190046299Y-49360709D01*
X190075000Y-49355000D01*
X190225000Y-49355000D01*
X190253701Y-49360709D01*
G37*
G36*
X190753701Y-49360709D02*
G01*
X190778033Y-49376967D01*
X190794291Y-49401299D01*
X190800000Y-49430000D01*
X190800000Y-50430000D01*
X190794291Y-50458701D01*
X190778033Y-50483033D01*
X190753701Y-50499291D01*
X190725000Y-50505000D01*
X190575000Y-50505000D01*
X190546299Y-50499291D01*
X190521967Y-50483033D01*
X190505709Y-50458701D01*
X190500000Y-50430000D01*
X190500000Y-49430000D01*
X190505709Y-49401299D01*
X190521967Y-49376967D01*
X190546299Y-49360709D01*
X190575000Y-49355000D01*
X190725000Y-49355000D01*
X190753701Y-49360709D01*
G37*
G36*
X191253701Y-49360709D02*
G01*
X191278033Y-49376967D01*
X191294291Y-49401299D01*
X191300000Y-49430000D01*
X191300000Y-50430000D01*
X191294291Y-50458701D01*
X191278033Y-50483033D01*
X191253701Y-50499291D01*
X191225000Y-50505000D01*
X191075000Y-50505000D01*
X191046299Y-50499291D01*
X191021967Y-50483033D01*
X191005709Y-50458701D01*
X191000000Y-50430000D01*
X191000000Y-49430000D01*
X191005709Y-49401299D01*
X191021967Y-49376967D01*
X191046299Y-49360709D01*
X191075000Y-49355000D01*
X191225000Y-49355000D01*
X191253701Y-49360709D01*
G37*
G36*
X191753701Y-49360709D02*
G01*
X191778033Y-49376967D01*
X191794291Y-49401299D01*
X191800000Y-49430000D01*
X191800000Y-50430000D01*
X191794291Y-50458701D01*
X191778033Y-50483033D01*
X191753701Y-50499291D01*
X191725000Y-50505000D01*
X191575000Y-50505000D01*
X191546299Y-50499291D01*
X191521967Y-50483033D01*
X191505709Y-50458701D01*
X191500000Y-50430000D01*
X191500000Y-49430000D01*
X191505709Y-49401299D01*
X191521967Y-49376967D01*
X191546299Y-49360709D01*
X191575000Y-49355000D01*
X191725000Y-49355000D01*
X191753701Y-49360709D01*
G37*
G36*
X192253701Y-49360709D02*
G01*
X192278033Y-49376967D01*
X192294291Y-49401299D01*
X192300000Y-49430000D01*
X192300000Y-50430000D01*
X192294291Y-50458701D01*
X192278033Y-50483033D01*
X192253701Y-50499291D01*
X192225000Y-50505000D01*
X192075000Y-50505000D01*
X192046299Y-50499291D01*
X192021967Y-50483033D01*
X192005709Y-50458701D01*
X192000000Y-50430000D01*
X192000000Y-49430000D01*
X192005709Y-49401299D01*
X192021967Y-49376967D01*
X192046299Y-49360709D01*
X192075000Y-49355000D01*
X192225000Y-49355000D01*
X192253701Y-49360709D01*
G37*
G36*
X192753701Y-49360709D02*
G01*
X192778033Y-49376967D01*
X192794291Y-49401299D01*
X192800000Y-49430000D01*
X192800000Y-50430000D01*
X192794291Y-50458701D01*
X192778033Y-50483033D01*
X192753701Y-50499291D01*
X192725000Y-50505000D01*
X192575000Y-50505000D01*
X192546299Y-50499291D01*
X192521967Y-50483033D01*
X192505709Y-50458701D01*
X192500000Y-50430000D01*
X192500000Y-49430000D01*
X192505709Y-49401299D01*
X192521967Y-49376967D01*
X192546299Y-49360709D01*
X192575000Y-49355000D01*
X192725000Y-49355000D01*
X192753701Y-49360709D01*
G37*
G36*
X193253701Y-49360709D02*
G01*
X193278033Y-49376967D01*
X193294291Y-49401299D01*
X193300000Y-49430000D01*
X193300000Y-50430000D01*
X193294291Y-50458701D01*
X193278033Y-50483033D01*
X193253701Y-50499291D01*
X193225000Y-50505000D01*
X193075000Y-50505000D01*
X193046299Y-50499291D01*
X193021967Y-50483033D01*
X193005709Y-50458701D01*
X193000000Y-50430000D01*
X193000000Y-49430000D01*
X193005709Y-49401299D01*
X193021967Y-49376967D01*
X193046299Y-49360709D01*
X193075000Y-49355000D01*
X193225000Y-49355000D01*
X193253701Y-49360709D01*
G37*
G36*
X194007403Y-49366418D02*
G01*
X194056066Y-49398934D01*
X194088582Y-49447597D01*
X194100000Y-49505000D01*
X194100000Y-50355000D01*
X194088582Y-50412403D01*
X194056066Y-50461066D01*
X194007403Y-50493582D01*
X193950000Y-50505000D01*
X193650000Y-50505000D01*
X193592597Y-50493582D01*
X193543934Y-50461066D01*
X193511418Y-50412403D01*
X193500000Y-50355000D01*
X193500000Y-49505000D01*
X193511418Y-49447597D01*
X193543934Y-49398934D01*
X193592597Y-49366418D01*
X193650000Y-49355000D01*
X193950000Y-49355000D01*
X194007403Y-49366418D01*
G37*
G36*
X194807403Y-49366418D02*
G01*
X194856066Y-49398934D01*
X194888582Y-49447597D01*
X194900000Y-49505000D01*
X194900000Y-50355000D01*
X194888582Y-50412403D01*
X194856066Y-50461066D01*
X194807403Y-50493582D01*
X194750000Y-50505000D01*
X194450000Y-50505000D01*
X194392597Y-50493582D01*
X194343934Y-50461066D01*
X194311418Y-50412403D01*
X194300000Y-50355000D01*
X194300000Y-49505000D01*
X194311418Y-49447597D01*
X194343934Y-49398934D01*
X194392597Y-49366418D01*
X194450000Y-49355000D01*
X194750000Y-49355000D01*
X194807403Y-49366418D01*
G37*
G36*
X187271342Y-48343060D02*
G01*
X187384381Y-48408323D01*
X187476677Y-48500619D01*
X187541940Y-48613658D01*
X187575722Y-48739737D01*
X187580000Y-48805000D01*
X187580000Y-49905000D01*
X187575722Y-49970263D01*
X187541940Y-50096342D01*
X187476677Y-50209381D01*
X187384381Y-50301677D01*
X187271342Y-50366940D01*
X187145263Y-50400722D01*
X187014737Y-50400722D01*
X186888658Y-50366940D01*
X186775619Y-50301677D01*
X186683323Y-50209381D01*
X186618060Y-50096342D01*
X186584278Y-49970263D01*
X186580000Y-49905000D01*
X186580000Y-48805000D01*
X186584278Y-48739737D01*
X186618060Y-48613658D01*
X186683323Y-48500619D01*
X186775619Y-48408323D01*
X186888658Y-48343060D01*
X187014737Y-48309278D01*
X187145263Y-48309278D01*
X187271342Y-48343060D01*
G37*
G36*
X195911342Y-48343060D02*
G01*
X196024381Y-48408323D01*
X196116677Y-48500619D01*
X196181940Y-48613658D01*
X196215722Y-48739737D01*
X196220000Y-48805000D01*
X196220000Y-49905000D01*
X196215722Y-49970263D01*
X196181940Y-50096342D01*
X196116677Y-50209381D01*
X196024381Y-50301677D01*
X195911342Y-50366940D01*
X195785263Y-50400722D01*
X195654737Y-50400722D01*
X195528658Y-50366940D01*
X195415619Y-50301677D01*
X195323323Y-50209381D01*
X195258060Y-50096342D01*
X195224278Y-49970263D01*
X195220000Y-49905000D01*
X195220000Y-48805000D01*
X195224278Y-48739737D01*
X195258060Y-48613658D01*
X195323323Y-48500619D01*
X195415619Y-48408323D01*
X195528658Y-48343060D01*
X195654737Y-48309278D01*
X195785263Y-48309278D01*
X195911342Y-48343060D01*
G37*
G36*
X214968370Y-43805034D02*
G01*
X214979425Y-43805034D01*
X215056175Y-43813681D01*
X215269524Y-43834694D01*
X215304619Y-43841675D01*
X215336020Y-43845213D01*
X215428343Y-43866285D01*
X215577518Y-43895958D01*
X215635777Y-43913630D01*
X215685874Y-43925065D01*
X215766667Y-43953335D01*
X215878030Y-43987117D01*
X215958676Y-44020521D01*
X216024587Y-44043585D01*
X216087506Y-44073885D01*
X216168149Y-44107289D01*
X216270770Y-44162141D01*
X216347900Y-44199285D01*
X216391411Y-44226624D01*
X216445098Y-44255321D01*
X216571546Y-44339811D01*
X216651748Y-44390205D01*
X216676459Y-44409911D01*
X216706199Y-44429783D01*
X216871882Y-44565756D01*
X216932309Y-44613945D01*
X216940129Y-44621765D01*
X216948952Y-44629006D01*
X217170993Y-44851047D01*
X217178233Y-44859869D01*
X217186055Y-44867691D01*
X217234249Y-44928124D01*
X217370216Y-45093800D01*
X217390086Y-45123538D01*
X217409795Y-45148252D01*
X217460193Y-45228461D01*
X217544678Y-45354901D01*
X217573371Y-45408583D01*
X217600715Y-45452100D01*
X217637862Y-45529237D01*
X217692710Y-45631850D01*
X217726110Y-45712484D01*
X217756415Y-45775413D01*
X217779481Y-45841332D01*
X217812882Y-45921969D01*
X217846659Y-46033317D01*
X217874935Y-46114126D01*
X217886371Y-46164231D01*
X217904041Y-46222481D01*
X217933708Y-46371629D01*
X217954787Y-46463980D01*
X217958326Y-46495389D01*
X217965305Y-46530475D01*
X217986315Y-46743803D01*
X217994966Y-46820575D01*
X217994966Y-46831630D01*
X217996084Y-46842982D01*
X217996084Y-47157017D01*
X217994966Y-47168368D01*
X217994966Y-47179425D01*
X217986315Y-47256203D01*
X217965305Y-47469524D01*
X217958326Y-47504608D01*
X217954787Y-47536020D01*
X217933707Y-47628377D01*
X217904041Y-47777518D01*
X217886372Y-47835764D01*
X217874935Y-47885874D01*
X217846656Y-47966688D01*
X217812882Y-48078030D01*
X217779483Y-48158660D01*
X217756415Y-48224587D01*
X217726107Y-48287521D01*
X217692710Y-48368149D01*
X217637867Y-48470751D01*
X217600715Y-48547900D01*
X217573368Y-48591422D01*
X217544678Y-48645098D01*
X217460204Y-48771521D01*
X217409795Y-48851748D01*
X217390082Y-48876466D01*
X217370216Y-48906199D01*
X217234277Y-49071839D01*
X217186055Y-49132309D01*
X217178228Y-49140135D01*
X217170993Y-49148952D01*
X216948952Y-49370993D01*
X216940135Y-49378228D01*
X216932309Y-49386055D01*
X216871839Y-49434277D01*
X216706199Y-49570216D01*
X216676466Y-49590082D01*
X216651748Y-49609795D01*
X216571521Y-49660204D01*
X216445098Y-49744678D01*
X216391422Y-49773368D01*
X216347900Y-49800715D01*
X216270751Y-49837867D01*
X216168149Y-49892710D01*
X216087521Y-49926107D01*
X216024587Y-49956415D01*
X215958660Y-49979483D01*
X215878030Y-50012882D01*
X215766688Y-50046656D01*
X215685874Y-50074935D01*
X215635764Y-50086372D01*
X215577518Y-50104041D01*
X215428377Y-50133707D01*
X215336020Y-50154787D01*
X215304608Y-50158326D01*
X215269524Y-50165305D01*
X215056198Y-50186315D01*
X214979425Y-50194966D01*
X214968369Y-50194966D01*
X214957018Y-50196084D01*
X214642982Y-50196084D01*
X214631631Y-50194966D01*
X214620575Y-50194966D01*
X214543803Y-50186315D01*
X214330475Y-50165305D01*
X214295389Y-50158326D01*
X214263980Y-50154787D01*
X214171629Y-50133708D01*
X214022481Y-50104041D01*
X213964231Y-50086371D01*
X213914126Y-50074935D01*
X213833317Y-50046659D01*
X213721969Y-50012882D01*
X213641332Y-49979481D01*
X213575413Y-49956415D01*
X213512484Y-49926110D01*
X213431850Y-49892710D01*
X213329237Y-49837862D01*
X213252100Y-49800715D01*
X213208583Y-49773371D01*
X213154901Y-49744678D01*
X213028461Y-49660193D01*
X212948252Y-49609795D01*
X212923538Y-49590086D01*
X212893800Y-49570216D01*
X212728124Y-49434249D01*
X212667691Y-49386055D01*
X212659869Y-49378233D01*
X212651047Y-49370993D01*
X212429006Y-49148952D01*
X212421765Y-49140129D01*
X212413945Y-49132309D01*
X212365756Y-49071882D01*
X212229783Y-48906199D01*
X212209911Y-48876459D01*
X212190205Y-48851748D01*
X212139811Y-48771546D01*
X212055321Y-48645098D01*
X212026624Y-48591411D01*
X211999285Y-48547900D01*
X211962141Y-48470770D01*
X211907289Y-48368149D01*
X211873885Y-48287506D01*
X211843585Y-48224587D01*
X211820521Y-48158676D01*
X211787117Y-48078030D01*
X211753335Y-47966667D01*
X211725065Y-47885874D01*
X211713630Y-47835777D01*
X211695958Y-47777518D01*
X211666285Y-47628343D01*
X211645213Y-47536020D01*
X211641675Y-47504619D01*
X211634694Y-47469524D01*
X211613682Y-47256180D01*
X211605034Y-47179425D01*
X211605034Y-47168368D01*
X211603916Y-47157017D01*
X211603916Y-46842982D01*
X211605034Y-46831630D01*
X211605034Y-46820575D01*
X211613681Y-46743826D01*
X211634694Y-46530475D01*
X211641675Y-46495377D01*
X211645213Y-46463980D01*
X211666283Y-46371663D01*
X211695958Y-46222481D01*
X211713631Y-46164218D01*
X211725065Y-46114126D01*
X211753333Y-46033339D01*
X211787117Y-45921969D01*
X211820524Y-45841317D01*
X211843585Y-45775413D01*
X211873882Y-45712499D01*
X211907289Y-45631850D01*
X211962146Y-45529219D01*
X211999285Y-45452100D01*
X212026621Y-45408594D01*
X212055321Y-45354901D01*
X212139821Y-45228436D01*
X212190205Y-45148252D01*
X212209907Y-45123546D01*
X212229783Y-45093800D01*
X212365784Y-44928081D01*
X212413945Y-44867691D01*
X212421761Y-44859874D01*
X212429006Y-44851047D01*
X212651047Y-44629006D01*
X212659874Y-44621761D01*
X212667691Y-44613945D01*
X212728081Y-44565784D01*
X212893800Y-44429783D01*
X212923546Y-44409907D01*
X212948252Y-44390205D01*
X213028436Y-44339821D01*
X213154901Y-44255321D01*
X213208594Y-44226621D01*
X213252100Y-44199285D01*
X213329219Y-44162146D01*
X213431850Y-44107289D01*
X213512499Y-44073882D01*
X213575413Y-44043585D01*
X213641317Y-44020524D01*
X213721969Y-43987117D01*
X213833339Y-43953333D01*
X213914126Y-43925065D01*
X213964218Y-43913631D01*
X214022481Y-43895958D01*
X214171663Y-43866283D01*
X214263980Y-43845213D01*
X214295377Y-43841675D01*
X214330475Y-43834694D01*
X214543826Y-43813681D01*
X214620575Y-43805034D01*
X214631630Y-43805034D01*
X214642982Y-43803916D01*
X214957018Y-43803916D01*
X214968370Y-43805034D01*
G37*
G36*
X180118370Y-43255034D02*
G01*
X180129425Y-43255034D01*
X180206175Y-43263681D01*
X180419524Y-43284694D01*
X180454619Y-43291675D01*
X180486020Y-43295213D01*
X180578343Y-43316285D01*
X180727518Y-43345958D01*
X180785777Y-43363630D01*
X180835874Y-43375065D01*
X180916667Y-43403335D01*
X181028030Y-43437117D01*
X181108676Y-43470521D01*
X181174587Y-43493585D01*
X181237506Y-43523885D01*
X181318149Y-43557289D01*
X181420770Y-43612141D01*
X181497900Y-43649285D01*
X181541411Y-43676624D01*
X181595098Y-43705321D01*
X181721546Y-43789811D01*
X181801748Y-43840205D01*
X181826459Y-43859911D01*
X181856199Y-43879783D01*
X182021882Y-44015756D01*
X182082309Y-44063945D01*
X182090129Y-44071765D01*
X182098952Y-44079006D01*
X182320993Y-44301047D01*
X182328233Y-44309869D01*
X182336055Y-44317691D01*
X182384249Y-44378124D01*
X182520216Y-44543800D01*
X182540086Y-44573538D01*
X182559795Y-44598252D01*
X182610193Y-44678461D01*
X182694678Y-44804901D01*
X182723371Y-44858583D01*
X182750715Y-44902100D01*
X182787862Y-44979237D01*
X182842710Y-45081850D01*
X182876110Y-45162484D01*
X182906415Y-45225413D01*
X182929481Y-45291332D01*
X182962882Y-45371969D01*
X182996659Y-45483317D01*
X183024935Y-45564126D01*
X183036371Y-45614231D01*
X183054041Y-45672481D01*
X183083708Y-45821629D01*
X183104787Y-45913980D01*
X183108326Y-45945389D01*
X183115305Y-45980475D01*
X183136315Y-46193803D01*
X183144966Y-46270575D01*
X183144966Y-46281630D01*
X183146084Y-46292982D01*
X183146084Y-46607017D01*
X183144966Y-46618368D01*
X183144966Y-46629425D01*
X183136315Y-46706203D01*
X183115305Y-46919524D01*
X183108326Y-46954608D01*
X183104787Y-46986020D01*
X183083707Y-47078377D01*
X183054041Y-47227518D01*
X183036372Y-47285764D01*
X183024935Y-47335874D01*
X182996656Y-47416688D01*
X182962882Y-47528030D01*
X182929483Y-47608660D01*
X182906415Y-47674587D01*
X182876107Y-47737521D01*
X182842710Y-47818149D01*
X182787867Y-47920751D01*
X182750715Y-47997900D01*
X182723368Y-48041422D01*
X182694678Y-48095098D01*
X182610204Y-48221521D01*
X182559795Y-48301748D01*
X182540082Y-48326466D01*
X182520216Y-48356199D01*
X182384277Y-48521839D01*
X182336055Y-48582309D01*
X182328228Y-48590135D01*
X182320993Y-48598952D01*
X182098952Y-48820993D01*
X182090135Y-48828228D01*
X182082309Y-48836055D01*
X182021839Y-48884277D01*
X181856199Y-49020216D01*
X181826466Y-49040082D01*
X181801748Y-49059795D01*
X181721521Y-49110204D01*
X181595098Y-49194678D01*
X181541422Y-49223368D01*
X181497900Y-49250715D01*
X181420751Y-49287867D01*
X181318149Y-49342710D01*
X181237521Y-49376107D01*
X181174587Y-49406415D01*
X181108660Y-49429483D01*
X181028030Y-49462882D01*
X180916688Y-49496656D01*
X180835874Y-49524935D01*
X180785764Y-49536372D01*
X180727518Y-49554041D01*
X180578377Y-49583707D01*
X180486020Y-49604787D01*
X180454608Y-49608326D01*
X180419524Y-49615305D01*
X180206198Y-49636315D01*
X180129425Y-49644966D01*
X180118369Y-49644966D01*
X180107018Y-49646084D01*
X179792982Y-49646084D01*
X179781631Y-49644966D01*
X179770575Y-49644966D01*
X179693803Y-49636315D01*
X179480475Y-49615305D01*
X179445389Y-49608326D01*
X179413980Y-49604787D01*
X179321629Y-49583708D01*
X179172481Y-49554041D01*
X179114231Y-49536371D01*
X179064126Y-49524935D01*
X178983317Y-49496659D01*
X178871969Y-49462882D01*
X178791332Y-49429481D01*
X178725413Y-49406415D01*
X178662484Y-49376110D01*
X178581850Y-49342710D01*
X178479237Y-49287862D01*
X178402100Y-49250715D01*
X178358583Y-49223371D01*
X178304901Y-49194678D01*
X178178461Y-49110193D01*
X178098252Y-49059795D01*
X178073538Y-49040086D01*
X178043800Y-49020216D01*
X177878124Y-48884249D01*
X177817691Y-48836055D01*
X177809869Y-48828233D01*
X177801047Y-48820993D01*
X177579006Y-48598952D01*
X177571765Y-48590129D01*
X177563945Y-48582309D01*
X177515756Y-48521882D01*
X177379783Y-48356199D01*
X177359911Y-48326459D01*
X177340205Y-48301748D01*
X177289811Y-48221546D01*
X177205321Y-48095098D01*
X177176624Y-48041411D01*
X177149285Y-47997900D01*
X177112141Y-47920770D01*
X177057289Y-47818149D01*
X177023885Y-47737506D01*
X176993585Y-47674587D01*
X176970521Y-47608676D01*
X176937117Y-47528030D01*
X176903335Y-47416667D01*
X176875065Y-47335874D01*
X176863630Y-47285777D01*
X176845958Y-47227518D01*
X176816285Y-47078343D01*
X176795213Y-46986020D01*
X176791675Y-46954619D01*
X176784694Y-46919524D01*
X176763682Y-46706180D01*
X176755034Y-46629425D01*
X176755034Y-46618368D01*
X176753916Y-46607017D01*
X176753916Y-46292982D01*
X176755034Y-46281630D01*
X176755034Y-46270575D01*
X176763681Y-46193826D01*
X176784694Y-45980475D01*
X176791675Y-45945377D01*
X176795213Y-45913980D01*
X176816283Y-45821663D01*
X176845958Y-45672481D01*
X176863631Y-45614218D01*
X176875065Y-45564126D01*
X176903333Y-45483339D01*
X176937117Y-45371969D01*
X176970524Y-45291317D01*
X176993585Y-45225413D01*
X177023882Y-45162499D01*
X177057289Y-45081850D01*
X177112146Y-44979219D01*
X177149285Y-44902100D01*
X177176621Y-44858594D01*
X177205321Y-44804901D01*
X177289821Y-44678436D01*
X177340205Y-44598252D01*
X177359907Y-44573546D01*
X177379783Y-44543800D01*
X177515784Y-44378081D01*
X177563945Y-44317691D01*
X177571761Y-44309874D01*
X177579006Y-44301047D01*
X177801047Y-44079006D01*
X177809874Y-44071761D01*
X177817691Y-44063945D01*
X177878081Y-44015784D01*
X178043800Y-43879783D01*
X178073546Y-43859907D01*
X178098252Y-43840205D01*
X178178436Y-43789821D01*
X178304901Y-43705321D01*
X178358594Y-43676621D01*
X178402100Y-43649285D01*
X178479219Y-43612146D01*
X178581850Y-43557289D01*
X178662499Y-43523882D01*
X178725413Y-43493585D01*
X178791317Y-43470524D01*
X178871969Y-43437117D01*
X178983339Y-43403333D01*
X179064126Y-43375065D01*
X179114218Y-43363631D01*
X179172481Y-43345958D01*
X179321663Y-43316283D01*
X179413980Y-43295213D01*
X179445377Y-43291675D01*
X179480475Y-43284694D01*
X179693826Y-43263681D01*
X179770575Y-43255034D01*
X179781630Y-43255034D01*
X179792982Y-43253916D01*
X180107018Y-43253916D01*
X180118370Y-43255034D01*
G37*
G36*
X188634372Y-48554739D02*
G01*
X188707847Y-48597160D01*
X188767840Y-48657153D01*
X188810261Y-48730628D01*
X188832220Y-48812579D01*
X188832220Y-48897421D01*
X188810261Y-48979372D01*
X188767840Y-49052847D01*
X188707847Y-49112840D01*
X188634372Y-49155261D01*
X188552421Y-49177220D01*
X188467579Y-49177220D01*
X188385628Y-49155261D01*
X188312153Y-49112840D01*
X188252160Y-49052847D01*
X188209739Y-48979372D01*
X188187780Y-48897421D01*
X188187780Y-48812579D01*
X188209739Y-48730628D01*
X188252160Y-48657153D01*
X188312153Y-48597160D01*
X188385628Y-48554739D01*
X188467579Y-48532780D01*
X188552421Y-48532780D01*
X188634372Y-48554739D01*
G37*
G36*
X194414372Y-48554739D02*
G01*
X194487847Y-48597160D01*
X194547840Y-48657153D01*
X194590261Y-48730628D01*
X194612220Y-48812579D01*
X194612220Y-48897421D01*
X194590261Y-48979372D01*
X194547840Y-49052847D01*
X194487847Y-49112840D01*
X194414372Y-49155261D01*
X194332421Y-49177220D01*
X194247579Y-49177220D01*
X194165628Y-49155261D01*
X194092153Y-49112840D01*
X194032160Y-49052847D01*
X193989739Y-48979372D01*
X193967780Y-48897421D01*
X193967780Y-48812579D01*
X193989739Y-48730628D01*
X194032160Y-48657153D01*
X194092153Y-48597160D01*
X194165628Y-48554739D01*
X194247579Y-48532780D01*
X194332421Y-48532780D01*
X194414372Y-48554739D01*
G37*
G36*
X199450000Y-47550000D02*
G01*
X198550000Y-47550000D01*
X198550000Y-46550000D01*
X199450000Y-46550000D01*
X199450000Y-47550000D01*
G37*
G36*
X203550000Y-47550000D02*
G01*
X202650000Y-47550000D01*
X202650000Y-46550000D01*
X203550000Y-46550000D01*
X203550000Y-47550000D01*
G37*
G36*
X206212500Y-47500000D02*
G01*
X205312500Y-47500000D01*
X205312500Y-46500000D01*
X206212500Y-46500000D01*
X206212500Y-47500000D01*
G37*
G36*
X210312500Y-47500000D02*
G01*
X209412500Y-47500000D01*
X209412500Y-46500000D01*
X210312500Y-46500000D01*
X210312500Y-47500000D01*
G37*
G36*
X185351537Y-46090224D02*
G01*
X185416421Y-46133579D01*
X185459776Y-46198463D01*
X185475000Y-46275000D01*
X185475000Y-46675000D01*
X185459776Y-46751537D01*
X185416421Y-46816421D01*
X185351537Y-46859776D01*
X185275000Y-46875000D01*
X184725000Y-46875000D01*
X184648463Y-46859776D01*
X184583579Y-46816421D01*
X184540224Y-46751537D01*
X184525000Y-46675000D01*
X184525000Y-46275000D01*
X184540224Y-46198463D01*
X184583579Y-46133579D01*
X184648463Y-46090224D01*
X184725000Y-46075000D01*
X185275000Y-46075000D01*
X185351537Y-46090224D01*
G37*
G36*
X187271342Y-44313060D02*
G01*
X187384381Y-44378323D01*
X187476677Y-44470619D01*
X187541940Y-44583658D01*
X187575722Y-44709737D01*
X187580000Y-44775000D01*
X187580000Y-45575000D01*
X187575722Y-45640263D01*
X187541940Y-45766342D01*
X187476677Y-45879381D01*
X187384381Y-45971677D01*
X187271342Y-46036940D01*
X187145263Y-46070722D01*
X187014737Y-46070722D01*
X186888658Y-46036940D01*
X186775619Y-45971677D01*
X186683323Y-45879381D01*
X186618060Y-45766342D01*
X186584278Y-45640263D01*
X186580000Y-45575000D01*
X186580000Y-44775000D01*
X186584278Y-44709737D01*
X186618060Y-44583658D01*
X186683323Y-44470619D01*
X186775619Y-44378323D01*
X186888658Y-44313060D01*
X187014737Y-44279278D01*
X187145263Y-44279278D01*
X187271342Y-44313060D01*
G37*
G36*
X195911342Y-44313060D02*
G01*
X196024381Y-44378323D01*
X196116677Y-44470619D01*
X196181940Y-44583658D01*
X196215722Y-44709737D01*
X196220000Y-44775000D01*
X196220000Y-45575000D01*
X196215722Y-45640263D01*
X196181940Y-45766342D01*
X196116677Y-45879381D01*
X196024381Y-45971677D01*
X195911342Y-46036940D01*
X195785263Y-46070722D01*
X195654737Y-46070722D01*
X195528658Y-46036940D01*
X195415619Y-45971677D01*
X195323323Y-45879381D01*
X195258060Y-45766342D01*
X195224278Y-45640263D01*
X195220000Y-45575000D01*
X195220000Y-44775000D01*
X195224278Y-44709737D01*
X195258060Y-44583658D01*
X195323323Y-44470619D01*
X195415619Y-44378323D01*
X195528658Y-44313060D01*
X195654737Y-44279278D01*
X195785263Y-44279278D01*
X195911342Y-44313060D01*
G37*
G36*
X199450000Y-45950000D02*
G01*
X198550000Y-45950000D01*
X198550000Y-44950000D01*
X199450000Y-44950000D01*
X199450000Y-45950000D01*
G37*
G36*
X203550000Y-45950000D02*
G01*
X202650000Y-45950000D01*
X202650000Y-44950000D01*
X203550000Y-44950000D01*
X203550000Y-45950000D01*
G37*
G36*
X206212500Y-45900000D02*
G01*
X205312500Y-45900000D01*
X205312500Y-44900000D01*
X206212500Y-44900000D01*
X206212500Y-45900000D01*
G37*
G36*
X210312500Y-45900000D02*
G01*
X209412500Y-45900000D01*
X209412500Y-44900000D01*
X210312500Y-44900000D01*
X210312500Y-45900000D01*
G37*
G36*
X185351537Y-44440224D02*
G01*
X185416421Y-44483579D01*
X185459776Y-44548463D01*
X185475000Y-44625000D01*
X185475000Y-45025000D01*
X185459776Y-45101537D01*
X185416421Y-45166421D01*
X185351537Y-45209776D01*
X185275000Y-45225000D01*
X184725000Y-45225000D01*
X184648463Y-45209776D01*
X184583579Y-45166421D01*
X184540224Y-45101537D01*
X184525000Y-45025000D01*
X184525000Y-44625000D01*
X184540224Y-44548463D01*
X184583579Y-44483579D01*
X184648463Y-44440224D01*
X184725000Y-44425000D01*
X185275000Y-44425000D01*
X185351537Y-44440224D01*
G37*
M02*
