%TF.GenerationSoftware,KiCad,Pcbnew,10.0.1*%
%TF.CreationDate,2026-06-30T15:13:06+01:00*%
%TF.ProjectId,ESP32_IoT_Board_Design,45535033-325f-4496-9f54-5f426f617264,rev?*%
%TF.SameCoordinates,Original*%
%TF.FileFunction,Legend,Top*%
%TF.FilePolarity,Positive*%
%FSLAX46Y46*%
G04 Gerber Fmt 4.6, Leading zero omitted, Abs format (unit mm)*
G04 Created by KiCad (PCBNEW 10.0.1) date 2026-06-30 15:13:06*
%MOMM*%
%LPD*%
G01*
G04 APERTURE LIST*
%ADD10C,0.300000*%
%ADD11C,0.150000*%
%ADD12C,0.120000*%
G04 APERTURE END LIST*
D10*
X180525939Y-89789638D02*
X179573558Y-89789638D01*
X179573558Y-89789638D02*
X179573558Y-87789638D01*
X181192606Y-89599161D02*
X181287844Y-89694400D01*
X181287844Y-89694400D02*
X181192606Y-89789638D01*
X181192606Y-89789638D02*
X181097368Y-89694400D01*
X181097368Y-89694400D02*
X181192606Y-89599161D01*
X181192606Y-89599161D02*
X181192606Y-89789638D01*
X183287844Y-89789638D02*
X182621177Y-88837257D01*
X182144987Y-89789638D02*
X182144987Y-87789638D01*
X182144987Y-87789638D02*
X182906892Y-87789638D01*
X182906892Y-87789638D02*
X183097368Y-87884876D01*
X183097368Y-87884876D02*
X183192606Y-87980114D01*
X183192606Y-87980114D02*
X183287844Y-88170590D01*
X183287844Y-88170590D02*
X183287844Y-88456304D01*
X183287844Y-88456304D02*
X183192606Y-88646780D01*
X183192606Y-88646780D02*
X183097368Y-88742019D01*
X183097368Y-88742019D02*
X182906892Y-88837257D01*
X182906892Y-88837257D02*
X182144987Y-88837257D01*
X184144987Y-89599161D02*
X184240225Y-89694400D01*
X184240225Y-89694400D02*
X184144987Y-89789638D01*
X184144987Y-89789638D02*
X184049749Y-89694400D01*
X184049749Y-89694400D02*
X184144987Y-89599161D01*
X184144987Y-89599161D02*
X184144987Y-89789638D01*
X185764035Y-88742019D02*
X186049749Y-88837257D01*
X186049749Y-88837257D02*
X186144987Y-88932495D01*
X186144987Y-88932495D02*
X186240225Y-89122971D01*
X186240225Y-89122971D02*
X186240225Y-89408685D01*
X186240225Y-89408685D02*
X186144987Y-89599161D01*
X186144987Y-89599161D02*
X186049749Y-89694400D01*
X186049749Y-89694400D02*
X185859273Y-89789638D01*
X185859273Y-89789638D02*
X185097368Y-89789638D01*
X185097368Y-89789638D02*
X185097368Y-87789638D01*
X185097368Y-87789638D02*
X185764035Y-87789638D01*
X185764035Y-87789638D02*
X185954511Y-87884876D01*
X185954511Y-87884876D02*
X186049749Y-87980114D01*
X186049749Y-87980114D02*
X186144987Y-88170590D01*
X186144987Y-88170590D02*
X186144987Y-88361066D01*
X186144987Y-88361066D02*
X186049749Y-88551542D01*
X186049749Y-88551542D02*
X185954511Y-88646780D01*
X185954511Y-88646780D02*
X185764035Y-88742019D01*
X185764035Y-88742019D02*
X185097368Y-88742019D01*
D11*
X213766666Y-51854819D02*
X213433333Y-51378628D01*
X213195238Y-51854819D02*
X213195238Y-50854819D01*
X213195238Y-50854819D02*
X213576190Y-50854819D01*
X213576190Y-50854819D02*
X213671428Y-50902438D01*
X213671428Y-50902438D02*
X213719047Y-50950057D01*
X213719047Y-50950057D02*
X213766666Y-51045295D01*
X213766666Y-51045295D02*
X213766666Y-51188152D01*
X213766666Y-51188152D02*
X213719047Y-51283390D01*
X213719047Y-51283390D02*
X213671428Y-51331009D01*
X213671428Y-51331009D02*
X213576190Y-51378628D01*
X213576190Y-51378628D02*
X213195238Y-51378628D01*
X214195238Y-51331009D02*
X214528571Y-51331009D01*
X214671428Y-51854819D02*
X214195238Y-51854819D01*
X214195238Y-51854819D02*
X214195238Y-50854819D01*
X214195238Y-50854819D02*
X214671428Y-50854819D01*
X215433333Y-51331009D02*
X215100000Y-51331009D01*
X215100000Y-51854819D02*
X215100000Y-50854819D01*
X215100000Y-50854819D02*
X215576190Y-50854819D01*
X216100000Y-50854819D02*
X216100000Y-51092914D01*
X215861905Y-50997676D02*
X216100000Y-51092914D01*
X216100000Y-51092914D02*
X216338095Y-50997676D01*
X215957143Y-51283390D02*
X216100000Y-51092914D01*
X216100000Y-51092914D02*
X216242857Y-51283390D01*
X216861905Y-50854819D02*
X216861905Y-51092914D01*
X216623810Y-50997676D02*
X216861905Y-51092914D01*
X216861905Y-51092914D02*
X217100000Y-50997676D01*
X216719048Y-51283390D02*
X216861905Y-51092914D01*
X216861905Y-51092914D02*
X217004762Y-51283390D01*
X183683333Y-60459580D02*
X183635714Y-60507200D01*
X183635714Y-60507200D02*
X183492857Y-60554819D01*
X183492857Y-60554819D02*
X183397619Y-60554819D01*
X183397619Y-60554819D02*
X183254762Y-60507200D01*
X183254762Y-60507200D02*
X183159524Y-60411961D01*
X183159524Y-60411961D02*
X183111905Y-60316723D01*
X183111905Y-60316723D02*
X183064286Y-60126247D01*
X183064286Y-60126247D02*
X183064286Y-59983390D01*
X183064286Y-59983390D02*
X183111905Y-59792914D01*
X183111905Y-59792914D02*
X183159524Y-59697676D01*
X183159524Y-59697676D02*
X183254762Y-59602438D01*
X183254762Y-59602438D02*
X183397619Y-59554819D01*
X183397619Y-59554819D02*
X183492857Y-59554819D01*
X183492857Y-59554819D02*
X183635714Y-59602438D01*
X183635714Y-59602438D02*
X183683333Y-59650057D01*
X184254762Y-59983390D02*
X184159524Y-59935771D01*
X184159524Y-59935771D02*
X184111905Y-59888152D01*
X184111905Y-59888152D02*
X184064286Y-59792914D01*
X184064286Y-59792914D02*
X184064286Y-59745295D01*
X184064286Y-59745295D02*
X184111905Y-59650057D01*
X184111905Y-59650057D02*
X184159524Y-59602438D01*
X184159524Y-59602438D02*
X184254762Y-59554819D01*
X184254762Y-59554819D02*
X184445238Y-59554819D01*
X184445238Y-59554819D02*
X184540476Y-59602438D01*
X184540476Y-59602438D02*
X184588095Y-59650057D01*
X184588095Y-59650057D02*
X184635714Y-59745295D01*
X184635714Y-59745295D02*
X184635714Y-59792914D01*
X184635714Y-59792914D02*
X184588095Y-59888152D01*
X184588095Y-59888152D02*
X184540476Y-59935771D01*
X184540476Y-59935771D02*
X184445238Y-59983390D01*
X184445238Y-59983390D02*
X184254762Y-59983390D01*
X184254762Y-59983390D02*
X184159524Y-60031009D01*
X184159524Y-60031009D02*
X184111905Y-60078628D01*
X184111905Y-60078628D02*
X184064286Y-60173866D01*
X184064286Y-60173866D02*
X184064286Y-60364342D01*
X184064286Y-60364342D02*
X184111905Y-60459580D01*
X184111905Y-60459580D02*
X184159524Y-60507200D01*
X184159524Y-60507200D02*
X184254762Y-60554819D01*
X184254762Y-60554819D02*
X184445238Y-60554819D01*
X184445238Y-60554819D02*
X184540476Y-60507200D01*
X184540476Y-60507200D02*
X184588095Y-60459580D01*
X184588095Y-60459580D02*
X184635714Y-60364342D01*
X184635714Y-60364342D02*
X184635714Y-60173866D01*
X184635714Y-60173866D02*
X184588095Y-60078628D01*
X184588095Y-60078628D02*
X184540476Y-60031009D01*
X184540476Y-60031009D02*
X184445238Y-59983390D01*
X199597618Y-44004819D02*
X199264285Y-43528628D01*
X199026190Y-44004819D02*
X199026190Y-43004819D01*
X199026190Y-43004819D02*
X199407142Y-43004819D01*
X199407142Y-43004819D02*
X199502380Y-43052438D01*
X199502380Y-43052438D02*
X199549999Y-43100057D01*
X199549999Y-43100057D02*
X199597618Y-43195295D01*
X199597618Y-43195295D02*
X199597618Y-43338152D01*
X199597618Y-43338152D02*
X199549999Y-43433390D01*
X199549999Y-43433390D02*
X199502380Y-43481009D01*
X199502380Y-43481009D02*
X199407142Y-43528628D01*
X199407142Y-43528628D02*
X199026190Y-43528628D01*
X200026190Y-43481009D02*
X200359523Y-43481009D01*
X200502380Y-44004819D02*
X200026190Y-44004819D01*
X200026190Y-44004819D02*
X200026190Y-43004819D01*
X200026190Y-43004819D02*
X200502380Y-43004819D01*
X200883333Y-43957200D02*
X201026190Y-44004819D01*
X201026190Y-44004819D02*
X201264285Y-44004819D01*
X201264285Y-44004819D02*
X201359523Y-43957200D01*
X201359523Y-43957200D02*
X201407142Y-43909580D01*
X201407142Y-43909580D02*
X201454761Y-43814342D01*
X201454761Y-43814342D02*
X201454761Y-43719104D01*
X201454761Y-43719104D02*
X201407142Y-43623866D01*
X201407142Y-43623866D02*
X201359523Y-43576247D01*
X201359523Y-43576247D02*
X201264285Y-43528628D01*
X201264285Y-43528628D02*
X201073809Y-43481009D01*
X201073809Y-43481009D02*
X200978571Y-43433390D01*
X200978571Y-43433390D02*
X200930952Y-43385771D01*
X200930952Y-43385771D02*
X200883333Y-43290533D01*
X200883333Y-43290533D02*
X200883333Y-43195295D01*
X200883333Y-43195295D02*
X200930952Y-43100057D01*
X200930952Y-43100057D02*
X200978571Y-43052438D01*
X200978571Y-43052438D02*
X201073809Y-43004819D01*
X201073809Y-43004819D02*
X201311904Y-43004819D01*
X201311904Y-43004819D02*
X201454761Y-43052438D01*
X201883333Y-43481009D02*
X202216666Y-43481009D01*
X202359523Y-44004819D02*
X201883333Y-44004819D01*
X201883333Y-44004819D02*
X201883333Y-43004819D01*
X201883333Y-43004819D02*
X202359523Y-43004819D01*
X202645238Y-43004819D02*
X203216666Y-43004819D01*
X202930952Y-44004819D02*
X202930952Y-43004819D01*
X189554819Y-70816666D02*
X189078628Y-71149999D01*
X189554819Y-71388094D02*
X188554819Y-71388094D01*
X188554819Y-71388094D02*
X188554819Y-71007142D01*
X188554819Y-71007142D02*
X188602438Y-70911904D01*
X188602438Y-70911904D02*
X188650057Y-70864285D01*
X188650057Y-70864285D02*
X188745295Y-70816666D01*
X188745295Y-70816666D02*
X188888152Y-70816666D01*
X188888152Y-70816666D02*
X188983390Y-70864285D01*
X188983390Y-70864285D02*
X189031009Y-70911904D01*
X189031009Y-70911904D02*
X189078628Y-71007142D01*
X189078628Y-71007142D02*
X189078628Y-71388094D01*
X188554819Y-70483332D02*
X188554819Y-69864285D01*
X188554819Y-69864285D02*
X188935771Y-70197618D01*
X188935771Y-70197618D02*
X188935771Y-70054761D01*
X188935771Y-70054761D02*
X188983390Y-69959523D01*
X188983390Y-69959523D02*
X189031009Y-69911904D01*
X189031009Y-69911904D02*
X189126247Y-69864285D01*
X189126247Y-69864285D02*
X189364342Y-69864285D01*
X189364342Y-69864285D02*
X189459580Y-69911904D01*
X189459580Y-69911904D02*
X189507200Y-69959523D01*
X189507200Y-69959523D02*
X189554819Y-70054761D01*
X189554819Y-70054761D02*
X189554819Y-70340475D01*
X189554819Y-70340475D02*
X189507200Y-70435713D01*
X189507200Y-70435713D02*
X189459580Y-70483332D01*
X179011905Y-82074819D02*
X179011905Y-81074819D01*
X179011905Y-81074819D02*
X179250000Y-81074819D01*
X179250000Y-81074819D02*
X179392857Y-81122438D01*
X179392857Y-81122438D02*
X179488095Y-81217676D01*
X179488095Y-81217676D02*
X179535714Y-81312914D01*
X179535714Y-81312914D02*
X179583333Y-81503390D01*
X179583333Y-81503390D02*
X179583333Y-81646247D01*
X179583333Y-81646247D02*
X179535714Y-81836723D01*
X179535714Y-81836723D02*
X179488095Y-81931961D01*
X179488095Y-81931961D02*
X179392857Y-82027200D01*
X179392857Y-82027200D02*
X179250000Y-82074819D01*
X179250000Y-82074819D02*
X179011905Y-82074819D01*
X180440476Y-81408152D02*
X180440476Y-82074819D01*
X180202381Y-81027200D02*
X179964286Y-81741485D01*
X179964286Y-81741485D02*
X180583333Y-81741485D01*
X194983333Y-66409580D02*
X194935714Y-66457200D01*
X194935714Y-66457200D02*
X194792857Y-66504819D01*
X194792857Y-66504819D02*
X194697619Y-66504819D01*
X194697619Y-66504819D02*
X194554762Y-66457200D01*
X194554762Y-66457200D02*
X194459524Y-66361961D01*
X194459524Y-66361961D02*
X194411905Y-66266723D01*
X194411905Y-66266723D02*
X194364286Y-66076247D01*
X194364286Y-66076247D02*
X194364286Y-65933390D01*
X194364286Y-65933390D02*
X194411905Y-65742914D01*
X194411905Y-65742914D02*
X194459524Y-65647676D01*
X194459524Y-65647676D02*
X194554762Y-65552438D01*
X194554762Y-65552438D02*
X194697619Y-65504819D01*
X194697619Y-65504819D02*
X194792857Y-65504819D01*
X194792857Y-65504819D02*
X194935714Y-65552438D01*
X194935714Y-65552438D02*
X194983333Y-65600057D01*
X195840476Y-65838152D02*
X195840476Y-66504819D01*
X195602381Y-65457200D02*
X195364286Y-66171485D01*
X195364286Y-66171485D02*
X195983333Y-66171485D01*
X197608333Y-58287080D02*
X197560714Y-58334700D01*
X197560714Y-58334700D02*
X197417857Y-58382319D01*
X197417857Y-58382319D02*
X197322619Y-58382319D01*
X197322619Y-58382319D02*
X197179762Y-58334700D01*
X197179762Y-58334700D02*
X197084524Y-58239461D01*
X197084524Y-58239461D02*
X197036905Y-58144223D01*
X197036905Y-58144223D02*
X196989286Y-57953747D01*
X196989286Y-57953747D02*
X196989286Y-57810890D01*
X196989286Y-57810890D02*
X197036905Y-57620414D01*
X197036905Y-57620414D02*
X197084524Y-57525176D01*
X197084524Y-57525176D02*
X197179762Y-57429938D01*
X197179762Y-57429938D02*
X197322619Y-57382319D01*
X197322619Y-57382319D02*
X197417857Y-57382319D01*
X197417857Y-57382319D02*
X197560714Y-57429938D01*
X197560714Y-57429938D02*
X197608333Y-57477557D01*
X198560714Y-58382319D02*
X197989286Y-58382319D01*
X198275000Y-58382319D02*
X198275000Y-57382319D01*
X198275000Y-57382319D02*
X198179762Y-57525176D01*
X198179762Y-57525176D02*
X198084524Y-57620414D01*
X198084524Y-57620414D02*
X197989286Y-57668033D01*
X191009580Y-60291666D02*
X191057200Y-60339285D01*
X191057200Y-60339285D02*
X191104819Y-60482142D01*
X191104819Y-60482142D02*
X191104819Y-60577380D01*
X191104819Y-60577380D02*
X191057200Y-60720237D01*
X191057200Y-60720237D02*
X190961961Y-60815475D01*
X190961961Y-60815475D02*
X190866723Y-60863094D01*
X190866723Y-60863094D02*
X190676247Y-60910713D01*
X190676247Y-60910713D02*
X190533390Y-60910713D01*
X190533390Y-60910713D02*
X190342914Y-60863094D01*
X190342914Y-60863094D02*
X190247676Y-60815475D01*
X190247676Y-60815475D02*
X190152438Y-60720237D01*
X190152438Y-60720237D02*
X190104819Y-60577380D01*
X190104819Y-60577380D02*
X190104819Y-60482142D01*
X190104819Y-60482142D02*
X190152438Y-60339285D01*
X190152438Y-60339285D02*
X190200057Y-60291666D01*
X191104819Y-59815475D02*
X191104819Y-59624999D01*
X191104819Y-59624999D02*
X191057200Y-59529761D01*
X191057200Y-59529761D02*
X191009580Y-59482142D01*
X191009580Y-59482142D02*
X190866723Y-59386904D01*
X190866723Y-59386904D02*
X190676247Y-59339285D01*
X190676247Y-59339285D02*
X190295295Y-59339285D01*
X190295295Y-59339285D02*
X190200057Y-59386904D01*
X190200057Y-59386904D02*
X190152438Y-59434523D01*
X190152438Y-59434523D02*
X190104819Y-59529761D01*
X190104819Y-59529761D02*
X190104819Y-59720237D01*
X190104819Y-59720237D02*
X190152438Y-59815475D01*
X190152438Y-59815475D02*
X190200057Y-59863094D01*
X190200057Y-59863094D02*
X190295295Y-59910713D01*
X190295295Y-59910713D02*
X190533390Y-59910713D01*
X190533390Y-59910713D02*
X190628628Y-59863094D01*
X190628628Y-59863094D02*
X190676247Y-59815475D01*
X190676247Y-59815475D02*
X190723866Y-59720237D01*
X190723866Y-59720237D02*
X190723866Y-59529761D01*
X190723866Y-59529761D02*
X190676247Y-59434523D01*
X190676247Y-59434523D02*
X190628628Y-59386904D01*
X190628628Y-59386904D02*
X190533390Y-59339285D01*
X190388095Y-66604819D02*
X190388095Y-67414342D01*
X190388095Y-67414342D02*
X190435714Y-67509580D01*
X190435714Y-67509580D02*
X190483333Y-67557200D01*
X190483333Y-67557200D02*
X190578571Y-67604819D01*
X190578571Y-67604819D02*
X190769047Y-67604819D01*
X190769047Y-67604819D02*
X190864285Y-67557200D01*
X190864285Y-67557200D02*
X190911904Y-67509580D01*
X190911904Y-67509580D02*
X190959523Y-67414342D01*
X190959523Y-67414342D02*
X190959523Y-66604819D01*
X191864285Y-66938152D02*
X191864285Y-67604819D01*
X191626190Y-66557200D02*
X191388095Y-67271485D01*
X191388095Y-67271485D02*
X192007142Y-67271485D01*
X190388095Y-72504819D02*
X190388095Y-73314342D01*
X190388095Y-73314342D02*
X190435714Y-73409580D01*
X190435714Y-73409580D02*
X190483333Y-73457200D01*
X190483333Y-73457200D02*
X190578571Y-73504819D01*
X190578571Y-73504819D02*
X190769047Y-73504819D01*
X190769047Y-73504819D02*
X190864285Y-73457200D01*
X190864285Y-73457200D02*
X190911904Y-73409580D01*
X190911904Y-73409580D02*
X190959523Y-73314342D01*
X190959523Y-73314342D02*
X190959523Y-72504819D01*
X191959523Y-73504819D02*
X191388095Y-73504819D01*
X191673809Y-73504819D02*
X191673809Y-72504819D01*
X191673809Y-72504819D02*
X191578571Y-72647676D01*
X191578571Y-72647676D02*
X191483333Y-72742914D01*
X191483333Y-72742914D02*
X191388095Y-72790533D01*
X204033333Y-53854819D02*
X203700000Y-53378628D01*
X203461905Y-53854819D02*
X203461905Y-52854819D01*
X203461905Y-52854819D02*
X203842857Y-52854819D01*
X203842857Y-52854819D02*
X203938095Y-52902438D01*
X203938095Y-52902438D02*
X203985714Y-52950057D01*
X203985714Y-52950057D02*
X204033333Y-53045295D01*
X204033333Y-53045295D02*
X204033333Y-53188152D01*
X204033333Y-53188152D02*
X203985714Y-53283390D01*
X203985714Y-53283390D02*
X203938095Y-53331009D01*
X203938095Y-53331009D02*
X203842857Y-53378628D01*
X203842857Y-53378628D02*
X203461905Y-53378628D01*
X204366667Y-52854819D02*
X205033333Y-52854819D01*
X205033333Y-52854819D02*
X204604762Y-53854819D01*
X188916666Y-101344819D02*
X188916666Y-102059104D01*
X188916666Y-102059104D02*
X188869047Y-102201961D01*
X188869047Y-102201961D02*
X188773809Y-102297200D01*
X188773809Y-102297200D02*
X188630952Y-102344819D01*
X188630952Y-102344819D02*
X188535714Y-102344819D01*
X189297619Y-101344819D02*
X189916666Y-101344819D01*
X189916666Y-101344819D02*
X189583333Y-101725771D01*
X189583333Y-101725771D02*
X189726190Y-101725771D01*
X189726190Y-101725771D02*
X189821428Y-101773390D01*
X189821428Y-101773390D02*
X189869047Y-101821009D01*
X189869047Y-101821009D02*
X189916666Y-101916247D01*
X189916666Y-101916247D02*
X189916666Y-102154342D01*
X189916666Y-102154342D02*
X189869047Y-102249580D01*
X189869047Y-102249580D02*
X189821428Y-102297200D01*
X189821428Y-102297200D02*
X189726190Y-102344819D01*
X189726190Y-102344819D02*
X189440476Y-102344819D01*
X189440476Y-102344819D02*
X189345238Y-102297200D01*
X189345238Y-102297200D02*
X189297619Y-102249580D01*
X182716666Y-55231009D02*
X182383333Y-55231009D01*
X182383333Y-55754819D02*
X182383333Y-54754819D01*
X182383333Y-54754819D02*
X182859523Y-54754819D01*
X183764285Y-55754819D02*
X183192857Y-55754819D01*
X183478571Y-55754819D02*
X183478571Y-54754819D01*
X183478571Y-54754819D02*
X183383333Y-54897676D01*
X183383333Y-54897676D02*
X183288095Y-54992914D01*
X183288095Y-54992914D02*
X183192857Y-55040533D01*
X183557142Y-76084819D02*
X183223809Y-75608628D01*
X182985714Y-76084819D02*
X182985714Y-75084819D01*
X182985714Y-75084819D02*
X183366666Y-75084819D01*
X183366666Y-75084819D02*
X183461904Y-75132438D01*
X183461904Y-75132438D02*
X183509523Y-75180057D01*
X183509523Y-75180057D02*
X183557142Y-75275295D01*
X183557142Y-75275295D02*
X183557142Y-75418152D01*
X183557142Y-75418152D02*
X183509523Y-75513390D01*
X183509523Y-75513390D02*
X183461904Y-75561009D01*
X183461904Y-75561009D02*
X183366666Y-75608628D01*
X183366666Y-75608628D02*
X182985714Y-75608628D01*
X184509523Y-76084819D02*
X183938095Y-76084819D01*
X184223809Y-76084819D02*
X184223809Y-75084819D01*
X184223809Y-75084819D02*
X184128571Y-75227676D01*
X184128571Y-75227676D02*
X184033333Y-75322914D01*
X184033333Y-75322914D02*
X183938095Y-75370533D01*
X185461904Y-76084819D02*
X184890476Y-76084819D01*
X185176190Y-76084819D02*
X185176190Y-75084819D01*
X185176190Y-75084819D02*
X185080952Y-75227676D01*
X185080952Y-75227676D02*
X184985714Y-75322914D01*
X184985714Y-75322914D02*
X184890476Y-75370533D01*
X192783333Y-88054819D02*
X192450000Y-87578628D01*
X192211905Y-88054819D02*
X192211905Y-87054819D01*
X192211905Y-87054819D02*
X192592857Y-87054819D01*
X192592857Y-87054819D02*
X192688095Y-87102438D01*
X192688095Y-87102438D02*
X192735714Y-87150057D01*
X192735714Y-87150057D02*
X192783333Y-87245295D01*
X192783333Y-87245295D02*
X192783333Y-87388152D01*
X192783333Y-87388152D02*
X192735714Y-87483390D01*
X192735714Y-87483390D02*
X192688095Y-87531009D01*
X192688095Y-87531009D02*
X192592857Y-87578628D01*
X192592857Y-87578628D02*
X192211905Y-87578628D01*
X193164286Y-87150057D02*
X193211905Y-87102438D01*
X193211905Y-87102438D02*
X193307143Y-87054819D01*
X193307143Y-87054819D02*
X193545238Y-87054819D01*
X193545238Y-87054819D02*
X193640476Y-87102438D01*
X193640476Y-87102438D02*
X193688095Y-87150057D01*
X193688095Y-87150057D02*
X193735714Y-87245295D01*
X193735714Y-87245295D02*
X193735714Y-87340533D01*
X193735714Y-87340533D02*
X193688095Y-87483390D01*
X193688095Y-87483390D02*
X193116667Y-88054819D01*
X193116667Y-88054819D02*
X193735714Y-88054819D01*
X202159580Y-62516666D02*
X202207200Y-62564285D01*
X202207200Y-62564285D02*
X202254819Y-62707142D01*
X202254819Y-62707142D02*
X202254819Y-62802380D01*
X202254819Y-62802380D02*
X202207200Y-62945237D01*
X202207200Y-62945237D02*
X202111961Y-63040475D01*
X202111961Y-63040475D02*
X202016723Y-63088094D01*
X202016723Y-63088094D02*
X201826247Y-63135713D01*
X201826247Y-63135713D02*
X201683390Y-63135713D01*
X201683390Y-63135713D02*
X201492914Y-63088094D01*
X201492914Y-63088094D02*
X201397676Y-63040475D01*
X201397676Y-63040475D02*
X201302438Y-62945237D01*
X201302438Y-62945237D02*
X201254819Y-62802380D01*
X201254819Y-62802380D02*
X201254819Y-62707142D01*
X201254819Y-62707142D02*
X201302438Y-62564285D01*
X201302438Y-62564285D02*
X201350057Y-62516666D01*
X201254819Y-62183332D02*
X201254819Y-61564285D01*
X201254819Y-61564285D02*
X201635771Y-61897618D01*
X201635771Y-61897618D02*
X201635771Y-61754761D01*
X201635771Y-61754761D02*
X201683390Y-61659523D01*
X201683390Y-61659523D02*
X201731009Y-61611904D01*
X201731009Y-61611904D02*
X201826247Y-61564285D01*
X201826247Y-61564285D02*
X202064342Y-61564285D01*
X202064342Y-61564285D02*
X202159580Y-61611904D01*
X202159580Y-61611904D02*
X202207200Y-61659523D01*
X202207200Y-61659523D02*
X202254819Y-61754761D01*
X202254819Y-61754761D02*
X202254819Y-62040475D01*
X202254819Y-62040475D02*
X202207200Y-62135713D01*
X202207200Y-62135713D02*
X202159580Y-62183332D01*
X209538095Y-60054819D02*
X209538095Y-60864342D01*
X209538095Y-60864342D02*
X209585714Y-60959580D01*
X209585714Y-60959580D02*
X209633333Y-61007200D01*
X209633333Y-61007200D02*
X209728571Y-61054819D01*
X209728571Y-61054819D02*
X209919047Y-61054819D01*
X209919047Y-61054819D02*
X210014285Y-61007200D01*
X210014285Y-61007200D02*
X210061904Y-60959580D01*
X210061904Y-60959580D02*
X210109523Y-60864342D01*
X210109523Y-60864342D02*
X210109523Y-60054819D01*
X210538095Y-60150057D02*
X210585714Y-60102438D01*
X210585714Y-60102438D02*
X210680952Y-60054819D01*
X210680952Y-60054819D02*
X210919047Y-60054819D01*
X210919047Y-60054819D02*
X211014285Y-60102438D01*
X211014285Y-60102438D02*
X211061904Y-60150057D01*
X211061904Y-60150057D02*
X211109523Y-60245295D01*
X211109523Y-60245295D02*
X211109523Y-60340533D01*
X211109523Y-60340533D02*
X211061904Y-60483390D01*
X211061904Y-60483390D02*
X210490476Y-61054819D01*
X210490476Y-61054819D02*
X211109523Y-61054819D01*
X184833333Y-43704819D02*
X184500000Y-43228628D01*
X184261905Y-43704819D02*
X184261905Y-42704819D01*
X184261905Y-42704819D02*
X184642857Y-42704819D01*
X184642857Y-42704819D02*
X184738095Y-42752438D01*
X184738095Y-42752438D02*
X184785714Y-42800057D01*
X184785714Y-42800057D02*
X184833333Y-42895295D01*
X184833333Y-42895295D02*
X184833333Y-43038152D01*
X184833333Y-43038152D02*
X184785714Y-43133390D01*
X184785714Y-43133390D02*
X184738095Y-43181009D01*
X184738095Y-43181009D02*
X184642857Y-43228628D01*
X184642857Y-43228628D02*
X184261905Y-43228628D01*
X185690476Y-43038152D02*
X185690476Y-43704819D01*
X185452381Y-42657200D02*
X185214286Y-43371485D01*
X185214286Y-43371485D02*
X185833333Y-43371485D01*
X179011905Y-73174819D02*
X179011905Y-72174819D01*
X179011905Y-72174819D02*
X179250000Y-72174819D01*
X179250000Y-72174819D02*
X179392857Y-72222438D01*
X179392857Y-72222438D02*
X179488095Y-72317676D01*
X179488095Y-72317676D02*
X179535714Y-72412914D01*
X179535714Y-72412914D02*
X179583333Y-72603390D01*
X179583333Y-72603390D02*
X179583333Y-72746247D01*
X179583333Y-72746247D02*
X179535714Y-72936723D01*
X179535714Y-72936723D02*
X179488095Y-73031961D01*
X179488095Y-73031961D02*
X179392857Y-73127200D01*
X179392857Y-73127200D02*
X179250000Y-73174819D01*
X179250000Y-73174819D02*
X179011905Y-73174819D01*
X180488095Y-72174819D02*
X180011905Y-72174819D01*
X180011905Y-72174819D02*
X179964286Y-72651009D01*
X179964286Y-72651009D02*
X180011905Y-72603390D01*
X180011905Y-72603390D02*
X180107143Y-72555771D01*
X180107143Y-72555771D02*
X180345238Y-72555771D01*
X180345238Y-72555771D02*
X180440476Y-72603390D01*
X180440476Y-72603390D02*
X180488095Y-72651009D01*
X180488095Y-72651009D02*
X180535714Y-72746247D01*
X180535714Y-72746247D02*
X180535714Y-72984342D01*
X180535714Y-72984342D02*
X180488095Y-73079580D01*
X180488095Y-73079580D02*
X180440476Y-73127200D01*
X180440476Y-73127200D02*
X180345238Y-73174819D01*
X180345238Y-73174819D02*
X180107143Y-73174819D01*
X180107143Y-73174819D02*
X180011905Y-73127200D01*
X180011905Y-73127200D02*
X179964286Y-73079580D01*
X183732142Y-78224819D02*
X183398809Y-77748628D01*
X183160714Y-78224819D02*
X183160714Y-77224819D01*
X183160714Y-77224819D02*
X183541666Y-77224819D01*
X183541666Y-77224819D02*
X183636904Y-77272438D01*
X183636904Y-77272438D02*
X183684523Y-77320057D01*
X183684523Y-77320057D02*
X183732142Y-77415295D01*
X183732142Y-77415295D02*
X183732142Y-77558152D01*
X183732142Y-77558152D02*
X183684523Y-77653390D01*
X183684523Y-77653390D02*
X183636904Y-77701009D01*
X183636904Y-77701009D02*
X183541666Y-77748628D01*
X183541666Y-77748628D02*
X183160714Y-77748628D01*
X184684523Y-78224819D02*
X184113095Y-78224819D01*
X184398809Y-78224819D02*
X184398809Y-77224819D01*
X184398809Y-77224819D02*
X184303571Y-77367676D01*
X184303571Y-77367676D02*
X184208333Y-77462914D01*
X184208333Y-77462914D02*
X184113095Y-77510533D01*
X185303571Y-77224819D02*
X185398809Y-77224819D01*
X185398809Y-77224819D02*
X185494047Y-77272438D01*
X185494047Y-77272438D02*
X185541666Y-77320057D01*
X185541666Y-77320057D02*
X185589285Y-77415295D01*
X185589285Y-77415295D02*
X185636904Y-77605771D01*
X185636904Y-77605771D02*
X185636904Y-77843866D01*
X185636904Y-77843866D02*
X185589285Y-78034342D01*
X185589285Y-78034342D02*
X185541666Y-78129580D01*
X185541666Y-78129580D02*
X185494047Y-78177200D01*
X185494047Y-78177200D02*
X185398809Y-78224819D01*
X185398809Y-78224819D02*
X185303571Y-78224819D01*
X185303571Y-78224819D02*
X185208333Y-78177200D01*
X185208333Y-78177200D02*
X185160714Y-78129580D01*
X185160714Y-78129580D02*
X185113095Y-78034342D01*
X185113095Y-78034342D02*
X185065476Y-77843866D01*
X185065476Y-77843866D02*
X185065476Y-77605771D01*
X185065476Y-77605771D02*
X185113095Y-77415295D01*
X185113095Y-77415295D02*
X185160714Y-77320057D01*
X185160714Y-77320057D02*
X185208333Y-77272438D01*
X185208333Y-77272438D02*
X185303571Y-77224819D01*
X199716666Y-101244819D02*
X199716666Y-101959104D01*
X199716666Y-101959104D02*
X199669047Y-102101961D01*
X199669047Y-102101961D02*
X199573809Y-102197200D01*
X199573809Y-102197200D02*
X199430952Y-102244819D01*
X199430952Y-102244819D02*
X199335714Y-102244819D01*
X200145238Y-101340057D02*
X200192857Y-101292438D01*
X200192857Y-101292438D02*
X200288095Y-101244819D01*
X200288095Y-101244819D02*
X200526190Y-101244819D01*
X200526190Y-101244819D02*
X200621428Y-101292438D01*
X200621428Y-101292438D02*
X200669047Y-101340057D01*
X200669047Y-101340057D02*
X200716666Y-101435295D01*
X200716666Y-101435295D02*
X200716666Y-101530533D01*
X200716666Y-101530533D02*
X200669047Y-101673390D01*
X200669047Y-101673390D02*
X200097619Y-102244819D01*
X200097619Y-102244819D02*
X200716666Y-102244819D01*
X206442857Y-43481009D02*
X206585714Y-43528628D01*
X206585714Y-43528628D02*
X206633333Y-43576247D01*
X206633333Y-43576247D02*
X206680952Y-43671485D01*
X206680952Y-43671485D02*
X206680952Y-43814342D01*
X206680952Y-43814342D02*
X206633333Y-43909580D01*
X206633333Y-43909580D02*
X206585714Y-43957200D01*
X206585714Y-43957200D02*
X206490476Y-44004819D01*
X206490476Y-44004819D02*
X206109524Y-44004819D01*
X206109524Y-44004819D02*
X206109524Y-43004819D01*
X206109524Y-43004819D02*
X206442857Y-43004819D01*
X206442857Y-43004819D02*
X206538095Y-43052438D01*
X206538095Y-43052438D02*
X206585714Y-43100057D01*
X206585714Y-43100057D02*
X206633333Y-43195295D01*
X206633333Y-43195295D02*
X206633333Y-43290533D01*
X206633333Y-43290533D02*
X206585714Y-43385771D01*
X206585714Y-43385771D02*
X206538095Y-43433390D01*
X206538095Y-43433390D02*
X206442857Y-43481009D01*
X206442857Y-43481009D02*
X206109524Y-43481009D01*
X207300000Y-43004819D02*
X207490476Y-43004819D01*
X207490476Y-43004819D02*
X207585714Y-43052438D01*
X207585714Y-43052438D02*
X207680952Y-43147676D01*
X207680952Y-43147676D02*
X207728571Y-43338152D01*
X207728571Y-43338152D02*
X207728571Y-43671485D01*
X207728571Y-43671485D02*
X207680952Y-43861961D01*
X207680952Y-43861961D02*
X207585714Y-43957200D01*
X207585714Y-43957200D02*
X207490476Y-44004819D01*
X207490476Y-44004819D02*
X207300000Y-44004819D01*
X207300000Y-44004819D02*
X207204762Y-43957200D01*
X207204762Y-43957200D02*
X207109524Y-43861961D01*
X207109524Y-43861961D02*
X207061905Y-43671485D01*
X207061905Y-43671485D02*
X207061905Y-43338152D01*
X207061905Y-43338152D02*
X207109524Y-43147676D01*
X207109524Y-43147676D02*
X207204762Y-43052438D01*
X207204762Y-43052438D02*
X207300000Y-43004819D01*
X208347619Y-43004819D02*
X208538095Y-43004819D01*
X208538095Y-43004819D02*
X208633333Y-43052438D01*
X208633333Y-43052438D02*
X208728571Y-43147676D01*
X208728571Y-43147676D02*
X208776190Y-43338152D01*
X208776190Y-43338152D02*
X208776190Y-43671485D01*
X208776190Y-43671485D02*
X208728571Y-43861961D01*
X208728571Y-43861961D02*
X208633333Y-43957200D01*
X208633333Y-43957200D02*
X208538095Y-44004819D01*
X208538095Y-44004819D02*
X208347619Y-44004819D01*
X208347619Y-44004819D02*
X208252381Y-43957200D01*
X208252381Y-43957200D02*
X208157143Y-43861961D01*
X208157143Y-43861961D02*
X208109524Y-43671485D01*
X208109524Y-43671485D02*
X208109524Y-43338152D01*
X208109524Y-43338152D02*
X208157143Y-43147676D01*
X208157143Y-43147676D02*
X208252381Y-43052438D01*
X208252381Y-43052438D02*
X208347619Y-43004819D01*
X209061905Y-43004819D02*
X209633333Y-43004819D01*
X209347619Y-44004819D02*
X209347619Y-43004819D01*
X195061905Y-55654819D02*
X195061905Y-54654819D01*
X195061905Y-54654819D02*
X195300000Y-54654819D01*
X195300000Y-54654819D02*
X195442857Y-54702438D01*
X195442857Y-54702438D02*
X195538095Y-54797676D01*
X195538095Y-54797676D02*
X195585714Y-54892914D01*
X195585714Y-54892914D02*
X195633333Y-55083390D01*
X195633333Y-55083390D02*
X195633333Y-55226247D01*
X195633333Y-55226247D02*
X195585714Y-55416723D01*
X195585714Y-55416723D02*
X195538095Y-55511961D01*
X195538095Y-55511961D02*
X195442857Y-55607200D01*
X195442857Y-55607200D02*
X195300000Y-55654819D01*
X195300000Y-55654819D02*
X195061905Y-55654819D01*
X196014286Y-54750057D02*
X196061905Y-54702438D01*
X196061905Y-54702438D02*
X196157143Y-54654819D01*
X196157143Y-54654819D02*
X196395238Y-54654819D01*
X196395238Y-54654819D02*
X196490476Y-54702438D01*
X196490476Y-54702438D02*
X196538095Y-54750057D01*
X196538095Y-54750057D02*
X196585714Y-54845295D01*
X196585714Y-54845295D02*
X196585714Y-54940533D01*
X196585714Y-54940533D02*
X196538095Y-55083390D01*
X196538095Y-55083390D02*
X195966667Y-55654819D01*
X195966667Y-55654819D02*
X196585714Y-55654819D01*
X207550000Y-101904819D02*
X207550000Y-100904819D01*
X208216666Y-100904819D02*
X208407142Y-100904819D01*
X208407142Y-100904819D02*
X208502380Y-100952438D01*
X208502380Y-100952438D02*
X208597618Y-101047676D01*
X208597618Y-101047676D02*
X208645237Y-101238152D01*
X208645237Y-101238152D02*
X208645237Y-101571485D01*
X208645237Y-101571485D02*
X208597618Y-101761961D01*
X208597618Y-101761961D02*
X208502380Y-101857200D01*
X208502380Y-101857200D02*
X208407142Y-101904819D01*
X208407142Y-101904819D02*
X208216666Y-101904819D01*
X208216666Y-101904819D02*
X208121428Y-101857200D01*
X208121428Y-101857200D02*
X208026190Y-101761961D01*
X208026190Y-101761961D02*
X207978571Y-101571485D01*
X207978571Y-101571485D02*
X207978571Y-101238152D01*
X207978571Y-101238152D02*
X208026190Y-101047676D01*
X208026190Y-101047676D02*
X208121428Y-100952438D01*
X208121428Y-100952438D02*
X208216666Y-100904819D01*
X209264285Y-100904819D02*
X209359523Y-100904819D01*
X209359523Y-100904819D02*
X209454761Y-100952438D01*
X209454761Y-100952438D02*
X209502380Y-101000057D01*
X209502380Y-101000057D02*
X209549999Y-101095295D01*
X209549999Y-101095295D02*
X209597618Y-101285771D01*
X209597618Y-101285771D02*
X209597618Y-101523866D01*
X209597618Y-101523866D02*
X209549999Y-101714342D01*
X209549999Y-101714342D02*
X209502380Y-101809580D01*
X209502380Y-101809580D02*
X209454761Y-101857200D01*
X209454761Y-101857200D02*
X209359523Y-101904819D01*
X209359523Y-101904819D02*
X209264285Y-101904819D01*
X209264285Y-101904819D02*
X209169047Y-101857200D01*
X209169047Y-101857200D02*
X209121428Y-101809580D01*
X209121428Y-101809580D02*
X209073809Y-101714342D01*
X209073809Y-101714342D02*
X209026190Y-101523866D01*
X209026190Y-101523866D02*
X209026190Y-101285771D01*
X209026190Y-101285771D02*
X209073809Y-101095295D01*
X209073809Y-101095295D02*
X209121428Y-101000057D01*
X209121428Y-101000057D02*
X209169047Y-100952438D01*
X209169047Y-100952438D02*
X209264285Y-100904819D01*
X179866666Y-94804819D02*
X179533333Y-94328628D01*
X179295238Y-94804819D02*
X179295238Y-93804819D01*
X179295238Y-93804819D02*
X179676190Y-93804819D01*
X179676190Y-93804819D02*
X179771428Y-93852438D01*
X179771428Y-93852438D02*
X179819047Y-93900057D01*
X179819047Y-93900057D02*
X179866666Y-93995295D01*
X179866666Y-93995295D02*
X179866666Y-94138152D01*
X179866666Y-94138152D02*
X179819047Y-94233390D01*
X179819047Y-94233390D02*
X179771428Y-94281009D01*
X179771428Y-94281009D02*
X179676190Y-94328628D01*
X179676190Y-94328628D02*
X179295238Y-94328628D01*
X180295238Y-94281009D02*
X180628571Y-94281009D01*
X180771428Y-94804819D02*
X180295238Y-94804819D01*
X180295238Y-94804819D02*
X180295238Y-93804819D01*
X180295238Y-93804819D02*
X180771428Y-93804819D01*
X181533333Y-94281009D02*
X181200000Y-94281009D01*
X181200000Y-94804819D02*
X181200000Y-93804819D01*
X181200000Y-93804819D02*
X181676190Y-93804819D01*
X182200000Y-93804819D02*
X182200000Y-94042914D01*
X181961905Y-93947676D02*
X182200000Y-94042914D01*
X182200000Y-94042914D02*
X182438095Y-93947676D01*
X182057143Y-94233390D02*
X182200000Y-94042914D01*
X182200000Y-94042914D02*
X182342857Y-94233390D01*
X182961905Y-93804819D02*
X182961905Y-94042914D01*
X182723810Y-93947676D02*
X182961905Y-94042914D01*
X182961905Y-94042914D02*
X183200000Y-93947676D01*
X182819048Y-94233390D02*
X182961905Y-94042914D01*
X182961905Y-94042914D02*
X183104762Y-94233390D01*
X201959580Y-60016666D02*
X202007200Y-60064285D01*
X202007200Y-60064285D02*
X202054819Y-60207142D01*
X202054819Y-60207142D02*
X202054819Y-60302380D01*
X202054819Y-60302380D02*
X202007200Y-60445237D01*
X202007200Y-60445237D02*
X201911961Y-60540475D01*
X201911961Y-60540475D02*
X201816723Y-60588094D01*
X201816723Y-60588094D02*
X201626247Y-60635713D01*
X201626247Y-60635713D02*
X201483390Y-60635713D01*
X201483390Y-60635713D02*
X201292914Y-60588094D01*
X201292914Y-60588094D02*
X201197676Y-60540475D01*
X201197676Y-60540475D02*
X201102438Y-60445237D01*
X201102438Y-60445237D02*
X201054819Y-60302380D01*
X201054819Y-60302380D02*
X201054819Y-60207142D01*
X201054819Y-60207142D02*
X201102438Y-60064285D01*
X201102438Y-60064285D02*
X201150057Y-60016666D01*
X201150057Y-59635713D02*
X201102438Y-59588094D01*
X201102438Y-59588094D02*
X201054819Y-59492856D01*
X201054819Y-59492856D02*
X201054819Y-59254761D01*
X201054819Y-59254761D02*
X201102438Y-59159523D01*
X201102438Y-59159523D02*
X201150057Y-59111904D01*
X201150057Y-59111904D02*
X201245295Y-59064285D01*
X201245295Y-59064285D02*
X201340533Y-59064285D01*
X201340533Y-59064285D02*
X201483390Y-59111904D01*
X201483390Y-59111904D02*
X202054819Y-59683332D01*
X202054819Y-59683332D02*
X202054819Y-59064285D01*
X207938095Y-94852438D02*
X207842857Y-94804819D01*
X207842857Y-94804819D02*
X207700000Y-94804819D01*
X207700000Y-94804819D02*
X207557143Y-94852438D01*
X207557143Y-94852438D02*
X207461905Y-94947676D01*
X207461905Y-94947676D02*
X207414286Y-95042914D01*
X207414286Y-95042914D02*
X207366667Y-95233390D01*
X207366667Y-95233390D02*
X207366667Y-95376247D01*
X207366667Y-95376247D02*
X207414286Y-95566723D01*
X207414286Y-95566723D02*
X207461905Y-95661961D01*
X207461905Y-95661961D02*
X207557143Y-95757200D01*
X207557143Y-95757200D02*
X207700000Y-95804819D01*
X207700000Y-95804819D02*
X207795238Y-95804819D01*
X207795238Y-95804819D02*
X207938095Y-95757200D01*
X207938095Y-95757200D02*
X207985714Y-95709580D01*
X207985714Y-95709580D02*
X207985714Y-95376247D01*
X207985714Y-95376247D02*
X207795238Y-95376247D01*
X208414286Y-95804819D02*
X208414286Y-94804819D01*
X208414286Y-94804819D02*
X208985714Y-95804819D01*
X208985714Y-95804819D02*
X208985714Y-94804819D01*
X209461905Y-95804819D02*
X209461905Y-94804819D01*
X209461905Y-94804819D02*
X209700000Y-94804819D01*
X209700000Y-94804819D02*
X209842857Y-94852438D01*
X209842857Y-94852438D02*
X209938095Y-94947676D01*
X209938095Y-94947676D02*
X209985714Y-95042914D01*
X209985714Y-95042914D02*
X210033333Y-95233390D01*
X210033333Y-95233390D02*
X210033333Y-95376247D01*
X210033333Y-95376247D02*
X209985714Y-95566723D01*
X209985714Y-95566723D02*
X209938095Y-95661961D01*
X209938095Y-95661961D02*
X209842857Y-95757200D01*
X209842857Y-95757200D02*
X209700000Y-95804819D01*
X209700000Y-95804819D02*
X209461905Y-95804819D01*
X207909523Y-88504819D02*
X207433333Y-88504819D01*
X207433333Y-88504819D02*
X207385714Y-88981009D01*
X207385714Y-88981009D02*
X207433333Y-88933390D01*
X207433333Y-88933390D02*
X207528571Y-88885771D01*
X207528571Y-88885771D02*
X207766666Y-88885771D01*
X207766666Y-88885771D02*
X207861904Y-88933390D01*
X207861904Y-88933390D02*
X207909523Y-88981009D01*
X207909523Y-88981009D02*
X207957142Y-89076247D01*
X207957142Y-89076247D02*
X207957142Y-89314342D01*
X207957142Y-89314342D02*
X207909523Y-89409580D01*
X207909523Y-89409580D02*
X207861904Y-89457200D01*
X207861904Y-89457200D02*
X207766666Y-89504819D01*
X207766666Y-89504819D02*
X207528571Y-89504819D01*
X207528571Y-89504819D02*
X207433333Y-89457200D01*
X207433333Y-89457200D02*
X207385714Y-89409580D01*
X208242857Y-88504819D02*
X208576190Y-89504819D01*
X208576190Y-89504819D02*
X208909523Y-88504819D01*
X194516666Y-101344819D02*
X194516666Y-102059104D01*
X194516666Y-102059104D02*
X194469047Y-102201961D01*
X194469047Y-102201961D02*
X194373809Y-102297200D01*
X194373809Y-102297200D02*
X194230952Y-102344819D01*
X194230952Y-102344819D02*
X194135714Y-102344819D01*
X195421428Y-101678152D02*
X195421428Y-102344819D01*
X195183333Y-101297200D02*
X194945238Y-102011485D01*
X194945238Y-102011485D02*
X195564285Y-102011485D01*
X179011905Y-78174819D02*
X179011905Y-77174819D01*
X179011905Y-77174819D02*
X179250000Y-77174819D01*
X179250000Y-77174819D02*
X179392857Y-77222438D01*
X179392857Y-77222438D02*
X179488095Y-77317676D01*
X179488095Y-77317676D02*
X179535714Y-77412914D01*
X179535714Y-77412914D02*
X179583333Y-77603390D01*
X179583333Y-77603390D02*
X179583333Y-77746247D01*
X179583333Y-77746247D02*
X179535714Y-77936723D01*
X179535714Y-77936723D02*
X179488095Y-78031961D01*
X179488095Y-78031961D02*
X179392857Y-78127200D01*
X179392857Y-78127200D02*
X179250000Y-78174819D01*
X179250000Y-78174819D02*
X179011905Y-78174819D01*
X179916667Y-77174819D02*
X180535714Y-77174819D01*
X180535714Y-77174819D02*
X180202381Y-77555771D01*
X180202381Y-77555771D02*
X180345238Y-77555771D01*
X180345238Y-77555771D02*
X180440476Y-77603390D01*
X180440476Y-77603390D02*
X180488095Y-77651009D01*
X180488095Y-77651009D02*
X180535714Y-77746247D01*
X180535714Y-77746247D02*
X180535714Y-77984342D01*
X180535714Y-77984342D02*
X180488095Y-78079580D01*
X180488095Y-78079580D02*
X180440476Y-78127200D01*
X180440476Y-78127200D02*
X180345238Y-78174819D01*
X180345238Y-78174819D02*
X180059524Y-78174819D01*
X180059524Y-78174819D02*
X179964286Y-78127200D01*
X179964286Y-78127200D02*
X179916667Y-78079580D01*
X178716666Y-51904819D02*
X178383333Y-51428628D01*
X178145238Y-51904819D02*
X178145238Y-50904819D01*
X178145238Y-50904819D02*
X178526190Y-50904819D01*
X178526190Y-50904819D02*
X178621428Y-50952438D01*
X178621428Y-50952438D02*
X178669047Y-51000057D01*
X178669047Y-51000057D02*
X178716666Y-51095295D01*
X178716666Y-51095295D02*
X178716666Y-51238152D01*
X178716666Y-51238152D02*
X178669047Y-51333390D01*
X178669047Y-51333390D02*
X178621428Y-51381009D01*
X178621428Y-51381009D02*
X178526190Y-51428628D01*
X178526190Y-51428628D02*
X178145238Y-51428628D01*
X179145238Y-51381009D02*
X179478571Y-51381009D01*
X179621428Y-51904819D02*
X179145238Y-51904819D01*
X179145238Y-51904819D02*
X179145238Y-50904819D01*
X179145238Y-50904819D02*
X179621428Y-50904819D01*
X180383333Y-51381009D02*
X180050000Y-51381009D01*
X180050000Y-51904819D02*
X180050000Y-50904819D01*
X180050000Y-50904819D02*
X180526190Y-50904819D01*
X181050000Y-50904819D02*
X181050000Y-51142914D01*
X180811905Y-51047676D02*
X181050000Y-51142914D01*
X181050000Y-51142914D02*
X181288095Y-51047676D01*
X180907143Y-51333390D02*
X181050000Y-51142914D01*
X181050000Y-51142914D02*
X181192857Y-51333390D01*
X181811905Y-50904819D02*
X181811905Y-51142914D01*
X181573810Y-51047676D02*
X181811905Y-51142914D01*
X181811905Y-51142914D02*
X182050000Y-51047676D01*
X181669048Y-51333390D02*
X181811905Y-51142914D01*
X181811905Y-51142914D02*
X181954762Y-51333390D01*
X206883333Y-49654819D02*
X206550000Y-49178628D01*
X206311905Y-49654819D02*
X206311905Y-48654819D01*
X206311905Y-48654819D02*
X206692857Y-48654819D01*
X206692857Y-48654819D02*
X206788095Y-48702438D01*
X206788095Y-48702438D02*
X206835714Y-48750057D01*
X206835714Y-48750057D02*
X206883333Y-48845295D01*
X206883333Y-48845295D02*
X206883333Y-48988152D01*
X206883333Y-48988152D02*
X206835714Y-49083390D01*
X206835714Y-49083390D02*
X206788095Y-49131009D01*
X206788095Y-49131009D02*
X206692857Y-49178628D01*
X206692857Y-49178628D02*
X206311905Y-49178628D01*
X207454762Y-49083390D02*
X207359524Y-49035771D01*
X207359524Y-49035771D02*
X207311905Y-48988152D01*
X207311905Y-48988152D02*
X207264286Y-48892914D01*
X207264286Y-48892914D02*
X207264286Y-48845295D01*
X207264286Y-48845295D02*
X207311905Y-48750057D01*
X207311905Y-48750057D02*
X207359524Y-48702438D01*
X207359524Y-48702438D02*
X207454762Y-48654819D01*
X207454762Y-48654819D02*
X207645238Y-48654819D01*
X207645238Y-48654819D02*
X207740476Y-48702438D01*
X207740476Y-48702438D02*
X207788095Y-48750057D01*
X207788095Y-48750057D02*
X207835714Y-48845295D01*
X207835714Y-48845295D02*
X207835714Y-48892914D01*
X207835714Y-48892914D02*
X207788095Y-48988152D01*
X207788095Y-48988152D02*
X207740476Y-49035771D01*
X207740476Y-49035771D02*
X207645238Y-49083390D01*
X207645238Y-49083390D02*
X207454762Y-49083390D01*
X207454762Y-49083390D02*
X207359524Y-49131009D01*
X207359524Y-49131009D02*
X207311905Y-49178628D01*
X207311905Y-49178628D02*
X207264286Y-49273866D01*
X207264286Y-49273866D02*
X207264286Y-49464342D01*
X207264286Y-49464342D02*
X207311905Y-49559580D01*
X207311905Y-49559580D02*
X207359524Y-49607200D01*
X207359524Y-49607200D02*
X207454762Y-49654819D01*
X207454762Y-49654819D02*
X207645238Y-49654819D01*
X207645238Y-49654819D02*
X207740476Y-49607200D01*
X207740476Y-49607200D02*
X207788095Y-49559580D01*
X207788095Y-49559580D02*
X207835714Y-49464342D01*
X207835714Y-49464342D02*
X207835714Y-49273866D01*
X207835714Y-49273866D02*
X207788095Y-49178628D01*
X207788095Y-49178628D02*
X207740476Y-49131009D01*
X207740476Y-49131009D02*
X207645238Y-49083390D01*
X192188095Y-60104819D02*
X192188095Y-60914342D01*
X192188095Y-60914342D02*
X192235714Y-61009580D01*
X192235714Y-61009580D02*
X192283333Y-61057200D01*
X192283333Y-61057200D02*
X192378571Y-61104819D01*
X192378571Y-61104819D02*
X192569047Y-61104819D01*
X192569047Y-61104819D02*
X192664285Y-61057200D01*
X192664285Y-61057200D02*
X192711904Y-61009580D01*
X192711904Y-61009580D02*
X192759523Y-60914342D01*
X192759523Y-60914342D02*
X192759523Y-60104819D01*
X193140476Y-60104819D02*
X193759523Y-60104819D01*
X193759523Y-60104819D02*
X193426190Y-60485771D01*
X193426190Y-60485771D02*
X193569047Y-60485771D01*
X193569047Y-60485771D02*
X193664285Y-60533390D01*
X193664285Y-60533390D02*
X193711904Y-60581009D01*
X193711904Y-60581009D02*
X193759523Y-60676247D01*
X193759523Y-60676247D02*
X193759523Y-60914342D01*
X193759523Y-60914342D02*
X193711904Y-61009580D01*
X193711904Y-61009580D02*
X193664285Y-61057200D01*
X193664285Y-61057200D02*
X193569047Y-61104819D01*
X193569047Y-61104819D02*
X193283333Y-61104819D01*
X193283333Y-61104819D02*
X193188095Y-61057200D01*
X193188095Y-61057200D02*
X193140476Y-61009580D01*
X185704819Y-68366666D02*
X185228628Y-68699999D01*
X185704819Y-68938094D02*
X184704819Y-68938094D01*
X184704819Y-68938094D02*
X184704819Y-68557142D01*
X184704819Y-68557142D02*
X184752438Y-68461904D01*
X184752438Y-68461904D02*
X184800057Y-68414285D01*
X184800057Y-68414285D02*
X184895295Y-68366666D01*
X184895295Y-68366666D02*
X185038152Y-68366666D01*
X185038152Y-68366666D02*
X185133390Y-68414285D01*
X185133390Y-68414285D02*
X185181009Y-68461904D01*
X185181009Y-68461904D02*
X185228628Y-68557142D01*
X185228628Y-68557142D02*
X185228628Y-68938094D01*
X184704819Y-67509523D02*
X184704819Y-67699999D01*
X184704819Y-67699999D02*
X184752438Y-67795237D01*
X184752438Y-67795237D02*
X184800057Y-67842856D01*
X184800057Y-67842856D02*
X184942914Y-67938094D01*
X184942914Y-67938094D02*
X185133390Y-67985713D01*
X185133390Y-67985713D02*
X185514342Y-67985713D01*
X185514342Y-67985713D02*
X185609580Y-67938094D01*
X185609580Y-67938094D02*
X185657200Y-67890475D01*
X185657200Y-67890475D02*
X185704819Y-67795237D01*
X185704819Y-67795237D02*
X185704819Y-67604761D01*
X185704819Y-67604761D02*
X185657200Y-67509523D01*
X185657200Y-67509523D02*
X185609580Y-67461904D01*
X185609580Y-67461904D02*
X185514342Y-67414285D01*
X185514342Y-67414285D02*
X185276247Y-67414285D01*
X185276247Y-67414285D02*
X185181009Y-67461904D01*
X185181009Y-67461904D02*
X185133390Y-67509523D01*
X185133390Y-67509523D02*
X185085771Y-67604761D01*
X185085771Y-67604761D02*
X185085771Y-67795237D01*
X185085771Y-67795237D02*
X185133390Y-67890475D01*
X185133390Y-67890475D02*
X185181009Y-67938094D01*
X185181009Y-67938094D02*
X185276247Y-67985713D01*
X207311905Y-91754819D02*
X207930952Y-91754819D01*
X207930952Y-91754819D02*
X207597619Y-92135771D01*
X207597619Y-92135771D02*
X207740476Y-92135771D01*
X207740476Y-92135771D02*
X207835714Y-92183390D01*
X207835714Y-92183390D02*
X207883333Y-92231009D01*
X207883333Y-92231009D02*
X207930952Y-92326247D01*
X207930952Y-92326247D02*
X207930952Y-92564342D01*
X207930952Y-92564342D02*
X207883333Y-92659580D01*
X207883333Y-92659580D02*
X207835714Y-92707200D01*
X207835714Y-92707200D02*
X207740476Y-92754819D01*
X207740476Y-92754819D02*
X207454762Y-92754819D01*
X207454762Y-92754819D02*
X207359524Y-92707200D01*
X207359524Y-92707200D02*
X207311905Y-92659580D01*
X208216667Y-91754819D02*
X208550000Y-92754819D01*
X208550000Y-92754819D02*
X208883333Y-91754819D01*
X209121429Y-91754819D02*
X209740476Y-91754819D01*
X209740476Y-91754819D02*
X209407143Y-92135771D01*
X209407143Y-92135771D02*
X209550000Y-92135771D01*
X209550000Y-92135771D02*
X209645238Y-92183390D01*
X209645238Y-92183390D02*
X209692857Y-92231009D01*
X209692857Y-92231009D02*
X209740476Y-92326247D01*
X209740476Y-92326247D02*
X209740476Y-92564342D01*
X209740476Y-92564342D02*
X209692857Y-92659580D01*
X209692857Y-92659580D02*
X209645238Y-92707200D01*
X209645238Y-92707200D02*
X209550000Y-92754819D01*
X209550000Y-92754819D02*
X209264286Y-92754819D01*
X209264286Y-92754819D02*
X209169048Y-92707200D01*
X209169048Y-92707200D02*
X209121429Y-92659580D01*
X183283333Y-63859580D02*
X183235714Y-63907200D01*
X183235714Y-63907200D02*
X183092857Y-63954819D01*
X183092857Y-63954819D02*
X182997619Y-63954819D01*
X182997619Y-63954819D02*
X182854762Y-63907200D01*
X182854762Y-63907200D02*
X182759524Y-63811961D01*
X182759524Y-63811961D02*
X182711905Y-63716723D01*
X182711905Y-63716723D02*
X182664286Y-63526247D01*
X182664286Y-63526247D02*
X182664286Y-63383390D01*
X182664286Y-63383390D02*
X182711905Y-63192914D01*
X182711905Y-63192914D02*
X182759524Y-63097676D01*
X182759524Y-63097676D02*
X182854762Y-63002438D01*
X182854762Y-63002438D02*
X182997619Y-62954819D01*
X182997619Y-62954819D02*
X183092857Y-62954819D01*
X183092857Y-62954819D02*
X183235714Y-63002438D01*
X183235714Y-63002438D02*
X183283333Y-63050057D01*
X183616667Y-62954819D02*
X184283333Y-62954819D01*
X184283333Y-62954819D02*
X183854762Y-63954819D01*
X207461905Y-98231009D02*
X207795238Y-98231009D01*
X207938095Y-98754819D02*
X207461905Y-98754819D01*
X207461905Y-98754819D02*
X207461905Y-97754819D01*
X207461905Y-97754819D02*
X207938095Y-97754819D01*
X208366667Y-98754819D02*
X208366667Y-97754819D01*
X208366667Y-97754819D02*
X208938095Y-98754819D01*
X208938095Y-98754819D02*
X208938095Y-97754819D01*
X184245833Y-82124819D02*
X183912500Y-81648628D01*
X183674405Y-82124819D02*
X183674405Y-81124819D01*
X183674405Y-81124819D02*
X184055357Y-81124819D01*
X184055357Y-81124819D02*
X184150595Y-81172438D01*
X184150595Y-81172438D02*
X184198214Y-81220057D01*
X184198214Y-81220057D02*
X184245833Y-81315295D01*
X184245833Y-81315295D02*
X184245833Y-81458152D01*
X184245833Y-81458152D02*
X184198214Y-81553390D01*
X184198214Y-81553390D02*
X184150595Y-81601009D01*
X184150595Y-81601009D02*
X184055357Y-81648628D01*
X184055357Y-81648628D02*
X183674405Y-81648628D01*
X184722024Y-82124819D02*
X184912500Y-82124819D01*
X184912500Y-82124819D02*
X185007738Y-82077200D01*
X185007738Y-82077200D02*
X185055357Y-82029580D01*
X185055357Y-82029580D02*
X185150595Y-81886723D01*
X185150595Y-81886723D02*
X185198214Y-81696247D01*
X185198214Y-81696247D02*
X185198214Y-81315295D01*
X185198214Y-81315295D02*
X185150595Y-81220057D01*
X185150595Y-81220057D02*
X185102976Y-81172438D01*
X185102976Y-81172438D02*
X185007738Y-81124819D01*
X185007738Y-81124819D02*
X184817262Y-81124819D01*
X184817262Y-81124819D02*
X184722024Y-81172438D01*
X184722024Y-81172438D02*
X184674405Y-81220057D01*
X184674405Y-81220057D02*
X184626786Y-81315295D01*
X184626786Y-81315295D02*
X184626786Y-81553390D01*
X184626786Y-81553390D02*
X184674405Y-81648628D01*
X184674405Y-81648628D02*
X184722024Y-81696247D01*
X184722024Y-81696247D02*
X184817262Y-81743866D01*
X184817262Y-81743866D02*
X185007738Y-81743866D01*
X185007738Y-81743866D02*
X185102976Y-81696247D01*
X185102976Y-81696247D02*
X185150595Y-81648628D01*
X185150595Y-81648628D02*
X185198214Y-81553390D01*
X191216666Y-45494819D02*
X191216666Y-46209104D01*
X191216666Y-46209104D02*
X191169047Y-46351961D01*
X191169047Y-46351961D02*
X191073809Y-46447200D01*
X191073809Y-46447200D02*
X190930952Y-46494819D01*
X190930952Y-46494819D02*
X190835714Y-46494819D01*
X192216666Y-46494819D02*
X191645238Y-46494819D01*
X191930952Y-46494819D02*
X191930952Y-45494819D01*
X191930952Y-45494819D02*
X191835714Y-45637676D01*
X191835714Y-45637676D02*
X191740476Y-45732914D01*
X191740476Y-45732914D02*
X191645238Y-45780533D01*
X190461905Y-57404819D02*
X190461905Y-56404819D01*
X190461905Y-56404819D02*
X190700000Y-56404819D01*
X190700000Y-56404819D02*
X190842857Y-56452438D01*
X190842857Y-56452438D02*
X190938095Y-56547676D01*
X190938095Y-56547676D02*
X190985714Y-56642914D01*
X190985714Y-56642914D02*
X191033333Y-56833390D01*
X191033333Y-56833390D02*
X191033333Y-56976247D01*
X191033333Y-56976247D02*
X190985714Y-57166723D01*
X190985714Y-57166723D02*
X190938095Y-57261961D01*
X190938095Y-57261961D02*
X190842857Y-57357200D01*
X190842857Y-57357200D02*
X190700000Y-57404819D01*
X190700000Y-57404819D02*
X190461905Y-57404819D01*
X191985714Y-57404819D02*
X191414286Y-57404819D01*
X191700000Y-57404819D02*
X191700000Y-56404819D01*
X191700000Y-56404819D02*
X191604762Y-56547676D01*
X191604762Y-56547676D02*
X191509524Y-56642914D01*
X191509524Y-56642914D02*
X191414286Y-56690533D01*
X203533333Y-65359580D02*
X203485714Y-65407200D01*
X203485714Y-65407200D02*
X203342857Y-65454819D01*
X203342857Y-65454819D02*
X203247619Y-65454819D01*
X203247619Y-65454819D02*
X203104762Y-65407200D01*
X203104762Y-65407200D02*
X203009524Y-65311961D01*
X203009524Y-65311961D02*
X202961905Y-65216723D01*
X202961905Y-65216723D02*
X202914286Y-65026247D01*
X202914286Y-65026247D02*
X202914286Y-64883390D01*
X202914286Y-64883390D02*
X202961905Y-64692914D01*
X202961905Y-64692914D02*
X203009524Y-64597676D01*
X203009524Y-64597676D02*
X203104762Y-64502438D01*
X203104762Y-64502438D02*
X203247619Y-64454819D01*
X203247619Y-64454819D02*
X203342857Y-64454819D01*
X203342857Y-64454819D02*
X203485714Y-64502438D01*
X203485714Y-64502438D02*
X203533333Y-64550057D01*
X204438095Y-64454819D02*
X203961905Y-64454819D01*
X203961905Y-64454819D02*
X203914286Y-64931009D01*
X203914286Y-64931009D02*
X203961905Y-64883390D01*
X203961905Y-64883390D02*
X204057143Y-64835771D01*
X204057143Y-64835771D02*
X204295238Y-64835771D01*
X204295238Y-64835771D02*
X204390476Y-64883390D01*
X204390476Y-64883390D02*
X204438095Y-64931009D01*
X204438095Y-64931009D02*
X204485714Y-65026247D01*
X204485714Y-65026247D02*
X204485714Y-65264342D01*
X204485714Y-65264342D02*
X204438095Y-65359580D01*
X204438095Y-65359580D02*
X204390476Y-65407200D01*
X204390476Y-65407200D02*
X204295238Y-65454819D01*
X204295238Y-65454819D02*
X204057143Y-65454819D01*
X204057143Y-65454819D02*
X203961905Y-65407200D01*
X203961905Y-65407200D02*
X203914286Y-65359580D01*
X183657830Y-65503054D02*
X183324497Y-65026863D01*
X183086402Y-65503054D02*
X183086402Y-64503054D01*
X183086402Y-64503054D02*
X183467354Y-64503054D01*
X183467354Y-64503054D02*
X183562592Y-64550673D01*
X183562592Y-64550673D02*
X183610211Y-64598292D01*
X183610211Y-64598292D02*
X183657830Y-64693530D01*
X183657830Y-64693530D02*
X183657830Y-64836387D01*
X183657830Y-64836387D02*
X183610211Y-64931625D01*
X183610211Y-64931625D02*
X183562592Y-64979244D01*
X183562592Y-64979244D02*
X183467354Y-65026863D01*
X183467354Y-65026863D02*
X183086402Y-65026863D01*
X184562592Y-64503054D02*
X184086402Y-64503054D01*
X184086402Y-64503054D02*
X184038783Y-64979244D01*
X184038783Y-64979244D02*
X184086402Y-64931625D01*
X184086402Y-64931625D02*
X184181640Y-64884006D01*
X184181640Y-64884006D02*
X184419735Y-64884006D01*
X184419735Y-64884006D02*
X184514973Y-64931625D01*
X184514973Y-64931625D02*
X184562592Y-64979244D01*
X184562592Y-64979244D02*
X184610211Y-65074482D01*
X184610211Y-65074482D02*
X184610211Y-65312577D01*
X184610211Y-65312577D02*
X184562592Y-65407815D01*
X184562592Y-65407815D02*
X184514973Y-65455435D01*
X184514973Y-65455435D02*
X184419735Y-65503054D01*
X184419735Y-65503054D02*
X184181640Y-65503054D01*
X184181640Y-65503054D02*
X184086402Y-65455435D01*
X184086402Y-65455435D02*
X184038783Y-65407815D01*
X182633333Y-62259580D02*
X182585714Y-62307200D01*
X182585714Y-62307200D02*
X182442857Y-62354819D01*
X182442857Y-62354819D02*
X182347619Y-62354819D01*
X182347619Y-62354819D02*
X182204762Y-62307200D01*
X182204762Y-62307200D02*
X182109524Y-62211961D01*
X182109524Y-62211961D02*
X182061905Y-62116723D01*
X182061905Y-62116723D02*
X182014286Y-61926247D01*
X182014286Y-61926247D02*
X182014286Y-61783390D01*
X182014286Y-61783390D02*
X182061905Y-61592914D01*
X182061905Y-61592914D02*
X182109524Y-61497676D01*
X182109524Y-61497676D02*
X182204762Y-61402438D01*
X182204762Y-61402438D02*
X182347619Y-61354819D01*
X182347619Y-61354819D02*
X182442857Y-61354819D01*
X182442857Y-61354819D02*
X182585714Y-61402438D01*
X182585714Y-61402438D02*
X182633333Y-61450057D01*
X183490476Y-61354819D02*
X183300000Y-61354819D01*
X183300000Y-61354819D02*
X183204762Y-61402438D01*
X183204762Y-61402438D02*
X183157143Y-61450057D01*
X183157143Y-61450057D02*
X183061905Y-61592914D01*
X183061905Y-61592914D02*
X183014286Y-61783390D01*
X183014286Y-61783390D02*
X183014286Y-62164342D01*
X183014286Y-62164342D02*
X183061905Y-62259580D01*
X183061905Y-62259580D02*
X183109524Y-62307200D01*
X183109524Y-62307200D02*
X183204762Y-62354819D01*
X183204762Y-62354819D02*
X183395238Y-62354819D01*
X183395238Y-62354819D02*
X183490476Y-62307200D01*
X183490476Y-62307200D02*
X183538095Y-62259580D01*
X183538095Y-62259580D02*
X183585714Y-62164342D01*
X183585714Y-62164342D02*
X183585714Y-61926247D01*
X183585714Y-61926247D02*
X183538095Y-61831009D01*
X183538095Y-61831009D02*
X183490476Y-61783390D01*
X183490476Y-61783390D02*
X183395238Y-61735771D01*
X183395238Y-61735771D02*
X183204762Y-61735771D01*
X183204762Y-61735771D02*
X183109524Y-61783390D01*
X183109524Y-61783390D02*
X183061905Y-61831009D01*
X183061905Y-61831009D02*
X183014286Y-61926247D01*
X206207142Y-62759580D02*
X206159523Y-62807200D01*
X206159523Y-62807200D02*
X206016666Y-62854819D01*
X206016666Y-62854819D02*
X205921428Y-62854819D01*
X205921428Y-62854819D02*
X205778571Y-62807200D01*
X205778571Y-62807200D02*
X205683333Y-62711961D01*
X205683333Y-62711961D02*
X205635714Y-62616723D01*
X205635714Y-62616723D02*
X205588095Y-62426247D01*
X205588095Y-62426247D02*
X205588095Y-62283390D01*
X205588095Y-62283390D02*
X205635714Y-62092914D01*
X205635714Y-62092914D02*
X205683333Y-61997676D01*
X205683333Y-61997676D02*
X205778571Y-61902438D01*
X205778571Y-61902438D02*
X205921428Y-61854819D01*
X205921428Y-61854819D02*
X206016666Y-61854819D01*
X206016666Y-61854819D02*
X206159523Y-61902438D01*
X206159523Y-61902438D02*
X206207142Y-61950057D01*
X207159523Y-62854819D02*
X206588095Y-62854819D01*
X206873809Y-62854819D02*
X206873809Y-61854819D01*
X206873809Y-61854819D02*
X206778571Y-61997676D01*
X206778571Y-61997676D02*
X206683333Y-62092914D01*
X206683333Y-62092914D02*
X206588095Y-62140533D01*
X208111904Y-62854819D02*
X207540476Y-62854819D01*
X207826190Y-62854819D02*
X207826190Y-61854819D01*
X207826190Y-61854819D02*
X207730952Y-61997676D01*
X207730952Y-61997676D02*
X207635714Y-62092914D01*
X207635714Y-62092914D02*
X207540476Y-62140533D01*
%TO.C,C8*%
D12*
X186390580Y-59690000D02*
X186109420Y-59690000D01*
X186390580Y-60710000D02*
X186109420Y-60710000D01*
%TO.C,RESET*%
X198850000Y-46300000D02*
X198850000Y-46200000D01*
X198850000Y-47800000D02*
X203250000Y-47800000D01*
X203250000Y-44700000D02*
X198850000Y-44700000D01*
X203250000Y-46300000D02*
X203250000Y-46200000D01*
%TO.C,R3*%
X188427500Y-68387258D02*
X188427500Y-67912742D01*
X189472500Y-68387258D02*
X189472500Y-67912742D01*
%TO.C,D4*%
X178265000Y-82315000D02*
X178265000Y-83785000D01*
X178265000Y-83785000D02*
X180550000Y-83785000D01*
X180550000Y-82315000D02*
X178265000Y-82315000D01*
%TO.C,C4*%
X195865580Y-63980000D02*
X195584420Y-63980000D01*
X195865580Y-65000000D02*
X195584420Y-65000000D01*
%TO.C,C1*%
X195013748Y-56892500D02*
X195536252Y-56892500D01*
X195013748Y-58362500D02*
X195536252Y-58362500D01*
%TO.C,C9*%
X188240000Y-60240580D02*
X188240000Y-59959420D01*
X189260000Y-60240580D02*
X189260000Y-59959420D01*
%TO.C,U4*%
X188740000Y-62490000D02*
X189240000Y-62490000D01*
X188740000Y-62990000D02*
X188740000Y-62490000D01*
X188740000Y-65310000D02*
X188740000Y-65810000D01*
X188740000Y-65810000D02*
X189240000Y-65810000D01*
X191560000Y-62490000D02*
X191810000Y-62490000D01*
X192060000Y-62990000D02*
X192060000Y-62790000D01*
X192060000Y-65310000D02*
X192060000Y-65810000D01*
X192060000Y-65810000D02*
X191560000Y-65810000D01*
X192390000Y-62730000D02*
X192060000Y-62490000D01*
X192390000Y-62250000D01*
X192390000Y-62730000D01*
G36*
X192390000Y-62730000D02*
G01*
X192060000Y-62490000D01*
X192390000Y-62250000D01*
X192390000Y-62730000D01*
G37*
%TO.C,U1*%
X192947500Y-67435000D02*
X192947500Y-68435000D01*
X192947500Y-85675000D02*
X192947500Y-84675000D01*
X193727500Y-67435000D02*
X192947500Y-67435000D01*
X193727500Y-85675000D02*
X192947500Y-85675000D01*
X218687500Y-67435000D02*
X212527500Y-67435000D01*
X218687500Y-67435000D02*
X218687500Y-85675000D01*
X218687500Y-85675000D02*
X212272500Y-85675000D01*
X212302500Y-67430000D02*
X211802500Y-67430000D01*
X211802500Y-66930000D01*
X212302500Y-67430000D01*
G36*
X212302500Y-67430000D02*
G01*
X211802500Y-67430000D01*
X211802500Y-66930000D01*
X212302500Y-67430000D01*
G37*
%TO.C,R7*%
X203577500Y-55387742D02*
X203577500Y-55862258D01*
X204622500Y-55387742D02*
X204622500Y-55862258D01*
%TO.C,J3*%
X187870000Y-98160000D02*
X187870000Y-85350000D01*
X190630000Y-85350000D02*
X187870000Y-85350000D01*
X190630000Y-98160000D02*
X187870000Y-98160000D01*
X190630000Y-98160000D02*
X190630000Y-85350000D01*
X190630000Y-99430000D02*
X190630000Y-100810000D01*
X190630000Y-100810000D02*
X189250000Y-100810000D01*
%TO.C,F1*%
X184240000Y-53247936D02*
X184240000Y-54452064D01*
X186060000Y-53247936D02*
X186060000Y-54452064D01*
%TO.C,R11*%
X184437258Y-73677500D02*
X183962742Y-73677500D01*
X184437258Y-74722500D02*
X183962742Y-74722500D01*
%TO.C,R2*%
X195787258Y-87177500D02*
X195312742Y-87177500D01*
X195787258Y-88222500D02*
X195312742Y-88222500D01*
%TO.C,C3*%
X199088748Y-61615000D02*
X199611252Y-61615000D01*
X199088748Y-63085000D02*
X199611252Y-63085000D01*
%TO.C,U2*%
X205540000Y-57760000D02*
X205540000Y-53640000D01*
X210660000Y-53640000D02*
X210660000Y-57760000D01*
X206340000Y-59770000D02*
X205860000Y-59770000D01*
X206100000Y-59440000D01*
X206340000Y-59770000D01*
G36*
X206340000Y-59770000D02*
G01*
X205860000Y-59770000D01*
X206100000Y-59440000D01*
X206340000Y-59770000D01*
G37*
%TO.C,R4*%
X184477500Y-45412742D02*
X184477500Y-45887258D01*
X185522500Y-45412742D02*
X185522500Y-45887258D01*
%TO.C,D5*%
X178265000Y-73415000D02*
X178265000Y-74885000D01*
X178265000Y-74885000D02*
X180550000Y-74885000D01*
X180550000Y-73415000D02*
X178265000Y-73415000D01*
%TO.C,R10*%
X184137742Y-78677500D02*
X184612258Y-78677500D01*
X184137742Y-79722500D02*
X184612258Y-79722500D01*
%TO.C,J2*%
X198650000Y-97940000D02*
X198650000Y-90210000D01*
X201410000Y-90210000D02*
X198650000Y-90210000D01*
X201410000Y-97940000D02*
X198650000Y-97940000D01*
X201410000Y-97940000D02*
X201410000Y-90210000D01*
X201410000Y-99210000D02*
X201410000Y-100590000D01*
X201410000Y-100590000D02*
X200030000Y-100590000D01*
%TO.C,BOOT*%
X205612500Y-46250000D02*
X205612500Y-46150000D01*
X205612500Y-47750000D02*
X210012500Y-47750000D01*
X210012500Y-44650000D02*
X205612500Y-44650000D01*
X210012500Y-46250000D02*
X210012500Y-46150000D01*
%TO.C,D2*%
X191440000Y-53500000D02*
X191440000Y-54770000D01*
X194560000Y-54800000D02*
X194560000Y-53500000D01*
X191490000Y-55150000D02*
X191160000Y-55390000D01*
X191160000Y-54910000D01*
X191490000Y-55150000D01*
G36*
X191490000Y-55150000D02*
G01*
X191160000Y-55390000D01*
X191160000Y-54910000D01*
X191490000Y-55150000D01*
G37*
%TO.C,IO0*%
X206600000Y-101400000D02*
G75*
G02*
X205200000Y-101400000I-700000J0D01*
G01*
X205200000Y-101400000D02*
G75*
G02*
X206600000Y-101400000I700000J0D01*
G01*
%TO.C,C2*%
X199134420Y-59340000D02*
X199415580Y-59340000D01*
X199134420Y-60360000D02*
X199415580Y-60360000D01*
%TO.C,GND*%
X206600000Y-95300000D02*
G75*
G02*
X205200000Y-95300000I-700000J0D01*
G01*
X205200000Y-95300000D02*
G75*
G02*
X206600000Y-95300000I700000J0D01*
G01*
%TO.C,5V*%
X206600000Y-89200000D02*
G75*
G02*
X205200000Y-89200000I-700000J0D01*
G01*
X205200000Y-89200000D02*
G75*
G02*
X206600000Y-89200000I700000J0D01*
G01*
%TO.C,J4*%
X193470000Y-97860000D02*
X193470000Y-90130000D01*
X196230000Y-90130000D02*
X193470000Y-90130000D01*
X196230000Y-97860000D02*
X193470000Y-97860000D01*
X196230000Y-97860000D02*
X196230000Y-90130000D01*
X196230000Y-99130000D02*
X196230000Y-100510000D01*
X196230000Y-100510000D02*
X194850000Y-100510000D01*
%TO.C,D3*%
X178265000Y-78415000D02*
X178265000Y-79885000D01*
X178265000Y-79885000D02*
X180550000Y-79885000D01*
X180550000Y-78415000D02*
X178265000Y-78415000D01*
%TO.C,R8*%
X206762742Y-50277500D02*
X207237258Y-50277500D01*
X206762742Y-51322500D02*
X207237258Y-51322500D01*
%TO.C,U3*%
X194065000Y-60280000D02*
X194115000Y-60280000D01*
X194065000Y-62100000D02*
X194065000Y-60280000D01*
X194115000Y-62100000D02*
X194065000Y-62100000D01*
X196015000Y-62100000D02*
X195235000Y-62100000D01*
X197135000Y-60280000D02*
X197185000Y-60280000D01*
X197185000Y-60280000D02*
X197185000Y-62100000D01*
X197185000Y-62100000D02*
X197135000Y-62100000D01*
X197465000Y-59980000D02*
X197135000Y-59740000D01*
X197465000Y-59500000D01*
X197465000Y-59980000D01*
G36*
X197465000Y-59980000D02*
G01*
X197135000Y-59740000D01*
X197465000Y-59500000D01*
X197465000Y-59980000D01*
G37*
%TO.C,R6*%
X186527500Y-67837742D02*
X186527500Y-68312258D01*
X187572500Y-67837742D02*
X187572500Y-68312258D01*
%TO.C,3V3*%
X206600000Y-92250000D02*
G75*
G02*
X205200000Y-92250000I-700000J0D01*
G01*
X205200000Y-92250000D02*
G75*
G02*
X206600000Y-92250000I700000J0D01*
G01*
%TO.C,C7*%
X186190580Y-62990000D02*
X185909420Y-62990000D01*
X186190580Y-64010000D02*
X185909420Y-64010000D01*
%TO.C,EN*%
X206600000Y-98350000D02*
G75*
G02*
X205200000Y-98350000I-700000J0D01*
G01*
X205200000Y-98350000D02*
G75*
G02*
X206600000Y-98350000I700000J0D01*
G01*
%TO.C,R9*%
X184175242Y-82577500D02*
X184649758Y-82577500D01*
X184175242Y-83622500D02*
X184649758Y-83622500D01*
%TO.C,J1*%
X186730000Y-46350000D02*
X186730000Y-48050000D01*
X196070000Y-46350000D02*
X196070000Y-48050000D01*
%TO.C,D1*%
X186750000Y-51590000D02*
X186750000Y-57100000D01*
X190050000Y-51590000D02*
X186750000Y-51590000D01*
X190050000Y-51590000D02*
X190050000Y-57100000D01*
%TO.C,C5*%
X206415580Y-64490000D02*
X206134420Y-64490000D01*
X206415580Y-65510000D02*
X206134420Y-65510000D01*
%TO.C,R5*%
X186561755Y-64625735D02*
X186087239Y-64625735D01*
X186561755Y-65670735D02*
X186087239Y-65670735D01*
%TO.C,C6*%
X185540580Y-61390000D02*
X185259420Y-61390000D01*
X185540580Y-62410000D02*
X185259420Y-62410000D01*
%TO.C,C11*%
X206759420Y-60490000D02*
X207040580Y-60490000D01*
X206759420Y-61510000D02*
X207040580Y-61510000D01*
%TO.C,R1*%
X209812258Y-64577500D02*
X209337742Y-64577500D01*
X209812258Y-65622500D02*
X209337742Y-65622500D01*
%TD*%
M02*
