%TF.GenerationSoftware,KiCad,Pcbnew,10.0.1*%
%TF.CreationDate,2026-06-24T16:32:23+01:00*%
%TF.ProjectId,ESP32_IoT_Board_Design,45535033-325f-4496-9f54-5f426f617264,rev?*%
%TF.SameCoordinates,Original*%
%TF.FileFunction,Copper,L4,Bot*%
%TF.FilePolarity,Positive*%
%FSLAX46Y46*%
G04 Gerber Fmt 4.6, Leading zero omitted, Abs format (unit mm)*
G04 Created by KiCad (PCBNEW 10.0.1) date 2026-06-24 16:32:23*
%MOMM*%
%LPD*%
G01*
G04 APERTURE LIST*
%TA.AperFunction,HeatsinkPad*%
%ADD10C,0.600000*%
%TD*%
%TA.AperFunction,ComponentPad*%
%ADD11C,6.400000*%
%TD*%
%TA.AperFunction,ComponentPad*%
%ADD12C,0.600000*%
%TD*%
%TA.AperFunction,SMDPad,CuDef*%
%ADD13R,2.800000X2.800000*%
%TD*%
%TA.AperFunction,ComponentPad*%
%ADD14R,1.700000X1.700000*%
%TD*%
%TA.AperFunction,ComponentPad*%
%ADD15C,1.700000*%
%TD*%
%TA.AperFunction,ComponentPad*%
%ADD16O,1.000000X2.100000*%
%TD*%
%TA.AperFunction,ComponentPad*%
%ADD17O,1.000000X1.800000*%
%TD*%
%TA.AperFunction,ViaPad*%
%ADD18C,0.700000*%
%TD*%
%TA.AperFunction,ViaPad*%
%ADD19C,0.600000*%
%TD*%
%TA.AperFunction,Conductor*%
%ADD20C,0.200000*%
%TD*%
G04 APERTURE END LIST*
D10*
%TO.P,U1,39,GND_39*%
%TO.N,GND*%
X189025000Y-74695000D03*
X187500000Y-74695000D03*
X189787500Y-75457500D03*
X188262500Y-75457500D03*
X186737500Y-75457500D03*
X189025000Y-76220000D03*
X187500000Y-76220000D03*
X189787500Y-76982500D03*
X188262500Y-76982500D03*
X186737500Y-76982500D03*
X189025000Y-77745000D03*
X187500000Y-77745000D03*
%TD*%
D11*
%TO.P,REF\u002A\u002A,1*%
%TO.N,N/C*%
X214700000Y-48000000D03*
%TD*%
D12*
%TO.P,U4,21,GND_21*%
%TO.N,GND*%
X168100000Y-66300000D03*
X167650000Y-66750000D03*
X167650000Y-66300000D03*
D13*
X167650000Y-66300000D03*
D12*
X167650000Y-65850000D03*
X167200000Y-66300000D03*
%TD*%
D14*
%TO.P,J3,1,Pin_1_1*%
%TO.N,3V3*%
X165400000Y-99540000D03*
D15*
%TO.P,J3,2,Pin_2_2*%
%TO.N,GND*%
X165400000Y-97000000D03*
%TO.P,J3,3,Pin_3_3*%
%TO.N,MOSI*%
X165400000Y-94460000D03*
%TO.P,J3,4,Pin_4_4*%
%TO.N,MISO*%
X165400000Y-91920000D03*
%TO.P,J3,5,Pin_5_5*%
%TO.N,SCLK*%
X165400000Y-89380000D03*
%TO.P,J3,6,Pin_6_6*%
%TO.N,CS*%
X165400000Y-86840000D03*
%TD*%
D14*
%TO.P,J2,1,Pin_1_1*%
%TO.N,3V3*%
X176180000Y-99320000D03*
D15*
%TO.P,J2,2,Pin_2_2*%
%TO.N,GND*%
X176180000Y-96780000D03*
%TO.P,J2,3,Pin_3_3*%
%TO.N,SDA*%
X176180000Y-94240000D03*
%TO.P,J2,4,Pin_4_4*%
%TO.N,SCL*%
X176180000Y-91700000D03*
%TD*%
D11*
%TO.P,REF\u002A\u002A,1*%
%TO.N,N/C*%
X155400000Y-97800000D03*
%TD*%
D14*
%TO.P,J4,1,Pin_1_1*%
%TO.N,3V3*%
X171000000Y-99240000D03*
D15*
%TO.P,J4,2,Pin_2_2*%
%TO.N,GND*%
X171000000Y-96700000D03*
%TO.P,J4,3,Pin_3_3*%
%TO.N,TXD2*%
X171000000Y-94160000D03*
%TO.P,J4,4,Pin_4_4*%
%TO.N,RXD2*%
X171000000Y-91620000D03*
%TD*%
D11*
%TO.P,REF\u002A\u002A,1*%
%TO.N,N/C*%
X156700000Y-47900000D03*
%TD*%
D16*
%TO.P,J1,SH,SHIELD_SH*%
%TO.N,Net-(J1-SHIELD)*%
X182920000Y-49315000D03*
D17*
X182920000Y-45135000D03*
D16*
X174280000Y-49315000D03*
D17*
X174280000Y-45135000D03*
%TD*%
D18*
%TO.N,GND*%
X183857771Y-52215542D03*
X174850000Y-51500000D03*
X171200000Y-67200000D03*
X164700000Y-65550000D03*
X165650000Y-59050000D03*
X174365686Y-63265686D03*
X175750000Y-70950000D03*
X168900000Y-79250000D03*
X168100000Y-96600000D03*
X173600000Y-96900000D03*
X178600000Y-95400000D03*
X190950000Y-101050000D03*
X210650000Y-44400000D03*
X203550000Y-45450000D03*
X196150000Y-45650000D03*
X192700000Y-55750000D03*
X172150000Y-51600000D03*
X170300000Y-44100000D03*
X164450000Y-49150000D03*
D19*
%TO.N,IO0*%
X182450000Y-82900000D03*
X203950000Y-48150000D03*
%TO.N,EN*%
X190750000Y-69400002D03*
X176250000Y-77950000D03*
%TO.N,GPIO.02*%
X176400000Y-84350000D03*
X186150000Y-92100000D03*
%TO.N,RX0*%
X188959313Y-83607843D03*
X176250735Y-77100735D03*
%TO.N,TX0*%
X190400000Y-84200000D03*
X176250000Y-76300000D03*
%TO.N,USB_N*%
X171050000Y-65450000D03*
X173450000Y-67250000D03*
%TO.N,5V_USB*%
X170250000Y-71800000D03*
X170250000Y-64300000D03*
%TO.N,CS*%
X183250000Y-83650000D03*
X169250000Y-85500000D03*
%TO.N,SCLK*%
X184250000Y-87250000D03*
X176250000Y-86250000D03*
%TO.N,MISO*%
X184250000Y-84250000D03*
X178246804Y-86990255D03*
%TO.N,MOSI*%
X194000000Y-87000000D03*
X178496078Y-87750430D03*
%TO.N,RXD2*%
X181500000Y-87250000D03*
X178530686Y-88649314D03*
%TO.N,SCL*%
X184400000Y-90450000D03*
X182401471Y-90401471D03*
%TO.N,3V3*%
X192250000Y-91250000D03*
%TO.N,PG*%
X185000000Y-96750000D03*
X188750000Y-48000000D03*
%TO.N,/CC1*%
X192750000Y-46250000D03*
X186684314Y-47184314D03*
%TO.N,3V3*%
X161000000Y-63250000D03*
X166500000Y-53500000D03*
X172250000Y-76000000D03*
X180000000Y-91250000D03*
X159250000Y-61750000D03*
X169000000Y-76000000D03*
X183250000Y-91250000D03*
X193450000Y-66650000D03*
%TO.N,5V_USB*%
X165750000Y-51500000D03*
X177050000Y-56500000D03*
X175250000Y-57750000D03*
X167500000Y-59500000D03*
X180750000Y-55500000D03*
%TO.N,VBUS*%
X181250000Y-51500000D03*
X176250000Y-51250000D03*
X173000000Y-63500000D03*
X163000000Y-59000000D03*
X188750000Y-46250000D03*
X186750000Y-48250000D03*
%TD*%
%TO.N,USB_N*%
D20*
X172850000Y-67250000D02*
X171050000Y-65450000D01*
X173450000Y-67250000D02*
X172850000Y-67250000D01*
%TO.N,MISO*%
X180987059Y-84250000D02*
X184250000Y-84250000D01*
X178246804Y-86990255D02*
X180987059Y-84250000D01*
%TO.N,MOSI*%
X193848529Y-87151471D02*
X194000000Y-87000000D01*
%TO.N,RXD2*%
X178530686Y-88649314D02*
X180100686Y-88649314D01*
X180100686Y-88649314D02*
X181500000Y-87250000D01*
%TO.N,SCL*%
X184351471Y-90401471D02*
X184400000Y-90450000D01*
X182401471Y-90401471D02*
X184351471Y-90401471D01*
%TO.N,PG*%
X188750000Y-48000000D02*
X185000000Y-51750000D01*
X185000000Y-51750000D02*
X185000000Y-96750000D01*
%TO.N,/CC1*%
X191500000Y-46250000D02*
X192750000Y-46250000D01*
X190565686Y-47184314D02*
X191500000Y-46250000D01*
X186684314Y-47184314D02*
X190565686Y-47184314D01*
%TD*%
M02*
