%TF.GenerationSoftware,KiCad,Pcbnew,10.0.1*%
%TF.CreationDate,2026-06-30T15:13:06+01:00*%
%TF.ProjectId,ESP32_IoT_Board_Design,45535033-325f-4496-9f54-5f426f617264,rev?*%
%TF.SameCoordinates,Original*%
%TF.FileFunction,Legend,Bot*%
%TF.FilePolarity,Positive*%
%FSLAX46Y46*%
G04 Gerber Fmt 4.6, Leading zero omitted, Abs format (unit mm)*
G04 Created by KiCad (PCBNEW 10.0.1) date 2026-06-30 15:13:06*
%MOMM*%
%LPD*%
G01*
G04 APERTURE LIST*
%ADD10C,0.250000*%
%ADD11C,0.200000*%
G04 APERTURE END LIST*
D10*
X210421241Y-95144731D02*
X210897431Y-95144731D01*
X210897431Y-95144731D02*
X210897431Y-94144731D01*
X210135526Y-94859016D02*
X209659336Y-94859016D01*
X210230764Y-95144731D02*
X209897431Y-94144731D01*
X209897431Y-94144731D02*
X209564098Y-95144731D01*
X208659336Y-95144731D02*
X208992669Y-94668540D01*
X209230764Y-95144731D02*
X209230764Y-94144731D01*
X209230764Y-94144731D02*
X208849812Y-94144731D01*
X208849812Y-94144731D02*
X208754574Y-94192350D01*
X208754574Y-94192350D02*
X208706955Y-94239969D01*
X208706955Y-94239969D02*
X208659336Y-94335207D01*
X208659336Y-94335207D02*
X208659336Y-94478064D01*
X208659336Y-94478064D02*
X208706955Y-94573302D01*
X208706955Y-94573302D02*
X208754574Y-94620921D01*
X208754574Y-94620921D02*
X208849812Y-94668540D01*
X208849812Y-94668540D02*
X209230764Y-94668540D01*
X207897431Y-94620921D02*
X207754574Y-94668540D01*
X207754574Y-94668540D02*
X207706955Y-94716159D01*
X207706955Y-94716159D02*
X207659336Y-94811397D01*
X207659336Y-94811397D02*
X207659336Y-94954254D01*
X207659336Y-94954254D02*
X207706955Y-95049492D01*
X207706955Y-95049492D02*
X207754574Y-95097112D01*
X207754574Y-95097112D02*
X207849812Y-95144731D01*
X207849812Y-95144731D02*
X208230764Y-95144731D01*
X208230764Y-95144731D02*
X208230764Y-94144731D01*
X208230764Y-94144731D02*
X207897431Y-94144731D01*
X207897431Y-94144731D02*
X207802193Y-94192350D01*
X207802193Y-94192350D02*
X207754574Y-94239969D01*
X207754574Y-94239969D02*
X207706955Y-94335207D01*
X207706955Y-94335207D02*
X207706955Y-94430445D01*
X207706955Y-94430445D02*
X207754574Y-94525683D01*
X207754574Y-94525683D02*
X207802193Y-94573302D01*
X207802193Y-94573302D02*
X207897431Y-94620921D01*
X207897431Y-94620921D02*
X208230764Y-94620921D01*
X207230764Y-95144731D02*
X207230764Y-94144731D01*
X210897431Y-96754675D02*
X210897431Y-95754675D01*
X210897431Y-95754675D02*
X210564098Y-96468960D01*
X210564098Y-96468960D02*
X210230765Y-95754675D01*
X210230765Y-95754675D02*
X210230765Y-96754675D01*
X209564098Y-95754675D02*
X209373622Y-95754675D01*
X209373622Y-95754675D02*
X209278384Y-95802294D01*
X209278384Y-95802294D02*
X209183146Y-95897532D01*
X209183146Y-95897532D02*
X209135527Y-96088008D01*
X209135527Y-96088008D02*
X209135527Y-96421341D01*
X209135527Y-96421341D02*
X209183146Y-96611817D01*
X209183146Y-96611817D02*
X209278384Y-96707056D01*
X209278384Y-96707056D02*
X209373622Y-96754675D01*
X209373622Y-96754675D02*
X209564098Y-96754675D01*
X209564098Y-96754675D02*
X209659336Y-96707056D01*
X209659336Y-96707056D02*
X209754574Y-96611817D01*
X209754574Y-96611817D02*
X209802193Y-96421341D01*
X209802193Y-96421341D02*
X209802193Y-96088008D01*
X209802193Y-96088008D02*
X209754574Y-95897532D01*
X209754574Y-95897532D02*
X209659336Y-95802294D01*
X209659336Y-95802294D02*
X209564098Y-95754675D01*
X208706955Y-96754675D02*
X208706955Y-95754675D01*
X208706955Y-96230865D02*
X208135527Y-96230865D01*
X208135527Y-96754675D02*
X208135527Y-95754675D01*
X207706955Y-96468960D02*
X207230765Y-96468960D01*
X207802193Y-96754675D02*
X207468860Y-95754675D01*
X207468860Y-95754675D02*
X207135527Y-96754675D01*
X206802193Y-96754675D02*
X206802193Y-95754675D01*
X206802193Y-95754675D02*
X206468860Y-96468960D01*
X206468860Y-96468960D02*
X206135527Y-95754675D01*
X206135527Y-95754675D02*
X206135527Y-96754675D01*
X205659336Y-96230865D02*
X205326003Y-96230865D01*
X205183146Y-96754675D02*
X205659336Y-96754675D01*
X205659336Y-96754675D02*
X205659336Y-95754675D01*
X205659336Y-95754675D02*
X205183146Y-95754675D01*
X204754574Y-96754675D02*
X204754574Y-95754675D01*
X204754574Y-95754675D02*
X204516479Y-95754675D01*
X204516479Y-95754675D02*
X204373622Y-95802294D01*
X204373622Y-95802294D02*
X204278384Y-95897532D01*
X204278384Y-95897532D02*
X204230765Y-95992770D01*
X204230765Y-95992770D02*
X204183146Y-96183246D01*
X204183146Y-96183246D02*
X204183146Y-96326103D01*
X204183146Y-96326103D02*
X204230765Y-96516579D01*
X204230765Y-96516579D02*
X204278384Y-96611817D01*
X204278384Y-96611817D02*
X204373622Y-96707056D01*
X204373622Y-96707056D02*
X204516479Y-96754675D01*
X204516479Y-96754675D02*
X204754574Y-96754675D01*
X210326003Y-98364619D02*
X210659336Y-97888428D01*
X210897431Y-98364619D02*
X210897431Y-97364619D01*
X210897431Y-97364619D02*
X210516479Y-97364619D01*
X210516479Y-97364619D02*
X210421241Y-97412238D01*
X210421241Y-97412238D02*
X210373622Y-97459857D01*
X210373622Y-97459857D02*
X210326003Y-97555095D01*
X210326003Y-97555095D02*
X210326003Y-97697952D01*
X210326003Y-97697952D02*
X210373622Y-97793190D01*
X210373622Y-97793190D02*
X210421241Y-97840809D01*
X210421241Y-97840809D02*
X210516479Y-97888428D01*
X210516479Y-97888428D02*
X210897431Y-97888428D01*
X209897431Y-97840809D02*
X209564098Y-97840809D01*
X209421241Y-98364619D02*
X209897431Y-98364619D01*
X209897431Y-98364619D02*
X209897431Y-97364619D01*
X209897431Y-97364619D02*
X209421241Y-97364619D01*
X208992669Y-98364619D02*
X208992669Y-97364619D01*
X208992669Y-97364619D02*
X208754574Y-97364619D01*
X208754574Y-97364619D02*
X208611717Y-97412238D01*
X208611717Y-97412238D02*
X208516479Y-97507476D01*
X208516479Y-97507476D02*
X208468860Y-97602714D01*
X208468860Y-97602714D02*
X208421241Y-97793190D01*
X208421241Y-97793190D02*
X208421241Y-97936047D01*
X208421241Y-97936047D02*
X208468860Y-98126523D01*
X208468860Y-98126523D02*
X208516479Y-98221761D01*
X208516479Y-98221761D02*
X208611717Y-98317000D01*
X208611717Y-98317000D02*
X208754574Y-98364619D01*
X208754574Y-98364619D02*
X208992669Y-98364619D01*
X207992669Y-98364619D02*
X207992669Y-97364619D01*
X207992669Y-97840809D02*
X207421241Y-97840809D01*
X207421241Y-98364619D02*
X207421241Y-97364619D01*
X206992669Y-98078904D02*
X206516479Y-98078904D01*
X207087907Y-98364619D02*
X206754574Y-97364619D01*
X206754574Y-97364619D02*
X206421241Y-98364619D01*
X210637907Y-91134023D02*
X210637907Y-89884023D01*
X210637907Y-89884023D02*
X210221241Y-90776880D01*
X210221241Y-90776880D02*
X209804574Y-89884023D01*
X209804574Y-89884023D02*
X209804574Y-91134023D01*
X208673622Y-91134023D02*
X208673622Y-90479261D01*
X208673622Y-90479261D02*
X208733146Y-90360214D01*
X208733146Y-90360214D02*
X208852194Y-90300690D01*
X208852194Y-90300690D02*
X209090289Y-90300690D01*
X209090289Y-90300690D02*
X209209336Y-90360214D01*
X208673622Y-91074500D02*
X208792670Y-91134023D01*
X208792670Y-91134023D02*
X209090289Y-91134023D01*
X209090289Y-91134023D02*
X209209336Y-91074500D01*
X209209336Y-91074500D02*
X209268860Y-90955452D01*
X209268860Y-90955452D02*
X209268860Y-90836404D01*
X209268860Y-90836404D02*
X209209336Y-90717357D01*
X209209336Y-90717357D02*
X209090289Y-90657833D01*
X209090289Y-90657833D02*
X208792670Y-90657833D01*
X208792670Y-90657833D02*
X208673622Y-90598309D01*
X207542670Y-91134023D02*
X207542670Y-89884023D01*
X207542670Y-91074500D02*
X207661718Y-91134023D01*
X207661718Y-91134023D02*
X207899813Y-91134023D01*
X207899813Y-91134023D02*
X208018861Y-91074500D01*
X208018861Y-91074500D02*
X208078384Y-91014976D01*
X208078384Y-91014976D02*
X208137908Y-90895928D01*
X208137908Y-90895928D02*
X208137908Y-90538785D01*
X208137908Y-90538785D02*
X208078384Y-90419738D01*
X208078384Y-90419738D02*
X208018861Y-90360214D01*
X208018861Y-90360214D02*
X207899813Y-90300690D01*
X207899813Y-90300690D02*
X207661718Y-90300690D01*
X207661718Y-90300690D02*
X207542670Y-90360214D01*
X206471242Y-91074500D02*
X206590290Y-91134023D01*
X206590290Y-91134023D02*
X206828385Y-91134023D01*
X206828385Y-91134023D02*
X206947432Y-91074500D01*
X206947432Y-91074500D02*
X207006956Y-90955452D01*
X207006956Y-90955452D02*
X207006956Y-90479261D01*
X207006956Y-90479261D02*
X206947432Y-90360214D01*
X206947432Y-90360214D02*
X206828385Y-90300690D01*
X206828385Y-90300690D02*
X206590290Y-90300690D01*
X206590290Y-90300690D02*
X206471242Y-90360214D01*
X206471242Y-90360214D02*
X206411718Y-90479261D01*
X206411718Y-90479261D02*
X206411718Y-90598309D01*
X206411718Y-90598309D02*
X207006956Y-90717357D01*
X204923622Y-91134023D02*
X204923622Y-89884023D01*
X204923622Y-90360214D02*
X204804575Y-90300690D01*
X204804575Y-90300690D02*
X204566480Y-90300690D01*
X204566480Y-90300690D02*
X204447432Y-90360214D01*
X204447432Y-90360214D02*
X204387908Y-90419738D01*
X204387908Y-90419738D02*
X204328384Y-90538785D01*
X204328384Y-90538785D02*
X204328384Y-90895928D01*
X204328384Y-90895928D02*
X204387908Y-91014976D01*
X204387908Y-91014976D02*
X204447432Y-91074500D01*
X204447432Y-91074500D02*
X204566480Y-91134023D01*
X204566480Y-91134023D02*
X204804575Y-91134023D01*
X204804575Y-91134023D02*
X204923622Y-91074500D01*
X203911718Y-90300690D02*
X203614099Y-91134023D01*
X203316480Y-90300690D02*
X203614099Y-91134023D01*
X203614099Y-91134023D02*
X203733147Y-91431642D01*
X203733147Y-91431642D02*
X203792670Y-91491166D01*
X203792670Y-91491166D02*
X203911718Y-91550690D01*
X202840289Y-91014976D02*
X202780766Y-91074500D01*
X202780766Y-91074500D02*
X202840289Y-91134023D01*
X202840289Y-91134023D02*
X202899813Y-91074500D01*
X202899813Y-91074500D02*
X202840289Y-91014976D01*
X202840289Y-91014976D02*
X202840289Y-91134023D01*
X202840289Y-90360214D02*
X202780766Y-90419738D01*
X202780766Y-90419738D02*
X202840289Y-90479261D01*
X202840289Y-90479261D02*
X202899813Y-90419738D01*
X202899813Y-90419738D02*
X202840289Y-90360214D01*
X202840289Y-90360214D02*
X202840289Y-90479261D01*
D11*
X210692231Y-63497219D02*
X210025564Y-63497219D01*
X209739850Y-64544838D02*
X210692231Y-64544838D01*
X210692231Y-64544838D02*
X210692231Y-62544838D01*
X210692231Y-62544838D02*
X209739850Y-62544838D01*
X208977945Y-64449600D02*
X208692231Y-64544838D01*
X208692231Y-64544838D02*
X208216040Y-64544838D01*
X208216040Y-64544838D02*
X208025564Y-64449600D01*
X208025564Y-64449600D02*
X207930326Y-64354361D01*
X207930326Y-64354361D02*
X207835088Y-64163885D01*
X207835088Y-64163885D02*
X207835088Y-63973409D01*
X207835088Y-63973409D02*
X207930326Y-63782933D01*
X207930326Y-63782933D02*
X208025564Y-63687695D01*
X208025564Y-63687695D02*
X208216040Y-63592457D01*
X208216040Y-63592457D02*
X208596993Y-63497219D01*
X208596993Y-63497219D02*
X208787469Y-63401980D01*
X208787469Y-63401980D02*
X208882707Y-63306742D01*
X208882707Y-63306742D02*
X208977945Y-63116266D01*
X208977945Y-63116266D02*
X208977945Y-62925790D01*
X208977945Y-62925790D02*
X208882707Y-62735314D01*
X208882707Y-62735314D02*
X208787469Y-62640076D01*
X208787469Y-62640076D02*
X208596993Y-62544838D01*
X208596993Y-62544838D02*
X208120802Y-62544838D01*
X208120802Y-62544838D02*
X207835088Y-62640076D01*
X206977945Y-64544838D02*
X206977945Y-62544838D01*
X206977945Y-62544838D02*
X206216040Y-62544838D01*
X206216040Y-62544838D02*
X206025564Y-62640076D01*
X206025564Y-62640076D02*
X205930326Y-62735314D01*
X205930326Y-62735314D02*
X205835088Y-62925790D01*
X205835088Y-62925790D02*
X205835088Y-63211504D01*
X205835088Y-63211504D02*
X205930326Y-63401980D01*
X205930326Y-63401980D02*
X206025564Y-63497219D01*
X206025564Y-63497219D02*
X206216040Y-63592457D01*
X206216040Y-63592457D02*
X206977945Y-63592457D01*
X205168421Y-62544838D02*
X203930326Y-62544838D01*
X203930326Y-62544838D02*
X204596993Y-63306742D01*
X204596993Y-63306742D02*
X204311278Y-63306742D01*
X204311278Y-63306742D02*
X204120802Y-63401980D01*
X204120802Y-63401980D02*
X204025564Y-63497219D01*
X204025564Y-63497219D02*
X203930326Y-63687695D01*
X203930326Y-63687695D02*
X203930326Y-64163885D01*
X203930326Y-64163885D02*
X204025564Y-64354361D01*
X204025564Y-64354361D02*
X204120802Y-64449600D01*
X204120802Y-64449600D02*
X204311278Y-64544838D01*
X204311278Y-64544838D02*
X204882707Y-64544838D01*
X204882707Y-64544838D02*
X205073183Y-64449600D01*
X205073183Y-64449600D02*
X205168421Y-64354361D01*
X203168421Y-62735314D02*
X203073183Y-62640076D01*
X203073183Y-62640076D02*
X202882707Y-62544838D01*
X202882707Y-62544838D02*
X202406516Y-62544838D01*
X202406516Y-62544838D02*
X202216040Y-62640076D01*
X202216040Y-62640076D02*
X202120802Y-62735314D01*
X202120802Y-62735314D02*
X202025564Y-62925790D01*
X202025564Y-62925790D02*
X202025564Y-63116266D01*
X202025564Y-63116266D02*
X202120802Y-63401980D01*
X202120802Y-63401980D02*
X203263659Y-64544838D01*
X203263659Y-64544838D02*
X202025564Y-64544838D01*
X199644611Y-64544838D02*
X199644611Y-62544838D01*
X198311278Y-62544838D02*
X197930325Y-62544838D01*
X197930325Y-62544838D02*
X197739849Y-62640076D01*
X197739849Y-62640076D02*
X197549373Y-62830552D01*
X197549373Y-62830552D02*
X197454135Y-63211504D01*
X197454135Y-63211504D02*
X197454135Y-63878171D01*
X197454135Y-63878171D02*
X197549373Y-64259123D01*
X197549373Y-64259123D02*
X197739849Y-64449600D01*
X197739849Y-64449600D02*
X197930325Y-64544838D01*
X197930325Y-64544838D02*
X198311278Y-64544838D01*
X198311278Y-64544838D02*
X198501754Y-64449600D01*
X198501754Y-64449600D02*
X198692230Y-64259123D01*
X198692230Y-64259123D02*
X198787468Y-63878171D01*
X198787468Y-63878171D02*
X198787468Y-63211504D01*
X198787468Y-63211504D02*
X198692230Y-62830552D01*
X198692230Y-62830552D02*
X198501754Y-62640076D01*
X198501754Y-62640076D02*
X198311278Y-62544838D01*
X196882706Y-62544838D02*
X195739849Y-62544838D01*
X196311278Y-64544838D02*
X196311278Y-62544838D01*
X192882705Y-63497219D02*
X192596991Y-63592457D01*
X192596991Y-63592457D02*
X192501753Y-63687695D01*
X192501753Y-63687695D02*
X192406515Y-63878171D01*
X192406515Y-63878171D02*
X192406515Y-64163885D01*
X192406515Y-64163885D02*
X192501753Y-64354361D01*
X192501753Y-64354361D02*
X192596991Y-64449600D01*
X192596991Y-64449600D02*
X192787467Y-64544838D01*
X192787467Y-64544838D02*
X193549372Y-64544838D01*
X193549372Y-64544838D02*
X193549372Y-62544838D01*
X193549372Y-62544838D02*
X192882705Y-62544838D01*
X192882705Y-62544838D02*
X192692229Y-62640076D01*
X192692229Y-62640076D02*
X192596991Y-62735314D01*
X192596991Y-62735314D02*
X192501753Y-62925790D01*
X192501753Y-62925790D02*
X192501753Y-63116266D01*
X192501753Y-63116266D02*
X192596991Y-63306742D01*
X192596991Y-63306742D02*
X192692229Y-63401980D01*
X192692229Y-63401980D02*
X192882705Y-63497219D01*
X192882705Y-63497219D02*
X193549372Y-63497219D01*
X191168420Y-62544838D02*
X190787467Y-62544838D01*
X190787467Y-62544838D02*
X190596991Y-62640076D01*
X190596991Y-62640076D02*
X190406515Y-62830552D01*
X190406515Y-62830552D02*
X190311277Y-63211504D01*
X190311277Y-63211504D02*
X190311277Y-63878171D01*
X190311277Y-63878171D02*
X190406515Y-64259123D01*
X190406515Y-64259123D02*
X190596991Y-64449600D01*
X190596991Y-64449600D02*
X190787467Y-64544838D01*
X190787467Y-64544838D02*
X191168420Y-64544838D01*
X191168420Y-64544838D02*
X191358896Y-64449600D01*
X191358896Y-64449600D02*
X191549372Y-64259123D01*
X191549372Y-64259123D02*
X191644610Y-63878171D01*
X191644610Y-63878171D02*
X191644610Y-63211504D01*
X191644610Y-63211504D02*
X191549372Y-62830552D01*
X191549372Y-62830552D02*
X191358896Y-62640076D01*
X191358896Y-62640076D02*
X191168420Y-62544838D01*
X189549372Y-63973409D02*
X188596991Y-63973409D01*
X189739848Y-64544838D02*
X189073182Y-62544838D01*
X189073182Y-62544838D02*
X188406515Y-64544838D01*
X186596991Y-64544838D02*
X187263658Y-63592457D01*
X187739848Y-64544838D02*
X187739848Y-62544838D01*
X187739848Y-62544838D02*
X186977943Y-62544838D01*
X186977943Y-62544838D02*
X186787467Y-62640076D01*
X186787467Y-62640076D02*
X186692229Y-62735314D01*
X186692229Y-62735314D02*
X186596991Y-62925790D01*
X186596991Y-62925790D02*
X186596991Y-63211504D01*
X186596991Y-63211504D02*
X186692229Y-63401980D01*
X186692229Y-63401980D02*
X186787467Y-63497219D01*
X186787467Y-63497219D02*
X186977943Y-63592457D01*
X186977943Y-63592457D02*
X187739848Y-63592457D01*
X185739848Y-64544838D02*
X185739848Y-62544838D01*
X185739848Y-62544838D02*
X185263658Y-62544838D01*
X185263658Y-62544838D02*
X184977943Y-62640076D01*
X184977943Y-62640076D02*
X184787467Y-62830552D01*
X184787467Y-62830552D02*
X184692229Y-63021028D01*
X184692229Y-63021028D02*
X184596991Y-63401980D01*
X184596991Y-63401980D02*
X184596991Y-63687695D01*
X184596991Y-63687695D02*
X184692229Y-64068647D01*
X184692229Y-64068647D02*
X184787467Y-64259123D01*
X184787467Y-64259123D02*
X184977943Y-64449600D01*
X184977943Y-64449600D02*
X185263658Y-64544838D01*
X185263658Y-64544838D02*
X185739848Y-64544838D01*
M02*
