%TF.GenerationSoftware,KiCad,Pcbnew,10.0.1*%
%TF.CreationDate,2026-06-30T15:13:06+01:00*%
%TF.ProjectId,ESP32_IoT_Board_Design,45535033-325f-4496-9f54-5f426f617264,rev?*%
%TF.SameCoordinates,Original*%
%TF.FileFunction,Soldermask,Bot*%
%TF.FilePolarity,Negative*%
%FSLAX46Y46*%
G04 Gerber Fmt 4.6, Leading zero omitted, Abs format (unit mm)*
G04 Created by KiCad (PCBNEW 10.0.1) date 2026-06-30 15:13:06*
%MOMM*%
%LPD*%
G01*
G04 APERTURE LIST*
G04 APERTURE END LIST*
G36*
X181368370Y-95305034D02*
G01*
X181379425Y-95305034D01*
X181456175Y-95313681D01*
X181669524Y-95334694D01*
X181704619Y-95341675D01*
X181736020Y-95345213D01*
X181828343Y-95366285D01*
X181977518Y-95395958D01*
X182035777Y-95413630D01*
X182085874Y-95425065D01*
X182166667Y-95453335D01*
X182278030Y-95487117D01*
X182358676Y-95520521D01*
X182424587Y-95543585D01*
X182487506Y-95573885D01*
X182568149Y-95607289D01*
X182670770Y-95662141D01*
X182747900Y-95699285D01*
X182791411Y-95726624D01*
X182845098Y-95755321D01*
X182971546Y-95839811D01*
X183051748Y-95890205D01*
X183076459Y-95909911D01*
X183106199Y-95929783D01*
X183271882Y-96065756D01*
X183332309Y-96113945D01*
X183340129Y-96121765D01*
X183348952Y-96129006D01*
X183570993Y-96351047D01*
X183578233Y-96359869D01*
X183586055Y-96367691D01*
X183634249Y-96428124D01*
X183770216Y-96593800D01*
X183790086Y-96623538D01*
X183809795Y-96648252D01*
X183860193Y-96728461D01*
X183944678Y-96854901D01*
X183973371Y-96908583D01*
X184000715Y-96952100D01*
X184037862Y-97029237D01*
X184092710Y-97131850D01*
X184126110Y-97212484D01*
X184156415Y-97275413D01*
X184179481Y-97341332D01*
X184212882Y-97421969D01*
X184246659Y-97533317D01*
X184274935Y-97614126D01*
X184286371Y-97664231D01*
X184304041Y-97722481D01*
X184333708Y-97871629D01*
X184354787Y-97963980D01*
X184358326Y-97995389D01*
X184365305Y-98030475D01*
X184386315Y-98243803D01*
X184394966Y-98320575D01*
X184394966Y-98331630D01*
X184396084Y-98342982D01*
X184396084Y-98657017D01*
X184394966Y-98668368D01*
X184394966Y-98679425D01*
X184386315Y-98756203D01*
X184365305Y-98969524D01*
X184358326Y-99004608D01*
X184354787Y-99036020D01*
X184333707Y-99128377D01*
X184304041Y-99277518D01*
X184286372Y-99335764D01*
X184274935Y-99385874D01*
X184246656Y-99466688D01*
X184212882Y-99578030D01*
X184179483Y-99658660D01*
X184156415Y-99724587D01*
X184126107Y-99787521D01*
X184092710Y-99868149D01*
X184037867Y-99970751D01*
X184000715Y-100047900D01*
X183973368Y-100091422D01*
X183944678Y-100145098D01*
X183860204Y-100271521D01*
X183809795Y-100351748D01*
X183790082Y-100376466D01*
X183770216Y-100406199D01*
X183634277Y-100571839D01*
X183586055Y-100632309D01*
X183578228Y-100640135D01*
X183570993Y-100648952D01*
X183348952Y-100870993D01*
X183340135Y-100878228D01*
X183332309Y-100886055D01*
X183271839Y-100934277D01*
X183106199Y-101070216D01*
X183076466Y-101090082D01*
X183051748Y-101109795D01*
X182971521Y-101160204D01*
X182845098Y-101244678D01*
X182791422Y-101273368D01*
X182747900Y-101300715D01*
X182670751Y-101337867D01*
X182568149Y-101392710D01*
X182487521Y-101426107D01*
X182424587Y-101456415D01*
X182358660Y-101479483D01*
X182278030Y-101512882D01*
X182166688Y-101546656D01*
X182085874Y-101574935D01*
X182035764Y-101586372D01*
X181977518Y-101604041D01*
X181828377Y-101633707D01*
X181736020Y-101654787D01*
X181704608Y-101658326D01*
X181669524Y-101665305D01*
X181456198Y-101686315D01*
X181379425Y-101694966D01*
X181368369Y-101694966D01*
X181357018Y-101696084D01*
X181042982Y-101696084D01*
X181031631Y-101694966D01*
X181020575Y-101694966D01*
X180943803Y-101686315D01*
X180730475Y-101665305D01*
X180695389Y-101658326D01*
X180663980Y-101654787D01*
X180571629Y-101633708D01*
X180422481Y-101604041D01*
X180364231Y-101586371D01*
X180314126Y-101574935D01*
X180233317Y-101546659D01*
X180121969Y-101512882D01*
X180041332Y-101479481D01*
X179975413Y-101456415D01*
X179912484Y-101426110D01*
X179831850Y-101392710D01*
X179729237Y-101337862D01*
X179652100Y-101300715D01*
X179608583Y-101273371D01*
X179554901Y-101244678D01*
X179428461Y-101160193D01*
X179348252Y-101109795D01*
X179323538Y-101090086D01*
X179293800Y-101070216D01*
X179128124Y-100934249D01*
X179067691Y-100886055D01*
X179059869Y-100878233D01*
X179051047Y-100870993D01*
X178829006Y-100648952D01*
X178821765Y-100640129D01*
X178813945Y-100632309D01*
X178765756Y-100571882D01*
X178629783Y-100406199D01*
X178609911Y-100376459D01*
X178590205Y-100351748D01*
X178539811Y-100271546D01*
X178455321Y-100145098D01*
X178426624Y-100091411D01*
X178399285Y-100047900D01*
X178362141Y-99970770D01*
X178307289Y-99868149D01*
X178273885Y-99787506D01*
X178243585Y-99724587D01*
X178220521Y-99658676D01*
X178187117Y-99578030D01*
X178153335Y-99466667D01*
X178125065Y-99385874D01*
X178113630Y-99335777D01*
X178095958Y-99277518D01*
X178066285Y-99128343D01*
X178045213Y-99036020D01*
X178041675Y-99004619D01*
X178034694Y-98969524D01*
X178013682Y-98756180D01*
X178005034Y-98679425D01*
X178005034Y-98668368D01*
X178003916Y-98657017D01*
X178003916Y-98342982D01*
X178005034Y-98331630D01*
X178005034Y-98320575D01*
X178013681Y-98243826D01*
X178034694Y-98030475D01*
X178041675Y-97995377D01*
X178045213Y-97963980D01*
X178066283Y-97871663D01*
X178095958Y-97722481D01*
X178113631Y-97664218D01*
X178125065Y-97614126D01*
X178153333Y-97533339D01*
X178187117Y-97421969D01*
X178220524Y-97341317D01*
X178243585Y-97275413D01*
X178273882Y-97212499D01*
X178307289Y-97131850D01*
X178362146Y-97029219D01*
X178399285Y-96952100D01*
X178426621Y-96908594D01*
X178455321Y-96854901D01*
X178539821Y-96728436D01*
X178590205Y-96648252D01*
X178609907Y-96623546D01*
X178629783Y-96593800D01*
X178765784Y-96428081D01*
X178813945Y-96367691D01*
X178821761Y-96359874D01*
X178829006Y-96351047D01*
X179051047Y-96129006D01*
X179059874Y-96121761D01*
X179067691Y-96113945D01*
X179128081Y-96065784D01*
X179293800Y-95929783D01*
X179323546Y-95909907D01*
X179348252Y-95890205D01*
X179428436Y-95839821D01*
X179554901Y-95755321D01*
X179608594Y-95726621D01*
X179652100Y-95699285D01*
X179729219Y-95662146D01*
X179831850Y-95607289D01*
X179912499Y-95573882D01*
X179975413Y-95543585D01*
X180041317Y-95520524D01*
X180121969Y-95487117D01*
X180233339Y-95453333D01*
X180314126Y-95425065D01*
X180364218Y-95413631D01*
X180422481Y-95395958D01*
X180571663Y-95366283D01*
X180663980Y-95345213D01*
X180695377Y-95341675D01*
X180730475Y-95334694D01*
X180943826Y-95313681D01*
X181020575Y-95305034D01*
X181031630Y-95305034D01*
X181042982Y-95303916D01*
X181357018Y-95303916D01*
X181368370Y-95305034D01*
G37*
G36*
X190100000Y-100280000D02*
G01*
X188400000Y-100280000D01*
X188400000Y-98580000D01*
X190100000Y-98580000D01*
X190100000Y-100280000D01*
G37*
G36*
X200880000Y-100060000D02*
G01*
X199180000Y-100060000D01*
X199180000Y-98360000D01*
X200880000Y-98360000D01*
X200880000Y-100060000D01*
G37*
G36*
X195700000Y-99980000D02*
G01*
X194000000Y-99980000D01*
X194000000Y-98280000D01*
X195700000Y-98280000D01*
X195700000Y-99980000D01*
G37*
G36*
X189496742Y-96076601D02*
G01*
X189650687Y-96140367D01*
X189789234Y-96232941D01*
X189907059Y-96350766D01*
X189999633Y-96489313D01*
X190063399Y-96643258D01*
X190095907Y-96806685D01*
X190095907Y-96973315D01*
X190063399Y-97136742D01*
X189999633Y-97290687D01*
X189907059Y-97429234D01*
X189789234Y-97547059D01*
X189650687Y-97639633D01*
X189496742Y-97703399D01*
X189333315Y-97735907D01*
X189166685Y-97735907D01*
X189003258Y-97703399D01*
X188849313Y-97639633D01*
X188710766Y-97547059D01*
X188592941Y-97429234D01*
X188500367Y-97290687D01*
X188436601Y-97136742D01*
X188404093Y-96973315D01*
X188404093Y-96806685D01*
X188436601Y-96643258D01*
X188500367Y-96489313D01*
X188592941Y-96350766D01*
X188710766Y-96232941D01*
X188849313Y-96140367D01*
X189003258Y-96076601D01*
X189166685Y-96044093D01*
X189333315Y-96044093D01*
X189496742Y-96076601D01*
G37*
G36*
X200276742Y-95856601D02*
G01*
X200430687Y-95920367D01*
X200569234Y-96012941D01*
X200687059Y-96130766D01*
X200779633Y-96269313D01*
X200843399Y-96423258D01*
X200875907Y-96586685D01*
X200875907Y-96753315D01*
X200843399Y-96916742D01*
X200779633Y-97070687D01*
X200687059Y-97209234D01*
X200569234Y-97327059D01*
X200430687Y-97419633D01*
X200276742Y-97483399D01*
X200113315Y-97515907D01*
X199946685Y-97515907D01*
X199783258Y-97483399D01*
X199629313Y-97419633D01*
X199490766Y-97327059D01*
X199372941Y-97209234D01*
X199280367Y-97070687D01*
X199216601Y-96916742D01*
X199184093Y-96753315D01*
X199184093Y-96586685D01*
X199216601Y-96423258D01*
X199280367Y-96269313D01*
X199372941Y-96130766D01*
X199490766Y-96012941D01*
X199629313Y-95920367D01*
X199783258Y-95856601D01*
X199946685Y-95824093D01*
X200113315Y-95824093D01*
X200276742Y-95856601D01*
G37*
G36*
X195096742Y-95776601D02*
G01*
X195250687Y-95840367D01*
X195389234Y-95932941D01*
X195507059Y-96050766D01*
X195599633Y-96189313D01*
X195663399Y-96343258D01*
X195695907Y-96506685D01*
X195695907Y-96673315D01*
X195663399Y-96836742D01*
X195599633Y-96990687D01*
X195507059Y-97129234D01*
X195389234Y-97247059D01*
X195250687Y-97339633D01*
X195096742Y-97403399D01*
X194933315Y-97435907D01*
X194766685Y-97435907D01*
X194603258Y-97403399D01*
X194449313Y-97339633D01*
X194310766Y-97247059D01*
X194192941Y-97129234D01*
X194100367Y-96990687D01*
X194036601Y-96836742D01*
X194004093Y-96673315D01*
X194004093Y-96506685D01*
X194036601Y-96343258D01*
X194100367Y-96189313D01*
X194192941Y-96050766D01*
X194310766Y-95932941D01*
X194449313Y-95840367D01*
X194603258Y-95776601D01*
X194766685Y-95744093D01*
X194933315Y-95744093D01*
X195096742Y-95776601D01*
G37*
G36*
X189496742Y-93536601D02*
G01*
X189650687Y-93600367D01*
X189789234Y-93692941D01*
X189907059Y-93810766D01*
X189999633Y-93949313D01*
X190063399Y-94103258D01*
X190095907Y-94266685D01*
X190095907Y-94433315D01*
X190063399Y-94596742D01*
X189999633Y-94750687D01*
X189907059Y-94889234D01*
X189789234Y-95007059D01*
X189650687Y-95099633D01*
X189496742Y-95163399D01*
X189333315Y-95195907D01*
X189166685Y-95195907D01*
X189003258Y-95163399D01*
X188849313Y-95099633D01*
X188710766Y-95007059D01*
X188592941Y-94889234D01*
X188500367Y-94750687D01*
X188436601Y-94596742D01*
X188404093Y-94433315D01*
X188404093Y-94266685D01*
X188436601Y-94103258D01*
X188500367Y-93949313D01*
X188592941Y-93810766D01*
X188710766Y-93692941D01*
X188849313Y-93600367D01*
X189003258Y-93536601D01*
X189166685Y-93504093D01*
X189333315Y-93504093D01*
X189496742Y-93536601D01*
G37*
G36*
X200276742Y-93316601D02*
G01*
X200430687Y-93380367D01*
X200569234Y-93472941D01*
X200687059Y-93590766D01*
X200779633Y-93729313D01*
X200843399Y-93883258D01*
X200875907Y-94046685D01*
X200875907Y-94213315D01*
X200843399Y-94376742D01*
X200779633Y-94530687D01*
X200687059Y-94669234D01*
X200569234Y-94787059D01*
X200430687Y-94879633D01*
X200276742Y-94943399D01*
X200113315Y-94975907D01*
X199946685Y-94975907D01*
X199783258Y-94943399D01*
X199629313Y-94879633D01*
X199490766Y-94787059D01*
X199372941Y-94669234D01*
X199280367Y-94530687D01*
X199216601Y-94376742D01*
X199184093Y-94213315D01*
X199184093Y-94046685D01*
X199216601Y-93883258D01*
X199280367Y-93729313D01*
X199372941Y-93590766D01*
X199490766Y-93472941D01*
X199629313Y-93380367D01*
X199783258Y-93316601D01*
X199946685Y-93284093D01*
X200113315Y-93284093D01*
X200276742Y-93316601D01*
G37*
G36*
X195096742Y-93236601D02*
G01*
X195250687Y-93300367D01*
X195389234Y-93392941D01*
X195507059Y-93510766D01*
X195599633Y-93649313D01*
X195663399Y-93803258D01*
X195695907Y-93966685D01*
X195695907Y-94133315D01*
X195663399Y-94296742D01*
X195599633Y-94450687D01*
X195507059Y-94589234D01*
X195389234Y-94707059D01*
X195250687Y-94799633D01*
X195096742Y-94863399D01*
X194933315Y-94895907D01*
X194766685Y-94895907D01*
X194603258Y-94863399D01*
X194449313Y-94799633D01*
X194310766Y-94707059D01*
X194192941Y-94589234D01*
X194100367Y-94450687D01*
X194036601Y-94296742D01*
X194004093Y-94133315D01*
X194004093Y-93966685D01*
X194036601Y-93803258D01*
X194100367Y-93649313D01*
X194192941Y-93510766D01*
X194310766Y-93392941D01*
X194449313Y-93300367D01*
X194603258Y-93236601D01*
X194766685Y-93204093D01*
X194933315Y-93204093D01*
X195096742Y-93236601D01*
G37*
G36*
X189496742Y-90996601D02*
G01*
X189650687Y-91060367D01*
X189789234Y-91152941D01*
X189907059Y-91270766D01*
X189999633Y-91409313D01*
X190063399Y-91563258D01*
X190095907Y-91726685D01*
X190095907Y-91893315D01*
X190063399Y-92056742D01*
X189999633Y-92210687D01*
X189907059Y-92349234D01*
X189789234Y-92467059D01*
X189650687Y-92559633D01*
X189496742Y-92623399D01*
X189333315Y-92655907D01*
X189166685Y-92655907D01*
X189003258Y-92623399D01*
X188849313Y-92559633D01*
X188710766Y-92467059D01*
X188592941Y-92349234D01*
X188500367Y-92210687D01*
X188436601Y-92056742D01*
X188404093Y-91893315D01*
X188404093Y-91726685D01*
X188436601Y-91563258D01*
X188500367Y-91409313D01*
X188592941Y-91270766D01*
X188710766Y-91152941D01*
X188849313Y-91060367D01*
X189003258Y-90996601D01*
X189166685Y-90964093D01*
X189333315Y-90964093D01*
X189496742Y-90996601D01*
G37*
G36*
X200276742Y-90776601D02*
G01*
X200430687Y-90840367D01*
X200569234Y-90932941D01*
X200687059Y-91050766D01*
X200779633Y-91189313D01*
X200843399Y-91343258D01*
X200875907Y-91506685D01*
X200875907Y-91673315D01*
X200843399Y-91836742D01*
X200779633Y-91990687D01*
X200687059Y-92129234D01*
X200569234Y-92247059D01*
X200430687Y-92339633D01*
X200276742Y-92403399D01*
X200113315Y-92435907D01*
X199946685Y-92435907D01*
X199783258Y-92403399D01*
X199629313Y-92339633D01*
X199490766Y-92247059D01*
X199372941Y-92129234D01*
X199280367Y-91990687D01*
X199216601Y-91836742D01*
X199184093Y-91673315D01*
X199184093Y-91506685D01*
X199216601Y-91343258D01*
X199280367Y-91189313D01*
X199372941Y-91050766D01*
X199490766Y-90932941D01*
X199629313Y-90840367D01*
X199783258Y-90776601D01*
X199946685Y-90744093D01*
X200113315Y-90744093D01*
X200276742Y-90776601D01*
G37*
G36*
X195096742Y-90696601D02*
G01*
X195250687Y-90760367D01*
X195389234Y-90852941D01*
X195507059Y-90970766D01*
X195599633Y-91109313D01*
X195663399Y-91263258D01*
X195695907Y-91426685D01*
X195695907Y-91593315D01*
X195663399Y-91756742D01*
X195599633Y-91910687D01*
X195507059Y-92049234D01*
X195389234Y-92167059D01*
X195250687Y-92259633D01*
X195096742Y-92323399D01*
X194933315Y-92355907D01*
X194766685Y-92355907D01*
X194603258Y-92323399D01*
X194449313Y-92259633D01*
X194310766Y-92167059D01*
X194192941Y-92049234D01*
X194100367Y-91910687D01*
X194036601Y-91756742D01*
X194004093Y-91593315D01*
X194004093Y-91426685D01*
X194036601Y-91263258D01*
X194100367Y-91109313D01*
X194192941Y-90970766D01*
X194310766Y-90852941D01*
X194449313Y-90760367D01*
X194603258Y-90696601D01*
X194766685Y-90664093D01*
X194933315Y-90664093D01*
X195096742Y-90696601D01*
G37*
G36*
X189496742Y-88456601D02*
G01*
X189650687Y-88520367D01*
X189789234Y-88612941D01*
X189907059Y-88730766D01*
X189999633Y-88869313D01*
X190063399Y-89023258D01*
X190095907Y-89186685D01*
X190095907Y-89353315D01*
X190063399Y-89516742D01*
X189999633Y-89670687D01*
X189907059Y-89809234D01*
X189789234Y-89927059D01*
X189650687Y-90019633D01*
X189496742Y-90083399D01*
X189333315Y-90115907D01*
X189166685Y-90115907D01*
X189003258Y-90083399D01*
X188849313Y-90019633D01*
X188710766Y-89927059D01*
X188592941Y-89809234D01*
X188500367Y-89670687D01*
X188436601Y-89516742D01*
X188404093Y-89353315D01*
X188404093Y-89186685D01*
X188436601Y-89023258D01*
X188500367Y-88869313D01*
X188592941Y-88730766D01*
X188710766Y-88612941D01*
X188849313Y-88520367D01*
X189003258Y-88456601D01*
X189166685Y-88424093D01*
X189333315Y-88424093D01*
X189496742Y-88456601D01*
G37*
G36*
X189496742Y-85916601D02*
G01*
X189650687Y-85980367D01*
X189789234Y-86072941D01*
X189907059Y-86190766D01*
X189999633Y-86329313D01*
X190063399Y-86483258D01*
X190095907Y-86646685D01*
X190095907Y-86813315D01*
X190063399Y-86976742D01*
X189999633Y-87130687D01*
X189907059Y-87269234D01*
X189789234Y-87387059D01*
X189650687Y-87479633D01*
X189496742Y-87543399D01*
X189333315Y-87575907D01*
X189166685Y-87575907D01*
X189003258Y-87543399D01*
X188849313Y-87479633D01*
X188710766Y-87387059D01*
X188592941Y-87269234D01*
X188500367Y-87130687D01*
X188436601Y-86976742D01*
X188404093Y-86813315D01*
X188404093Y-86646685D01*
X188436601Y-86483258D01*
X188500367Y-86329313D01*
X188592941Y-86190766D01*
X188710766Y-86072941D01*
X188849313Y-85980367D01*
X189003258Y-85916601D01*
X189166685Y-85884093D01*
X189333315Y-85884093D01*
X189496742Y-85916601D01*
G37*
G36*
X187271342Y-48343060D02*
G01*
X187384381Y-48408323D01*
X187476677Y-48500619D01*
X187541940Y-48613658D01*
X187575722Y-48739737D01*
X187580000Y-48805000D01*
X187580000Y-49905000D01*
X187575722Y-49970263D01*
X187541940Y-50096342D01*
X187476677Y-50209381D01*
X187384381Y-50301677D01*
X187271342Y-50366940D01*
X187145263Y-50400722D01*
X187014737Y-50400722D01*
X186888658Y-50366940D01*
X186775619Y-50301677D01*
X186683323Y-50209381D01*
X186618060Y-50096342D01*
X186584278Y-49970263D01*
X186580000Y-49905000D01*
X186580000Y-48805000D01*
X186584278Y-48739737D01*
X186618060Y-48613658D01*
X186683323Y-48500619D01*
X186775619Y-48408323D01*
X186888658Y-48343060D01*
X187014737Y-48309278D01*
X187145263Y-48309278D01*
X187271342Y-48343060D01*
G37*
G36*
X195911342Y-48343060D02*
G01*
X196024381Y-48408323D01*
X196116677Y-48500619D01*
X196181940Y-48613658D01*
X196215722Y-48739737D01*
X196220000Y-48805000D01*
X196220000Y-49905000D01*
X196215722Y-49970263D01*
X196181940Y-50096342D01*
X196116677Y-50209381D01*
X196024381Y-50301677D01*
X195911342Y-50366940D01*
X195785263Y-50400722D01*
X195654737Y-50400722D01*
X195528658Y-50366940D01*
X195415619Y-50301677D01*
X195323323Y-50209381D01*
X195258060Y-50096342D01*
X195224278Y-49970263D01*
X195220000Y-49905000D01*
X195220000Y-48805000D01*
X195224278Y-48739737D01*
X195258060Y-48613658D01*
X195323323Y-48500619D01*
X195415619Y-48408323D01*
X195528658Y-48343060D01*
X195654737Y-48309278D01*
X195785263Y-48309278D01*
X195911342Y-48343060D01*
G37*
G36*
X214968370Y-43805034D02*
G01*
X214979425Y-43805034D01*
X215056175Y-43813681D01*
X215269524Y-43834694D01*
X215304619Y-43841675D01*
X215336020Y-43845213D01*
X215428343Y-43866285D01*
X215577518Y-43895958D01*
X215635777Y-43913630D01*
X215685874Y-43925065D01*
X215766667Y-43953335D01*
X215878030Y-43987117D01*
X215958676Y-44020521D01*
X216024587Y-44043585D01*
X216087506Y-44073885D01*
X216168149Y-44107289D01*
X216270770Y-44162141D01*
X216347900Y-44199285D01*
X216391411Y-44226624D01*
X216445098Y-44255321D01*
X216571546Y-44339811D01*
X216651748Y-44390205D01*
X216676459Y-44409911D01*
X216706199Y-44429783D01*
X216871882Y-44565756D01*
X216932309Y-44613945D01*
X216940129Y-44621765D01*
X216948952Y-44629006D01*
X217170993Y-44851047D01*
X217178233Y-44859869D01*
X217186055Y-44867691D01*
X217234249Y-44928124D01*
X217370216Y-45093800D01*
X217390086Y-45123538D01*
X217409795Y-45148252D01*
X217460193Y-45228461D01*
X217544678Y-45354901D01*
X217573371Y-45408583D01*
X217600715Y-45452100D01*
X217637862Y-45529237D01*
X217692710Y-45631850D01*
X217726110Y-45712484D01*
X217756415Y-45775413D01*
X217779481Y-45841332D01*
X217812882Y-45921969D01*
X217846659Y-46033317D01*
X217874935Y-46114126D01*
X217886371Y-46164231D01*
X217904041Y-46222481D01*
X217933708Y-46371629D01*
X217954787Y-46463980D01*
X217958326Y-46495389D01*
X217965305Y-46530475D01*
X217986315Y-46743803D01*
X217994966Y-46820575D01*
X217994966Y-46831630D01*
X217996084Y-46842982D01*
X217996084Y-47157017D01*
X217994966Y-47168368D01*
X217994966Y-47179425D01*
X217986315Y-47256203D01*
X217965305Y-47469524D01*
X217958326Y-47504608D01*
X217954787Y-47536020D01*
X217933707Y-47628377D01*
X217904041Y-47777518D01*
X217886372Y-47835764D01*
X217874935Y-47885874D01*
X217846656Y-47966688D01*
X217812882Y-48078030D01*
X217779483Y-48158660D01*
X217756415Y-48224587D01*
X217726107Y-48287521D01*
X217692710Y-48368149D01*
X217637867Y-48470751D01*
X217600715Y-48547900D01*
X217573368Y-48591422D01*
X217544678Y-48645098D01*
X217460204Y-48771521D01*
X217409795Y-48851748D01*
X217390082Y-48876466D01*
X217370216Y-48906199D01*
X217234277Y-49071839D01*
X217186055Y-49132309D01*
X217178228Y-49140135D01*
X217170993Y-49148952D01*
X216948952Y-49370993D01*
X216940135Y-49378228D01*
X216932309Y-49386055D01*
X216871839Y-49434277D01*
X216706199Y-49570216D01*
X216676466Y-49590082D01*
X216651748Y-49609795D01*
X216571521Y-49660204D01*
X216445098Y-49744678D01*
X216391422Y-49773368D01*
X216347900Y-49800715D01*
X216270751Y-49837867D01*
X216168149Y-49892710D01*
X216087521Y-49926107D01*
X216024587Y-49956415D01*
X215958660Y-49979483D01*
X215878030Y-50012882D01*
X215766688Y-50046656D01*
X215685874Y-50074935D01*
X215635764Y-50086372D01*
X215577518Y-50104041D01*
X215428377Y-50133707D01*
X215336020Y-50154787D01*
X215304608Y-50158326D01*
X215269524Y-50165305D01*
X215056198Y-50186315D01*
X214979425Y-50194966D01*
X214968369Y-50194966D01*
X214957018Y-50196084D01*
X214642982Y-50196084D01*
X214631631Y-50194966D01*
X214620575Y-50194966D01*
X214543803Y-50186315D01*
X214330475Y-50165305D01*
X214295389Y-50158326D01*
X214263980Y-50154787D01*
X214171629Y-50133708D01*
X214022481Y-50104041D01*
X213964231Y-50086371D01*
X213914126Y-50074935D01*
X213833317Y-50046659D01*
X213721969Y-50012882D01*
X213641332Y-49979481D01*
X213575413Y-49956415D01*
X213512484Y-49926110D01*
X213431850Y-49892710D01*
X213329237Y-49837862D01*
X213252100Y-49800715D01*
X213208583Y-49773371D01*
X213154901Y-49744678D01*
X213028461Y-49660193D01*
X212948252Y-49609795D01*
X212923538Y-49590086D01*
X212893800Y-49570216D01*
X212728124Y-49434249D01*
X212667691Y-49386055D01*
X212659869Y-49378233D01*
X212651047Y-49370993D01*
X212429006Y-49148952D01*
X212421765Y-49140129D01*
X212413945Y-49132309D01*
X212365756Y-49071882D01*
X212229783Y-48906199D01*
X212209911Y-48876459D01*
X212190205Y-48851748D01*
X212139811Y-48771546D01*
X212055321Y-48645098D01*
X212026624Y-48591411D01*
X211999285Y-48547900D01*
X211962141Y-48470770D01*
X211907289Y-48368149D01*
X211873885Y-48287506D01*
X211843585Y-48224587D01*
X211820521Y-48158676D01*
X211787117Y-48078030D01*
X211753335Y-47966667D01*
X211725065Y-47885874D01*
X211713630Y-47835777D01*
X211695958Y-47777518D01*
X211666285Y-47628343D01*
X211645213Y-47536020D01*
X211641675Y-47504619D01*
X211634694Y-47469524D01*
X211613682Y-47256180D01*
X211605034Y-47179425D01*
X211605034Y-47168368D01*
X211603916Y-47157017D01*
X211603916Y-46842982D01*
X211605034Y-46831630D01*
X211605034Y-46820575D01*
X211613681Y-46743826D01*
X211634694Y-46530475D01*
X211641675Y-46495377D01*
X211645213Y-46463980D01*
X211666283Y-46371663D01*
X211695958Y-46222481D01*
X211713631Y-46164218D01*
X211725065Y-46114126D01*
X211753333Y-46033339D01*
X211787117Y-45921969D01*
X211820524Y-45841317D01*
X211843585Y-45775413D01*
X211873882Y-45712499D01*
X211907289Y-45631850D01*
X211962146Y-45529219D01*
X211999285Y-45452100D01*
X212026621Y-45408594D01*
X212055321Y-45354901D01*
X212139821Y-45228436D01*
X212190205Y-45148252D01*
X212209907Y-45123546D01*
X212229783Y-45093800D01*
X212365784Y-44928081D01*
X212413945Y-44867691D01*
X212421761Y-44859874D01*
X212429006Y-44851047D01*
X212651047Y-44629006D01*
X212659874Y-44621761D01*
X212667691Y-44613945D01*
X212728081Y-44565784D01*
X212893800Y-44429783D01*
X212923546Y-44409907D01*
X212948252Y-44390205D01*
X213028436Y-44339821D01*
X213154901Y-44255321D01*
X213208594Y-44226621D01*
X213252100Y-44199285D01*
X213329219Y-44162146D01*
X213431850Y-44107289D01*
X213512499Y-44073882D01*
X213575413Y-44043585D01*
X213641317Y-44020524D01*
X213721969Y-43987117D01*
X213833339Y-43953333D01*
X213914126Y-43925065D01*
X213964218Y-43913631D01*
X214022481Y-43895958D01*
X214171663Y-43866283D01*
X214263980Y-43845213D01*
X214295377Y-43841675D01*
X214330475Y-43834694D01*
X214543826Y-43813681D01*
X214620575Y-43805034D01*
X214631630Y-43805034D01*
X214642982Y-43803916D01*
X214957018Y-43803916D01*
X214968370Y-43805034D01*
G37*
G36*
X180118370Y-43255034D02*
G01*
X180129425Y-43255034D01*
X180206175Y-43263681D01*
X180419524Y-43284694D01*
X180454619Y-43291675D01*
X180486020Y-43295213D01*
X180578343Y-43316285D01*
X180727518Y-43345958D01*
X180785777Y-43363630D01*
X180835874Y-43375065D01*
X180916667Y-43403335D01*
X181028030Y-43437117D01*
X181108676Y-43470521D01*
X181174587Y-43493585D01*
X181237506Y-43523885D01*
X181318149Y-43557289D01*
X181420770Y-43612141D01*
X181497900Y-43649285D01*
X181541411Y-43676624D01*
X181595098Y-43705321D01*
X181721546Y-43789811D01*
X181801748Y-43840205D01*
X181826459Y-43859911D01*
X181856199Y-43879783D01*
X182021882Y-44015756D01*
X182082309Y-44063945D01*
X182090129Y-44071765D01*
X182098952Y-44079006D01*
X182320993Y-44301047D01*
X182328233Y-44309869D01*
X182336055Y-44317691D01*
X182384249Y-44378124D01*
X182520216Y-44543800D01*
X182540086Y-44573538D01*
X182559795Y-44598252D01*
X182610193Y-44678461D01*
X182694678Y-44804901D01*
X182723371Y-44858583D01*
X182750715Y-44902100D01*
X182787862Y-44979237D01*
X182842710Y-45081850D01*
X182876110Y-45162484D01*
X182906415Y-45225413D01*
X182929481Y-45291332D01*
X182962882Y-45371969D01*
X182996659Y-45483317D01*
X183024935Y-45564126D01*
X183036371Y-45614231D01*
X183054041Y-45672481D01*
X183083708Y-45821629D01*
X183104787Y-45913980D01*
X183108326Y-45945389D01*
X183115305Y-45980475D01*
X183136315Y-46193803D01*
X183144966Y-46270575D01*
X183144966Y-46281630D01*
X183146084Y-46292982D01*
X183146084Y-46607017D01*
X183144966Y-46618368D01*
X183144966Y-46629425D01*
X183136315Y-46706203D01*
X183115305Y-46919524D01*
X183108326Y-46954608D01*
X183104787Y-46986020D01*
X183083707Y-47078377D01*
X183054041Y-47227518D01*
X183036372Y-47285764D01*
X183024935Y-47335874D01*
X182996656Y-47416688D01*
X182962882Y-47528030D01*
X182929483Y-47608660D01*
X182906415Y-47674587D01*
X182876107Y-47737521D01*
X182842710Y-47818149D01*
X182787867Y-47920751D01*
X182750715Y-47997900D01*
X182723368Y-48041422D01*
X182694678Y-48095098D01*
X182610204Y-48221521D01*
X182559795Y-48301748D01*
X182540082Y-48326466D01*
X182520216Y-48356199D01*
X182384277Y-48521839D01*
X182336055Y-48582309D01*
X182328228Y-48590135D01*
X182320993Y-48598952D01*
X182098952Y-48820993D01*
X182090135Y-48828228D01*
X182082309Y-48836055D01*
X182021839Y-48884277D01*
X181856199Y-49020216D01*
X181826466Y-49040082D01*
X181801748Y-49059795D01*
X181721521Y-49110204D01*
X181595098Y-49194678D01*
X181541422Y-49223368D01*
X181497900Y-49250715D01*
X181420751Y-49287867D01*
X181318149Y-49342710D01*
X181237521Y-49376107D01*
X181174587Y-49406415D01*
X181108660Y-49429483D01*
X181028030Y-49462882D01*
X180916688Y-49496656D01*
X180835874Y-49524935D01*
X180785764Y-49536372D01*
X180727518Y-49554041D01*
X180578377Y-49583707D01*
X180486020Y-49604787D01*
X180454608Y-49608326D01*
X180419524Y-49615305D01*
X180206198Y-49636315D01*
X180129425Y-49644966D01*
X180118369Y-49644966D01*
X180107018Y-49646084D01*
X179792982Y-49646084D01*
X179781631Y-49644966D01*
X179770575Y-49644966D01*
X179693803Y-49636315D01*
X179480475Y-49615305D01*
X179445389Y-49608326D01*
X179413980Y-49604787D01*
X179321629Y-49583708D01*
X179172481Y-49554041D01*
X179114231Y-49536371D01*
X179064126Y-49524935D01*
X178983317Y-49496659D01*
X178871969Y-49462882D01*
X178791332Y-49429481D01*
X178725413Y-49406415D01*
X178662484Y-49376110D01*
X178581850Y-49342710D01*
X178479237Y-49287862D01*
X178402100Y-49250715D01*
X178358583Y-49223371D01*
X178304901Y-49194678D01*
X178178461Y-49110193D01*
X178098252Y-49059795D01*
X178073538Y-49040086D01*
X178043800Y-49020216D01*
X177878124Y-48884249D01*
X177817691Y-48836055D01*
X177809869Y-48828233D01*
X177801047Y-48820993D01*
X177579006Y-48598952D01*
X177571765Y-48590129D01*
X177563945Y-48582309D01*
X177515756Y-48521882D01*
X177379783Y-48356199D01*
X177359911Y-48326459D01*
X177340205Y-48301748D01*
X177289811Y-48221546D01*
X177205321Y-48095098D01*
X177176624Y-48041411D01*
X177149285Y-47997900D01*
X177112141Y-47920770D01*
X177057289Y-47818149D01*
X177023885Y-47737506D01*
X176993585Y-47674587D01*
X176970521Y-47608676D01*
X176937117Y-47528030D01*
X176903335Y-47416667D01*
X176875065Y-47335874D01*
X176863630Y-47285777D01*
X176845958Y-47227518D01*
X176816285Y-47078343D01*
X176795213Y-46986020D01*
X176791675Y-46954619D01*
X176784694Y-46919524D01*
X176763682Y-46706180D01*
X176755034Y-46629425D01*
X176755034Y-46618368D01*
X176753916Y-46607017D01*
X176753916Y-46292982D01*
X176755034Y-46281630D01*
X176755034Y-46270575D01*
X176763681Y-46193826D01*
X176784694Y-45980475D01*
X176791675Y-45945377D01*
X176795213Y-45913980D01*
X176816283Y-45821663D01*
X176845958Y-45672481D01*
X176863631Y-45614218D01*
X176875065Y-45564126D01*
X176903333Y-45483339D01*
X176937117Y-45371969D01*
X176970524Y-45291317D01*
X176993585Y-45225413D01*
X177023882Y-45162499D01*
X177057289Y-45081850D01*
X177112146Y-44979219D01*
X177149285Y-44902100D01*
X177176621Y-44858594D01*
X177205321Y-44804901D01*
X177289821Y-44678436D01*
X177340205Y-44598252D01*
X177359907Y-44573546D01*
X177379783Y-44543800D01*
X177515784Y-44378081D01*
X177563945Y-44317691D01*
X177571761Y-44309874D01*
X177579006Y-44301047D01*
X177801047Y-44079006D01*
X177809874Y-44071761D01*
X177817691Y-44063945D01*
X177878081Y-44015784D01*
X178043800Y-43879783D01*
X178073546Y-43859907D01*
X178098252Y-43840205D01*
X178178436Y-43789821D01*
X178304901Y-43705321D01*
X178358594Y-43676621D01*
X178402100Y-43649285D01*
X178479219Y-43612146D01*
X178581850Y-43557289D01*
X178662499Y-43523882D01*
X178725413Y-43493585D01*
X178791317Y-43470524D01*
X178871969Y-43437117D01*
X178983339Y-43403333D01*
X179064126Y-43375065D01*
X179114218Y-43363631D01*
X179172481Y-43345958D01*
X179321663Y-43316283D01*
X179413980Y-43295213D01*
X179445377Y-43291675D01*
X179480475Y-43284694D01*
X179693826Y-43263681D01*
X179770575Y-43255034D01*
X179781630Y-43255034D01*
X179792982Y-43253916D01*
X180107018Y-43253916D01*
X180118370Y-43255034D01*
G37*
G36*
X188634372Y-48554739D02*
G01*
X188707847Y-48597160D01*
X188767840Y-48657153D01*
X188810261Y-48730628D01*
X188832220Y-48812579D01*
X188832220Y-48897421D01*
X188810261Y-48979372D01*
X188767840Y-49052847D01*
X188707847Y-49112840D01*
X188634372Y-49155261D01*
X188552421Y-49177220D01*
X188467579Y-49177220D01*
X188385628Y-49155261D01*
X188312153Y-49112840D01*
X188252160Y-49052847D01*
X188209739Y-48979372D01*
X188187780Y-48897421D01*
X188187780Y-48812579D01*
X188209739Y-48730628D01*
X188252160Y-48657153D01*
X188312153Y-48597160D01*
X188385628Y-48554739D01*
X188467579Y-48532780D01*
X188552421Y-48532780D01*
X188634372Y-48554739D01*
G37*
G36*
X194414372Y-48554739D02*
G01*
X194487847Y-48597160D01*
X194547840Y-48657153D01*
X194590261Y-48730628D01*
X194612220Y-48812579D01*
X194612220Y-48897421D01*
X194590261Y-48979372D01*
X194547840Y-49052847D01*
X194487847Y-49112840D01*
X194414372Y-49155261D01*
X194332421Y-49177220D01*
X194247579Y-49177220D01*
X194165628Y-49155261D01*
X194092153Y-49112840D01*
X194032160Y-49052847D01*
X193989739Y-48979372D01*
X193967780Y-48897421D01*
X193967780Y-48812579D01*
X193989739Y-48730628D01*
X194032160Y-48657153D01*
X194092153Y-48597160D01*
X194165628Y-48554739D01*
X194247579Y-48532780D01*
X194332421Y-48532780D01*
X194414372Y-48554739D01*
G37*
G36*
X187271342Y-44313060D02*
G01*
X187384381Y-44378323D01*
X187476677Y-44470619D01*
X187541940Y-44583658D01*
X187575722Y-44709737D01*
X187580000Y-44775000D01*
X187580000Y-45575000D01*
X187575722Y-45640263D01*
X187541940Y-45766342D01*
X187476677Y-45879381D01*
X187384381Y-45971677D01*
X187271342Y-46036940D01*
X187145263Y-46070722D01*
X187014737Y-46070722D01*
X186888658Y-46036940D01*
X186775619Y-45971677D01*
X186683323Y-45879381D01*
X186618060Y-45766342D01*
X186584278Y-45640263D01*
X186580000Y-45575000D01*
X186580000Y-44775000D01*
X186584278Y-44709737D01*
X186618060Y-44583658D01*
X186683323Y-44470619D01*
X186775619Y-44378323D01*
X186888658Y-44313060D01*
X187014737Y-44279278D01*
X187145263Y-44279278D01*
X187271342Y-44313060D01*
G37*
G36*
X195911342Y-44313060D02*
G01*
X196024381Y-44378323D01*
X196116677Y-44470619D01*
X196181940Y-44583658D01*
X196215722Y-44709737D01*
X196220000Y-44775000D01*
X196220000Y-45575000D01*
X196215722Y-45640263D01*
X196181940Y-45766342D01*
X196116677Y-45879381D01*
X196024381Y-45971677D01*
X195911342Y-46036940D01*
X195785263Y-46070722D01*
X195654737Y-46070722D01*
X195528658Y-46036940D01*
X195415619Y-45971677D01*
X195323323Y-45879381D01*
X195258060Y-45766342D01*
X195224278Y-45640263D01*
X195220000Y-45575000D01*
X195220000Y-44775000D01*
X195224278Y-44709737D01*
X195258060Y-44583658D01*
X195323323Y-44470619D01*
X195415619Y-44378323D01*
X195528658Y-44313060D01*
X195654737Y-44279278D01*
X195785263Y-44279278D01*
X195911342Y-44313060D01*
G37*
M02*
