%TF.GenerationSoftware,KiCad,Pcbnew,10.0.1*%
%TF.CreationDate,2026-06-24T16:32:23+01:00*%
%TF.ProjectId,ESP32_IoT_Board_Design,45535033-325f-4496-9f54-5f426f617264,rev?*%
%TF.SameCoordinates,Original*%
%TF.FileFunction,Soldermask,Bot*%
%TF.FilePolarity,Negative*%
%FSLAX46Y46*%
G04 Gerber Fmt 4.6, Leading zero omitted, Abs format (unit mm)*
G04 Created by KiCad (PCBNEW 10.0.1) date 2026-06-24 16:32:23*
%MOMM*%
%LPD*%
G01*
G04 APERTURE LIST*
G04 APERTURE END LIST*
G36*
X155568370Y-94605034D02*
G01*
X155579425Y-94605034D01*
X155656175Y-94613681D01*
X155869524Y-94634694D01*
X155904619Y-94641675D01*
X155936020Y-94645213D01*
X156028343Y-94666285D01*
X156177518Y-94695958D01*
X156235777Y-94713630D01*
X156285874Y-94725065D01*
X156366667Y-94753335D01*
X156478030Y-94787117D01*
X156558676Y-94820521D01*
X156624587Y-94843585D01*
X156687506Y-94873885D01*
X156768149Y-94907289D01*
X156870770Y-94962141D01*
X156947900Y-94999285D01*
X156991411Y-95026624D01*
X157045098Y-95055321D01*
X157171546Y-95139811D01*
X157251748Y-95190205D01*
X157276459Y-95209911D01*
X157306199Y-95229783D01*
X157471882Y-95365756D01*
X157532309Y-95413945D01*
X157540129Y-95421765D01*
X157548952Y-95429006D01*
X157770993Y-95651047D01*
X157778233Y-95659869D01*
X157786055Y-95667691D01*
X157834249Y-95728124D01*
X157970216Y-95893800D01*
X157990086Y-95923538D01*
X158009795Y-95948252D01*
X158060193Y-96028461D01*
X158144678Y-96154901D01*
X158173371Y-96208583D01*
X158200715Y-96252100D01*
X158237862Y-96329237D01*
X158292710Y-96431850D01*
X158326110Y-96512484D01*
X158356415Y-96575413D01*
X158379481Y-96641332D01*
X158412882Y-96721969D01*
X158446659Y-96833317D01*
X158474935Y-96914126D01*
X158486371Y-96964231D01*
X158504041Y-97022481D01*
X158533708Y-97171629D01*
X158554787Y-97263980D01*
X158558326Y-97295389D01*
X158565305Y-97330475D01*
X158586315Y-97543803D01*
X158594966Y-97620575D01*
X158594966Y-97631630D01*
X158596084Y-97642982D01*
X158596084Y-97957017D01*
X158594966Y-97968368D01*
X158594966Y-97979425D01*
X158586315Y-98056203D01*
X158565305Y-98269524D01*
X158558326Y-98304608D01*
X158554787Y-98336020D01*
X158533707Y-98428377D01*
X158504041Y-98577518D01*
X158486372Y-98635764D01*
X158474935Y-98685874D01*
X158446656Y-98766688D01*
X158412882Y-98878030D01*
X158379483Y-98958660D01*
X158356415Y-99024587D01*
X158326107Y-99087521D01*
X158292710Y-99168149D01*
X158237867Y-99270751D01*
X158200715Y-99347900D01*
X158173368Y-99391422D01*
X158144678Y-99445098D01*
X158060204Y-99571521D01*
X158009795Y-99651748D01*
X157990082Y-99676466D01*
X157970216Y-99706199D01*
X157834277Y-99871839D01*
X157786055Y-99932309D01*
X157778228Y-99940135D01*
X157770993Y-99948952D01*
X157548952Y-100170993D01*
X157540135Y-100178228D01*
X157532309Y-100186055D01*
X157471839Y-100234277D01*
X157306199Y-100370216D01*
X157276466Y-100390082D01*
X157251748Y-100409795D01*
X157171521Y-100460204D01*
X157045098Y-100544678D01*
X156991422Y-100573368D01*
X156947900Y-100600715D01*
X156870751Y-100637867D01*
X156768149Y-100692710D01*
X156687521Y-100726107D01*
X156624587Y-100756415D01*
X156558660Y-100779483D01*
X156478030Y-100812882D01*
X156366688Y-100846656D01*
X156285874Y-100874935D01*
X156235764Y-100886372D01*
X156177518Y-100904041D01*
X156028377Y-100933707D01*
X155936020Y-100954787D01*
X155904608Y-100958326D01*
X155869524Y-100965305D01*
X155656198Y-100986315D01*
X155579425Y-100994966D01*
X155568369Y-100994966D01*
X155557018Y-100996084D01*
X155242982Y-100996084D01*
X155231631Y-100994966D01*
X155220575Y-100994966D01*
X155143803Y-100986315D01*
X154930475Y-100965305D01*
X154895389Y-100958326D01*
X154863980Y-100954787D01*
X154771629Y-100933708D01*
X154622481Y-100904041D01*
X154564231Y-100886371D01*
X154514126Y-100874935D01*
X154433317Y-100846659D01*
X154321969Y-100812882D01*
X154241332Y-100779481D01*
X154175413Y-100756415D01*
X154112484Y-100726110D01*
X154031850Y-100692710D01*
X153929237Y-100637862D01*
X153852100Y-100600715D01*
X153808583Y-100573371D01*
X153754901Y-100544678D01*
X153628461Y-100460193D01*
X153548252Y-100409795D01*
X153523538Y-100390086D01*
X153493800Y-100370216D01*
X153328124Y-100234249D01*
X153267691Y-100186055D01*
X153259869Y-100178233D01*
X153251047Y-100170993D01*
X153029006Y-99948952D01*
X153021765Y-99940129D01*
X153013945Y-99932309D01*
X152965756Y-99871882D01*
X152829783Y-99706199D01*
X152809911Y-99676459D01*
X152790205Y-99651748D01*
X152739811Y-99571546D01*
X152655321Y-99445098D01*
X152626624Y-99391411D01*
X152599285Y-99347900D01*
X152562141Y-99270770D01*
X152507289Y-99168149D01*
X152473885Y-99087506D01*
X152443585Y-99024587D01*
X152420521Y-98958676D01*
X152387117Y-98878030D01*
X152353335Y-98766667D01*
X152325065Y-98685874D01*
X152313630Y-98635777D01*
X152295958Y-98577518D01*
X152266285Y-98428343D01*
X152245213Y-98336020D01*
X152241675Y-98304619D01*
X152234694Y-98269524D01*
X152213682Y-98056180D01*
X152205034Y-97979425D01*
X152205034Y-97968368D01*
X152203916Y-97957017D01*
X152203916Y-97642982D01*
X152205034Y-97631630D01*
X152205034Y-97620575D01*
X152213681Y-97543826D01*
X152234694Y-97330475D01*
X152241675Y-97295377D01*
X152245213Y-97263980D01*
X152266283Y-97171663D01*
X152295958Y-97022481D01*
X152313631Y-96964218D01*
X152325065Y-96914126D01*
X152353333Y-96833339D01*
X152387117Y-96721969D01*
X152420524Y-96641317D01*
X152443585Y-96575413D01*
X152473882Y-96512499D01*
X152507289Y-96431850D01*
X152562146Y-96329219D01*
X152599285Y-96252100D01*
X152626621Y-96208594D01*
X152655321Y-96154901D01*
X152739821Y-96028436D01*
X152790205Y-95948252D01*
X152809907Y-95923546D01*
X152829783Y-95893800D01*
X152965784Y-95728081D01*
X153013945Y-95667691D01*
X153021761Y-95659874D01*
X153029006Y-95651047D01*
X153251047Y-95429006D01*
X153259874Y-95421761D01*
X153267691Y-95413945D01*
X153328081Y-95365784D01*
X153493800Y-95229783D01*
X153523546Y-95209907D01*
X153548252Y-95190205D01*
X153628436Y-95139821D01*
X153754901Y-95055321D01*
X153808594Y-95026621D01*
X153852100Y-94999285D01*
X153929219Y-94962146D01*
X154031850Y-94907289D01*
X154112499Y-94873882D01*
X154175413Y-94843585D01*
X154241317Y-94820524D01*
X154321969Y-94787117D01*
X154433339Y-94753333D01*
X154514126Y-94725065D01*
X154564218Y-94713631D01*
X154622481Y-94695958D01*
X154771663Y-94666283D01*
X154863980Y-94645213D01*
X154895377Y-94641675D01*
X154930475Y-94634694D01*
X155143826Y-94613681D01*
X155220575Y-94605034D01*
X155231630Y-94605034D01*
X155242982Y-94603916D01*
X155557018Y-94603916D01*
X155568370Y-94605034D01*
G37*
G36*
X166250000Y-100390000D02*
G01*
X164550000Y-100390000D01*
X164550000Y-98690000D01*
X166250000Y-98690000D01*
X166250000Y-100390000D01*
G37*
G36*
X177030000Y-100170000D02*
G01*
X175330000Y-100170000D01*
X175330000Y-98470000D01*
X177030000Y-98470000D01*
X177030000Y-100170000D01*
G37*
G36*
X171850000Y-100090000D02*
G01*
X170150000Y-100090000D01*
X170150000Y-98390000D01*
X171850000Y-98390000D01*
X171850000Y-100090000D01*
G37*
G36*
X165646742Y-96186601D02*
G01*
X165800687Y-96250367D01*
X165939234Y-96342941D01*
X166057059Y-96460766D01*
X166149633Y-96599313D01*
X166213399Y-96753258D01*
X166245907Y-96916685D01*
X166245907Y-97083315D01*
X166213399Y-97246742D01*
X166149633Y-97400687D01*
X166057059Y-97539234D01*
X165939234Y-97657059D01*
X165800687Y-97749633D01*
X165646742Y-97813399D01*
X165483315Y-97845907D01*
X165316685Y-97845907D01*
X165153258Y-97813399D01*
X164999313Y-97749633D01*
X164860766Y-97657059D01*
X164742941Y-97539234D01*
X164650367Y-97400687D01*
X164586601Y-97246742D01*
X164554093Y-97083315D01*
X164554093Y-96916685D01*
X164586601Y-96753258D01*
X164650367Y-96599313D01*
X164742941Y-96460766D01*
X164860766Y-96342941D01*
X164999313Y-96250367D01*
X165153258Y-96186601D01*
X165316685Y-96154093D01*
X165483315Y-96154093D01*
X165646742Y-96186601D01*
G37*
G36*
X176426742Y-95966601D02*
G01*
X176580687Y-96030367D01*
X176719234Y-96122941D01*
X176837059Y-96240766D01*
X176929633Y-96379313D01*
X176993399Y-96533258D01*
X177025907Y-96696685D01*
X177025907Y-96863315D01*
X176993399Y-97026742D01*
X176929633Y-97180687D01*
X176837059Y-97319234D01*
X176719234Y-97437059D01*
X176580687Y-97529633D01*
X176426742Y-97593399D01*
X176263315Y-97625907D01*
X176096685Y-97625907D01*
X175933258Y-97593399D01*
X175779313Y-97529633D01*
X175640766Y-97437059D01*
X175522941Y-97319234D01*
X175430367Y-97180687D01*
X175366601Y-97026742D01*
X175334093Y-96863315D01*
X175334093Y-96696685D01*
X175366601Y-96533258D01*
X175430367Y-96379313D01*
X175522941Y-96240766D01*
X175640766Y-96122941D01*
X175779313Y-96030367D01*
X175933258Y-95966601D01*
X176096685Y-95934093D01*
X176263315Y-95934093D01*
X176426742Y-95966601D01*
G37*
G36*
X171246742Y-95886601D02*
G01*
X171400687Y-95950367D01*
X171539234Y-96042941D01*
X171657059Y-96160766D01*
X171749633Y-96299313D01*
X171813399Y-96453258D01*
X171845907Y-96616685D01*
X171845907Y-96783315D01*
X171813399Y-96946742D01*
X171749633Y-97100687D01*
X171657059Y-97239234D01*
X171539234Y-97357059D01*
X171400687Y-97449633D01*
X171246742Y-97513399D01*
X171083315Y-97545907D01*
X170916685Y-97545907D01*
X170753258Y-97513399D01*
X170599313Y-97449633D01*
X170460766Y-97357059D01*
X170342941Y-97239234D01*
X170250367Y-97100687D01*
X170186601Y-96946742D01*
X170154093Y-96783315D01*
X170154093Y-96616685D01*
X170186601Y-96453258D01*
X170250367Y-96299313D01*
X170342941Y-96160766D01*
X170460766Y-96042941D01*
X170599313Y-95950367D01*
X170753258Y-95886601D01*
X170916685Y-95854093D01*
X171083315Y-95854093D01*
X171246742Y-95886601D01*
G37*
G36*
X165646742Y-93646601D02*
G01*
X165800687Y-93710367D01*
X165939234Y-93802941D01*
X166057059Y-93920766D01*
X166149633Y-94059313D01*
X166213399Y-94213258D01*
X166245907Y-94376685D01*
X166245907Y-94543315D01*
X166213399Y-94706742D01*
X166149633Y-94860687D01*
X166057059Y-94999234D01*
X165939234Y-95117059D01*
X165800687Y-95209633D01*
X165646742Y-95273399D01*
X165483315Y-95305907D01*
X165316685Y-95305907D01*
X165153258Y-95273399D01*
X164999313Y-95209633D01*
X164860766Y-95117059D01*
X164742941Y-94999234D01*
X164650367Y-94860687D01*
X164586601Y-94706742D01*
X164554093Y-94543315D01*
X164554093Y-94376685D01*
X164586601Y-94213258D01*
X164650367Y-94059313D01*
X164742941Y-93920766D01*
X164860766Y-93802941D01*
X164999313Y-93710367D01*
X165153258Y-93646601D01*
X165316685Y-93614093D01*
X165483315Y-93614093D01*
X165646742Y-93646601D01*
G37*
G36*
X176426742Y-93426601D02*
G01*
X176580687Y-93490367D01*
X176719234Y-93582941D01*
X176837059Y-93700766D01*
X176929633Y-93839313D01*
X176993399Y-93993258D01*
X177025907Y-94156685D01*
X177025907Y-94323315D01*
X176993399Y-94486742D01*
X176929633Y-94640687D01*
X176837059Y-94779234D01*
X176719234Y-94897059D01*
X176580687Y-94989633D01*
X176426742Y-95053399D01*
X176263315Y-95085907D01*
X176096685Y-95085907D01*
X175933258Y-95053399D01*
X175779313Y-94989633D01*
X175640766Y-94897059D01*
X175522941Y-94779234D01*
X175430367Y-94640687D01*
X175366601Y-94486742D01*
X175334093Y-94323315D01*
X175334093Y-94156685D01*
X175366601Y-93993258D01*
X175430367Y-93839313D01*
X175522941Y-93700766D01*
X175640766Y-93582941D01*
X175779313Y-93490367D01*
X175933258Y-93426601D01*
X176096685Y-93394093D01*
X176263315Y-93394093D01*
X176426742Y-93426601D01*
G37*
G36*
X171246742Y-93346601D02*
G01*
X171400687Y-93410367D01*
X171539234Y-93502941D01*
X171657059Y-93620766D01*
X171749633Y-93759313D01*
X171813399Y-93913258D01*
X171845907Y-94076685D01*
X171845907Y-94243315D01*
X171813399Y-94406742D01*
X171749633Y-94560687D01*
X171657059Y-94699234D01*
X171539234Y-94817059D01*
X171400687Y-94909633D01*
X171246742Y-94973399D01*
X171083315Y-95005907D01*
X170916685Y-95005907D01*
X170753258Y-94973399D01*
X170599313Y-94909633D01*
X170460766Y-94817059D01*
X170342941Y-94699234D01*
X170250367Y-94560687D01*
X170186601Y-94406742D01*
X170154093Y-94243315D01*
X170154093Y-94076685D01*
X170186601Y-93913258D01*
X170250367Y-93759313D01*
X170342941Y-93620766D01*
X170460766Y-93502941D01*
X170599313Y-93410367D01*
X170753258Y-93346601D01*
X170916685Y-93314093D01*
X171083315Y-93314093D01*
X171246742Y-93346601D01*
G37*
G36*
X165646742Y-91106601D02*
G01*
X165800687Y-91170367D01*
X165939234Y-91262941D01*
X166057059Y-91380766D01*
X166149633Y-91519313D01*
X166213399Y-91673258D01*
X166245907Y-91836685D01*
X166245907Y-92003315D01*
X166213399Y-92166742D01*
X166149633Y-92320687D01*
X166057059Y-92459234D01*
X165939234Y-92577059D01*
X165800687Y-92669633D01*
X165646742Y-92733399D01*
X165483315Y-92765907D01*
X165316685Y-92765907D01*
X165153258Y-92733399D01*
X164999313Y-92669633D01*
X164860766Y-92577059D01*
X164742941Y-92459234D01*
X164650367Y-92320687D01*
X164586601Y-92166742D01*
X164554093Y-92003315D01*
X164554093Y-91836685D01*
X164586601Y-91673258D01*
X164650367Y-91519313D01*
X164742941Y-91380766D01*
X164860766Y-91262941D01*
X164999313Y-91170367D01*
X165153258Y-91106601D01*
X165316685Y-91074093D01*
X165483315Y-91074093D01*
X165646742Y-91106601D01*
G37*
G36*
X176426742Y-90886601D02*
G01*
X176580687Y-90950367D01*
X176719234Y-91042941D01*
X176837059Y-91160766D01*
X176929633Y-91299313D01*
X176993399Y-91453258D01*
X177025907Y-91616685D01*
X177025907Y-91783315D01*
X176993399Y-91946742D01*
X176929633Y-92100687D01*
X176837059Y-92239234D01*
X176719234Y-92357059D01*
X176580687Y-92449633D01*
X176426742Y-92513399D01*
X176263315Y-92545907D01*
X176096685Y-92545907D01*
X175933258Y-92513399D01*
X175779313Y-92449633D01*
X175640766Y-92357059D01*
X175522941Y-92239234D01*
X175430367Y-92100687D01*
X175366601Y-91946742D01*
X175334093Y-91783315D01*
X175334093Y-91616685D01*
X175366601Y-91453258D01*
X175430367Y-91299313D01*
X175522941Y-91160766D01*
X175640766Y-91042941D01*
X175779313Y-90950367D01*
X175933258Y-90886601D01*
X176096685Y-90854093D01*
X176263315Y-90854093D01*
X176426742Y-90886601D01*
G37*
G36*
X171246742Y-90806601D02*
G01*
X171400687Y-90870367D01*
X171539234Y-90962941D01*
X171657059Y-91080766D01*
X171749633Y-91219313D01*
X171813399Y-91373258D01*
X171845907Y-91536685D01*
X171845907Y-91703315D01*
X171813399Y-91866742D01*
X171749633Y-92020687D01*
X171657059Y-92159234D01*
X171539234Y-92277059D01*
X171400687Y-92369633D01*
X171246742Y-92433399D01*
X171083315Y-92465907D01*
X170916685Y-92465907D01*
X170753258Y-92433399D01*
X170599313Y-92369633D01*
X170460766Y-92277059D01*
X170342941Y-92159234D01*
X170250367Y-92020687D01*
X170186601Y-91866742D01*
X170154093Y-91703315D01*
X170154093Y-91536685D01*
X170186601Y-91373258D01*
X170250367Y-91219313D01*
X170342941Y-91080766D01*
X170460766Y-90962941D01*
X170599313Y-90870367D01*
X170753258Y-90806601D01*
X170916685Y-90774093D01*
X171083315Y-90774093D01*
X171246742Y-90806601D01*
G37*
G36*
X165646742Y-88566601D02*
G01*
X165800687Y-88630367D01*
X165939234Y-88722941D01*
X166057059Y-88840766D01*
X166149633Y-88979313D01*
X166213399Y-89133258D01*
X166245907Y-89296685D01*
X166245907Y-89463315D01*
X166213399Y-89626742D01*
X166149633Y-89780687D01*
X166057059Y-89919234D01*
X165939234Y-90037059D01*
X165800687Y-90129633D01*
X165646742Y-90193399D01*
X165483315Y-90225907D01*
X165316685Y-90225907D01*
X165153258Y-90193399D01*
X164999313Y-90129633D01*
X164860766Y-90037059D01*
X164742941Y-89919234D01*
X164650367Y-89780687D01*
X164586601Y-89626742D01*
X164554093Y-89463315D01*
X164554093Y-89296685D01*
X164586601Y-89133258D01*
X164650367Y-88979313D01*
X164742941Y-88840766D01*
X164860766Y-88722941D01*
X164999313Y-88630367D01*
X165153258Y-88566601D01*
X165316685Y-88534093D01*
X165483315Y-88534093D01*
X165646742Y-88566601D01*
G37*
G36*
X165646742Y-86026601D02*
G01*
X165800687Y-86090367D01*
X165939234Y-86182941D01*
X166057059Y-86300766D01*
X166149633Y-86439313D01*
X166213399Y-86593258D01*
X166245907Y-86756685D01*
X166245907Y-86923315D01*
X166213399Y-87086742D01*
X166149633Y-87240687D01*
X166057059Y-87379234D01*
X165939234Y-87497059D01*
X165800687Y-87589633D01*
X165646742Y-87653399D01*
X165483315Y-87685907D01*
X165316685Y-87685907D01*
X165153258Y-87653399D01*
X164999313Y-87589633D01*
X164860766Y-87497059D01*
X164742941Y-87379234D01*
X164650367Y-87240687D01*
X164586601Y-87086742D01*
X164554093Y-86923315D01*
X164554093Y-86756685D01*
X164586601Y-86593258D01*
X164650367Y-86439313D01*
X164742941Y-86300766D01*
X164860766Y-86182941D01*
X164999313Y-86090367D01*
X165153258Y-86026601D01*
X165316685Y-85994093D01*
X165483315Y-85994093D01*
X165646742Y-86026601D01*
G37*
G36*
X214868370Y-44805034D02*
G01*
X214879425Y-44805034D01*
X214956175Y-44813681D01*
X215169524Y-44834694D01*
X215204619Y-44841675D01*
X215236020Y-44845213D01*
X215328343Y-44866285D01*
X215477518Y-44895958D01*
X215535777Y-44913630D01*
X215585874Y-44925065D01*
X215666667Y-44953335D01*
X215778030Y-44987117D01*
X215858676Y-45020521D01*
X215924587Y-45043585D01*
X215987506Y-45073885D01*
X216068149Y-45107289D01*
X216170770Y-45162141D01*
X216247900Y-45199285D01*
X216291411Y-45226624D01*
X216345098Y-45255321D01*
X216471546Y-45339811D01*
X216551748Y-45390205D01*
X216576459Y-45409911D01*
X216606199Y-45429783D01*
X216771882Y-45565756D01*
X216832309Y-45613945D01*
X216840129Y-45621765D01*
X216848952Y-45629006D01*
X217070993Y-45851047D01*
X217078233Y-45859869D01*
X217086055Y-45867691D01*
X217134249Y-45928124D01*
X217270216Y-46093800D01*
X217290086Y-46123538D01*
X217309795Y-46148252D01*
X217360193Y-46228461D01*
X217444678Y-46354901D01*
X217473371Y-46408583D01*
X217500715Y-46452100D01*
X217537862Y-46529237D01*
X217592710Y-46631850D01*
X217626110Y-46712484D01*
X217656415Y-46775413D01*
X217679481Y-46841332D01*
X217712882Y-46921969D01*
X217746659Y-47033317D01*
X217774935Y-47114126D01*
X217786371Y-47164231D01*
X217804041Y-47222481D01*
X217833708Y-47371629D01*
X217854787Y-47463980D01*
X217858326Y-47495389D01*
X217865305Y-47530475D01*
X217886315Y-47743803D01*
X217894966Y-47820575D01*
X217894966Y-47831630D01*
X217896084Y-47842982D01*
X217896084Y-48157017D01*
X217894966Y-48168368D01*
X217894966Y-48179425D01*
X217886315Y-48256203D01*
X217865305Y-48469524D01*
X217858326Y-48504608D01*
X217854787Y-48536020D01*
X217833707Y-48628377D01*
X217804041Y-48777518D01*
X217786372Y-48835764D01*
X217774935Y-48885874D01*
X217746656Y-48966688D01*
X217712882Y-49078030D01*
X217679483Y-49158660D01*
X217656415Y-49224587D01*
X217626107Y-49287521D01*
X217592710Y-49368149D01*
X217537867Y-49470751D01*
X217500715Y-49547900D01*
X217473368Y-49591422D01*
X217444678Y-49645098D01*
X217360204Y-49771521D01*
X217309795Y-49851748D01*
X217290082Y-49876466D01*
X217270216Y-49906199D01*
X217134277Y-50071839D01*
X217086055Y-50132309D01*
X217078228Y-50140135D01*
X217070993Y-50148952D01*
X216848952Y-50370993D01*
X216840135Y-50378228D01*
X216832309Y-50386055D01*
X216771839Y-50434277D01*
X216606199Y-50570216D01*
X216576466Y-50590082D01*
X216551748Y-50609795D01*
X216471521Y-50660204D01*
X216345098Y-50744678D01*
X216291422Y-50773368D01*
X216247900Y-50800715D01*
X216170751Y-50837867D01*
X216068149Y-50892710D01*
X215987521Y-50926107D01*
X215924587Y-50956415D01*
X215858660Y-50979483D01*
X215778030Y-51012882D01*
X215666688Y-51046656D01*
X215585874Y-51074935D01*
X215535764Y-51086372D01*
X215477518Y-51104041D01*
X215328377Y-51133707D01*
X215236020Y-51154787D01*
X215204608Y-51158326D01*
X215169524Y-51165305D01*
X214956198Y-51186315D01*
X214879425Y-51194966D01*
X214868369Y-51194966D01*
X214857018Y-51196084D01*
X214542982Y-51196084D01*
X214531631Y-51194966D01*
X214520575Y-51194966D01*
X214443803Y-51186315D01*
X214230475Y-51165305D01*
X214195389Y-51158326D01*
X214163980Y-51154787D01*
X214071629Y-51133708D01*
X213922481Y-51104041D01*
X213864231Y-51086371D01*
X213814126Y-51074935D01*
X213733317Y-51046659D01*
X213621969Y-51012882D01*
X213541332Y-50979481D01*
X213475413Y-50956415D01*
X213412484Y-50926110D01*
X213331850Y-50892710D01*
X213229237Y-50837862D01*
X213152100Y-50800715D01*
X213108583Y-50773371D01*
X213054901Y-50744678D01*
X212928461Y-50660193D01*
X212848252Y-50609795D01*
X212823538Y-50590086D01*
X212793800Y-50570216D01*
X212628124Y-50434249D01*
X212567691Y-50386055D01*
X212559869Y-50378233D01*
X212551047Y-50370993D01*
X212329006Y-50148952D01*
X212321765Y-50140129D01*
X212313945Y-50132309D01*
X212265756Y-50071882D01*
X212129783Y-49906199D01*
X212109911Y-49876459D01*
X212090205Y-49851748D01*
X212039811Y-49771546D01*
X211955321Y-49645098D01*
X211926624Y-49591411D01*
X211899285Y-49547900D01*
X211862141Y-49470770D01*
X211807289Y-49368149D01*
X211773885Y-49287506D01*
X211743585Y-49224587D01*
X211720521Y-49158676D01*
X211687117Y-49078030D01*
X211653335Y-48966667D01*
X211625065Y-48885874D01*
X211613630Y-48835777D01*
X211595958Y-48777518D01*
X211566285Y-48628343D01*
X211545213Y-48536020D01*
X211541675Y-48504619D01*
X211534694Y-48469524D01*
X211513682Y-48256180D01*
X211505034Y-48179425D01*
X211505034Y-48168368D01*
X211503916Y-48157017D01*
X211503916Y-47842982D01*
X211505034Y-47831630D01*
X211505034Y-47820575D01*
X211513681Y-47743826D01*
X211534694Y-47530475D01*
X211541675Y-47495377D01*
X211545213Y-47463980D01*
X211566283Y-47371663D01*
X211595958Y-47222481D01*
X211613631Y-47164218D01*
X211625065Y-47114126D01*
X211653333Y-47033339D01*
X211687117Y-46921969D01*
X211720524Y-46841317D01*
X211743585Y-46775413D01*
X211773882Y-46712499D01*
X211807289Y-46631850D01*
X211862146Y-46529219D01*
X211899285Y-46452100D01*
X211926621Y-46408594D01*
X211955321Y-46354901D01*
X212039821Y-46228436D01*
X212090205Y-46148252D01*
X212109907Y-46123546D01*
X212129783Y-46093800D01*
X212265784Y-45928081D01*
X212313945Y-45867691D01*
X212321761Y-45859874D01*
X212329006Y-45851047D01*
X212551047Y-45629006D01*
X212559874Y-45621761D01*
X212567691Y-45613945D01*
X212628081Y-45565784D01*
X212793800Y-45429783D01*
X212823546Y-45409907D01*
X212848252Y-45390205D01*
X212928436Y-45339821D01*
X213054901Y-45255321D01*
X213108594Y-45226621D01*
X213152100Y-45199285D01*
X213229219Y-45162146D01*
X213331850Y-45107289D01*
X213412499Y-45073882D01*
X213475413Y-45043585D01*
X213541317Y-45020524D01*
X213621969Y-44987117D01*
X213733339Y-44953333D01*
X213814126Y-44925065D01*
X213864218Y-44913631D01*
X213922481Y-44895958D01*
X214071663Y-44866283D01*
X214163980Y-44845213D01*
X214195377Y-44841675D01*
X214230475Y-44834694D01*
X214443826Y-44813681D01*
X214520575Y-44805034D01*
X214531630Y-44805034D01*
X214542982Y-44803916D01*
X214857018Y-44803916D01*
X214868370Y-44805034D01*
G37*
G36*
X156868370Y-44705034D02*
G01*
X156879425Y-44705034D01*
X156956175Y-44713681D01*
X157169524Y-44734694D01*
X157204619Y-44741675D01*
X157236020Y-44745213D01*
X157328343Y-44766285D01*
X157477518Y-44795958D01*
X157535777Y-44813630D01*
X157585874Y-44825065D01*
X157666667Y-44853335D01*
X157778030Y-44887117D01*
X157858676Y-44920521D01*
X157924587Y-44943585D01*
X157987506Y-44973885D01*
X158068149Y-45007289D01*
X158170770Y-45062141D01*
X158247900Y-45099285D01*
X158291411Y-45126624D01*
X158345098Y-45155321D01*
X158471546Y-45239811D01*
X158551748Y-45290205D01*
X158576459Y-45309911D01*
X158606199Y-45329783D01*
X158771882Y-45465756D01*
X158832309Y-45513945D01*
X158840129Y-45521765D01*
X158848952Y-45529006D01*
X159070993Y-45751047D01*
X159078233Y-45759869D01*
X159086055Y-45767691D01*
X159134249Y-45828124D01*
X159270216Y-45993800D01*
X159290086Y-46023538D01*
X159309795Y-46048252D01*
X159360193Y-46128461D01*
X159444678Y-46254901D01*
X159473371Y-46308583D01*
X159500715Y-46352100D01*
X159537862Y-46429237D01*
X159592710Y-46531850D01*
X159626110Y-46612484D01*
X159656415Y-46675413D01*
X159679481Y-46741332D01*
X159712882Y-46821969D01*
X159746659Y-46933317D01*
X159774935Y-47014126D01*
X159786371Y-47064231D01*
X159804041Y-47122481D01*
X159833708Y-47271629D01*
X159854787Y-47363980D01*
X159858326Y-47395389D01*
X159865305Y-47430475D01*
X159886315Y-47643803D01*
X159894966Y-47720575D01*
X159894966Y-47731630D01*
X159896084Y-47742982D01*
X159896084Y-48057017D01*
X159894966Y-48068368D01*
X159894966Y-48079425D01*
X159886315Y-48156203D01*
X159865305Y-48369524D01*
X159858326Y-48404608D01*
X159854787Y-48436020D01*
X159833707Y-48528377D01*
X159804041Y-48677518D01*
X159786372Y-48735764D01*
X159774935Y-48785874D01*
X159746656Y-48866688D01*
X159712882Y-48978030D01*
X159679483Y-49058660D01*
X159656415Y-49124587D01*
X159626107Y-49187521D01*
X159592710Y-49268149D01*
X159537867Y-49370751D01*
X159500715Y-49447900D01*
X159473368Y-49491422D01*
X159444678Y-49545098D01*
X159360204Y-49671521D01*
X159309795Y-49751748D01*
X159290082Y-49776466D01*
X159270216Y-49806199D01*
X159134277Y-49971839D01*
X159086055Y-50032309D01*
X159078228Y-50040135D01*
X159070993Y-50048952D01*
X158848952Y-50270993D01*
X158840135Y-50278228D01*
X158832309Y-50286055D01*
X158771839Y-50334277D01*
X158606199Y-50470216D01*
X158576466Y-50490082D01*
X158551748Y-50509795D01*
X158471521Y-50560204D01*
X158345098Y-50644678D01*
X158291422Y-50673368D01*
X158247900Y-50700715D01*
X158170751Y-50737867D01*
X158068149Y-50792710D01*
X157987521Y-50826107D01*
X157924587Y-50856415D01*
X157858660Y-50879483D01*
X157778030Y-50912882D01*
X157666688Y-50946656D01*
X157585874Y-50974935D01*
X157535764Y-50986372D01*
X157477518Y-51004041D01*
X157328377Y-51033707D01*
X157236020Y-51054787D01*
X157204608Y-51058326D01*
X157169524Y-51065305D01*
X156956198Y-51086315D01*
X156879425Y-51094966D01*
X156868369Y-51094966D01*
X156857018Y-51096084D01*
X156542982Y-51096084D01*
X156531631Y-51094966D01*
X156520575Y-51094966D01*
X156443803Y-51086315D01*
X156230475Y-51065305D01*
X156195389Y-51058326D01*
X156163980Y-51054787D01*
X156071629Y-51033708D01*
X155922481Y-51004041D01*
X155864231Y-50986371D01*
X155814126Y-50974935D01*
X155733317Y-50946659D01*
X155621969Y-50912882D01*
X155541332Y-50879481D01*
X155475413Y-50856415D01*
X155412484Y-50826110D01*
X155331850Y-50792710D01*
X155229237Y-50737862D01*
X155152100Y-50700715D01*
X155108583Y-50673371D01*
X155054901Y-50644678D01*
X154928461Y-50560193D01*
X154848252Y-50509795D01*
X154823538Y-50490086D01*
X154793800Y-50470216D01*
X154628124Y-50334249D01*
X154567691Y-50286055D01*
X154559869Y-50278233D01*
X154551047Y-50270993D01*
X154329006Y-50048952D01*
X154321765Y-50040129D01*
X154313945Y-50032309D01*
X154265756Y-49971882D01*
X154129783Y-49806199D01*
X154109911Y-49776459D01*
X154090205Y-49751748D01*
X154039811Y-49671546D01*
X153955321Y-49545098D01*
X153926624Y-49491411D01*
X153899285Y-49447900D01*
X153862141Y-49370770D01*
X153807289Y-49268149D01*
X153773885Y-49187506D01*
X153743585Y-49124587D01*
X153720521Y-49058676D01*
X153687117Y-48978030D01*
X153653335Y-48866667D01*
X153625065Y-48785874D01*
X153613630Y-48735777D01*
X153595958Y-48677518D01*
X153566285Y-48528343D01*
X153545213Y-48436020D01*
X153541675Y-48404619D01*
X153534694Y-48369524D01*
X153513682Y-48156180D01*
X153505034Y-48079425D01*
X153505034Y-48068368D01*
X153503916Y-48057017D01*
X153503916Y-47742982D01*
X153505034Y-47731630D01*
X153505034Y-47720575D01*
X153513681Y-47643826D01*
X153534694Y-47430475D01*
X153541675Y-47395377D01*
X153545213Y-47363980D01*
X153566283Y-47271663D01*
X153595958Y-47122481D01*
X153613631Y-47064218D01*
X153625065Y-47014126D01*
X153653333Y-46933339D01*
X153687117Y-46821969D01*
X153720524Y-46741317D01*
X153743585Y-46675413D01*
X153773882Y-46612499D01*
X153807289Y-46531850D01*
X153862146Y-46429219D01*
X153899285Y-46352100D01*
X153926621Y-46308594D01*
X153955321Y-46254901D01*
X154039821Y-46128436D01*
X154090205Y-46048252D01*
X154109907Y-46023546D01*
X154129783Y-45993800D01*
X154265784Y-45828081D01*
X154313945Y-45767691D01*
X154321761Y-45759874D01*
X154329006Y-45751047D01*
X154551047Y-45529006D01*
X154559874Y-45521761D01*
X154567691Y-45513945D01*
X154628081Y-45465784D01*
X154793800Y-45329783D01*
X154823546Y-45309907D01*
X154848252Y-45290205D01*
X154928436Y-45239821D01*
X155054901Y-45155321D01*
X155108594Y-45126621D01*
X155152100Y-45099285D01*
X155229219Y-45062146D01*
X155331850Y-45007289D01*
X155412499Y-44973882D01*
X155475413Y-44943585D01*
X155541317Y-44920524D01*
X155621969Y-44887117D01*
X155733339Y-44853333D01*
X155814126Y-44825065D01*
X155864218Y-44813631D01*
X155922481Y-44795958D01*
X156071663Y-44766283D01*
X156163980Y-44745213D01*
X156195377Y-44741675D01*
X156230475Y-44734694D01*
X156443826Y-44713681D01*
X156520575Y-44705034D01*
X156531630Y-44705034D01*
X156542982Y-44703916D01*
X156857018Y-44703916D01*
X156868370Y-44705034D01*
G37*
G36*
X174471342Y-48303060D02*
G01*
X174584381Y-48368323D01*
X174676677Y-48460619D01*
X174741940Y-48573658D01*
X174775722Y-48699737D01*
X174780000Y-48765000D01*
X174780000Y-49865000D01*
X174775722Y-49930263D01*
X174741940Y-50056342D01*
X174676677Y-50169381D01*
X174584381Y-50261677D01*
X174471342Y-50326940D01*
X174345263Y-50360722D01*
X174214737Y-50360722D01*
X174088658Y-50326940D01*
X173975619Y-50261677D01*
X173883323Y-50169381D01*
X173818060Y-50056342D01*
X173784278Y-49930263D01*
X173780000Y-49865000D01*
X173780000Y-48765000D01*
X173784278Y-48699737D01*
X173818060Y-48573658D01*
X173883323Y-48460619D01*
X173975619Y-48368323D01*
X174088658Y-48303060D01*
X174214737Y-48269278D01*
X174345263Y-48269278D01*
X174471342Y-48303060D01*
G37*
G36*
X183111342Y-48303060D02*
G01*
X183224381Y-48368323D01*
X183316677Y-48460619D01*
X183381940Y-48573658D01*
X183415722Y-48699737D01*
X183420000Y-48765000D01*
X183420000Y-49865000D01*
X183415722Y-49930263D01*
X183381940Y-50056342D01*
X183316677Y-50169381D01*
X183224381Y-50261677D01*
X183111342Y-50326940D01*
X182985263Y-50360722D01*
X182854737Y-50360722D01*
X182728658Y-50326940D01*
X182615619Y-50261677D01*
X182523323Y-50169381D01*
X182458060Y-50056342D01*
X182424278Y-49930263D01*
X182420000Y-49865000D01*
X182420000Y-48765000D01*
X182424278Y-48699737D01*
X182458060Y-48573658D01*
X182523323Y-48460619D01*
X182615619Y-48368323D01*
X182728658Y-48303060D01*
X182854737Y-48269278D01*
X182985263Y-48269278D01*
X183111342Y-48303060D01*
G37*
G36*
X175834372Y-48514739D02*
G01*
X175907847Y-48557160D01*
X175967840Y-48617153D01*
X176010261Y-48690628D01*
X176032220Y-48772579D01*
X176032220Y-48857421D01*
X176010261Y-48939372D01*
X175967840Y-49012847D01*
X175907847Y-49072840D01*
X175834372Y-49115261D01*
X175752421Y-49137220D01*
X175667579Y-49137220D01*
X175585628Y-49115261D01*
X175512153Y-49072840D01*
X175452160Y-49012847D01*
X175409739Y-48939372D01*
X175387780Y-48857421D01*
X175387780Y-48772579D01*
X175409739Y-48690628D01*
X175452160Y-48617153D01*
X175512153Y-48557160D01*
X175585628Y-48514739D01*
X175667579Y-48492780D01*
X175752421Y-48492780D01*
X175834372Y-48514739D01*
G37*
G36*
X181614372Y-48514739D02*
G01*
X181687847Y-48557160D01*
X181747840Y-48617153D01*
X181790261Y-48690628D01*
X181812220Y-48772579D01*
X181812220Y-48857421D01*
X181790261Y-48939372D01*
X181747840Y-49012847D01*
X181687847Y-49072840D01*
X181614372Y-49115261D01*
X181532421Y-49137220D01*
X181447579Y-49137220D01*
X181365628Y-49115261D01*
X181292153Y-49072840D01*
X181232160Y-49012847D01*
X181189739Y-48939372D01*
X181167780Y-48857421D01*
X181167780Y-48772579D01*
X181189739Y-48690628D01*
X181232160Y-48617153D01*
X181292153Y-48557160D01*
X181365628Y-48514739D01*
X181447579Y-48492780D01*
X181532421Y-48492780D01*
X181614372Y-48514739D01*
G37*
G36*
X174471342Y-44273060D02*
G01*
X174584381Y-44338323D01*
X174676677Y-44430619D01*
X174741940Y-44543658D01*
X174775722Y-44669737D01*
X174780000Y-44735000D01*
X174780000Y-45535000D01*
X174775722Y-45600263D01*
X174741940Y-45726342D01*
X174676677Y-45839381D01*
X174584381Y-45931677D01*
X174471342Y-45996940D01*
X174345263Y-46030722D01*
X174214737Y-46030722D01*
X174088658Y-45996940D01*
X173975619Y-45931677D01*
X173883323Y-45839381D01*
X173818060Y-45726342D01*
X173784278Y-45600263D01*
X173780000Y-45535000D01*
X173780000Y-44735000D01*
X173784278Y-44669737D01*
X173818060Y-44543658D01*
X173883323Y-44430619D01*
X173975619Y-44338323D01*
X174088658Y-44273060D01*
X174214737Y-44239278D01*
X174345263Y-44239278D01*
X174471342Y-44273060D01*
G37*
G36*
X183111342Y-44273060D02*
G01*
X183224381Y-44338323D01*
X183316677Y-44430619D01*
X183381940Y-44543658D01*
X183415722Y-44669737D01*
X183420000Y-44735000D01*
X183420000Y-45535000D01*
X183415722Y-45600263D01*
X183381940Y-45726342D01*
X183316677Y-45839381D01*
X183224381Y-45931677D01*
X183111342Y-45996940D01*
X182985263Y-46030722D01*
X182854737Y-46030722D01*
X182728658Y-45996940D01*
X182615619Y-45931677D01*
X182523323Y-45839381D01*
X182458060Y-45726342D01*
X182424278Y-45600263D01*
X182420000Y-45535000D01*
X182420000Y-44735000D01*
X182424278Y-44669737D01*
X182458060Y-44543658D01*
X182523323Y-44430619D01*
X182615619Y-44338323D01*
X182728658Y-44273060D01*
X182854737Y-44239278D01*
X182985263Y-44239278D01*
X183111342Y-44273060D01*
G37*
M02*
