%TF.GenerationSoftware,KiCad,Pcbnew,10.0.1*%
%TF.CreationDate,2026-06-24T16:32:23+01:00*%
%TF.ProjectId,ESP32_IoT_Board_Design,45535033-325f-4496-9f54-5f426f617264,rev?*%
%TF.SameCoordinates,Original*%
%TF.FileFunction,Soldermask,Top*%
%TF.FilePolarity,Negative*%
%FSLAX46Y46*%
G04 Gerber Fmt 4.6, Leading zero omitted, Abs format (unit mm)*
G04 Created by KiCad (PCBNEW 10.0.1) date 2026-06-24 16:32:23*
%MOMM*%
%LPD*%
G01*
G04 APERTURE LIST*
G04 APERTURE END LIST*
G36*
X155568370Y-94605034D02*
G01*
X155579425Y-94605034D01*
X155656175Y-94613681D01*
X155869524Y-94634694D01*
X155904619Y-94641675D01*
X155936020Y-94645213D01*
X156028343Y-94666285D01*
X156177518Y-94695958D01*
X156235777Y-94713630D01*
X156285874Y-94725065D01*
X156366667Y-94753335D01*
X156478030Y-94787117D01*
X156558676Y-94820521D01*
X156624587Y-94843585D01*
X156687506Y-94873885D01*
X156768149Y-94907289D01*
X156870770Y-94962141D01*
X156947900Y-94999285D01*
X156991411Y-95026624D01*
X157045098Y-95055321D01*
X157171546Y-95139811D01*
X157251748Y-95190205D01*
X157276459Y-95209911D01*
X157306199Y-95229783D01*
X157471882Y-95365756D01*
X157532309Y-95413945D01*
X157540129Y-95421765D01*
X157548952Y-95429006D01*
X157770993Y-95651047D01*
X157778233Y-95659869D01*
X157786055Y-95667691D01*
X157834249Y-95728124D01*
X157970216Y-95893800D01*
X157990086Y-95923538D01*
X158009795Y-95948252D01*
X158060193Y-96028461D01*
X158144678Y-96154901D01*
X158173371Y-96208583D01*
X158200715Y-96252100D01*
X158237862Y-96329237D01*
X158292710Y-96431850D01*
X158326110Y-96512484D01*
X158356415Y-96575413D01*
X158379481Y-96641332D01*
X158412882Y-96721969D01*
X158446659Y-96833317D01*
X158474935Y-96914126D01*
X158486371Y-96964231D01*
X158504041Y-97022481D01*
X158533708Y-97171629D01*
X158554787Y-97263980D01*
X158558326Y-97295389D01*
X158565305Y-97330475D01*
X158586315Y-97543803D01*
X158594966Y-97620575D01*
X158594966Y-97631630D01*
X158596084Y-97642982D01*
X158596084Y-97957017D01*
X158594966Y-97968368D01*
X158594966Y-97979425D01*
X158586315Y-98056203D01*
X158565305Y-98269524D01*
X158558326Y-98304608D01*
X158554787Y-98336020D01*
X158533707Y-98428377D01*
X158504041Y-98577518D01*
X158486372Y-98635764D01*
X158474935Y-98685874D01*
X158446656Y-98766688D01*
X158412882Y-98878030D01*
X158379483Y-98958660D01*
X158356415Y-99024587D01*
X158326107Y-99087521D01*
X158292710Y-99168149D01*
X158237867Y-99270751D01*
X158200715Y-99347900D01*
X158173368Y-99391422D01*
X158144678Y-99445098D01*
X158060204Y-99571521D01*
X158009795Y-99651748D01*
X157990082Y-99676466D01*
X157970216Y-99706199D01*
X157834277Y-99871839D01*
X157786055Y-99932309D01*
X157778228Y-99940135D01*
X157770993Y-99948952D01*
X157548952Y-100170993D01*
X157540135Y-100178228D01*
X157532309Y-100186055D01*
X157471839Y-100234277D01*
X157306199Y-100370216D01*
X157276466Y-100390082D01*
X157251748Y-100409795D01*
X157171521Y-100460204D01*
X157045098Y-100544678D01*
X156991422Y-100573368D01*
X156947900Y-100600715D01*
X156870751Y-100637867D01*
X156768149Y-100692710D01*
X156687521Y-100726107D01*
X156624587Y-100756415D01*
X156558660Y-100779483D01*
X156478030Y-100812882D01*
X156366688Y-100846656D01*
X156285874Y-100874935D01*
X156235764Y-100886372D01*
X156177518Y-100904041D01*
X156028377Y-100933707D01*
X155936020Y-100954787D01*
X155904608Y-100958326D01*
X155869524Y-100965305D01*
X155656198Y-100986315D01*
X155579425Y-100994966D01*
X155568369Y-100994966D01*
X155557018Y-100996084D01*
X155242982Y-100996084D01*
X155231631Y-100994966D01*
X155220575Y-100994966D01*
X155143803Y-100986315D01*
X154930475Y-100965305D01*
X154895389Y-100958326D01*
X154863980Y-100954787D01*
X154771629Y-100933708D01*
X154622481Y-100904041D01*
X154564231Y-100886371D01*
X154514126Y-100874935D01*
X154433317Y-100846659D01*
X154321969Y-100812882D01*
X154241332Y-100779481D01*
X154175413Y-100756415D01*
X154112484Y-100726110D01*
X154031850Y-100692710D01*
X153929237Y-100637862D01*
X153852100Y-100600715D01*
X153808583Y-100573371D01*
X153754901Y-100544678D01*
X153628461Y-100460193D01*
X153548252Y-100409795D01*
X153523538Y-100390086D01*
X153493800Y-100370216D01*
X153328124Y-100234249D01*
X153267691Y-100186055D01*
X153259869Y-100178233D01*
X153251047Y-100170993D01*
X153029006Y-99948952D01*
X153021765Y-99940129D01*
X153013945Y-99932309D01*
X152965756Y-99871882D01*
X152829783Y-99706199D01*
X152809911Y-99676459D01*
X152790205Y-99651748D01*
X152739811Y-99571546D01*
X152655321Y-99445098D01*
X152626624Y-99391411D01*
X152599285Y-99347900D01*
X152562141Y-99270770D01*
X152507289Y-99168149D01*
X152473885Y-99087506D01*
X152443585Y-99024587D01*
X152420521Y-98958676D01*
X152387117Y-98878030D01*
X152353335Y-98766667D01*
X152325065Y-98685874D01*
X152313630Y-98635777D01*
X152295958Y-98577518D01*
X152266285Y-98428343D01*
X152245213Y-98336020D01*
X152241675Y-98304619D01*
X152234694Y-98269524D01*
X152213682Y-98056180D01*
X152205034Y-97979425D01*
X152205034Y-97968368D01*
X152203916Y-97957017D01*
X152203916Y-97642982D01*
X152205034Y-97631630D01*
X152205034Y-97620575D01*
X152213681Y-97543826D01*
X152234694Y-97330475D01*
X152241675Y-97295377D01*
X152245213Y-97263980D01*
X152266283Y-97171663D01*
X152295958Y-97022481D01*
X152313631Y-96964218D01*
X152325065Y-96914126D01*
X152353333Y-96833339D01*
X152387117Y-96721969D01*
X152420524Y-96641317D01*
X152443585Y-96575413D01*
X152473882Y-96512499D01*
X152507289Y-96431850D01*
X152562146Y-96329219D01*
X152599285Y-96252100D01*
X152626621Y-96208594D01*
X152655321Y-96154901D01*
X152739821Y-96028436D01*
X152790205Y-95948252D01*
X152809907Y-95923546D01*
X152829783Y-95893800D01*
X152965784Y-95728081D01*
X153013945Y-95667691D01*
X153021761Y-95659874D01*
X153029006Y-95651047D01*
X153251047Y-95429006D01*
X153259874Y-95421761D01*
X153267691Y-95413945D01*
X153328081Y-95365784D01*
X153493800Y-95229783D01*
X153523546Y-95209907D01*
X153548252Y-95190205D01*
X153628436Y-95139821D01*
X153754901Y-95055321D01*
X153808594Y-95026621D01*
X153852100Y-94999285D01*
X153929219Y-94962146D01*
X154031850Y-94907289D01*
X154112499Y-94873882D01*
X154175413Y-94843585D01*
X154241317Y-94820524D01*
X154321969Y-94787117D01*
X154433339Y-94753333D01*
X154514126Y-94725065D01*
X154564218Y-94713631D01*
X154622481Y-94695958D01*
X154771663Y-94666283D01*
X154863980Y-94645213D01*
X154895377Y-94641675D01*
X154930475Y-94634694D01*
X155143826Y-94613681D01*
X155220575Y-94605034D01*
X155231630Y-94605034D01*
X155242982Y-94603916D01*
X155557018Y-94603916D01*
X155568370Y-94605034D01*
G37*
G36*
X193739962Y-99729151D02*
G01*
X193810930Y-99776570D01*
X193858349Y-99847538D01*
X193875000Y-99931250D01*
X193875000Y-100368750D01*
X193858349Y-100452462D01*
X193810930Y-100523430D01*
X193739962Y-100570849D01*
X193656250Y-100587500D01*
X193143750Y-100587500D01*
X193060038Y-100570849D01*
X192989070Y-100523430D01*
X192941651Y-100452462D01*
X192925000Y-100368750D01*
X192925000Y-99931250D01*
X192941651Y-99847538D01*
X192989070Y-99776570D01*
X193060038Y-99729151D01*
X193143750Y-99712500D01*
X193656250Y-99712500D01*
X193739962Y-99729151D01*
G37*
G36*
X188939962Y-99616651D02*
G01*
X189010930Y-99664070D01*
X189058349Y-99735038D01*
X189075000Y-99818750D01*
X189075000Y-100256250D01*
X189058349Y-100339962D01*
X189010930Y-100410930D01*
X188939962Y-100458349D01*
X188856250Y-100475000D01*
X188343750Y-100475000D01*
X188260038Y-100458349D01*
X188189070Y-100410930D01*
X188141651Y-100339962D01*
X188125000Y-100256250D01*
X188125000Y-99818750D01*
X188141651Y-99735038D01*
X188189070Y-99664070D01*
X188260038Y-99616651D01*
X188343750Y-99600000D01*
X188856250Y-99600000D01*
X188939962Y-99616651D01*
G37*
G36*
X166250000Y-100390000D02*
G01*
X164550000Y-100390000D01*
X164550000Y-98690000D01*
X166250000Y-98690000D01*
X166250000Y-100390000D01*
G37*
G36*
X183939962Y-99504151D02*
G01*
X184010930Y-99551570D01*
X184058349Y-99622538D01*
X184075000Y-99706250D01*
X184075000Y-100143750D01*
X184058349Y-100227462D01*
X184010930Y-100298430D01*
X183939962Y-100345849D01*
X183856250Y-100362500D01*
X183343750Y-100362500D01*
X183260038Y-100345849D01*
X183189070Y-100298430D01*
X183141651Y-100227462D01*
X183125000Y-100143750D01*
X183125000Y-99706250D01*
X183141651Y-99622538D01*
X183189070Y-99551570D01*
X183260038Y-99504151D01*
X183343750Y-99487500D01*
X183856250Y-99487500D01*
X183939962Y-99504151D01*
G37*
G36*
X177030000Y-100170000D02*
G01*
X175330000Y-100170000D01*
X175330000Y-98470000D01*
X177030000Y-98470000D01*
X177030000Y-100170000D01*
G37*
G36*
X171850000Y-100090000D02*
G01*
X170150000Y-100090000D01*
X170150000Y-98390000D01*
X171850000Y-98390000D01*
X171850000Y-100090000D01*
G37*
G36*
X193739962Y-98154151D02*
G01*
X193810930Y-98201570D01*
X193858349Y-98272538D01*
X193875000Y-98356250D01*
X193875000Y-98793750D01*
X193858349Y-98877462D01*
X193810930Y-98948430D01*
X193739962Y-98995849D01*
X193656250Y-99012500D01*
X193143750Y-99012500D01*
X193060038Y-98995849D01*
X192989070Y-98948430D01*
X192941651Y-98877462D01*
X192925000Y-98793750D01*
X192925000Y-98356250D01*
X192941651Y-98272538D01*
X192989070Y-98201570D01*
X193060038Y-98154151D01*
X193143750Y-98137500D01*
X193656250Y-98137500D01*
X193739962Y-98154151D01*
G37*
G36*
X188939962Y-98041651D02*
G01*
X189010930Y-98089070D01*
X189058349Y-98160038D01*
X189075000Y-98243750D01*
X189075000Y-98681250D01*
X189058349Y-98764962D01*
X189010930Y-98835930D01*
X188939962Y-98883349D01*
X188856250Y-98900000D01*
X188343750Y-98900000D01*
X188260038Y-98883349D01*
X188189070Y-98835930D01*
X188141651Y-98764962D01*
X188125000Y-98681250D01*
X188125000Y-98243750D01*
X188141651Y-98160038D01*
X188189070Y-98089070D01*
X188260038Y-98041651D01*
X188343750Y-98025000D01*
X188856250Y-98025000D01*
X188939962Y-98041651D01*
G37*
G36*
X183939962Y-97929151D02*
G01*
X184010930Y-97976570D01*
X184058349Y-98047538D01*
X184075000Y-98131250D01*
X184075000Y-98568750D01*
X184058349Y-98652462D01*
X184010930Y-98723430D01*
X183939962Y-98770849D01*
X183856250Y-98787500D01*
X183343750Y-98787500D01*
X183260038Y-98770849D01*
X183189070Y-98723430D01*
X183141651Y-98652462D01*
X183125000Y-98568750D01*
X183125000Y-98131250D01*
X183141651Y-98047538D01*
X183189070Y-97976570D01*
X183260038Y-97929151D01*
X183343750Y-97912500D01*
X183856250Y-97912500D01*
X183939962Y-97929151D01*
G37*
G36*
X165646742Y-96186601D02*
G01*
X165800687Y-96250367D01*
X165939234Y-96342941D01*
X166057059Y-96460766D01*
X166149633Y-96599313D01*
X166213399Y-96753258D01*
X166245907Y-96916685D01*
X166245907Y-97083315D01*
X166213399Y-97246742D01*
X166149633Y-97400687D01*
X166057059Y-97539234D01*
X165939234Y-97657059D01*
X165800687Y-97749633D01*
X165646742Y-97813399D01*
X165483315Y-97845907D01*
X165316685Y-97845907D01*
X165153258Y-97813399D01*
X164999313Y-97749633D01*
X164860766Y-97657059D01*
X164742941Y-97539234D01*
X164650367Y-97400687D01*
X164586601Y-97246742D01*
X164554093Y-97083315D01*
X164554093Y-96916685D01*
X164586601Y-96753258D01*
X164650367Y-96599313D01*
X164742941Y-96460766D01*
X164860766Y-96342941D01*
X164999313Y-96250367D01*
X165153258Y-96186601D01*
X165316685Y-96154093D01*
X165483315Y-96154093D01*
X165646742Y-96186601D01*
G37*
G36*
X176426742Y-95966601D02*
G01*
X176580687Y-96030367D01*
X176719234Y-96122941D01*
X176837059Y-96240766D01*
X176929633Y-96379313D01*
X176993399Y-96533258D01*
X177025907Y-96696685D01*
X177025907Y-96863315D01*
X176993399Y-97026742D01*
X176929633Y-97180687D01*
X176837059Y-97319234D01*
X176719234Y-97437059D01*
X176580687Y-97529633D01*
X176426742Y-97593399D01*
X176263315Y-97625907D01*
X176096685Y-97625907D01*
X175933258Y-97593399D01*
X175779313Y-97529633D01*
X175640766Y-97437059D01*
X175522941Y-97319234D01*
X175430367Y-97180687D01*
X175366601Y-97026742D01*
X175334093Y-96863315D01*
X175334093Y-96696685D01*
X175366601Y-96533258D01*
X175430367Y-96379313D01*
X175522941Y-96240766D01*
X175640766Y-96122941D01*
X175779313Y-96030367D01*
X175933258Y-95966601D01*
X176096685Y-95934093D01*
X176263315Y-95934093D01*
X176426742Y-95966601D01*
G37*
G36*
X171246742Y-95886601D02*
G01*
X171400687Y-95950367D01*
X171539234Y-96042941D01*
X171657059Y-96160766D01*
X171749633Y-96299313D01*
X171813399Y-96453258D01*
X171845907Y-96616685D01*
X171845907Y-96783315D01*
X171813399Y-96946742D01*
X171749633Y-97100687D01*
X171657059Y-97239234D01*
X171539234Y-97357059D01*
X171400687Y-97449633D01*
X171246742Y-97513399D01*
X171083315Y-97545907D01*
X170916685Y-97545907D01*
X170753258Y-97513399D01*
X170599313Y-97449633D01*
X170460766Y-97357059D01*
X170342941Y-97239234D01*
X170250367Y-97100687D01*
X170186601Y-96946742D01*
X170154093Y-96783315D01*
X170154093Y-96616685D01*
X170186601Y-96453258D01*
X170250367Y-96299313D01*
X170342941Y-96160766D01*
X170460766Y-96042941D01*
X170599313Y-95950367D01*
X170753258Y-95886601D01*
X170916685Y-95854093D01*
X171083315Y-95854093D01*
X171246742Y-95886601D01*
G37*
G36*
X165646742Y-93646601D02*
G01*
X165800687Y-93710367D01*
X165939234Y-93802941D01*
X166057059Y-93920766D01*
X166149633Y-94059313D01*
X166213399Y-94213258D01*
X166245907Y-94376685D01*
X166245907Y-94543315D01*
X166213399Y-94706742D01*
X166149633Y-94860687D01*
X166057059Y-94999234D01*
X165939234Y-95117059D01*
X165800687Y-95209633D01*
X165646742Y-95273399D01*
X165483315Y-95305907D01*
X165316685Y-95305907D01*
X165153258Y-95273399D01*
X164999313Y-95209633D01*
X164860766Y-95117059D01*
X164742941Y-94999234D01*
X164650367Y-94860687D01*
X164586601Y-94706742D01*
X164554093Y-94543315D01*
X164554093Y-94376685D01*
X164586601Y-94213258D01*
X164650367Y-94059313D01*
X164742941Y-93920766D01*
X164860766Y-93802941D01*
X164999313Y-93710367D01*
X165153258Y-93646601D01*
X165316685Y-93614093D01*
X165483315Y-93614093D01*
X165646742Y-93646601D01*
G37*
G36*
X176426742Y-93426601D02*
G01*
X176580687Y-93490367D01*
X176719234Y-93582941D01*
X176837059Y-93700766D01*
X176929633Y-93839313D01*
X176993399Y-93993258D01*
X177025907Y-94156685D01*
X177025907Y-94323315D01*
X176993399Y-94486742D01*
X176929633Y-94640687D01*
X176837059Y-94779234D01*
X176719234Y-94897059D01*
X176580687Y-94989633D01*
X176426742Y-95053399D01*
X176263315Y-95085907D01*
X176096685Y-95085907D01*
X175933258Y-95053399D01*
X175779313Y-94989633D01*
X175640766Y-94897059D01*
X175522941Y-94779234D01*
X175430367Y-94640687D01*
X175366601Y-94486742D01*
X175334093Y-94323315D01*
X175334093Y-94156685D01*
X175366601Y-93993258D01*
X175430367Y-93839313D01*
X175522941Y-93700766D01*
X175640766Y-93582941D01*
X175779313Y-93490367D01*
X175933258Y-93426601D01*
X176096685Y-93394093D01*
X176263315Y-93394093D01*
X176426742Y-93426601D01*
G37*
G36*
X171246742Y-93346601D02*
G01*
X171400687Y-93410367D01*
X171539234Y-93502941D01*
X171657059Y-93620766D01*
X171749633Y-93759313D01*
X171813399Y-93913258D01*
X171845907Y-94076685D01*
X171845907Y-94243315D01*
X171813399Y-94406742D01*
X171749633Y-94560687D01*
X171657059Y-94699234D01*
X171539234Y-94817059D01*
X171400687Y-94909633D01*
X171246742Y-94973399D01*
X171083315Y-95005907D01*
X170916685Y-95005907D01*
X170753258Y-94973399D01*
X170599313Y-94909633D01*
X170460766Y-94817059D01*
X170342941Y-94699234D01*
X170250367Y-94560687D01*
X170186601Y-94406742D01*
X170154093Y-94243315D01*
X170154093Y-94076685D01*
X170186601Y-93913258D01*
X170250367Y-93759313D01*
X170342941Y-93620766D01*
X170460766Y-93502941D01*
X170599313Y-93410367D01*
X170753258Y-93346601D01*
X170916685Y-93314093D01*
X171083315Y-93314093D01*
X171246742Y-93346601D01*
G37*
G36*
X184051537Y-93565224D02*
G01*
X184116421Y-93608579D01*
X184159776Y-93673463D01*
X184175000Y-93750000D01*
X184175000Y-94150000D01*
X184159776Y-94226537D01*
X184116421Y-94291421D01*
X184051537Y-94334776D01*
X183975000Y-94350000D01*
X183425000Y-94350000D01*
X183348463Y-94334776D01*
X183283579Y-94291421D01*
X183240224Y-94226537D01*
X183225000Y-94150000D01*
X183225000Y-93750000D01*
X183240224Y-93673463D01*
X183283579Y-93608579D01*
X183348463Y-93565224D01*
X183425000Y-93550000D01*
X183975000Y-93550000D01*
X184051537Y-93565224D01*
G37*
G36*
X193851537Y-93465224D02*
G01*
X193916421Y-93508579D01*
X193959776Y-93573463D01*
X193975000Y-93650000D01*
X193975000Y-94050000D01*
X193959776Y-94126537D01*
X193916421Y-94191421D01*
X193851537Y-94234776D01*
X193775000Y-94250000D01*
X193225000Y-94250000D01*
X193148463Y-94234776D01*
X193083579Y-94191421D01*
X193040224Y-94126537D01*
X193025000Y-94050000D01*
X193025000Y-93650000D01*
X193040224Y-93573463D01*
X193083579Y-93508579D01*
X193148463Y-93465224D01*
X193225000Y-93450000D01*
X193775000Y-93450000D01*
X193851537Y-93465224D01*
G37*
G36*
X189051537Y-93390224D02*
G01*
X189116421Y-93433579D01*
X189159776Y-93498463D01*
X189175000Y-93575000D01*
X189175000Y-93975000D01*
X189159776Y-94051537D01*
X189116421Y-94116421D01*
X189051537Y-94159776D01*
X188975000Y-94175000D01*
X188425000Y-94175000D01*
X188348463Y-94159776D01*
X188283579Y-94116421D01*
X188240224Y-94051537D01*
X188225000Y-93975000D01*
X188225000Y-93575000D01*
X188240224Y-93498463D01*
X188283579Y-93433579D01*
X188348463Y-93390224D01*
X188425000Y-93375000D01*
X188975000Y-93375000D01*
X189051537Y-93390224D01*
G37*
G36*
X165646742Y-91106601D02*
G01*
X165800687Y-91170367D01*
X165939234Y-91262941D01*
X166057059Y-91380766D01*
X166149633Y-91519313D01*
X166213399Y-91673258D01*
X166245907Y-91836685D01*
X166245907Y-92003315D01*
X166213399Y-92166742D01*
X166149633Y-92320687D01*
X166057059Y-92459234D01*
X165939234Y-92577059D01*
X165800687Y-92669633D01*
X165646742Y-92733399D01*
X165483315Y-92765907D01*
X165316685Y-92765907D01*
X165153258Y-92733399D01*
X164999313Y-92669633D01*
X164860766Y-92577059D01*
X164742941Y-92459234D01*
X164650367Y-92320687D01*
X164586601Y-92166742D01*
X164554093Y-92003315D01*
X164554093Y-91836685D01*
X164586601Y-91673258D01*
X164650367Y-91519313D01*
X164742941Y-91380766D01*
X164860766Y-91262941D01*
X164999313Y-91170367D01*
X165153258Y-91106601D01*
X165316685Y-91074093D01*
X165483315Y-91074093D01*
X165646742Y-91106601D01*
G37*
G36*
X184051537Y-91915224D02*
G01*
X184116421Y-91958579D01*
X184159776Y-92023463D01*
X184175000Y-92100000D01*
X184175000Y-92500000D01*
X184159776Y-92576537D01*
X184116421Y-92641421D01*
X184051537Y-92684776D01*
X183975000Y-92700000D01*
X183425000Y-92700000D01*
X183348463Y-92684776D01*
X183283579Y-92641421D01*
X183240224Y-92576537D01*
X183225000Y-92500000D01*
X183225000Y-92100000D01*
X183240224Y-92023463D01*
X183283579Y-91958579D01*
X183348463Y-91915224D01*
X183425000Y-91900000D01*
X183975000Y-91900000D01*
X184051537Y-91915224D01*
G37*
G36*
X193851537Y-91815224D02*
G01*
X193916421Y-91858579D01*
X193959776Y-91923463D01*
X193975000Y-92000000D01*
X193975000Y-92400000D01*
X193959776Y-92476537D01*
X193916421Y-92541421D01*
X193851537Y-92584776D01*
X193775000Y-92600000D01*
X193225000Y-92600000D01*
X193148463Y-92584776D01*
X193083579Y-92541421D01*
X193040224Y-92476537D01*
X193025000Y-92400000D01*
X193025000Y-92000000D01*
X193040224Y-91923463D01*
X193083579Y-91858579D01*
X193148463Y-91815224D01*
X193225000Y-91800000D01*
X193775000Y-91800000D01*
X193851537Y-91815224D01*
G37*
G36*
X176426742Y-90886601D02*
G01*
X176580687Y-90950367D01*
X176719234Y-91042941D01*
X176837059Y-91160766D01*
X176929633Y-91299313D01*
X176993399Y-91453258D01*
X177025907Y-91616685D01*
X177025907Y-91783315D01*
X176993399Y-91946742D01*
X176929633Y-92100687D01*
X176837059Y-92239234D01*
X176719234Y-92357059D01*
X176580687Y-92449633D01*
X176426742Y-92513399D01*
X176263315Y-92545907D01*
X176096685Y-92545907D01*
X175933258Y-92513399D01*
X175779313Y-92449633D01*
X175640766Y-92357059D01*
X175522941Y-92239234D01*
X175430367Y-92100687D01*
X175366601Y-91946742D01*
X175334093Y-91783315D01*
X175334093Y-91616685D01*
X175366601Y-91453258D01*
X175430367Y-91299313D01*
X175522941Y-91160766D01*
X175640766Y-91042941D01*
X175779313Y-90950367D01*
X175933258Y-90886601D01*
X176096685Y-90854093D01*
X176263315Y-90854093D01*
X176426742Y-90886601D01*
G37*
G36*
X189051537Y-91740224D02*
G01*
X189116421Y-91783579D01*
X189159776Y-91848463D01*
X189175000Y-91925000D01*
X189175000Y-92325000D01*
X189159776Y-92401537D01*
X189116421Y-92466421D01*
X189051537Y-92509776D01*
X188975000Y-92525000D01*
X188425000Y-92525000D01*
X188348463Y-92509776D01*
X188283579Y-92466421D01*
X188240224Y-92401537D01*
X188225000Y-92325000D01*
X188225000Y-91925000D01*
X188240224Y-91848463D01*
X188283579Y-91783579D01*
X188348463Y-91740224D01*
X188425000Y-91725000D01*
X188975000Y-91725000D01*
X189051537Y-91740224D01*
G37*
G36*
X171246742Y-90806601D02*
G01*
X171400687Y-90870367D01*
X171539234Y-90962941D01*
X171657059Y-91080766D01*
X171749633Y-91219313D01*
X171813399Y-91373258D01*
X171845907Y-91536685D01*
X171845907Y-91703315D01*
X171813399Y-91866742D01*
X171749633Y-92020687D01*
X171657059Y-92159234D01*
X171539234Y-92277059D01*
X171400687Y-92369633D01*
X171246742Y-92433399D01*
X171083315Y-92465907D01*
X170916685Y-92465907D01*
X170753258Y-92433399D01*
X170599313Y-92369633D01*
X170460766Y-92277059D01*
X170342941Y-92159234D01*
X170250367Y-92020687D01*
X170186601Y-91866742D01*
X170154093Y-91703315D01*
X170154093Y-91536685D01*
X170186601Y-91373258D01*
X170250367Y-91219313D01*
X170342941Y-91080766D01*
X170460766Y-90962941D01*
X170599313Y-90870367D01*
X170753258Y-90806601D01*
X170916685Y-90774093D01*
X171083315Y-90774093D01*
X171246742Y-90806601D01*
G37*
G36*
X180339037Y-89845224D02*
G01*
X180403921Y-89888579D01*
X180447276Y-89953463D01*
X180462500Y-90030000D01*
X180462500Y-90430000D01*
X180447276Y-90506537D01*
X180403921Y-90571421D01*
X180339037Y-90614776D01*
X180262500Y-90630000D01*
X179712500Y-90630000D01*
X179635963Y-90614776D01*
X179571079Y-90571421D01*
X179527724Y-90506537D01*
X179512500Y-90430000D01*
X179512500Y-90030000D01*
X179527724Y-89953463D01*
X179571079Y-89888579D01*
X179635963Y-89845224D01*
X179712500Y-89830000D01*
X180262500Y-89830000D01*
X180339037Y-89845224D01*
G37*
G36*
X165646742Y-88566601D02*
G01*
X165800687Y-88630367D01*
X165939234Y-88722941D01*
X166057059Y-88840766D01*
X166149633Y-88979313D01*
X166213399Y-89133258D01*
X166245907Y-89296685D01*
X166245907Y-89463315D01*
X166213399Y-89626742D01*
X166149633Y-89780687D01*
X166057059Y-89919234D01*
X165939234Y-90037059D01*
X165800687Y-90129633D01*
X165646742Y-90193399D01*
X165483315Y-90225907D01*
X165316685Y-90225907D01*
X165153258Y-90193399D01*
X164999313Y-90129633D01*
X164860766Y-90037059D01*
X164742941Y-89919234D01*
X164650367Y-89780687D01*
X164586601Y-89626742D01*
X164554093Y-89463315D01*
X164554093Y-89296685D01*
X164586601Y-89133258D01*
X164650367Y-88979313D01*
X164742941Y-88840766D01*
X164860766Y-88722941D01*
X164999313Y-88630367D01*
X165153258Y-88566601D01*
X165316685Y-88534093D01*
X165483315Y-88534093D01*
X165646742Y-88566601D01*
G37*
G36*
X180339037Y-88195224D02*
G01*
X180403921Y-88238579D01*
X180447276Y-88303463D01*
X180462500Y-88380000D01*
X180462500Y-88780000D01*
X180447276Y-88856537D01*
X180403921Y-88921421D01*
X180339037Y-88964776D01*
X180262500Y-88980000D01*
X179712500Y-88980000D01*
X179635963Y-88964776D01*
X179571079Y-88921421D01*
X179527724Y-88856537D01*
X179512500Y-88780000D01*
X179512500Y-88380000D01*
X179527724Y-88303463D01*
X179571079Y-88238579D01*
X179635963Y-88195224D01*
X179712500Y-88180000D01*
X180262500Y-88180000D01*
X180339037Y-88195224D01*
G37*
G36*
X165646742Y-86026601D02*
G01*
X165800687Y-86090367D01*
X165939234Y-86182941D01*
X166057059Y-86300766D01*
X166149633Y-86439313D01*
X166213399Y-86593258D01*
X166245907Y-86756685D01*
X166245907Y-86923315D01*
X166213399Y-87086742D01*
X166149633Y-87240687D01*
X166057059Y-87379234D01*
X165939234Y-87497059D01*
X165800687Y-87589633D01*
X165646742Y-87653399D01*
X165483315Y-87685907D01*
X165316685Y-87685907D01*
X165153258Y-87653399D01*
X164999313Y-87589633D01*
X164860766Y-87497059D01*
X164742941Y-87379234D01*
X164650367Y-87240687D01*
X164586601Y-87086742D01*
X164554093Y-86923315D01*
X164554093Y-86756685D01*
X164586601Y-86593258D01*
X164650367Y-86439313D01*
X164742941Y-86300766D01*
X164860766Y-86182941D01*
X164999313Y-86090367D01*
X165153258Y-86026601D01*
X165316685Y-85994093D01*
X165483315Y-85994093D01*
X165646742Y-86026601D01*
G37*
G36*
X179542500Y-86400000D02*
G01*
X178642500Y-86400000D01*
X178642500Y-84900000D01*
X179542500Y-84900000D01*
X179542500Y-86400000D01*
G37*
G36*
X180812500Y-86400000D02*
G01*
X179912500Y-86400000D01*
X179912500Y-84900000D01*
X180812500Y-84900000D01*
X180812500Y-86400000D01*
G37*
G36*
X182082500Y-86400000D02*
G01*
X181182500Y-86400000D01*
X181182500Y-84900000D01*
X182082500Y-84900000D01*
X182082500Y-86400000D01*
G37*
G36*
X183352500Y-86400000D02*
G01*
X182452500Y-86400000D01*
X182452500Y-84900000D01*
X183352500Y-84900000D01*
X183352500Y-86400000D01*
G37*
G36*
X184622500Y-86400000D02*
G01*
X183722500Y-86400000D01*
X183722500Y-84900000D01*
X184622500Y-84900000D01*
X184622500Y-86400000D01*
G37*
G36*
X185892500Y-86400000D02*
G01*
X184992500Y-86400000D01*
X184992500Y-84900000D01*
X185892500Y-84900000D01*
X185892500Y-86400000D01*
G37*
G36*
X187162500Y-86400000D02*
G01*
X186262500Y-86400000D01*
X186262500Y-84900000D01*
X187162500Y-84900000D01*
X187162500Y-86400000D01*
G37*
G36*
X188432500Y-86400000D02*
G01*
X187532500Y-86400000D01*
X187532500Y-84900000D01*
X188432500Y-84900000D01*
X188432500Y-86400000D01*
G37*
G36*
X189702500Y-86400000D02*
G01*
X188802500Y-86400000D01*
X188802500Y-84900000D01*
X189702500Y-84900000D01*
X189702500Y-86400000D01*
G37*
G36*
X190972500Y-86400000D02*
G01*
X190072500Y-86400000D01*
X190072500Y-84900000D01*
X190972500Y-84900000D01*
X190972500Y-86400000D01*
G37*
G36*
X192242500Y-86400000D02*
G01*
X191342500Y-86400000D01*
X191342500Y-84900000D01*
X192242500Y-84900000D01*
X192242500Y-86400000D01*
G37*
G36*
X193512500Y-86400000D02*
G01*
X192612500Y-86400000D01*
X192612500Y-84900000D01*
X193512500Y-84900000D01*
X193512500Y-86400000D01*
G37*
G36*
X194782500Y-86400000D02*
G01*
X193882500Y-86400000D01*
X193882500Y-84900000D01*
X194782500Y-84900000D01*
X194782500Y-86400000D01*
G37*
G36*
X196052500Y-86400000D02*
G01*
X195152500Y-86400000D01*
X195152500Y-84900000D01*
X196052500Y-84900000D01*
X196052500Y-86400000D01*
G37*
G36*
X171191342Y-84738060D02*
G01*
X171304381Y-84803323D01*
X171396677Y-84895619D01*
X171461940Y-85008658D01*
X171495722Y-85134737D01*
X171495722Y-85265263D01*
X171461940Y-85391342D01*
X171396677Y-85504381D01*
X171304381Y-85596677D01*
X171191342Y-85661940D01*
X171065263Y-85695722D01*
X170934737Y-85695722D01*
X170808658Y-85661940D01*
X170695619Y-85596677D01*
X170603323Y-85504381D01*
X170538060Y-85391342D01*
X170504278Y-85265263D01*
X170504278Y-85134737D01*
X170538060Y-85008658D01*
X170603323Y-84895619D01*
X170695619Y-84803323D01*
X170808658Y-84738060D01*
X170934737Y-84704278D01*
X171065263Y-84704278D01*
X171191342Y-84738060D01*
G37*
G36*
X178592500Y-83070000D02*
G01*
X177092500Y-83070000D01*
X177092500Y-82170000D01*
X178592500Y-82170000D01*
X178592500Y-83070000D01*
G37*
G36*
X171191342Y-81688060D02*
G01*
X171304381Y-81753323D01*
X171396677Y-81845619D01*
X171461940Y-81958658D01*
X171495722Y-82084737D01*
X171495722Y-82215263D01*
X171461940Y-82341342D01*
X171396677Y-82454381D01*
X171304381Y-82546677D01*
X171191342Y-82611940D01*
X171065263Y-82645722D01*
X170934737Y-82645722D01*
X170808658Y-82611940D01*
X170695619Y-82546677D01*
X170603323Y-82454381D01*
X170538060Y-82341342D01*
X170504278Y-82215263D01*
X170504278Y-82084737D01*
X170538060Y-81958658D01*
X170603323Y-81845619D01*
X170695619Y-81753323D01*
X170808658Y-81688060D01*
X170934737Y-81654278D01*
X171065263Y-81654278D01*
X171191342Y-81688060D01*
G37*
G36*
X178592500Y-81800000D02*
G01*
X177092500Y-81800000D01*
X177092500Y-80900000D01*
X178592500Y-80900000D01*
X178592500Y-81800000D01*
G37*
G36*
X178592500Y-80530000D02*
G01*
X177092500Y-80530000D01*
X177092500Y-79630000D01*
X178592500Y-79630000D01*
X178592500Y-80530000D01*
G37*
G36*
X171191342Y-78638060D02*
G01*
X171304381Y-78703323D01*
X171396677Y-78795619D01*
X171461940Y-78908658D01*
X171495722Y-79034737D01*
X171495722Y-79165263D01*
X171461940Y-79291342D01*
X171396677Y-79404381D01*
X171304381Y-79496677D01*
X171191342Y-79561940D01*
X171065263Y-79595722D01*
X170934737Y-79595722D01*
X170808658Y-79561940D01*
X170695619Y-79496677D01*
X170603323Y-79404381D01*
X170538060Y-79291342D01*
X170504278Y-79165263D01*
X170504278Y-79034737D01*
X170538060Y-78908658D01*
X170603323Y-78795619D01*
X170695619Y-78703323D01*
X170808658Y-78638060D01*
X170934737Y-78604278D01*
X171065263Y-78604278D01*
X171191342Y-78638060D01*
G37*
G36*
X178592500Y-79260000D02*
G01*
X177092500Y-79260000D01*
X177092500Y-78360000D01*
X178592500Y-78360000D01*
X178592500Y-79260000D01*
G37*
G36*
X190362500Y-78320000D02*
G01*
X186162500Y-78320000D01*
X186162500Y-74120000D01*
X190362500Y-74120000D01*
X190362500Y-78320000D01*
G37*
G36*
X178592500Y-77990000D02*
G01*
X177092500Y-77990000D01*
X177092500Y-77090000D01*
X178592500Y-77090000D01*
X178592500Y-77990000D01*
G37*
G36*
X178592500Y-76720000D02*
G01*
X177092500Y-76720000D01*
X177092500Y-75820000D01*
X178592500Y-75820000D01*
X178592500Y-76720000D01*
G37*
G36*
X171191342Y-75588060D02*
G01*
X171304381Y-75653323D01*
X171396677Y-75745619D01*
X171461940Y-75858658D01*
X171495722Y-75984737D01*
X171495722Y-76115263D01*
X171461940Y-76241342D01*
X171396677Y-76354381D01*
X171304381Y-76446677D01*
X171191342Y-76511940D01*
X171065263Y-76545722D01*
X170934737Y-76545722D01*
X170808658Y-76511940D01*
X170695619Y-76446677D01*
X170603323Y-76354381D01*
X170538060Y-76241342D01*
X170504278Y-76115263D01*
X170504278Y-75984737D01*
X170538060Y-75858658D01*
X170603323Y-75745619D01*
X170695619Y-75653323D01*
X170808658Y-75588060D01*
X170934737Y-75554278D01*
X171065263Y-75554278D01*
X171191342Y-75588060D01*
G37*
G36*
X178592500Y-75450000D02*
G01*
X177092500Y-75450000D01*
X177092500Y-74550000D01*
X178592500Y-74550000D01*
X178592500Y-75450000D01*
G37*
G36*
X178592500Y-74180000D02*
G01*
X177092500Y-74180000D01*
X177092500Y-73280000D01*
X178592500Y-73280000D01*
X178592500Y-74180000D01*
G37*
G36*
X171191342Y-72538060D02*
G01*
X171304381Y-72603323D01*
X171396677Y-72695619D01*
X171461940Y-72808658D01*
X171495722Y-72934737D01*
X171495722Y-73065263D01*
X171461940Y-73191342D01*
X171396677Y-73304381D01*
X171304381Y-73396677D01*
X171191342Y-73461940D01*
X171065263Y-73495722D01*
X170934737Y-73495722D01*
X170808658Y-73461940D01*
X170695619Y-73396677D01*
X170603323Y-73304381D01*
X170538060Y-73191342D01*
X170504278Y-73065263D01*
X170504278Y-72934737D01*
X170538060Y-72808658D01*
X170603323Y-72695619D01*
X170695619Y-72603323D01*
X170808658Y-72538060D01*
X170934737Y-72504278D01*
X171065263Y-72504278D01*
X171191342Y-72538060D01*
G37*
G36*
X178592500Y-72910000D02*
G01*
X177092500Y-72910000D01*
X177092500Y-72010000D01*
X178592500Y-72010000D01*
X178592500Y-72910000D01*
G37*
G36*
X178592500Y-71640000D02*
G01*
X177092500Y-71640000D01*
X177092500Y-70740000D01*
X178592500Y-70740000D01*
X178592500Y-71640000D01*
G37*
G36*
X179542500Y-68900000D02*
G01*
X178642500Y-68900000D01*
X178642500Y-67400000D01*
X179542500Y-67400000D01*
X179542500Y-68900000D01*
G37*
G36*
X180812500Y-68900000D02*
G01*
X179912500Y-68900000D01*
X179912500Y-67400000D01*
X180812500Y-67400000D01*
X180812500Y-68900000D01*
G37*
G36*
X182082500Y-68900000D02*
G01*
X181182500Y-68900000D01*
X181182500Y-67400000D01*
X182082500Y-67400000D01*
X182082500Y-68900000D01*
G37*
G36*
X183352500Y-68900000D02*
G01*
X182452500Y-68900000D01*
X182452500Y-67400000D01*
X183352500Y-67400000D01*
X183352500Y-68900000D01*
G37*
G36*
X184622500Y-68900000D02*
G01*
X183722500Y-68900000D01*
X183722500Y-67400000D01*
X184622500Y-67400000D01*
X184622500Y-68900000D01*
G37*
G36*
X185892500Y-68900000D02*
G01*
X184992500Y-68900000D01*
X184992500Y-67400000D01*
X185892500Y-67400000D01*
X185892500Y-68900000D01*
G37*
G36*
X187162500Y-68900000D02*
G01*
X186262500Y-68900000D01*
X186262500Y-67400000D01*
X187162500Y-67400000D01*
X187162500Y-68900000D01*
G37*
G36*
X188432500Y-68900000D02*
G01*
X187532500Y-68900000D01*
X187532500Y-67400000D01*
X188432500Y-67400000D01*
X188432500Y-68900000D01*
G37*
G36*
X189702500Y-68900000D02*
G01*
X188802500Y-68900000D01*
X188802500Y-67400000D01*
X189702500Y-67400000D01*
X189702500Y-68900000D01*
G37*
G36*
X190972500Y-68900000D02*
G01*
X190072500Y-68900000D01*
X190072500Y-67400000D01*
X190972500Y-67400000D01*
X190972500Y-68900000D01*
G37*
G36*
X192242500Y-68900000D02*
G01*
X191342500Y-68900000D01*
X191342500Y-67400000D01*
X192242500Y-67400000D01*
X192242500Y-68900000D01*
G37*
G36*
X193512500Y-68900000D02*
G01*
X192612500Y-68900000D01*
X192612500Y-67400000D01*
X193512500Y-67400000D01*
X193512500Y-68900000D01*
G37*
G36*
X194782500Y-68900000D02*
G01*
X193882500Y-68900000D01*
X193882500Y-67400000D01*
X194782500Y-67400000D01*
X194782500Y-68900000D01*
G37*
G36*
X196052500Y-68900000D02*
G01*
X195152500Y-68900000D01*
X195152500Y-67400000D01*
X196052500Y-67400000D01*
X196052500Y-68900000D01*
G37*
G36*
X167050000Y-68300000D02*
G01*
X166750000Y-68300000D01*
X166750000Y-67400000D01*
X167050000Y-67400000D01*
X167050000Y-68300000D01*
G37*
G36*
X167550000Y-68300000D02*
G01*
X167250000Y-68300000D01*
X167250000Y-67400000D01*
X167550000Y-67400000D01*
X167550000Y-68300000D01*
G37*
G36*
X168050000Y-68300000D02*
G01*
X167750000Y-68300000D01*
X167750000Y-67400000D01*
X168050000Y-67400000D01*
X168050000Y-68300000D01*
G37*
G36*
X168550000Y-68300000D02*
G01*
X168250000Y-68300000D01*
X168250000Y-67400000D01*
X168550000Y-67400000D01*
X168550000Y-68300000D01*
G37*
G36*
X166550000Y-67700000D02*
G01*
X166250000Y-67700000D01*
X166250000Y-67400000D01*
X166550000Y-67400000D01*
X166550000Y-67700000D01*
G37*
G36*
X169050000Y-67700000D02*
G01*
X168750000Y-67700000D01*
X168750000Y-67400000D01*
X169050000Y-67400000D01*
X169050000Y-67700000D01*
G37*
G36*
X166550000Y-67200000D02*
G01*
X165650000Y-67200000D01*
X165650000Y-66900000D01*
X166550000Y-66900000D01*
X166550000Y-67200000D01*
G37*
G36*
X168550000Y-67200000D02*
G01*
X166750000Y-67200000D01*
X166750000Y-65400000D01*
X168550000Y-65400000D01*
X168550000Y-67200000D01*
G37*
G36*
X169650000Y-67200000D02*
G01*
X168750000Y-67200000D01*
X168750000Y-66900000D01*
X169650000Y-66900000D01*
X169650000Y-67200000D01*
G37*
G36*
X166550000Y-66700000D02*
G01*
X165650000Y-66700000D01*
X165650000Y-66400000D01*
X166550000Y-66400000D01*
X166550000Y-66700000D01*
G37*
G36*
X169650000Y-66700000D02*
G01*
X168750000Y-66700000D01*
X168750000Y-66400000D01*
X169650000Y-66400000D01*
X169650000Y-66700000D01*
G37*
G36*
X172757403Y-65936418D02*
G01*
X172806066Y-65968934D01*
X172838582Y-66017597D01*
X172850000Y-66075000D01*
X172850000Y-66475000D01*
X172838582Y-66532403D01*
X172806066Y-66581066D01*
X172757403Y-66613582D01*
X172700000Y-66625000D01*
X172400000Y-66625000D01*
X172342597Y-66613582D01*
X172293934Y-66581066D01*
X172261418Y-66532403D01*
X172250000Y-66475000D01*
X172250000Y-66075000D01*
X172261418Y-66017597D01*
X172293934Y-65968934D01*
X172342597Y-65936418D01*
X172400000Y-65925000D01*
X172700000Y-65925000D01*
X172757403Y-65936418D01*
G37*
G36*
X174657403Y-65936418D02*
G01*
X174706066Y-65968934D01*
X174738582Y-66017597D01*
X174750000Y-66075000D01*
X174750000Y-66475000D01*
X174738582Y-66532403D01*
X174706066Y-66581066D01*
X174657403Y-66613582D01*
X174600000Y-66625000D01*
X174300000Y-66625000D01*
X174242597Y-66613582D01*
X174193934Y-66581066D01*
X174161418Y-66532403D01*
X174150000Y-66475000D01*
X174150000Y-66075000D01*
X174161418Y-66017597D01*
X174193934Y-65968934D01*
X174242597Y-65936418D01*
X174300000Y-65925000D01*
X174600000Y-65925000D01*
X174657403Y-65936418D01*
G37*
G36*
X166550000Y-66200000D02*
G01*
X165650000Y-66200000D01*
X165650000Y-65900000D01*
X166550000Y-65900000D01*
X166550000Y-66200000D01*
G37*
G36*
X169650000Y-66200000D02*
G01*
X168750000Y-66200000D01*
X168750000Y-65900000D01*
X169650000Y-65900000D01*
X169650000Y-66200000D01*
G37*
G36*
X193276537Y-64940224D02*
G01*
X193341421Y-64983579D01*
X193384776Y-65048463D01*
X193400000Y-65125000D01*
X193400000Y-65675000D01*
X193384776Y-65751537D01*
X193341421Y-65816421D01*
X193276537Y-65859776D01*
X193200000Y-65875000D01*
X192800000Y-65875000D01*
X192723463Y-65859776D01*
X192658579Y-65816421D01*
X192615224Y-65751537D01*
X192600000Y-65675000D01*
X192600000Y-65125000D01*
X192615224Y-65048463D01*
X192658579Y-64983579D01*
X192723463Y-64940224D01*
X192800000Y-64925000D01*
X193200000Y-64925000D01*
X193276537Y-64940224D01*
G37*
G36*
X194926537Y-64940224D02*
G01*
X194991421Y-64983579D01*
X195034776Y-65048463D01*
X195050000Y-65125000D01*
X195050000Y-65675000D01*
X195034776Y-65751537D01*
X194991421Y-65816421D01*
X194926537Y-65859776D01*
X194850000Y-65875000D01*
X194450000Y-65875000D01*
X194373463Y-65859776D01*
X194308579Y-65816421D01*
X194265224Y-65751537D01*
X194250000Y-65675000D01*
X194250000Y-65125000D01*
X194265224Y-65048463D01*
X194308579Y-64983579D01*
X194373463Y-64940224D01*
X194450000Y-64925000D01*
X194850000Y-64925000D01*
X194926537Y-64940224D01*
G37*
G36*
X190061104Y-64842127D02*
G01*
X190134099Y-64890901D01*
X190182873Y-64963896D01*
X190200000Y-65050000D01*
X190200000Y-65550000D01*
X190182873Y-65636104D01*
X190134099Y-65709099D01*
X190061104Y-65757873D01*
X189975000Y-65775000D01*
X189525000Y-65775000D01*
X189438896Y-65757873D01*
X189365901Y-65709099D01*
X189317127Y-65636104D01*
X189300000Y-65550000D01*
X189300000Y-65050000D01*
X189317127Y-64963896D01*
X189365901Y-64890901D01*
X189438896Y-64842127D01*
X189525000Y-64825000D01*
X189975000Y-64825000D01*
X190061104Y-64842127D01*
G37*
G36*
X191611104Y-64842127D02*
G01*
X191684099Y-64890901D01*
X191732873Y-64963896D01*
X191750000Y-65050000D01*
X191750000Y-65550000D01*
X191732873Y-65636104D01*
X191684099Y-65709099D01*
X191611104Y-65757873D01*
X191525000Y-65775000D01*
X191075000Y-65775000D01*
X190988896Y-65757873D01*
X190915901Y-65709099D01*
X190867127Y-65636104D01*
X190850000Y-65550000D01*
X190850000Y-65050000D01*
X190867127Y-64963896D01*
X190915901Y-64890901D01*
X190988896Y-64842127D01*
X191075000Y-64825000D01*
X191525000Y-64825000D01*
X191611104Y-64842127D01*
G37*
G36*
X166550000Y-65700000D02*
G01*
X165650000Y-65700000D01*
X165650000Y-65400000D01*
X166550000Y-65400000D01*
X166550000Y-65700000D01*
G37*
G36*
X169650000Y-65700000D02*
G01*
X168750000Y-65700000D01*
X168750000Y-65400000D01*
X169650000Y-65400000D01*
X169650000Y-65700000D01*
G37*
G36*
X166550000Y-65200000D02*
G01*
X166250000Y-65200000D01*
X166250000Y-64900000D01*
X166550000Y-64900000D01*
X166550000Y-65200000D01*
G37*
G36*
X167050000Y-65200000D02*
G01*
X166750000Y-65200000D01*
X166750000Y-64300000D01*
X167050000Y-64300000D01*
X167050000Y-65200000D01*
G37*
G36*
X167550000Y-65200000D02*
G01*
X167250000Y-65200000D01*
X167250000Y-64300000D01*
X167550000Y-64300000D01*
X167550000Y-65200000D01*
G37*
G36*
X168050000Y-65200000D02*
G01*
X167750000Y-65200000D01*
X167750000Y-64300000D01*
X168050000Y-64300000D01*
X168050000Y-65200000D01*
G37*
G36*
X168550000Y-65200000D02*
G01*
X168250000Y-65200000D01*
X168250000Y-64300000D01*
X168550000Y-64300000D01*
X168550000Y-65200000D01*
G37*
G36*
X169050000Y-65200000D02*
G01*
X168750000Y-65200000D01*
X168750000Y-64900000D01*
X169050000Y-64900000D01*
X169050000Y-65200000D01*
G37*
G36*
X172757403Y-63936418D02*
G01*
X172806066Y-63968934D01*
X172838582Y-64017597D01*
X172850000Y-64075000D01*
X172850000Y-64475000D01*
X172838582Y-64532403D01*
X172806066Y-64581066D01*
X172757403Y-64613582D01*
X172700000Y-64625000D01*
X172400000Y-64625000D01*
X172342597Y-64613582D01*
X172293934Y-64581066D01*
X172261418Y-64532403D01*
X172250000Y-64475000D01*
X172250000Y-64075000D01*
X172261418Y-64017597D01*
X172293934Y-63968934D01*
X172342597Y-63936418D01*
X172400000Y-63925000D01*
X172700000Y-63925000D01*
X172757403Y-63936418D01*
G37*
G36*
X174641970Y-63938321D02*
G01*
X174698744Y-63976256D01*
X174736679Y-64033030D01*
X174750000Y-64100000D01*
X174750000Y-64450000D01*
X174736679Y-64516970D01*
X174698744Y-64573744D01*
X174641970Y-64611679D01*
X174575000Y-64625000D01*
X173925000Y-64625000D01*
X173858030Y-64611679D01*
X173801256Y-64573744D01*
X173763321Y-64516970D01*
X173750000Y-64450000D01*
X173750000Y-64100000D01*
X173763321Y-64033030D01*
X173801256Y-63976256D01*
X173858030Y-63938321D01*
X173925000Y-63925000D01*
X174575000Y-63925000D01*
X174641970Y-63938321D01*
G37*
G36*
X172686104Y-61917127D02*
G01*
X172759099Y-61965901D01*
X172807873Y-62038896D01*
X172825000Y-62125000D01*
X172825000Y-62575000D01*
X172807873Y-62661104D01*
X172759099Y-62734099D01*
X172686104Y-62782873D01*
X172600000Y-62800000D01*
X172100000Y-62800000D01*
X172013896Y-62782873D01*
X171940901Y-62734099D01*
X171892127Y-62661104D01*
X171875000Y-62575000D01*
X171875000Y-62125000D01*
X171892127Y-62038896D01*
X171940901Y-61965901D01*
X172013896Y-61917127D01*
X172100000Y-61900000D01*
X172600000Y-61900000D01*
X172686104Y-61917127D01*
G37*
G36*
X164951537Y-61990224D02*
G01*
X165016421Y-62033579D01*
X165059776Y-62098463D01*
X165075000Y-62175000D01*
X165075000Y-62575000D01*
X165059776Y-62651537D01*
X165016421Y-62716421D01*
X164951537Y-62759776D01*
X164875000Y-62775000D01*
X164325000Y-62775000D01*
X164248463Y-62759776D01*
X164183579Y-62716421D01*
X164140224Y-62651537D01*
X164125000Y-62575000D01*
X164125000Y-62175000D01*
X164140224Y-62098463D01*
X164183579Y-62033579D01*
X164248463Y-61990224D01*
X164325000Y-61975000D01*
X164875000Y-61975000D01*
X164951537Y-61990224D01*
G37*
G36*
X168736104Y-61867127D02*
G01*
X168809099Y-61915901D01*
X168857873Y-61988896D01*
X168875000Y-62075000D01*
X168875000Y-62525000D01*
X168857873Y-62611104D01*
X168809099Y-62684099D01*
X168736104Y-62732873D01*
X168650000Y-62750000D01*
X168150000Y-62750000D01*
X168063896Y-62732873D01*
X167990901Y-62684099D01*
X167942127Y-62611104D01*
X167925000Y-62525000D01*
X167925000Y-62075000D01*
X167942127Y-61988896D01*
X167990901Y-61915901D01*
X168063896Y-61867127D01*
X168150000Y-61850000D01*
X168650000Y-61850000D01*
X168736104Y-61867127D01*
G37*
G36*
X170836104Y-61867127D02*
G01*
X170909099Y-61915901D01*
X170957873Y-61988896D01*
X170975000Y-62075000D01*
X170975000Y-62525000D01*
X170957873Y-62611104D01*
X170909099Y-62684099D01*
X170836104Y-62732873D01*
X170750000Y-62750000D01*
X170250000Y-62750000D01*
X170163896Y-62732873D01*
X170090901Y-62684099D01*
X170042127Y-62611104D01*
X170025000Y-62525000D01*
X170025000Y-62075000D01*
X170042127Y-61988896D01*
X170090901Y-61915901D01*
X170163896Y-61867127D01*
X170250000Y-61850000D01*
X170750000Y-61850000D01*
X170836104Y-61867127D01*
G37*
G36*
X166836104Y-61842127D02*
G01*
X166909099Y-61890901D01*
X166957873Y-61963896D01*
X166975000Y-62050000D01*
X166975000Y-62500000D01*
X166957873Y-62586104D01*
X166909099Y-62659099D01*
X166836104Y-62707873D01*
X166750000Y-62725000D01*
X166250000Y-62725000D01*
X166163896Y-62707873D01*
X166090901Y-62659099D01*
X166042127Y-62586104D01*
X166025000Y-62500000D01*
X166025000Y-62050000D01*
X166042127Y-61963896D01*
X166090901Y-61890901D01*
X166163896Y-61842127D01*
X166250000Y-61825000D01*
X166750000Y-61825000D01*
X166836104Y-61842127D01*
G37*
G36*
X160951537Y-61690224D02*
G01*
X161016421Y-61733579D01*
X161059776Y-61798463D01*
X161075000Y-61875000D01*
X161075000Y-62425000D01*
X161059776Y-62501537D01*
X161016421Y-62566421D01*
X160951537Y-62609776D01*
X160875000Y-62625000D01*
X160475000Y-62625000D01*
X160398463Y-62609776D01*
X160333579Y-62566421D01*
X160290224Y-62501537D01*
X160275000Y-62425000D01*
X160275000Y-61875000D01*
X160290224Y-61798463D01*
X160333579Y-61733579D01*
X160398463Y-61690224D01*
X160475000Y-61675000D01*
X160875000Y-61675000D01*
X160951537Y-61690224D01*
G37*
G36*
X162601537Y-61690224D02*
G01*
X162666421Y-61733579D01*
X162709776Y-61798463D01*
X162725000Y-61875000D01*
X162725000Y-62425000D01*
X162709776Y-62501537D01*
X162666421Y-62566421D01*
X162601537Y-62609776D01*
X162525000Y-62625000D01*
X162125000Y-62625000D01*
X162048463Y-62609776D01*
X161983579Y-62566421D01*
X161940224Y-62501537D01*
X161925000Y-62425000D01*
X161925000Y-61875000D01*
X161940224Y-61798463D01*
X161983579Y-61733579D01*
X162048463Y-61690224D01*
X162125000Y-61675000D01*
X162525000Y-61675000D01*
X162601537Y-61690224D01*
G37*
G36*
X172686104Y-60367127D02*
G01*
X172759099Y-60415901D01*
X172807873Y-60488896D01*
X172825000Y-60575000D01*
X172825000Y-61025000D01*
X172807873Y-61111104D01*
X172759099Y-61184099D01*
X172686104Y-61232873D01*
X172600000Y-61250000D01*
X172100000Y-61250000D01*
X172013896Y-61232873D01*
X171940901Y-61184099D01*
X171892127Y-61111104D01*
X171875000Y-61025000D01*
X171875000Y-60575000D01*
X171892127Y-60488896D01*
X171940901Y-60415901D01*
X172013896Y-60367127D01*
X172100000Y-60350000D01*
X172600000Y-60350000D01*
X172686104Y-60367127D01*
G37*
G36*
X168736104Y-60317127D02*
G01*
X168809099Y-60365901D01*
X168857873Y-60438896D01*
X168875000Y-60525000D01*
X168875000Y-60975000D01*
X168857873Y-61061104D01*
X168809099Y-61134099D01*
X168736104Y-61182873D01*
X168650000Y-61200000D01*
X168150000Y-61200000D01*
X168063896Y-61182873D01*
X167990901Y-61134099D01*
X167942127Y-61061104D01*
X167925000Y-60975000D01*
X167925000Y-60525000D01*
X167942127Y-60438896D01*
X167990901Y-60365901D01*
X168063896Y-60317127D01*
X168150000Y-60300000D01*
X168650000Y-60300000D01*
X168736104Y-60317127D01*
G37*
G36*
X170836104Y-60317127D02*
G01*
X170909099Y-60365901D01*
X170957873Y-60438896D01*
X170975000Y-60525000D01*
X170975000Y-60975000D01*
X170957873Y-61061104D01*
X170909099Y-61134099D01*
X170836104Y-61182873D01*
X170750000Y-61200000D01*
X170250000Y-61200000D01*
X170163896Y-61182873D01*
X170090901Y-61134099D01*
X170042127Y-61061104D01*
X170025000Y-60975000D01*
X170025000Y-60525000D01*
X170042127Y-60438896D01*
X170090901Y-60365901D01*
X170163896Y-60317127D01*
X170250000Y-60300000D01*
X170750000Y-60300000D01*
X170836104Y-60317127D01*
G37*
G36*
X166836104Y-60292127D02*
G01*
X166909099Y-60340901D01*
X166957873Y-60413896D01*
X166975000Y-60500000D01*
X166975000Y-60950000D01*
X166957873Y-61036104D01*
X166909099Y-61109099D01*
X166836104Y-61157873D01*
X166750000Y-61175000D01*
X166250000Y-61175000D01*
X166163896Y-61157873D01*
X166090901Y-61109099D01*
X166042127Y-61036104D01*
X166025000Y-60950000D01*
X166025000Y-60500000D01*
X166042127Y-60413896D01*
X166090901Y-60340901D01*
X166163896Y-60292127D01*
X166250000Y-60275000D01*
X166750000Y-60275000D01*
X166836104Y-60292127D01*
G37*
G36*
X164951537Y-60340224D02*
G01*
X165016421Y-60383579D01*
X165059776Y-60448463D01*
X165075000Y-60525000D01*
X165075000Y-60925000D01*
X165059776Y-61001537D01*
X165016421Y-61066421D01*
X164951537Y-61109776D01*
X164875000Y-61125000D01*
X164325000Y-61125000D01*
X164248463Y-61109776D01*
X164183579Y-61066421D01*
X164140224Y-61001537D01*
X164125000Y-60925000D01*
X164125000Y-60525000D01*
X164140224Y-60448463D01*
X164183579Y-60383579D01*
X164248463Y-60340224D01*
X164325000Y-60325000D01*
X164875000Y-60325000D01*
X164951537Y-60340224D01*
G37*
G36*
X181404116Y-58250818D02*
G01*
X181455379Y-58256766D01*
X181472892Y-58264499D01*
X181495671Y-58269030D01*
X181520057Y-58285324D01*
X181540788Y-58294478D01*
X181554946Y-58308636D01*
X181576777Y-58323223D01*
X181591363Y-58345053D01*
X181605521Y-58359211D01*
X181614673Y-58379939D01*
X181630970Y-58404329D01*
X181635501Y-58427109D01*
X181643233Y-58444620D01*
X181649178Y-58495872D01*
X181650000Y-58500000D01*
X181650000Y-60500000D01*
X181649178Y-60504128D01*
X181643233Y-60555379D01*
X181635501Y-60572888D01*
X181630970Y-60595671D01*
X181614672Y-60620062D01*
X181605521Y-60640788D01*
X181591365Y-60654943D01*
X181576777Y-60676777D01*
X181554943Y-60691365D01*
X181540788Y-60705521D01*
X181520062Y-60714672D01*
X181495671Y-60730970D01*
X181472888Y-60735501D01*
X181455379Y-60743233D01*
X181404129Y-60749178D01*
X181400000Y-60750000D01*
X180100000Y-60750000D01*
X180095873Y-60749179D01*
X180044620Y-60743233D01*
X180027109Y-60735501D01*
X180004329Y-60730970D01*
X179979939Y-60714673D01*
X179959211Y-60705521D01*
X179945053Y-60691363D01*
X179923223Y-60676777D01*
X179908636Y-60654946D01*
X179894478Y-60640788D01*
X179885324Y-60620057D01*
X179869030Y-60595671D01*
X179864499Y-60572892D01*
X179856766Y-60555379D01*
X179850818Y-60504117D01*
X179850000Y-60500000D01*
X179850000Y-58500000D01*
X179850818Y-58495885D01*
X179856766Y-58444620D01*
X179864499Y-58427105D01*
X179869030Y-58404329D01*
X179885323Y-58379944D01*
X179894478Y-58359211D01*
X179908638Y-58345050D01*
X179923223Y-58323223D01*
X179945050Y-58308638D01*
X179959211Y-58294478D01*
X179979944Y-58285323D01*
X180004329Y-58269030D01*
X180027105Y-58264499D01*
X180044620Y-58256766D01*
X180095884Y-58250818D01*
X180100000Y-58250000D01*
X181400000Y-58250000D01*
X181404116Y-58250818D01*
G37*
G36*
X160951537Y-59790224D02*
G01*
X161016421Y-59833579D01*
X161059776Y-59898463D01*
X161075000Y-59975000D01*
X161075000Y-60525000D01*
X161059776Y-60601537D01*
X161016421Y-60666421D01*
X160951537Y-60709776D01*
X160875000Y-60725000D01*
X160475000Y-60725000D01*
X160398463Y-60709776D01*
X160333579Y-60666421D01*
X160290224Y-60601537D01*
X160275000Y-60525000D01*
X160275000Y-59975000D01*
X160290224Y-59898463D01*
X160333579Y-59833579D01*
X160398463Y-59790224D01*
X160475000Y-59775000D01*
X160875000Y-59775000D01*
X160951537Y-59790224D01*
G37*
G36*
X162601537Y-59790224D02*
G01*
X162666421Y-59833579D01*
X162709776Y-59898463D01*
X162725000Y-59975000D01*
X162725000Y-60525000D01*
X162709776Y-60601537D01*
X162666421Y-60666421D01*
X162601537Y-60709776D01*
X162525000Y-60725000D01*
X162125000Y-60725000D01*
X162048463Y-60709776D01*
X161983579Y-60666421D01*
X161940224Y-60601537D01*
X161925000Y-60525000D01*
X161925000Y-59975000D01*
X161940224Y-59898463D01*
X161983579Y-59833579D01*
X162048463Y-59790224D01*
X162125000Y-59775000D01*
X162525000Y-59775000D01*
X162601537Y-59790224D01*
G37*
G36*
X185779116Y-57775818D02*
G01*
X185830379Y-57781766D01*
X185847892Y-57789499D01*
X185870671Y-57794030D01*
X185895057Y-57810324D01*
X185915788Y-57819478D01*
X185929946Y-57833636D01*
X185951777Y-57848223D01*
X185966363Y-57870053D01*
X185980521Y-57884211D01*
X185989673Y-57904939D01*
X186005970Y-57929329D01*
X186010501Y-57952109D01*
X186018233Y-57969620D01*
X186024178Y-58020872D01*
X186025000Y-58025000D01*
X186025000Y-58775000D01*
X186024178Y-58779128D01*
X186018233Y-58830379D01*
X186010501Y-58847888D01*
X186005970Y-58870671D01*
X185989672Y-58895062D01*
X185980521Y-58915788D01*
X185966365Y-58929943D01*
X185951777Y-58951777D01*
X185929943Y-58966365D01*
X185915788Y-58980521D01*
X185895062Y-58989672D01*
X185870671Y-59005970D01*
X185847888Y-59010501D01*
X185830379Y-59018233D01*
X185779129Y-59024178D01*
X185775000Y-59025000D01*
X184525000Y-59025000D01*
X184520873Y-59024179D01*
X184469620Y-59018233D01*
X184452109Y-59010501D01*
X184429329Y-59005970D01*
X184404939Y-58989673D01*
X184384211Y-58980521D01*
X184370053Y-58966363D01*
X184348223Y-58951777D01*
X184333636Y-58929946D01*
X184319478Y-58915788D01*
X184310324Y-58895057D01*
X184294030Y-58870671D01*
X184289499Y-58847892D01*
X184281766Y-58830379D01*
X184275818Y-58779117D01*
X184275000Y-58775000D01*
X184275000Y-58025000D01*
X184275818Y-58020885D01*
X184281766Y-57969620D01*
X184289499Y-57952105D01*
X184294030Y-57929329D01*
X184310323Y-57904944D01*
X184319478Y-57884211D01*
X184333638Y-57870050D01*
X184348223Y-57848223D01*
X184370050Y-57833638D01*
X184384211Y-57819478D01*
X184404944Y-57810323D01*
X184429329Y-57794030D01*
X184452105Y-57789499D01*
X184469620Y-57781766D01*
X184520884Y-57775818D01*
X184525000Y-57775000D01*
X185775000Y-57775000D01*
X185779116Y-57775818D01*
G37*
G36*
X181404116Y-54250818D02*
G01*
X181455379Y-54256766D01*
X181472892Y-54264499D01*
X181495671Y-54269030D01*
X181520057Y-54285324D01*
X181540788Y-54294478D01*
X181554946Y-54308636D01*
X181576777Y-54323223D01*
X181591363Y-54345053D01*
X181605521Y-54359211D01*
X181614673Y-54379939D01*
X181630970Y-54404329D01*
X181635501Y-54427109D01*
X181643233Y-54444620D01*
X181649178Y-54495872D01*
X181650000Y-54500000D01*
X181650000Y-56500000D01*
X181649178Y-56504128D01*
X181643233Y-56555379D01*
X181635501Y-56572888D01*
X181630970Y-56595671D01*
X181614672Y-56620062D01*
X181605521Y-56640788D01*
X181591365Y-56654943D01*
X181576777Y-56676777D01*
X181554943Y-56691365D01*
X181540788Y-56705521D01*
X181520062Y-56714672D01*
X181495671Y-56730970D01*
X181472888Y-56735501D01*
X181455379Y-56743233D01*
X181404129Y-56749178D01*
X181400000Y-56750000D01*
X180100000Y-56750000D01*
X180095873Y-56749179D01*
X180044620Y-56743233D01*
X180027109Y-56735501D01*
X180004329Y-56730970D01*
X179979939Y-56714673D01*
X179959211Y-56705521D01*
X179945053Y-56691363D01*
X179923223Y-56676777D01*
X179908636Y-56654946D01*
X179894478Y-56640788D01*
X179885324Y-56620057D01*
X179869030Y-56595671D01*
X179864499Y-56572892D01*
X179856766Y-56555379D01*
X179850818Y-56504117D01*
X179850000Y-56500000D01*
X179850000Y-54500000D01*
X179850818Y-54495885D01*
X179856766Y-54444620D01*
X179864499Y-54427105D01*
X179869030Y-54404329D01*
X179885323Y-54379944D01*
X179894478Y-54359211D01*
X179908638Y-54345050D01*
X179923223Y-54323223D01*
X179945050Y-54308638D01*
X179959211Y-54294478D01*
X179979944Y-54285323D01*
X180004329Y-54269030D01*
X180027105Y-54264499D01*
X180044620Y-54256766D01*
X180095884Y-54250818D01*
X180100000Y-54250000D01*
X181400000Y-54250000D01*
X181404116Y-54250818D01*
G37*
G36*
X190136104Y-55442127D02*
G01*
X190209099Y-55490901D01*
X190257873Y-55563896D01*
X190275000Y-55650000D01*
X190275000Y-56150000D01*
X190257873Y-56236104D01*
X190209099Y-56309099D01*
X190136104Y-56357873D01*
X190050000Y-56375000D01*
X189600000Y-56375000D01*
X189513896Y-56357873D01*
X189440901Y-56309099D01*
X189392127Y-56236104D01*
X189375000Y-56150000D01*
X189375000Y-55650000D01*
X189392127Y-55563896D01*
X189440901Y-55490901D01*
X189513896Y-55442127D01*
X189600000Y-55425000D01*
X190050000Y-55425000D01*
X190136104Y-55442127D01*
G37*
G36*
X191686104Y-55442127D02*
G01*
X191759099Y-55490901D01*
X191807873Y-55563896D01*
X191825000Y-55650000D01*
X191825000Y-56150000D01*
X191807873Y-56236104D01*
X191759099Y-56309099D01*
X191686104Y-56357873D01*
X191600000Y-56375000D01*
X191150000Y-56375000D01*
X191063896Y-56357873D01*
X190990901Y-56309099D01*
X190942127Y-56236104D01*
X190925000Y-56150000D01*
X190925000Y-55650000D01*
X190942127Y-55563896D01*
X190990901Y-55490901D01*
X191063896Y-55442127D01*
X191150000Y-55425000D01*
X191600000Y-55425000D01*
X191686104Y-55442127D01*
G37*
G36*
X185779116Y-54975818D02*
G01*
X185830379Y-54981766D01*
X185847892Y-54989499D01*
X185870671Y-54994030D01*
X185895057Y-55010324D01*
X185915788Y-55019478D01*
X185929946Y-55033636D01*
X185951777Y-55048223D01*
X185966363Y-55070053D01*
X185980521Y-55084211D01*
X185989673Y-55104939D01*
X186005970Y-55129329D01*
X186010501Y-55152109D01*
X186018233Y-55169620D01*
X186024178Y-55220872D01*
X186025000Y-55225000D01*
X186025000Y-55975000D01*
X186024178Y-55979128D01*
X186018233Y-56030379D01*
X186010501Y-56047888D01*
X186005970Y-56070671D01*
X185989672Y-56095062D01*
X185980521Y-56115788D01*
X185966365Y-56129943D01*
X185951777Y-56151777D01*
X185929943Y-56166365D01*
X185915788Y-56180521D01*
X185895062Y-56189672D01*
X185870671Y-56205970D01*
X185847888Y-56210501D01*
X185830379Y-56218233D01*
X185779129Y-56224178D01*
X185775000Y-56225000D01*
X184525000Y-56225000D01*
X184520873Y-56224179D01*
X184469620Y-56218233D01*
X184452109Y-56210501D01*
X184429329Y-56205970D01*
X184404939Y-56189673D01*
X184384211Y-56180521D01*
X184370053Y-56166363D01*
X184348223Y-56151777D01*
X184333636Y-56129946D01*
X184319478Y-56115788D01*
X184310324Y-56095057D01*
X184294030Y-56070671D01*
X184289499Y-56047892D01*
X184281766Y-56030379D01*
X184275818Y-55979117D01*
X184275000Y-55975000D01*
X184275000Y-55225000D01*
X184275818Y-55220885D01*
X184281766Y-55169620D01*
X184289499Y-55152105D01*
X184294030Y-55129329D01*
X184310323Y-55104944D01*
X184319478Y-55084211D01*
X184333638Y-55070050D01*
X184348223Y-55048223D01*
X184370050Y-55033638D01*
X184384211Y-55019478D01*
X184404944Y-55010323D01*
X184429329Y-54994030D01*
X184452105Y-54989499D01*
X184469620Y-54981766D01*
X184520884Y-54975818D01*
X184525000Y-54975000D01*
X185775000Y-54975000D01*
X185779116Y-54975818D01*
G37*
G36*
X190007403Y-52411418D02*
G01*
X190056066Y-52443934D01*
X190088582Y-52492597D01*
X190100000Y-52550000D01*
X190100000Y-53925000D01*
X190088582Y-53982403D01*
X190056066Y-54031066D01*
X190007403Y-54063582D01*
X189950000Y-54075000D01*
X189650000Y-54075000D01*
X189592597Y-54063582D01*
X189543934Y-54031066D01*
X189511418Y-53982403D01*
X189500000Y-53925000D01*
X189500000Y-52550000D01*
X189511418Y-52492597D01*
X189543934Y-52443934D01*
X189592597Y-52411418D01*
X189650000Y-52400000D01*
X189950000Y-52400000D01*
X190007403Y-52411418D01*
G37*
G36*
X191007403Y-52411418D02*
G01*
X191056066Y-52443934D01*
X191088582Y-52492597D01*
X191100000Y-52550000D01*
X191100000Y-53925000D01*
X191088582Y-53982403D01*
X191056066Y-54031066D01*
X191007403Y-54063582D01*
X190950000Y-54075000D01*
X190650000Y-54075000D01*
X190592597Y-54063582D01*
X190543934Y-54031066D01*
X190511418Y-53982403D01*
X190500000Y-53925000D01*
X190500000Y-52550000D01*
X190511418Y-52492597D01*
X190543934Y-52443934D01*
X190592597Y-52411418D01*
X190650000Y-52400000D01*
X190950000Y-52400000D01*
X191007403Y-52411418D01*
G37*
G36*
X192007403Y-52411418D02*
G01*
X192056066Y-52443934D01*
X192088582Y-52492597D01*
X192100000Y-52550000D01*
X192100000Y-53925000D01*
X192088582Y-53982403D01*
X192056066Y-54031066D01*
X192007403Y-54063582D01*
X191950000Y-54075000D01*
X191650000Y-54075000D01*
X191592597Y-54063582D01*
X191543934Y-54031066D01*
X191511418Y-53982403D01*
X191500000Y-53925000D01*
X191500000Y-52550000D01*
X191511418Y-52492597D01*
X191543934Y-52443934D01*
X191592597Y-52411418D01*
X191650000Y-52400000D01*
X191950000Y-52400000D01*
X192007403Y-52411418D01*
G37*
G36*
X193007403Y-52411418D02*
G01*
X193056066Y-52443934D01*
X193088582Y-52492597D01*
X193100000Y-52550000D01*
X193100000Y-53925000D01*
X193088582Y-53982403D01*
X193056066Y-54031066D01*
X193007403Y-54063582D01*
X192950000Y-54075000D01*
X192650000Y-54075000D01*
X192592597Y-54063582D01*
X192543934Y-54031066D01*
X192511418Y-53982403D01*
X192500000Y-53925000D01*
X192500000Y-52550000D01*
X192511418Y-52492597D01*
X192543934Y-52443934D01*
X192592597Y-52411418D01*
X192650000Y-52400000D01*
X192950000Y-52400000D01*
X193007403Y-52411418D01*
G37*
G36*
X194007403Y-52411418D02*
G01*
X194056066Y-52443934D01*
X194088582Y-52492597D01*
X194100000Y-52550000D01*
X194100000Y-53925000D01*
X194088582Y-53982403D01*
X194056066Y-54031066D01*
X194007403Y-54063582D01*
X193950000Y-54075000D01*
X193650000Y-54075000D01*
X193592597Y-54063582D01*
X193543934Y-54031066D01*
X193511418Y-53982403D01*
X193500000Y-53925000D01*
X193500000Y-52550000D01*
X193511418Y-52492597D01*
X193543934Y-52443934D01*
X193592597Y-52411418D01*
X193650000Y-52400000D01*
X193950000Y-52400000D01*
X194007403Y-52411418D01*
G37*
G36*
X188151537Y-50965224D02*
G01*
X188216421Y-51008579D01*
X188259776Y-51073463D01*
X188275000Y-51150000D01*
X188275000Y-51550000D01*
X188259776Y-51626537D01*
X188216421Y-51691421D01*
X188151537Y-51734776D01*
X188075000Y-51750000D01*
X187525000Y-51750000D01*
X187448463Y-51734776D01*
X187383579Y-51691421D01*
X187340224Y-51626537D01*
X187325000Y-51550000D01*
X187325000Y-51150000D01*
X187340224Y-51073463D01*
X187383579Y-51008579D01*
X187448463Y-50965224D01*
X187525000Y-50950000D01*
X188075000Y-50950000D01*
X188151537Y-50965224D01*
G37*
G36*
X193450000Y-51650000D02*
G01*
X190150000Y-51650000D01*
X190150000Y-49550000D01*
X193450000Y-49550000D01*
X193450000Y-51650000D01*
G37*
G36*
X214868370Y-44805034D02*
G01*
X214879425Y-44805034D01*
X214956175Y-44813681D01*
X215169524Y-44834694D01*
X215204619Y-44841675D01*
X215236020Y-44845213D01*
X215328343Y-44866285D01*
X215477518Y-44895958D01*
X215535777Y-44913630D01*
X215585874Y-44925065D01*
X215666667Y-44953335D01*
X215778030Y-44987117D01*
X215858676Y-45020521D01*
X215924587Y-45043585D01*
X215987506Y-45073885D01*
X216068149Y-45107289D01*
X216170770Y-45162141D01*
X216247900Y-45199285D01*
X216291411Y-45226624D01*
X216345098Y-45255321D01*
X216471546Y-45339811D01*
X216551748Y-45390205D01*
X216576459Y-45409911D01*
X216606199Y-45429783D01*
X216771882Y-45565756D01*
X216832309Y-45613945D01*
X216840129Y-45621765D01*
X216848952Y-45629006D01*
X217070993Y-45851047D01*
X217078233Y-45859869D01*
X217086055Y-45867691D01*
X217134249Y-45928124D01*
X217270216Y-46093800D01*
X217290086Y-46123538D01*
X217309795Y-46148252D01*
X217360193Y-46228461D01*
X217444678Y-46354901D01*
X217473371Y-46408583D01*
X217500715Y-46452100D01*
X217537862Y-46529237D01*
X217592710Y-46631850D01*
X217626110Y-46712484D01*
X217656415Y-46775413D01*
X217679481Y-46841332D01*
X217712882Y-46921969D01*
X217746659Y-47033317D01*
X217774935Y-47114126D01*
X217786371Y-47164231D01*
X217804041Y-47222481D01*
X217833708Y-47371629D01*
X217854787Y-47463980D01*
X217858326Y-47495389D01*
X217865305Y-47530475D01*
X217886315Y-47743803D01*
X217894966Y-47820575D01*
X217894966Y-47831630D01*
X217896084Y-47842982D01*
X217896084Y-48157017D01*
X217894966Y-48168368D01*
X217894966Y-48179425D01*
X217886315Y-48256203D01*
X217865305Y-48469524D01*
X217858326Y-48504608D01*
X217854787Y-48536020D01*
X217833707Y-48628377D01*
X217804041Y-48777518D01*
X217786372Y-48835764D01*
X217774935Y-48885874D01*
X217746656Y-48966688D01*
X217712882Y-49078030D01*
X217679483Y-49158660D01*
X217656415Y-49224587D01*
X217626107Y-49287521D01*
X217592710Y-49368149D01*
X217537867Y-49470751D01*
X217500715Y-49547900D01*
X217473368Y-49591422D01*
X217444678Y-49645098D01*
X217360204Y-49771521D01*
X217309795Y-49851748D01*
X217290082Y-49876466D01*
X217270216Y-49906199D01*
X217134277Y-50071839D01*
X217086055Y-50132309D01*
X217078228Y-50140135D01*
X217070993Y-50148952D01*
X216848952Y-50370993D01*
X216840135Y-50378228D01*
X216832309Y-50386055D01*
X216771839Y-50434277D01*
X216606199Y-50570216D01*
X216576466Y-50590082D01*
X216551748Y-50609795D01*
X216471521Y-50660204D01*
X216345098Y-50744678D01*
X216291422Y-50773368D01*
X216247900Y-50800715D01*
X216170751Y-50837867D01*
X216068149Y-50892710D01*
X215987521Y-50926107D01*
X215924587Y-50956415D01*
X215858660Y-50979483D01*
X215778030Y-51012882D01*
X215666688Y-51046656D01*
X215585874Y-51074935D01*
X215535764Y-51086372D01*
X215477518Y-51104041D01*
X215328377Y-51133707D01*
X215236020Y-51154787D01*
X215204608Y-51158326D01*
X215169524Y-51165305D01*
X214956198Y-51186315D01*
X214879425Y-51194966D01*
X214868369Y-51194966D01*
X214857018Y-51196084D01*
X214542982Y-51196084D01*
X214531631Y-51194966D01*
X214520575Y-51194966D01*
X214443803Y-51186315D01*
X214230475Y-51165305D01*
X214195389Y-51158326D01*
X214163980Y-51154787D01*
X214071629Y-51133708D01*
X213922481Y-51104041D01*
X213864231Y-51086371D01*
X213814126Y-51074935D01*
X213733317Y-51046659D01*
X213621969Y-51012882D01*
X213541332Y-50979481D01*
X213475413Y-50956415D01*
X213412484Y-50926110D01*
X213331850Y-50892710D01*
X213229237Y-50837862D01*
X213152100Y-50800715D01*
X213108583Y-50773371D01*
X213054901Y-50744678D01*
X212928461Y-50660193D01*
X212848252Y-50609795D01*
X212823538Y-50590086D01*
X212793800Y-50570216D01*
X212628124Y-50434249D01*
X212567691Y-50386055D01*
X212559869Y-50378233D01*
X212551047Y-50370993D01*
X212329006Y-50148952D01*
X212321765Y-50140129D01*
X212313945Y-50132309D01*
X212265756Y-50071882D01*
X212129783Y-49906199D01*
X212109911Y-49876459D01*
X212090205Y-49851748D01*
X212039811Y-49771546D01*
X211955321Y-49645098D01*
X211926624Y-49591411D01*
X211899285Y-49547900D01*
X211862141Y-49470770D01*
X211807289Y-49368149D01*
X211773885Y-49287506D01*
X211743585Y-49224587D01*
X211720521Y-49158676D01*
X211687117Y-49078030D01*
X211653335Y-48966667D01*
X211625065Y-48885874D01*
X211613630Y-48835777D01*
X211595958Y-48777518D01*
X211566285Y-48628343D01*
X211545213Y-48536020D01*
X211541675Y-48504619D01*
X211534694Y-48469524D01*
X211513682Y-48256180D01*
X211505034Y-48179425D01*
X211505034Y-48168368D01*
X211503916Y-48157017D01*
X211503916Y-47842982D01*
X211505034Y-47831630D01*
X211505034Y-47820575D01*
X211513681Y-47743826D01*
X211534694Y-47530475D01*
X211541675Y-47495377D01*
X211545213Y-47463980D01*
X211566283Y-47371663D01*
X211595958Y-47222481D01*
X211613631Y-47164218D01*
X211625065Y-47114126D01*
X211653333Y-47033339D01*
X211687117Y-46921969D01*
X211720524Y-46841317D01*
X211743585Y-46775413D01*
X211773882Y-46712499D01*
X211807289Y-46631850D01*
X211862146Y-46529219D01*
X211899285Y-46452100D01*
X211926621Y-46408594D01*
X211955321Y-46354901D01*
X212039821Y-46228436D01*
X212090205Y-46148252D01*
X212109907Y-46123546D01*
X212129783Y-46093800D01*
X212265784Y-45928081D01*
X212313945Y-45867691D01*
X212321761Y-45859874D01*
X212329006Y-45851047D01*
X212551047Y-45629006D01*
X212559874Y-45621761D01*
X212567691Y-45613945D01*
X212628081Y-45565784D01*
X212793800Y-45429783D01*
X212823546Y-45409907D01*
X212848252Y-45390205D01*
X212928436Y-45339821D01*
X213054901Y-45255321D01*
X213108594Y-45226621D01*
X213152100Y-45199285D01*
X213229219Y-45162146D01*
X213331850Y-45107289D01*
X213412499Y-45073882D01*
X213475413Y-45043585D01*
X213541317Y-45020524D01*
X213621969Y-44987117D01*
X213733339Y-44953333D01*
X213814126Y-44925065D01*
X213864218Y-44913631D01*
X213922481Y-44895958D01*
X214071663Y-44866283D01*
X214163980Y-44845213D01*
X214195377Y-44841675D01*
X214230475Y-44834694D01*
X214443826Y-44813681D01*
X214520575Y-44805034D01*
X214531630Y-44805034D01*
X214542982Y-44803916D01*
X214857018Y-44803916D01*
X214868370Y-44805034D01*
G37*
G36*
X163079116Y-50150818D02*
G01*
X163130379Y-50156766D01*
X163147892Y-50164499D01*
X163170671Y-50169030D01*
X163195057Y-50185324D01*
X163215788Y-50194478D01*
X163229946Y-50208636D01*
X163251777Y-50223223D01*
X163266363Y-50245053D01*
X163280521Y-50259211D01*
X163289673Y-50279939D01*
X163305970Y-50304329D01*
X163310501Y-50327109D01*
X163318233Y-50344620D01*
X163324178Y-50395872D01*
X163325000Y-50400000D01*
X163325000Y-50900000D01*
X163324178Y-50904128D01*
X163318233Y-50955379D01*
X163310501Y-50972888D01*
X163305970Y-50995671D01*
X163289672Y-51020062D01*
X163280521Y-51040788D01*
X163266365Y-51054943D01*
X163251777Y-51076777D01*
X163229943Y-51091365D01*
X163215788Y-51105521D01*
X163195062Y-51114672D01*
X163170671Y-51130970D01*
X163147888Y-51135501D01*
X163130379Y-51143233D01*
X163079129Y-51149178D01*
X163075000Y-51150000D01*
X162125000Y-51150000D01*
X162120873Y-51149179D01*
X162069620Y-51143233D01*
X162052109Y-51135501D01*
X162029329Y-51130970D01*
X162004939Y-51114673D01*
X161984211Y-51105521D01*
X161970053Y-51091363D01*
X161948223Y-51076777D01*
X161933636Y-51054946D01*
X161919478Y-51040788D01*
X161910324Y-51020057D01*
X161894030Y-50995671D01*
X161889499Y-50972892D01*
X161881766Y-50955379D01*
X161875818Y-50904117D01*
X161875000Y-50900000D01*
X161875000Y-50400000D01*
X161875818Y-50395885D01*
X161881766Y-50344620D01*
X161889499Y-50327105D01*
X161894030Y-50304329D01*
X161910323Y-50279944D01*
X161919478Y-50259211D01*
X161933638Y-50245050D01*
X161948223Y-50223223D01*
X161970050Y-50208638D01*
X161984211Y-50194478D01*
X162004944Y-50185323D01*
X162029329Y-50169030D01*
X162052105Y-50164499D01*
X162069620Y-50156766D01*
X162120884Y-50150818D01*
X162125000Y-50150000D01*
X163075000Y-50150000D01*
X163079116Y-50150818D01*
G37*
G36*
X156868370Y-44705034D02*
G01*
X156879425Y-44705034D01*
X156956175Y-44713681D01*
X157169524Y-44734694D01*
X157204619Y-44741675D01*
X157236020Y-44745213D01*
X157328343Y-44766285D01*
X157477518Y-44795958D01*
X157535777Y-44813630D01*
X157585874Y-44825065D01*
X157666667Y-44853335D01*
X157778030Y-44887117D01*
X157858676Y-44920521D01*
X157924587Y-44943585D01*
X157987506Y-44973885D01*
X158068149Y-45007289D01*
X158170770Y-45062141D01*
X158247900Y-45099285D01*
X158291411Y-45126624D01*
X158345098Y-45155321D01*
X158471546Y-45239811D01*
X158551748Y-45290205D01*
X158576459Y-45309911D01*
X158606199Y-45329783D01*
X158771882Y-45465756D01*
X158832309Y-45513945D01*
X158840129Y-45521765D01*
X158848952Y-45529006D01*
X159070993Y-45751047D01*
X159078233Y-45759869D01*
X159086055Y-45767691D01*
X159134249Y-45828124D01*
X159270216Y-45993800D01*
X159290086Y-46023538D01*
X159309795Y-46048252D01*
X159360193Y-46128461D01*
X159444678Y-46254901D01*
X159473371Y-46308583D01*
X159500715Y-46352100D01*
X159537862Y-46429237D01*
X159592710Y-46531850D01*
X159626110Y-46612484D01*
X159656415Y-46675413D01*
X159679481Y-46741332D01*
X159712882Y-46821969D01*
X159746659Y-46933317D01*
X159774935Y-47014126D01*
X159786371Y-47064231D01*
X159804041Y-47122481D01*
X159833708Y-47271629D01*
X159854787Y-47363980D01*
X159858326Y-47395389D01*
X159865305Y-47430475D01*
X159886315Y-47643803D01*
X159894966Y-47720575D01*
X159894966Y-47731630D01*
X159896084Y-47742982D01*
X159896084Y-48057017D01*
X159894966Y-48068368D01*
X159894966Y-48079425D01*
X159886315Y-48156203D01*
X159865305Y-48369524D01*
X159858326Y-48404608D01*
X159854787Y-48436020D01*
X159833707Y-48528377D01*
X159804041Y-48677518D01*
X159786372Y-48735764D01*
X159774935Y-48785874D01*
X159746656Y-48866688D01*
X159712882Y-48978030D01*
X159679483Y-49058660D01*
X159656415Y-49124587D01*
X159626107Y-49187521D01*
X159592710Y-49268149D01*
X159537867Y-49370751D01*
X159500715Y-49447900D01*
X159473368Y-49491422D01*
X159444678Y-49545098D01*
X159360204Y-49671521D01*
X159309795Y-49751748D01*
X159290082Y-49776466D01*
X159270216Y-49806199D01*
X159134277Y-49971839D01*
X159086055Y-50032309D01*
X159078228Y-50040135D01*
X159070993Y-50048952D01*
X158848952Y-50270993D01*
X158840135Y-50278228D01*
X158832309Y-50286055D01*
X158771839Y-50334277D01*
X158606199Y-50470216D01*
X158576466Y-50490082D01*
X158551748Y-50509795D01*
X158471521Y-50560204D01*
X158345098Y-50644678D01*
X158291422Y-50673368D01*
X158247900Y-50700715D01*
X158170751Y-50737867D01*
X158068149Y-50792710D01*
X157987521Y-50826107D01*
X157924587Y-50856415D01*
X157858660Y-50879483D01*
X157778030Y-50912882D01*
X157666688Y-50946656D01*
X157585874Y-50974935D01*
X157535764Y-50986372D01*
X157477518Y-51004041D01*
X157328377Y-51033707D01*
X157236020Y-51054787D01*
X157204608Y-51058326D01*
X157169524Y-51065305D01*
X156956198Y-51086315D01*
X156879425Y-51094966D01*
X156868369Y-51094966D01*
X156857018Y-51096084D01*
X156542982Y-51096084D01*
X156531631Y-51094966D01*
X156520575Y-51094966D01*
X156443803Y-51086315D01*
X156230475Y-51065305D01*
X156195389Y-51058326D01*
X156163980Y-51054787D01*
X156071629Y-51033708D01*
X155922481Y-51004041D01*
X155864231Y-50986371D01*
X155814126Y-50974935D01*
X155733317Y-50946659D01*
X155621969Y-50912882D01*
X155541332Y-50879481D01*
X155475413Y-50856415D01*
X155412484Y-50826110D01*
X155331850Y-50792710D01*
X155229237Y-50737862D01*
X155152100Y-50700715D01*
X155108583Y-50673371D01*
X155054901Y-50644678D01*
X154928461Y-50560193D01*
X154848252Y-50509795D01*
X154823538Y-50490086D01*
X154793800Y-50470216D01*
X154628124Y-50334249D01*
X154567691Y-50286055D01*
X154559869Y-50278233D01*
X154551047Y-50270993D01*
X154329006Y-50048952D01*
X154321765Y-50040129D01*
X154313945Y-50032309D01*
X154265756Y-49971882D01*
X154129783Y-49806199D01*
X154109911Y-49776459D01*
X154090205Y-49751748D01*
X154039811Y-49671546D01*
X153955321Y-49545098D01*
X153926624Y-49491411D01*
X153899285Y-49447900D01*
X153862141Y-49370770D01*
X153807289Y-49268149D01*
X153773885Y-49187506D01*
X153743585Y-49124587D01*
X153720521Y-49058676D01*
X153687117Y-48978030D01*
X153653335Y-48866667D01*
X153625065Y-48785874D01*
X153613630Y-48735777D01*
X153595958Y-48677518D01*
X153566285Y-48528343D01*
X153545213Y-48436020D01*
X153541675Y-48404619D01*
X153534694Y-48369524D01*
X153513682Y-48156180D01*
X153505034Y-48079425D01*
X153505034Y-48068368D01*
X153503916Y-48057017D01*
X153503916Y-47742982D01*
X153505034Y-47731630D01*
X153505034Y-47720575D01*
X153513681Y-47643826D01*
X153534694Y-47430475D01*
X153541675Y-47395377D01*
X153545213Y-47363980D01*
X153566283Y-47271663D01*
X153595958Y-47122481D01*
X153613631Y-47064218D01*
X153625065Y-47014126D01*
X153653333Y-46933339D01*
X153687117Y-46821969D01*
X153720524Y-46741317D01*
X153743585Y-46675413D01*
X153773882Y-46612499D01*
X153807289Y-46531850D01*
X153862146Y-46429219D01*
X153899285Y-46352100D01*
X153926621Y-46308594D01*
X153955321Y-46254901D01*
X154039821Y-46128436D01*
X154090205Y-46048252D01*
X154109907Y-46023546D01*
X154129783Y-45993800D01*
X154265784Y-45828081D01*
X154313945Y-45767691D01*
X154321761Y-45759874D01*
X154329006Y-45751047D01*
X154551047Y-45529006D01*
X154559874Y-45521761D01*
X154567691Y-45513945D01*
X154628081Y-45465784D01*
X154793800Y-45329783D01*
X154823546Y-45309907D01*
X154848252Y-45290205D01*
X154928436Y-45239821D01*
X155054901Y-45155321D01*
X155108594Y-45126621D01*
X155152100Y-45099285D01*
X155229219Y-45062146D01*
X155331850Y-45007289D01*
X155412499Y-44973882D01*
X155475413Y-44943585D01*
X155541317Y-44920524D01*
X155621969Y-44887117D01*
X155733339Y-44853333D01*
X155814126Y-44825065D01*
X155864218Y-44813631D01*
X155922481Y-44795958D01*
X156071663Y-44766283D01*
X156163980Y-44745213D01*
X156195377Y-44741675D01*
X156230475Y-44734694D01*
X156443826Y-44713681D01*
X156520575Y-44705034D01*
X156531630Y-44705034D01*
X156542982Y-44703916D01*
X156857018Y-44703916D01*
X156868370Y-44705034D01*
G37*
G36*
X166732403Y-50011418D02*
G01*
X166781066Y-50043934D01*
X166813582Y-50092597D01*
X166825000Y-50150000D01*
X166825000Y-50450000D01*
X166813582Y-50507403D01*
X166781066Y-50556066D01*
X166732403Y-50588582D01*
X166675000Y-50600000D01*
X165650000Y-50600000D01*
X165592597Y-50588582D01*
X165543934Y-50556066D01*
X165511418Y-50507403D01*
X165500000Y-50450000D01*
X165500000Y-50150000D01*
X165511418Y-50092597D01*
X165543934Y-50043934D01*
X165592597Y-50011418D01*
X165650000Y-50000000D01*
X166675000Y-50000000D01*
X166732403Y-50011418D01*
G37*
G36*
X169007403Y-50011418D02*
G01*
X169056066Y-50043934D01*
X169088582Y-50092597D01*
X169100000Y-50150000D01*
X169100000Y-50450000D01*
X169088582Y-50507403D01*
X169056066Y-50556066D01*
X169007403Y-50588582D01*
X168950000Y-50600000D01*
X167925000Y-50600000D01*
X167867597Y-50588582D01*
X167818934Y-50556066D01*
X167786418Y-50507403D01*
X167775000Y-50450000D01*
X167775000Y-50150000D01*
X167786418Y-50092597D01*
X167818934Y-50043934D01*
X167867597Y-50011418D01*
X167925000Y-50000000D01*
X168950000Y-50000000D01*
X169007403Y-50011418D01*
G37*
G36*
X170936104Y-49592127D02*
G01*
X171009099Y-49640901D01*
X171057873Y-49713896D01*
X171075000Y-49800000D01*
X171075000Y-50250000D01*
X171057873Y-50336104D01*
X171009099Y-50409099D01*
X170936104Y-50457873D01*
X170850000Y-50475000D01*
X170350000Y-50475000D01*
X170263896Y-50457873D01*
X170190901Y-50409099D01*
X170142127Y-50336104D01*
X170125000Y-50250000D01*
X170125000Y-49800000D01*
X170142127Y-49713896D01*
X170190901Y-49640901D01*
X170263896Y-49592127D01*
X170350000Y-49575000D01*
X170850000Y-49575000D01*
X170936104Y-49592127D01*
G37*
G36*
X175607403Y-49326418D02*
G01*
X175656066Y-49358934D01*
X175688582Y-49407597D01*
X175700000Y-49465000D01*
X175700000Y-50315000D01*
X175688582Y-50372403D01*
X175656066Y-50421066D01*
X175607403Y-50453582D01*
X175550000Y-50465000D01*
X175250000Y-50465000D01*
X175192597Y-50453582D01*
X175143934Y-50421066D01*
X175111418Y-50372403D01*
X175100000Y-50315000D01*
X175100000Y-49465000D01*
X175111418Y-49407597D01*
X175143934Y-49358934D01*
X175192597Y-49326418D01*
X175250000Y-49315000D01*
X175550000Y-49315000D01*
X175607403Y-49326418D01*
G37*
G36*
X176407403Y-49326418D02*
G01*
X176456066Y-49358934D01*
X176488582Y-49407597D01*
X176500000Y-49465000D01*
X176500000Y-50315000D01*
X176488582Y-50372403D01*
X176456066Y-50421066D01*
X176407403Y-50453582D01*
X176350000Y-50465000D01*
X176050000Y-50465000D01*
X175992597Y-50453582D01*
X175943934Y-50421066D01*
X175911418Y-50372403D01*
X175900000Y-50315000D01*
X175900000Y-49465000D01*
X175911418Y-49407597D01*
X175943934Y-49358934D01*
X175992597Y-49326418D01*
X176050000Y-49315000D01*
X176350000Y-49315000D01*
X176407403Y-49326418D01*
G37*
G36*
X176953701Y-49320709D02*
G01*
X176978033Y-49336967D01*
X176994291Y-49361299D01*
X177000000Y-49390000D01*
X177000000Y-50390000D01*
X176994291Y-50418701D01*
X176978033Y-50443033D01*
X176953701Y-50459291D01*
X176925000Y-50465000D01*
X176775000Y-50465000D01*
X176746299Y-50459291D01*
X176721967Y-50443033D01*
X176705709Y-50418701D01*
X176700000Y-50390000D01*
X176700000Y-49390000D01*
X176705709Y-49361299D01*
X176721967Y-49336967D01*
X176746299Y-49320709D01*
X176775000Y-49315000D01*
X176925000Y-49315000D01*
X176953701Y-49320709D01*
G37*
G36*
X177453701Y-49320709D02*
G01*
X177478033Y-49336967D01*
X177494291Y-49361299D01*
X177500000Y-49390000D01*
X177500000Y-50390000D01*
X177494291Y-50418701D01*
X177478033Y-50443033D01*
X177453701Y-50459291D01*
X177425000Y-50465000D01*
X177275000Y-50465000D01*
X177246299Y-50459291D01*
X177221967Y-50443033D01*
X177205709Y-50418701D01*
X177200000Y-50390000D01*
X177200000Y-49390000D01*
X177205709Y-49361299D01*
X177221967Y-49336967D01*
X177246299Y-49320709D01*
X177275000Y-49315000D01*
X177425000Y-49315000D01*
X177453701Y-49320709D01*
G37*
G36*
X177953701Y-49320709D02*
G01*
X177978033Y-49336967D01*
X177994291Y-49361299D01*
X178000000Y-49390000D01*
X178000000Y-50390000D01*
X177994291Y-50418701D01*
X177978033Y-50443033D01*
X177953701Y-50459291D01*
X177925000Y-50465000D01*
X177775000Y-50465000D01*
X177746299Y-50459291D01*
X177721967Y-50443033D01*
X177705709Y-50418701D01*
X177700000Y-50390000D01*
X177700000Y-49390000D01*
X177705709Y-49361299D01*
X177721967Y-49336967D01*
X177746299Y-49320709D01*
X177775000Y-49315000D01*
X177925000Y-49315000D01*
X177953701Y-49320709D01*
G37*
G36*
X178453701Y-49320709D02*
G01*
X178478033Y-49336967D01*
X178494291Y-49361299D01*
X178500000Y-49390000D01*
X178500000Y-50390000D01*
X178494291Y-50418701D01*
X178478033Y-50443033D01*
X178453701Y-50459291D01*
X178425000Y-50465000D01*
X178275000Y-50465000D01*
X178246299Y-50459291D01*
X178221967Y-50443033D01*
X178205709Y-50418701D01*
X178200000Y-50390000D01*
X178200000Y-49390000D01*
X178205709Y-49361299D01*
X178221967Y-49336967D01*
X178246299Y-49320709D01*
X178275000Y-49315000D01*
X178425000Y-49315000D01*
X178453701Y-49320709D01*
G37*
G36*
X178953701Y-49320709D02*
G01*
X178978033Y-49336967D01*
X178994291Y-49361299D01*
X179000000Y-49390000D01*
X179000000Y-50390000D01*
X178994291Y-50418701D01*
X178978033Y-50443033D01*
X178953701Y-50459291D01*
X178925000Y-50465000D01*
X178775000Y-50465000D01*
X178746299Y-50459291D01*
X178721967Y-50443033D01*
X178705709Y-50418701D01*
X178700000Y-50390000D01*
X178700000Y-49390000D01*
X178705709Y-49361299D01*
X178721967Y-49336967D01*
X178746299Y-49320709D01*
X178775000Y-49315000D01*
X178925000Y-49315000D01*
X178953701Y-49320709D01*
G37*
G36*
X179453701Y-49320709D02*
G01*
X179478033Y-49336967D01*
X179494291Y-49361299D01*
X179500000Y-49390000D01*
X179500000Y-50390000D01*
X179494291Y-50418701D01*
X179478033Y-50443033D01*
X179453701Y-50459291D01*
X179425000Y-50465000D01*
X179275000Y-50465000D01*
X179246299Y-50459291D01*
X179221967Y-50443033D01*
X179205709Y-50418701D01*
X179200000Y-50390000D01*
X179200000Y-49390000D01*
X179205709Y-49361299D01*
X179221967Y-49336967D01*
X179246299Y-49320709D01*
X179275000Y-49315000D01*
X179425000Y-49315000D01*
X179453701Y-49320709D01*
G37*
G36*
X179953701Y-49320709D02*
G01*
X179978033Y-49336967D01*
X179994291Y-49361299D01*
X180000000Y-49390000D01*
X180000000Y-50390000D01*
X179994291Y-50418701D01*
X179978033Y-50443033D01*
X179953701Y-50459291D01*
X179925000Y-50465000D01*
X179775000Y-50465000D01*
X179746299Y-50459291D01*
X179721967Y-50443033D01*
X179705709Y-50418701D01*
X179700000Y-50390000D01*
X179700000Y-49390000D01*
X179705709Y-49361299D01*
X179721967Y-49336967D01*
X179746299Y-49320709D01*
X179775000Y-49315000D01*
X179925000Y-49315000D01*
X179953701Y-49320709D01*
G37*
G36*
X180453701Y-49320709D02*
G01*
X180478033Y-49336967D01*
X180494291Y-49361299D01*
X180500000Y-49390000D01*
X180500000Y-50390000D01*
X180494291Y-50418701D01*
X180478033Y-50443033D01*
X180453701Y-50459291D01*
X180425000Y-50465000D01*
X180275000Y-50465000D01*
X180246299Y-50459291D01*
X180221967Y-50443033D01*
X180205709Y-50418701D01*
X180200000Y-50390000D01*
X180200000Y-49390000D01*
X180205709Y-49361299D01*
X180221967Y-49336967D01*
X180246299Y-49320709D01*
X180275000Y-49315000D01*
X180425000Y-49315000D01*
X180453701Y-49320709D01*
G37*
G36*
X181207403Y-49326418D02*
G01*
X181256066Y-49358934D01*
X181288582Y-49407597D01*
X181300000Y-49465000D01*
X181300000Y-50315000D01*
X181288582Y-50372403D01*
X181256066Y-50421066D01*
X181207403Y-50453582D01*
X181150000Y-50465000D01*
X180850000Y-50465000D01*
X180792597Y-50453582D01*
X180743934Y-50421066D01*
X180711418Y-50372403D01*
X180700000Y-50315000D01*
X180700000Y-49465000D01*
X180711418Y-49407597D01*
X180743934Y-49358934D01*
X180792597Y-49326418D01*
X180850000Y-49315000D01*
X181150000Y-49315000D01*
X181207403Y-49326418D01*
G37*
G36*
X182007403Y-49326418D02*
G01*
X182056066Y-49358934D01*
X182088582Y-49407597D01*
X182100000Y-49465000D01*
X182100000Y-50315000D01*
X182088582Y-50372403D01*
X182056066Y-50421066D01*
X182007403Y-50453582D01*
X181950000Y-50465000D01*
X181650000Y-50465000D01*
X181592597Y-50453582D01*
X181543934Y-50421066D01*
X181511418Y-50372403D01*
X181500000Y-50315000D01*
X181500000Y-49465000D01*
X181511418Y-49407597D01*
X181543934Y-49358934D01*
X181592597Y-49326418D01*
X181650000Y-49315000D01*
X181950000Y-49315000D01*
X182007403Y-49326418D01*
G37*
G36*
X174471342Y-48303060D02*
G01*
X174584381Y-48368323D01*
X174676677Y-48460619D01*
X174741940Y-48573658D01*
X174775722Y-48699737D01*
X174780000Y-48765000D01*
X174780000Y-49865000D01*
X174775722Y-49930263D01*
X174741940Y-50056342D01*
X174676677Y-50169381D01*
X174584381Y-50261677D01*
X174471342Y-50326940D01*
X174345263Y-50360722D01*
X174214737Y-50360722D01*
X174088658Y-50326940D01*
X173975619Y-50261677D01*
X173883323Y-50169381D01*
X173818060Y-50056342D01*
X173784278Y-49930263D01*
X173780000Y-49865000D01*
X173780000Y-48765000D01*
X173784278Y-48699737D01*
X173818060Y-48573658D01*
X173883323Y-48460619D01*
X173975619Y-48368323D01*
X174088658Y-48303060D01*
X174214737Y-48269278D01*
X174345263Y-48269278D01*
X174471342Y-48303060D01*
G37*
G36*
X183111342Y-48303060D02*
G01*
X183224381Y-48368323D01*
X183316677Y-48460619D01*
X183381940Y-48573658D01*
X183415722Y-48699737D01*
X183420000Y-48765000D01*
X183420000Y-49865000D01*
X183415722Y-49930263D01*
X183381940Y-50056342D01*
X183316677Y-50169381D01*
X183224381Y-50261677D01*
X183111342Y-50326940D01*
X182985263Y-50360722D01*
X182854737Y-50360722D01*
X182728658Y-50326940D01*
X182615619Y-50261677D01*
X182523323Y-50169381D01*
X182458060Y-50056342D01*
X182424278Y-49930263D01*
X182420000Y-49865000D01*
X182420000Y-48765000D01*
X182424278Y-48699737D01*
X182458060Y-48573658D01*
X182523323Y-48460619D01*
X182615619Y-48368323D01*
X182728658Y-48303060D01*
X182854737Y-48269278D01*
X182985263Y-48269278D01*
X183111342Y-48303060D01*
G37*
G36*
X188151537Y-49315224D02*
G01*
X188216421Y-49358579D01*
X188259776Y-49423463D01*
X188275000Y-49500000D01*
X188275000Y-49900000D01*
X188259776Y-49976537D01*
X188216421Y-50041421D01*
X188151537Y-50084776D01*
X188075000Y-50100000D01*
X187525000Y-50100000D01*
X187448463Y-50084776D01*
X187383579Y-50041421D01*
X187340224Y-49976537D01*
X187325000Y-49900000D01*
X187325000Y-49500000D01*
X187340224Y-49423463D01*
X187383579Y-49358579D01*
X187448463Y-49315224D01*
X187525000Y-49300000D01*
X188075000Y-49300000D01*
X188151537Y-49315224D01*
G37*
G36*
X166732403Y-49061418D02*
G01*
X166781066Y-49093934D01*
X166813582Y-49142597D01*
X166825000Y-49200000D01*
X166825000Y-49500000D01*
X166813582Y-49557403D01*
X166781066Y-49606066D01*
X166732403Y-49638582D01*
X166675000Y-49650000D01*
X165650000Y-49650000D01*
X165592597Y-49638582D01*
X165543934Y-49606066D01*
X165511418Y-49557403D01*
X165500000Y-49500000D01*
X165500000Y-49200000D01*
X165511418Y-49142597D01*
X165543934Y-49093934D01*
X165592597Y-49061418D01*
X165650000Y-49050000D01*
X166675000Y-49050000D01*
X166732403Y-49061418D01*
G37*
G36*
X163079116Y-48250818D02*
G01*
X163130379Y-48256766D01*
X163147892Y-48264499D01*
X163170671Y-48269030D01*
X163195057Y-48285324D01*
X163215788Y-48294478D01*
X163229946Y-48308636D01*
X163251777Y-48323223D01*
X163266363Y-48345053D01*
X163280521Y-48359211D01*
X163289673Y-48379939D01*
X163305970Y-48404329D01*
X163310501Y-48427109D01*
X163318233Y-48444620D01*
X163324178Y-48495872D01*
X163325000Y-48500000D01*
X163325000Y-49000000D01*
X163324178Y-49004128D01*
X163318233Y-49055379D01*
X163310501Y-49072888D01*
X163305970Y-49095671D01*
X163289672Y-49120062D01*
X163280521Y-49140788D01*
X163266365Y-49154943D01*
X163251777Y-49176777D01*
X163229943Y-49191365D01*
X163215788Y-49205521D01*
X163195062Y-49214672D01*
X163170671Y-49230970D01*
X163147888Y-49235501D01*
X163130379Y-49243233D01*
X163079129Y-49249178D01*
X163075000Y-49250000D01*
X162125000Y-49250000D01*
X162120873Y-49249179D01*
X162069620Y-49243233D01*
X162052109Y-49235501D01*
X162029329Y-49230970D01*
X162004939Y-49214673D01*
X161984211Y-49205521D01*
X161970053Y-49191363D01*
X161948223Y-49176777D01*
X161933636Y-49154946D01*
X161919478Y-49140788D01*
X161910324Y-49120057D01*
X161894030Y-49095671D01*
X161889499Y-49072892D01*
X161881766Y-49055379D01*
X161875818Y-49004117D01*
X161875000Y-49000000D01*
X161875000Y-48500000D01*
X161875818Y-48495885D01*
X161881766Y-48444620D01*
X161889499Y-48427105D01*
X161894030Y-48404329D01*
X161910323Y-48379944D01*
X161919478Y-48359211D01*
X161933638Y-48345050D01*
X161948223Y-48323223D01*
X161970050Y-48308638D01*
X161984211Y-48294478D01*
X162004944Y-48285323D01*
X162029329Y-48269030D01*
X162052105Y-48264499D01*
X162069620Y-48256766D01*
X162120884Y-48250818D01*
X162125000Y-48250000D01*
X163075000Y-48250000D01*
X163079116Y-48250818D01*
G37*
G36*
X175834372Y-48514739D02*
G01*
X175907847Y-48557160D01*
X175967840Y-48617153D01*
X176010261Y-48690628D01*
X176032220Y-48772579D01*
X176032220Y-48857421D01*
X176010261Y-48939372D01*
X175967840Y-49012847D01*
X175907847Y-49072840D01*
X175834372Y-49115261D01*
X175752421Y-49137220D01*
X175667579Y-49137220D01*
X175585628Y-49115261D01*
X175512153Y-49072840D01*
X175452160Y-49012847D01*
X175409739Y-48939372D01*
X175387780Y-48857421D01*
X175387780Y-48772579D01*
X175409739Y-48690628D01*
X175452160Y-48617153D01*
X175512153Y-48557160D01*
X175585628Y-48514739D01*
X175667579Y-48492780D01*
X175752421Y-48492780D01*
X175834372Y-48514739D01*
G37*
G36*
X181614372Y-48514739D02*
G01*
X181687847Y-48557160D01*
X181747840Y-48617153D01*
X181790261Y-48690628D01*
X181812220Y-48772579D01*
X181812220Y-48857421D01*
X181790261Y-48939372D01*
X181747840Y-49012847D01*
X181687847Y-49072840D01*
X181614372Y-49115261D01*
X181532421Y-49137220D01*
X181447579Y-49137220D01*
X181365628Y-49115261D01*
X181292153Y-49072840D01*
X181232160Y-49012847D01*
X181189739Y-48939372D01*
X181167780Y-48857421D01*
X181167780Y-48772579D01*
X181189739Y-48690628D01*
X181232160Y-48617153D01*
X181292153Y-48557160D01*
X181365628Y-48514739D01*
X181447579Y-48492780D01*
X181532421Y-48492780D01*
X181614372Y-48514739D01*
G37*
G36*
X170936104Y-48042127D02*
G01*
X171009099Y-48090901D01*
X171057873Y-48163896D01*
X171075000Y-48250000D01*
X171075000Y-48700000D01*
X171057873Y-48786104D01*
X171009099Y-48859099D01*
X170936104Y-48907873D01*
X170850000Y-48925000D01*
X170350000Y-48925000D01*
X170263896Y-48907873D01*
X170190901Y-48859099D01*
X170142127Y-48786104D01*
X170125000Y-48700000D01*
X170125000Y-48250000D01*
X170142127Y-48163896D01*
X170190901Y-48090901D01*
X170263896Y-48042127D01*
X170350000Y-48025000D01*
X170850000Y-48025000D01*
X170936104Y-48042127D01*
G37*
G36*
X190007403Y-47136418D02*
G01*
X190056066Y-47168934D01*
X190088582Y-47217597D01*
X190100000Y-47275000D01*
X190100000Y-48650000D01*
X190088582Y-48707403D01*
X190056066Y-48756066D01*
X190007403Y-48788582D01*
X189950000Y-48800000D01*
X189650000Y-48800000D01*
X189592597Y-48788582D01*
X189543934Y-48756066D01*
X189511418Y-48707403D01*
X189500000Y-48650000D01*
X189500000Y-47275000D01*
X189511418Y-47217597D01*
X189543934Y-47168934D01*
X189592597Y-47136418D01*
X189650000Y-47125000D01*
X189950000Y-47125000D01*
X190007403Y-47136418D01*
G37*
G36*
X191007403Y-47136418D02*
G01*
X191056066Y-47168934D01*
X191088582Y-47217597D01*
X191100000Y-47275000D01*
X191100000Y-48650000D01*
X191088582Y-48707403D01*
X191056066Y-48756066D01*
X191007403Y-48788582D01*
X190950000Y-48800000D01*
X190650000Y-48800000D01*
X190592597Y-48788582D01*
X190543934Y-48756066D01*
X190511418Y-48707403D01*
X190500000Y-48650000D01*
X190500000Y-47275000D01*
X190511418Y-47217597D01*
X190543934Y-47168934D01*
X190592597Y-47136418D01*
X190650000Y-47125000D01*
X190950000Y-47125000D01*
X191007403Y-47136418D01*
G37*
G36*
X192007403Y-47136418D02*
G01*
X192056066Y-47168934D01*
X192088582Y-47217597D01*
X192100000Y-47275000D01*
X192100000Y-48650000D01*
X192088582Y-48707403D01*
X192056066Y-48756066D01*
X192007403Y-48788582D01*
X191950000Y-48800000D01*
X191650000Y-48800000D01*
X191592597Y-48788582D01*
X191543934Y-48756066D01*
X191511418Y-48707403D01*
X191500000Y-48650000D01*
X191500000Y-47275000D01*
X191511418Y-47217597D01*
X191543934Y-47168934D01*
X191592597Y-47136418D01*
X191650000Y-47125000D01*
X191950000Y-47125000D01*
X192007403Y-47136418D01*
G37*
G36*
X193007403Y-47136418D02*
G01*
X193056066Y-47168934D01*
X193088582Y-47217597D01*
X193100000Y-47275000D01*
X193100000Y-48650000D01*
X193088582Y-48707403D01*
X193056066Y-48756066D01*
X193007403Y-48788582D01*
X192950000Y-48800000D01*
X192650000Y-48800000D01*
X192592597Y-48788582D01*
X192543934Y-48756066D01*
X192511418Y-48707403D01*
X192500000Y-48650000D01*
X192500000Y-47275000D01*
X192511418Y-47217597D01*
X192543934Y-47168934D01*
X192592597Y-47136418D01*
X192650000Y-47125000D01*
X192950000Y-47125000D01*
X193007403Y-47136418D01*
G37*
G36*
X194007403Y-47136418D02*
G01*
X194056066Y-47168934D01*
X194088582Y-47217597D01*
X194100000Y-47275000D01*
X194100000Y-48650000D01*
X194088582Y-48707403D01*
X194056066Y-48756066D01*
X194007403Y-48788582D01*
X193950000Y-48800000D01*
X193650000Y-48800000D01*
X193592597Y-48788582D01*
X193543934Y-48756066D01*
X193511418Y-48707403D01*
X193500000Y-48650000D01*
X193500000Y-47275000D01*
X193511418Y-47217597D01*
X193543934Y-47168934D01*
X193592597Y-47136418D01*
X193650000Y-47125000D01*
X193950000Y-47125000D01*
X194007403Y-47136418D01*
G37*
G36*
X166732403Y-48111418D02*
G01*
X166781066Y-48143934D01*
X166813582Y-48192597D01*
X166825000Y-48250000D01*
X166825000Y-48550000D01*
X166813582Y-48607403D01*
X166781066Y-48656066D01*
X166732403Y-48688582D01*
X166675000Y-48700000D01*
X165650000Y-48700000D01*
X165592597Y-48688582D01*
X165543934Y-48656066D01*
X165511418Y-48607403D01*
X165500000Y-48550000D01*
X165500000Y-48250000D01*
X165511418Y-48192597D01*
X165543934Y-48143934D01*
X165592597Y-48111418D01*
X165650000Y-48100000D01*
X166675000Y-48100000D01*
X166732403Y-48111418D01*
G37*
G36*
X169007403Y-48111418D02*
G01*
X169056066Y-48143934D01*
X169088582Y-48192597D01*
X169100000Y-48250000D01*
X169100000Y-48550000D01*
X169088582Y-48607403D01*
X169056066Y-48656066D01*
X169007403Y-48688582D01*
X168950000Y-48700000D01*
X167925000Y-48700000D01*
X167867597Y-48688582D01*
X167818934Y-48656066D01*
X167786418Y-48607403D01*
X167775000Y-48550000D01*
X167775000Y-48250000D01*
X167786418Y-48192597D01*
X167818934Y-48143934D01*
X167867597Y-48111418D01*
X167925000Y-48100000D01*
X168950000Y-48100000D01*
X169007403Y-48111418D01*
G37*
G36*
X205937500Y-47795000D02*
G01*
X205037500Y-47795000D01*
X205037500Y-46795000D01*
X205937500Y-46795000D01*
X205937500Y-47795000D01*
G37*
G36*
X210037500Y-47795000D02*
G01*
X209137500Y-47795000D01*
X209137500Y-46795000D01*
X210037500Y-46795000D01*
X210037500Y-47795000D01*
G37*
G36*
X198237500Y-47495000D02*
G01*
X197337500Y-47495000D01*
X197337500Y-46495000D01*
X198237500Y-46495000D01*
X198237500Y-47495000D01*
G37*
G36*
X202337500Y-47495000D02*
G01*
X201437500Y-47495000D01*
X201437500Y-46495000D01*
X202337500Y-46495000D01*
X202337500Y-47495000D01*
G37*
G36*
X168939116Y-46075818D02*
G01*
X168990379Y-46081766D01*
X169007892Y-46089499D01*
X169030671Y-46094030D01*
X169055057Y-46110324D01*
X169075788Y-46119478D01*
X169089946Y-46133636D01*
X169111777Y-46148223D01*
X169126363Y-46170053D01*
X169140521Y-46184211D01*
X169149673Y-46204939D01*
X169165970Y-46229329D01*
X169170501Y-46252109D01*
X169178233Y-46269620D01*
X169184178Y-46320872D01*
X169185000Y-46325000D01*
X169185000Y-46825000D01*
X169184178Y-46829128D01*
X169178233Y-46880379D01*
X169170501Y-46897888D01*
X169165970Y-46920671D01*
X169149672Y-46945062D01*
X169140521Y-46965788D01*
X169126365Y-46979943D01*
X169111777Y-47001777D01*
X169089943Y-47016365D01*
X169075788Y-47030521D01*
X169055062Y-47039672D01*
X169030671Y-47055970D01*
X169007888Y-47060501D01*
X168990379Y-47068233D01*
X168939129Y-47074178D01*
X168935000Y-47075000D01*
X167985000Y-47075000D01*
X167980873Y-47074179D01*
X167929620Y-47068233D01*
X167912109Y-47060501D01*
X167889329Y-47055970D01*
X167864939Y-47039673D01*
X167844211Y-47030521D01*
X167830053Y-47016363D01*
X167808223Y-47001777D01*
X167793636Y-46979946D01*
X167779478Y-46965788D01*
X167770324Y-46945057D01*
X167754030Y-46920671D01*
X167749499Y-46897892D01*
X167741766Y-46880379D01*
X167735818Y-46829117D01*
X167735000Y-46825000D01*
X167735000Y-46325000D01*
X167735818Y-46320885D01*
X167741766Y-46269620D01*
X167749499Y-46252105D01*
X167754030Y-46229329D01*
X167770323Y-46204944D01*
X167779478Y-46184211D01*
X167793638Y-46170050D01*
X167808223Y-46148223D01*
X167830050Y-46133638D01*
X167844211Y-46119478D01*
X167864944Y-46110323D01*
X167889329Y-46094030D01*
X167912105Y-46089499D01*
X167929620Y-46081766D01*
X167980884Y-46075818D01*
X167985000Y-46075000D01*
X168935000Y-46075000D01*
X168939116Y-46075818D01*
G37*
G36*
X166296104Y-46042127D02*
G01*
X166369099Y-46090901D01*
X166417873Y-46163896D01*
X166435000Y-46250000D01*
X166435000Y-46700000D01*
X166417873Y-46786104D01*
X166369099Y-46859099D01*
X166296104Y-46907873D01*
X166210000Y-46925000D01*
X165710000Y-46925000D01*
X165623896Y-46907873D01*
X165550901Y-46859099D01*
X165502127Y-46786104D01*
X165485000Y-46700000D01*
X165485000Y-46250000D01*
X165502127Y-46163896D01*
X165550901Y-46090901D01*
X165623896Y-46042127D01*
X165710000Y-46025000D01*
X166210000Y-46025000D01*
X166296104Y-46042127D01*
G37*
G36*
X172551537Y-46140224D02*
G01*
X172616421Y-46183579D01*
X172659776Y-46248463D01*
X172675000Y-46325000D01*
X172675000Y-46725000D01*
X172659776Y-46801537D01*
X172616421Y-46866421D01*
X172551537Y-46909776D01*
X172475000Y-46925000D01*
X171925000Y-46925000D01*
X171848463Y-46909776D01*
X171783579Y-46866421D01*
X171740224Y-46801537D01*
X171725000Y-46725000D01*
X171725000Y-46325000D01*
X171740224Y-46248463D01*
X171783579Y-46183579D01*
X171848463Y-46140224D01*
X171925000Y-46125000D01*
X172475000Y-46125000D01*
X172551537Y-46140224D01*
G37*
G36*
X205937500Y-46195000D02*
G01*
X205037500Y-46195000D01*
X205037500Y-45195000D01*
X205937500Y-45195000D01*
X205937500Y-46195000D01*
G37*
G36*
X210037500Y-46195000D02*
G01*
X209137500Y-46195000D01*
X209137500Y-45195000D01*
X210037500Y-45195000D01*
X210037500Y-46195000D01*
G37*
G36*
X190151537Y-45240224D02*
G01*
X190216421Y-45283579D01*
X190259776Y-45348463D01*
X190275000Y-45425000D01*
X190275000Y-45975000D01*
X190259776Y-46051537D01*
X190216421Y-46116421D01*
X190151537Y-46159776D01*
X190075000Y-46175000D01*
X189675000Y-46175000D01*
X189598463Y-46159776D01*
X189533579Y-46116421D01*
X189490224Y-46051537D01*
X189475000Y-45975000D01*
X189475000Y-45425000D01*
X189490224Y-45348463D01*
X189533579Y-45283579D01*
X189598463Y-45240224D01*
X189675000Y-45225000D01*
X190075000Y-45225000D01*
X190151537Y-45240224D01*
G37*
G36*
X191801537Y-45240224D02*
G01*
X191866421Y-45283579D01*
X191909776Y-45348463D01*
X191925000Y-45425000D01*
X191925000Y-45975000D01*
X191909776Y-46051537D01*
X191866421Y-46116421D01*
X191801537Y-46159776D01*
X191725000Y-46175000D01*
X191325000Y-46175000D01*
X191248463Y-46159776D01*
X191183579Y-46116421D01*
X191140224Y-46051537D01*
X191125000Y-45975000D01*
X191125000Y-45425000D01*
X191140224Y-45348463D01*
X191183579Y-45283579D01*
X191248463Y-45240224D01*
X191325000Y-45225000D01*
X191725000Y-45225000D01*
X191801537Y-45240224D01*
G37*
G36*
X174471342Y-44273060D02*
G01*
X174584381Y-44338323D01*
X174676677Y-44430619D01*
X174741940Y-44543658D01*
X174775722Y-44669737D01*
X174780000Y-44735000D01*
X174780000Y-45535000D01*
X174775722Y-45600263D01*
X174741940Y-45726342D01*
X174676677Y-45839381D01*
X174584381Y-45931677D01*
X174471342Y-45996940D01*
X174345263Y-46030722D01*
X174214737Y-46030722D01*
X174088658Y-45996940D01*
X173975619Y-45931677D01*
X173883323Y-45839381D01*
X173818060Y-45726342D01*
X173784278Y-45600263D01*
X173780000Y-45535000D01*
X173780000Y-44735000D01*
X173784278Y-44669737D01*
X173818060Y-44543658D01*
X173883323Y-44430619D01*
X173975619Y-44338323D01*
X174088658Y-44273060D01*
X174214737Y-44239278D01*
X174345263Y-44239278D01*
X174471342Y-44273060D01*
G37*
G36*
X183111342Y-44273060D02*
G01*
X183224381Y-44338323D01*
X183316677Y-44430619D01*
X183381940Y-44543658D01*
X183415722Y-44669737D01*
X183420000Y-44735000D01*
X183420000Y-45535000D01*
X183415722Y-45600263D01*
X183381940Y-45726342D01*
X183316677Y-45839381D01*
X183224381Y-45931677D01*
X183111342Y-45996940D01*
X182985263Y-46030722D01*
X182854737Y-46030722D01*
X182728658Y-45996940D01*
X182615619Y-45931677D01*
X182523323Y-45839381D01*
X182458060Y-45726342D01*
X182424278Y-45600263D01*
X182420000Y-45535000D01*
X182420000Y-44735000D01*
X182424278Y-44669737D01*
X182458060Y-44543658D01*
X182523323Y-44430619D01*
X182615619Y-44338323D01*
X182728658Y-44273060D01*
X182854737Y-44239278D01*
X182985263Y-44239278D01*
X183111342Y-44273060D01*
G37*
G36*
X198237500Y-45895000D02*
G01*
X197337500Y-45895000D01*
X197337500Y-44895000D01*
X198237500Y-44895000D01*
X198237500Y-45895000D01*
G37*
G36*
X202337500Y-45895000D02*
G01*
X201437500Y-45895000D01*
X201437500Y-44895000D01*
X202337500Y-44895000D01*
X202337500Y-45895000D01*
G37*
G36*
X166296104Y-44492127D02*
G01*
X166369099Y-44540901D01*
X166417873Y-44613896D01*
X166435000Y-44700000D01*
X166435000Y-45150000D01*
X166417873Y-45236104D01*
X166369099Y-45309099D01*
X166296104Y-45357873D01*
X166210000Y-45375000D01*
X165710000Y-45375000D01*
X165623896Y-45357873D01*
X165550901Y-45309099D01*
X165502127Y-45236104D01*
X165485000Y-45150000D01*
X165485000Y-44700000D01*
X165502127Y-44613896D01*
X165550901Y-44540901D01*
X165623896Y-44492127D01*
X165710000Y-44475000D01*
X166210000Y-44475000D01*
X166296104Y-44492127D01*
G37*
G36*
X172551537Y-44490224D02*
G01*
X172616421Y-44533579D01*
X172659776Y-44598463D01*
X172675000Y-44675000D01*
X172675000Y-45075000D01*
X172659776Y-45151537D01*
X172616421Y-45216421D01*
X172551537Y-45259776D01*
X172475000Y-45275000D01*
X171925000Y-45275000D01*
X171848463Y-45259776D01*
X171783579Y-45216421D01*
X171740224Y-45151537D01*
X171725000Y-45075000D01*
X171725000Y-44675000D01*
X171740224Y-44598463D01*
X171783579Y-44533579D01*
X171848463Y-44490224D01*
X171925000Y-44475000D01*
X172475000Y-44475000D01*
X172551537Y-44490224D01*
G37*
G36*
X168939116Y-44175818D02*
G01*
X168990379Y-44181766D01*
X169007892Y-44189499D01*
X169030671Y-44194030D01*
X169055057Y-44210324D01*
X169075788Y-44219478D01*
X169089946Y-44233636D01*
X169111777Y-44248223D01*
X169126363Y-44270053D01*
X169140521Y-44284211D01*
X169149673Y-44304939D01*
X169165970Y-44329329D01*
X169170501Y-44352109D01*
X169178233Y-44369620D01*
X169184178Y-44420872D01*
X169185000Y-44425000D01*
X169185000Y-44925000D01*
X169184178Y-44929128D01*
X169178233Y-44980379D01*
X169170501Y-44997888D01*
X169165970Y-45020671D01*
X169149672Y-45045062D01*
X169140521Y-45065788D01*
X169126365Y-45079943D01*
X169111777Y-45101777D01*
X169089943Y-45116365D01*
X169075788Y-45130521D01*
X169055062Y-45139672D01*
X169030671Y-45155970D01*
X169007888Y-45160501D01*
X168990379Y-45168233D01*
X168939129Y-45174178D01*
X168935000Y-45175000D01*
X167985000Y-45175000D01*
X167980873Y-45174179D01*
X167929620Y-45168233D01*
X167912109Y-45160501D01*
X167889329Y-45155970D01*
X167864939Y-45139673D01*
X167844211Y-45130521D01*
X167830053Y-45116363D01*
X167808223Y-45101777D01*
X167793636Y-45079946D01*
X167779478Y-45065788D01*
X167770324Y-45045057D01*
X167754030Y-45020671D01*
X167749499Y-44997892D01*
X167741766Y-44980379D01*
X167735818Y-44929117D01*
X167735000Y-44925000D01*
X167735000Y-44425000D01*
X167735818Y-44420885D01*
X167741766Y-44369620D01*
X167749499Y-44352105D01*
X167754030Y-44329329D01*
X167770323Y-44304944D01*
X167779478Y-44284211D01*
X167793638Y-44270050D01*
X167808223Y-44248223D01*
X167830050Y-44233638D01*
X167844211Y-44219478D01*
X167864944Y-44210323D01*
X167889329Y-44194030D01*
X167912105Y-44189499D01*
X167929620Y-44181766D01*
X167980884Y-44175818D01*
X167985000Y-44175000D01*
X168935000Y-44175000D01*
X168939116Y-44175818D01*
G37*
M02*
