%TF.GenerationSoftware,KiCad,Pcbnew,10.0.1*%
%TF.CreationDate,2026-06-24T16:32:23+01:00*%
%TF.ProjectId,ESP32_IoT_Board_Design,45535033-325f-4496-9f54-5f426f617264,rev?*%
%TF.SameCoordinates,Original*%
%TF.FileFunction,Copper,L1,Top*%
%TF.FilePolarity,Positive*%
%FSLAX46Y46*%
G04 Gerber Fmt 4.6, Leading zero omitted, Abs format (unit mm)*
G04 Created by KiCad (PCBNEW 10.0.1) date 2026-06-24 16:32:23*
%MOMM*%
%LPD*%
G01*
G04 APERTURE LIST*
G04 Aperture macros list*
%AMRoundRect*
0 Rectangle with rounded corners*
0 $1 Rounding radius*
0 $2 $3 $4 $5 $6 $7 $8 $9 X,Y pos of 4 corners*
0 Add a 4 corners polygon primitive as box body*
4,1,4,$2,$3,$4,$5,$6,$7,$8,$9,$2,$3,0*
0 Add four circle primitives for the rounded corners*
1,1,$1+$1,$2,$3*
1,1,$1+$1,$4,$5*
1,1,$1+$1,$6,$7*
1,1,$1+$1,$8,$9*
0 Add four rect primitives between the rounded corners*
20,1,$1+$1,$2,$3,$4,$5,0*
20,1,$1+$1,$4,$5,$6,$7,0*
20,1,$1+$1,$6,$7,$8,$9,0*
20,1,$1+$1,$8,$9,$2,$3,0*%
G04 Aperture macros list end*
%TA.AperFunction,SMDPad,CuDef*%
%ADD10R,0.900000X1.500000*%
%TD*%
%TA.AperFunction,SMDPad,CuDef*%
%ADD11R,1.500000X0.900000*%
%TD*%
%TA.AperFunction,SMDPad,CuDef*%
%ADD12R,1.050000X1.050000*%
%TD*%
%TA.AperFunction,HeatsinkPad*%
%ADD13C,0.600000*%
%TD*%
%TA.AperFunction,HeatsinkPad*%
%ADD14R,4.200000X4.200000*%
%TD*%
%TA.AperFunction,ComponentPad*%
%ADD15C,6.400000*%
%TD*%
%TA.AperFunction,SMDPad,CuDef*%
%ADD16RoundRect,0.225000X0.250000X-0.225000X0.250000X0.225000X-0.250000X0.225000X-0.250000X-0.225000X0*%
%TD*%
%TA.AperFunction,SMDPad,CuDef*%
%ADD17R,0.900000X1.000000*%
%TD*%
%TA.AperFunction,SMDPad,CuDef*%
%ADD18RoundRect,0.200000X-0.200000X-0.275000X0.200000X-0.275000X0.200000X0.275000X-0.200000X0.275000X0*%
%TD*%
%TA.AperFunction,SMDPad,CuDef*%
%ADD19RoundRect,0.218750X0.256250X-0.218750X0.256250X0.218750X-0.256250X0.218750X-0.256250X-0.218750X0*%
%TD*%
%TA.AperFunction,SMDPad,CuDef*%
%ADD20RoundRect,0.225000X-0.250000X0.225000X-0.250000X-0.225000X0.250000X-0.225000X0.250000X0.225000X0*%
%TD*%
%TA.AperFunction,SMDPad,CuDef*%
%ADD21RoundRect,0.250000X0.475000X-0.250000X0.475000X0.250000X-0.475000X0.250000X-0.475000X-0.250000X0*%
%TD*%
%TA.AperFunction,SMDPad,CuDef*%
%ADD22R,0.300000X0.300000*%
%TD*%
%TA.AperFunction,SMDPad,CuDef*%
%ADD23R,0.900000X0.300000*%
%TD*%
%TA.AperFunction,SMDPad,CuDef*%
%ADD24R,0.300000X0.900000*%
%TD*%
%TA.AperFunction,ComponentPad*%
%ADD25C,0.600000*%
%TD*%
%TA.AperFunction,SMDPad,CuDef*%
%ADD26R,1.800000X1.800000*%
%TD*%
%TA.AperFunction,SMDPad,CuDef*%
%ADD27RoundRect,0.200000X-0.275000X0.200000X-0.275000X-0.200000X0.275000X-0.200000X0.275000X0.200000X0*%
%TD*%
%TA.AperFunction,ComponentPad*%
%ADD28R,1.700000X1.700000*%
%TD*%
%TA.AperFunction,ComponentPad*%
%ADD29C,1.700000*%
%TD*%
%TA.AperFunction,SMDPad,CuDef*%
%ADD30RoundRect,0.250000X-0.625000X0.375000X-0.625000X-0.375000X0.625000X-0.375000X0.625000X0.375000X0*%
%TD*%
%TA.AperFunction,SMDPad,CuDef*%
%ADD31RoundRect,0.200000X0.275000X-0.200000X0.275000X0.200000X-0.275000X0.200000X-0.275000X-0.200000X0*%
%TD*%
%TA.AperFunction,SMDPad,CuDef*%
%ADD32RoundRect,0.150000X0.150000X-0.687500X0.150000X0.687500X-0.150000X0.687500X-0.150000X-0.687500X0*%
%TD*%
%TA.AperFunction,HeatsinkPad*%
%ADD33R,3.300000X2.100000*%
%TD*%
%TA.AperFunction,SMDPad,CuDef*%
%ADD34RoundRect,0.218750X-0.256250X0.218750X-0.256250X-0.218750X0.256250X-0.218750X0.256250X0.218750X0*%
%TD*%
%TA.AperFunction,SMDPad,CuDef*%
%ADD35RoundRect,0.175000X-0.325000X0.175000X-0.325000X-0.175000X0.325000X-0.175000X0.325000X0.175000X0*%
%TD*%
%TA.AperFunction,SMDPad,CuDef*%
%ADD36RoundRect,0.150000X-0.150000X0.200000X-0.150000X-0.200000X0.150000X-0.200000X0.150000X0.200000X0*%
%TD*%
%TA.AperFunction,SMDPad,CuDef*%
%ADD37C,1.000000*%
%TD*%
%TA.AperFunction,SMDPad,CuDef*%
%ADD38RoundRect,0.150000X-0.512500X-0.150000X0.512500X-0.150000X0.512500X0.150000X-0.512500X0.150000X0*%
%TD*%
%TA.AperFunction,SMDPad,CuDef*%
%ADD39RoundRect,0.200000X0.200000X0.275000X-0.200000X0.275000X-0.200000X-0.275000X0.200000X-0.275000X0*%
%TD*%
%TA.AperFunction,SMDPad,CuDef*%
%ADD40RoundRect,0.150000X0.150000X0.425000X-0.150000X0.425000X-0.150000X-0.425000X0.150000X-0.425000X0*%
%TD*%
%TA.AperFunction,SMDPad,CuDef*%
%ADD41RoundRect,0.075000X0.075000X0.500000X-0.075000X0.500000X-0.075000X-0.500000X0.075000X-0.500000X0*%
%TD*%
%TA.AperFunction,ComponentPad*%
%ADD42O,1.000000X2.100000*%
%TD*%
%TA.AperFunction,ComponentPad*%
%ADD43O,1.000000X1.800000*%
%TD*%
%TA.AperFunction,SMDPad,CuDef*%
%ADD44RoundRect,0.250000X0.650000X-1.000000X0.650000X1.000000X-0.650000X1.000000X-0.650000X-1.000000X0*%
%TD*%
%TA.AperFunction,SMDPad,CuDef*%
%ADD45RoundRect,0.225000X0.225000X0.250000X-0.225000X0.250000X-0.225000X-0.250000X0.225000X-0.250000X0*%
%TD*%
%TA.AperFunction,SMDPad,CuDef*%
%ADD46RoundRect,0.225000X-0.225000X-0.250000X0.225000X-0.250000X0.225000X0.250000X-0.225000X0.250000X0*%
%TD*%
%TA.AperFunction,ViaPad*%
%ADD47C,0.700000*%
%TD*%
%TA.AperFunction,ViaPad*%
%ADD48C,0.600000*%
%TD*%
%TA.AperFunction,Conductor*%
%ADD49C,0.150000*%
%TD*%
%TA.AperFunction,Conductor*%
%ADD50C,0.600000*%
%TD*%
%TA.AperFunction,Conductor*%
%ADD51C,0.200000*%
%TD*%
%TA.AperFunction,Conductor*%
%ADD52C,0.250000*%
%TD*%
G04 APERTURE END LIST*
D10*
%TO.P,U1,1,GND_1*%
%TO.N,GND*%
X195602500Y-68150000D03*
%TO.P,U1,2,VDD_2*%
%TO.N,3V3*%
X194332500Y-68150000D03*
%TO.P,U1,3,EN_3*%
%TO.N,EN*%
X193062500Y-68150000D03*
%TO.P,U1,4,SENSOR_VP_4*%
%TO.N,unconnected-(U1-SENSOR_VP-Pad4)*%
X191792500Y-68150000D03*
%TO.P,U1,5,SENSOR_VN_5*%
%TO.N,unconnected-(U1-SENSOR_VN-Pad5)*%
X190522500Y-68150000D03*
%TO.P,U1,6,IO34_6*%
%TO.N,unconnected-(U1-IO34-Pad6)*%
X189252500Y-68150000D03*
%TO.P,U1,7,IO35_7*%
%TO.N,unconnected-(U1-IO35-Pad7)*%
X187982500Y-68150000D03*
%TO.P,U1,8,IO32_8*%
%TO.N,unconnected-(U1-IO32-Pad8)*%
X186712500Y-68150000D03*
%TO.P,U1,9,IO33_9*%
%TO.N,unconnected-(U1-IO33-Pad9)*%
X185442500Y-68150000D03*
%TO.P,U1,10,IO25_10*%
%TO.N,unconnected-(U1-IO25-Pad10)*%
X184172500Y-68150000D03*
%TO.P,U1,11,IO26_11*%
%TO.N,unconnected-(U1-IO26-Pad11)*%
X182902500Y-68150000D03*
%TO.P,U1,12,IO27_12*%
%TO.N,unconnected-(U1-IO27-Pad12)*%
X181632500Y-68150000D03*
%TO.P,U1,13,IO14_13*%
%TO.N,unconnected-(U1-IO14-Pad13)*%
X180362500Y-68150000D03*
%TO.P,U1,14,IO12_14*%
%TO.N,unconnected-(U1-IO12-Pad14)*%
X179092500Y-68150000D03*
D11*
%TO.P,U1,15,GND_15*%
%TO.N,GND*%
X177842500Y-71190000D03*
%TO.P,U1,16,IO13_16*%
%TO.N,unconnected-(U1-IO13-Pad16)*%
X177842500Y-72460000D03*
%TO.P,U1,17,SHD/SD2_17*%
%TO.N,unconnected-(U1-SHD{slash}SD2-Pad17)*%
X177842500Y-73730000D03*
%TO.P,U1,18,SWP/SD3_18*%
%TO.N,unconnected-(U1-SWP{slash}SD3-Pad18)*%
X177842500Y-75000000D03*
%TO.P,U1,19,SCS/CMD_19*%
%TO.N,unconnected-(U1-SCS{slash}CMD-Pad19)*%
X177842500Y-76270000D03*
%TO.P,U1,20,SCK/CLK_20*%
%TO.N,unconnected-(U1-SCK{slash}CLK-Pad20)*%
X177842500Y-77540000D03*
%TO.P,U1,21,SDO/SD0_21*%
%TO.N,unconnected-(U1-SDO{slash}SD0-Pad21)*%
X177842500Y-78810000D03*
%TO.P,U1,22,SDI/SD1_22*%
%TO.N,unconnected-(U1-SDI{slash}SD1-Pad22)*%
X177842500Y-80080000D03*
%TO.P,U1,23,IO15_23*%
%TO.N,unconnected-(U1-IO15-Pad23)*%
X177842500Y-81350000D03*
%TO.P,U1,24,IO2_24*%
%TO.N,GPIO.02*%
X177842500Y-82620000D03*
D10*
%TO.P,U1,25,IO0_25*%
%TO.N,IO0*%
X179092500Y-85650000D03*
%TO.P,U1,26,IO4_26*%
%TO.N,unconnected-(U1-IO4-Pad26)*%
X180362500Y-85650000D03*
%TO.P,U1,27,IO16_27*%
%TO.N,RXD2*%
X181632500Y-85650000D03*
%TO.P,U1,28,IO17_28*%
%TO.N,TXD2*%
X182902500Y-85650000D03*
%TO.P,U1,29,IO5_29*%
%TO.N,CS*%
X184172500Y-85650000D03*
%TO.P,U1,30,IO18_30*%
%TO.N,SCLK*%
X185442500Y-85650000D03*
%TO.P,U1,31,IO19_31*%
%TO.N,MISO*%
X186712500Y-85650000D03*
%TO.P,U1,32,NC_32*%
%TO.N,unconnected-(U1-NC-Pad32)*%
X187982500Y-85650000D03*
%TO.P,U1,33,IO21_33*%
%TO.N,SDA*%
X189252500Y-85650000D03*
%TO.P,U1,34,RXD0/IO3_34*%
%TO.N,TX0*%
X190522500Y-85650000D03*
%TO.P,U1,35,TXD0/IO1_35*%
%TO.N,RX0*%
X191792500Y-85650000D03*
%TO.P,U1,36,IO22_36*%
%TO.N,SCL*%
X193062500Y-85650000D03*
%TO.P,U1,37,IO23_37*%
%TO.N,MOSI*%
X194332500Y-85650000D03*
%TO.P,U1,38,GND_38*%
%TO.N,GND*%
X195602500Y-85650000D03*
D12*
%TO.P,U1,39,GND_39*%
X189787500Y-74695000D03*
D13*
X189025000Y-74695000D03*
D12*
X188262500Y-74695000D03*
D13*
X187500000Y-74695000D03*
D12*
X186737500Y-74695000D03*
D13*
X189787500Y-75457500D03*
X188262500Y-75457500D03*
X186737500Y-75457500D03*
D12*
X189787500Y-76220000D03*
D13*
X189025000Y-76220000D03*
D12*
X188262500Y-76220000D03*
D14*
X188262500Y-76220000D03*
D13*
X187500000Y-76220000D03*
D12*
X186737500Y-76220000D03*
D13*
X189787500Y-76982500D03*
X188262500Y-76982500D03*
X186737500Y-76982500D03*
D12*
X189787500Y-77745000D03*
D13*
X189025000Y-77745000D03*
D12*
X188262500Y-77745000D03*
D13*
X187500000Y-77745000D03*
D12*
X186737500Y-77745000D03*
%TD*%
D15*
%TO.P,REF\u002A\u002A,1*%
%TO.N,N/C*%
X214700000Y-48000000D03*
%TD*%
D16*
%TO.P,C8,1*%
%TO.N,Net-(U4-VDD)*%
X170500000Y-62300000D03*
%TO.P,C8,2*%
%TO.N,GND*%
X170500000Y-60750000D03*
%TD*%
D17*
%TO.P,SW1,1,1_1*%
%TO.N,GND*%
X197787500Y-45395000D03*
X201887500Y-45395000D03*
%TO.P,SW1,2,2_2*%
%TO.N,EN*%
X197787500Y-46995000D03*
X201887500Y-46995000D03*
%TD*%
D18*
%TO.P,R3,1*%
%TO.N,3V3*%
X160675000Y-62150000D03*
%TO.P,R3,2*%
%TO.N,Net-(U4-~{RST})*%
X162325000Y-62150000D03*
%TD*%
D19*
%TO.P,D4,1,K_1*%
%TO.N,GND*%
X193400000Y-100150000D03*
%TO.P,D4,2,A_2*%
%TO.N,Net-(D4-A)*%
X193400000Y-98575000D03*
%TD*%
D20*
%TO.P,C4,1*%
%TO.N,3V3*%
X170600000Y-48475000D03*
%TO.P,C4,2*%
%TO.N,GND*%
X170600000Y-50025000D03*
%TD*%
D21*
%TO.P,C1,1*%
%TO.N,5V_USB*%
X162600000Y-50650000D03*
%TO.P,C1,2*%
%TO.N,GND*%
X162600000Y-48750000D03*
%TD*%
D16*
%TO.P,C9,1*%
%TO.N,Net-(U4-VDD)*%
X172350000Y-62350000D03*
%TO.P,C9,2*%
%TO.N,GND*%
X172350000Y-60800000D03*
%TD*%
D22*
%TO.P,U4,1,RS485/GPIO.1_1*%
%TO.N,unconnected-(U4-RS485{slash}GPIO.1-Pad1)*%
X168900000Y-67550000D03*
D23*
%TO.P,U4,2,CLK/GPIO.0_2*%
%TO.N,unconnected-(U4-CLK{slash}GPIO.0-Pad2)*%
X169200000Y-67050000D03*
%TO.P,U4,3,GND_3*%
%TO.N,GND*%
X169200000Y-66550000D03*
%TO.P,U4,4,D+_4*%
%TO.N,USB_P*%
X169200000Y-66050000D03*
%TO.P,U4,5,D-_5*%
%TO.N,USB_N*%
X169200000Y-65550000D03*
D22*
%TO.P,U4,6,VDD_6*%
%TO.N,Net-(U4-VDD)*%
X168900000Y-65050000D03*
D24*
%TO.P,U4,7,VREGIN_7*%
%TO.N,5V_USB*%
X168400000Y-64750000D03*
%TO.P,U4,8,VBUS_8*%
%TO.N,Net-(U4-VBUS)*%
X167900000Y-64750000D03*
%TO.P,U4,9,~{RST}_9*%
%TO.N,Net-(U4-~{RST})*%
X167400000Y-64750000D03*
%TO.P,U4,10,NC_10*%
%TO.N,unconnected-(U4-NC-Pad10)*%
X166900000Y-64750000D03*
D22*
%TO.P,U4,11,~{SUSPEND}_11*%
%TO.N,unconnected-(U4-~{SUSPEND}-Pad11)*%
X166400000Y-65050000D03*
D23*
%TO.P,U4,12,GND_12*%
%TO.N,GND*%
X166100000Y-65550000D03*
%TO.P,U4,13,~{WAKEUP}_13*%
%TO.N,unconnected-(U4-~{WAKEUP}-Pad13)*%
X166100000Y-66050000D03*
%TO.P,U4,14,SUSPEND_14*%
%TO.N,unconnected-(U4-SUSPEND-Pad14)*%
X166100000Y-66550000D03*
%TO.P,U4,15,~{CTS}_15*%
%TO.N,unconnected-(U4-~{CTS}-Pad15)*%
X166100000Y-67050000D03*
D22*
%TO.P,U4,16,~{RTS}_16*%
%TO.N,unconnected-(U4-~{RTS}-Pad16)*%
X166400000Y-67550000D03*
D24*
%TO.P,U4,17,RXD_17*%
%TO.N,RX0*%
X166900000Y-67850000D03*
%TO.P,U4,18,TXD_18*%
%TO.N,TX0*%
X167400000Y-67850000D03*
%TO.P,U4,19,~{RXT}/GPIO.3_19*%
%TO.N,unconnected-(U4-~{RXT}{slash}GPIO.3-Pad19)*%
X167900000Y-67850000D03*
%TO.P,U4,20,~{TXT}/GPIO.2_20*%
%TO.N,unconnected-(U4-~{TXT}{slash}GPIO.2-Pad20)*%
X168400000Y-67850000D03*
D25*
%TO.P,U4,21,GND_21*%
%TO.N,GND*%
X168100000Y-66300000D03*
X167650000Y-66750000D03*
X167650000Y-66300000D03*
D26*
X167650000Y-66300000D03*
D25*
X167650000Y-65850000D03*
X167200000Y-66300000D03*
%TD*%
D27*
%TO.P,R7,1*%
%TO.N,VBUS*%
X187800000Y-49700000D03*
%TO.P,R7,2*%
%TO.N,Net-(U2-CFG1)*%
X187800000Y-51350000D03*
%TD*%
D28*
%TO.P,J3,1,Pin_1_1*%
%TO.N,3V3*%
X165400000Y-99540000D03*
D29*
%TO.P,J3,2,Pin_2_2*%
%TO.N,GND*%
X165400000Y-97000000D03*
%TO.P,J3,3,Pin_3_3*%
%TO.N,MOSI*%
X165400000Y-94460000D03*
%TO.P,J3,4,Pin_4_4*%
%TO.N,MISO*%
X165400000Y-91920000D03*
%TO.P,J3,5,Pin_5_5*%
%TO.N,SCLK*%
X165400000Y-89380000D03*
%TO.P,J3,6,Pin_6_6*%
%TO.N,CS*%
X165400000Y-86840000D03*
%TD*%
D30*
%TO.P,F1,1*%
%TO.N,VBUS*%
X185150000Y-55600000D03*
%TO.P,F1,2*%
%TO.N,Net-(D1-A1)*%
X185150000Y-58400000D03*
%TD*%
D27*
%TO.P,R11,1*%
%TO.N,3V3*%
X183700000Y-92300000D03*
%TO.P,R11,2*%
%TO.N,Net-(D5-A)*%
X183700000Y-93950000D03*
%TD*%
D31*
%TO.P,R2,1*%
%TO.N,3V3*%
X179987500Y-90230000D03*
%TO.P,R2,2*%
%TO.N,IO0*%
X179987500Y-88580000D03*
%TD*%
D21*
%TO.P,C3,1*%
%TO.N,3V3*%
X168460000Y-46575000D03*
%TO.P,C3,2*%
%TO.N,GND*%
X168460000Y-44675000D03*
%TD*%
D32*
%TO.P,U2,1,VDD_1*%
%TO.N,Net-(U2-CFG1)*%
X189800000Y-53237500D03*
%TO.P,U2,2,CFG2_2*%
%TO.N,unconnected-(U2-CFG2-Pad2)*%
X190800000Y-53237500D03*
%TO.P,U2,3,CFG3_3*%
%TO.N,unconnected-(U2-CFG3-Pad3)*%
X191800000Y-53237500D03*
%TO.P,U2,4,DP_4*%
%TO.N,unconnected-(U2-DP-Pad4)*%
X192800000Y-53237500D03*
%TO.P,U2,5,DM_5*%
%TO.N,unconnected-(U2-DM-Pad5)*%
X193800000Y-53237500D03*
%TO.P,U2,6,CC2_6*%
%TO.N,/CC2*%
X193800000Y-47962500D03*
%TO.P,U2,7,CC1_7*%
%TO.N,/CC1*%
X192800000Y-47962500D03*
%TO.P,U2,8,VBUS_8*%
%TO.N,Net-(U2-VBUS)*%
X191800000Y-47962500D03*
%TO.P,U2,9,CFG1_9*%
%TO.N,Net-(U2-CFG1)*%
X190800000Y-47962500D03*
%TO.P,U2,10,PG_10*%
%TO.N,PG*%
X189800000Y-47962500D03*
D33*
%TO.P,U2,11,GND_11*%
%TO.N,GND*%
X191800000Y-50600000D03*
%TD*%
D27*
%TO.P,R4,1*%
%TO.N,GND*%
X172200000Y-44875000D03*
%TO.P,R4,2*%
%TO.N,Net-(J1-SHIELD)*%
X172200000Y-46525000D03*
%TD*%
D34*
%TO.P,D5,1,K_1*%
%TO.N,PG*%
X183600000Y-98350000D03*
%TO.P,D5,2,A_2*%
%TO.N,Net-(D5-A)*%
X183600000Y-99925000D03*
%TD*%
D31*
%TO.P,R10,1*%
%TO.N,Net-(D3-A)*%
X188700000Y-93775000D03*
%TO.P,R10,2*%
%TO.N,GPIO.02*%
X188700000Y-92125000D03*
%TD*%
D28*
%TO.P,J2,1,Pin_1_1*%
%TO.N,3V3*%
X176180000Y-99320000D03*
D29*
%TO.P,J2,2,Pin_2_2*%
%TO.N,GND*%
X176180000Y-96780000D03*
%TO.P,J2,3,Pin_3_3*%
%TO.N,SDA*%
X176180000Y-94240000D03*
%TO.P,J2,4,Pin_4_4*%
%TO.N,SCL*%
X176180000Y-91700000D03*
%TD*%
D17*
%TO.P,SW2,1,1_1*%
%TO.N,GND*%
X205487500Y-45695000D03*
X209587500Y-45695000D03*
%TO.P,SW2,2,2_2*%
%TO.N,IO0*%
X205487500Y-47295000D03*
X209587500Y-47295000D03*
%TD*%
D35*
%TO.P,D2,1,A_1*%
%TO.N,GND*%
X174250000Y-64275000D03*
D36*
%TO.P,D2,2,K_2*%
%TO.N,VBUS*%
X172550000Y-64275000D03*
%TO.P,D2,3,K_3*%
%TO.N,USB_P*%
X172550000Y-66275000D03*
%TO.P,D2,4,K_4*%
%TO.N,USB_N*%
X174450000Y-66275000D03*
%TD*%
D37*
%TO.P,TP5,1,1_1*%
%TO.N,IO0*%
X171000000Y-85200000D03*
%TD*%
D15*
%TO.P,REF\u002A\u002A,1*%
%TO.N,N/C*%
X155400000Y-97800000D03*
%TD*%
D16*
%TO.P,C2,1*%
%TO.N,5V_USB*%
X165960000Y-46475000D03*
%TO.P,C2,2*%
%TO.N,GND*%
X165960000Y-44925000D03*
%TD*%
D37*
%TO.P,TP3,1,1_1*%
%TO.N,GND*%
X171000000Y-79100000D03*
%TD*%
%TO.P,TP1,1,1_1*%
%TO.N,5V_USB*%
X171000000Y-73000000D03*
%TD*%
D28*
%TO.P,J4,1,Pin_1_1*%
%TO.N,3V3*%
X171000000Y-99240000D03*
D29*
%TO.P,J4,2,Pin_2_2*%
%TO.N,GND*%
X171000000Y-96700000D03*
%TO.P,J4,3,Pin_3_3*%
%TO.N,TXD2*%
X171000000Y-94160000D03*
%TO.P,J4,4,Pin_4_4*%
%TO.N,RXD2*%
X171000000Y-91620000D03*
%TD*%
D19*
%TO.P,D3,1,K_1*%
%TO.N,GND*%
X188600000Y-100037500D03*
%TO.P,D3,2,A_2*%
%TO.N,Net-(D3-A)*%
X188600000Y-98462500D03*
%TD*%
D15*
%TO.P,REF\u002A\u002A,1*%
%TO.N,N/C*%
X156700000Y-47900000D03*
%TD*%
D18*
%TO.P,R8,1*%
%TO.N,VBUS*%
X189875000Y-45700000D03*
%TO.P,R8,2*%
%TO.N,Net-(U2-VBUS)*%
X191525000Y-45700000D03*
%TD*%
D38*
%TO.P,U3,1,VIN_1*%
%TO.N,5V_USB*%
X166162500Y-48400000D03*
%TO.P,U3,2,GND_2*%
%TO.N,GND*%
X166162500Y-49350000D03*
%TO.P,U3,3,EN_3*%
%TO.N,5V_USB*%
X166162500Y-50300000D03*
%TO.P,U3,4,NC_4*%
%TO.N,unconnected-(U3-NC-Pad4)*%
X168437500Y-50300000D03*
%TO.P,U3,5,VOUT_5*%
%TO.N,3V3*%
X168437500Y-48400000D03*
%TD*%
D39*
%TO.P,R6,1*%
%TO.N,Net-(U4-VBUS)*%
X162325000Y-60250000D03*
%TO.P,R6,2*%
%TO.N,VBUS*%
X160675000Y-60250000D03*
%TD*%
D37*
%TO.P,TP2,1,1_1*%
%TO.N,3V3*%
X171000000Y-76050000D03*
%TD*%
D16*
%TO.P,C7,1*%
%TO.N,5V_USB*%
X168400000Y-62300000D03*
%TO.P,C7,2*%
%TO.N,GND*%
X168400000Y-60750000D03*
%TD*%
D37*
%TO.P,TP4,1,1_1*%
%TO.N,EN*%
X171000000Y-82150000D03*
%TD*%
D31*
%TO.P,R9,1*%
%TO.N,Net-(D4-A)*%
X193500000Y-93850000D03*
%TO.P,R9,2*%
%TO.N,3V3*%
X193500000Y-92200000D03*
%TD*%
D40*
%TO.P,J1,A1,GND_A1*%
%TO.N,GND*%
X181800000Y-49890000D03*
%TO.P,J1,A4,VBUS_A4*%
%TO.N,VBUS*%
X181000000Y-49890000D03*
D41*
%TO.P,J1,A5,CC1_A5*%
%TO.N,/CC1*%
X179850000Y-49890000D03*
%TO.P,J1,A6,D+_A6*%
%TO.N,USB_P*%
X178850000Y-49890000D03*
%TO.P,J1,A7,D-_A7*%
%TO.N,USB_N*%
X178350000Y-49890000D03*
%TO.P,J1,A8,SBU1_A8*%
%TO.N,unconnected-(J1-SBU1-PadA8)*%
X177350000Y-49890000D03*
D40*
%TO.P,J1,A9,VBUS_A9*%
%TO.N,VBUS*%
X176200000Y-49890000D03*
%TO.P,J1,A12,GND_A12*%
%TO.N,GND*%
X175400000Y-49890000D03*
%TO.P,J1,B1,GND_B1*%
X175400000Y-49890000D03*
%TO.P,J1,B4,VBUS_B4*%
%TO.N,VBUS*%
X176200000Y-49890000D03*
D41*
%TO.P,J1,B5,CC2_B5*%
%TO.N,/CC2*%
X176850000Y-49890000D03*
%TO.P,J1,B6,D+_B6*%
%TO.N,USB_P*%
X177850000Y-49890000D03*
%TO.P,J1,B7,D-_B7*%
%TO.N,USB_N*%
X179350000Y-49890000D03*
%TO.P,J1,B8,SBU2_B8*%
%TO.N,unconnected-(J1-SBU2-PadB8)*%
X180350000Y-49890000D03*
D40*
%TO.P,J1,B9,VBUS_B9*%
%TO.N,VBUS*%
X181000000Y-49890000D03*
%TO.P,J1,B12,GND_B12*%
%TO.N,GND*%
X181800000Y-49890000D03*
D42*
%TO.P,J1,SH,SHIELD_SH*%
%TO.N,Net-(J1-SHIELD)*%
X182920000Y-49315000D03*
D43*
X182920000Y-45135000D03*
D42*
X174280000Y-49315000D03*
D43*
X174280000Y-45135000D03*
%TD*%
D44*
%TO.P,D1,1,A1_1*%
%TO.N,Net-(D1-A1)*%
X180750000Y-59500000D03*
%TO.P,D1,2,A2_2*%
%TO.N,5V_USB*%
X180750000Y-55500000D03*
%TD*%
D45*
%TO.P,C5,1*%
%TO.N,EN*%
X191300000Y-65300000D03*
%TO.P,C5,2*%
%TO.N,GND*%
X189750000Y-65300000D03*
%TD*%
D31*
%TO.P,R5,1*%
%TO.N,Net-(U4-VBUS)*%
X164600000Y-62375000D03*
%TO.P,R5,2*%
%TO.N,GND*%
X164600000Y-60725000D03*
%TD*%
D16*
%TO.P,C6,1*%
%TO.N,5V_USB*%
X166500000Y-62275000D03*
%TO.P,C6,2*%
%TO.N,GND*%
X166500000Y-60725000D03*
%TD*%
D46*
%TO.P,C11,1*%
%TO.N,Net-(U2-CFG1)*%
X189825000Y-55900000D03*
%TO.P,C11,2*%
%TO.N,GND*%
X191375000Y-55900000D03*
%TD*%
D39*
%TO.P,R1,1*%
%TO.N,3V3*%
X194650000Y-65400000D03*
%TO.P,R1,2*%
%TO.N,EN*%
X193000000Y-65400000D03*
%TD*%
D47*
%TO.N,GND*%
X183857771Y-52215542D03*
X174850000Y-51500000D03*
X171200000Y-67200000D03*
X164700000Y-65550000D03*
X165650000Y-59050000D03*
X174365686Y-63265686D03*
X175750000Y-70950000D03*
X168900000Y-79250000D03*
X168100000Y-96600000D03*
X173600000Y-96900000D03*
X178600000Y-95400000D03*
X190950000Y-101050000D03*
X210650000Y-44400000D03*
X203550000Y-45450000D03*
X196150000Y-45650000D03*
X192700000Y-55750000D03*
X172150000Y-51600000D03*
X170300000Y-44100000D03*
X164450000Y-49150000D03*
D48*
%TO.N,IO0*%
X182450000Y-82900000D03*
X203950000Y-48150000D03*
%TO.N,EN*%
X190750000Y-69400002D03*
X176250000Y-77950000D03*
%TO.N,GPIO.02*%
X176400000Y-84350000D03*
X186150000Y-92100000D03*
%TO.N,RX0*%
X188959313Y-83607843D03*
X176250735Y-77100735D03*
%TO.N,TX0*%
X190400000Y-84200000D03*
X176250000Y-76300000D03*
%TO.N,USB_N*%
X171050000Y-65450000D03*
X173450000Y-67250000D03*
%TO.N,5V_USB*%
X170250000Y-71800000D03*
X170250000Y-64300000D03*
%TO.N,CS*%
X183250000Y-83650000D03*
X169250000Y-85500000D03*
%TO.N,SCLK*%
X184250000Y-87250000D03*
X176250000Y-86250000D03*
%TO.N,MISO*%
X184250000Y-84250000D03*
X178246804Y-86990255D03*
%TO.N,MOSI*%
X194000000Y-87000000D03*
X178496078Y-87750430D03*
%TO.N,RXD2*%
X181500000Y-87250000D03*
X178530686Y-88649314D03*
%TO.N,SCL*%
X184400000Y-90450000D03*
X182401471Y-90401471D03*
%TO.N,3V3*%
X192250000Y-91250000D03*
%TO.N,PG*%
X185000000Y-96750000D03*
X188750000Y-48000000D03*
%TO.N,/CC1*%
X192750000Y-46250000D03*
X186684314Y-47184314D03*
%TO.N,3V3*%
X161000000Y-63250000D03*
X166500000Y-53500000D03*
X172250000Y-76000000D03*
X180000000Y-91250000D03*
X159250000Y-61750000D03*
X169000000Y-76000000D03*
X183250000Y-91250000D03*
X193450000Y-66650000D03*
%TO.N,5V_USB*%
X165750000Y-51500000D03*
X177050000Y-56500000D03*
X175250000Y-57750000D03*
X167500000Y-59500000D03*
X180750000Y-55500000D03*
%TO.N,VBUS*%
X181250000Y-51500000D03*
X176250000Y-51250000D03*
X173000000Y-63500000D03*
X163000000Y-59000000D03*
X188750000Y-46250000D03*
X186750000Y-48250000D03*
%TD*%
%TO.N,GND*%
D49*
X174365686Y-64159314D02*
X174250000Y-64275000D01*
X174365686Y-63265686D02*
X174365686Y-64159314D01*
X164450000Y-49150000D02*
X164050000Y-48750000D01*
X164050000Y-48750000D02*
X162600000Y-48750000D01*
X164650000Y-49350000D02*
X166162500Y-49350000D01*
X164450000Y-49150000D02*
X164650000Y-49350000D01*
X166500000Y-60725000D02*
X164600000Y-60725000D01*
X166525000Y-60750000D02*
X166500000Y-60725000D01*
X168400000Y-60750000D02*
X166525000Y-60750000D01*
%TO.N,Net-(D1-A1)*%
X184050000Y-59500000D02*
X185150000Y-58400000D01*
X180750000Y-59500000D02*
X184050000Y-59500000D01*
%TO.N,VBUS*%
D50*
X181000000Y-51250000D02*
X181250000Y-51500000D01*
X181000000Y-49890000D02*
X181000000Y-51250000D01*
%TO.N,GND*%
D49*
X183857771Y-51947771D02*
X183857771Y-52215542D01*
X181800000Y-49890000D02*
X183857771Y-51947771D01*
X175400000Y-50950000D02*
X174850000Y-51500000D01*
X175400000Y-49890000D02*
X175400000Y-50950000D01*
X170550000Y-66550000D02*
X171200000Y-67200000D01*
X169200000Y-66550000D02*
X170550000Y-66550000D01*
X166100000Y-65550000D02*
X164700000Y-65550000D01*
X169050000Y-79100000D02*
X168900000Y-79250000D01*
X171000000Y-79100000D02*
X169050000Y-79100000D01*
%TO.N,IO0*%
D51*
X180892500Y-82900000D02*
X179092500Y-84700000D01*
X179092500Y-84700000D02*
X179092500Y-85650000D01*
X182450000Y-82900000D02*
X180892500Y-82900000D01*
X204805000Y-47295000D02*
X203950000Y-48150000D01*
X205487500Y-47295000D02*
X204805000Y-47295000D01*
%TO.N,EN*%
X193000000Y-64100000D02*
X193000000Y-65400000D01*
X194950000Y-62150000D02*
X193000000Y-64100000D01*
X194950000Y-49832500D02*
X194950000Y-62150000D01*
X197787500Y-46995000D02*
X194950000Y-49832500D01*
%TO.N,RX0*%
X166900000Y-70750000D02*
X166900000Y-67850000D01*
X173734314Y-74200000D02*
X170350000Y-74200000D01*
X175650000Y-76548529D02*
X175650000Y-76115686D01*
X176001471Y-76900000D02*
X175650000Y-76548529D01*
X176250735Y-76900000D02*
X176001471Y-76900000D01*
X170350000Y-74200000D02*
X166900000Y-70750000D01*
X176250735Y-77100735D02*
X176250735Y-76900000D01*
X175650000Y-76115686D02*
X173734314Y-74200000D01*
%TO.N,EN*%
X192342498Y-69400002D02*
X190750000Y-69400002D01*
X193062500Y-68680000D02*
X192342498Y-69400002D01*
X193062500Y-68150000D02*
X193062500Y-68680000D01*
X192850000Y-67937500D02*
X193062500Y-68150000D01*
X192850000Y-65550000D02*
X192850000Y-67937500D01*
X193000000Y-65400000D02*
X192850000Y-65550000D01*
%TO.N,3V3*%
D50*
X194650000Y-66182500D02*
X194182500Y-66650000D01*
X194650000Y-65400000D02*
X194650000Y-66182500D01*
%TO.N,EN*%
D51*
X192900000Y-65300000D02*
X193000000Y-65400000D01*
X191300000Y-65300000D02*
X192900000Y-65300000D01*
%TO.N,3V3*%
D50*
X194182500Y-66650000D02*
X193450000Y-66650000D01*
X194332500Y-66800000D02*
X194182500Y-66650000D01*
X194332500Y-68150000D02*
X194332500Y-66800000D01*
%TO.N,EN*%
D51*
X172050000Y-82150000D02*
X176250000Y-77950000D01*
X171000000Y-82150000D02*
X172050000Y-82150000D01*
%TO.N,GPIO.02*%
X176400000Y-84350000D02*
X176400000Y-83250000D01*
X176400000Y-83250000D02*
X177030000Y-82620000D01*
X177030000Y-82620000D02*
X177842500Y-82620000D01*
X186175000Y-92125000D02*
X186150000Y-92100000D01*
X188700000Y-92125000D02*
X186175000Y-92125000D01*
%TO.N,RX0*%
X190648529Y-83600000D02*
X188967156Y-83600000D01*
X191792500Y-84743971D02*
X190648529Y-83600000D01*
X188967156Y-83600000D02*
X188959313Y-83607843D01*
X191792500Y-85650000D02*
X191792500Y-84743971D01*
X188959313Y-83607843D02*
X189101470Y-83750000D01*
%TO.N,TX0*%
X190400000Y-85527500D02*
X190522500Y-85650000D01*
X190400000Y-84200000D02*
X190400000Y-85527500D01*
X176250000Y-76150000D02*
X176250000Y-76300000D01*
X167400000Y-68550000D02*
X170050000Y-71200000D01*
X167400000Y-67850000D02*
X167400000Y-68550000D01*
X171300000Y-71200000D02*
X176250000Y-76150000D01*
X170050000Y-71200000D02*
X171300000Y-71200000D01*
%TO.N,USB_N*%
X174000000Y-66725000D02*
X174450000Y-66275000D01*
X173975000Y-66725000D02*
X174000000Y-66725000D01*
X173450000Y-67250000D02*
X173975000Y-66725000D01*
X170950000Y-65550000D02*
X171050000Y-65450000D01*
X169200000Y-65550000D02*
X170950000Y-65550000D01*
%TO.N,USB_P*%
X172025000Y-66275000D02*
X172550000Y-66275000D01*
X171800000Y-66050000D02*
X172025000Y-66275000D01*
X169200000Y-66050000D02*
X171800000Y-66050000D01*
%TO.N,Net-(U4-VDD)*%
X170850000Y-62650000D02*
X170500000Y-62300000D01*
X170423528Y-64975000D02*
X170850000Y-64548528D01*
X168975000Y-64975000D02*
X170423528Y-64975000D01*
X168900000Y-65050000D02*
X168975000Y-64975000D01*
X170850000Y-64548528D02*
X170850000Y-62650000D01*
%TO.N,5V_USB*%
D50*
X171000000Y-73000000D02*
X171000000Y-72550000D01*
X171000000Y-72550000D02*
X170250000Y-71800000D01*
X168500000Y-62300000D02*
X168400000Y-62300000D01*
X170250000Y-64050000D02*
X168500000Y-62300000D01*
X170250000Y-64300000D02*
X170250000Y-64050000D01*
%TO.N,Net-(U4-VDD)*%
D51*
X170500000Y-62750000D02*
X170500000Y-62300000D01*
%TO.N,SCL*%
X182401471Y-90684314D02*
X182401471Y-90401471D01*
X180535785Y-92550000D02*
X182401471Y-90684314D01*
X177030000Y-92550000D02*
X180535785Y-92550000D01*
X176180000Y-91700000D02*
X177030000Y-92550000D01*
%TO.N,SCLK*%
X175549570Y-86950430D02*
X176250000Y-86250000D01*
X171778200Y-86950430D02*
X175549570Y-86950430D01*
X169478630Y-89250000D02*
X171778200Y-86950430D01*
X165530000Y-89250000D02*
X169478630Y-89250000D01*
X165400000Y-89380000D02*
X165530000Y-89250000D01*
%TO.N,MISO*%
X171943885Y-87350430D02*
X177886629Y-87350430D01*
X167374314Y-91920000D02*
X171943885Y-87350430D01*
X165400000Y-91920000D02*
X167374314Y-91920000D01*
X177886629Y-87350430D02*
X178246804Y-86990255D01*
%TO.N,CS*%
X183250000Y-83650000D02*
X183250000Y-84197500D01*
X184172500Y-85120000D02*
X184172500Y-85650000D01*
X183250000Y-84197500D02*
X184172500Y-85120000D01*
%TO.N,SCLK*%
X185442500Y-86057500D02*
X185442500Y-85650000D01*
X184250000Y-87250000D02*
X185442500Y-86057500D01*
%TO.N,MISO*%
X186712500Y-84700000D02*
X186712500Y-85650000D01*
X186262500Y-84250000D02*
X186712500Y-84700000D01*
X184250000Y-84250000D02*
X186262500Y-84250000D01*
%TO.N,MOSI*%
X194332500Y-86667500D02*
X194332500Y-85650000D01*
X194000000Y-87000000D02*
X194332500Y-86667500D01*
X172109570Y-87750430D02*
X178496078Y-87750430D01*
X165400000Y-94460000D02*
X172109570Y-87750430D01*
%TO.N,RXD2*%
X178300000Y-88880000D02*
X178530686Y-88649314D01*
X175714315Y-88880000D02*
X178300000Y-88880000D01*
X172844314Y-91750000D02*
X175714315Y-88880000D01*
X171130000Y-91750000D02*
X172844314Y-91750000D01*
X171000000Y-91620000D02*
X171130000Y-91750000D01*
X181632500Y-87117500D02*
X181632500Y-85650000D01*
X181500000Y-87250000D02*
X181632500Y-87117500D01*
%TO.N,TXD2*%
X182902500Y-86852648D02*
X182902500Y-85650000D01*
X175880000Y-89280000D02*
X180475148Y-89280000D01*
X171000000Y-94160000D02*
X175880000Y-89280000D01*
X180475148Y-89280000D02*
X182902500Y-86852648D01*
%TO.N,IO0*%
X171450000Y-85650000D02*
X171000000Y-85200000D01*
X179092500Y-85650000D02*
X171450000Y-85650000D01*
X179092500Y-87685000D02*
X179092500Y-85650000D01*
X179987500Y-88580000D02*
X179092500Y-87685000D01*
%TO.N,SCL*%
X193062500Y-86180000D02*
X193062500Y-85650000D01*
X188792500Y-90450000D02*
X193062500Y-86180000D01*
X184400000Y-90450000D02*
X188792500Y-90450000D01*
%TO.N,SDA*%
X189152500Y-86700000D02*
X189252500Y-86600000D01*
X186951471Y-86700000D02*
X189152500Y-86700000D01*
X179411471Y-94240000D02*
X186951471Y-86700000D01*
X176180000Y-94240000D02*
X179411471Y-94240000D01*
X189252500Y-86600000D02*
X189252500Y-85650000D01*
%TO.N,Net-(D5-A)*%
X182825000Y-99150000D02*
X182825000Y-94825000D01*
X182825000Y-94825000D02*
X183700000Y-93950000D01*
X183600000Y-99925000D02*
X182825000Y-99150000D01*
%TO.N,Net-(D4-A)*%
X193500000Y-98475000D02*
X193400000Y-98575000D01*
X193500000Y-93850000D02*
X193500000Y-98475000D01*
%TO.N,3V3*%
D50*
X192250000Y-91250000D02*
X192550000Y-91250000D01*
X192550000Y-91250000D02*
X193500000Y-92200000D01*
%TO.N,Net-(D3-A)*%
D51*
X188600000Y-93875000D02*
X188700000Y-93775000D01*
X188600000Y-98462500D02*
X188600000Y-93875000D01*
%TO.N,VBUS*%
D50*
X185150000Y-55600000D02*
X185150000Y-55400000D01*
X185150000Y-55400000D02*
X181250000Y-51500000D01*
%TO.N,PG*%
D51*
X183600000Y-98150000D02*
X183600000Y-98350000D01*
X185000000Y-96750000D02*
X183600000Y-98150000D01*
X188787500Y-47962500D02*
X188750000Y-48000000D01*
X189800000Y-47962500D02*
X188787500Y-47962500D01*
%TO.N,EN*%
X197787500Y-46995000D02*
X201887500Y-46995000D01*
%TO.N,IO0*%
X205487500Y-47295000D02*
X209587500Y-47295000D01*
%TO.N,Net-(U4-VDD)*%
X172300000Y-62300000D02*
X172350000Y-62350000D01*
X170500000Y-62300000D02*
X172300000Y-62300000D01*
%TO.N,Net-(U4-~{RST})*%
X167400000Y-63875000D02*
X167400000Y-64575000D01*
X163675000Y-63500000D02*
X167025000Y-63500000D01*
X162325000Y-62150000D02*
X163675000Y-63500000D01*
X167025000Y-63500000D02*
X167400000Y-63875000D01*
%TO.N,Net-(U4-VBUS)*%
D52*
X165275000Y-63050000D02*
X164600000Y-62375000D01*
X167550000Y-63050000D02*
X165275000Y-63050000D01*
X167900000Y-63400000D02*
X167550000Y-63050000D01*
X167900000Y-64575000D02*
X167900000Y-63400000D01*
%TO.N,Net-(J1-SHIELD)*%
D51*
X172890000Y-46525000D02*
X174280000Y-47915000D01*
X174280000Y-47915000D02*
X174280000Y-49315000D01*
X172890000Y-46525000D02*
X174280000Y-45135000D01*
X172200000Y-46525000D02*
X172890000Y-46525000D01*
%TO.N,/CC2*%
X193800000Y-46451471D02*
X193800000Y-47962500D01*
X192098529Y-44750000D02*
X193800000Y-46451471D01*
X189250000Y-44750000D02*
X192098529Y-44750000D01*
X187500000Y-46500000D02*
X189250000Y-44750000D01*
X186250000Y-46500000D02*
X187500000Y-46500000D01*
X186000000Y-46750000D02*
X186250000Y-46500000D01*
X182836371Y-46750000D02*
X186000000Y-46750000D01*
X182802057Y-46784314D02*
X182836371Y-46750000D01*
X181782590Y-46784314D02*
X182802057Y-46784314D01*
X179551904Y-49015000D02*
X181782590Y-46784314D01*
X179218804Y-49015000D02*
X179551904Y-49015000D01*
X178768804Y-48565000D02*
X179218804Y-49015000D01*
X177481196Y-49015000D02*
X177931196Y-48565000D01*
X177117590Y-49015000D02*
X177481196Y-49015000D01*
X176900000Y-49232590D02*
X177117590Y-49015000D01*
X177931196Y-48565000D02*
X178768804Y-48565000D01*
X176850000Y-49890000D02*
X176900000Y-49890000D01*
X176900000Y-49890000D02*
X176900000Y-49232590D01*
%TO.N,Net-(U2-CFG1)*%
X189800000Y-55875000D02*
X189825000Y-55900000D01*
X189800000Y-53237500D02*
X189800000Y-55875000D01*
X187800000Y-51350000D02*
X187912500Y-51350000D01*
X187912500Y-51350000D02*
X189800000Y-53237500D01*
X190800000Y-48450000D02*
X190800000Y-47962500D01*
X187800000Y-51350000D02*
X187900000Y-51350000D01*
X187900000Y-51350000D02*
X190800000Y-48450000D01*
%TO.N,/CC1*%
X192750000Y-47912500D02*
X192800000Y-47962500D01*
X192750000Y-46250000D02*
X192750000Y-47912500D01*
X181948276Y-47184314D02*
X186684314Y-47184314D01*
X179850000Y-49890000D02*
X179850000Y-49282590D01*
X179850000Y-49282590D02*
X181948276Y-47184314D01*
%TO.N,Net-(U2-VBUS)*%
D50*
X191800000Y-45975000D02*
X191525000Y-45700000D01*
X191800000Y-47962500D02*
X191800000Y-45975000D01*
%TO.N,3V3*%
X159250000Y-61750000D02*
X159250000Y-62000000D01*
X170600000Y-48475000D02*
X168512500Y-48475000D01*
X160575000Y-62250000D02*
X160675000Y-62150000D01*
X183250000Y-91250000D02*
X183250000Y-91850000D01*
X168512500Y-48475000D02*
X168437500Y-48400000D01*
X170950000Y-76000000D02*
X171000000Y-76050000D01*
X180000000Y-91250000D02*
X180000000Y-90242500D01*
X169600000Y-49562500D02*
X169600000Y-50723394D01*
X160675000Y-62150000D02*
X160675000Y-62925000D01*
X166823394Y-53500000D02*
X166500000Y-53500000D01*
X160675000Y-62925000D02*
X161000000Y-63250000D01*
X168460000Y-46575000D02*
X168460000Y-48377500D01*
X168460000Y-48377500D02*
X168437500Y-48400000D01*
X169000000Y-76000000D02*
X170950000Y-76000000D01*
X169600000Y-50723394D02*
X166823394Y-53500000D01*
X159500000Y-62250000D02*
X160575000Y-62250000D01*
X168437500Y-48400000D02*
X169600000Y-49562500D01*
X180000000Y-90242500D02*
X179987500Y-90230000D01*
X159250000Y-62000000D02*
X159500000Y-62250000D01*
X171000000Y-76050000D02*
X172200000Y-76050000D01*
X183250000Y-91850000D02*
X183700000Y-92300000D01*
X172200000Y-76050000D02*
X172250000Y-76000000D01*
%TO.N,5V_USB*%
D52*
X168400000Y-64575000D02*
X168400000Y-62300000D01*
D50*
X165812500Y-50650000D02*
X165812500Y-51437500D01*
X169375000Y-60218460D02*
X169375000Y-61325000D01*
X166824999Y-48400000D02*
X166162500Y-48400000D01*
X167500000Y-59500000D02*
X168656540Y-59500000D01*
X169375000Y-61325000D02*
X168400000Y-62300000D01*
X165812500Y-50650000D02*
X166162500Y-50300000D01*
X166525000Y-62300000D02*
X166500000Y-62275000D01*
X167325000Y-49773394D02*
X167325000Y-48900001D01*
X168656540Y-59500000D02*
X169375000Y-60218460D01*
X165812500Y-51437500D02*
X165750000Y-51500000D01*
X166162500Y-48400000D02*
X166162500Y-46677500D01*
X175250000Y-57750000D02*
X175800000Y-57750000D01*
X168400000Y-62300000D02*
X166525000Y-62300000D01*
X166162500Y-46677500D02*
X165960000Y-46475000D01*
X167325000Y-48900001D02*
X166824999Y-48400000D01*
X166162500Y-50300000D02*
X166798394Y-50300000D01*
X166798394Y-50300000D02*
X167325000Y-49773394D01*
X162600000Y-50650000D02*
X165812500Y-50650000D01*
X175800000Y-57750000D02*
X177050000Y-56500000D01*
%TO.N,VBUS*%
X187800000Y-49300000D02*
X186750000Y-48250000D01*
X189300000Y-45700000D02*
X188750000Y-46250000D01*
X187800000Y-49700000D02*
X187800000Y-49300000D01*
X176200000Y-51200000D02*
X176250000Y-51250000D01*
X163000000Y-59000000D02*
X161925000Y-59000000D01*
X189875000Y-45700000D02*
X189300000Y-45700000D01*
X176200000Y-49890000D02*
X176200000Y-51200000D01*
X173000000Y-63500000D02*
X173000000Y-63825000D01*
X161925000Y-59000000D02*
X160675000Y-60250000D01*
X173000000Y-63825000D02*
X172550000Y-64275000D01*
%TO.N,Net-(U4-VBUS)*%
D52*
X164600000Y-62375000D02*
X164450000Y-62375000D01*
X164450000Y-62375000D02*
X162325000Y-60250000D01*
%TO.N,USB_N*%
D51*
X178325000Y-50777501D02*
X178325000Y-62012970D01*
X174450000Y-65374980D02*
X174450000Y-66275000D01*
D52*
X178390000Y-50790000D02*
X178350000Y-50750000D01*
D51*
X174962990Y-65374980D02*
X174450000Y-65374980D01*
D52*
X179092764Y-50790000D02*
X178390000Y-50790000D01*
D51*
X178350000Y-50750000D02*
X178350000Y-50752501D01*
D52*
X179350000Y-50532764D02*
X179092764Y-50790000D01*
D51*
X178325000Y-62012970D02*
X174962990Y-65374980D01*
X178350000Y-49890000D02*
X178350000Y-50750000D01*
D52*
X179350000Y-49890000D02*
X179350000Y-50532764D01*
D51*
X178350000Y-50752501D02*
X178325000Y-50777501D01*
%TO.N,USB_P*%
X174776602Y-64925000D02*
X173900000Y-64925000D01*
X177850000Y-49890000D02*
X177850000Y-50752501D01*
X177875000Y-61826602D02*
X174776602Y-64925000D01*
D52*
X178107236Y-48990000D02*
X177850000Y-49247236D01*
X178850000Y-49247236D02*
X178592764Y-48990000D01*
X177850000Y-49247236D02*
X177850000Y-49890000D01*
X178592764Y-48990000D02*
X178107236Y-48990000D01*
D51*
X177850000Y-50752501D02*
X177875000Y-50777501D01*
X173900000Y-64925000D02*
X172550000Y-66275000D01*
X177875000Y-50777501D02*
X177875000Y-61826602D01*
D52*
X178850000Y-49890000D02*
X178850000Y-49247236D01*
%TD*%
%TA.AperFunction,Conductor*%
%TO.N,GND*%
G36*
X167185189Y-65698678D02*
G01*
X167202127Y-65700500D01*
X167352691Y-65700499D01*
X167419729Y-65720183D01*
X167440371Y-65736818D01*
X167506946Y-65803393D01*
X167500000Y-65820163D01*
X167500000Y-65879837D01*
X167522836Y-65934968D01*
X167565032Y-65977164D01*
X167620163Y-66000000D01*
X167679837Y-66000000D01*
X167734968Y-65977164D01*
X167777164Y-65934968D01*
X167800000Y-65879837D01*
X167800000Y-65820163D01*
X167777164Y-65765032D01*
X167761047Y-65748915D01*
X167800418Y-65727418D01*
X167870109Y-65732402D01*
X167914457Y-65760903D01*
X168213181Y-66059628D01*
X168246666Y-66120951D01*
X168249500Y-66147308D01*
X168249500Y-66247869D01*
X168249501Y-66247876D01*
X168255908Y-66307483D01*
X168306202Y-66442328D01*
X168306203Y-66442330D01*
X168331176Y-66475690D01*
X168340411Y-66500451D01*
X168353074Y-66523641D01*
X168352428Y-66532671D01*
X168355592Y-66541155D01*
X168349974Y-66566976D01*
X168348090Y-66593333D01*
X168341692Y-66605049D01*
X168340740Y-66609428D01*
X168331176Y-66624310D01*
X168311713Y-66650310D01*
X168255780Y-66692181D01*
X168212445Y-66700000D01*
X168197809Y-66700000D01*
X168187752Y-66697046D01*
X168186088Y-66697166D01*
X168183680Y-66695851D01*
X168130770Y-66680315D01*
X168110128Y-66663681D01*
X167793053Y-66346606D01*
X167800000Y-66329837D01*
X167800000Y-66270163D01*
X167950000Y-66270163D01*
X167950000Y-66329837D01*
X167972836Y-66384968D01*
X168015032Y-66427164D01*
X168070163Y-66450000D01*
X168129837Y-66450000D01*
X168184968Y-66427164D01*
X168227164Y-66384968D01*
X168250000Y-66329837D01*
X168250000Y-66270163D01*
X168227164Y-66215032D01*
X168184968Y-66172836D01*
X168129837Y-66150000D01*
X168070163Y-66150000D01*
X168015032Y-66172836D01*
X167972836Y-66215032D01*
X167950000Y-66270163D01*
X167800000Y-66270163D01*
X167777164Y-66215032D01*
X167734968Y-66172836D01*
X167679837Y-66150000D01*
X167620163Y-66150000D01*
X167565032Y-66172836D01*
X167522836Y-66215032D01*
X167500000Y-66270163D01*
X167500000Y-66329837D01*
X167522836Y-66384968D01*
X167538950Y-66401082D01*
X167499580Y-66422580D01*
X167429888Y-66417596D01*
X167385541Y-66389095D01*
X167343053Y-66346607D01*
X167350000Y-66329837D01*
X167350000Y-66270163D01*
X167327164Y-66215032D01*
X167284968Y-66172836D01*
X167229837Y-66150000D01*
X167170163Y-66150000D01*
X167153393Y-66156946D01*
X167086818Y-66090371D01*
X167053333Y-66029048D01*
X167050499Y-66002690D01*
X167050499Y-65852129D01*
X167050498Y-65852123D01*
X167048682Y-65835224D01*
X167052614Y-65813428D01*
X167051826Y-65791298D01*
X167058697Y-65779717D01*
X167061089Y-65766465D01*
X167076179Y-65750257D01*
X167087481Y-65731211D01*
X167099523Y-65725183D01*
X167108700Y-65715328D01*
X167130158Y-65709851D01*
X167149962Y-65699940D01*
X167172085Y-65699150D01*
X167176399Y-65698050D01*
X167185189Y-65698678D01*
G37*
%TD.AperFunction*%
%TA.AperFunction,Conductor*%
G36*
X218842937Y-43049274D02*
G01*
X218888692Y-43102078D01*
X218899898Y-43153589D01*
X218899898Y-102275499D01*
X218880213Y-102342538D01*
X218827409Y-102388293D01*
X218775898Y-102399499D01*
X149924500Y-102399499D01*
X149857461Y-102379814D01*
X149811706Y-102327010D01*
X149800500Y-102275499D01*
X149800500Y-97618206D01*
X151699500Y-97618206D01*
X151699500Y-97981794D01*
X151704490Y-98032454D01*
X151735137Y-98343630D01*
X151806064Y-98700212D01*
X151806067Y-98700223D01*
X151911614Y-99048165D01*
X151959045Y-99162673D01*
X152049804Y-99381786D01*
X152050754Y-99384078D01*
X152050756Y-99384083D01*
X152222140Y-99704720D01*
X152222151Y-99704738D01*
X152424140Y-100007035D01*
X152424150Y-100007049D01*
X152654807Y-100288106D01*
X152911893Y-100545192D01*
X152911898Y-100545196D01*
X152911899Y-100545197D01*
X153192956Y-100775854D01*
X153495268Y-100977853D01*
X153495277Y-100977858D01*
X153495279Y-100977859D01*
X153815916Y-101149243D01*
X153815918Y-101149243D01*
X153815924Y-101149247D01*
X154151836Y-101288386D01*
X154499767Y-101393930D01*
X154499773Y-101393931D01*
X154499776Y-101393932D01*
X154499787Y-101393935D01*
X154856369Y-101464862D01*
X155218206Y-101500500D01*
X155218209Y-101500500D01*
X155581791Y-101500500D01*
X155581794Y-101500500D01*
X155943631Y-101464862D01*
X156013045Y-101451054D01*
X156300212Y-101393935D01*
X156300223Y-101393932D01*
X156300223Y-101393931D01*
X156300233Y-101393930D01*
X156648164Y-101288386D01*
X156984076Y-101149247D01*
X157304732Y-100977853D01*
X157607044Y-100775854D01*
X157888101Y-100545197D01*
X158145197Y-100288101D01*
X158375854Y-100007044D01*
X158577853Y-99704732D01*
X158749247Y-99384076D01*
X158888386Y-99048164D01*
X158993930Y-98700233D01*
X158993932Y-98700223D01*
X158993935Y-98700212D01*
X159010961Y-98614615D01*
X159061105Y-98362517D01*
X159064862Y-98343631D01*
X159100500Y-97981794D01*
X159100500Y-97618206D01*
X159064862Y-97256369D01*
X159049691Y-97180099D01*
X158996577Y-96913072D01*
X158996576Y-96913069D01*
X158993932Y-96899778D01*
X158993932Y-96899776D01*
X158993931Y-96899773D01*
X158993930Y-96899767D01*
X158888386Y-96551836D01*
X158749247Y-96215924D01*
X158740735Y-96200000D01*
X158577859Y-95895279D01*
X158577858Y-95895277D01*
X158577853Y-95895268D01*
X158375854Y-95592956D01*
X158145197Y-95311899D01*
X158145196Y-95311898D01*
X158145192Y-95311893D01*
X157888106Y-95054807D01*
X157607049Y-94824150D01*
X157607048Y-94824149D01*
X157607044Y-94824146D01*
X157304732Y-94622147D01*
X157304727Y-94622144D01*
X157304720Y-94622140D01*
X156984083Y-94450756D01*
X156984078Y-94450754D01*
X156957164Y-94439606D01*
X156885690Y-94410000D01*
X156648165Y-94311614D01*
X156300223Y-94206067D01*
X156300212Y-94206064D01*
X155943630Y-94135137D01*
X155671111Y-94108296D01*
X155581794Y-94099500D01*
X155218206Y-94099500D01*
X155135679Y-94107628D01*
X154856369Y-94135137D01*
X154499787Y-94206064D01*
X154499776Y-94206067D01*
X154151834Y-94311614D01*
X153815921Y-94450754D01*
X153815916Y-94450756D01*
X153495279Y-94622140D01*
X153495261Y-94622151D01*
X153192964Y-94824140D01*
X153192950Y-94824150D01*
X152911893Y-95054807D01*
X152654807Y-95311893D01*
X152424150Y-95592950D01*
X152424140Y-95592964D01*
X152222151Y-95895261D01*
X152222140Y-95895279D01*
X152050756Y-96215916D01*
X152050754Y-96215921D01*
X151911614Y-96551834D01*
X151806067Y-96899776D01*
X151806064Y-96899787D01*
X151735137Y-97256369D01*
X151712368Y-97487554D01*
X151699500Y-97618206D01*
X149800500Y-97618206D01*
X149800500Y-79962572D01*
X170490979Y-79962572D01*
X170526328Y-79986192D01*
X170708306Y-80061569D01*
X170708318Y-80061572D01*
X170901504Y-80099999D01*
X170901508Y-80100000D01*
X171098492Y-80100000D01*
X171098495Y-80099999D01*
X171291681Y-80061572D01*
X171291693Y-80061569D01*
X171473676Y-79986190D01*
X171473680Y-79986187D01*
X171509019Y-79962573D01*
X171509020Y-79962572D01*
X171000001Y-79453553D01*
X171000000Y-79453553D01*
X170490979Y-79962572D01*
X149800500Y-79962572D01*
X149800500Y-79001504D01*
X170000000Y-79001504D01*
X170000000Y-79198495D01*
X170038427Y-79391681D01*
X170038430Y-79391693D01*
X170113808Y-79573673D01*
X170113809Y-79573675D01*
X170137425Y-79609019D01*
X170646446Y-79100000D01*
X170646446Y-79099999D01*
X171353553Y-79099999D01*
X171353553Y-79100000D01*
X171862572Y-79609020D01*
X171862573Y-79609019D01*
X171886187Y-79573680D01*
X171886190Y-79573676D01*
X171961569Y-79391693D01*
X171961572Y-79391681D01*
X171999999Y-79198495D01*
X172000000Y-79198492D01*
X172000000Y-79001508D01*
X171999999Y-79001504D01*
X171961572Y-78808318D01*
X171961569Y-78808306D01*
X171886192Y-78626328D01*
X171862572Y-78590979D01*
X171353553Y-79099999D01*
X170646446Y-79099999D01*
X170137426Y-78590978D01*
X170137426Y-78590979D01*
X170113813Y-78626318D01*
X170113809Y-78626325D01*
X170038429Y-78808310D01*
X170038427Y-78808318D01*
X170000000Y-79001504D01*
X149800500Y-79001504D01*
X149800500Y-78237426D01*
X170490978Y-78237426D01*
X171000000Y-78746446D01*
X171000001Y-78746446D01*
X171509020Y-78237426D01*
X171473675Y-78213809D01*
X171473673Y-78213808D01*
X171291693Y-78138430D01*
X171291681Y-78138427D01*
X171098495Y-78100000D01*
X170901504Y-78100000D01*
X170708318Y-78138427D01*
X170708310Y-78138429D01*
X170526325Y-78213809D01*
X170526318Y-78213813D01*
X170490979Y-78237426D01*
X170490978Y-78237426D01*
X149800500Y-78237426D01*
X149800500Y-75921153D01*
X168199500Y-75921153D01*
X168199500Y-76078846D01*
X168230261Y-76233489D01*
X168230264Y-76233501D01*
X168290602Y-76379172D01*
X168290609Y-76379185D01*
X168378210Y-76510288D01*
X168378213Y-76510292D01*
X168489707Y-76621786D01*
X168489711Y-76621789D01*
X168620814Y-76709390D01*
X168620827Y-76709397D01*
X168761981Y-76767864D01*
X168766503Y-76769737D01*
X168882669Y-76792844D01*
X168921153Y-76800499D01*
X168921156Y-76800500D01*
X168921158Y-76800500D01*
X169078842Y-76800500D01*
X170285390Y-76800500D01*
X170352429Y-76820185D01*
X170359358Y-76825228D01*
X170526079Y-76936628D01*
X170526092Y-76936635D01*
X170636865Y-76982518D01*
X170708165Y-77012051D01*
X170708169Y-77012051D01*
X170708170Y-77012052D01*
X170901456Y-77050500D01*
X170901459Y-77050500D01*
X171098543Y-77050500D01*
X171228582Y-77024632D01*
X171291835Y-77012051D01*
X171473914Y-76936632D01*
X171571544Y-76871398D01*
X171638222Y-76850520D01*
X171640435Y-76850500D01*
X172278844Y-76850500D01*
X172278845Y-76850499D01*
X172433497Y-76819737D01*
X172558709Y-76767873D01*
X172579172Y-76759397D01*
X172579172Y-76759396D01*
X172579179Y-76759394D01*
X172710289Y-76671789D01*
X172871789Y-76510289D01*
X172959394Y-76379179D01*
X173019738Y-76233497D01*
X173050500Y-76078842D01*
X173050500Y-75921157D01*
X173019738Y-75766503D01*
X172959394Y-75620821D01*
X172959392Y-75620818D01*
X172959390Y-75620814D01*
X172871789Y-75489711D01*
X172871786Y-75489707D01*
X172760292Y-75378213D01*
X172760288Y-75378210D01*
X172629185Y-75290609D01*
X172629175Y-75290604D01*
X172483497Y-75230262D01*
X172483489Y-75230260D01*
X172328847Y-75199500D01*
X172328843Y-75199500D01*
X172171158Y-75199500D01*
X172171153Y-75199500D01*
X172016510Y-75230260D01*
X172016502Y-75230262D01*
X172001264Y-75236573D01*
X171992845Y-75240061D01*
X171945394Y-75249500D01*
X171640435Y-75249500D01*
X171573396Y-75229815D01*
X171571544Y-75228602D01*
X171473911Y-75163366D01*
X171291839Y-75087950D01*
X171291829Y-75087947D01*
X171098543Y-75049500D01*
X171098541Y-75049500D01*
X170901459Y-75049500D01*
X170901457Y-75049500D01*
X170708170Y-75087947D01*
X170708160Y-75087950D01*
X170526092Y-75163364D01*
X170526079Y-75163371D01*
X170503286Y-75178602D01*
X170492696Y-75181917D01*
X170484201Y-75189058D01*
X170440901Y-75198135D01*
X170436609Y-75199480D01*
X170435691Y-75199228D01*
X170434395Y-75199500D01*
X168921155Y-75199500D01*
X168766510Y-75230261D01*
X168766498Y-75230264D01*
X168620827Y-75290602D01*
X168620814Y-75290609D01*
X168489711Y-75378210D01*
X168489707Y-75378213D01*
X168378213Y-75489707D01*
X168378210Y-75489711D01*
X168290609Y-75620814D01*
X168290602Y-75620827D01*
X168230264Y-75766498D01*
X168230261Y-75766510D01*
X168199500Y-75921153D01*
X149800500Y-75921153D01*
X149800500Y-61671153D01*
X158449500Y-61671153D01*
X158449500Y-62078846D01*
X158480261Y-62233489D01*
X158480264Y-62233501D01*
X158540602Y-62379172D01*
X158540609Y-62379185D01*
X158628210Y-62510288D01*
X158628213Y-62510292D01*
X158878211Y-62760289D01*
X158989711Y-62871789D01*
X158989712Y-62871790D01*
X159120814Y-62959390D01*
X159120821Y-62959394D01*
X159221912Y-63001267D01*
X159266502Y-63019737D01*
X159421152Y-63050499D01*
X159421155Y-63050500D01*
X159421157Y-63050500D01*
X159421158Y-63050500D01*
X159782017Y-63050500D01*
X159849056Y-63070185D01*
X159894811Y-63122989D01*
X159903633Y-63150305D01*
X159905263Y-63158497D01*
X159905263Y-63158498D01*
X159965602Y-63304172D01*
X159965609Y-63304185D01*
X160053210Y-63435288D01*
X160053213Y-63435292D01*
X160378211Y-63760289D01*
X160482296Y-63864374D01*
X160489712Y-63871790D01*
X160620816Y-63959391D01*
X160620817Y-63959391D01*
X160620821Y-63959394D01*
X160699233Y-63991873D01*
X160766502Y-64019737D01*
X160921152Y-64050499D01*
X160921155Y-64050500D01*
X160921157Y-64050500D01*
X161078844Y-64050500D01*
X161078845Y-64050499D01*
X161233497Y-64019737D01*
X161379179Y-63959394D01*
X161510289Y-63871789D01*
X161621789Y-63760289D01*
X161709394Y-63629179D01*
X161769737Y-63483497D01*
X161800500Y-63328842D01*
X161800500Y-63226124D01*
X161820185Y-63159085D01*
X161872989Y-63113330D01*
X161942147Y-63103386D01*
X161961388Y-63107738D01*
X161997804Y-63119086D01*
X162068384Y-63125500D01*
X162399903Y-63125500D01*
X162466942Y-63145185D01*
X162487584Y-63161819D01*
X163190139Y-63864374D01*
X163190149Y-63864385D01*
X163194479Y-63868715D01*
X163194480Y-63868716D01*
X163306284Y-63980520D01*
X163376301Y-64020943D01*
X163393095Y-64030639D01*
X163393097Y-64030641D01*
X163441344Y-64058497D01*
X163443215Y-64059577D01*
X163595942Y-64100500D01*
X163595943Y-64100500D01*
X166127756Y-64100500D01*
X166138735Y-64103724D01*
X166150118Y-64102533D01*
X166171655Y-64113390D01*
X166194795Y-64120185D01*
X166202288Y-64128833D01*
X166212508Y-64133985D01*
X166224757Y-64154763D01*
X166240550Y-64172989D01*
X166243092Y-64185864D01*
X166247991Y-64194174D01*
X166249784Y-64219757D01*
X166251664Y-64229277D01*
X166251500Y-64233521D01*
X166249500Y-64252127D01*
X166249500Y-64285413D01*
X166249408Y-64287800D01*
X166239007Y-64318756D01*
X166229815Y-64350062D01*
X166227945Y-64351682D01*
X166227156Y-64354031D01*
X166201667Y-64374452D01*
X166177011Y-64395817D01*
X166173953Y-64396655D01*
X166172628Y-64397718D01*
X166168514Y-64398148D01*
X166149865Y-64403266D01*
X166150068Y-64404124D01*
X166142520Y-64405907D01*
X166007671Y-64456202D01*
X166007664Y-64456206D01*
X165892455Y-64542452D01*
X165892452Y-64542455D01*
X165806206Y-64657664D01*
X165806202Y-64657671D01*
X165755908Y-64792517D01*
X165754126Y-64800062D01*
X165751994Y-64799558D01*
X165729513Y-64853816D01*
X165672117Y-64893658D01*
X165632970Y-64900000D01*
X165602155Y-64900000D01*
X165542627Y-64906401D01*
X165542620Y-64906403D01*
X165407913Y-64956645D01*
X165407906Y-64956649D01*
X165292812Y-65042809D01*
X165292809Y-65042812D01*
X165206649Y-65157906D01*
X165206645Y-65157913D01*
X165156403Y-65292620D01*
X165156401Y-65292627D01*
X165150000Y-65352155D01*
X165150000Y-65400000D01*
X165151373Y-65400000D01*
X165164296Y-65403794D01*
X165177733Y-65402834D01*
X165197169Y-65413447D01*
X165218412Y-65419685D01*
X165227231Y-65429863D01*
X165239056Y-65436320D01*
X165249669Y-65455758D01*
X165264167Y-65472489D01*
X165266083Y-65485819D01*
X165272540Y-65497644D01*
X165270959Y-65519731D01*
X165274111Y-65541647D01*
X165268406Y-65555418D01*
X165267554Y-65567335D01*
X165250639Y-65598312D01*
X165211711Y-65650312D01*
X165163894Y-65686105D01*
X165150000Y-65700000D01*
X165150000Y-65747832D01*
X165153931Y-65784399D01*
X165153931Y-65810905D01*
X165149500Y-65852122D01*
X165149500Y-66247869D01*
X165149501Y-66247878D01*
X165153679Y-66286745D01*
X165153679Y-66313250D01*
X165149500Y-66352122D01*
X165149500Y-66747869D01*
X165149501Y-66747878D01*
X165153679Y-66786745D01*
X165153679Y-66813250D01*
X165149500Y-66852122D01*
X165149500Y-67247870D01*
X165149501Y-67247876D01*
X165155908Y-67307483D01*
X165206202Y-67442328D01*
X165206206Y-67442335D01*
X165292452Y-67557544D01*
X165292455Y-67557547D01*
X165407664Y-67643793D01*
X165407671Y-67643797D01*
X165452618Y-67660561D01*
X165542517Y-67694091D01*
X165602127Y-67700500D01*
X165633021Y-67700499D01*
X165700059Y-67720182D01*
X165745816Y-67772984D01*
X165753265Y-67800134D01*
X165754124Y-67799932D01*
X165755907Y-67807479D01*
X165806202Y-67942328D01*
X165806206Y-67942335D01*
X165892452Y-68057544D01*
X165892455Y-68057547D01*
X166007664Y-68143793D01*
X166007671Y-68143797D01*
X166142517Y-68194091D01*
X166150062Y-68195874D01*
X166149523Y-68198151D01*
X166203287Y-68220408D01*
X166243147Y-68277793D01*
X166246664Y-68290607D01*
X166249500Y-68303641D01*
X166249501Y-68347872D01*
X166255909Y-68407483D01*
X166294779Y-68511698D01*
X166296664Y-68520360D01*
X166296119Y-68527988D01*
X166299500Y-68546728D01*
X166299500Y-70663330D01*
X166299499Y-70663348D01*
X166299499Y-70829054D01*
X166299498Y-70829054D01*
X166329227Y-70940000D01*
X166340423Y-70981785D01*
X166350651Y-70999500D01*
X166419477Y-71118712D01*
X166419481Y-71118717D01*
X166538349Y-71237585D01*
X166538354Y-71237589D01*
X169981284Y-74680520D01*
X170118215Y-74759577D01*
X170270943Y-74800501D01*
X170270946Y-74800501D01*
X170436654Y-74800501D01*
X170436670Y-74800500D01*
X173434217Y-74800500D01*
X173501256Y-74820185D01*
X173521898Y-74836819D01*
X175013181Y-76328102D01*
X175046666Y-76389425D01*
X175049500Y-76415783D01*
X175049500Y-76461859D01*
X175049499Y-76461877D01*
X175049499Y-76627583D01*
X175049498Y-76627583D01*
X175061343Y-76671789D01*
X175087588Y-76769735D01*
X175090423Y-76780313D01*
X175090424Y-76780317D01*
X175117457Y-76827140D01*
X175117458Y-76827140D01*
X175169477Y-76917241D01*
X175169481Y-76917246D01*
X175288349Y-77036114D01*
X175288355Y-77036119D01*
X175428211Y-77175975D01*
X175461696Y-77237298D01*
X175462147Y-77239465D01*
X175480996Y-77334224D01*
X175480999Y-77334236D01*
X175540145Y-77477028D01*
X175547614Y-77546497D01*
X175540145Y-77571932D01*
X175480264Y-77716498D01*
X175480261Y-77716508D01*
X175449361Y-77871850D01*
X175416976Y-77933761D01*
X175415425Y-77935339D01*
X171895524Y-81455240D01*
X171834201Y-81488725D01*
X171764509Y-81483741D01*
X171720162Y-81455240D01*
X171637785Y-81372863D01*
X171637781Y-81372860D01*
X171473920Y-81263371D01*
X171473907Y-81263364D01*
X171291839Y-81187950D01*
X171291829Y-81187947D01*
X171098543Y-81149500D01*
X171098541Y-81149500D01*
X170901459Y-81149500D01*
X170901457Y-81149500D01*
X170708170Y-81187947D01*
X170708160Y-81187950D01*
X170526092Y-81263364D01*
X170526079Y-81263371D01*
X170362218Y-81372860D01*
X170362214Y-81372863D01*
X170222863Y-81512214D01*
X170222860Y-81512218D01*
X170113371Y-81676079D01*
X170113364Y-81676092D01*
X170037950Y-81858160D01*
X170037947Y-81858170D01*
X169999500Y-82051456D01*
X169999500Y-82051459D01*
X169999500Y-82248541D01*
X169999500Y-82248543D01*
X169999499Y-82248543D01*
X170037947Y-82441829D01*
X170037950Y-82441839D01*
X170113364Y-82623907D01*
X170113371Y-82623920D01*
X170222860Y-82787781D01*
X170222863Y-82787785D01*
X170362214Y-82927136D01*
X170362218Y-82927139D01*
X170526079Y-83036628D01*
X170526092Y-83036635D01*
X170708160Y-83112049D01*
X170708165Y-83112051D01*
X170708169Y-83112051D01*
X170708170Y-83112052D01*
X170901456Y-83150500D01*
X170901459Y-83150500D01*
X171098543Y-83150500D01*
X171254492Y-83119479D01*
X171291835Y-83112051D01*
X171473914Y-83036632D01*
X171637782Y-82927139D01*
X171684660Y-82880261D01*
X171778103Y-82786819D01*
X171805030Y-82772115D01*
X171830849Y-82755523D01*
X171837049Y-82754631D01*
X171839426Y-82753334D01*
X171865784Y-82750500D01*
X171963331Y-82750500D01*
X171963347Y-82750501D01*
X171970943Y-82750501D01*
X172129054Y-82750501D01*
X172129057Y-82750501D01*
X172281785Y-82709577D01*
X172356391Y-82666503D01*
X172418716Y-82630520D01*
X172530520Y-82518716D01*
X172530520Y-82518714D01*
X172540724Y-82508511D01*
X172540727Y-82508506D01*
X176264662Y-78784572D01*
X176281255Y-78775511D01*
X176294865Y-78762380D01*
X176324362Y-78751973D01*
X176325983Y-78751089D01*
X176328149Y-78750638D01*
X176349223Y-78746446D01*
X176443810Y-78727631D01*
X176513399Y-78733858D01*
X176568577Y-78776720D01*
X176591822Y-78842610D01*
X176592000Y-78849248D01*
X176592000Y-79307870D01*
X176592001Y-79307876D01*
X176598408Y-79367481D01*
X176611159Y-79401669D01*
X176616142Y-79471361D01*
X176611159Y-79488331D01*
X176598408Y-79522518D01*
X176592908Y-79573680D01*
X176592001Y-79582123D01*
X176592000Y-79582135D01*
X176592000Y-80577870D01*
X176592001Y-80577876D01*
X176598408Y-80637481D01*
X176611159Y-80671669D01*
X176616142Y-80741361D01*
X176611159Y-80758331D01*
X176598408Y-80792518D01*
X176592001Y-80852116D01*
X176592001Y-80852123D01*
X176592000Y-80852135D01*
X176592000Y-81847870D01*
X176592001Y-81847876D01*
X176598408Y-81907481D01*
X176611159Y-81941669D01*
X176617485Y-82004169D01*
X176615543Y-82016574D01*
X176598409Y-82062517D01*
X176592000Y-82122127D01*
X176592000Y-82167042D01*
X176590509Y-82176571D01*
X176579550Y-82199800D01*
X176572315Y-82224441D01*
X176561727Y-82237579D01*
X176560698Y-82239762D01*
X176559228Y-82240680D01*
X176555681Y-82245083D01*
X175919481Y-82881282D01*
X175919479Y-82881285D01*
X175869361Y-82968094D01*
X175869359Y-82968096D01*
X175840425Y-83018209D01*
X175840424Y-83018210D01*
X175824544Y-83077472D01*
X175799499Y-83170943D01*
X175799499Y-83170945D01*
X175799499Y-83339046D01*
X175799500Y-83339059D01*
X175799500Y-83770234D01*
X175779815Y-83837273D01*
X175778602Y-83839125D01*
X175690609Y-83970814D01*
X175690602Y-83970827D01*
X175630264Y-84116498D01*
X175630261Y-84116510D01*
X175599500Y-84271153D01*
X175599500Y-84428846D01*
X175630261Y-84583489D01*
X175630264Y-84583501D01*
X175690602Y-84729172D01*
X175690609Y-84729185D01*
X175775752Y-84856609D01*
X175796630Y-84923286D01*
X175778146Y-84990666D01*
X175726167Y-85037357D01*
X175672650Y-85049500D01*
X172091929Y-85049500D01*
X172024890Y-85029815D01*
X171979135Y-84977011D01*
X171970312Y-84949692D01*
X171962052Y-84908170D01*
X171962051Y-84908169D01*
X171962051Y-84908165D01*
X171938840Y-84852128D01*
X171886635Y-84726092D01*
X171886628Y-84726079D01*
X171777139Y-84562218D01*
X171777136Y-84562214D01*
X171637785Y-84422863D01*
X171637781Y-84422860D01*
X171473920Y-84313371D01*
X171473907Y-84313364D01*
X171291839Y-84237950D01*
X171291829Y-84237947D01*
X171098543Y-84199500D01*
X171098541Y-84199500D01*
X170901459Y-84199500D01*
X170901457Y-84199500D01*
X170708170Y-84237947D01*
X170708160Y-84237950D01*
X170526092Y-84313364D01*
X170526079Y-84313371D01*
X170362218Y-84422860D01*
X170362214Y-84422863D01*
X170222863Y-84562214D01*
X170222860Y-84562218D01*
X170113371Y-84726079D01*
X170113366Y-84726089D01*
X170036415Y-84911866D01*
X169992574Y-84966269D01*
X169926280Y-84988334D01*
X169858580Y-84971055D01*
X169834173Y-84952094D01*
X169760292Y-84878213D01*
X169760288Y-84878210D01*
X169629185Y-84790609D01*
X169629172Y-84790602D01*
X169483501Y-84730264D01*
X169483489Y-84730261D01*
X169328845Y-84699500D01*
X169328842Y-84699500D01*
X169171158Y-84699500D01*
X169171155Y-84699500D01*
X169016510Y-84730261D01*
X169016498Y-84730264D01*
X168870827Y-84790602D01*
X168870814Y-84790609D01*
X168739711Y-84878210D01*
X168739707Y-84878213D01*
X168628213Y-84989707D01*
X168628210Y-84989711D01*
X168540609Y-85120814D01*
X168540602Y-85120827D01*
X168480264Y-85266498D01*
X168480261Y-85266510D01*
X168449500Y-85421153D01*
X168449500Y-85578846D01*
X168480261Y-85733489D01*
X168480264Y-85733501D01*
X168540602Y-85879172D01*
X168540609Y-85879185D01*
X168628210Y-86010288D01*
X168628213Y-86010292D01*
X168739707Y-86121786D01*
X168739711Y-86121789D01*
X168870814Y-86209390D01*
X168870827Y-86209397D01*
X169014296Y-86268823D01*
X169016503Y-86269737D01*
X169171153Y-86300499D01*
X169171156Y-86300500D01*
X169171158Y-86300500D01*
X169328844Y-86300500D01*
X169328845Y-86300499D01*
X169483497Y-86269737D01*
X169629179Y-86209394D01*
X169760289Y-86121789D01*
X169871789Y-86010289D01*
X169959394Y-85879179D01*
X169982025Y-85824540D01*
X170025864Y-85770138D01*
X170092158Y-85748072D01*
X170159857Y-85765350D01*
X170199688Y-85803102D01*
X170222860Y-85837781D01*
X170222863Y-85837785D01*
X170362214Y-85977136D01*
X170362218Y-85977139D01*
X170526079Y-86086628D01*
X170526092Y-86086635D01*
X170636059Y-86132184D01*
X170708165Y-86162051D01*
X170708169Y-86162051D01*
X170708170Y-86162052D01*
X170901456Y-86200500D01*
X170901459Y-86200500D01*
X171098542Y-86200500D01*
X171112301Y-86197762D01*
X171130080Y-86194226D01*
X171189385Y-86196918D01*
X171203515Y-86201090D01*
X171218215Y-86209577D01*
X171370124Y-86250280D01*
X171371582Y-86250711D01*
X171399674Y-86268823D01*
X171428223Y-86286225D01*
X171428934Y-86287690D01*
X171430304Y-86288573D01*
X171444146Y-86319004D01*
X171458753Y-86349072D01*
X171458559Y-86350689D01*
X171459234Y-86352172D01*
X171454429Y-86385239D01*
X171450459Y-86418448D01*
X171449406Y-86419802D01*
X171449187Y-86421316D01*
X171440193Y-86431663D01*
X171415072Y-86464004D01*
X171415231Y-86464163D01*
X171413970Y-86465423D01*
X171411966Y-86468004D01*
X171409488Y-86469905D01*
X171300917Y-86578477D01*
X171297680Y-86581714D01*
X171297678Y-86581716D01*
X170278216Y-87601179D01*
X169266214Y-88613181D01*
X169204891Y-88646666D01*
X169178533Y-88649500D01*
X166601751Y-88649500D01*
X166534712Y-88629815D01*
X166501432Y-88598384D01*
X166430107Y-88500211D01*
X166279786Y-88349890D01*
X166107820Y-88224951D01*
X166107115Y-88224591D01*
X166099054Y-88220485D01*
X166048259Y-88172512D01*
X166031463Y-88104692D01*
X166053999Y-88038556D01*
X166099054Y-87999515D01*
X166107816Y-87995051D01*
X166156900Y-87959390D01*
X166279786Y-87870109D01*
X166279788Y-87870106D01*
X166279792Y-87870104D01*
X166430104Y-87719792D01*
X166430106Y-87719788D01*
X166430109Y-87719786D01*
X166555048Y-87547820D01*
X166555047Y-87547820D01*
X166555051Y-87547816D01*
X166651557Y-87358412D01*
X166717246Y-87156243D01*
X166750500Y-86946287D01*
X166750500Y-86733713D01*
X166717246Y-86523757D01*
X166651557Y-86321588D01*
X166555051Y-86132184D01*
X166555049Y-86132181D01*
X166555048Y-86132179D01*
X166430109Y-85960213D01*
X166279786Y-85809890D01*
X166107820Y-85684951D01*
X165918414Y-85588444D01*
X165918413Y-85588443D01*
X165918412Y-85588443D01*
X165716243Y-85522754D01*
X165716241Y-85522753D01*
X165716240Y-85522753D01*
X165554957Y-85497208D01*
X165506287Y-85489500D01*
X165293713Y-85489500D01*
X165245042Y-85497208D01*
X165083760Y-85522753D01*
X164881585Y-85588444D01*
X164692179Y-85684951D01*
X164520213Y-85809890D01*
X164369890Y-85960213D01*
X164244951Y-86132179D01*
X164148444Y-86321585D01*
X164082753Y-86523760D01*
X164058413Y-86677441D01*
X164049500Y-86733713D01*
X164049500Y-86946287D01*
X164053729Y-86972987D01*
X164081879Y-87150723D01*
X164082754Y-87156243D01*
X164144989Y-87347783D01*
X164148444Y-87358414D01*
X164244951Y-87547820D01*
X164369890Y-87719786D01*
X164520213Y-87870109D01*
X164692182Y-87995050D01*
X164700946Y-87999516D01*
X164751742Y-88047491D01*
X164768536Y-88115312D01*
X164745998Y-88181447D01*
X164700946Y-88220484D01*
X164692182Y-88224949D01*
X164520213Y-88349890D01*
X164369890Y-88500213D01*
X164244951Y-88672179D01*
X164148444Y-88861585D01*
X164082753Y-89063760D01*
X164049500Y-89273713D01*
X164049500Y-89486286D01*
X164082393Y-89693968D01*
X164082754Y-89696243D01*
X164139271Y-89870185D01*
X164148444Y-89898414D01*
X164244951Y-90087820D01*
X164369890Y-90259786D01*
X164520213Y-90410109D01*
X164692182Y-90535050D01*
X164700946Y-90539516D01*
X164751742Y-90587491D01*
X164768536Y-90655312D01*
X164745998Y-90721447D01*
X164700946Y-90760484D01*
X164692182Y-90764949D01*
X164520213Y-90889890D01*
X164369890Y-91040213D01*
X164244951Y-91212179D01*
X164148444Y-91401585D01*
X164082753Y-91603760D01*
X164049500Y-91813713D01*
X164049500Y-92026286D01*
X164073662Y-92178842D01*
X164082754Y-92236243D01*
X164142544Y-92420258D01*
X164148444Y-92438414D01*
X164244951Y-92627820D01*
X164369890Y-92799786D01*
X164520213Y-92950109D01*
X164692182Y-93075050D01*
X164700946Y-93079516D01*
X164751742Y-93127491D01*
X164768536Y-93195312D01*
X164745998Y-93261447D01*
X164700946Y-93300484D01*
X164692182Y-93304949D01*
X164520213Y-93429890D01*
X164369890Y-93580213D01*
X164244951Y-93752179D01*
X164148444Y-93941585D01*
X164082753Y-94143760D01*
X164049500Y-94353713D01*
X164049500Y-94566286D01*
X164080261Y-94760508D01*
X164082754Y-94776243D01*
X164138501Y-94947815D01*
X164148444Y-94978414D01*
X164244951Y-95167820D01*
X164369890Y-95339786D01*
X164520213Y-95490109D01*
X164692179Y-95615048D01*
X164692181Y-95615049D01*
X164692184Y-95615051D01*
X164701493Y-95619794D01*
X164752290Y-95667766D01*
X164769087Y-95735587D01*
X164746552Y-95801722D01*
X164701505Y-95840760D01*
X164692446Y-95845376D01*
X164692440Y-95845380D01*
X164638282Y-95884727D01*
X164638282Y-95884728D01*
X165270591Y-96517037D01*
X165207007Y-96534075D01*
X165092993Y-96599901D01*
X164999901Y-96692993D01*
X164934075Y-96807007D01*
X164917037Y-96870591D01*
X164284728Y-96238282D01*
X164284727Y-96238282D01*
X164245380Y-96292439D01*
X164148904Y-96481782D01*
X164083242Y-96683869D01*
X164083242Y-96683872D01*
X164050000Y-96893753D01*
X164050000Y-97106246D01*
X164083242Y-97316127D01*
X164083242Y-97316130D01*
X164148904Y-97518217D01*
X164245375Y-97707550D01*
X164284728Y-97761716D01*
X164917037Y-97129408D01*
X164934075Y-97192993D01*
X164999901Y-97307007D01*
X165092993Y-97400099D01*
X165207007Y-97465925D01*
X165270590Y-97482962D01*
X164600370Y-98153181D01*
X164539047Y-98186666D01*
X164512698Y-98189500D01*
X164502134Y-98189500D01*
X164502123Y-98189501D01*
X164442516Y-98195908D01*
X164307671Y-98246202D01*
X164307664Y-98246206D01*
X164192455Y-98332452D01*
X164192452Y-98332455D01*
X164106206Y-98447664D01*
X164106202Y-98447671D01*
X164055908Y-98582517D01*
X164049501Y-98642116D01*
X164049501Y-98642123D01*
X164049500Y-98642135D01*
X164049500Y-100437870D01*
X164049501Y-100437876D01*
X164055908Y-100497483D01*
X164106202Y-100632328D01*
X164106206Y-100632335D01*
X164192452Y-100747544D01*
X164192455Y-100747547D01*
X164307664Y-100833793D01*
X164307671Y-100833797D01*
X164442517Y-100884091D01*
X164442516Y-100884091D01*
X164449444Y-100884835D01*
X164502127Y-100890500D01*
X166297872Y-100890499D01*
X166357483Y-100884091D01*
X166492331Y-100833796D01*
X166607546Y-100747546D01*
X166693796Y-100632331D01*
X166744091Y-100497483D01*
X166750500Y-100437873D01*
X166750499Y-98642128D01*
X166744091Y-98582517D01*
X166693796Y-98447669D01*
X166630050Y-98362516D01*
X166607547Y-98332455D01*
X166607544Y-98332452D01*
X166492335Y-98246206D01*
X166492328Y-98246202D01*
X166357482Y-98195908D01*
X166357483Y-98195908D01*
X166297883Y-98189501D01*
X166297881Y-98189500D01*
X166297873Y-98189500D01*
X166297865Y-98189500D01*
X166287309Y-98189500D01*
X166220270Y-98169815D01*
X166199628Y-98153181D01*
X165529408Y-97482962D01*
X165592993Y-97465925D01*
X165707007Y-97400099D01*
X165800099Y-97307007D01*
X165865925Y-97192993D01*
X165882962Y-97129408D01*
X166515270Y-97761717D01*
X166515270Y-97761716D01*
X166554622Y-97707554D01*
X166651095Y-97518217D01*
X166716757Y-97316130D01*
X166716757Y-97316127D01*
X166750000Y-97106246D01*
X166750000Y-96893753D01*
X166716757Y-96683872D01*
X166716757Y-96683869D01*
X166698344Y-96627199D01*
X166651095Y-96481782D01*
X166554624Y-96292449D01*
X166515270Y-96238282D01*
X166515269Y-96238282D01*
X165882962Y-96870590D01*
X165865925Y-96807007D01*
X165800099Y-96692993D01*
X165707007Y-96599901D01*
X165592993Y-96534075D01*
X165529409Y-96517037D01*
X166161716Y-95884728D01*
X166107547Y-95845373D01*
X166107547Y-95845372D01*
X166098500Y-95840763D01*
X166047706Y-95792788D01*
X166030912Y-95724966D01*
X166053451Y-95658832D01*
X166098508Y-95619793D01*
X166107816Y-95615051D01*
X166203722Y-95545372D01*
X166279786Y-95490109D01*
X166279788Y-95490106D01*
X166279792Y-95490104D01*
X166430104Y-95339792D01*
X166430106Y-95339788D01*
X166430109Y-95339786D01*
X166555048Y-95167820D01*
X166555047Y-95167820D01*
X166555051Y-95167816D01*
X166651557Y-94978412D01*
X166717246Y-94776243D01*
X166750500Y-94566287D01*
X166750500Y-94353713D01*
X166717246Y-94143757D01*
X166703506Y-94101473D01*
X166701512Y-94031635D01*
X166733755Y-93975478D01*
X169465081Y-91244153D01*
X169526403Y-91210669D01*
X169596095Y-91215653D01*
X169652028Y-91257525D01*
X169676445Y-91322989D01*
X169675234Y-91351233D01*
X169649500Y-91513713D01*
X169649500Y-91726286D01*
X169673372Y-91877011D01*
X169682754Y-91936243D01*
X169747870Y-92136649D01*
X169748444Y-92138414D01*
X169844951Y-92327820D01*
X169969890Y-92499786D01*
X170120213Y-92650109D01*
X170292182Y-92775050D01*
X170300946Y-92779516D01*
X170351742Y-92827491D01*
X170368536Y-92895312D01*
X170345998Y-92961447D01*
X170300946Y-93000484D01*
X170292182Y-93004949D01*
X170120213Y-93129890D01*
X169969890Y-93280213D01*
X169844951Y-93452179D01*
X169748444Y-93641585D01*
X169682753Y-93843760D01*
X169649500Y-94053713D01*
X169649500Y-94266286D01*
X169679592Y-94456284D01*
X169682754Y-94476243D01*
X169735459Y-94638453D01*
X169748444Y-94678414D01*
X169844951Y-94867820D01*
X169969890Y-95039786D01*
X170120213Y-95190109D01*
X170292179Y-95315048D01*
X170292181Y-95315049D01*
X170292184Y-95315051D01*
X170301493Y-95319794D01*
X170352290Y-95367766D01*
X170369087Y-95435587D01*
X170346552Y-95501722D01*
X170301505Y-95540760D01*
X170292446Y-95545376D01*
X170292440Y-95545380D01*
X170238282Y-95584727D01*
X170238282Y-95584728D01*
X170870591Y-96217037D01*
X170807007Y-96234075D01*
X170692993Y-96299901D01*
X170599901Y-96392993D01*
X170534075Y-96507007D01*
X170517037Y-96570591D01*
X169884728Y-95938282D01*
X169884727Y-95938282D01*
X169845380Y-95992439D01*
X169748904Y-96181782D01*
X169683242Y-96383869D01*
X169683242Y-96383872D01*
X169650000Y-96593753D01*
X169650000Y-96806246D01*
X169683242Y-97016127D01*
X169683242Y-97016130D01*
X169748904Y-97218217D01*
X169845375Y-97407550D01*
X169884728Y-97461716D01*
X170517037Y-96829408D01*
X170534075Y-96892993D01*
X170599901Y-97007007D01*
X170692993Y-97100099D01*
X170807007Y-97165925D01*
X170870590Y-97182962D01*
X170200370Y-97853181D01*
X170139047Y-97886666D01*
X170112698Y-97889500D01*
X170102134Y-97889500D01*
X170102123Y-97889501D01*
X170042516Y-97895908D01*
X169907671Y-97946202D01*
X169907664Y-97946206D01*
X169792455Y-98032452D01*
X169792452Y-98032455D01*
X169706206Y-98147664D01*
X169706202Y-98147671D01*
X169655908Y-98282517D01*
X169650540Y-98332452D01*
X169649501Y-98342123D01*
X169649500Y-98342135D01*
X169649500Y-100137870D01*
X169649501Y-100137876D01*
X169655908Y-100197483D01*
X169706202Y-100332328D01*
X169706206Y-100332335D01*
X169792452Y-100447544D01*
X169792455Y-100447547D01*
X169907664Y-100533793D01*
X169907671Y-100533797D01*
X170042517Y-100584091D01*
X170042516Y-100584091D01*
X170049444Y-100584835D01*
X170102127Y-100590500D01*
X171897872Y-100590499D01*
X171957483Y-100584091D01*
X172092331Y-100533796D01*
X172207546Y-100447546D01*
X172293796Y-100332331D01*
X172344091Y-100197483D01*
X172350500Y-100137873D01*
X172350499Y-98342128D01*
X172344091Y-98282517D01*
X172330546Y-98246202D01*
X172293797Y-98147671D01*
X172293793Y-98147664D01*
X172207547Y-98032455D01*
X172207544Y-98032452D01*
X172092335Y-97946206D01*
X172092328Y-97946202D01*
X171957482Y-97895908D01*
X171957483Y-97895908D01*
X171897883Y-97889501D01*
X171897881Y-97889500D01*
X171897873Y-97889500D01*
X171897865Y-97889500D01*
X171887309Y-97889500D01*
X171820270Y-97869815D01*
X171799628Y-97853181D01*
X171129408Y-97182962D01*
X171192993Y-97165925D01*
X171307007Y-97100099D01*
X171400099Y-97007007D01*
X171465925Y-96892993D01*
X171482962Y-96829408D01*
X172115270Y-97461717D01*
X172115270Y-97461716D01*
X172154622Y-97407554D01*
X172251095Y-97218217D01*
X172316757Y-97016130D01*
X172316757Y-97016127D01*
X172350000Y-96806246D01*
X172350000Y-96593753D01*
X172316757Y-96383872D01*
X172316757Y-96383869D01*
X172251095Y-96181782D01*
X172154624Y-95992449D01*
X172115270Y-95938282D01*
X172115269Y-95938282D01*
X171482962Y-96570590D01*
X171465925Y-96507007D01*
X171400099Y-96392993D01*
X171307007Y-96299901D01*
X171192993Y-96234075D01*
X171129409Y-96217037D01*
X171761716Y-95584728D01*
X171707547Y-95545373D01*
X171707547Y-95545372D01*
X171698500Y-95540763D01*
X171647706Y-95492788D01*
X171630912Y-95424966D01*
X171653451Y-95358832D01*
X171698508Y-95319793D01*
X171707816Y-95315051D01*
X171787007Y-95257515D01*
X171879786Y-95190109D01*
X171879788Y-95190106D01*
X171879792Y-95190104D01*
X172030104Y-95039792D01*
X172030106Y-95039788D01*
X172030109Y-95039786D01*
X172155048Y-94867820D01*
X172155047Y-94867820D01*
X172155051Y-94867816D01*
X172251557Y-94678412D01*
X172317246Y-94476243D01*
X172350500Y-94266287D01*
X172350500Y-94053713D01*
X172317246Y-93843757D01*
X172303506Y-93801473D01*
X172301512Y-93731635D01*
X172333755Y-93675478D01*
X174637554Y-91371679D01*
X174698875Y-91338196D01*
X174768567Y-91343180D01*
X174824500Y-91385052D01*
X174848917Y-91450516D01*
X174847706Y-91478759D01*
X174834077Y-91564815D01*
X174829500Y-91593713D01*
X174829500Y-91806287D01*
X174839037Y-91866498D01*
X174851214Y-91943386D01*
X174862754Y-92016243D01*
X174915587Y-92178846D01*
X174928444Y-92218414D01*
X175024951Y-92407820D01*
X175149890Y-92579786D01*
X175300213Y-92730109D01*
X175472182Y-92855050D01*
X175480946Y-92859516D01*
X175531742Y-92907491D01*
X175548536Y-92975312D01*
X175525998Y-93041447D01*
X175480946Y-93080484D01*
X175472182Y-93084949D01*
X175300213Y-93209890D01*
X175149890Y-93360213D01*
X175024951Y-93532179D01*
X174928444Y-93721585D01*
X174862753Y-93923760D01*
X174829500Y-94133713D01*
X174829500Y-94346286D01*
X174858671Y-94530469D01*
X174862754Y-94556243D01*
X174924392Y-94745945D01*
X174928444Y-94758414D01*
X175024951Y-94947820D01*
X175149890Y-95119786D01*
X175300213Y-95270109D01*
X175472179Y-95395048D01*
X175472181Y-95395049D01*
X175472184Y-95395051D01*
X175481493Y-95399794D01*
X175532290Y-95447766D01*
X175549087Y-95515587D01*
X175526552Y-95581722D01*
X175481505Y-95620760D01*
X175472446Y-95625376D01*
X175472440Y-95625380D01*
X175418282Y-95664727D01*
X175418282Y-95664728D01*
X176050591Y-96297037D01*
X175987007Y-96314075D01*
X175872993Y-96379901D01*
X175779901Y-96472993D01*
X175714075Y-96587007D01*
X175697037Y-96650591D01*
X175064728Y-96018282D01*
X175064727Y-96018282D01*
X175025380Y-96072439D01*
X174928904Y-96261782D01*
X174863242Y-96463869D01*
X174863242Y-96463872D01*
X174830000Y-96673753D01*
X174830000Y-96886246D01*
X174863242Y-97096127D01*
X174863242Y-97096130D01*
X174928904Y-97298217D01*
X175025375Y-97487550D01*
X175064728Y-97541716D01*
X175697037Y-96909408D01*
X175714075Y-96972993D01*
X175779901Y-97087007D01*
X175872993Y-97180099D01*
X175987007Y-97245925D01*
X176050590Y-97262962D01*
X175380370Y-97933181D01*
X175319047Y-97966666D01*
X175292698Y-97969500D01*
X175282134Y-97969500D01*
X175282123Y-97969501D01*
X175222516Y-97975908D01*
X175087671Y-98026202D01*
X175087664Y-98026206D01*
X174972455Y-98112452D01*
X174972452Y-98112455D01*
X174886206Y-98227664D01*
X174886202Y-98227671D01*
X174835908Y-98362517D01*
X174829501Y-98422116D01*
X174829501Y-98422123D01*
X174829500Y-98422135D01*
X174829500Y-100217870D01*
X174829501Y-100217876D01*
X174835908Y-100277483D01*
X174886202Y-100412328D01*
X174886206Y-100412335D01*
X174972452Y-100527544D01*
X174972455Y-100527547D01*
X175087664Y-100613793D01*
X175087671Y-100613797D01*
X175222517Y-100664091D01*
X175222516Y-100664091D01*
X175229444Y-100664835D01*
X175282127Y-100670500D01*
X177077872Y-100670499D01*
X177137483Y-100664091D01*
X177272331Y-100613796D01*
X177387546Y-100527546D01*
X177473796Y-100412331D01*
X177524091Y-100277483D01*
X177530500Y-100217873D01*
X177530499Y-98422128D01*
X177524091Y-98362517D01*
X177516486Y-98342128D01*
X177473797Y-98227671D01*
X177473793Y-98227664D01*
X177387547Y-98112455D01*
X177387544Y-98112452D01*
X177272335Y-98026206D01*
X177272328Y-98026202D01*
X177137482Y-97975908D01*
X177137483Y-97975908D01*
X177077883Y-97969501D01*
X177077881Y-97969500D01*
X177077873Y-97969500D01*
X177077865Y-97969500D01*
X177067309Y-97969500D01*
X177000270Y-97949815D01*
X176979628Y-97933181D01*
X176309408Y-97262962D01*
X176372993Y-97245925D01*
X176487007Y-97180099D01*
X176580099Y-97087007D01*
X176645925Y-96972993D01*
X176662962Y-96909408D01*
X177295270Y-97541717D01*
X177295270Y-97541716D01*
X177334622Y-97487554D01*
X177431095Y-97298217D01*
X177496757Y-97096130D01*
X177496757Y-97096127D01*
X177530000Y-96886246D01*
X177530000Y-96673753D01*
X177496757Y-96463872D01*
X177496757Y-96463869D01*
X177431095Y-96261782D01*
X177334624Y-96072449D01*
X177295270Y-96018282D01*
X177295269Y-96018282D01*
X176662962Y-96650590D01*
X176645925Y-96587007D01*
X176580099Y-96472993D01*
X176487007Y-96379901D01*
X176372993Y-96314075D01*
X176309409Y-96297037D01*
X176941716Y-95664728D01*
X176887547Y-95625373D01*
X176887547Y-95625372D01*
X176878500Y-95620763D01*
X176827706Y-95572788D01*
X176810912Y-95504966D01*
X176833451Y-95438832D01*
X176878508Y-95399793D01*
X176887816Y-95395051D01*
X176967007Y-95337515D01*
X177059786Y-95270109D01*
X177059788Y-95270106D01*
X177059792Y-95270104D01*
X177210104Y-95119792D01*
X177210106Y-95119788D01*
X177210109Y-95119786D01*
X177312820Y-94978414D01*
X177335051Y-94947816D01*
X177335349Y-94947230D01*
X177355235Y-94908205D01*
X177403209Y-94857409D01*
X177465719Y-94840500D01*
X179324802Y-94840500D01*
X179324818Y-94840501D01*
X179332414Y-94840501D01*
X179490525Y-94840501D01*
X179490528Y-94840501D01*
X179643256Y-94799577D01*
X179710937Y-94760501D01*
X179780187Y-94720520D01*
X179891991Y-94608716D01*
X179891991Y-94608714D01*
X179902195Y-94598511D01*
X179902199Y-94598506D01*
X182330572Y-92170132D01*
X182391893Y-92136649D01*
X182461585Y-92141633D01*
X182517518Y-92183505D01*
X182532813Y-92210364D01*
X182540605Y-92229178D01*
X182540609Y-92229185D01*
X182628209Y-92360287D01*
X182628210Y-92360288D01*
X182628211Y-92360289D01*
X182688182Y-92420260D01*
X182721666Y-92481581D01*
X182724500Y-92507940D01*
X182724500Y-92556613D01*
X182730913Y-92627192D01*
X182730913Y-92627194D01*
X182730914Y-92627196D01*
X182781522Y-92789606D01*
X182848559Y-92900499D01*
X182869530Y-92935188D01*
X182971661Y-93037319D01*
X183005146Y-93098642D01*
X183000162Y-93168334D01*
X182971661Y-93212681D01*
X182869531Y-93314810D01*
X182869530Y-93314811D01*
X182781522Y-93460393D01*
X182730913Y-93622807D01*
X182724500Y-93693386D01*
X182724500Y-94024902D01*
X182704815Y-94091941D01*
X182688181Y-94112583D01*
X182344481Y-94456282D01*
X182344477Y-94456287D01*
X182302662Y-94528715D01*
X182302662Y-94528716D01*
X182265423Y-94593214D01*
X182257669Y-94622151D01*
X182224499Y-94745943D01*
X182224499Y-94745945D01*
X182224499Y-94914046D01*
X182224500Y-94914059D01*
X182224500Y-99063330D01*
X182224499Y-99063348D01*
X182224499Y-99229054D01*
X182224498Y-99229054D01*
X182265423Y-99381786D01*
X182265424Y-99381787D01*
X182276228Y-99400500D01*
X182286644Y-99418541D01*
X182335369Y-99502936D01*
X182344481Y-99518717D01*
X182463349Y-99637585D01*
X182463355Y-99637590D01*
X182588181Y-99762416D01*
X182621666Y-99823739D01*
X182624500Y-99850097D01*
X182624500Y-100191681D01*
X182634563Y-100290183D01*
X182687450Y-100449784D01*
X182687455Y-100449795D01*
X182775716Y-100592887D01*
X182775719Y-100592891D01*
X182894608Y-100711780D01*
X182894612Y-100711783D01*
X183037704Y-100800044D01*
X183037707Y-100800045D01*
X183037713Y-100800049D01*
X183197315Y-100852936D01*
X183295826Y-100863000D01*
X183295831Y-100863000D01*
X183904169Y-100863000D01*
X183904174Y-100863000D01*
X184002685Y-100852936D01*
X184162287Y-100800049D01*
X184305391Y-100711781D01*
X184424281Y-100592891D01*
X184512549Y-100449787D01*
X184560808Y-100304152D01*
X187625001Y-100304152D01*
X187635056Y-100402583D01*
X187687906Y-100562072D01*
X187687908Y-100562077D01*
X187776114Y-100705080D01*
X187894919Y-100823885D01*
X188037922Y-100912091D01*
X188037927Y-100912093D01*
X188197416Y-100964942D01*
X188295855Y-100974999D01*
X188850000Y-100974999D01*
X188904136Y-100974999D01*
X188904152Y-100974998D01*
X189002583Y-100964943D01*
X189162072Y-100912093D01*
X189162077Y-100912091D01*
X189305080Y-100823885D01*
X189423885Y-100705080D01*
X189512091Y-100562077D01*
X189512093Y-100562072D01*
X189560280Y-100416652D01*
X192425001Y-100416652D01*
X192435056Y-100515083D01*
X192487906Y-100674572D01*
X192487908Y-100674577D01*
X192576114Y-100817580D01*
X192694919Y-100936385D01*
X192837922Y-101024591D01*
X192837927Y-101024593D01*
X192997416Y-101077442D01*
X193095855Y-101087499D01*
X193650000Y-101087499D01*
X193704136Y-101087499D01*
X193704152Y-101087498D01*
X193802583Y-101077443D01*
X193962072Y-101024593D01*
X193962077Y-101024591D01*
X194105080Y-100936385D01*
X194141465Y-100900000D01*
X197152500Y-100900000D01*
X218092500Y-100900000D01*
X218092500Y-52900000D01*
X197152500Y-52900000D01*
X197152500Y-100900000D01*
X194141465Y-100900000D01*
X194223885Y-100817580D01*
X194312091Y-100674577D01*
X194312093Y-100674572D01*
X194364942Y-100515083D01*
X194374999Y-100416650D01*
X194375000Y-100416637D01*
X194375000Y-100400000D01*
X193650000Y-100400000D01*
X193650000Y-101087499D01*
X193095855Y-101087499D01*
X193149999Y-101087498D01*
X193150000Y-101087498D01*
X193150000Y-100400000D01*
X192425001Y-100400000D01*
X192425001Y-100416652D01*
X189560280Y-100416652D01*
X189564942Y-100402583D01*
X189571742Y-100336035D01*
X189571742Y-100336034D01*
X189574999Y-100304152D01*
X189575000Y-100304137D01*
X189575000Y-100287500D01*
X188850000Y-100287500D01*
X188850000Y-100974999D01*
X188295855Y-100974999D01*
X188349999Y-100974998D01*
X188350000Y-100974998D01*
X188350000Y-100287500D01*
X187625001Y-100287500D01*
X187625001Y-100304152D01*
X184560808Y-100304152D01*
X184565436Y-100290185D01*
X184575500Y-100191674D01*
X184575500Y-99658326D01*
X184565436Y-99559815D01*
X184512549Y-99400213D01*
X184512545Y-99400207D01*
X184512544Y-99400204D01*
X184424283Y-99257112D01*
X184424280Y-99257108D01*
X184392353Y-99225181D01*
X184358868Y-99163858D01*
X184363852Y-99094166D01*
X184392353Y-99049819D01*
X184394008Y-99048164D01*
X184424281Y-99017891D01*
X184512549Y-98874787D01*
X184565436Y-98715185D01*
X184575500Y-98616674D01*
X184575500Y-98083326D01*
X184575500Y-98083319D01*
X184575415Y-98081651D01*
X184575500Y-98081295D01*
X184575500Y-98080169D01*
X184575769Y-98080169D01*
X184591662Y-98013697D01*
X184611569Y-97987664D01*
X185014662Y-97584572D01*
X185075983Y-97551089D01*
X185078150Y-97550638D01*
X185136085Y-97539113D01*
X185233497Y-97519737D01*
X185379179Y-97459394D01*
X185510289Y-97371789D01*
X185621789Y-97260289D01*
X185709394Y-97129179D01*
X185769737Y-96983497D01*
X185800500Y-96828842D01*
X185800500Y-96671158D01*
X185800500Y-96671155D01*
X185800499Y-96671153D01*
X185769738Y-96516510D01*
X185769738Y-96516508D01*
X185769737Y-96516503D01*
X185747937Y-96463872D01*
X185709397Y-96370827D01*
X185709390Y-96370814D01*
X185621789Y-96239711D01*
X185621786Y-96239707D01*
X185510292Y-96128213D01*
X185510288Y-96128210D01*
X185379185Y-96040609D01*
X185379172Y-96040602D01*
X185233501Y-95980264D01*
X185233489Y-95980261D01*
X185078845Y-95949500D01*
X185078842Y-95949500D01*
X184921158Y-95949500D01*
X184921155Y-95949500D01*
X184766510Y-95980261D01*
X184766498Y-95980264D01*
X184620827Y-96040602D01*
X184620814Y-96040609D01*
X184489711Y-96128210D01*
X184489707Y-96128213D01*
X184378213Y-96239707D01*
X184378210Y-96239711D01*
X184290609Y-96370814D01*
X184290602Y-96370827D01*
X184230264Y-96516498D01*
X184230261Y-96516508D01*
X184199361Y-96671850D01*
X184166976Y-96733761D01*
X184165425Y-96735339D01*
X183637181Y-97263584D01*
X183575858Y-97297069D01*
X183506167Y-97292085D01*
X183450233Y-97250214D01*
X183425816Y-97184749D01*
X183425500Y-97175903D01*
X183425500Y-95125097D01*
X183434144Y-95095656D01*
X183440668Y-95065670D01*
X183444422Y-95060654D01*
X183445185Y-95058058D01*
X183461819Y-95037416D01*
X183612416Y-94886819D01*
X183673739Y-94853334D01*
X183700097Y-94850500D01*
X184031613Y-94850500D01*
X184031616Y-94850500D01*
X184102196Y-94844086D01*
X184264606Y-94793478D01*
X184410185Y-94705472D01*
X184530472Y-94585185D01*
X184618478Y-94439606D01*
X184669086Y-94277196D01*
X184675500Y-94206616D01*
X184675500Y-93693384D01*
X184669086Y-93622804D01*
X184618478Y-93460394D01*
X184530472Y-93314815D01*
X184530470Y-93314813D01*
X184530469Y-93314811D01*
X184428339Y-93212681D01*
X184394854Y-93151358D01*
X184399838Y-93081666D01*
X184428339Y-93037319D01*
X184530468Y-92935189D01*
X184530469Y-92935188D01*
X184530472Y-92935185D01*
X184618478Y-92789606D01*
X184669086Y-92627196D01*
X184675500Y-92556616D01*
X184675500Y-92043384D01*
X184669086Y-91972804D01*
X184618478Y-91810394D01*
X184530472Y-91664815D01*
X184530470Y-91664813D01*
X184530469Y-91664811D01*
X184410188Y-91544530D01*
X184410185Y-91544528D01*
X184304462Y-91480615D01*
X184257275Y-91429089D01*
X184245437Y-91360229D01*
X184272706Y-91295901D01*
X184330425Y-91256527D01*
X184368613Y-91250500D01*
X184478844Y-91250500D01*
X184478845Y-91250499D01*
X184633497Y-91219737D01*
X184779179Y-91159394D01*
X184793683Y-91149703D01*
X184910875Y-91071398D01*
X184977553Y-91050520D01*
X184979766Y-91050500D01*
X188072742Y-91050500D01*
X188139781Y-91070185D01*
X188185536Y-91122989D01*
X188195480Y-91192147D01*
X188166455Y-91255703D01*
X188136892Y-91280617D01*
X188135395Y-91281521D01*
X188135394Y-91281522D01*
X188095047Y-91305913D01*
X187989811Y-91369530D01*
X187989810Y-91369531D01*
X187871161Y-91488181D01*
X187809838Y-91521666D01*
X187783480Y-91524500D01*
X186757941Y-91524500D01*
X186690902Y-91504815D01*
X186670260Y-91488181D01*
X186660292Y-91478213D01*
X186660288Y-91478210D01*
X186529185Y-91390609D01*
X186529172Y-91390602D01*
X186383501Y-91330264D01*
X186383489Y-91330261D01*
X186228845Y-91299500D01*
X186228842Y-91299500D01*
X186071158Y-91299500D01*
X186071155Y-91299500D01*
X185916510Y-91330261D01*
X185916498Y-91330264D01*
X185770827Y-91390602D01*
X185770814Y-91390609D01*
X185639711Y-91478210D01*
X185639707Y-91478213D01*
X185528213Y-91589707D01*
X185528210Y-91589711D01*
X185440609Y-91720814D01*
X185440602Y-91720827D01*
X185380264Y-91866498D01*
X185380261Y-91866510D01*
X185349500Y-92021153D01*
X185349500Y-92178846D01*
X185380261Y-92333489D01*
X185380264Y-92333501D01*
X185440602Y-92479172D01*
X185440609Y-92479185D01*
X185528210Y-92610288D01*
X185528213Y-92610292D01*
X185639707Y-92721786D01*
X185639711Y-92721789D01*
X185770814Y-92809390D01*
X185770827Y-92809397D01*
X185891827Y-92859516D01*
X185916503Y-92869737D01*
X186071153Y-92900499D01*
X186071156Y-92900500D01*
X186071158Y-92900500D01*
X186228844Y-92900500D01*
X186228845Y-92900499D01*
X186383497Y-92869737D01*
X186529179Y-92809394D01*
X186623459Y-92746398D01*
X186690136Y-92725520D01*
X186692350Y-92725500D01*
X187783480Y-92725500D01*
X187812920Y-92734144D01*
X187842907Y-92740668D01*
X187847922Y-92744422D01*
X187850519Y-92745185D01*
X187871161Y-92761819D01*
X187971661Y-92862319D01*
X188005146Y-92923642D01*
X188000162Y-92993334D01*
X187971661Y-93037681D01*
X187869531Y-93139810D01*
X187869530Y-93139811D01*
X187781522Y-93285393D01*
X187730913Y-93447807D01*
X187724500Y-93518386D01*
X187724500Y-94031613D01*
X187730913Y-94102192D01*
X187730913Y-94102194D01*
X187730914Y-94102196D01*
X187781522Y-94264606D01*
X187869528Y-94410185D01*
X187963182Y-94503839D01*
X187996666Y-94565160D01*
X187999500Y-94591519D01*
X187999500Y-97541814D01*
X187979815Y-97608853D01*
X187940598Y-97647352D01*
X187894609Y-97675718D01*
X187775719Y-97794608D01*
X187775716Y-97794612D01*
X187687455Y-97937704D01*
X187687450Y-97937715D01*
X187677857Y-97966666D01*
X187634564Y-98097315D01*
X187634564Y-98097316D01*
X187634563Y-98097316D01*
X187624500Y-98195818D01*
X187624500Y-98729181D01*
X187634563Y-98827683D01*
X187687450Y-98987284D01*
X187687455Y-98987295D01*
X187775716Y-99130387D01*
X187775719Y-99130392D01*
X187808000Y-99162673D01*
X187841485Y-99223997D01*
X187836499Y-99293688D01*
X187808000Y-99338033D01*
X187776114Y-99369919D01*
X187687908Y-99512922D01*
X187687906Y-99512927D01*
X187635057Y-99672416D01*
X187625000Y-99770849D01*
X187625000Y-99787500D01*
X189574999Y-99787500D01*
X189574999Y-99770864D01*
X189574998Y-99770847D01*
X189564943Y-99672416D01*
X189512093Y-99512927D01*
X189512091Y-99512922D01*
X189423885Y-99369919D01*
X189392000Y-99338034D01*
X189358515Y-99276711D01*
X189363499Y-99207019D01*
X189392000Y-99162672D01*
X189424281Y-99130391D01*
X189512549Y-98987287D01*
X189565436Y-98827685D01*
X189575500Y-98729174D01*
X189575500Y-98195826D01*
X189565436Y-98097315D01*
X189512549Y-97937713D01*
X189512545Y-97937707D01*
X189512544Y-97937704D01*
X189424283Y-97794612D01*
X189424280Y-97794608D01*
X189305390Y-97675718D01*
X189259402Y-97647352D01*
X189212678Y-97595403D01*
X189200500Y-97541814D01*
X189200500Y-94727167D01*
X189220185Y-94660128D01*
X189260350Y-94621050D01*
X189264603Y-94618478D01*
X189264606Y-94618478D01*
X189410185Y-94530472D01*
X189530472Y-94410185D01*
X189618478Y-94264606D01*
X189669086Y-94102196D01*
X189675500Y-94031616D01*
X189675500Y-93518384D01*
X189669086Y-93447804D01*
X189618478Y-93285394D01*
X189530472Y-93139815D01*
X189530470Y-93139813D01*
X189530469Y-93139811D01*
X189428339Y-93037681D01*
X189394854Y-92976358D01*
X189399838Y-92906666D01*
X189428339Y-92862319D01*
X189530468Y-92760189D01*
X189530469Y-92760188D01*
X189530472Y-92760185D01*
X189618478Y-92614606D01*
X189669086Y-92452196D01*
X189675500Y-92381616D01*
X189675500Y-91868384D01*
X189669086Y-91797804D01*
X189618478Y-91635394D01*
X189530472Y-91489815D01*
X189530470Y-91489813D01*
X189530469Y-91489811D01*
X189410188Y-91369530D01*
X189410185Y-91369528D01*
X189264606Y-91281522D01*
X189102196Y-91230914D01*
X189093027Y-91230080D01*
X189028046Y-91204408D01*
X189004136Y-91171153D01*
X191449500Y-91171153D01*
X191449500Y-91328846D01*
X191480261Y-91483489D01*
X191480264Y-91483501D01*
X191540602Y-91629172D01*
X191540609Y-91629185D01*
X191628210Y-91760288D01*
X191628213Y-91760292D01*
X191739707Y-91871786D01*
X191739711Y-91871789D01*
X191870814Y-91959390D01*
X191870827Y-91959397D01*
X192016498Y-92019735D01*
X192016503Y-92019737D01*
X192171158Y-92050500D01*
X192171163Y-92050500D01*
X192177218Y-92051097D01*
X192176989Y-92053415D01*
X192234099Y-92070185D01*
X192254741Y-92086819D01*
X192488181Y-92320259D01*
X192521666Y-92381582D01*
X192524500Y-92407940D01*
X192524500Y-92456613D01*
X192530913Y-92527192D01*
X192530913Y-92527194D01*
X192530914Y-92527196D01*
X192581522Y-92689606D01*
X192648128Y-92799786D01*
X192669530Y-92835188D01*
X192771661Y-92937319D01*
X192805146Y-92998642D01*
X192800162Y-93068334D01*
X192771661Y-93112681D01*
X192669531Y-93214810D01*
X192669530Y-93214811D01*
X192581522Y-93360393D01*
X192530913Y-93522807D01*
X192524500Y-93593386D01*
X192524500Y-94106613D01*
X192530913Y-94177192D01*
X192530913Y-94177194D01*
X192530914Y-94177196D01*
X192581522Y-94339606D01*
X192664122Y-94476243D01*
X192669530Y-94485188D01*
X192789811Y-94605469D01*
X192789813Y-94605470D01*
X192789815Y-94605472D01*
X192839650Y-94635598D01*
X192886838Y-94687126D01*
X192899500Y-94741715D01*
X192899500Y-97592633D01*
X192879815Y-97659672D01*
X192840597Y-97698171D01*
X192694612Y-97788216D01*
X192694608Y-97788219D01*
X192575719Y-97907108D01*
X192575716Y-97907112D01*
X192487455Y-98050204D01*
X192487450Y-98050215D01*
X192466827Y-98112452D01*
X192434564Y-98209815D01*
X192434564Y-98209816D01*
X192434563Y-98209816D01*
X192424500Y-98308318D01*
X192424500Y-98841681D01*
X192434563Y-98940183D01*
X192487450Y-99099784D01*
X192487455Y-99099795D01*
X192575716Y-99242887D01*
X192575719Y-99242892D01*
X192608000Y-99275173D01*
X192641485Y-99336497D01*
X192636499Y-99406188D01*
X192608000Y-99450533D01*
X192576114Y-99482419D01*
X192487908Y-99625422D01*
X192487906Y-99625427D01*
X192435057Y-99784916D01*
X192425000Y-99883349D01*
X192425000Y-99900000D01*
X194374999Y-99900000D01*
X194374999Y-99883364D01*
X194374998Y-99883347D01*
X194364943Y-99784916D01*
X194312093Y-99625427D01*
X194312091Y-99625422D01*
X194223885Y-99482419D01*
X194192000Y-99450534D01*
X194158515Y-99389211D01*
X194163499Y-99319519D01*
X194192000Y-99275172D01*
X194224281Y-99242891D01*
X194312549Y-99099787D01*
X194365436Y-98940185D01*
X194375500Y-98841674D01*
X194375500Y-98308326D01*
X194365436Y-98209815D01*
X194312549Y-98050213D01*
X194312545Y-98050207D01*
X194312544Y-98050204D01*
X194224283Y-97907112D01*
X194224280Y-97907108D01*
X194136819Y-97819647D01*
X194103334Y-97758324D01*
X194100500Y-97731966D01*
X194100500Y-94741715D01*
X194120185Y-94674676D01*
X194160349Y-94635598D01*
X194210185Y-94605472D01*
X194330472Y-94485185D01*
X194418478Y-94339606D01*
X194469086Y-94177196D01*
X194475500Y-94106616D01*
X194475500Y-93593384D01*
X194469086Y-93522804D01*
X194418478Y-93360394D01*
X194330472Y-93214815D01*
X194330470Y-93214813D01*
X194330469Y-93214811D01*
X194228339Y-93112681D01*
X194194854Y-93051358D01*
X194199838Y-92981666D01*
X194228339Y-92937319D01*
X194330468Y-92835189D01*
X194330469Y-92835188D01*
X194330472Y-92835185D01*
X194418478Y-92689606D01*
X194469086Y-92527196D01*
X194475500Y-92456616D01*
X194475500Y-91943384D01*
X194469086Y-91872804D01*
X194418478Y-91710394D01*
X194330472Y-91564815D01*
X194330470Y-91564813D01*
X194330469Y-91564811D01*
X194210188Y-91444530D01*
X194138538Y-91401216D01*
X194064606Y-91356522D01*
X193902196Y-91305914D01*
X193902194Y-91305913D01*
X193902192Y-91305913D01*
X193852778Y-91301423D01*
X193831616Y-91299500D01*
X193831613Y-91299500D01*
X193782940Y-91299500D01*
X193715901Y-91279815D01*
X193695259Y-91263181D01*
X193060292Y-90628213D01*
X193060288Y-90628210D01*
X192929185Y-90540609D01*
X192929172Y-90540602D01*
X192783501Y-90480264D01*
X192783489Y-90480261D01*
X192628845Y-90449500D01*
X192628842Y-90449500D01*
X192328842Y-90449500D01*
X192171158Y-90449500D01*
X192171155Y-90449500D01*
X192016510Y-90480261D01*
X192016498Y-90480264D01*
X191870827Y-90540602D01*
X191870814Y-90540609D01*
X191739711Y-90628210D01*
X191739707Y-90628213D01*
X191628213Y-90739707D01*
X191628210Y-90739711D01*
X191540609Y-90870814D01*
X191540602Y-90870827D01*
X191480264Y-91016498D01*
X191480261Y-91016510D01*
X191449500Y-91171153D01*
X189004136Y-91171153D01*
X188987259Y-91147679D01*
X188983617Y-91077905D01*
X189018276Y-91017237D01*
X189042254Y-90999203D01*
X189079065Y-90977950D01*
X189079076Y-90977942D01*
X189079088Y-90977936D01*
X189161216Y-90930520D01*
X189273020Y-90818716D01*
X189273020Y-90818714D01*
X189283224Y-90808511D01*
X189283228Y-90808506D01*
X193004501Y-87087232D01*
X193065822Y-87053749D01*
X193135514Y-87058733D01*
X193191447Y-87100605D01*
X193213797Y-87150723D01*
X193230261Y-87233491D01*
X193230264Y-87233501D01*
X193290602Y-87379172D01*
X193290609Y-87379185D01*
X193378210Y-87510288D01*
X193378213Y-87510292D01*
X193489707Y-87621786D01*
X193489711Y-87621789D01*
X193620814Y-87709390D01*
X193620827Y-87709397D01*
X193765443Y-87769298D01*
X193766503Y-87769737D01*
X193921153Y-87800499D01*
X193921156Y-87800500D01*
X193921158Y-87800500D01*
X194078844Y-87800500D01*
X194078845Y-87800499D01*
X194233497Y-87769737D01*
X194379179Y-87709394D01*
X194510289Y-87621789D01*
X194621789Y-87510289D01*
X194709394Y-87379179D01*
X194769737Y-87233497D01*
X194793869Y-87112180D01*
X194801689Y-87072868D01*
X194802673Y-87073063D01*
X194803593Y-87070197D01*
X194803259Y-87063167D01*
X194816373Y-87030408D01*
X194864940Y-86946287D01*
X194869446Y-86938481D01*
X194920007Y-86890263D01*
X194988613Y-86877033D01*
X195020173Y-86884292D01*
X195045121Y-86893597D01*
X195104655Y-86899999D01*
X195104672Y-86900000D01*
X195352500Y-86900000D01*
X195852500Y-86900000D01*
X196100328Y-86900000D01*
X196100344Y-86899999D01*
X196159872Y-86893598D01*
X196159879Y-86893596D01*
X196294586Y-86843354D01*
X196294593Y-86843350D01*
X196409687Y-86757190D01*
X196409690Y-86757187D01*
X196495850Y-86642093D01*
X196495854Y-86642086D01*
X196546096Y-86507379D01*
X196546098Y-86507372D01*
X196552499Y-86447844D01*
X196552500Y-86447827D01*
X196552500Y-85900000D01*
X195852500Y-85900000D01*
X195852500Y-86900000D01*
X195352500Y-86900000D01*
X195352500Y-85400000D01*
X195852500Y-85400000D01*
X196552500Y-85400000D01*
X196552500Y-84852172D01*
X196552499Y-84852155D01*
X196546098Y-84792627D01*
X196546096Y-84792620D01*
X196495854Y-84657913D01*
X196495850Y-84657906D01*
X196409690Y-84542812D01*
X196409687Y-84542809D01*
X196294593Y-84456649D01*
X196294586Y-84456645D01*
X196159879Y-84406403D01*
X196159872Y-84406401D01*
X196100344Y-84400000D01*
X195852500Y-84400000D01*
X195852500Y-85400000D01*
X195352500Y-85400000D01*
X195352500Y-84400000D01*
X195104655Y-84400000D01*
X195045127Y-84406401D01*
X195045119Y-84406403D01*
X195011547Y-84418925D01*
X194941855Y-84423909D01*
X194924881Y-84418925D01*
X194889982Y-84405908D01*
X194889983Y-84405908D01*
X194830383Y-84399501D01*
X194830381Y-84399500D01*
X194830373Y-84399500D01*
X194830364Y-84399500D01*
X193834629Y-84399500D01*
X193834623Y-84399501D01*
X193775018Y-84405908D01*
X193740831Y-84418659D01*
X193671139Y-84423642D01*
X193654169Y-84418659D01*
X193636640Y-84412121D01*
X193619983Y-84405909D01*
X193619982Y-84405908D01*
X193560383Y-84399501D01*
X193560381Y-84399500D01*
X193560373Y-84399500D01*
X193560364Y-84399500D01*
X192564629Y-84399500D01*
X192564623Y-84399501D01*
X192505018Y-84405908D01*
X192470831Y-84418659D01*
X192449183Y-84420206D01*
X192428404Y-84426473D01*
X192409139Y-84423069D01*
X192401139Y-84423642D01*
X192393434Y-84421705D01*
X192388738Y-84420363D01*
X192349983Y-84405909D01*
X192331009Y-84403869D01*
X192320779Y-84400946D01*
X192299879Y-84387728D01*
X192277036Y-84378266D01*
X192267164Y-84369398D01*
X192156897Y-84259131D01*
X192156874Y-84259110D01*
X191136119Y-83238355D01*
X191136117Y-83238352D01*
X191017246Y-83119481D01*
X191017245Y-83119480D01*
X190930433Y-83069360D01*
X190930433Y-83069359D01*
X190930429Y-83069358D01*
X190880314Y-83040423D01*
X190727586Y-82999499D01*
X190569472Y-82999499D01*
X190561876Y-82999499D01*
X190561860Y-82999500D01*
X189527341Y-82999500D01*
X189460302Y-82979815D01*
X189458450Y-82978602D01*
X189338498Y-82898452D01*
X189338485Y-82898445D01*
X189192814Y-82838107D01*
X189192802Y-82838104D01*
X189038158Y-82807343D01*
X189038155Y-82807343D01*
X188880471Y-82807343D01*
X188880468Y-82807343D01*
X188725823Y-82838104D01*
X188725811Y-82838107D01*
X188580140Y-82898445D01*
X188580127Y-82898452D01*
X188449024Y-82986053D01*
X188449020Y-82986056D01*
X188337526Y-83097550D01*
X188337523Y-83097554D01*
X188249922Y-83228657D01*
X188249915Y-83228670D01*
X188189577Y-83374341D01*
X188189574Y-83374353D01*
X188158813Y-83528996D01*
X188158813Y-83686689D01*
X188189574Y-83841332D01*
X188189577Y-83841344D01*
X188249915Y-83987015D01*
X188249922Y-83987028D01*
X188337523Y-84118131D01*
X188337526Y-84118135D01*
X188407210Y-84187819D01*
X188440695Y-84249142D01*
X188435711Y-84318834D01*
X188393839Y-84374767D01*
X188328375Y-84399184D01*
X188319529Y-84399500D01*
X187484629Y-84399500D01*
X187484623Y-84399501D01*
X187425018Y-84405908D01*
X187390831Y-84418659D01*
X187364471Y-84420543D01*
X187338654Y-84426160D01*
X187325609Y-84423322D01*
X187321139Y-84423642D01*
X187304166Y-84418658D01*
X187268572Y-84405382D01*
X187212639Y-84363510D01*
X187204519Y-84351200D01*
X187193022Y-84331287D01*
X187193021Y-84331286D01*
X187193020Y-84331284D01*
X187081216Y-84219480D01*
X187081215Y-84219479D01*
X187076885Y-84215149D01*
X187076874Y-84215139D01*
X186750090Y-83888355D01*
X186750088Y-83888352D01*
X186631217Y-83769481D01*
X186631216Y-83769480D01*
X186540284Y-83716981D01*
X186540283Y-83716980D01*
X186494283Y-83690422D01*
X186438381Y-83675443D01*
X186341557Y-83649499D01*
X186183443Y-83649499D01*
X186175847Y-83649499D01*
X186175831Y-83649500D01*
X184829766Y-83649500D01*
X184762727Y-83629815D01*
X184760875Y-83628602D01*
X184629185Y-83540609D01*
X184629172Y-83540602D01*
X184483501Y-83480264D01*
X184483489Y-83480261D01*
X184328845Y-83449500D01*
X184328842Y-83449500D01*
X184171158Y-83449500D01*
X184143698Y-83454962D01*
X184074106Y-83448733D01*
X184018929Y-83405870D01*
X184004947Y-83380796D01*
X183959397Y-83270827D01*
X183959390Y-83270814D01*
X183871789Y-83139711D01*
X183871786Y-83139707D01*
X183760292Y-83028213D01*
X183760288Y-83028210D01*
X183629185Y-82940609D01*
X183629172Y-82940602D01*
X183483501Y-82880264D01*
X183483491Y-82880261D01*
X183334403Y-82850605D01*
X183272492Y-82818220D01*
X183237918Y-82757504D01*
X183236978Y-82753179D01*
X183219737Y-82666503D01*
X183219735Y-82666498D01*
X183159397Y-82520827D01*
X183159390Y-82520814D01*
X183071789Y-82389711D01*
X183071786Y-82389707D01*
X182960292Y-82278213D01*
X182960288Y-82278210D01*
X182829185Y-82190609D01*
X182829172Y-82190602D01*
X182683501Y-82130264D01*
X182683489Y-82130261D01*
X182528845Y-82099500D01*
X182528842Y-82099500D01*
X182371158Y-82099500D01*
X182371155Y-82099500D01*
X182216510Y-82130261D01*
X182216498Y-82130264D01*
X182070827Y-82190602D01*
X182070814Y-82190609D01*
X181939125Y-82278602D01*
X181872447Y-82299480D01*
X181870234Y-82299500D01*
X180813440Y-82299500D01*
X180772519Y-82310464D01*
X180772519Y-82310465D01*
X180735251Y-82320451D01*
X180660714Y-82340423D01*
X180660709Y-82340426D01*
X180523790Y-82419475D01*
X180523782Y-82419481D01*
X178611982Y-84331281D01*
X178611980Y-84331284D01*
X178600478Y-84351205D01*
X178549908Y-84399418D01*
X178536427Y-84405382D01*
X178400169Y-84456203D01*
X178400164Y-84456206D01*
X178284955Y-84542452D01*
X178284952Y-84542455D01*
X178198706Y-84657664D01*
X178198702Y-84657671D01*
X178148408Y-84792517D01*
X178142001Y-84852116D01*
X178142000Y-84852135D01*
X178142000Y-84925500D01*
X178122315Y-84992539D01*
X178069511Y-85038294D01*
X178018000Y-85049500D01*
X177127350Y-85049500D01*
X177060311Y-85029815D01*
X177014556Y-84977011D01*
X177004612Y-84907853D01*
X177024248Y-84856609D01*
X177109390Y-84729185D01*
X177109390Y-84729184D01*
X177109394Y-84729179D01*
X177169737Y-84583497D01*
X177200500Y-84428842D01*
X177200500Y-84271158D01*
X177200500Y-84271155D01*
X177200499Y-84271153D01*
X177191475Y-84225788D01*
X177169737Y-84116503D01*
X177133569Y-84029185D01*
X177109397Y-83970827D01*
X177109390Y-83970814D01*
X177021398Y-83839125D01*
X177015747Y-83821078D01*
X177005523Y-83805169D01*
X177001071Y-83774207D01*
X177000520Y-83772447D01*
X177000500Y-83770234D01*
X177000500Y-83694499D01*
X177020185Y-83627460D01*
X177072989Y-83581705D01*
X177124495Y-83570499D01*
X178640372Y-83570499D01*
X178699983Y-83564091D01*
X178834831Y-83513796D01*
X178950046Y-83427546D01*
X179036296Y-83312331D01*
X179086591Y-83177483D01*
X179093000Y-83117873D01*
X179092999Y-82122128D01*
X179086591Y-82062517D01*
X179073840Y-82028332D01*
X179068857Y-81958642D01*
X179073840Y-81941669D01*
X179086591Y-81907483D01*
X179093000Y-81847873D01*
X179092999Y-80852128D01*
X179086591Y-80792517D01*
X179073840Y-80758332D01*
X179068857Y-80688642D01*
X179073840Y-80671669D01*
X179086591Y-80637483D01*
X179093000Y-80577873D01*
X179092999Y-79582128D01*
X179086591Y-79522517D01*
X179073840Y-79488332D01*
X179068857Y-79418642D01*
X179073840Y-79401669D01*
X179086591Y-79367483D01*
X179093000Y-79307873D01*
X179092999Y-78317844D01*
X185712500Y-78317844D01*
X185718901Y-78377372D01*
X185718903Y-78377379D01*
X185769145Y-78512086D01*
X185769149Y-78512093D01*
X185855309Y-78627187D01*
X185855312Y-78627190D01*
X185970406Y-78713350D01*
X185970413Y-78713354D01*
X186105120Y-78763596D01*
X186105127Y-78763598D01*
X186164655Y-78769999D01*
X186164672Y-78770000D01*
X186487500Y-78770000D01*
X186987500Y-78770000D01*
X187310328Y-78770000D01*
X187310344Y-78769999D01*
X187369877Y-78763597D01*
X187369879Y-78763597D01*
X187456665Y-78731227D01*
X187526357Y-78726241D01*
X187543335Y-78731227D01*
X187630121Y-78763597D01*
X187689655Y-78769999D01*
X187689672Y-78770000D01*
X188012500Y-78770000D01*
X188512500Y-78770000D01*
X188835328Y-78770000D01*
X188835344Y-78769999D01*
X188894877Y-78763597D01*
X188894879Y-78763597D01*
X188981665Y-78731227D01*
X189051357Y-78726241D01*
X189068335Y-78731227D01*
X189155121Y-78763597D01*
X189214655Y-78769999D01*
X189214672Y-78770000D01*
X189537500Y-78770000D01*
X190037500Y-78770000D01*
X190360328Y-78770000D01*
X190360344Y-78769999D01*
X190419872Y-78763598D01*
X190419879Y-78763596D01*
X190554586Y-78713354D01*
X190554593Y-78713350D01*
X190669687Y-78627190D01*
X190669690Y-78627187D01*
X190755850Y-78512093D01*
X190755854Y-78512086D01*
X190806096Y-78377379D01*
X190806098Y-78377372D01*
X190812499Y-78317844D01*
X190812500Y-78317827D01*
X190812500Y-77995000D01*
X190037500Y-77995000D01*
X190037500Y-78770000D01*
X189537500Y-78770000D01*
X189537500Y-77995000D01*
X188512500Y-77995000D01*
X188512500Y-78770000D01*
X188012500Y-78770000D01*
X188012500Y-77995000D01*
X186987500Y-77995000D01*
X186987500Y-78770000D01*
X186487500Y-78770000D01*
X186487500Y-77995000D01*
X185712500Y-77995000D01*
X185712500Y-78317844D01*
X179092999Y-78317844D01*
X179092999Y-78312128D01*
X179086591Y-78252517D01*
X179073840Y-78218331D01*
X179066857Y-78160639D01*
X179068595Y-78145732D01*
X179086591Y-78097483D01*
X179093000Y-78037873D01*
X179092999Y-77042128D01*
X179086591Y-76982517D01*
X179073840Y-76948332D01*
X179068857Y-76878642D01*
X179073838Y-76861672D01*
X179086591Y-76827483D01*
X179090315Y-76792844D01*
X185712500Y-76792844D01*
X185718901Y-76852372D01*
X185718903Y-76852383D01*
X185751272Y-76939168D01*
X185756256Y-77008859D01*
X185751272Y-77025832D01*
X185718903Y-77112616D01*
X185718901Y-77112627D01*
X185712500Y-77172155D01*
X185712500Y-77495000D01*
X186487500Y-77495000D01*
X186987500Y-77495000D01*
X188012500Y-77495000D01*
X188512500Y-77495000D01*
X189537500Y-77495000D01*
X190037500Y-77495000D01*
X190812500Y-77495000D01*
X190812500Y-77172172D01*
X190812499Y-77172155D01*
X190806097Y-77112622D01*
X190806097Y-77112620D01*
X190773727Y-77025835D01*
X190768741Y-76956143D01*
X190773727Y-76939165D01*
X190806097Y-76852379D01*
X190806097Y-76852377D01*
X190812499Y-76792844D01*
X190812500Y-76792827D01*
X190812500Y-76470000D01*
X190037500Y-76470000D01*
X190037500Y-77495000D01*
X189537500Y-77495000D01*
X189537500Y-76470000D01*
X188512500Y-76470000D01*
X188512500Y-77495000D01*
X188012500Y-77495000D01*
X188012500Y-76470000D01*
X186987500Y-76470000D01*
X186987500Y-77495000D01*
X186487500Y-77495000D01*
X186487500Y-76470000D01*
X185712500Y-76470000D01*
X185712500Y-76792844D01*
X179090315Y-76792844D01*
X179093000Y-76767873D01*
X179092999Y-76233501D01*
X179092999Y-75772129D01*
X179092998Y-75772123D01*
X179092393Y-75766498D01*
X179086591Y-75712517D01*
X179073840Y-75678332D01*
X179068857Y-75608642D01*
X179073838Y-75591672D01*
X179086591Y-75557483D01*
X179093000Y-75497873D01*
X179093000Y-75267844D01*
X185712500Y-75267844D01*
X185718901Y-75327372D01*
X185718903Y-75327383D01*
X185751272Y-75414168D01*
X185756256Y-75483859D01*
X185751272Y-75500832D01*
X185718903Y-75587616D01*
X185718901Y-75587627D01*
X185712500Y-75647155D01*
X185712500Y-75970000D01*
X186487500Y-75970000D01*
X186987500Y-75970000D01*
X188012500Y-75970000D01*
X188512500Y-75970000D01*
X189537500Y-75970000D01*
X190037500Y-75970000D01*
X190812500Y-75970000D01*
X190812500Y-75647172D01*
X190812499Y-75647155D01*
X190806097Y-75587622D01*
X190806097Y-75587620D01*
X190773727Y-75500835D01*
X190768741Y-75431143D01*
X190773727Y-75414165D01*
X190806097Y-75327379D01*
X190806097Y-75327377D01*
X190812499Y-75267844D01*
X190812500Y-75267827D01*
X190812500Y-74945000D01*
X190037500Y-74945000D01*
X190037500Y-75970000D01*
X189537500Y-75970000D01*
X189537500Y-74945000D01*
X188512500Y-74945000D01*
X188512500Y-75970000D01*
X188012500Y-75970000D01*
X188012500Y-74945000D01*
X186987500Y-74945000D01*
X186987500Y-75970000D01*
X186487500Y-75970000D01*
X186487500Y-74945000D01*
X185712500Y-74945000D01*
X185712500Y-75267844D01*
X179093000Y-75267844D01*
X179092999Y-74502128D01*
X179086591Y-74442517D01*
X179073840Y-74408331D01*
X179066761Y-74351491D01*
X179068443Y-74336139D01*
X179086591Y-74287483D01*
X179093000Y-74227873D01*
X179093000Y-74122155D01*
X185712500Y-74122155D01*
X185712500Y-74445000D01*
X186487500Y-74445000D01*
X186987500Y-74445000D01*
X188012500Y-74445000D01*
X188512500Y-74445000D01*
X189537500Y-74445000D01*
X190037500Y-74445000D01*
X190812500Y-74445000D01*
X190812500Y-74122172D01*
X190812499Y-74122155D01*
X190806098Y-74062627D01*
X190806096Y-74062620D01*
X190755854Y-73927913D01*
X190755850Y-73927906D01*
X190669690Y-73812812D01*
X190669687Y-73812809D01*
X190554593Y-73726649D01*
X190554586Y-73726645D01*
X190419879Y-73676403D01*
X190419872Y-73676401D01*
X190360344Y-73670000D01*
X190037500Y-73670000D01*
X190037500Y-74445000D01*
X189537500Y-74445000D01*
X189537500Y-73670000D01*
X189214655Y-73670000D01*
X189155127Y-73676401D01*
X189155116Y-73676403D01*
X189068332Y-73708772D01*
X188998641Y-73713756D01*
X188981668Y-73708772D01*
X188894883Y-73676403D01*
X188894872Y-73676401D01*
X188835344Y-73670000D01*
X188512500Y-73670000D01*
X188512500Y-74445000D01*
X188012500Y-74445000D01*
X188012500Y-73670000D01*
X187689655Y-73670000D01*
X187630127Y-73676401D01*
X187630116Y-73676403D01*
X187543332Y-73708772D01*
X187473641Y-73713756D01*
X187456668Y-73708772D01*
X187369883Y-73676403D01*
X187369872Y-73676401D01*
X187310344Y-73670000D01*
X186987500Y-73670000D01*
X186987500Y-74445000D01*
X186487500Y-74445000D01*
X186487500Y-73670000D01*
X186164655Y-73670000D01*
X186105127Y-73676401D01*
X186105120Y-73676403D01*
X185970413Y-73726645D01*
X185970406Y-73726649D01*
X185855312Y-73812809D01*
X185855309Y-73812812D01*
X185769149Y-73927906D01*
X185769145Y-73927913D01*
X185718903Y-74062620D01*
X185718901Y-74062627D01*
X185712500Y-74122155D01*
X179093000Y-74122155D01*
X179092999Y-73232128D01*
X179086591Y-73172517D01*
X179073840Y-73138332D01*
X179068857Y-73068642D01*
X179073840Y-73051669D01*
X179086591Y-73017483D01*
X179093000Y-72957873D01*
X179092999Y-71962128D01*
X179086591Y-71902517D01*
X179073573Y-71867616D01*
X179068590Y-71797926D01*
X179073575Y-71780949D01*
X179086097Y-71747375D01*
X179086098Y-71747372D01*
X179092499Y-71687844D01*
X179092500Y-71687827D01*
X179092500Y-71440000D01*
X176592500Y-71440000D01*
X176592500Y-71687844D01*
X176598901Y-71747372D01*
X176598903Y-71747379D01*
X176611425Y-71780952D01*
X176616409Y-71850643D01*
X176611425Y-71867617D01*
X176598409Y-71902514D01*
X176598408Y-71902516D01*
X176592001Y-71962116D01*
X176592001Y-71962123D01*
X176592000Y-71962135D01*
X176592000Y-72957870D01*
X176592001Y-72957876D01*
X176598408Y-73017481D01*
X176611159Y-73051669D01*
X176616142Y-73121361D01*
X176611159Y-73138331D01*
X176598408Y-73172518D01*
X176592001Y-73232116D01*
X176592001Y-73232123D01*
X176592000Y-73232135D01*
X176592000Y-74227870D01*
X176592001Y-74227876D01*
X176598408Y-74287481D01*
X176611159Y-74321669D01*
X176616142Y-74391361D01*
X176611159Y-74408331D01*
X176598408Y-74442518D01*
X176592001Y-74502116D01*
X176592001Y-74502123D01*
X176592000Y-74502135D01*
X176592000Y-75343403D01*
X176572315Y-75410442D01*
X176519511Y-75456197D01*
X176450353Y-75466141D01*
X176386797Y-75437116D01*
X176380319Y-75431084D01*
X171787590Y-70838355D01*
X171780521Y-70831286D01*
X171780520Y-70831284D01*
X171668716Y-70719480D01*
X171621387Y-70692155D01*
X176592500Y-70692155D01*
X176592500Y-70940000D01*
X177592500Y-70940000D01*
X178092500Y-70940000D01*
X179092500Y-70940000D01*
X179092500Y-70692172D01*
X179092499Y-70692155D01*
X179086098Y-70632627D01*
X179086096Y-70632620D01*
X179035854Y-70497913D01*
X179035850Y-70497906D01*
X178949690Y-70382812D01*
X178949687Y-70382809D01*
X178834593Y-70296649D01*
X178834586Y-70296645D01*
X178699879Y-70246403D01*
X178699872Y-70246401D01*
X178640344Y-70240000D01*
X178092500Y-70240000D01*
X178092500Y-70940000D01*
X177592500Y-70940000D01*
X177592500Y-70240000D01*
X177044655Y-70240000D01*
X176985127Y-70246401D01*
X176985120Y-70246403D01*
X176850413Y-70296645D01*
X176850406Y-70296649D01*
X176735312Y-70382809D01*
X176735309Y-70382812D01*
X176649149Y-70497906D01*
X176649145Y-70497913D01*
X176598903Y-70632620D01*
X176598901Y-70632627D01*
X176592500Y-70692155D01*
X171621387Y-70692155D01*
X171581904Y-70669360D01*
X171581904Y-70669359D01*
X171581900Y-70669358D01*
X171531785Y-70640423D01*
X171379057Y-70599499D01*
X171220943Y-70599499D01*
X171213347Y-70599499D01*
X171213331Y-70599500D01*
X170350097Y-70599500D01*
X170283058Y-70579815D01*
X170262416Y-70563181D01*
X168674355Y-68975120D01*
X168640870Y-68913797D01*
X168645854Y-68844105D01*
X168687726Y-68788172D01*
X168718704Y-68771257D01*
X168792326Y-68743798D01*
X168792326Y-68743797D01*
X168792331Y-68743796D01*
X168907546Y-68657546D01*
X168993796Y-68542331D01*
X169044091Y-68407483D01*
X169050500Y-68347873D01*
X169050499Y-68316977D01*
X169070182Y-68249940D01*
X169122984Y-68204183D01*
X169150135Y-68196736D01*
X169149932Y-68195876D01*
X169157479Y-68194092D01*
X169157481Y-68194091D01*
X169157483Y-68194091D01*
X169292331Y-68143796D01*
X169407546Y-68057546D01*
X169493796Y-67942331D01*
X169544091Y-67807483D01*
X169544091Y-67807481D01*
X169545874Y-67799938D01*
X169548146Y-67800474D01*
X169570427Y-67746690D01*
X169627820Y-67706843D01*
X169666976Y-67700499D01*
X169697871Y-67700499D01*
X169697872Y-67700499D01*
X169757483Y-67694091D01*
X169892331Y-67643796D01*
X170007546Y-67557546D01*
X170093796Y-67442331D01*
X170144091Y-67307483D01*
X170150500Y-67247873D01*
X170150499Y-66852128D01*
X170146067Y-66810898D01*
X170146068Y-66784389D01*
X170148558Y-66761239D01*
X170175299Y-66696689D01*
X170232693Y-66656844D01*
X170271847Y-66650500D01*
X171499902Y-66650500D01*
X171566941Y-66670185D01*
X171587583Y-66686819D01*
X171656284Y-66755520D01*
X171656286Y-66755521D01*
X171656290Y-66755524D01*
X171734915Y-66800918D01*
X171734919Y-66800920D01*
X171740353Y-66804057D01*
X171793215Y-66834577D01*
X171834179Y-66845553D01*
X171843286Y-66849648D01*
X171858156Y-66862382D01*
X171880115Y-66875060D01*
X171881917Y-66876862D01*
X171881919Y-66876865D01*
X171998135Y-66993081D01*
X172139602Y-67076744D01*
X172181224Y-67088836D01*
X172297426Y-67122597D01*
X172297429Y-67122597D01*
X172297431Y-67122598D01*
X172334306Y-67125500D01*
X172525500Y-67125500D01*
X172592539Y-67145185D01*
X172638294Y-67197989D01*
X172649500Y-67249500D01*
X172649500Y-67328846D01*
X172680261Y-67483489D01*
X172680264Y-67483501D01*
X172740602Y-67629172D01*
X172740609Y-67629185D01*
X172828210Y-67760288D01*
X172828213Y-67760292D01*
X172939707Y-67871786D01*
X172939711Y-67871789D01*
X173070814Y-67959390D01*
X173070827Y-67959397D01*
X173216498Y-68019735D01*
X173216503Y-68019737D01*
X173371153Y-68050499D01*
X173371156Y-68050500D01*
X173371158Y-68050500D01*
X173528844Y-68050500D01*
X173528845Y-68050499D01*
X173683497Y-68019737D01*
X173829179Y-67959394D01*
X173960289Y-67871789D01*
X174071789Y-67760289D01*
X174159394Y-67629179D01*
X174219737Y-67483497D01*
X174239113Y-67386085D01*
X174250638Y-67328150D01*
X174259401Y-67311395D01*
X174263421Y-67292918D01*
X174282170Y-67267868D01*
X174283023Y-67266239D01*
X174284494Y-67264740D01*
X174298022Y-67251211D01*
X174323693Y-67231513D01*
X174368716Y-67205520D01*
X174412417Y-67161819D01*
X174473740Y-67128334D01*
X174500098Y-67125500D01*
X174665686Y-67125500D01*
X174665694Y-67125500D01*
X174702569Y-67122598D01*
X174702571Y-67122597D01*
X174702573Y-67122597D01*
X174744191Y-67110505D01*
X174860398Y-67076744D01*
X175001865Y-66993081D01*
X175118081Y-66876865D01*
X175201744Y-66735398D01*
X175247598Y-66577569D01*
X175250500Y-66540694D01*
X175250500Y-66009306D01*
X175248589Y-65985027D01*
X175262953Y-65916651D01*
X175288700Y-65883633D01*
X175298601Y-65874612D01*
X175331706Y-65855500D01*
X175443510Y-65743696D01*
X175443511Y-65743693D01*
X175588892Y-65598312D01*
X188800001Y-65598312D01*
X188810144Y-65697607D01*
X188863452Y-65858481D01*
X188863457Y-65858492D01*
X188952424Y-66002728D01*
X188952427Y-66002732D01*
X189072267Y-66122572D01*
X189072271Y-66122575D01*
X189216507Y-66211542D01*
X189216518Y-66211547D01*
X189377393Y-66264855D01*
X189476683Y-66274999D01*
X189500000Y-66274998D01*
X189500000Y-65550000D01*
X188800001Y-65550000D01*
X188800001Y-65598312D01*
X175588892Y-65598312D01*
X176185527Y-65001677D01*
X188800000Y-65001677D01*
X188800000Y-65050000D01*
X189500000Y-65050000D01*
X189500000Y-64324999D01*
X189476693Y-64325000D01*
X189476674Y-64325001D01*
X189377392Y-64335144D01*
X189216518Y-64388452D01*
X189216507Y-64388457D01*
X189072271Y-64477424D01*
X189072267Y-64477427D01*
X188952427Y-64597267D01*
X188952424Y-64597271D01*
X188863457Y-64741507D01*
X188863452Y-64741518D01*
X188810144Y-64902393D01*
X188800000Y-65001677D01*
X176185527Y-65001677D01*
X178683506Y-62503698D01*
X178683511Y-62503694D01*
X178693714Y-62493490D01*
X178693716Y-62493490D01*
X178805520Y-62381686D01*
X178809276Y-62375178D01*
X178875607Y-62260292D01*
X178875608Y-62260289D01*
X178884577Y-62244755D01*
X178925500Y-62092027D01*
X178925500Y-61933913D01*
X178925500Y-58449983D01*
X179349500Y-58449983D01*
X179349500Y-58449996D01*
X179349501Y-60550000D01*
X179349501Y-60550018D01*
X179360000Y-60652796D01*
X179360001Y-60652799D01*
X179413619Y-60814606D01*
X179415186Y-60819334D01*
X179507288Y-60968656D01*
X179631344Y-61092712D01*
X179780666Y-61184814D01*
X179947203Y-61239999D01*
X180049991Y-61250500D01*
X181450008Y-61250499D01*
X181552797Y-61239999D01*
X181719334Y-61184814D01*
X181868656Y-61092712D01*
X181992712Y-60968656D01*
X182084814Y-60819334D01*
X182139999Y-60652797D01*
X182150500Y-60550009D01*
X182150500Y-60199500D01*
X182170185Y-60132461D01*
X182222989Y-60086706D01*
X182274500Y-60075500D01*
X184125764Y-60075500D01*
X184125766Y-60075500D01*
X184272135Y-60036281D01*
X184403365Y-59960515D01*
X184802061Y-59561817D01*
X184863384Y-59528333D01*
X184889742Y-59525499D01*
X185825002Y-59525499D01*
X185825008Y-59525499D01*
X185927797Y-59514999D01*
X186094334Y-59459814D01*
X186243656Y-59367712D01*
X186367712Y-59243656D01*
X186459814Y-59094334D01*
X186514999Y-58927797D01*
X186525500Y-58825009D01*
X186525499Y-57974992D01*
X186514999Y-57872203D01*
X186459814Y-57705666D01*
X186367712Y-57556344D01*
X186243656Y-57432288D01*
X186094334Y-57340186D01*
X185927797Y-57285001D01*
X185927795Y-57285000D01*
X185825010Y-57274500D01*
X184474998Y-57274500D01*
X184474981Y-57274501D01*
X184372203Y-57285000D01*
X184372200Y-57285001D01*
X184205668Y-57340185D01*
X184205663Y-57340187D01*
X184056342Y-57432289D01*
X183932289Y-57556342D01*
X183840187Y-57705663D01*
X183840186Y-57705666D01*
X183785001Y-57872203D01*
X183785001Y-57872204D01*
X183785000Y-57872204D01*
X183774500Y-57974983D01*
X183774500Y-57974996D01*
X183774501Y-58800500D01*
X183754817Y-58867539D01*
X183702013Y-58913294D01*
X183650501Y-58924500D01*
X182274499Y-58924500D01*
X182207460Y-58904815D01*
X182161705Y-58852011D01*
X182150499Y-58800500D01*
X182150499Y-58449998D01*
X182150498Y-58449981D01*
X182139999Y-58347203D01*
X182139998Y-58347200D01*
X182084814Y-58180666D01*
X181992712Y-58031344D01*
X181868656Y-57907288D01*
X181719334Y-57815186D01*
X181552797Y-57760001D01*
X181552795Y-57760000D01*
X181450010Y-57749500D01*
X180049998Y-57749500D01*
X180049981Y-57749501D01*
X179947203Y-57760000D01*
X179947200Y-57760001D01*
X179780668Y-57815185D01*
X179780663Y-57815187D01*
X179631342Y-57907289D01*
X179507289Y-58031342D01*
X179415187Y-58180663D01*
X179415185Y-58180668D01*
X179387349Y-58264670D01*
X179360001Y-58347203D01*
X179360001Y-58347204D01*
X179360000Y-58347204D01*
X179349500Y-58449983D01*
X178925500Y-58449983D01*
X178925500Y-54449983D01*
X179349500Y-54449983D01*
X179349500Y-56550001D01*
X179349501Y-56550018D01*
X179360000Y-56652796D01*
X179360001Y-56652799D01*
X179384092Y-56725499D01*
X179415186Y-56819334D01*
X179507288Y-56968656D01*
X179631344Y-57092712D01*
X179780666Y-57184814D01*
X179947203Y-57239999D01*
X180049991Y-57250500D01*
X181450008Y-57250499D01*
X181552797Y-57239999D01*
X181719334Y-57184814D01*
X181868656Y-57092712D01*
X181992712Y-56968656D01*
X182084814Y-56819334D01*
X182139999Y-56652797D01*
X182150500Y-56550009D01*
X182150499Y-54449992D01*
X182149292Y-54438181D01*
X182139999Y-54347203D01*
X182139998Y-54347200D01*
X182124523Y-54300499D01*
X182084814Y-54180666D01*
X181992712Y-54031344D01*
X181868656Y-53907288D01*
X181719334Y-53815186D01*
X181552797Y-53760001D01*
X181552795Y-53760000D01*
X181450010Y-53749500D01*
X180049998Y-53749500D01*
X180049981Y-53749501D01*
X179947203Y-53760000D01*
X179947200Y-53760001D01*
X179780668Y-53815185D01*
X179780663Y-53815187D01*
X179631342Y-53907289D01*
X179507289Y-54031342D01*
X179415187Y-54180663D01*
X179415185Y-54180668D01*
X179413618Y-54185398D01*
X179360001Y-54347203D01*
X179360001Y-54347204D01*
X179360000Y-54347204D01*
X179349500Y-54449983D01*
X178925500Y-54449983D01*
X178925500Y-51539500D01*
X178945185Y-51472461D01*
X178997989Y-51426706D01*
X179049500Y-51415500D01*
X179154371Y-51415500D01*
X179214793Y-51403481D01*
X179275216Y-51391463D01*
X179308556Y-51377652D01*
X179389050Y-51344312D01*
X179441033Y-51309577D01*
X179441034Y-51309577D01*
X179487031Y-51278842D01*
X179491497Y-51275858D01*
X179578622Y-51188733D01*
X179578622Y-51188731D01*
X179588830Y-51178524D01*
X179588833Y-51178520D01*
X179765538Y-51001818D01*
X179789224Y-50988884D01*
X179810989Y-50972912D01*
X179822023Y-50970975D01*
X179826861Y-50968334D01*
X179845547Y-50965738D01*
X179849387Y-50965500D01*
X179962720Y-50965500D01*
X180063553Y-50952225D01*
X180067829Y-50951960D01*
X180097883Y-50958797D01*
X180128350Y-50963548D01*
X180131653Y-50966479D01*
X180135958Y-50967459D01*
X180157547Y-50989462D01*
X180180606Y-51009928D01*
X180181838Y-51014218D01*
X180184892Y-51017331D01*
X180190527Y-51044477D01*
X180199500Y-51075722D01*
X180199500Y-51328846D01*
X180230261Y-51483489D01*
X180230264Y-51483501D01*
X180290602Y-51629172D01*
X180290609Y-51629185D01*
X180378210Y-51760288D01*
X180378213Y-51760292D01*
X180628211Y-52010289D01*
X183738181Y-55120259D01*
X183771666Y-55181582D01*
X183774500Y-55207940D01*
X183774500Y-56025001D01*
X183774501Y-56025019D01*
X183785000Y-56127796D01*
X183785001Y-56127799D01*
X183840185Y-56294331D01*
X183840186Y-56294334D01*
X183932288Y-56443656D01*
X184056344Y-56567712D01*
X184205666Y-56659814D01*
X184372203Y-56714999D01*
X184474991Y-56725500D01*
X185825008Y-56725499D01*
X185927797Y-56714999D01*
X186094334Y-56659814D01*
X186243656Y-56567712D01*
X186367712Y-56443656D01*
X186459814Y-56294334D01*
X186514999Y-56127797D01*
X186525500Y-56025009D01*
X186525499Y-55174992D01*
X186519896Y-55120146D01*
X186514999Y-55072203D01*
X186514998Y-55072200D01*
X186506096Y-55045336D01*
X186459814Y-54905666D01*
X186367712Y-54756344D01*
X186243656Y-54632288D01*
X186094334Y-54540186D01*
X185927797Y-54485001D01*
X185927795Y-54485000D01*
X185825016Y-54474500D01*
X185825009Y-54474500D01*
X185407940Y-54474500D01*
X185340901Y-54454815D01*
X185320259Y-54438181D01*
X182039334Y-51157256D01*
X182005849Y-51095933D01*
X182010833Y-51026241D01*
X182052705Y-50970308D01*
X182092421Y-50950498D01*
X182210197Y-50916281D01*
X182351550Y-50832686D01*
X182351553Y-50832683D01*
X182377966Y-50806271D01*
X182439289Y-50772785D01*
X182508981Y-50777769D01*
X182513067Y-50779376D01*
X182628165Y-50827051D01*
X182628169Y-50827051D01*
X182628170Y-50827052D01*
X182821456Y-50865500D01*
X182821459Y-50865500D01*
X183018543Y-50865500D01*
X183183546Y-50832678D01*
X183211835Y-50827051D01*
X183393914Y-50751632D01*
X183557782Y-50642139D01*
X183697139Y-50502782D01*
X183806632Y-50338914D01*
X183882051Y-50156835D01*
X183920500Y-49963541D01*
X183920500Y-48666459D01*
X183920500Y-48666456D01*
X183882052Y-48473170D01*
X183882051Y-48473169D01*
X183882051Y-48473165D01*
X183874702Y-48455423D01*
X183806635Y-48291092D01*
X183806628Y-48291079D01*
X183697139Y-48127218D01*
X183697136Y-48127214D01*
X183566417Y-47996495D01*
X183532932Y-47935172D01*
X183537916Y-47865480D01*
X183579788Y-47809547D01*
X183645252Y-47785130D01*
X183654098Y-47784814D01*
X185890652Y-47784814D01*
X185957691Y-47804499D01*
X186003446Y-47857303D01*
X186013390Y-47926461D01*
X186005214Y-47956264D01*
X185980263Y-48016503D01*
X185980262Y-48016506D01*
X185980262Y-48016507D01*
X185980261Y-48016510D01*
X185949500Y-48171153D01*
X185949500Y-48328846D01*
X185980261Y-48483489D01*
X185980264Y-48483501D01*
X186040602Y-48629172D01*
X186040609Y-48629185D01*
X186128210Y-48760288D01*
X186128213Y-48760292D01*
X186788181Y-49420259D01*
X186821666Y-49481582D01*
X186824500Y-49507940D01*
X186824500Y-49956616D01*
X186826423Y-49977778D01*
X186830913Y-50027192D01*
X186830913Y-50027194D01*
X186830914Y-50027196D01*
X186881522Y-50189606D01*
X186947243Y-50298322D01*
X186969530Y-50335188D01*
X187071661Y-50437319D01*
X187105146Y-50498642D01*
X187100162Y-50568334D01*
X187071661Y-50612681D01*
X186969531Y-50714810D01*
X186969530Y-50714811D01*
X186881522Y-50860393D01*
X186830913Y-51022807D01*
X186829579Y-51037489D01*
X186824899Y-51089000D01*
X186824500Y-51093386D01*
X186824500Y-51606613D01*
X186830913Y-51677192D01*
X186830913Y-51677194D01*
X186830914Y-51677196D01*
X186881522Y-51839606D01*
X186938744Y-51934263D01*
X186969530Y-51985188D01*
X187089811Y-52105469D01*
X187089813Y-52105470D01*
X187089815Y-52105472D01*
X187235394Y-52193478D01*
X187397804Y-52244086D01*
X187468384Y-52250500D01*
X187912403Y-52250500D01*
X187979442Y-52270185D01*
X188000084Y-52286819D01*
X188963181Y-53249916D01*
X188996666Y-53311239D01*
X188999500Y-53337597D01*
X188999500Y-53990701D01*
X189002401Y-54027567D01*
X189002402Y-54027573D01*
X189048254Y-54185393D01*
X189048255Y-54185396D01*
X189131917Y-54326862D01*
X189131923Y-54326870D01*
X189163180Y-54358126D01*
X189196666Y-54419448D01*
X189199500Y-54445808D01*
X189199500Y-54975452D01*
X189179815Y-55042491D01*
X189152410Y-55072719D01*
X189146958Y-55077029D01*
X189027029Y-55196959D01*
X188938001Y-55341294D01*
X188937996Y-55341305D01*
X188884651Y-55502290D01*
X188874500Y-55601647D01*
X188874500Y-56198337D01*
X188874501Y-56198355D01*
X188884650Y-56297707D01*
X188884651Y-56297710D01*
X188937996Y-56458694D01*
X188938001Y-56458705D01*
X189027029Y-56603040D01*
X189027032Y-56603044D01*
X189146955Y-56722967D01*
X189146959Y-56722970D01*
X189291294Y-56811998D01*
X189291297Y-56811999D01*
X189291303Y-56812003D01*
X189452292Y-56865349D01*
X189551655Y-56875500D01*
X190098344Y-56875499D01*
X190098352Y-56875498D01*
X190098355Y-56875498D01*
X190152760Y-56869940D01*
X190197708Y-56865349D01*
X190358697Y-56812003D01*
X190503044Y-56722968D01*
X190512668Y-56713343D01*
X190573987Y-56679856D01*
X190643679Y-56684835D01*
X190688034Y-56713339D01*
X190697267Y-56722572D01*
X190697271Y-56722575D01*
X190841507Y-56811542D01*
X190841518Y-56811547D01*
X191002393Y-56864855D01*
X191101683Y-56874999D01*
X191625000Y-56874999D01*
X191648308Y-56874999D01*
X191648322Y-56874998D01*
X191747607Y-56864855D01*
X191908481Y-56811547D01*
X191908492Y-56811542D01*
X192052728Y-56722575D01*
X192052732Y-56722572D01*
X192172572Y-56602732D01*
X192172575Y-56602728D01*
X192261542Y-56458492D01*
X192261547Y-56458481D01*
X192314855Y-56297606D01*
X192324999Y-56198322D01*
X192325000Y-56198309D01*
X192325000Y-56150000D01*
X191625000Y-56150000D01*
X191625000Y-56874999D01*
X191101683Y-56874999D01*
X191125000Y-56874998D01*
X191125000Y-55650000D01*
X191625000Y-55650000D01*
X192324999Y-55650000D01*
X192324999Y-55601692D01*
X192324998Y-55601677D01*
X192314855Y-55502392D01*
X192261547Y-55341518D01*
X192261542Y-55341507D01*
X192172575Y-55197271D01*
X192172572Y-55197267D01*
X192052732Y-55077427D01*
X192052728Y-55077424D01*
X191908492Y-54988457D01*
X191908481Y-54988452D01*
X191747606Y-54935144D01*
X191648322Y-54925000D01*
X191625000Y-54925000D01*
X191625000Y-55650000D01*
X191125000Y-55650000D01*
X191125000Y-54924999D01*
X191101693Y-54925000D01*
X191101674Y-54925001D01*
X191002392Y-54935144D01*
X190841518Y-54988452D01*
X190841507Y-54988457D01*
X190697271Y-55077424D01*
X190697264Y-55077430D01*
X190688028Y-55086665D01*
X190626703Y-55120146D01*
X190557011Y-55115157D01*
X190528083Y-55099740D01*
X190519839Y-55093827D01*
X190503044Y-55077032D01*
X190455745Y-55047857D01*
X190452230Y-55045336D01*
X190433271Y-55021058D01*
X190412678Y-54998163D01*
X190411564Y-54993263D01*
X190409226Y-54990269D01*
X190408096Y-54978004D01*
X190400500Y-54944574D01*
X190400500Y-54694461D01*
X190420185Y-54627422D01*
X190472989Y-54581667D01*
X190542147Y-54571723D01*
X190546785Y-54572480D01*
X190547431Y-54572598D01*
X190584306Y-54575500D01*
X190584314Y-54575500D01*
X191015686Y-54575500D01*
X191015694Y-54575500D01*
X191052569Y-54572598D01*
X191052571Y-54572597D01*
X191052573Y-54572597D01*
X191094191Y-54560505D01*
X191210398Y-54526744D01*
X191220213Y-54520939D01*
X191236878Y-54511084D01*
X191304601Y-54493900D01*
X191363122Y-54511084D01*
X191389598Y-54526742D01*
X191389599Y-54526742D01*
X191389602Y-54526744D01*
X191409094Y-54532407D01*
X191547426Y-54572597D01*
X191547429Y-54572597D01*
X191547431Y-54572598D01*
X191584306Y-54575500D01*
X191584314Y-54575500D01*
X192015686Y-54575500D01*
X192015694Y-54575500D01*
X192052569Y-54572598D01*
X192052571Y-54572597D01*
X192052573Y-54572597D01*
X192094191Y-54560505D01*
X192210398Y-54526744D01*
X192220213Y-54520939D01*
X192236878Y-54511084D01*
X192304601Y-54493900D01*
X192363122Y-54511084D01*
X192389598Y-54526742D01*
X192389599Y-54526742D01*
X192389602Y-54526744D01*
X192409094Y-54532407D01*
X192547426Y-54572597D01*
X192547429Y-54572597D01*
X192547431Y-54572598D01*
X192584306Y-54575500D01*
X192584314Y-54575500D01*
X193015686Y-54575500D01*
X193015694Y-54575500D01*
X193052569Y-54572598D01*
X193052571Y-54572597D01*
X193052573Y-54572597D01*
X193094191Y-54560505D01*
X193210398Y-54526744D01*
X193220213Y-54520939D01*
X193236878Y-54511084D01*
X193304601Y-54493900D01*
X193363122Y-54511084D01*
X193389598Y-54526742D01*
X193389599Y-54526742D01*
X193389602Y-54526744D01*
X193409094Y-54532407D01*
X193547426Y-54572597D01*
X193547429Y-54572597D01*
X193547431Y-54572598D01*
X193584306Y-54575500D01*
X193584314Y-54575500D01*
X194015686Y-54575500D01*
X194015694Y-54575500D01*
X194052569Y-54572598D01*
X194190905Y-54532407D01*
X194260774Y-54532606D01*
X194319444Y-54570548D01*
X194348288Y-54634186D01*
X194349500Y-54651483D01*
X194349500Y-61849902D01*
X194329815Y-61916941D01*
X194313181Y-61937583D01*
X192519481Y-63731282D01*
X192519475Y-63731290D01*
X192480539Y-63798731D01*
X192480539Y-63798733D01*
X192440423Y-63868214D01*
X192439466Y-63871786D01*
X192399499Y-64020943D01*
X192399499Y-64020945D01*
X192399499Y-64189046D01*
X192399500Y-64189059D01*
X192399500Y-64483480D01*
X192390855Y-64512917D01*
X192384332Y-64542908D01*
X192380576Y-64547924D01*
X192379815Y-64550519D01*
X192363182Y-64571161D01*
X192363181Y-64571162D01*
X192300196Y-64634146D01*
X192238872Y-64667630D01*
X192169181Y-64662645D01*
X192113247Y-64620774D01*
X192106976Y-64611561D01*
X192098162Y-64597271D01*
X192097968Y-64596956D01*
X191978044Y-64477032D01*
X191978040Y-64477029D01*
X191833705Y-64388001D01*
X191833699Y-64387998D01*
X191833697Y-64387997D01*
X191806069Y-64378842D01*
X191672709Y-64334651D01*
X191573346Y-64324500D01*
X191026662Y-64324500D01*
X191026644Y-64324501D01*
X190927292Y-64334650D01*
X190927289Y-64334651D01*
X190766305Y-64387996D01*
X190766294Y-64388001D01*
X190621959Y-64477029D01*
X190621953Y-64477033D01*
X190612324Y-64486663D01*
X190551000Y-64520146D01*
X190481308Y-64515159D01*
X190436965Y-64486660D01*
X190427732Y-64477427D01*
X190427728Y-64477424D01*
X190283492Y-64388457D01*
X190283481Y-64388452D01*
X190122606Y-64335144D01*
X190023322Y-64325000D01*
X190000000Y-64325000D01*
X190000000Y-66274999D01*
X190023308Y-66274999D01*
X190023322Y-66274998D01*
X190122607Y-66264855D01*
X190283481Y-66211547D01*
X190283492Y-66211542D01*
X190427731Y-66122573D01*
X190436959Y-66113345D01*
X190498279Y-66079856D01*
X190567971Y-66084835D01*
X190612327Y-66113339D01*
X190621955Y-66122967D01*
X190621959Y-66122970D01*
X190766294Y-66211998D01*
X190766297Y-66211999D01*
X190766303Y-66212003D01*
X190927292Y-66265349D01*
X191026655Y-66275500D01*
X191573344Y-66275499D01*
X191573352Y-66275498D01*
X191573355Y-66275498D01*
X191627760Y-66269940D01*
X191672708Y-66265349D01*
X191833697Y-66212003D01*
X191978044Y-66122968D01*
X192037029Y-66063982D01*
X192057877Y-66052598D01*
X192076243Y-66037529D01*
X192087978Y-66036162D01*
X192098348Y-66030500D01*
X192122044Y-66032194D01*
X192145644Y-66029446D01*
X192156255Y-66034641D01*
X192168040Y-66035484D01*
X192187060Y-66049722D01*
X192208397Y-66060168D01*
X192220152Y-66074494D01*
X192223974Y-66077355D01*
X192230785Y-66087452D01*
X192231578Y-66088764D01*
X192249500Y-66152976D01*
X192249500Y-66775500D01*
X192229815Y-66842539D01*
X192177011Y-66888294D01*
X192125500Y-66899500D01*
X191294629Y-66899500D01*
X191294623Y-66899501D01*
X191235018Y-66905908D01*
X191200831Y-66918659D01*
X191131139Y-66923642D01*
X191114169Y-66918659D01*
X191096640Y-66912121D01*
X191079983Y-66905909D01*
X191079982Y-66905908D01*
X191020383Y-66899501D01*
X191020381Y-66899500D01*
X191020373Y-66899500D01*
X191020364Y-66899500D01*
X190024629Y-66899500D01*
X190024623Y-66899501D01*
X189965018Y-66905908D01*
X189930831Y-66918659D01*
X189861139Y-66923642D01*
X189844169Y-66918659D01*
X189826640Y-66912121D01*
X189809983Y-66905909D01*
X189809982Y-66905908D01*
X189750383Y-66899501D01*
X189750381Y-66899500D01*
X189750373Y-66899500D01*
X189750364Y-66899500D01*
X188754629Y-66899500D01*
X188754623Y-66899501D01*
X188695018Y-66905908D01*
X188660831Y-66918659D01*
X188591139Y-66923642D01*
X188574169Y-66918659D01*
X188556640Y-66912121D01*
X188539983Y-66905909D01*
X188539982Y-66905908D01*
X188480383Y-66899501D01*
X188480381Y-66899500D01*
X188480373Y-66899500D01*
X188480364Y-66899500D01*
X187484629Y-66899500D01*
X187484623Y-66899501D01*
X187425018Y-66905908D01*
X187390831Y-66918659D01*
X187321139Y-66923642D01*
X187304169Y-66918659D01*
X187286640Y-66912121D01*
X187269983Y-66905909D01*
X187269982Y-66905908D01*
X187210383Y-66899501D01*
X187210381Y-66899500D01*
X187210373Y-66899500D01*
X187210364Y-66899500D01*
X186214629Y-66899500D01*
X186214623Y-66899501D01*
X186155018Y-66905908D01*
X186120831Y-66918659D01*
X186051139Y-66923642D01*
X186034169Y-66918659D01*
X186016640Y-66912121D01*
X185999983Y-66905909D01*
X185999982Y-66905908D01*
X185940383Y-66899501D01*
X185940381Y-66899500D01*
X185940373Y-66899500D01*
X185940364Y-66899500D01*
X184944629Y-66899500D01*
X184944623Y-66899501D01*
X184885018Y-66905908D01*
X184850831Y-66918659D01*
X184781139Y-66923642D01*
X184764169Y-66918659D01*
X184746640Y-66912121D01*
X184729983Y-66905909D01*
X184729982Y-66905908D01*
X184670383Y-66899501D01*
X184670381Y-66899500D01*
X184670373Y-66899500D01*
X184670364Y-66899500D01*
X183674629Y-66899500D01*
X183674623Y-66899501D01*
X183615018Y-66905908D01*
X183580831Y-66918659D01*
X183511139Y-66923642D01*
X183494169Y-66918659D01*
X183476640Y-66912121D01*
X183459983Y-66905909D01*
X183459982Y-66905908D01*
X183400383Y-66899501D01*
X183400381Y-66899500D01*
X183400373Y-66899500D01*
X183400364Y-66899500D01*
X182404629Y-66899500D01*
X182404623Y-66899501D01*
X182345018Y-66905908D01*
X182310831Y-66918659D01*
X182241139Y-66923642D01*
X182224169Y-66918659D01*
X182206640Y-66912121D01*
X182189983Y-66905909D01*
X182189982Y-66905908D01*
X182130383Y-66899501D01*
X182130381Y-66899500D01*
X182130373Y-66899500D01*
X182130364Y-66899500D01*
X181134629Y-66899500D01*
X181134623Y-66899501D01*
X181075018Y-66905908D01*
X181040831Y-66918659D01*
X180971139Y-66923642D01*
X180954169Y-66918659D01*
X180936640Y-66912121D01*
X180919983Y-66905909D01*
X180919982Y-66905908D01*
X180860383Y-66899501D01*
X180860381Y-66899500D01*
X180860373Y-66899500D01*
X180860364Y-66899500D01*
X179864629Y-66899500D01*
X179864623Y-66899501D01*
X179805018Y-66905908D01*
X179770831Y-66918659D01*
X179701139Y-66923642D01*
X179684169Y-66918659D01*
X179666640Y-66912121D01*
X179649983Y-66905909D01*
X179649982Y-66905908D01*
X179590383Y-66899501D01*
X179590381Y-66899500D01*
X179590373Y-66899500D01*
X179590364Y-66899500D01*
X178594629Y-66899500D01*
X178594623Y-66899501D01*
X178535016Y-66905908D01*
X178400171Y-66956202D01*
X178400164Y-66956206D01*
X178284955Y-67042452D01*
X178284952Y-67042455D01*
X178198706Y-67157664D01*
X178198702Y-67157671D01*
X178148408Y-67292517D01*
X178142001Y-67352116D01*
X178142000Y-67352135D01*
X178142000Y-68947870D01*
X178142001Y-68947876D01*
X178148408Y-69007483D01*
X178198702Y-69142328D01*
X178198706Y-69142335D01*
X178284952Y-69257544D01*
X178284955Y-69257547D01*
X178400164Y-69343793D01*
X178400171Y-69343797D01*
X178535017Y-69394091D01*
X178535016Y-69394091D01*
X178541944Y-69394835D01*
X178594627Y-69400500D01*
X179590372Y-69400499D01*
X179649983Y-69394091D01*
X179684167Y-69381340D01*
X179753858Y-69376357D01*
X179770827Y-69381338D01*
X179805017Y-69394091D01*
X179864627Y-69400500D01*
X180860372Y-69400499D01*
X180919983Y-69394091D01*
X180954167Y-69381340D01*
X181023858Y-69376357D01*
X181040827Y-69381338D01*
X181075017Y-69394091D01*
X181134627Y-69400500D01*
X182130372Y-69400499D01*
X182189983Y-69394091D01*
X182224167Y-69381340D01*
X182293858Y-69376357D01*
X182310827Y-69381338D01*
X182345017Y-69394091D01*
X182404627Y-69400500D01*
X183400372Y-69400499D01*
X183459983Y-69394091D01*
X183494167Y-69381340D01*
X183563858Y-69376357D01*
X183580827Y-69381338D01*
X183615017Y-69394091D01*
X183674627Y-69400500D01*
X184670372Y-69400499D01*
X184729983Y-69394091D01*
X184764167Y-69381340D01*
X184833858Y-69376357D01*
X184850827Y-69381338D01*
X184885017Y-69394091D01*
X184944627Y-69400500D01*
X185940372Y-69400499D01*
X185999983Y-69394091D01*
X186034167Y-69381340D01*
X186103858Y-69376357D01*
X186120827Y-69381338D01*
X186155017Y-69394091D01*
X186214627Y-69400500D01*
X187210372Y-69400499D01*
X187269983Y-69394091D01*
X187304167Y-69381340D01*
X187373858Y-69376357D01*
X187390827Y-69381338D01*
X187425017Y-69394091D01*
X187484627Y-69400500D01*
X188480372Y-69400499D01*
X188539983Y-69394091D01*
X188574167Y-69381340D01*
X188643858Y-69376357D01*
X188660827Y-69381338D01*
X188695017Y-69394091D01*
X188754627Y-69400500D01*
X189750372Y-69400499D01*
X189809983Y-69394091D01*
X189809986Y-69394089D01*
X189817323Y-69393301D01*
X189886083Y-69405707D01*
X189937220Y-69453318D01*
X189952195Y-69492399D01*
X189980261Y-69633493D01*
X189980264Y-69633503D01*
X190040602Y-69779174D01*
X190040609Y-69779187D01*
X190128210Y-69910290D01*
X190128213Y-69910294D01*
X190239707Y-70021788D01*
X190239711Y-70021791D01*
X190370814Y-70109392D01*
X190370827Y-70109399D01*
X190516498Y-70169737D01*
X190516503Y-70169739D01*
X190671153Y-70200501D01*
X190671156Y-70200502D01*
X190671158Y-70200502D01*
X190828844Y-70200502D01*
X190828845Y-70200501D01*
X190983497Y-70169739D01*
X191129179Y-70109396D01*
X191129185Y-70109392D01*
X191260875Y-70021400D01*
X191327553Y-70000522D01*
X191329766Y-70000502D01*
X192255829Y-70000502D01*
X192255845Y-70000503D01*
X192263441Y-70000503D01*
X192421552Y-70000503D01*
X192421555Y-70000503D01*
X192574283Y-69959579D01*
X192624402Y-69930641D01*
X192711214Y-69880522D01*
X192823018Y-69768718D01*
X192823019Y-69768715D01*
X193154918Y-69436815D01*
X193216240Y-69403333D01*
X193242598Y-69400499D01*
X193560371Y-69400499D01*
X193560372Y-69400499D01*
X193619983Y-69394091D01*
X193654167Y-69381340D01*
X193723858Y-69376357D01*
X193740827Y-69381338D01*
X193775017Y-69394091D01*
X193834627Y-69400500D01*
X194830372Y-69400499D01*
X194889983Y-69394091D01*
X194924881Y-69381074D01*
X194994569Y-69376089D01*
X195011550Y-69381075D01*
X195045123Y-69393598D01*
X195104655Y-69399999D01*
X195104672Y-69400000D01*
X195352500Y-69400000D01*
X195852500Y-69400000D01*
X196100328Y-69400000D01*
X196100344Y-69399999D01*
X196159872Y-69393598D01*
X196159879Y-69393596D01*
X196294586Y-69343354D01*
X196294593Y-69343350D01*
X196409687Y-69257190D01*
X196409690Y-69257187D01*
X196495850Y-69142093D01*
X196495854Y-69142086D01*
X196546096Y-69007379D01*
X196546098Y-69007372D01*
X196552499Y-68947844D01*
X196552500Y-68947827D01*
X196552500Y-68400000D01*
X195852500Y-68400000D01*
X195852500Y-69400000D01*
X195352500Y-69400000D01*
X195352500Y-67900000D01*
X195852500Y-67900000D01*
X196552500Y-67900000D01*
X196552500Y-67352172D01*
X196552499Y-67352155D01*
X196546098Y-67292627D01*
X196546096Y-67292620D01*
X196495854Y-67157913D01*
X196495850Y-67157906D01*
X196409690Y-67042812D01*
X196409687Y-67042809D01*
X196294593Y-66956649D01*
X196294586Y-66956645D01*
X196159879Y-66906403D01*
X196159872Y-66906401D01*
X196100344Y-66900000D01*
X195852500Y-66900000D01*
X195852500Y-67900000D01*
X195352500Y-67900000D01*
X195352500Y-66916205D01*
X195296688Y-66880197D01*
X195273674Y-66853542D01*
X195251118Y-66827511D01*
X195251101Y-66827398D01*
X195251027Y-66827312D01*
X195246148Y-66792948D01*
X195241174Y-66758353D01*
X195241221Y-66758245D01*
X195241206Y-66758136D01*
X195242808Y-66754644D01*
X195268057Y-66697338D01*
X195271786Y-66692793D01*
X195286893Y-66670185D01*
X195359394Y-66561679D01*
X195419737Y-66415997D01*
X195450500Y-66261342D01*
X195450500Y-66103657D01*
X195450500Y-66070267D01*
X195468384Y-66006116D01*
X195493475Y-65964611D01*
X195493475Y-65964610D01*
X195493478Y-65964606D01*
X195544086Y-65802196D01*
X195550500Y-65731616D01*
X195550500Y-65068384D01*
X195544086Y-64997804D01*
X195493478Y-64835394D01*
X195405472Y-64689815D01*
X195405470Y-64689813D01*
X195405469Y-64689811D01*
X195285188Y-64569530D01*
X195237499Y-64540701D01*
X195139606Y-64481522D01*
X194977196Y-64430914D01*
X194977194Y-64430913D01*
X194977192Y-64430913D01*
X194927778Y-64426423D01*
X194906616Y-64424500D01*
X194393384Y-64424500D01*
X194374145Y-64426248D01*
X194322807Y-64430913D01*
X194160393Y-64481522D01*
X194014811Y-64569530D01*
X194014810Y-64569531D01*
X193912681Y-64671661D01*
X193904735Y-64675999D01*
X193899310Y-64683247D01*
X193874550Y-64692481D01*
X193851358Y-64705146D01*
X193842328Y-64704500D01*
X193833846Y-64707664D01*
X193808025Y-64702047D01*
X193781666Y-64700162D01*
X193772612Y-64694343D01*
X193765573Y-64692812D01*
X193737319Y-64671661D01*
X193636819Y-64571161D01*
X193603334Y-64509838D01*
X193600500Y-64483480D01*
X193600500Y-64400096D01*
X193620185Y-64333057D01*
X193636814Y-64312420D01*
X195308506Y-62640727D01*
X195308511Y-62640724D01*
X195318714Y-62630520D01*
X195318716Y-62630520D01*
X195430520Y-62518716D01*
X195509577Y-62381784D01*
X195547998Y-62238394D01*
X195547998Y-62238393D01*
X195548000Y-62238393D01*
X195548000Y-62238384D01*
X195550500Y-62229058D01*
X195550500Y-62070943D01*
X195550500Y-50132596D01*
X195570185Y-50065557D01*
X195586814Y-50044920D01*
X197560580Y-48071153D01*
X203149500Y-48071153D01*
X203149500Y-48228846D01*
X203180261Y-48383489D01*
X203180264Y-48383501D01*
X203240602Y-48529172D01*
X203240609Y-48529185D01*
X203328210Y-48660288D01*
X203328213Y-48660292D01*
X203439707Y-48771786D01*
X203439711Y-48771789D01*
X203570814Y-48859390D01*
X203570827Y-48859397D01*
X203693956Y-48910398D01*
X203716503Y-48919737D01*
X203871153Y-48950499D01*
X203871156Y-48950500D01*
X203871158Y-48950500D01*
X204028844Y-48950500D01*
X204028845Y-48950499D01*
X204183497Y-48919737D01*
X204329179Y-48859394D01*
X204460289Y-48771789D01*
X204571789Y-48660289D01*
X204659394Y-48529179D01*
X204719737Y-48383497D01*
X204723315Y-48365508D01*
X204755698Y-48303600D01*
X204816413Y-48269024D01*
X204886182Y-48272762D01*
X204888239Y-48273508D01*
X204897090Y-48276810D01*
X204930016Y-48289091D01*
X204936944Y-48289835D01*
X204989627Y-48295500D01*
X205985372Y-48295499D01*
X206044983Y-48289091D01*
X206179831Y-48238796D01*
X206295046Y-48152546D01*
X206381296Y-48037331D01*
X206399096Y-47989606D01*
X206404109Y-47976167D01*
X206445980Y-47920233D01*
X206511444Y-47895816D01*
X206520291Y-47895500D01*
X208554709Y-47895500D01*
X208621748Y-47915185D01*
X208667503Y-47967989D01*
X208670891Y-47976167D01*
X208693702Y-48037328D01*
X208693706Y-48037335D01*
X208779952Y-48152544D01*
X208779955Y-48152547D01*
X208895164Y-48238793D01*
X208895171Y-48238797D01*
X209030017Y-48289091D01*
X209030016Y-48289091D01*
X209036944Y-48289835D01*
X209089627Y-48295500D01*
X210085372Y-48295499D01*
X210144983Y-48289091D01*
X210279831Y-48238796D01*
X210395046Y-48152546D01*
X210481296Y-48037331D01*
X210531591Y-47902483D01*
X210538000Y-47842873D01*
X210538000Y-47818206D01*
X210999500Y-47818206D01*
X210999500Y-48181794D01*
X211008460Y-48272762D01*
X211035137Y-48543630D01*
X211106064Y-48900212D01*
X211106067Y-48900223D01*
X211106069Y-48900232D01*
X211106070Y-48900233D01*
X211111987Y-48919738D01*
X211211614Y-49248165D01*
X211300927Y-49463785D01*
X211335915Y-49548255D01*
X211350754Y-49584078D01*
X211350756Y-49584083D01*
X211522140Y-49904720D01*
X211522151Y-49904738D01*
X211724140Y-50207035D01*
X211724150Y-50207049D01*
X211954807Y-50488106D01*
X212211893Y-50745192D01*
X212211898Y-50745196D01*
X212211899Y-50745197D01*
X212492956Y-50975854D01*
X212795268Y-51177853D01*
X212795277Y-51177858D01*
X212795279Y-51177859D01*
X213115916Y-51349243D01*
X213115918Y-51349243D01*
X213115924Y-51349247D01*
X213451836Y-51488386D01*
X213799767Y-51593930D01*
X213799773Y-51593931D01*
X213799776Y-51593932D01*
X213799787Y-51593935D01*
X214156369Y-51664862D01*
X214518206Y-51700500D01*
X214518209Y-51700500D01*
X214881791Y-51700500D01*
X214881794Y-51700500D01*
X215243631Y-51664862D01*
X215315844Y-51650498D01*
X215600212Y-51593935D01*
X215600223Y-51593932D01*
X215600223Y-51593931D01*
X215600233Y-51593930D01*
X215948164Y-51488386D01*
X216284076Y-51349247D01*
X216604732Y-51177853D01*
X216907044Y-50975854D01*
X217188101Y-50745197D01*
X217445197Y-50488101D01*
X217675854Y-50207044D01*
X217877853Y-49904732D01*
X218049247Y-49584076D01*
X218188386Y-49248164D01*
X218293930Y-48900233D01*
X218293932Y-48900223D01*
X218293935Y-48900212D01*
X218364862Y-48543630D01*
X218374081Y-48450028D01*
X218400500Y-48181794D01*
X218400500Y-47818206D01*
X218364862Y-47456369D01*
X218357193Y-47417815D01*
X218293935Y-47099787D01*
X218293932Y-47099776D01*
X218293931Y-47099773D01*
X218293930Y-47099767D01*
X218188386Y-46751836D01*
X218049247Y-46415924D01*
X218046179Y-46410185D01*
X217877859Y-46095279D01*
X217877858Y-46095277D01*
X217877853Y-46095268D01*
X217675854Y-45792956D01*
X217445197Y-45511899D01*
X217445196Y-45511898D01*
X217445192Y-45511893D01*
X217188106Y-45254807D01*
X216907049Y-45024150D01*
X216907048Y-45024149D01*
X216907044Y-45024146D01*
X216604732Y-44822147D01*
X216604727Y-44822144D01*
X216604720Y-44822140D01*
X216284083Y-44650756D01*
X216284078Y-44650754D01*
X216221902Y-44625000D01*
X216185690Y-44610000D01*
X215948165Y-44511614D01*
X215600223Y-44406067D01*
X215600212Y-44406064D01*
X215243630Y-44335137D01*
X214971111Y-44308296D01*
X214881794Y-44299500D01*
X214518206Y-44299500D01*
X214435679Y-44307628D01*
X214156369Y-44335137D01*
X213799787Y-44406064D01*
X213799776Y-44406067D01*
X213451834Y-44511614D01*
X213115921Y-44650754D01*
X213115916Y-44650756D01*
X212795279Y-44822140D01*
X212795261Y-44822151D01*
X212492964Y-45024140D01*
X212492950Y-45024150D01*
X212211893Y-45254807D01*
X211954807Y-45511893D01*
X211724150Y-45792950D01*
X211724140Y-45792964D01*
X211522151Y-46095261D01*
X211522140Y-46095279D01*
X211350756Y-46415916D01*
X211350754Y-46415921D01*
X211211614Y-46751834D01*
X211106067Y-47099776D01*
X211106064Y-47099787D01*
X211035137Y-47456369D01*
X211012067Y-47690609D01*
X210999500Y-47818206D01*
X210538000Y-47818206D01*
X210537999Y-47293657D01*
X210537999Y-46747129D01*
X210537998Y-46747123D01*
X210537138Y-46739125D01*
X210531591Y-46687517D01*
X210529622Y-46682238D01*
X210478197Y-46544359D01*
X210479766Y-46543773D01*
X210467116Y-46485630D01*
X210478814Y-46445793D01*
X210477753Y-46445398D01*
X210531097Y-46302376D01*
X210531098Y-46302372D01*
X210537499Y-46242844D01*
X210537500Y-46242827D01*
X210537500Y-45945000D01*
X208637500Y-45945000D01*
X208637500Y-46242844D01*
X208643901Y-46302372D01*
X208643903Y-46302379D01*
X208697246Y-46445399D01*
X208695732Y-46445963D01*
X208700621Y-46469938D01*
X208707883Y-46503316D01*
X208707644Y-46504378D01*
X208707757Y-46504929D01*
X208706828Y-46508017D01*
X208699807Y-46539316D01*
X208695620Y-46550108D01*
X208693704Y-46552669D01*
X208670606Y-46614596D01*
X208670317Y-46615343D01*
X208649500Y-46642407D01*
X208629020Y-46669767D01*
X208628231Y-46670061D01*
X208627720Y-46670726D01*
X208595581Y-46682238D01*
X208563556Y-46694184D01*
X208562091Y-46694236D01*
X208561944Y-46694289D01*
X208561766Y-46694247D01*
X208554709Y-46694500D01*
X206520291Y-46694500D01*
X206453252Y-46674815D01*
X206407497Y-46622011D01*
X206404109Y-46613833D01*
X206378197Y-46544359D01*
X206379766Y-46543773D01*
X206367116Y-46485630D01*
X206378814Y-46445793D01*
X206377753Y-46445398D01*
X206431097Y-46302376D01*
X206431098Y-46302372D01*
X206437499Y-46242844D01*
X206437500Y-46242827D01*
X206437500Y-45945000D01*
X204537500Y-45945000D01*
X204537500Y-46242844D01*
X204543901Y-46302372D01*
X204543903Y-46302379D01*
X204597246Y-46445399D01*
X204595430Y-46446076D01*
X204607883Y-46503316D01*
X204601333Y-46535161D01*
X204596591Y-46548812D01*
X204593704Y-46552669D01*
X204543409Y-46687517D01*
X204541167Y-46708369D01*
X204536523Y-46721739D01*
X204524113Y-46739125D01*
X204515936Y-46758863D01*
X204500737Y-46771874D01*
X204495931Y-46778608D01*
X204490200Y-46780894D01*
X204481389Y-46788438D01*
X204436287Y-46814477D01*
X204436282Y-46814481D01*
X203935339Y-47315425D01*
X203874016Y-47348910D01*
X203871850Y-47349361D01*
X203716508Y-47380261D01*
X203716498Y-47380264D01*
X203570827Y-47440602D01*
X203570814Y-47440609D01*
X203439711Y-47528210D01*
X203439707Y-47528213D01*
X203328213Y-47639707D01*
X203328210Y-47639711D01*
X203240609Y-47770814D01*
X203240602Y-47770827D01*
X203180264Y-47916498D01*
X203180261Y-47916510D01*
X203149500Y-48071153D01*
X197560580Y-48071153D01*
X197599916Y-48031817D01*
X197661239Y-47998333D01*
X197687597Y-47995499D01*
X198285371Y-47995499D01*
X198285372Y-47995499D01*
X198344983Y-47989091D01*
X198479831Y-47938796D01*
X198595046Y-47852546D01*
X198681296Y-47737331D01*
X198698722Y-47690609D01*
X198704109Y-47676167D01*
X198745980Y-47620233D01*
X198811444Y-47595816D01*
X198820291Y-47595500D01*
X200854709Y-47595500D01*
X200921748Y-47615185D01*
X200967503Y-47667989D01*
X200970891Y-47676167D01*
X200993702Y-47737328D01*
X200993706Y-47737335D01*
X201079952Y-47852544D01*
X201079955Y-47852547D01*
X201195164Y-47938793D01*
X201195171Y-47938797D01*
X201330017Y-47989091D01*
X201330016Y-47989091D01*
X201334779Y-47989603D01*
X201389627Y-47995500D01*
X202385372Y-47995499D01*
X202444983Y-47989091D01*
X202450863Y-47986898D01*
X202552785Y-47948884D01*
X202579828Y-47938797D01*
X202579827Y-47938797D01*
X202579831Y-47938796D01*
X202695046Y-47852546D01*
X202781296Y-47737331D01*
X202831591Y-47602483D01*
X202838000Y-47542873D01*
X202837999Y-46447128D01*
X202831591Y-46387517D01*
X202829622Y-46382238D01*
X202778197Y-46244359D01*
X202779766Y-46243773D01*
X202767116Y-46185630D01*
X202778814Y-46145793D01*
X202777753Y-46145398D01*
X202831097Y-46002376D01*
X202831098Y-46002372D01*
X202837499Y-45942844D01*
X202837500Y-45942827D01*
X202837500Y-45645000D01*
X200937500Y-45645000D01*
X200937500Y-45942844D01*
X200943901Y-46002372D01*
X200943903Y-46002379D01*
X200997246Y-46145399D01*
X200995732Y-46145963D01*
X201000621Y-46169938D01*
X201007883Y-46203316D01*
X201007644Y-46204378D01*
X201007757Y-46204929D01*
X201006828Y-46208017D01*
X200999807Y-46239316D01*
X200995620Y-46250108D01*
X200993704Y-46252669D01*
X200970606Y-46314596D01*
X200970317Y-46315343D01*
X200949500Y-46342407D01*
X200929020Y-46369767D01*
X200928231Y-46370061D01*
X200927720Y-46370726D01*
X200895581Y-46382238D01*
X200863556Y-46394184D01*
X200862091Y-46394236D01*
X200861944Y-46394289D01*
X200861766Y-46394247D01*
X200854709Y-46394500D01*
X198820291Y-46394500D01*
X198753252Y-46374815D01*
X198707497Y-46322011D01*
X198704109Y-46313833D01*
X198678197Y-46244359D01*
X198679766Y-46243773D01*
X198667116Y-46185630D01*
X198678814Y-46145793D01*
X198677753Y-46145398D01*
X198731097Y-46002376D01*
X198731098Y-46002372D01*
X198737499Y-45942844D01*
X198737500Y-45942827D01*
X198737500Y-45645000D01*
X196837500Y-45645000D01*
X196837500Y-45942844D01*
X196843901Y-46002372D01*
X196843903Y-46002379D01*
X196897246Y-46145399D01*
X196895430Y-46146076D01*
X196907883Y-46203316D01*
X196895928Y-46244033D01*
X196896803Y-46244359D01*
X196843408Y-46387517D01*
X196838591Y-46432327D01*
X196837001Y-46447123D01*
X196837000Y-46447135D01*
X196837000Y-47044902D01*
X196817315Y-47111941D01*
X196800681Y-47132583D01*
X194469481Y-49463782D01*
X194469479Y-49463785D01*
X194440273Y-49514373D01*
X194440272Y-49514375D01*
X194390423Y-49600714D01*
X194387155Y-49612912D01*
X194349499Y-49753443D01*
X194349499Y-49753445D01*
X194349499Y-49921546D01*
X194349500Y-49921559D01*
X194349500Y-51823516D01*
X194329815Y-51890555D01*
X194277011Y-51936310D01*
X194207853Y-51946254D01*
X194190905Y-51942592D01*
X194052573Y-51902402D01*
X194052567Y-51902401D01*
X194015701Y-51899500D01*
X194015694Y-51899500D01*
X193584306Y-51899500D01*
X193584298Y-51899500D01*
X193547432Y-51902401D01*
X193547426Y-51902402D01*
X193389606Y-51948253D01*
X193363119Y-51963918D01*
X193295394Y-51981098D01*
X193236881Y-51963918D01*
X193210393Y-51948253D01*
X193052573Y-51902402D01*
X193052567Y-51902401D01*
X193015701Y-51899500D01*
X193015694Y-51899500D01*
X192584306Y-51899500D01*
X192584298Y-51899500D01*
X192547432Y-51902401D01*
X192547426Y-51902402D01*
X192389606Y-51948253D01*
X192363119Y-51963918D01*
X192295394Y-51981098D01*
X192236881Y-51963918D01*
X192210393Y-51948253D01*
X192052573Y-51902402D01*
X192052567Y-51902401D01*
X192015701Y-51899500D01*
X192015694Y-51899500D01*
X191584306Y-51899500D01*
X191584298Y-51899500D01*
X191547432Y-51902401D01*
X191547426Y-51902402D01*
X191389606Y-51948253D01*
X191363119Y-51963918D01*
X191295394Y-51981098D01*
X191236881Y-51963918D01*
X191210393Y-51948253D01*
X191052573Y-51902402D01*
X191052567Y-51902401D01*
X191015701Y-51899500D01*
X191015694Y-51899500D01*
X190584306Y-51899500D01*
X190584298Y-51899500D01*
X190547432Y-51902401D01*
X190547426Y-51902402D01*
X190389606Y-51948253D01*
X190363119Y-51963918D01*
X190295394Y-51981098D01*
X190236881Y-51963918D01*
X190210393Y-51948253D01*
X190052573Y-51902402D01*
X190052567Y-51902401D01*
X190015701Y-51899500D01*
X190015694Y-51899500D01*
X189584306Y-51899500D01*
X189584298Y-51899500D01*
X189547432Y-51902401D01*
X189547426Y-51902402D01*
X189437078Y-51934462D01*
X189367208Y-51934263D01*
X189314802Y-51903067D01*
X188843166Y-51431431D01*
X188809681Y-51370108D01*
X188814665Y-51300416D01*
X188843166Y-51256069D01*
X190762416Y-49336819D01*
X190823739Y-49303334D01*
X190850097Y-49300500D01*
X191015686Y-49300500D01*
X191015694Y-49300500D01*
X191052569Y-49297598D01*
X191052571Y-49297597D01*
X191052573Y-49297597D01*
X191101084Y-49283503D01*
X191210398Y-49251744D01*
X191220213Y-49245939D01*
X191236878Y-49236084D01*
X191304601Y-49218900D01*
X191363122Y-49236084D01*
X191389598Y-49251742D01*
X191389599Y-49251742D01*
X191389602Y-49251744D01*
X191431224Y-49263836D01*
X191547426Y-49297597D01*
X191547429Y-49297597D01*
X191547431Y-49297598D01*
X191584306Y-49300500D01*
X191584314Y-49300500D01*
X192015686Y-49300500D01*
X192015694Y-49300500D01*
X192052569Y-49297598D01*
X192052571Y-49297597D01*
X192052573Y-49297597D01*
X192101084Y-49283503D01*
X192210398Y-49251744D01*
X192220213Y-49245939D01*
X192236878Y-49236084D01*
X192304601Y-49218900D01*
X192363122Y-49236084D01*
X192389598Y-49251742D01*
X192389599Y-49251742D01*
X192389602Y-49251744D01*
X192431224Y-49263836D01*
X192547426Y-49297597D01*
X192547429Y-49297597D01*
X192547431Y-49297598D01*
X192584306Y-49300500D01*
X192584314Y-49300500D01*
X193015686Y-49300500D01*
X193015694Y-49300500D01*
X193052569Y-49297598D01*
X193052571Y-49297597D01*
X193052573Y-49297597D01*
X193101084Y-49283503D01*
X193210398Y-49251744D01*
X193220213Y-49245939D01*
X193236878Y-49236084D01*
X193304601Y-49218900D01*
X193363122Y-49236084D01*
X193389598Y-49251742D01*
X193389599Y-49251742D01*
X193389602Y-49251744D01*
X193431224Y-49263836D01*
X193547426Y-49297597D01*
X193547429Y-49297597D01*
X193547431Y-49297598D01*
X193584306Y-49300500D01*
X193584314Y-49300500D01*
X194015686Y-49300500D01*
X194015694Y-49300500D01*
X194052569Y-49297598D01*
X194052571Y-49297597D01*
X194052573Y-49297597D01*
X194101084Y-49283503D01*
X194210398Y-49251744D01*
X194351865Y-49168081D01*
X194468081Y-49051865D01*
X194551744Y-48910398D01*
X194595355Y-48760289D01*
X194597597Y-48752573D01*
X194597598Y-48752567D01*
X194600499Y-48715701D01*
X194600500Y-48715694D01*
X194600500Y-47209306D01*
X194597598Y-47172431D01*
X194595647Y-47165717D01*
X194551745Y-47014606D01*
X194551744Y-47014603D01*
X194551744Y-47014602D01*
X194468081Y-46873135D01*
X194468079Y-46873133D01*
X194468076Y-46873129D01*
X194436819Y-46841872D01*
X194403334Y-46780549D01*
X194400500Y-46754191D01*
X194400500Y-46372415D01*
X194400500Y-46372414D01*
X194392217Y-46341503D01*
X194386935Y-46321789D01*
X194359577Y-46219687D01*
X194351057Y-46204929D01*
X194280524Y-46082761D01*
X194280521Y-46082757D01*
X194280520Y-46082755D01*
X194168716Y-45970951D01*
X194168715Y-45970950D01*
X194164385Y-45966620D01*
X194164374Y-45966610D01*
X193344919Y-45147155D01*
X204537500Y-45147155D01*
X204537500Y-45445000D01*
X205237500Y-45445000D01*
X205737500Y-45445000D01*
X206437500Y-45445000D01*
X206437500Y-45147172D01*
X206437499Y-45147155D01*
X208637500Y-45147155D01*
X208637500Y-45445000D01*
X209337500Y-45445000D01*
X209837500Y-45445000D01*
X210537500Y-45445000D01*
X210537500Y-45147172D01*
X210537499Y-45147155D01*
X210531098Y-45087627D01*
X210531096Y-45087620D01*
X210480854Y-44952913D01*
X210480850Y-44952906D01*
X210394690Y-44837812D01*
X210394687Y-44837809D01*
X210279593Y-44751649D01*
X210279586Y-44751645D01*
X210144879Y-44701403D01*
X210144872Y-44701401D01*
X210085344Y-44695000D01*
X209837500Y-44695000D01*
X209837500Y-45445000D01*
X209337500Y-45445000D01*
X209337500Y-44695000D01*
X209089655Y-44695000D01*
X209030127Y-44701401D01*
X209030120Y-44701403D01*
X208895413Y-44751645D01*
X208895406Y-44751649D01*
X208780312Y-44837809D01*
X208780309Y-44837812D01*
X208694149Y-44952906D01*
X208694145Y-44952913D01*
X208643903Y-45087620D01*
X208643901Y-45087627D01*
X208637500Y-45147155D01*
X206437499Y-45147155D01*
X206431098Y-45087627D01*
X206431096Y-45087620D01*
X206380854Y-44952913D01*
X206380850Y-44952906D01*
X206294690Y-44837812D01*
X206294687Y-44837809D01*
X206179593Y-44751649D01*
X206179586Y-44751645D01*
X206044879Y-44701403D01*
X206044872Y-44701401D01*
X205985344Y-44695000D01*
X205737500Y-44695000D01*
X205737500Y-45445000D01*
X205237500Y-45445000D01*
X205237500Y-44695000D01*
X204989655Y-44695000D01*
X204930127Y-44701401D01*
X204930120Y-44701403D01*
X204795413Y-44751645D01*
X204795406Y-44751649D01*
X204680312Y-44837809D01*
X204680309Y-44837812D01*
X204594149Y-44952906D01*
X204594145Y-44952913D01*
X204543903Y-45087620D01*
X204543901Y-45087627D01*
X204537500Y-45147155D01*
X193344919Y-45147155D01*
X193044919Y-44847155D01*
X196837500Y-44847155D01*
X196837500Y-45145000D01*
X197537500Y-45145000D01*
X198037500Y-45145000D01*
X198737500Y-45145000D01*
X198737500Y-44847172D01*
X198737499Y-44847155D01*
X200937500Y-44847155D01*
X200937500Y-45145000D01*
X201637500Y-45145000D01*
X202137500Y-45145000D01*
X202837500Y-45145000D01*
X202837500Y-44847172D01*
X202837499Y-44847155D01*
X202831098Y-44787627D01*
X202831096Y-44787620D01*
X202780854Y-44652913D01*
X202780850Y-44652906D01*
X202694690Y-44537812D01*
X202694687Y-44537809D01*
X202579593Y-44451649D01*
X202579586Y-44451645D01*
X202444879Y-44401403D01*
X202444872Y-44401401D01*
X202385344Y-44395000D01*
X202137500Y-44395000D01*
X202137500Y-45145000D01*
X201637500Y-45145000D01*
X201637500Y-44395000D01*
X201389655Y-44395000D01*
X201330127Y-44401401D01*
X201330120Y-44401403D01*
X201195413Y-44451645D01*
X201195406Y-44451649D01*
X201080312Y-44537809D01*
X201080309Y-44537812D01*
X200994149Y-44652906D01*
X200994145Y-44652913D01*
X200943903Y-44787620D01*
X200943901Y-44787627D01*
X200937500Y-44847155D01*
X198737499Y-44847155D01*
X198731098Y-44787627D01*
X198731096Y-44787620D01*
X198680854Y-44652913D01*
X198680850Y-44652906D01*
X198594690Y-44537812D01*
X198594687Y-44537809D01*
X198479593Y-44451649D01*
X198479586Y-44451645D01*
X198344879Y-44401403D01*
X198344872Y-44401401D01*
X198285344Y-44395000D01*
X198037500Y-44395000D01*
X198037500Y-45145000D01*
X197537500Y-45145000D01*
X197537500Y-44395000D01*
X197289655Y-44395000D01*
X197230127Y-44401401D01*
X197230120Y-44401403D01*
X197095413Y-44451645D01*
X197095406Y-44451649D01*
X196980312Y-44537809D01*
X196980309Y-44537812D01*
X196894149Y-44652906D01*
X196894145Y-44652913D01*
X196843903Y-44787620D01*
X196843901Y-44787627D01*
X196837500Y-44847155D01*
X193044919Y-44847155D01*
X192586119Y-44388355D01*
X192586117Y-44388352D01*
X192467246Y-44269481D01*
X192467245Y-44269480D01*
X192380433Y-44219360D01*
X192380433Y-44219359D01*
X192380429Y-44219358D01*
X192330314Y-44190423D01*
X192177586Y-44149499D01*
X192019472Y-44149499D01*
X192011876Y-44149499D01*
X192011860Y-44149500D01*
X189336670Y-44149500D01*
X189336654Y-44149499D01*
X189329058Y-44149499D01*
X189170943Y-44149499D01*
X189094579Y-44169961D01*
X189018214Y-44190423D01*
X189018209Y-44190426D01*
X188881290Y-44269475D01*
X188881282Y-44269481D01*
X187287584Y-45863181D01*
X187226261Y-45896666D01*
X187199903Y-45899500D01*
X186170941Y-45899500D01*
X186140104Y-45907762D01*
X186140105Y-45907763D01*
X186018214Y-45940423D01*
X186018209Y-45940426D01*
X185881290Y-46019475D01*
X185881282Y-46019481D01*
X185787583Y-46113181D01*
X185726260Y-46146666D01*
X185699902Y-46149500D01*
X183933978Y-46149500D01*
X183866939Y-46129815D01*
X183821184Y-46077011D01*
X183811240Y-46007853D01*
X183819417Y-45978047D01*
X183882051Y-45826835D01*
X183901265Y-45730241D01*
X183920500Y-45633543D01*
X183920500Y-44636456D01*
X183882052Y-44443170D01*
X183882051Y-44443169D01*
X183882051Y-44443165D01*
X183868673Y-44410868D01*
X183806635Y-44261092D01*
X183806628Y-44261079D01*
X183697139Y-44097218D01*
X183697136Y-44097214D01*
X183557785Y-43957863D01*
X183557781Y-43957860D01*
X183393920Y-43848371D01*
X183393907Y-43848364D01*
X183211839Y-43772950D01*
X183211829Y-43772947D01*
X183018543Y-43734500D01*
X183018541Y-43734500D01*
X182821459Y-43734500D01*
X182821457Y-43734500D01*
X182628170Y-43772947D01*
X182628160Y-43772950D01*
X182446092Y-43848364D01*
X182446079Y-43848371D01*
X182282218Y-43957860D01*
X182282214Y-43957863D01*
X182142863Y-44097214D01*
X182142860Y-44097218D01*
X182033371Y-44261079D01*
X182033364Y-44261092D01*
X181957950Y-44443160D01*
X181957947Y-44443170D01*
X181919500Y-44636456D01*
X181919500Y-44636459D01*
X181919500Y-45633541D01*
X181919500Y-45633543D01*
X181919499Y-45633543D01*
X181957947Y-45826829D01*
X181957950Y-45826839D01*
X182034796Y-46012362D01*
X182042265Y-46081831D01*
X182010990Y-46144310D01*
X181950901Y-46179962D01*
X181920235Y-46183814D01*
X181703530Y-46183814D01*
X181662609Y-46194778D01*
X181662609Y-46194779D01*
X181651320Y-46197804D01*
X181550804Y-46224737D01*
X181550799Y-46224740D01*
X181413880Y-46303789D01*
X181413872Y-46303795D01*
X181302068Y-46415600D01*
X179473034Y-48244633D01*
X179465088Y-48248971D01*
X179459663Y-48256219D01*
X179434903Y-48265453D01*
X179411711Y-48278118D01*
X179402681Y-48277472D01*
X179394199Y-48280636D01*
X179368378Y-48275019D01*
X179342019Y-48273134D01*
X179332965Y-48267315D01*
X179325926Y-48265784D01*
X179297672Y-48244633D01*
X179256394Y-48203355D01*
X179256392Y-48203352D01*
X179137521Y-48084481D01*
X179137520Y-48084480D01*
X179050708Y-48034360D01*
X179050708Y-48034359D01*
X179050704Y-48034358D01*
X179000589Y-48005423D01*
X178847861Y-47964499D01*
X178689747Y-47964499D01*
X178682151Y-47964499D01*
X178682135Y-47964500D01*
X178010253Y-47964500D01*
X177852139Y-47964500D01*
X177699411Y-48005423D01*
X177699410Y-48005423D01*
X177699408Y-48005424D01*
X177699405Y-48005425D01*
X177649292Y-48034359D01*
X177649291Y-48034360D01*
X177609805Y-48057157D01*
X177562481Y-48084479D01*
X177562478Y-48084481D01*
X177506162Y-48140798D01*
X177450676Y-48196284D01*
X177450674Y-48196286D01*
X177343361Y-48303600D01*
X177268781Y-48378180D01*
X177207458Y-48411665D01*
X177181100Y-48414499D01*
X177038533Y-48414499D01*
X176963106Y-48434710D01*
X176885804Y-48455423D01*
X176885799Y-48455426D01*
X176748880Y-48534475D01*
X176748872Y-48534481D01*
X176633060Y-48650294D01*
X176531285Y-48752069D01*
X176531284Y-48752070D01*
X176513617Y-48769737D01*
X176505171Y-48778183D01*
X176443847Y-48811667D01*
X176443842Y-48811666D01*
X176417491Y-48814500D01*
X176400816Y-48814500D01*
X176374198Y-48806684D01*
X176374155Y-48806681D01*
X176374133Y-48806665D01*
X176333777Y-48794815D01*
X176288022Y-48742011D01*
X176281041Y-48722593D01*
X176279194Y-48715701D01*
X176246281Y-48592865D01*
X176170515Y-48461635D01*
X176063365Y-48354485D01*
X175969899Y-48300522D01*
X175932136Y-48278719D01*
X175848163Y-48256219D01*
X175785766Y-48239500D01*
X175634234Y-48239500D01*
X175487863Y-48278719D01*
X175401050Y-48328842D01*
X175356635Y-48354485D01*
X175356633Y-48354486D01*
X175349597Y-48358549D01*
X175348254Y-48356224D01*
X175295391Y-48376647D01*
X175226949Y-48362592D01*
X175176971Y-48313766D01*
X175170540Y-48300522D01*
X175168459Y-48295499D01*
X175166632Y-48291086D01*
X175166630Y-48291083D01*
X175166628Y-48291079D01*
X175057139Y-48127218D01*
X175057136Y-48127214D01*
X174916820Y-47986898D01*
X174883335Y-47925575D01*
X174880501Y-47899217D01*
X174880501Y-47835945D01*
X174880501Y-47835943D01*
X174839577Y-47683215D01*
X174805677Y-47624499D01*
X174760520Y-47546284D01*
X174648716Y-47434480D01*
X174648715Y-47434479D01*
X174644385Y-47430149D01*
X174644374Y-47430139D01*
X173931582Y-46717347D01*
X173898097Y-46656024D01*
X173903081Y-46586332D01*
X173944953Y-46530399D01*
X174010417Y-46505982D01*
X174043455Y-46508049D01*
X174181456Y-46535500D01*
X174181459Y-46535500D01*
X174378543Y-46535500D01*
X174540339Y-46503316D01*
X174571835Y-46497051D01*
X174753914Y-46421632D01*
X174917782Y-46312139D01*
X175057139Y-46172782D01*
X175166632Y-46008914D01*
X175167072Y-46007853D01*
X175242049Y-45826839D01*
X175242051Y-45826835D01*
X175261265Y-45730241D01*
X175280500Y-45633543D01*
X175280500Y-44636456D01*
X175242052Y-44443170D01*
X175242051Y-44443169D01*
X175242051Y-44443165D01*
X175228673Y-44410868D01*
X175166635Y-44261092D01*
X175166628Y-44261079D01*
X175057139Y-44097218D01*
X175057136Y-44097214D01*
X174917785Y-43957863D01*
X174917781Y-43957860D01*
X174753920Y-43848371D01*
X174753907Y-43848364D01*
X174571839Y-43772950D01*
X174571829Y-43772947D01*
X174378543Y-43734500D01*
X174378541Y-43734500D01*
X174181459Y-43734500D01*
X174181457Y-43734500D01*
X173988170Y-43772947D01*
X173988160Y-43772950D01*
X173806092Y-43848364D01*
X173806079Y-43848371D01*
X173642218Y-43957860D01*
X173642214Y-43957863D01*
X173502863Y-44097214D01*
X173502860Y-44097218D01*
X173393371Y-44261079D01*
X173393364Y-44261092D01*
X173344385Y-44379341D01*
X173300544Y-44433745D01*
X173234250Y-44455810D01*
X173166551Y-44438531D01*
X173122761Y-44391498D01*
X173121898Y-44392020D01*
X173119400Y-44387888D01*
X173118940Y-44387394D01*
X173118346Y-44386145D01*
X173030072Y-44240122D01*
X172909877Y-44119927D01*
X172764395Y-44031980D01*
X172764396Y-44031980D01*
X172602105Y-43981409D01*
X172602106Y-43981409D01*
X172531572Y-43975000D01*
X172450000Y-43975000D01*
X172450000Y-44751000D01*
X172430315Y-44818039D01*
X172377511Y-44863794D01*
X172326000Y-44875000D01*
X172200000Y-44875000D01*
X172200000Y-45001000D01*
X172180315Y-45068039D01*
X172127511Y-45113794D01*
X172076000Y-45125000D01*
X171225001Y-45125000D01*
X171225001Y-45131582D01*
X171231408Y-45202102D01*
X171231409Y-45202107D01*
X171281981Y-45364396D01*
X171369927Y-45509877D01*
X171472015Y-45611965D01*
X171505500Y-45673288D01*
X171500516Y-45742980D01*
X171472015Y-45787327D01*
X171369531Y-45889810D01*
X171369530Y-45889811D01*
X171281522Y-46035393D01*
X171230913Y-46197807D01*
X171224500Y-46268386D01*
X171224500Y-46781613D01*
X171230913Y-46852192D01*
X171230913Y-46852194D01*
X171230914Y-46852196D01*
X171270052Y-46977796D01*
X171281522Y-47014606D01*
X171369530Y-47160188D01*
X171489811Y-47280469D01*
X171489813Y-47280470D01*
X171489815Y-47280472D01*
X171635394Y-47368478D01*
X171797804Y-47419086D01*
X171868384Y-47425500D01*
X171868387Y-47425500D01*
X172531613Y-47425500D01*
X172531616Y-47425500D01*
X172602196Y-47419086D01*
X172764606Y-47368478D01*
X172764615Y-47368472D01*
X172769052Y-47366476D01*
X172838263Y-47356908D01*
X172901660Y-47386277D01*
X172907632Y-47391867D01*
X173487027Y-47971262D01*
X173520512Y-48032585D01*
X173515528Y-48102277D01*
X173502448Y-48127833D01*
X173393374Y-48291074D01*
X173393364Y-48291092D01*
X173317950Y-48473160D01*
X173317947Y-48473170D01*
X173279500Y-48666456D01*
X173279500Y-48666459D01*
X173279500Y-49963541D01*
X173279500Y-49963543D01*
X173279499Y-49963543D01*
X173317947Y-50156829D01*
X173317950Y-50156839D01*
X173393364Y-50338907D01*
X173393371Y-50338920D01*
X173502860Y-50502781D01*
X173502863Y-50502785D01*
X173642214Y-50642136D01*
X173642218Y-50642139D01*
X173806079Y-50751628D01*
X173806092Y-50751635D01*
X173977359Y-50822575D01*
X173988165Y-50827051D01*
X173988169Y-50827051D01*
X173988170Y-50827052D01*
X174181456Y-50865500D01*
X174181459Y-50865500D01*
X174378543Y-50865500D01*
X174543546Y-50832678D01*
X174571835Y-50827051D01*
X174635046Y-50800868D01*
X174686898Y-50779391D01*
X174756367Y-50771922D01*
X174818846Y-50803197D01*
X174822031Y-50806271D01*
X174848438Y-50832678D01*
X174848447Y-50832685D01*
X174989803Y-50916282D01*
X174989806Y-50916283D01*
X175147504Y-50962099D01*
X175147510Y-50962100D01*
X175184350Y-50964999D01*
X175184366Y-50965000D01*
X175275500Y-50965000D01*
X175342539Y-50984685D01*
X175388294Y-51037489D01*
X175399500Y-51089000D01*
X175399500Y-51278846D01*
X175430261Y-51433489D01*
X175430264Y-51433501D01*
X175490602Y-51579172D01*
X175490609Y-51579185D01*
X175578210Y-51710288D01*
X175578213Y-51710292D01*
X175739707Y-51871786D01*
X175739711Y-51871789D01*
X175870814Y-51959390D01*
X175870818Y-51959392D01*
X175870821Y-51959394D01*
X176016503Y-52019738D01*
X176171153Y-52050499D01*
X176171157Y-52050500D01*
X176171158Y-52050500D01*
X176328844Y-52050500D01*
X176328845Y-52050499D01*
X176483497Y-52019738D01*
X176629179Y-51959394D01*
X176760289Y-51871789D01*
X176871789Y-51760289D01*
X176959394Y-51629179D01*
X177019738Y-51483497D01*
X177028883Y-51437521D01*
X177061267Y-51375612D01*
X177121983Y-51341038D01*
X177191752Y-51344777D01*
X177248425Y-51385643D01*
X177274006Y-51450661D01*
X177274500Y-51461714D01*
X177274500Y-55577378D01*
X177254815Y-55644417D01*
X177202011Y-55690172D01*
X177134932Y-55699816D01*
X177134905Y-55700097D01*
X177133765Y-55699984D01*
X177132853Y-55700116D01*
X177129809Y-55699595D01*
X177128843Y-55699500D01*
X177128842Y-55699500D01*
X176971158Y-55699500D01*
X176971155Y-55699500D01*
X176816510Y-55730261D01*
X176816498Y-55730264D01*
X176670827Y-55790602D01*
X176670814Y-55790609D01*
X176539711Y-55878210D01*
X176539707Y-55878213D01*
X175504741Y-56913181D01*
X175443418Y-56946666D01*
X175417060Y-56949500D01*
X175171155Y-56949500D01*
X175016510Y-56980261D01*
X175016498Y-56980264D01*
X174870827Y-57040602D01*
X174870814Y-57040609D01*
X174739711Y-57128210D01*
X174739707Y-57128213D01*
X174628213Y-57239707D01*
X174628210Y-57239711D01*
X174540609Y-57370814D01*
X174540602Y-57370827D01*
X174480264Y-57516498D01*
X174480261Y-57516510D01*
X174449500Y-57671153D01*
X174449500Y-57828846D01*
X174480261Y-57983489D01*
X174480264Y-57983501D01*
X174540602Y-58129172D01*
X174540609Y-58129185D01*
X174628210Y-58260288D01*
X174628213Y-58260292D01*
X174739707Y-58371786D01*
X174739711Y-58371789D01*
X174870814Y-58459390D01*
X174870827Y-58459397D01*
X174944013Y-58489711D01*
X175016503Y-58519737D01*
X175171153Y-58550499D01*
X175171156Y-58550500D01*
X175171158Y-58550500D01*
X175878844Y-58550500D01*
X175878845Y-58550499D01*
X176033497Y-58519737D01*
X176179179Y-58459394D01*
X176310289Y-58371789D01*
X177062819Y-57619259D01*
X177124142Y-57585774D01*
X177193833Y-57590758D01*
X177249767Y-57632630D01*
X177274184Y-57698094D01*
X177274500Y-57706940D01*
X177274500Y-61526504D01*
X177254815Y-61593543D01*
X177238181Y-61614185D01*
X175228661Y-63623704D01*
X175167338Y-63657189D01*
X175097646Y-63652205D01*
X175053299Y-63623704D01*
X174994342Y-63564747D01*
X174994337Y-63564743D01*
X174854065Y-63479947D01*
X174697562Y-63431179D01*
X174629556Y-63425000D01*
X174500000Y-63425000D01*
X174500000Y-64151000D01*
X174480315Y-64218039D01*
X174427511Y-64263794D01*
X174376000Y-64275000D01*
X174124000Y-64275000D01*
X174056961Y-64255315D01*
X174011206Y-64202511D01*
X174000000Y-64151000D01*
X174000000Y-63425000D01*
X173903028Y-63425000D01*
X173835989Y-63405315D01*
X173790234Y-63352511D01*
X173781411Y-63325191D01*
X173769738Y-63266510D01*
X173769737Y-63266503D01*
X173726376Y-63161819D01*
X173709397Y-63120827D01*
X173709390Y-63120814D01*
X173621789Y-62989711D01*
X173621786Y-62989707D01*
X173510292Y-62878213D01*
X173510288Y-62878210D01*
X173374986Y-62787803D01*
X173330181Y-62734190D01*
X173320519Y-62672098D01*
X173325500Y-62623345D01*
X173325499Y-62076656D01*
X173324915Y-62070943D01*
X173315349Y-61977292D01*
X173315348Y-61977289D01*
X173295351Y-61916941D01*
X173262003Y-61816303D01*
X173261999Y-61816297D01*
X173261998Y-61816294D01*
X173172970Y-61671959D01*
X173172967Y-61671955D01*
X173163339Y-61662327D01*
X173129854Y-61601004D01*
X173134838Y-61531312D01*
X173163345Y-61486959D01*
X173172573Y-61477731D01*
X173261542Y-61333492D01*
X173261547Y-61333481D01*
X173314855Y-61172606D01*
X173324999Y-61073322D01*
X173325000Y-61073309D01*
X173325000Y-61050000D01*
X171346362Y-61050000D01*
X171279323Y-61030315D01*
X171258681Y-61013681D01*
X171245000Y-61000000D01*
X170299500Y-61000000D01*
X170232461Y-60980315D01*
X170186706Y-60927511D01*
X170175500Y-60876000D01*
X170175500Y-60624000D01*
X170195185Y-60556961D01*
X170216153Y-60538791D01*
X170213681Y-60536319D01*
X170250000Y-60500000D01*
X170750000Y-60500000D01*
X171503638Y-60500000D01*
X171570677Y-60519685D01*
X171591319Y-60536319D01*
X171605000Y-60550000D01*
X172100000Y-60550000D01*
X172600000Y-60550000D01*
X173324999Y-60550000D01*
X173324999Y-60526692D01*
X173324998Y-60526677D01*
X173314855Y-60427392D01*
X173261547Y-60266518D01*
X173261542Y-60266507D01*
X173172575Y-60122271D01*
X173172572Y-60122267D01*
X173052732Y-60002427D01*
X173052728Y-60002424D01*
X172908492Y-59913457D01*
X172908481Y-59913452D01*
X172747606Y-59860144D01*
X172648322Y-59850000D01*
X172600000Y-59850000D01*
X172600000Y-60550000D01*
X172100000Y-60550000D01*
X172100000Y-59850000D01*
X172099999Y-59849999D01*
X172051693Y-59850000D01*
X172051675Y-59850001D01*
X171952392Y-59860144D01*
X171791518Y-59913452D01*
X171791507Y-59913457D01*
X171647271Y-60002424D01*
X171530690Y-60119005D01*
X171469367Y-60152489D01*
X171399675Y-60147505D01*
X171343742Y-60105633D01*
X171337471Y-60096421D01*
X171322573Y-60072268D01*
X171202732Y-59952427D01*
X171202728Y-59952424D01*
X171058492Y-59863457D01*
X171058481Y-59863452D01*
X170897606Y-59810144D01*
X170798322Y-59800000D01*
X170750000Y-59800000D01*
X170750000Y-60500000D01*
X170250000Y-60500000D01*
X170250000Y-59800000D01*
X170249999Y-59799999D01*
X170201693Y-59800000D01*
X170201670Y-59800002D01*
X170141560Y-59806142D01*
X170072868Y-59793372D01*
X170036680Y-59765611D01*
X170030768Y-59759024D01*
X169996789Y-59708171D01*
X169885289Y-59596671D01*
X169526799Y-59238181D01*
X169166832Y-58878213D01*
X169166828Y-58878210D01*
X169035725Y-58790609D01*
X169035712Y-58790602D01*
X168890041Y-58730264D01*
X168890029Y-58730261D01*
X168735385Y-58699500D01*
X168735382Y-58699500D01*
X167578842Y-58699500D01*
X167421158Y-58699500D01*
X167421155Y-58699500D01*
X167266510Y-58730261D01*
X167266498Y-58730264D01*
X167120827Y-58790602D01*
X167120814Y-58790609D01*
X166989711Y-58878210D01*
X166989707Y-58878213D01*
X166878213Y-58989707D01*
X166878210Y-58989711D01*
X166790609Y-59120814D01*
X166790602Y-59120827D01*
X166730264Y-59266498D01*
X166730261Y-59266510D01*
X166699500Y-59421153D01*
X166699500Y-59578846D01*
X166730261Y-59733489D01*
X166730263Y-59733497D01*
X166737221Y-59750296D01*
X166740561Y-59758358D01*
X166750000Y-59805811D01*
X166750000Y-60475000D01*
X167528638Y-60475000D01*
X167595677Y-60494685D01*
X167602273Y-60500000D01*
X168450500Y-60500000D01*
X168517539Y-60519685D01*
X168563294Y-60572489D01*
X168574500Y-60624000D01*
X168574500Y-60876000D01*
X168554815Y-60943039D01*
X168502011Y-60988794D01*
X168450500Y-61000000D01*
X167371362Y-61000000D01*
X167304323Y-60980315D01*
X167297727Y-60975000D01*
X164724000Y-60975000D01*
X164656961Y-60955315D01*
X164611206Y-60902511D01*
X164600000Y-60851000D01*
X164600000Y-60725000D01*
X164474000Y-60725000D01*
X164406961Y-60705315D01*
X164361206Y-60652511D01*
X164350000Y-60601000D01*
X164350000Y-59825000D01*
X164850000Y-59825000D01*
X164850000Y-60475000D01*
X166250000Y-60475000D01*
X166250000Y-59775000D01*
X166249999Y-59774999D01*
X166201693Y-59775000D01*
X166201675Y-59775001D01*
X166102392Y-59785144D01*
X165941518Y-59838452D01*
X165941507Y-59838457D01*
X165797271Y-59927424D01*
X165797267Y-59927427D01*
X165677424Y-60047270D01*
X165646023Y-60098179D01*
X165594075Y-60144902D01*
X165525112Y-60156123D01*
X165461030Y-60128279D01*
X165434369Y-60097230D01*
X165430072Y-60090122D01*
X165309877Y-59969927D01*
X165164395Y-59881980D01*
X165164396Y-59881980D01*
X165002105Y-59831409D01*
X165002106Y-59831409D01*
X164931572Y-59825000D01*
X164850000Y-59825000D01*
X164350000Y-59825000D01*
X164349999Y-59824999D01*
X164268417Y-59825000D01*
X164197897Y-59831408D01*
X164197892Y-59831409D01*
X164035603Y-59881981D01*
X163890122Y-59969927D01*
X163769927Y-60090122D01*
X163681980Y-60235604D01*
X163631407Y-60397899D01*
X163631218Y-60398852D01*
X163630952Y-60399359D01*
X163629457Y-60404159D01*
X163628583Y-60403886D01*
X163626509Y-60407851D01*
X163625785Y-60417985D01*
X163610584Y-60438289D01*
X163598828Y-60460761D01*
X163589999Y-60465787D01*
X163583913Y-60473918D01*
X163560153Y-60482780D01*
X163538110Y-60495330D01*
X163527965Y-60494785D01*
X163518449Y-60498335D01*
X163493666Y-60492943D01*
X163468340Y-60491584D01*
X163458283Y-60485246D01*
X163450176Y-60483483D01*
X163421922Y-60462332D01*
X163261819Y-60302229D01*
X163228334Y-60240906D01*
X163225500Y-60214548D01*
X163225500Y-59918386D01*
X163221029Y-59869188D01*
X163234565Y-59800643D01*
X163283012Y-59750296D01*
X163297051Y-59743411D01*
X163379179Y-59709394D01*
X163510289Y-59621789D01*
X163621789Y-59510289D01*
X163709394Y-59379179D01*
X163769737Y-59233497D01*
X163800500Y-59078842D01*
X163800500Y-58921158D01*
X163800500Y-58921155D01*
X163800499Y-58921153D01*
X163781376Y-58825016D01*
X163769737Y-58766503D01*
X163769735Y-58766498D01*
X163709397Y-58620827D01*
X163709390Y-58620814D01*
X163621789Y-58489711D01*
X163621786Y-58489707D01*
X163510292Y-58378213D01*
X163510288Y-58378210D01*
X163379185Y-58290609D01*
X163379172Y-58290602D01*
X163233501Y-58230264D01*
X163233489Y-58230261D01*
X163078845Y-58199500D01*
X163078842Y-58199500D01*
X162003842Y-58199500D01*
X161846158Y-58199500D01*
X161846155Y-58199500D01*
X161691510Y-58230261D01*
X161691498Y-58230264D01*
X161545827Y-58290602D01*
X161545814Y-58290609D01*
X161414711Y-58378210D01*
X161414707Y-58378213D01*
X160554741Y-59238181D01*
X160493418Y-59271666D01*
X160467060Y-59274500D01*
X160418384Y-59274500D01*
X160399145Y-59276248D01*
X160347807Y-59280913D01*
X160185393Y-59331522D01*
X160039811Y-59419530D01*
X159919530Y-59539811D01*
X159831522Y-59685393D01*
X159780913Y-59847807D01*
X159774500Y-59918386D01*
X159774500Y-60581613D01*
X159780913Y-60652192D01*
X159780913Y-60652194D01*
X159780914Y-60652196D01*
X159781102Y-60652799D01*
X159831522Y-60814606D01*
X159909627Y-60943806D01*
X159927463Y-61011360D01*
X159905946Y-61077834D01*
X159851905Y-61122122D01*
X159782500Y-61130163D01*
X159734619Y-61111058D01*
X159629185Y-61040609D01*
X159629172Y-61040602D01*
X159483501Y-60980264D01*
X159483489Y-60980261D01*
X159328845Y-60949500D01*
X159328842Y-60949500D01*
X159171158Y-60949500D01*
X159171155Y-60949500D01*
X159016510Y-60980261D01*
X159016498Y-60980264D01*
X158870827Y-61040602D01*
X158870814Y-61040609D01*
X158739711Y-61128210D01*
X158739707Y-61128213D01*
X158628213Y-61239707D01*
X158628210Y-61239711D01*
X158540609Y-61370814D01*
X158540602Y-61370827D01*
X158480264Y-61516498D01*
X158480261Y-61516510D01*
X158449500Y-61671153D01*
X149800500Y-61671153D01*
X149800500Y-47718206D01*
X152999500Y-47718206D01*
X152999500Y-48081794D01*
X153006469Y-48152547D01*
X153035137Y-48443630D01*
X153106064Y-48800212D01*
X153106067Y-48800223D01*
X153211614Y-49148165D01*
X153350754Y-49484078D01*
X153350756Y-49484083D01*
X153522140Y-49804720D01*
X153522151Y-49804738D01*
X153724140Y-50107035D01*
X153724150Y-50107049D01*
X153954807Y-50388106D01*
X154211893Y-50645192D01*
X154211898Y-50645196D01*
X154211899Y-50645197D01*
X154492956Y-50875854D01*
X154795268Y-51077853D01*
X154795277Y-51077858D01*
X154795279Y-51077859D01*
X155115916Y-51249243D01*
X155115918Y-51249243D01*
X155115924Y-51249247D01*
X155451836Y-51388386D01*
X155799767Y-51493930D01*
X155799773Y-51493931D01*
X155799776Y-51493932D01*
X155799787Y-51493935D01*
X156156369Y-51564862D01*
X156518206Y-51600500D01*
X156518209Y-51600500D01*
X156881791Y-51600500D01*
X156881794Y-51600500D01*
X157243631Y-51564862D01*
X157313045Y-51551054D01*
X157600212Y-51493935D01*
X157600223Y-51493932D01*
X157600223Y-51493931D01*
X157600233Y-51493930D01*
X157948164Y-51388386D01*
X158284076Y-51249247D01*
X158604732Y-51077853D01*
X158907044Y-50875854D01*
X159188101Y-50645197D01*
X159445197Y-50388101D01*
X159476480Y-50349983D01*
X161374500Y-50349983D01*
X161374500Y-50950001D01*
X161374501Y-50950019D01*
X161385000Y-51052796D01*
X161385001Y-51052799D01*
X161426663Y-51178524D01*
X161440186Y-51219334D01*
X161532288Y-51368656D01*
X161656344Y-51492712D01*
X161805666Y-51584814D01*
X161972203Y-51639999D01*
X162074991Y-51650500D01*
X163125008Y-51650499D01*
X163125016Y-51650498D01*
X163125019Y-51650498D01*
X163181302Y-51644748D01*
X163227797Y-51639999D01*
X163394334Y-51584814D01*
X163543656Y-51492712D01*
X163549549Y-51486819D01*
X163610872Y-51453334D01*
X163637230Y-51450500D01*
X164825500Y-51450500D01*
X164892539Y-51470185D01*
X164938294Y-51522989D01*
X164949500Y-51574500D01*
X164949500Y-51578846D01*
X164980261Y-51733489D01*
X164980264Y-51733501D01*
X165040602Y-51879172D01*
X165040609Y-51879185D01*
X165128210Y-52010288D01*
X165128213Y-52010292D01*
X165239707Y-52121786D01*
X165239711Y-52121789D01*
X165370814Y-52209390D01*
X165370827Y-52209397D01*
X165470060Y-52250500D01*
X165516503Y-52269737D01*
X165671153Y-52300499D01*
X165671156Y-52300500D01*
X165671158Y-52300500D01*
X165828844Y-52300500D01*
X165828845Y-52300499D01*
X165983497Y-52269737D01*
X166129179Y-52209394D01*
X166260289Y-52121789D01*
X166371789Y-52010289D01*
X166434288Y-51947790D01*
X166459821Y-51909577D01*
X166521894Y-51816679D01*
X166545252Y-51760288D01*
X166574472Y-51689745D01*
X166576230Y-51685497D01*
X166582237Y-51670998D01*
X166613000Y-51516343D01*
X166613000Y-51358658D01*
X166613000Y-51224500D01*
X166632685Y-51157461D01*
X166685489Y-51111706D01*
X166737000Y-51100500D01*
X166877238Y-51100500D01*
X166877239Y-51100499D01*
X167031891Y-51069737D01*
X167177573Y-51009394D01*
X167308683Y-50921789D01*
X167308685Y-50921786D01*
X167313387Y-50917928D01*
X167315056Y-50919961D01*
X167366318Y-50891923D01*
X167436013Y-50896859D01*
X167480443Y-50925390D01*
X167523129Y-50968076D01*
X167523133Y-50968079D01*
X167523135Y-50968081D01*
X167664602Y-51051744D01*
X167710429Y-51065058D01*
X167828515Y-51099366D01*
X167827925Y-51101393D01*
X167881628Y-51128405D01*
X167917164Y-51188562D01*
X167914535Y-51258383D01*
X167884638Y-51306677D01*
X166528135Y-52663181D01*
X166466812Y-52696666D01*
X166440454Y-52699500D01*
X166421155Y-52699500D01*
X166266510Y-52730261D01*
X166266498Y-52730264D01*
X166120827Y-52790602D01*
X166120814Y-52790609D01*
X165989711Y-52878210D01*
X165989707Y-52878213D01*
X165878213Y-52989707D01*
X165878210Y-52989711D01*
X165790609Y-53120814D01*
X165790602Y-53120827D01*
X165730264Y-53266498D01*
X165730261Y-53266510D01*
X165699500Y-53421153D01*
X165699500Y-53578846D01*
X165730261Y-53733489D01*
X165730264Y-53733501D01*
X165790602Y-53879172D01*
X165790609Y-53879185D01*
X165878210Y-54010288D01*
X165878213Y-54010292D01*
X165989707Y-54121786D01*
X165989711Y-54121789D01*
X166120814Y-54209390D01*
X166120827Y-54209397D01*
X166266498Y-54269735D01*
X166266503Y-54269737D01*
X166421153Y-54300499D01*
X166421156Y-54300500D01*
X166421158Y-54300500D01*
X166902238Y-54300500D01*
X166902239Y-54300499D01*
X167056891Y-54269737D01*
X167202573Y-54209394D01*
X167333683Y-54121789D01*
X170221789Y-51233683D01*
X170309394Y-51102573D01*
X170362236Y-50974999D01*
X170850000Y-50974999D01*
X170898308Y-50974999D01*
X170898322Y-50974998D01*
X170997607Y-50964855D01*
X171158481Y-50911547D01*
X171158492Y-50911542D01*
X171302728Y-50822575D01*
X171302732Y-50822572D01*
X171422572Y-50702732D01*
X171422575Y-50702728D01*
X171511542Y-50558492D01*
X171511547Y-50558481D01*
X171564855Y-50397606D01*
X171574999Y-50298322D01*
X171575000Y-50298309D01*
X171575000Y-50275000D01*
X170850000Y-50275000D01*
X170850000Y-50974999D01*
X170362236Y-50974999D01*
X170369737Y-50956891D01*
X170400500Y-50802236D01*
X170400500Y-50644551D01*
X170400500Y-50149000D01*
X170420185Y-50081961D01*
X170472989Y-50036206D01*
X170524500Y-50025000D01*
X170600000Y-50025000D01*
X170600000Y-49899000D01*
X170619685Y-49831961D01*
X170672489Y-49786206D01*
X170724000Y-49775000D01*
X171574999Y-49775000D01*
X171574999Y-49751692D01*
X171574998Y-49751677D01*
X171564855Y-49652392D01*
X171511547Y-49491518D01*
X171511542Y-49491507D01*
X171422575Y-49347271D01*
X171422572Y-49347267D01*
X171413339Y-49338034D01*
X171379854Y-49276711D01*
X171384838Y-49207019D01*
X171413343Y-49162668D01*
X171422968Y-49153044D01*
X171512003Y-49008697D01*
X171565349Y-48847708D01*
X171575500Y-48748345D01*
X171575499Y-48201656D01*
X171574950Y-48196286D01*
X171565349Y-48102292D01*
X171565348Y-48102289D01*
X171558555Y-48081790D01*
X171512003Y-47941303D01*
X171511999Y-47941297D01*
X171511998Y-47941294D01*
X171422970Y-47796959D01*
X171422967Y-47796955D01*
X171303044Y-47677032D01*
X171303040Y-47677029D01*
X171158705Y-47588001D01*
X171158699Y-47587998D01*
X171158697Y-47587997D01*
X171120129Y-47575217D01*
X170997709Y-47534651D01*
X170898346Y-47524500D01*
X170301662Y-47524500D01*
X170301644Y-47524501D01*
X170202292Y-47534650D01*
X170202289Y-47534651D01*
X170041305Y-47587996D01*
X170041298Y-47587999D01*
X169972778Y-47630264D01*
X169930991Y-47656038D01*
X169865895Y-47674500D01*
X169424574Y-47674500D01*
X169357535Y-47654815D01*
X169311780Y-47602011D01*
X169301836Y-47532853D01*
X169330861Y-47469297D01*
X169359478Y-47444961D01*
X169403654Y-47417713D01*
X169403653Y-47417713D01*
X169403656Y-47417712D01*
X169527712Y-47293656D01*
X169619814Y-47144334D01*
X169674999Y-46977797D01*
X169685500Y-46875009D01*
X169685499Y-46274992D01*
X169680365Y-46224737D01*
X169674999Y-46172203D01*
X169674998Y-46172200D01*
X169666304Y-46145963D01*
X169619814Y-46005666D01*
X169527712Y-45856344D01*
X169403656Y-45732288D01*
X169400342Y-45730243D01*
X169398546Y-45728248D01*
X169397989Y-45727807D01*
X169398064Y-45727711D01*
X169353618Y-45678297D01*
X169342397Y-45609334D01*
X169370240Y-45545252D01*
X169400348Y-45519165D01*
X169403342Y-45517318D01*
X169527315Y-45393345D01*
X169619356Y-45244124D01*
X169619358Y-45244119D01*
X169674505Y-45077697D01*
X169674506Y-45077690D01*
X169684999Y-44974986D01*
X169685000Y-44974973D01*
X169685000Y-44925000D01*
X167235001Y-44925000D01*
X167235001Y-44974986D01*
X167245494Y-45077697D01*
X167300641Y-45244119D01*
X167300643Y-45244124D01*
X167392684Y-45393345D01*
X167516655Y-45517316D01*
X167516659Y-45517319D01*
X167519656Y-45519168D01*
X167521279Y-45520972D01*
X167522323Y-45521798D01*
X167522181Y-45521976D01*
X167566381Y-45571116D01*
X167577602Y-45640079D01*
X167549759Y-45704161D01*
X167519661Y-45730241D01*
X167516349Y-45732283D01*
X167516343Y-45732288D01*
X167392289Y-45856342D01*
X167300187Y-46005663D01*
X167300185Y-46005668D01*
X167274639Y-46082761D01*
X167245001Y-46172203D01*
X167245001Y-46172204D01*
X167245000Y-46172204D01*
X167234500Y-46274983D01*
X167234500Y-46875001D01*
X167234501Y-46875019D01*
X167245000Y-46977796D01*
X167245001Y-46977799D01*
X167289452Y-47111941D01*
X167300186Y-47144334D01*
X167390404Y-47290602D01*
X167392289Y-47293657D01*
X167516345Y-47417713D01*
X167516348Y-47417715D01*
X167600595Y-47469678D01*
X167607418Y-47477263D01*
X167616703Y-47481504D01*
X167630391Y-47502803D01*
X167647321Y-47521625D01*
X167649965Y-47533261D01*
X167654477Y-47540282D01*
X167659500Y-47575217D01*
X167659500Y-47580544D01*
X167639815Y-47647583D01*
X167598622Y-47687276D01*
X167523135Y-47731919D01*
X167523128Y-47731924D01*
X167492100Y-47762952D01*
X167430776Y-47796437D01*
X167361085Y-47791451D01*
X167335529Y-47778372D01*
X167204184Y-47690609D01*
X167204171Y-47690602D01*
X167058500Y-47630264D01*
X167052664Y-47628494D01*
X167053363Y-47626186D01*
X167000877Y-47598715D01*
X166966317Y-47537991D01*
X166963000Y-47509503D01*
X166963000Y-46598653D01*
X166960048Y-46583816D01*
X166960046Y-46583811D01*
X166951195Y-46539316D01*
X166937882Y-46472384D01*
X166935499Y-46448193D01*
X166935499Y-46201662D01*
X166935498Y-46201644D01*
X166925349Y-46102292D01*
X166925348Y-46102289D01*
X166895549Y-46012362D01*
X166872003Y-45941303D01*
X166871999Y-45941297D01*
X166871998Y-45941294D01*
X166782970Y-45796959D01*
X166782967Y-45796955D01*
X166773339Y-45787327D01*
X166739854Y-45726004D01*
X166744838Y-45656312D01*
X166773345Y-45611959D01*
X166782573Y-45602731D01*
X166871542Y-45458492D01*
X166871547Y-45458481D01*
X166924855Y-45297606D01*
X166934999Y-45198322D01*
X166935000Y-45198309D01*
X166935000Y-45175000D01*
X164985001Y-45175000D01*
X164985001Y-45198322D01*
X164995144Y-45297607D01*
X165048452Y-45458481D01*
X165048457Y-45458492D01*
X165137424Y-45602728D01*
X165137427Y-45602732D01*
X165146660Y-45611965D01*
X165180145Y-45673288D01*
X165175161Y-45742980D01*
X165146663Y-45787324D01*
X165137033Y-45796953D01*
X165137029Y-45796959D01*
X165048001Y-45941294D01*
X165047996Y-45941305D01*
X164994651Y-46102290D01*
X164984500Y-46201647D01*
X164984500Y-46748337D01*
X164984501Y-46748355D01*
X164994650Y-46847707D01*
X164994651Y-46847710D01*
X165047996Y-47008694D01*
X165048001Y-47008705D01*
X165137029Y-47153040D01*
X165137032Y-47153044D01*
X165256956Y-47272968D01*
X165303097Y-47301428D01*
X165309919Y-47309013D01*
X165319203Y-47313253D01*
X165332890Y-47334551D01*
X165349821Y-47353374D01*
X165352465Y-47365010D01*
X165356977Y-47372031D01*
X165362000Y-47406966D01*
X165362000Y-47593850D01*
X165342315Y-47660889D01*
X165301122Y-47700581D01*
X165248140Y-47731914D01*
X165248129Y-47731923D01*
X165131923Y-47848129D01*
X165131917Y-47848137D01*
X165048255Y-47989603D01*
X165048254Y-47989606D01*
X165002402Y-48147426D01*
X165002401Y-48147432D01*
X164999500Y-48184298D01*
X164999500Y-48615701D01*
X165002401Y-48652567D01*
X165002402Y-48652573D01*
X165048254Y-48810393D01*
X165048256Y-48810399D01*
X165049426Y-48812377D01*
X165049869Y-48814126D01*
X165051353Y-48817554D01*
X165050799Y-48817793D01*
X165066603Y-48880102D01*
X165051249Y-48932395D01*
X165051817Y-48932641D01*
X165049827Y-48937239D01*
X165049428Y-48938599D01*
X165048722Y-48939791D01*
X165048716Y-48939806D01*
X165002900Y-49097505D01*
X165002899Y-49097511D01*
X165002704Y-49099998D01*
X165002705Y-49100000D01*
X165268185Y-49100000D01*
X165331306Y-49117268D01*
X165389602Y-49151744D01*
X165394077Y-49153044D01*
X165547426Y-49197597D01*
X165547429Y-49197597D01*
X165547431Y-49197598D01*
X165584306Y-49200500D01*
X166038500Y-49200500D01*
X166047185Y-49203050D01*
X166056147Y-49201762D01*
X166080187Y-49212740D01*
X166105539Y-49220185D01*
X166111466Y-49227025D01*
X166119703Y-49230787D01*
X166133992Y-49253021D01*
X166151294Y-49272989D01*
X166153581Y-49283503D01*
X166157477Y-49289565D01*
X166162500Y-49324500D01*
X166162500Y-49375500D01*
X166142815Y-49442539D01*
X166090011Y-49488294D01*
X166038500Y-49499500D01*
X165584298Y-49499500D01*
X165547432Y-49502401D01*
X165547426Y-49502402D01*
X165389606Y-49548254D01*
X165389603Y-49548255D01*
X165331306Y-49582732D01*
X165268185Y-49600000D01*
X165002705Y-49600000D01*
X165002704Y-49600001D01*
X165002899Y-49602488D01*
X165028587Y-49690906D01*
X165028387Y-49760775D01*
X164990444Y-49819445D01*
X164926806Y-49848288D01*
X164909510Y-49849500D01*
X163637230Y-49849500D01*
X163613736Y-49842601D01*
X163589394Y-49839902D01*
X163577594Y-49831988D01*
X163570191Y-49829815D01*
X163559101Y-49821791D01*
X163554106Y-49817738D01*
X163543656Y-49807288D01*
X163533526Y-49801039D01*
X163527311Y-49795997D01*
X163511844Y-49773560D01*
X163493618Y-49753297D01*
X163492302Y-49745212D01*
X163487655Y-49738471D01*
X163486773Y-49711231D01*
X163482397Y-49684334D01*
X163485659Y-49676824D01*
X163485395Y-49668638D01*
X163499380Y-49645244D01*
X163510240Y-49620252D01*
X163518711Y-49612912D01*
X163521248Y-49608669D01*
X163526774Y-49605925D01*
X163540348Y-49594165D01*
X163543342Y-49592318D01*
X163667315Y-49468345D01*
X163759356Y-49319124D01*
X163759358Y-49319119D01*
X163814505Y-49152697D01*
X163814506Y-49152690D01*
X163824999Y-49049986D01*
X163825000Y-49049973D01*
X163825000Y-49000000D01*
X161375001Y-49000000D01*
X161375001Y-49049986D01*
X161385494Y-49152697D01*
X161440641Y-49319119D01*
X161440643Y-49319124D01*
X161532684Y-49468345D01*
X161656655Y-49592316D01*
X161656659Y-49592319D01*
X161659656Y-49594168D01*
X161661279Y-49595972D01*
X161662323Y-49596798D01*
X161662181Y-49596976D01*
X161706381Y-49646116D01*
X161717602Y-49715079D01*
X161689759Y-49779161D01*
X161659661Y-49805241D01*
X161656349Y-49807283D01*
X161656343Y-49807288D01*
X161532289Y-49931342D01*
X161440187Y-50080663D01*
X161440185Y-50080668D01*
X161422978Y-50132596D01*
X161385001Y-50247203D01*
X161385001Y-50247204D01*
X161385000Y-50247204D01*
X161374500Y-50349983D01*
X159476480Y-50349983D01*
X159675854Y-50107044D01*
X159877853Y-49804732D01*
X160049247Y-49484076D01*
X160188386Y-49148164D01*
X160293930Y-48800233D01*
X160293932Y-48800223D01*
X160293935Y-48800212D01*
X160362516Y-48455423D01*
X160363592Y-48450013D01*
X161375000Y-48450013D01*
X161375000Y-48500000D01*
X162350000Y-48500000D01*
X162850000Y-48500000D01*
X163824999Y-48500000D01*
X163824999Y-48450028D01*
X163824998Y-48450013D01*
X163814505Y-48347302D01*
X163759358Y-48180880D01*
X163759356Y-48180875D01*
X163667315Y-48031654D01*
X163543345Y-47907684D01*
X163394124Y-47815643D01*
X163394119Y-47815641D01*
X163227697Y-47760494D01*
X163227690Y-47760493D01*
X163124986Y-47750000D01*
X162850000Y-47750000D01*
X162850000Y-48500000D01*
X162350000Y-48500000D01*
X162350000Y-47750000D01*
X162075029Y-47750000D01*
X162075012Y-47750001D01*
X161972302Y-47760494D01*
X161805880Y-47815641D01*
X161805875Y-47815643D01*
X161656654Y-47907684D01*
X161532684Y-48031654D01*
X161440643Y-48180875D01*
X161440641Y-48180880D01*
X161385494Y-48347302D01*
X161385493Y-48347309D01*
X161375000Y-48450013D01*
X160363592Y-48450013D01*
X160364862Y-48443631D01*
X160367732Y-48414499D01*
X160385558Y-48233497D01*
X160400500Y-48081794D01*
X160400500Y-47718206D01*
X160364862Y-47356369D01*
X160363378Y-47348910D01*
X160293935Y-46999787D01*
X160293932Y-46999776D01*
X160293931Y-46999773D01*
X160293930Y-46999767D01*
X160188386Y-46651836D01*
X160049247Y-46315924D01*
X160048936Y-46315343D01*
X159877859Y-45995279D01*
X159877858Y-45995277D01*
X159877853Y-45995268D01*
X159675854Y-45692956D01*
X159445197Y-45411899D01*
X159445196Y-45411898D01*
X159445192Y-45411893D01*
X159188106Y-45154807D01*
X158907049Y-44924150D01*
X158907048Y-44924149D01*
X158907044Y-44924146D01*
X158604732Y-44722147D01*
X158604727Y-44722144D01*
X158604720Y-44722140D01*
X158472893Y-44651677D01*
X164985000Y-44651677D01*
X164985000Y-44675000D01*
X165710000Y-44675000D01*
X166210000Y-44675000D01*
X166934999Y-44675000D01*
X166934999Y-44651692D01*
X166934997Y-44651672D01*
X166932602Y-44628215D01*
X166931602Y-44618427D01*
X171225000Y-44618427D01*
X171225000Y-44625000D01*
X171950000Y-44625000D01*
X171950000Y-43975000D01*
X171949999Y-43974999D01*
X171868417Y-43975000D01*
X171797897Y-43981408D01*
X171797892Y-43981409D01*
X171635603Y-44031981D01*
X171490122Y-44119927D01*
X171369927Y-44240122D01*
X171281980Y-44385604D01*
X171231409Y-44547893D01*
X171225000Y-44618427D01*
X166931602Y-44618427D01*
X166924855Y-44552392D01*
X166877959Y-44410868D01*
X166877958Y-44410866D01*
X166871548Y-44391520D01*
X166871542Y-44391507D01*
X166861368Y-44375013D01*
X167235000Y-44375013D01*
X167235000Y-44425000D01*
X168210000Y-44425000D01*
X168710000Y-44425000D01*
X169684999Y-44425000D01*
X169684999Y-44375028D01*
X169684998Y-44375013D01*
X169674505Y-44272302D01*
X169619358Y-44105880D01*
X169619356Y-44105875D01*
X169527315Y-43956654D01*
X169403345Y-43832684D01*
X169254124Y-43740643D01*
X169254119Y-43740641D01*
X169087697Y-43685494D01*
X169087690Y-43685493D01*
X168984986Y-43675000D01*
X168710000Y-43675000D01*
X168710000Y-44425000D01*
X168210000Y-44425000D01*
X168210000Y-43675000D01*
X167935029Y-43675000D01*
X167935012Y-43675001D01*
X167832302Y-43685494D01*
X167665880Y-43740641D01*
X167665875Y-43740643D01*
X167516654Y-43832684D01*
X167392684Y-43956654D01*
X167300643Y-44105875D01*
X167300641Y-44105880D01*
X167245494Y-44272302D01*
X167245493Y-44272309D01*
X167235000Y-44375013D01*
X166861368Y-44375013D01*
X166782575Y-44247271D01*
X166782572Y-44247267D01*
X166662732Y-44127427D01*
X166662728Y-44127424D01*
X166518492Y-44038457D01*
X166518481Y-44038452D01*
X166357606Y-43985144D01*
X166258322Y-43975000D01*
X166210000Y-43975000D01*
X166210000Y-44675000D01*
X165710000Y-44675000D01*
X165710000Y-43975000D01*
X165709999Y-43974999D01*
X165661693Y-43975000D01*
X165661675Y-43975001D01*
X165562392Y-43985144D01*
X165401518Y-44038452D01*
X165401507Y-44038457D01*
X165257271Y-44127424D01*
X165257267Y-44127427D01*
X165137427Y-44247267D01*
X165137424Y-44247271D01*
X165048457Y-44391507D01*
X165048452Y-44391518D01*
X164995144Y-44552393D01*
X164985000Y-44651677D01*
X158472893Y-44651677D01*
X158284083Y-44550756D01*
X158284078Y-44550754D01*
X158252833Y-44537812D01*
X158054863Y-44455810D01*
X157948165Y-44411614D01*
X157600223Y-44306067D01*
X157600212Y-44306064D01*
X157243630Y-44235137D01*
X156971111Y-44208296D01*
X156881794Y-44199500D01*
X156518206Y-44199500D01*
X156435679Y-44207628D01*
X156156369Y-44235137D01*
X155799787Y-44306064D01*
X155799776Y-44306067D01*
X155451834Y-44411614D01*
X155115921Y-44550754D01*
X155115916Y-44550756D01*
X154795279Y-44722140D01*
X154795261Y-44722151D01*
X154492964Y-44924140D01*
X154492950Y-44924150D01*
X154211893Y-45154807D01*
X153954807Y-45411893D01*
X153724150Y-45692950D01*
X153724140Y-45692964D01*
X153522151Y-45995261D01*
X153522140Y-45995279D01*
X153350756Y-46315916D01*
X153350754Y-46315921D01*
X153211614Y-46651834D01*
X153106067Y-46999776D01*
X153106064Y-46999787D01*
X153035137Y-47356369D01*
X153009092Y-47620814D01*
X152999500Y-47718206D01*
X149800500Y-47718206D01*
X149800500Y-43153589D01*
X149820185Y-43086550D01*
X149872989Y-43040795D01*
X149924500Y-43029589D01*
X218775898Y-43029589D01*
X218842937Y-43049274D01*
G37*
%TD.AperFunction*%
%TD*%
M02*
